<svg width="798" height="489" viewBox="0 0 798 489" fill="none" xmlns="http://www.w3.org/2000/svg">
<g opacity="0.8">
<mask id="path-1-outside-1_18_1845" maskUnits="userSpaceOnUse" x="-0.783203" y="-0.785156" width="799" height="490" fill="black">
<rect fill="white" x="-0.783203" y="-0.785156" width="799" height="490"/>
<path d="M763.038 2.21484C780.988 2.21507 795.539 16.7662 795.539 34.7158V454.275C795.539 472.225 780.987 486.776 763.037 486.776H34.7178C16.7681 486.776 2.21688 472.225 2.2168 454.275V34.7158C2.21691 16.7662 16.7682 2.21507 34.7178 2.21484H763.038ZM210.521 433.363C199.098 433.363 189.838 442.623 189.838 454.046C189.838 465.468 199.098 474.728 210.521 474.728C221.943 474.727 231.202 465.468 231.202 454.046C231.202 442.623 221.943 433.364 210.521 433.363ZM587.752 433.363C576.329 433.363 567.069 442.623 567.069 454.046C567.07 465.468 576.329 474.728 587.752 474.728C599.174 474.727 608.433 465.468 608.434 454.046C608.434 442.623 599.174 433.364 587.752 433.363ZM276.999 433.363C274.552 433.364 272.567 435.347 272.567 437.795V457C272.567 459.448 274.552 461.431 276.999 461.432H296.205C298.653 461.431 300.637 459.448 300.637 457V437.795C300.637 435.347 298.653 433.363 296.205 433.363H276.999ZM502.067 433.363C499.62 433.363 497.635 435.347 497.635 437.795V457C497.635 459.448 499.62 461.432 502.067 461.432H521.272C523.72 461.431 525.704 459.448 525.704 457V437.795C525.704 435.347 523.72 433.363 521.272 433.363H502.067ZM237.851 178.755C213.781 178.755 194.27 198.267 194.27 222.336C194.27 246.405 213.781 265.917 237.851 265.917C261.92 265.917 281.432 246.405 281.432 222.336C281.432 198.267 261.92 178.755 237.851 178.755ZM559.906 178.755C535.837 178.755 516.325 198.267 516.325 222.336C516.325 246.405 535.837 265.917 559.906 265.917C583.975 265.917 603.487 246.405 603.487 222.336C603.487 198.267 583.975 178.755 559.906 178.755Z"/>
</mask>
<path d="M763.038 2.21484C780.988 2.21507 795.539 16.7662 795.539 34.7158V454.275C795.539 472.225 780.987 486.776 763.037 486.776H34.7178C16.7681 486.776 2.21688 472.225 2.2168 454.275V34.7158C2.21691 16.7662 16.7682 2.21507 34.7178 2.21484H763.038ZM210.521 433.363C199.098 433.363 189.838 442.623 189.838 454.046C189.838 465.468 199.098 474.728 210.521 474.728C221.943 474.727 231.202 465.468 231.202 454.046C231.202 442.623 221.943 433.364 210.521 433.363ZM587.752 433.363C576.329 433.363 567.069 442.623 567.069 454.046C567.07 465.468 576.329 474.728 587.752 474.728C599.174 474.727 608.433 465.468 608.434 454.046C608.434 442.623 599.174 433.364 587.752 433.363ZM276.999 433.363C274.552 433.364 272.567 435.347 272.567 437.795V457C272.567 459.448 274.552 461.431 276.999 461.432H296.205C298.653 461.431 300.637 459.448 300.637 457V437.795C300.637 435.347 298.653 433.363 296.205 433.363H276.999ZM502.067 433.363C499.62 433.363 497.635 435.347 497.635 437.795V457C497.635 459.448 499.62 461.432 502.067 461.432H521.272C523.72 461.431 525.704 459.448 525.704 457V437.795C525.704 435.347 523.72 433.363 521.272 433.363H502.067ZM237.851 178.755C213.781 178.755 194.27 198.267 194.27 222.336C194.27 246.405 213.781 265.917 237.851 265.917C261.92 265.917 281.432 246.405 281.432 222.336C281.432 198.267 261.92 178.755 237.851 178.755ZM559.906 178.755C535.837 178.755 516.325 198.267 516.325 222.336C516.325 246.405 535.837 265.917 559.906 265.917C583.975 265.917 603.487 246.405 603.487 222.336C603.487 198.267 583.975 178.755 559.906 178.755Z" fill="#E2E2E2"/>
<path d="M763.038 2.21484L763.038 -0.00113821H763.038V2.21484ZM795.539 34.7158L797.755 34.7158L797.755 34.7158L795.539 34.7158ZM795.539 454.275L797.755 454.275V454.275H795.539ZM34.7178 486.776L34.7178 488.992H34.7178V486.776ZM2.2168 454.275L0.000814915 454.275L0.000814915 454.275L2.2168 454.275ZM2.2168 34.7158L0.000814915 34.7158V34.7158H2.2168ZM34.7178 2.21484L34.7178 -0.00113821L34.7177 -0.00113821L34.7178 2.21484ZM210.521 433.363L210.521 431.147H210.521V433.363ZM189.838 454.046L187.622 454.046L187.622 454.046L189.838 454.046ZM210.521 474.728L210.521 476.944L210.521 476.944L210.521 474.728ZM231.202 454.046L233.418 454.046V454.046H231.202ZM587.752 433.363L587.752 431.147H587.752V433.363ZM567.069 454.046L564.853 454.046L564.853 454.046L567.069 454.046ZM587.752 474.728L587.752 476.944L587.752 476.944L587.752 474.728ZM608.434 454.046L610.65 454.046V454.046H608.434ZM276.999 433.363L276.999 431.147L276.999 431.147L276.999 433.363ZM272.567 437.795L270.351 437.795V437.795H272.567ZM276.999 461.432L276.999 463.648H276.999V461.432ZM296.205 461.432L296.205 463.648L296.205 463.648L296.205 461.432ZM300.637 437.795L302.853 437.795L302.853 437.795L300.637 437.795ZM296.205 433.363L296.205 431.147H296.205V433.363ZM497.635 437.795L495.419 437.795V437.795H497.635ZM521.272 461.432L521.272 463.648L521.273 463.648L521.272 461.432ZM525.704 437.795L527.92 437.795L527.92 437.795L525.704 437.795ZM521.272 433.363L521.273 431.147H521.272V433.363ZM237.851 178.755L237.851 176.539H237.851V178.755ZM194.27 222.336L192.054 222.336L192.054 222.336L194.27 222.336ZM237.851 265.917L237.851 268.133L237.851 268.133L237.851 265.917ZM281.432 222.336L283.648 222.336V222.336H281.432ZM559.906 178.755L559.906 176.539L559.906 176.539L559.906 178.755ZM516.325 222.336L514.109 222.336L514.109 222.336L516.325 222.336ZM559.906 265.917L559.906 268.133H559.906V265.917ZM603.487 222.336L605.703 222.336V222.336H603.487ZM763.038 2.21484L763.038 4.43083C779.764 4.43103 793.323 17.9901 793.323 34.7158L795.539 34.7158L797.755 34.7158C797.755 15.5423 782.212 -0.000901334 763.038 -0.00113821L763.038 2.21484ZM795.539 34.7158H793.323V454.275H795.539H797.755V34.7158H795.539ZM795.539 454.275L793.323 454.275C793.323 471.001 779.763 484.56 763.037 484.56V486.776V488.992C782.211 488.992 797.755 473.449 797.755 454.275L795.539 454.275ZM763.037 486.776V484.56H34.7178V486.776V488.992H763.037V486.776ZM34.7178 486.776L34.7178 484.56C17.992 484.56 4.43285 471.001 4.43278 454.275L2.2168 454.275L0.000814915 454.275C0.00090036 473.449 15.5443 488.992 34.7178 488.992L34.7178 486.776ZM2.2168 454.275H4.43278V34.7158H2.2168H0.000814915V454.275H2.2168ZM2.2168 34.7158L4.43278 34.7158C4.43289 17.9901 17.992 4.43104 34.7178 4.43083L34.7178 2.21484L34.7177 -0.00113821C15.5444 -0.000893123 0.000937524 15.5423 0.000814915 34.7158L2.2168 34.7158ZM34.7178 2.21484V4.43083H763.038V2.21484V-0.00113821H34.7178V2.21484ZM210.521 433.363V431.147C197.874 431.147 187.622 441.399 187.622 454.046H189.838H192.054C192.054 443.847 200.322 435.579 210.521 435.579V433.363ZM189.838 454.046L187.622 454.046C187.622 466.692 197.874 476.944 210.521 476.944V474.728V472.512C200.322 472.512 192.054 464.244 192.054 454.046L189.838 454.046ZM210.521 474.728L210.521 476.944C223.167 476.943 233.418 466.692 233.418 454.046L231.202 454.046L228.986 454.046C228.986 464.244 220.719 472.511 210.52 472.512L210.521 474.728ZM231.202 454.046H233.418C233.418 441.4 223.167 431.148 210.521 431.147L210.521 433.363L210.52 435.579C220.719 435.579 228.986 443.847 228.986 454.046H231.202ZM587.752 433.363V431.147C575.105 431.147 564.853 441.399 564.853 454.046H567.069H569.285C569.285 443.847 577.553 435.579 587.752 435.579V433.363ZM567.069 454.046L564.853 454.046C564.854 466.692 575.106 476.944 587.752 476.944V474.728V472.512C577.553 472.512 569.286 464.244 569.285 454.046L567.069 454.046ZM587.752 474.728L587.752 476.944C600.398 476.943 610.649 466.692 610.65 454.046L608.434 454.046L606.218 454.046C606.217 464.244 597.95 472.511 587.752 472.512L587.752 474.728ZM608.434 454.046H610.65C610.65 441.4 600.398 431.148 587.752 431.147L587.752 433.363L587.752 435.579C597.95 435.579 606.218 443.847 606.218 454.046H608.434ZM276.999 433.363L276.999 431.147C273.328 431.148 270.351 434.123 270.351 437.795L272.567 437.795L274.783 437.795C274.783 436.571 275.775 435.579 276.999 435.579L276.999 433.363ZM272.567 437.795H270.351V457H272.567H274.783V437.795H272.567ZM272.567 457H270.351C270.351 460.672 273.328 463.647 276.999 463.648L276.999 461.432L276.999 459.216C275.775 459.216 274.783 458.223 274.783 457H272.567ZM276.999 461.432V463.648H296.205V461.432V459.216H276.999V461.432ZM296.205 461.432L296.205 463.648C299.876 463.647 302.853 460.672 302.853 457H300.637H298.421C298.421 458.224 297.429 459.216 296.205 459.216L296.205 461.432ZM300.637 457H302.853V437.795H300.637H298.421V457H300.637ZM300.637 437.795L302.853 437.795C302.853 434.123 299.876 431.148 296.205 431.147L296.205 433.363L296.205 435.579C297.429 435.579 298.421 436.571 298.421 437.795L300.637 437.795ZM296.205 433.363V431.147H276.999V433.363V435.579H296.205V433.363ZM502.067 433.363V431.147C498.396 431.147 495.419 434.123 495.419 437.795L497.635 437.795L499.851 437.795C499.851 436.572 500.843 435.579 502.067 435.579V433.363ZM497.635 437.795H495.419V457H497.635H499.851V437.795H497.635ZM497.635 457H495.419C495.419 460.672 498.396 463.648 502.067 463.648V461.432V459.216C500.843 459.216 499.851 458.223 499.851 457H497.635ZM502.067 461.432V463.648H521.272V461.432V459.216H502.067V461.432ZM521.272 461.432L521.273 463.648C524.944 463.647 527.92 460.672 527.92 457H525.704H523.488C523.488 458.224 522.496 459.216 521.272 459.216L521.272 461.432ZM525.704 457H527.92V437.795H525.704H523.488V457H525.704ZM525.704 437.795L527.92 437.795C527.92 434.123 524.944 431.148 521.273 431.147L521.272 433.363L521.272 435.579C522.496 435.579 523.488 436.571 523.488 437.795L525.704 437.795ZM521.272 433.363V431.147H502.067V433.363V435.579H521.272V433.363ZM237.851 178.755V176.539C212.558 176.539 192.054 197.043 192.054 222.336H194.27H196.486C196.486 199.491 215.005 180.971 237.851 180.971V178.755ZM194.27 222.336L192.054 222.336C192.054 247.629 212.558 268.133 237.851 268.133V265.917V263.701C215.005 263.701 196.486 245.181 196.486 222.336L194.27 222.336ZM237.851 265.917L237.851 268.133C263.143 268.133 283.648 247.629 283.648 222.336L281.432 222.336L279.216 222.336C279.216 245.181 260.696 263.701 237.851 263.701L237.851 265.917ZM281.432 222.336H283.648C283.648 197.043 263.143 176.539 237.851 176.539L237.851 178.755L237.851 180.971C260.696 180.971 279.216 199.491 279.216 222.336H281.432ZM559.906 178.755L559.906 176.539C534.613 176.539 514.109 197.043 514.109 222.336H516.325H518.541C518.541 199.491 537.061 180.971 559.906 180.971L559.906 178.755ZM516.325 222.336L514.109 222.336C514.109 247.629 534.613 268.133 559.906 268.133L559.906 265.917L559.906 263.701C537.061 263.701 518.541 245.181 518.541 222.336L516.325 222.336ZM559.906 265.917V268.133C585.199 268.133 605.703 247.629 605.703 222.336L603.487 222.336L601.271 222.336C601.271 245.181 582.751 263.701 559.906 263.701V265.917ZM603.487 222.336H605.703C605.703 197.043 585.199 176.539 559.906 176.539V178.755V180.971C582.752 180.971 601.271 199.491 601.271 222.336H603.487Z" fill="#202020" mask="url(#path-1-outside-1_18_1845)"/>
</g>
<path d="M237.109 88.6406C310.948 88.6407 370.806 148.499 370.807 222.338C370.807 296.177 310.948 356.036 237.109 356.036C163.27 356.036 103.412 296.177 103.412 222.338C103.412 148.499 163.27 88.6406 237.109 88.6406ZM237.848 176.541C212.555 176.541 192.051 197.045 192.051 222.338C192.051 247.631 212.555 268.135 237.848 268.135C263.141 268.135 283.645 247.631 283.645 222.338C283.644 197.045 263.141 176.541 237.848 176.541Z" fill="#202020"/>
<path d="M559.166 166.938C589.762 166.938 614.565 191.741 614.565 222.337C614.565 252.933 589.762 277.736 559.166 277.736C528.57 277.736 503.766 252.933 503.766 222.337C503.766 191.741 528.57 166.938 559.166 166.938ZM559.904 176.54C534.611 176.54 514.108 197.044 514.107 222.337C514.107 247.63 534.611 268.134 559.904 268.134C585.197 268.134 605.701 247.63 605.701 222.337C605.701 197.044 585.197 176.54 559.904 176.54Z" fill="#202020"/>
<path d="M93.4393 201.658C85.7284 262.786 55.7217 408.38 63.5234 455.388M86.4221 474.593C137.759 475.331 705.789 474.593 711.329 474.593M604.592 191.316C630.745 230.072 714.893 385.047 733.821 445.416" stroke="#202020" stroke-width="0.738661"/>
<path d="M86.1982 427.496C99.2525 427.496 109.835 438.079 109.835 451.133C109.835 464.187 99.2526 474.77 86.1982 474.771C73.1438 474.771 62.5605 464.187 62.5605 451.133C62.5608 438.079 73.1439 427.496 86.1982 427.496ZM86.1982 441.185C80.7017 441.185 76.2452 445.64 76.2451 451.137C76.2451 456.633 80.7016 461.089 86.1982 461.089C91.6947 461.089 96.1504 456.633 96.1504 451.137C96.1503 445.64 91.6947 441.185 86.1982 441.185Z" fill="#202020"/>
<path d="M711.105 427.496C724.16 427.496 734.743 438.079 734.743 451.134C734.743 464.188 724.16 474.771 711.105 474.771C698.051 474.77 687.469 464.188 687.469 451.134C687.469 438.079 698.051 427.496 711.105 427.496ZM711.105 441.185C705.609 441.185 701.153 445.64 701.153 451.137C701.153 456.633 705.609 461.089 711.105 461.089C716.602 461.089 721.059 456.633 721.059 451.137C721.059 445.64 716.602 441.185 711.105 441.185Z" fill="#202020"/>
<path d="M179.775 378.565H623.873C634.17 378.565 643.156 385.546 645.702 395.522L669.276 487.887H129.291L158.256 394.425C161.179 384.994 169.902 378.565 179.775 378.565Z" stroke="#202020" stroke-width="2.21598"/>
<circle cx="210.516" cy="454.085" r="19.5745" stroke="#202020" stroke-width="2.21598"/>
<circle cx="587.749" cy="454.085" r="19.5745" stroke="#202020" stroke-width="2.21598"/>
<rect x="273.672" y="434.51" width="25.8531" height="25.8531" rx="3.32397" stroke="#202020" stroke-width="2.21598"/>
<path d="M384.842 461.475C384.842 459.027 386.826 457.043 389.274 457.043H408.479C410.927 457.043 412.911 459.027 412.911 461.475V474.771H384.842V461.475Z" fill="#202020"/>
<rect x="498.741" y="434.51" width="25.8531" height="25.8531" rx="3.32397" stroke="#202020" stroke-width="2.21598"/>
<g clip-path="url(#clip0_18_1845)">
<path d="M398.763 386.871C406.106 386.871 412.059 392.824 412.059 400.167C412.059 407.51 406.106 413.463 398.763 413.463C391.42 413.463 385.467 407.51 385.467 400.167C385.467 392.824 391.42 386.871 398.763 386.871ZM399.849 392.21C399.608 391.027 397.917 391.027 397.677 392.21L396.662 397.201C396.573 397.637 396.233 397.978 395.797 398.066L390.806 399.081C389.623 399.322 389.623 401.012 390.806 401.253L395.797 402.268C396.233 402.356 396.573 402.697 396.662 403.133L397.677 408.124C397.917 409.307 399.608 409.307 399.849 408.124L400.863 403.133C400.952 402.697 401.293 402.356 401.729 402.268L406.72 401.253C407.903 401.012 407.903 399.322 406.72 399.081L401.729 398.066C401.293 397.978 400.952 397.637 400.863 397.201L399.849 392.21Z" fill="#202020"/>
</g>
<g clip-path="url(#clip1_18_1845)">
<path d="M33.2393 19.9453C40.5824 19.9453 46.5352 25.8981 46.5352 33.2412C46.5352 40.5843 40.5824 46.5371 33.2393 46.5371C25.8961 46.5371 19.9434 40.5843 19.9434 33.2412C19.9434 25.8981 25.8961 19.9453 33.2393 19.9453ZM34.3252 25.2842C34.0846 24.1013 32.3939 24.1013 32.1533 25.2842L31.1387 30.2754C31.0501 30.7112 30.7092 31.052 30.2734 31.1406L25.2822 32.1553C24.0994 32.3959 24.0994 34.0866 25.2822 34.3271L30.2734 35.3418C30.7092 35.4304 31.0501 35.7713 31.1387 36.207L32.1533 41.1982C32.3939 42.3811 34.0846 42.3811 34.3252 41.1982L35.3398 36.207C35.4285 35.7713 35.7693 35.4304 36.2051 35.3418L41.1963 34.3271C42.3791 34.0865 42.3791 32.3959 41.1963 32.1553L36.2051 31.1406C35.7693 31.052 35.4285 30.7112 35.3398 30.2754L34.3252 25.2842Z" fill="#202020"/>
</g>
<g clip-path="url(#clip2_18_1845)">
<path d="M33.2393 442.27C40.5824 442.27 46.5352 448.222 46.5352 455.565C46.5352 462.909 40.5824 468.861 33.2393 468.861C25.8961 468.861 19.9434 462.909 19.9434 455.565C19.9434 448.222 25.8961 442.27 33.2393 442.27ZM34.3252 447.608C34.0846 446.426 32.3939 446.426 32.1533 447.608L31.1387 452.6C31.0501 453.035 30.7092 453.376 30.2734 453.465L25.2822 454.479C24.0994 454.72 24.0994 456.411 25.2822 456.651L30.2734 457.666C30.7092 457.755 31.0501 458.095 31.1387 458.531L32.1533 463.522C32.3939 464.705 34.0846 464.705 34.3252 463.522L35.3398 458.531C35.4285 458.095 35.7693 457.755 36.2051 457.666L41.1963 456.651C42.3791 456.411 42.3791 454.72 41.1963 454.479L36.2051 453.465C35.7693 453.376 35.4285 453.035 35.3398 452.6L34.3252 447.608Z" fill="#202020"/>
</g>
<g clip-path="url(#clip3_18_1845)">
<path d="M764.288 19.9453C771.631 19.9453 777.584 25.8981 777.584 33.2412C777.584 40.5843 771.631 46.5371 764.288 46.5371C756.945 46.5371 750.992 40.5843 750.992 33.2412C750.992 25.8981 756.945 19.9453 764.288 19.9453ZM765.374 25.2842C765.133 24.1013 763.443 24.1013 763.202 25.2842L762.188 30.2754C762.099 30.7112 761.758 31.052 761.322 31.1406L756.331 32.1553C755.148 32.3959 755.148 34.0866 756.331 34.3271L761.322 35.3418C761.758 35.4304 762.099 35.7713 762.188 36.207L763.202 41.1982C763.443 42.3811 765.133 42.3811 765.374 41.1982L766.389 36.207C766.477 35.7713 766.818 35.4304 767.254 35.3418L772.245 34.3271C773.428 34.0865 773.428 32.3959 772.245 32.1553L767.254 31.1406C766.818 31.052 766.477 30.7112 766.389 30.2754L765.374 25.2842Z" fill="#202020"/>
</g>
<g clip-path="url(#clip4_18_1845)">
<path d="M764.288 442.27C771.631 442.27 777.584 448.222 777.584 455.565C777.584 462.909 771.631 468.861 764.288 468.861C756.945 468.861 750.992 462.909 750.992 455.565C750.992 448.222 756.945 442.27 764.288 442.27ZM765.374 447.608C765.133 446.426 763.443 446.426 763.202 447.608L762.188 452.6C762.099 453.035 761.758 453.376 761.322 453.465L756.331 454.479C755.148 454.72 755.148 456.411 756.331 456.651L761.322 457.666C761.758 457.755 762.099 458.095 762.188 458.531L763.202 463.522C763.443 464.705 765.133 464.705 765.374 463.522L766.389 458.531C766.477 458.095 766.818 457.755 767.254 457.666L772.245 456.651C773.428 456.411 773.428 454.72 772.245 454.479L767.254 453.465C766.818 453.376 766.477 453.035 766.389 452.6L765.374 447.608Z" fill="#202020"/>
</g>
<mask id="mask0_18_1845" style="mask-type:alpha" maskUnits="userSpaceOnUse" x="45" y="41" width="709" height="316">
<path d="M88.1855 42.4717H711.045C717.002 42.4717 722.717 44.8312 726.939 49.0342L745.691 67.7012C749.938 71.929 752.326 77.6745 752.326 83.667V332.396C752.326 344.838 742.239 354.925 729.797 354.925H69.4336C56.9913 354.925 46.9053 344.838 46.9053 332.396V83.667C46.9054 77.6746 49.2923 71.929 53.5391 67.7012L72.291 49.0342C76.5131 44.8311 82.2281 42.4717 88.1855 42.4717ZM229.724 155.486C193.212 155.486 163.613 185.085 163.613 221.597V223.074C163.614 259.586 193.212 289.184 229.724 289.184H568.03C604.542 289.183 634.139 259.586 634.14 223.074V221.597C634.14 185.085 604.542 155.487 568.03 155.486H229.724Z" fill="#EDA35F" stroke="#202020" stroke-width="2.21598"/>
</mask>
<g mask="url(#mask0_18_1845)">
<g clip-path="url(#clip5_18_1845)">
<rect width="707.637" height="314.669" transform="translate(45.7969 41.3633)" fill="#FCF7F2"/>
<g clip-path="url(#clip6_18_1845)">
<rect width="708" height="35.5145" transform="matrix(1 0 0 -1 46.166 356.734)" fill="#FF0054"/>
<rect width="708" height="24.4162" transform="matrix(1 0 0 -1 46.166 312.34)" fill="#FF0054"/>
<rect width="708" height="4.43931" transform="matrix(1 0 0 -1 46.166 181.383)" fill="#FF0054"/>
<rect width="708" height="2.21966" transform="matrix(1 0 0 -1 46.166 159.184)" fill="#FF0054"/>
<rect width="708" height="17.7572" transform="matrix(1 0 0 -1 46.166 279.047)" fill="#FF0054"/>
<rect width="708" height="8.87862" transform="matrix(1 0 0 -1 46.166 225.773)" fill="#FF0054"/>
<rect width="708" height="13.3179" transform="matrix(1 0 0 -1 46.166 250.191)" fill="#FF0054"/>
<rect width="708" height="6.65897" transform="matrix(1 0 0 -1 46.166 203.578)" fill="#FF0054"/>
</g>
<path d="M397.547 117.648C397.547 118.138 397.483 118.596 397.356 119.022C397.228 119.426 397.089 119.863 396.94 120.331L396.781 120.842C396.632 121.119 396.419 121.407 396.142 121.705C395.886 122.003 395.652 122.269 395.439 122.504C394.949 123.057 394.459 123.622 393.969 124.197C393.479 124.751 393.043 125.347 392.66 125.986H392.596C392.532 125.986 392.468 126.007 392.404 126.05C392.361 126.092 392.319 126.146 392.276 126.209C392.234 126.252 392.191 126.295 392.148 126.337C392.106 126.358 392.042 126.358 391.957 126.337C391.808 126.699 391.563 126.976 391.222 127.168C390.902 127.338 390.615 127.551 390.359 127.807C390.338 127.977 390.295 128.126 390.232 128.254C390.168 128.36 390.136 128.488 390.136 128.637C389.369 129.085 388.645 129.596 387.963 130.171C387.303 130.767 386.654 131.353 386.015 131.928C385.61 132.034 385.28 132.205 385.024 132.439C384.79 132.673 384.545 132.929 384.29 133.206C383.736 133.483 383.182 133.781 382.628 134.1C382.096 134.42 381.617 134.814 381.191 135.282C380.701 135.41 380.232 135.612 379.785 135.889C379.359 136.166 378.923 136.443 378.475 136.72C378.348 136.805 378.209 136.869 378.06 136.911C377.932 136.975 377.794 137.039 377.645 137.103C377.496 137.167 377.421 137.273 377.421 137.423H377.293C377.123 137.423 376.995 137.476 376.91 137.582C376.846 137.689 376.708 137.731 376.495 137.71C376.26 137.944 375.994 138.125 375.696 138.253L374.802 138.668C374.503 138.818 374.205 138.967 373.907 139.116C373.63 139.286 373.385 139.499 373.172 139.755C372.81 139.797 372.48 139.904 372.182 140.074C371.905 140.244 371.586 140.33 371.224 140.33H371.096C370.968 140.181 370.819 140.042 370.649 139.914C370.499 139.808 370.35 139.691 370.201 139.563C370.073 139.456 369.956 139.318 369.85 139.148C369.765 138.999 369.722 138.796 369.722 138.541V138.381C370.723 137.976 371.564 137.401 372.246 136.656C372.288 136.656 372.32 136.645 372.342 136.624C372.363 136.624 372.395 136.624 372.438 136.624C372.544 136.624 372.64 136.635 372.725 136.656C372.81 136.698 372.895 136.72 372.981 136.72C373.023 136.72 373.087 136.698 373.172 136.656C373.641 136.507 374.088 136.304 374.514 136.049C374.961 135.793 375.387 135.527 375.792 135.25C376.218 134.995 376.644 134.739 377.07 134.484C377.496 134.249 377.943 134.058 378.411 133.908C379.093 133.355 379.796 132.822 380.52 132.311C381.244 131.8 382.011 131.342 382.82 130.937C382.884 130.767 382.958 130.629 383.044 130.522C383.15 130.437 383.182 130.299 383.14 130.107C383.182 130.128 383.235 130.139 383.299 130.139C383.47 130.139 383.608 130.096 383.715 130.011C384.055 129.777 384.375 129.532 384.673 129.276C384.992 128.999 385.301 128.733 385.599 128.478C386.238 127.924 386.888 127.359 387.548 126.784C388.208 126.209 388.879 125.677 389.561 125.187C389.603 124.974 389.689 124.814 389.816 124.708C389.944 124.58 390.008 124.399 390.008 124.165C390.285 124.058 390.498 123.888 390.647 123.654C390.817 123.398 391.062 123.228 391.382 123.143C391.552 122.802 391.733 122.482 391.925 122.184C392.116 121.886 392.393 121.673 392.755 121.545C392.883 121.204 393.022 120.896 393.171 120.619C393.341 120.342 393.49 120.076 393.618 119.82C393.767 119.543 393.895 119.256 394.001 118.958C394.108 118.659 394.161 118.297 394.161 117.871C394.161 117.403 394.012 117.083 393.714 116.913C393.416 116.721 393.064 116.594 392.66 116.53C392.255 116.466 391.829 116.413 391.382 116.37C390.956 116.327 390.615 116.221 390.359 116.051C390.232 116.072 390.178 116.157 390.2 116.306C390.242 116.455 390.221 116.551 390.136 116.594H389.816C389.539 116.594 389.263 116.636 388.986 116.721L388.187 116.945C387.931 117.009 387.665 117.073 387.388 117.137C387.112 117.201 386.835 117.222 386.558 117.201C386.153 117.414 385.791 117.605 385.472 117.776C385.173 117.946 384.865 118.106 384.545 118.255C384.247 118.404 383.917 118.542 383.555 118.67C383.214 118.798 382.809 118.915 382.341 119.022C382.107 119.064 381.958 119.139 381.894 119.245C381.83 119.352 381.713 119.458 381.542 119.565C381.436 119.501 381.34 119.426 381.255 119.341C381.17 119.234 381.074 119.16 380.967 119.117C380.861 119.139 380.765 119.203 380.68 119.309C380.616 119.394 380.552 119.49 380.488 119.597C380.424 119.682 380.36 119.767 380.296 119.852C380.232 119.916 380.158 119.948 380.073 119.948C379.881 119.948 379.7 119.895 379.53 119.788C379.381 119.66 379.242 119.522 379.114 119.373C378.987 119.224 378.859 119.075 378.731 118.926C378.603 118.755 378.465 118.638 378.316 118.574C378.401 118.361 378.443 118.148 378.443 117.935C378.443 117.701 378.433 117.488 378.411 117.296C378.667 117.02 378.901 116.743 379.114 116.466C379.327 116.189 379.593 115.976 379.913 115.827C380.488 115.145 381.02 114.506 381.51 113.91C382 113.292 382.426 112.664 382.788 112.025C383.171 111.365 383.48 110.673 383.715 109.949C383.97 109.203 384.13 108.362 384.194 107.425C384.194 107.276 384.226 107.159 384.29 107.074C384.375 106.988 384.417 106.882 384.417 106.754C384.417 106.541 384.375 106.36 384.29 106.211C384.226 106.062 384.141 105.934 384.034 105.828C383.949 105.7 383.864 105.572 383.778 105.444C383.715 105.317 383.693 105.146 383.715 104.933C383.374 104.635 382.99 104.486 382.564 104.486C382.394 104.486 382.202 104.529 381.989 104.614C381.776 104.699 381.553 104.795 381.319 104.901C381.106 105.008 380.893 105.136 380.68 105.285C380.467 105.412 380.296 105.519 380.169 105.604C380.041 105.689 379.913 105.785 379.785 105.892C379.679 105.977 379.572 106.062 379.466 106.147C378.976 106.573 378.497 106.988 378.028 107.393C377.581 107.798 377.144 108.224 376.718 108.671V109.278C376.527 109.32 376.367 109.406 376.239 109.533C376.133 109.661 376.047 109.821 375.984 110.013C375.92 110.183 375.866 110.375 375.824 110.588C375.781 110.779 375.728 110.95 375.664 111.099L375.696 111.195V111.259C375.696 111.28 375.675 111.291 375.632 111.291C375.611 111.291 375.579 111.28 375.536 111.259C375.494 111.216 375.451 111.195 375.409 111.195H375.345C375.174 111.685 374.887 112.057 374.482 112.313C374.099 112.568 373.705 112.813 373.3 113.048C372.895 112.941 372.523 112.781 372.182 112.568C371.862 112.355 371.543 112.132 371.224 111.897C371.074 111.599 371 111.259 371 110.875C371 110.492 371.053 110.13 371.16 109.789C371.266 109.427 371.362 109.054 371.447 108.671C371.767 108.415 372.033 108.117 372.246 107.776C372.459 107.436 372.672 107.095 372.885 106.754C373.119 106.413 373.364 106.105 373.62 105.828C373.896 105.53 374.248 105.306 374.674 105.157C374.887 104.816 375.153 104.518 375.472 104.262C375.792 103.985 376.122 103.741 376.463 103.528C376.825 103.293 377.176 103.059 377.517 102.825C377.858 102.59 378.156 102.324 378.411 102.026H379.018C379.082 101.813 379.21 101.664 379.402 101.579C379.593 101.472 379.785 101.387 379.977 101.323C380.19 101.238 380.381 101.142 380.552 101.036C380.722 100.908 380.818 100.706 380.839 100.429C380.925 100.407 380.967 100.45 380.967 100.557C381.159 100.493 381.372 100.461 381.606 100.461C381.883 100.461 382.149 100.493 382.405 100.557C382.682 100.62 382.948 100.652 383.203 100.652C383.416 100.652 383.619 100.62 383.81 100.557C383.832 100.684 383.885 100.78 383.97 100.844C384.077 100.887 384.194 100.929 384.322 100.972C384.471 100.993 384.609 101.014 384.737 101.036C384.886 101.036 385.003 101.068 385.088 101.132C385.067 101.345 385.131 101.472 385.28 101.515C385.45 101.536 385.578 101.6 385.663 101.707C385.748 101.813 385.791 101.941 385.791 102.09C385.812 102.239 385.887 102.377 386.015 102.505L386.366 102.889C386.494 102.995 386.611 103.123 386.718 103.272C387.101 103.804 387.399 104.465 387.612 105.253C387.825 106.041 387.931 106.765 387.931 107.425C387.931 107.468 387.91 107.595 387.868 107.808C387.825 108 387.793 108.117 387.772 108.16C387.537 109.246 387.197 110.268 386.749 111.227C386.302 112.164 385.823 113.111 385.312 114.07C385.44 114.091 385.557 114.112 385.663 114.134C385.791 114.134 385.908 114.134 386.015 114.134C386.483 114.134 386.909 114.07 387.293 113.942C387.697 113.814 388.112 113.665 388.538 113.495C388.751 113.559 388.986 113.591 389.241 113.591C389.603 113.591 389.944 113.559 390.264 113.495C390.604 113.431 390.956 113.399 391.318 113.399C391.509 113.399 391.69 113.442 391.861 113.527C392.053 113.612 392.266 113.655 392.5 113.655C392.713 113.655 392.872 113.644 392.979 113.623C393.32 113.793 393.682 113.963 394.065 114.134C394.47 114.304 394.853 114.485 395.215 114.677C395.599 114.868 395.95 115.092 396.269 115.348C396.61 115.582 396.908 115.859 397.164 116.178C397.207 116.221 397.26 116.295 397.324 116.402C397.388 116.487 397.43 116.551 397.451 116.594C397.494 116.679 397.515 116.849 397.515 117.105C397.537 117.36 397.547 117.541 397.547 117.648ZM429.078 107.744C429.078 108.958 428.919 110.077 428.599 111.099C428.28 112.121 427.864 113.101 427.353 114.038C426.863 114.975 426.331 115.901 425.756 116.817C425.181 117.733 424.638 118.702 424.127 119.724C423.999 119.724 423.903 119.756 423.839 119.82C423.796 119.884 423.754 119.969 423.711 120.076C423.69 120.161 423.647 120.246 423.584 120.331C423.541 120.395 423.456 120.427 423.328 120.427C423.136 120.896 422.891 121.343 422.593 121.769C422.295 122.174 421.976 122.578 421.635 122.983C421.315 123.366 420.996 123.76 420.676 124.165C420.378 124.57 420.112 125.006 419.878 125.475H419.558C418.408 127.136 417.109 128.627 415.661 129.947C414.234 131.268 412.669 132.45 410.965 133.493C410.922 133.621 410.858 133.727 410.773 133.813C410.688 133.898 410.667 134.015 410.709 134.164C410.475 134.292 410.273 134.452 410.102 134.643C409.953 134.856 409.804 135.069 409.655 135.282C409.506 135.495 409.346 135.697 409.176 135.889C409.027 136.102 408.824 136.262 408.569 136.368C408.249 136.304 407.94 136.251 407.642 136.209C407.365 136.166 407.078 136.134 406.78 136.113C406.652 136.113 406.524 136.113 406.396 136.113C406.269 136.134 406.151 136.134 406.045 136.113C405.811 136.07 405.608 135.974 405.438 135.825C405.289 135.697 405.065 135.634 404.767 135.634C404.618 135.634 404.501 135.644 404.416 135.666C404.245 135.367 404.043 135.059 403.809 134.739C403.596 134.441 403.489 134.111 403.489 133.749C403.489 133.472 403.521 133.216 403.585 132.982C403.67 132.748 403.713 132.503 403.713 132.247C403.713 131.736 403.617 131.236 403.425 130.746C403.255 130.256 403.17 129.755 403.17 129.244C403.17 129.074 403.191 128.914 403.234 128.765C403.276 128.595 403.298 128.424 403.298 128.254C403.298 128.062 403.212 127.892 403.042 127.743C403.063 127.636 403.106 127.53 403.17 127.423C403.234 127.317 403.266 127.2 403.266 127.072C403.308 126.902 403.319 126.721 403.298 126.529C403.276 126.316 403.266 126.124 403.266 125.954C403.266 125.507 403.287 125.059 403.33 124.612C403.372 124.165 403.468 123.728 403.617 123.302C403.596 123.175 403.564 123.057 403.521 122.951L403.393 122.631C403.543 122.184 403.638 121.684 403.681 121.13C403.724 120.576 403.745 120.022 403.745 119.469V117.776C403.745 117.222 403.777 116.7 403.841 116.21C403.883 115.997 403.926 115.795 403.968 115.603C404.032 115.39 404.064 115.188 404.064 114.996C404.064 114.826 404.032 114.677 403.968 114.549C403.905 114.4 403.819 114.262 403.713 114.134C403.862 114.091 403.947 114.006 403.968 113.878C403.99 113.729 404 113.601 404 113.495C404 113.197 403.947 112.867 403.841 112.504C403.926 112.142 403.979 111.78 404 111.418C404.022 111.035 404.032 110.662 404.032 110.3C404.032 109.022 403.947 107.766 403.777 106.531C403.628 105.295 403.532 104.049 403.489 102.793H403.393C403.244 102.793 403.127 102.825 403.042 102.889C402.957 102.953 402.872 103.027 402.786 103.112C402.701 103.176 402.605 103.24 402.499 103.304C402.392 103.347 402.265 103.357 402.116 103.336C401.86 103.634 401.562 103.89 401.221 104.103C400.902 104.316 400.561 104.507 400.199 104.678C399.837 104.848 399.464 105.008 399.081 105.157C398.697 105.285 398.335 105.412 397.995 105.54C397.696 105.434 397.441 105.263 397.228 105.029C397.015 104.773 396.813 104.518 396.621 104.262C396.6 104.177 396.589 104.092 396.589 104.007V103.751C396.589 103.155 396.727 102.708 397.004 102.409C397.281 102.09 397.579 101.717 397.899 101.291H398.058C398.165 101.291 398.261 101.313 398.346 101.355C398.41 101.398 398.495 101.419 398.602 101.419H398.697C399.315 100.908 399.965 100.503 400.646 100.205C401.349 99.8857 402.073 99.6408 402.818 99.4704C403.138 99.1509 403.457 98.906 403.777 98.7356C404.118 98.5652 404.512 98.48 404.959 98.48C405.065 98.48 405.182 98.4907 405.31 98.512C405.459 98.512 405.587 98.5226 405.694 98.5439C406.567 98.1393 407.387 97.7985 408.153 97.5217C408.941 97.2235 409.847 97.0744 410.869 97.0744C410.997 97.0744 411.082 97.0425 411.124 96.9786C411.188 96.9147 411.242 96.8508 411.284 96.7869C411.327 96.7017 411.369 96.6272 411.412 96.5633C411.455 96.4994 411.529 96.4674 411.636 96.4674C411.636 96.51 411.646 96.5739 411.668 96.6591C411.689 96.7443 411.742 96.7869 411.827 96.7869C411.912 96.7869 411.987 96.7656 412.051 96.723C412.136 96.6591 412.232 96.6272 412.338 96.6272C412.445 96.6272 412.519 96.7017 412.562 96.8508C412.796 96.7017 413.02 96.5633 413.233 96.4355C413.446 96.3077 413.68 96.2119 413.936 96.148C414.255 96.2119 414.575 96.2651 414.894 96.3077C415.235 96.3503 415.576 96.3716 415.916 96.3716C416.172 96.3716 416.428 96.3609 416.683 96.3396C416.939 96.2971 417.162 96.1906 417.354 96.0202C417.439 95.9989 417.482 96.0415 417.482 96.148C417.673 96.3184 417.876 96.4355 418.089 96.4994C418.302 96.542 418.525 96.5739 418.76 96.5952C418.994 96.5952 419.228 96.6059 419.462 96.6272C419.697 96.6485 419.91 96.723 420.101 96.8508C420.272 96.8934 420.41 96.9679 420.517 97.0744C420.623 97.1596 420.762 97.2341 420.932 97.298C421.06 97.3406 421.23 97.3726 421.443 97.3939C421.677 97.4152 421.848 97.4578 421.954 97.5217C422.061 97.5643 422.114 97.6388 422.114 97.7453C422.135 97.8305 422.199 97.905 422.306 97.9689C422.497 98.118 422.753 98.2138 423.072 98.2564C423.392 98.2777 423.669 98.3736 423.903 98.5439C423.988 99.0125 424.222 99.3213 424.606 99.4704C424.989 99.6195 425.362 99.7685 425.724 99.9176C425.852 100.045 425.894 100.194 425.852 100.365C426.107 100.557 426.331 100.77 426.523 101.004C426.736 101.238 426.927 101.494 427.098 101.771C427.289 102.026 427.47 102.282 427.641 102.537C427.811 102.793 428.013 103.027 428.248 103.24C428.226 103.432 428.248 103.581 428.312 103.687C428.397 103.794 428.418 103.954 428.375 104.166C428.631 104.401 428.865 104.71 429.078 105.093C428.95 105.285 428.887 105.498 428.887 105.732C428.887 105.945 428.919 106.158 428.982 106.371C429.046 106.584 429.078 106.797 429.078 107.01V107.744ZM426.107 107.042C426.107 106.424 425.99 105.828 425.756 105.253C425.522 104.656 425.319 104.071 425.149 103.496C424.872 103.496 424.691 103.4 424.606 103.208C424.542 102.995 424.414 102.814 424.222 102.665C423.818 102.58 423.562 102.271 423.456 101.739C423.03 101.568 422.593 101.377 422.146 101.164C421.699 100.951 421.326 100.652 421.028 100.269C420.261 100.035 419.484 99.8005 418.696 99.5662C417.929 99.3107 417.141 99.1829 416.332 99.1829C416.183 99.1829 416.044 99.1935 415.916 99.2148C415.81 99.2148 415.703 99.2148 415.597 99.2148C415.427 99.2148 415.246 99.2468 415.054 99.3107C414.862 99.3745 414.681 99.4065 414.511 99.4065C414.319 99.4065 414.127 99.3426 413.936 99.2148C413.51 99.4491 413.041 99.6301 412.53 99.7579C412.04 99.8857 411.54 100.003 411.029 100.109C410.517 100.194 410.017 100.312 409.527 100.461C409.037 100.589 408.601 100.791 408.217 101.068C408.09 101.025 407.962 100.993 407.834 100.972C407.728 100.951 407.621 100.94 407.515 100.94C407.323 100.94 407.174 100.983 407.067 101.068C407.003 101.11 406.961 101.164 406.939 101.227C406.939 101.291 406.929 101.366 406.908 101.451C406.908 101.515 406.886 101.568 406.844 101.611C406.801 101.653 406.716 101.664 406.588 101.643C406.588 101.749 406.577 101.845 406.556 101.93C406.556 102.015 406.556 102.111 406.556 102.218C406.556 102.771 406.609 103.325 406.716 103.879C406.844 104.411 406.908 104.954 406.908 105.508C406.908 105.7 406.897 105.902 406.876 106.115C406.854 106.307 406.812 106.499 406.748 106.69C406.854 106.946 406.908 107.223 406.908 107.521C406.929 107.819 406.939 108.117 406.939 108.415C406.939 108.714 406.95 109.012 406.971 109.31C406.993 109.587 407.067 109.853 407.195 110.108C407.131 110.428 407.089 110.747 407.067 111.067C407.046 111.386 407.035 111.706 407.035 112.025C407.035 112.771 407.067 113.505 407.131 114.23C407.216 114.954 407.259 115.688 407.259 116.434C407.259 116.626 407.248 116.828 407.227 117.041C407.227 117.254 407.216 117.467 407.195 117.68C407.152 117.957 407.078 118.223 406.971 118.478C406.865 118.734 406.812 119.011 406.812 119.309C406.812 119.501 406.822 119.703 406.844 119.916C406.865 120.108 406.876 120.31 406.876 120.523C406.876 120.608 406.865 120.693 406.844 120.779C406.844 120.842 406.844 120.917 406.844 121.002C406.737 121.748 406.652 122.504 406.588 123.27C406.524 124.037 406.492 124.793 406.492 125.539C406.492 126.241 406.514 126.944 406.556 127.647C406.599 128.329 406.663 129.021 406.748 129.724C406.663 129.873 406.62 130.043 406.62 130.235C406.62 130.533 406.695 130.831 406.844 131.129C406.993 131.449 407.216 131.662 407.515 131.768C408.196 131.512 408.824 131.172 409.399 130.746C409.996 130.341 410.592 129.926 411.188 129.5C411.337 129.393 411.561 129.255 411.859 129.085C412.157 128.893 412.36 128.754 412.466 128.669C412.573 128.584 412.658 128.499 412.722 128.414C412.807 128.307 412.903 128.201 413.009 128.094L414.415 126.593C415.224 125.762 416.023 124.921 416.811 124.069C417.62 123.217 418.366 122.312 419.047 121.354C419.239 121.055 419.43 120.768 419.622 120.491C419.814 120.193 419.995 119.884 420.165 119.565C420.25 119.458 420.314 119.341 420.357 119.213C420.4 119.064 420.474 118.936 420.581 118.83C420.644 118.745 420.719 118.659 420.804 118.574C420.911 118.489 420.996 118.404 421.06 118.319C421.23 118.127 421.39 117.935 421.539 117.744C421.709 117.531 421.88 117.307 422.05 117.073C422.519 116.391 422.955 115.71 423.36 115.028C423.765 114.325 424.212 113.633 424.702 112.952C424.744 112.526 424.829 112.132 424.957 111.77C425.085 111.386 425.213 111.024 425.341 110.684C425.468 110.321 425.575 109.949 425.66 109.565C425.745 109.182 425.767 108.756 425.724 108.288C425.83 108.138 425.916 108.032 425.979 107.968C426.065 107.904 426.107 107.776 426.107 107.585V107.042Z" fill="#202020"/>
</g>
</g>
<path d="M710.829 41.3633H88.1771C81.9254 41.3633 75.9282 43.84 71.4982 48.2514L52.7551 66.9162C48.3008 71.3518 45.7969 77.379 45.7969 83.6651V332.396C45.7969 345.45 56.3796 356.033 69.434 356.033H729.573C742.627 356.033 753.21 345.45 753.21 332.396V83.6651C753.21 77.379 750.706 71.3518 746.251 66.9162L727.508 48.2514C723.078 43.84 717.081 41.3633 710.829 41.3633Z" stroke="#202020" stroke-width="2.21598"/>
<g clip-path="url(#clip7_18_1845)">
<path d="M229.723 157.706H568.029C603.317 157.706 631.924 186.312 631.924 221.6V223.077C631.924 258.365 603.317 286.972 568.029 286.972H229.723C194.435 286.972 165.829 258.365 165.829 223.077V221.6C165.829 186.312 194.435 157.706 229.723 157.706Z" stroke="#202020" stroke-width="2.21598"/>
<path d="M559.595 179.016C583.664 179.016 603.176 198.528 603.176 222.597C603.176 246.666 583.664 266.178 559.595 266.178C535.526 266.178 516.014 246.666 516.014 222.597C516.014 198.528 535.526 179.016 559.595 179.016ZM559.344 190.096C554.878 190.096 550.622 190.996 546.749 192.626L550.666 199.41L543.62 203.479L539.706 196.698C532.91 201.859 528.208 209.632 527.096 218.522H534.934V226.659H527.095C528.203 235.547 532.901 243.318 539.69 248.481L543.607 241.698L550.654 245.767L546.731 252.56C550.609 254.194 554.871 255.098 559.344 255.098C563.81 255.098 568.065 254.196 571.938 252.566L568.022 245.784L575.068 241.716L578.981 248.493C585.779 243.33 590.483 235.553 591.592 226.659H583.754V218.522H591.591C590.48 209.637 585.781 201.869 578.991 196.708L575.08 203.484L568.033 199.416L571.949 192.631C568.073 190.998 563.814 190.096 559.344 190.096Z" fill="#202020"/>
<path d="M237.849 179.016C261.918 179.016 281.43 198.528 281.43 222.597C281.43 246.666 261.918 266.178 237.849 266.178C213.78 266.178 194.268 246.666 194.268 222.597C194.268 198.528 213.78 179.016 237.849 179.016ZM237.598 190.096C233.132 190.096 228.876 190.996 225.003 192.626L228.92 199.41L221.874 203.479L217.96 196.698C211.164 201.859 206.461 209.632 205.35 218.522H213.188V226.659H205.349C206.457 235.547 211.155 243.318 217.944 248.481L221.861 241.698L228.908 245.767L224.985 252.56C228.863 254.194 233.125 255.098 237.598 255.098C242.064 255.098 246.319 254.196 250.192 252.566L246.276 245.784L253.322 241.716L257.235 248.493C264.033 243.33 268.737 235.553 269.846 226.659H262.008V218.522H269.845C268.733 209.637 264.035 201.869 257.245 196.708L253.334 203.484L246.287 199.416L250.203 192.631C246.327 190.998 242.068 190.096 237.598 190.096Z" fill="#202020"/>
</g>
<defs>
<clipPath id="clip0_18_1845">
<rect width="26.5918" height="26.5918" fill="white" transform="translate(385.467 386.871)"/>
</clipPath>
<clipPath id="clip1_18_1845">
<rect width="26.5918" height="26.5918" fill="white" transform="translate(19.9434 19.9453)"/>
</clipPath>
<clipPath id="clip2_18_1845">
<rect width="26.5918" height="26.5918" fill="white" transform="translate(19.9434 442.27)"/>
</clipPath>
<clipPath id="clip3_18_1845">
<rect width="26.5918" height="26.5918" fill="white" transform="translate(750.992 19.9453)"/>
</clipPath>
<clipPath id="clip4_18_1845">
<rect width="26.5918" height="26.5918" fill="white" transform="translate(750.992 442.27)"/>
</clipPath>
<clipPath id="clip5_18_1845">
<rect width="707.637" height="314.669" fill="white" transform="translate(45.7969 41.3633)"/>
</clipPath>
<clipPath id="clip6_18_1845">
<rect width="708" height="199.769" fill="white" transform="matrix(1 0 0 -1 46.166 356.734)"/>
</clipPath>
<clipPath id="clip7_18_1845">
<rect x="164.721" y="156.598" width="468.311" height="131.482" rx="65.0021" fill="white"/>
</clipPath>
</defs>
</svg>
