<svg width="798" height="489" viewBox="0 0 798 489" fill="none" xmlns="http://www.w3.org/2000/svg">
<g opacity="0.8">
<mask id="path-1-outside-1_18_1560" maskUnits="userSpaceOnUse" x="-0.783203" y="-0.785156" width="799" height="490" fill="black">
<rect fill="white" x="-0.783203" y="-0.785156" width="799" height="490"/>
<path d="M763.038 2.21484C780.988 2.21507 795.539 16.7662 795.539 34.7158V454.275C795.539 472.225 780.987 486.776 763.037 486.776H34.7178C16.7681 486.776 2.21688 472.225 2.2168 454.275V34.7158C2.21691 16.7662 16.7682 2.21507 34.7178 2.21484H763.038ZM210.521 433.363C199.098 433.363 189.838 442.623 189.838 454.046C189.838 465.468 199.098 474.728 210.521 474.728C221.943 474.727 231.202 465.468 231.202 454.046C231.202 442.623 221.943 433.364 210.521 433.363ZM587.752 433.363C576.329 433.363 567.069 442.623 567.069 454.046C567.07 465.468 576.329 474.728 587.752 474.728C599.174 474.727 608.433 465.468 608.434 454.046C608.434 442.623 599.174 433.364 587.752 433.363ZM276.999 433.363C274.552 433.364 272.567 435.347 272.567 437.795V457C272.567 459.448 274.552 461.431 276.999 461.432H296.205C298.653 461.431 300.637 459.448 300.637 457V437.795C300.637 435.347 298.653 433.363 296.205 433.363H276.999ZM502.067 433.363C499.62 433.363 497.635 435.347 497.635 437.795V457C497.635 459.448 499.62 461.432 502.067 461.432H521.272C523.72 461.431 525.704 459.448 525.704 457V437.795C525.704 435.347 523.72 433.363 521.272 433.363H502.067ZM237.851 178.755C213.781 178.755 194.27 198.267 194.27 222.336C194.27 246.405 213.781 265.917 237.851 265.917C261.92 265.917 281.432 246.405 281.432 222.336C281.432 198.267 261.92 178.755 237.851 178.755ZM559.906 178.755C535.837 178.755 516.325 198.267 516.325 222.336C516.325 246.405 535.837 265.917 559.906 265.917C583.975 265.917 603.487 246.405 603.487 222.336C603.487 198.267 583.975 178.755 559.906 178.755Z"/>
</mask>
<path d="M763.038 2.21484C780.988 2.21507 795.539 16.7662 795.539 34.7158V454.275C795.539 472.225 780.987 486.776 763.037 486.776H34.7178C16.7681 486.776 2.21688 472.225 2.2168 454.275V34.7158C2.21691 16.7662 16.7682 2.21507 34.7178 2.21484H763.038ZM210.521 433.363C199.098 433.363 189.838 442.623 189.838 454.046C189.838 465.468 199.098 474.728 210.521 474.728C221.943 474.727 231.202 465.468 231.202 454.046C231.202 442.623 221.943 433.364 210.521 433.363ZM587.752 433.363C576.329 433.363 567.069 442.623 567.069 454.046C567.07 465.468 576.329 474.728 587.752 474.728C599.174 474.727 608.433 465.468 608.434 454.046C608.434 442.623 599.174 433.364 587.752 433.363ZM276.999 433.363C274.552 433.364 272.567 435.347 272.567 437.795V457C272.567 459.448 274.552 461.431 276.999 461.432H296.205C298.653 461.431 300.637 459.448 300.637 457V437.795C300.637 435.347 298.653 433.363 296.205 433.363H276.999ZM502.067 433.363C499.62 433.363 497.635 435.347 497.635 437.795V457C497.635 459.448 499.62 461.432 502.067 461.432H521.272C523.72 461.431 525.704 459.448 525.704 457V437.795C525.704 435.347 523.72 433.363 521.272 433.363H502.067ZM237.851 178.755C213.781 178.755 194.27 198.267 194.27 222.336C194.27 246.405 213.781 265.917 237.851 265.917C261.92 265.917 281.432 246.405 281.432 222.336C281.432 198.267 261.92 178.755 237.851 178.755ZM559.906 178.755C535.837 178.755 516.325 198.267 516.325 222.336C516.325 246.405 535.837 265.917 559.906 265.917C583.975 265.917 603.487 246.405 603.487 222.336C603.487 198.267 583.975 178.755 559.906 178.755Z" fill="#E2E2E2"/>
<path d="M763.038 2.21484L763.038 -0.00113821H763.038V2.21484ZM795.539 34.7158L797.755 34.7158L797.755 34.7158L795.539 34.7158ZM795.539 454.275L797.755 454.275V454.275H795.539ZM34.7178 486.776L34.7178 488.992H34.7178V486.776ZM2.2168 454.275L0.000814915 454.275L0.000814915 454.275L2.2168 454.275ZM2.2168 34.7158L0.000814915 34.7158V34.7158H2.2168ZM34.7178 2.21484L34.7178 -0.00113821L34.7177 -0.00113821L34.7178 2.21484ZM210.521 433.363L210.521 431.147H210.521V433.363ZM189.838 454.046L187.622 454.046L187.622 454.046L189.838 454.046ZM210.521 474.728L210.521 476.944L210.521 476.944L210.521 474.728ZM231.202 454.046L233.418 454.046V454.046H231.202ZM587.752 433.363L587.752 431.147H587.752V433.363ZM567.069 454.046L564.853 454.046L564.853 454.046L567.069 454.046ZM587.752 474.728L587.752 476.944L587.752 476.944L587.752 474.728ZM608.434 454.046L610.65 454.046V454.046H608.434ZM276.999 433.363L276.999 431.147L276.999 431.147L276.999 433.363ZM272.567 437.795L270.351 437.795V437.795H272.567ZM276.999 461.432L276.999 463.648H276.999V461.432ZM296.205 461.432L296.205 463.648L296.205 463.648L296.205 461.432ZM300.637 437.795L302.853 437.795L302.853 437.795L300.637 437.795ZM296.205 433.363L296.205 431.147H296.205V433.363ZM497.635 437.795L495.419 437.795V437.795H497.635ZM521.272 461.432L521.272 463.648L521.273 463.648L521.272 461.432ZM525.704 437.795L527.92 437.795L527.92 437.795L525.704 437.795ZM521.272 433.363L521.273 431.147H521.272V433.363ZM237.851 178.755L237.851 176.539H237.851V178.755ZM194.27 222.336L192.054 222.336L192.054 222.336L194.27 222.336ZM237.851 265.917L237.851 268.133L237.851 268.133L237.851 265.917ZM281.432 222.336L283.648 222.336V222.336H281.432ZM559.906 178.755L559.906 176.539L559.906 176.539L559.906 178.755ZM516.325 222.336L514.109 222.336L514.109 222.336L516.325 222.336ZM559.906 265.917L559.906 268.133H559.906V265.917ZM603.487 222.336L605.703 222.336V222.336H603.487ZM763.038 2.21484L763.038 4.43083C779.764 4.43103 793.323 17.9901 793.323 34.7158L795.539 34.7158L797.755 34.7158C797.755 15.5423 782.212 -0.000901334 763.038 -0.00113821L763.038 2.21484ZM795.539 34.7158H793.323V454.275H795.539H797.755V34.7158H795.539ZM795.539 454.275L793.323 454.275C793.323 471.001 779.763 484.56 763.037 484.56V486.776V488.992C782.211 488.992 797.755 473.449 797.755 454.275L795.539 454.275ZM763.037 486.776V484.56H34.7178V486.776V488.992H763.037V486.776ZM34.7178 486.776L34.7178 484.56C17.992 484.56 4.43285 471.001 4.43278 454.275L2.2168 454.275L0.000814915 454.275C0.00090036 473.449 15.5443 488.992 34.7178 488.992L34.7178 486.776ZM2.2168 454.275H4.43278V34.7158H2.2168H0.000814915V454.275H2.2168ZM2.2168 34.7158L4.43278 34.7158C4.43289 17.9901 17.992 4.43104 34.7178 4.43083L34.7178 2.21484L34.7177 -0.00113821C15.5444 -0.000893123 0.000937524 15.5423 0.000814915 34.7158L2.2168 34.7158ZM34.7178 2.21484V4.43083H763.038V2.21484V-0.00113821H34.7178V2.21484ZM210.521 433.363V431.147C197.874 431.147 187.622 441.399 187.622 454.046H189.838H192.054C192.054 443.847 200.322 435.579 210.521 435.579V433.363ZM189.838 454.046L187.622 454.046C187.622 466.692 197.874 476.944 210.521 476.944V474.728V472.512C200.322 472.512 192.054 464.244 192.054 454.046L189.838 454.046ZM210.521 474.728L210.521 476.944C223.167 476.943 233.418 466.692 233.418 454.046L231.202 454.046L228.986 454.046C228.986 464.244 220.719 472.511 210.52 472.512L210.521 474.728ZM231.202 454.046H233.418C233.418 441.4 223.167 431.148 210.521 431.147L210.521 433.363L210.52 435.579C220.719 435.579 228.986 443.847 228.986 454.046H231.202ZM587.752 433.363V431.147C575.105 431.147 564.853 441.399 564.853 454.046H567.069H569.285C569.285 443.847 577.553 435.579 587.752 435.579V433.363ZM567.069 454.046L564.853 454.046C564.854 466.692 575.106 476.944 587.752 476.944V474.728V472.512C577.553 472.512 569.286 464.244 569.285 454.046L567.069 454.046ZM587.752 474.728L587.752 476.944C600.398 476.943 610.649 466.692 610.65 454.046L608.434 454.046L606.218 454.046C606.217 464.244 597.95 472.511 587.752 472.512L587.752 474.728ZM608.434 454.046H610.65C610.65 441.4 600.398 431.148 587.752 431.147L587.752 433.363L587.752 435.579C597.95 435.579 606.218 443.847 606.218 454.046H608.434ZM276.999 433.363L276.999 431.147C273.328 431.148 270.351 434.123 270.351 437.795L272.567 437.795L274.783 437.795C274.783 436.571 275.775 435.579 276.999 435.579L276.999 433.363ZM272.567 437.795H270.351V457H272.567H274.783V437.795H272.567ZM272.567 457H270.351C270.351 460.672 273.328 463.647 276.999 463.648L276.999 461.432L276.999 459.216C275.775 459.216 274.783 458.223 274.783 457H272.567ZM276.999 461.432V463.648H296.205V461.432V459.216H276.999V461.432ZM296.205 461.432L296.205 463.648C299.876 463.647 302.853 460.672 302.853 457H300.637H298.421C298.421 458.224 297.429 459.216 296.205 459.216L296.205 461.432ZM300.637 457H302.853V437.795H300.637H298.421V457H300.637ZM300.637 437.795L302.853 437.795C302.853 434.123 299.876 431.148 296.205 431.147L296.205 433.363L296.205 435.579C297.429 435.579 298.421 436.571 298.421 437.795L300.637 437.795ZM296.205 433.363V431.147H276.999V433.363V435.579H296.205V433.363ZM502.067 433.363V431.147C498.396 431.147 495.419 434.123 495.419 437.795L497.635 437.795L499.851 437.795C499.851 436.572 500.843 435.579 502.067 435.579V433.363ZM497.635 437.795H495.419V457H497.635H499.851V437.795H497.635ZM497.635 457H495.419C495.419 460.672 498.396 463.648 502.067 463.648V461.432V459.216C500.843 459.216 499.851 458.223 499.851 457H497.635ZM502.067 461.432V463.648H521.272V461.432V459.216H502.067V461.432ZM521.272 461.432L521.273 463.648C524.944 463.647 527.92 460.672 527.92 457H525.704H523.488C523.488 458.224 522.496 459.216 521.272 459.216L521.272 461.432ZM525.704 457H527.92V437.795H525.704H523.488V457H525.704ZM525.704 437.795L527.92 437.795C527.92 434.123 524.944 431.148 521.273 431.147L521.272 433.363L521.272 435.579C522.496 435.579 523.488 436.571 523.488 437.795L525.704 437.795ZM521.272 433.363V431.147H502.067V433.363V435.579H521.272V433.363ZM237.851 178.755V176.539C212.558 176.539 192.054 197.043 192.054 222.336H194.27H196.486C196.486 199.491 215.005 180.971 237.851 180.971V178.755ZM194.27 222.336L192.054 222.336C192.054 247.629 212.558 268.133 237.851 268.133V265.917V263.701C215.005 263.701 196.486 245.181 196.486 222.336L194.27 222.336ZM237.851 265.917L237.851 268.133C263.143 268.133 283.648 247.629 283.648 222.336L281.432 222.336L279.216 222.336C279.216 245.181 260.696 263.701 237.851 263.701L237.851 265.917ZM281.432 222.336H283.648C283.648 197.043 263.143 176.539 237.851 176.539L237.851 178.755L237.851 180.971C260.696 180.971 279.216 199.491 279.216 222.336H281.432ZM559.906 178.755L559.906 176.539C534.613 176.539 514.109 197.043 514.109 222.336H516.325H518.541C518.541 199.491 537.061 180.971 559.906 180.971L559.906 178.755ZM516.325 222.336L514.109 222.336C514.109 247.629 534.613 268.133 559.906 268.133L559.906 265.917L559.906 263.701C537.061 263.701 518.541 245.181 518.541 222.336L516.325 222.336ZM559.906 265.917V268.133C585.199 268.133 605.703 247.629 605.703 222.336L603.487 222.336L601.271 222.336C601.271 245.181 582.751 263.701 559.906 263.701V265.917ZM603.487 222.336H605.703C605.703 197.043 585.199 176.539 559.906 176.539V178.755V180.971C582.752 180.971 601.271 199.491 601.271 222.336H603.487Z" fill="#202020" mask="url(#path-1-outside-1_18_1560)"/>
</g>
<path d="M237.109 88.6406C310.948 88.6407 370.806 148.499 370.807 222.338C370.807 296.177 310.948 356.036 237.109 356.036C163.27 356.036 103.412 296.177 103.412 222.338C103.412 148.499 163.27 88.6406 237.109 88.6406ZM237.848 176.541C212.555 176.541 192.051 197.045 192.051 222.338C192.051 247.631 212.555 268.135 237.848 268.135C263.141 268.135 283.645 247.631 283.645 222.338C283.644 197.045 263.141 176.541 237.848 176.541Z" fill="#202020"/>
<path d="M559.166 166.938C589.762 166.938 614.565 191.741 614.565 222.337C614.565 252.933 589.762 277.736 559.166 277.736C528.57 277.736 503.766 252.933 503.766 222.337C503.766 191.741 528.57 166.938 559.166 166.938ZM559.904 176.54C534.611 176.54 514.108 197.044 514.107 222.337C514.107 247.63 534.611 268.134 559.904 268.134C585.197 268.134 605.701 247.63 605.701 222.337C605.701 197.044 585.197 176.54 559.904 176.54Z" fill="#202020"/>
<path d="M93.4393 201.658C85.7284 262.786 55.7217 408.38 63.5234 455.388M86.4221 474.593C137.759 475.331 705.789 474.593 711.329 474.593M604.592 191.316C630.745 230.072 714.893 385.047 733.821 445.416" stroke="#202020" stroke-width="0.738661"/>
<path d="M86.1982 427.496C99.2525 427.496 109.835 438.079 109.835 451.133C109.835 464.187 99.2526 474.77 86.1982 474.771C73.1438 474.771 62.5605 464.187 62.5605 451.133C62.5608 438.079 73.1439 427.496 86.1982 427.496ZM86.1982 441.185C80.7017 441.185 76.2452 445.64 76.2451 451.137C76.2451 456.633 80.7016 461.089 86.1982 461.089C91.6947 461.089 96.1504 456.633 96.1504 451.137C96.1503 445.64 91.6947 441.185 86.1982 441.185Z" fill="#202020"/>
<path d="M711.105 427.496C724.16 427.496 734.743 438.079 734.743 451.134C734.743 464.188 724.16 474.771 711.105 474.771C698.051 474.77 687.469 464.188 687.469 451.134C687.469 438.079 698.051 427.496 711.105 427.496ZM711.105 441.185C705.609 441.185 701.153 445.64 701.153 451.137C701.153 456.633 705.609 461.089 711.105 461.089C716.602 461.089 721.059 456.633 721.059 451.137C721.059 445.64 716.602 441.185 711.105 441.185Z" fill="#202020"/>
<path d="M179.775 378.565H623.873C634.17 378.565 643.156 385.546 645.702 395.522L669.276 487.887H129.291L158.256 394.425C161.179 384.994 169.902 378.565 179.775 378.565Z" stroke="#202020" stroke-width="2.21598"/>
<circle cx="210.516" cy="454.085" r="19.5745" stroke="#202020" stroke-width="2.21598"/>
<circle cx="587.749" cy="454.085" r="19.5745" stroke="#202020" stroke-width="2.21598"/>
<rect x="273.672" y="434.51" width="25.8531" height="25.8531" rx="3.32397" stroke="#202020" stroke-width="2.21598"/>
<path d="M384.842 461.475C384.842 459.027 386.826 457.043 389.274 457.043H408.479C410.927 457.043 412.911 459.027 412.911 461.475V474.771H384.842V461.475Z" fill="#202020"/>
<rect x="498.741" y="434.51" width="25.8531" height="25.8531" rx="3.32397" stroke="#202020" stroke-width="2.21598"/>
<g clip-path="url(#clip0_18_1560)">
<path d="M398.763 386.871C406.106 386.871 412.059 392.824 412.059 400.167C412.059 407.51 406.106 413.463 398.763 413.463C391.42 413.463 385.467 407.51 385.467 400.167C385.467 392.824 391.42 386.871 398.763 386.871ZM399.849 392.21C399.608 391.027 397.917 391.027 397.677 392.21L396.662 397.201C396.573 397.637 396.233 397.978 395.797 398.066L390.806 399.081C389.623 399.322 389.623 401.012 390.806 401.253L395.797 402.268C396.233 402.356 396.573 402.697 396.662 403.133L397.677 408.124C397.917 409.307 399.608 409.307 399.849 408.124L400.863 403.133C400.952 402.697 401.293 402.356 401.729 402.268L406.72 401.253C407.903 401.012 407.903 399.322 406.72 399.081L401.729 398.066C401.293 397.978 400.952 397.637 400.863 397.201L399.849 392.21Z" fill="#202020"/>
</g>
<g clip-path="url(#clip1_18_1560)">
<path d="M33.2393 19.9453C40.5824 19.9453 46.5352 25.8981 46.5352 33.2412C46.5352 40.5843 40.5824 46.5371 33.2393 46.5371C25.8961 46.5371 19.9434 40.5843 19.9434 33.2412C19.9434 25.8981 25.8961 19.9453 33.2393 19.9453ZM34.3252 25.2842C34.0846 24.1013 32.3939 24.1013 32.1533 25.2842L31.1387 30.2754C31.0501 30.7112 30.7092 31.052 30.2734 31.1406L25.2822 32.1553C24.0994 32.3959 24.0994 34.0866 25.2822 34.3271L30.2734 35.3418C30.7092 35.4304 31.0501 35.7713 31.1387 36.207L32.1533 41.1982C32.3939 42.3811 34.0846 42.3811 34.3252 41.1982L35.3398 36.207C35.4285 35.7713 35.7693 35.4304 36.2051 35.3418L41.1963 34.3271C42.3791 34.0865 42.3791 32.3959 41.1963 32.1553L36.2051 31.1406C35.7693 31.052 35.4285 30.7112 35.3398 30.2754L34.3252 25.2842Z" fill="#202020"/>
</g>
<g clip-path="url(#clip2_18_1560)">
<path d="M33.2393 442.27C40.5824 442.27 46.5352 448.222 46.5352 455.565C46.5352 462.909 40.5824 468.861 33.2393 468.861C25.8961 468.861 19.9434 462.909 19.9434 455.565C19.9434 448.222 25.8961 442.27 33.2393 442.27ZM34.3252 447.608C34.0846 446.426 32.3939 446.426 32.1533 447.608L31.1387 452.6C31.0501 453.035 30.7092 453.376 30.2734 453.465L25.2822 454.479C24.0994 454.72 24.0994 456.411 25.2822 456.651L30.2734 457.666C30.7092 457.755 31.0501 458.095 31.1387 458.531L32.1533 463.522C32.3939 464.705 34.0846 464.705 34.3252 463.522L35.3398 458.531C35.4285 458.095 35.7693 457.755 36.2051 457.666L41.1963 456.651C42.3791 456.411 42.3791 454.72 41.1963 454.479L36.2051 453.465C35.7693 453.376 35.4285 453.035 35.3398 452.6L34.3252 447.608Z" fill="#202020"/>
</g>
<g clip-path="url(#clip3_18_1560)">
<path d="M764.288 19.9453C771.631 19.9453 777.584 25.8981 777.584 33.2412C777.584 40.5843 771.631 46.5371 764.288 46.5371C756.945 46.5371 750.992 40.5843 750.992 33.2412C750.992 25.8981 756.945 19.9453 764.288 19.9453ZM765.374 25.2842C765.133 24.1013 763.443 24.1013 763.202 25.2842L762.188 30.2754C762.099 30.7112 761.758 31.052 761.322 31.1406L756.331 32.1553C755.148 32.3959 755.148 34.0866 756.331 34.3271L761.322 35.3418C761.758 35.4304 762.099 35.7713 762.188 36.207L763.202 41.1982C763.443 42.3811 765.133 42.3811 765.374 41.1982L766.389 36.207C766.477 35.7713 766.818 35.4304 767.254 35.3418L772.245 34.3271C773.428 34.0865 773.428 32.3959 772.245 32.1553L767.254 31.1406C766.818 31.052 766.477 30.7112 766.389 30.2754L765.374 25.2842Z" fill="#202020"/>
</g>
<g clip-path="url(#clip4_18_1560)">
<path d="M764.288 442.27C771.631 442.27 777.584 448.222 777.584 455.565C777.584 462.909 771.631 468.861 764.288 468.861C756.945 468.861 750.992 462.909 750.992 455.565C750.992 448.222 756.945 442.27 764.288 442.27ZM765.374 447.608C765.133 446.426 763.443 446.426 763.202 447.608L762.188 452.6C762.099 453.035 761.758 453.376 761.322 453.465L756.331 454.479C755.148 454.72 755.148 456.411 756.331 456.651L761.322 457.666C761.758 457.755 762.099 458.095 762.188 458.531L763.202 463.522C763.443 464.705 765.133 464.705 765.374 463.522L766.389 458.531C766.477 458.095 766.818 457.755 767.254 457.666L772.245 456.651C773.428 456.411 773.428 454.72 772.245 454.479L767.254 453.465C766.818 453.376 766.477 453.035 766.389 452.6L765.374 447.608Z" fill="#202020"/>
</g>
<mask id="mask0_18_1560" style="mask-type:alpha" maskUnits="userSpaceOnUse" x="45" y="41" width="709" height="316">
<path d="M88.1855 42.4717H711.045C717.002 42.4717 722.717 44.8312 726.939 49.0342L745.691 67.7012C749.938 71.929 752.326 77.6745 752.326 83.667V332.396C752.326 344.838 742.239 354.925 729.797 354.925H69.4336C56.9913 354.925 46.9053 344.838 46.9053 332.396V83.667C46.9054 77.6746 49.2923 71.929 53.5391 67.7012L72.291 49.0342C76.5131 44.8311 82.2281 42.4717 88.1855 42.4717ZM229.724 155.486C193.212 155.486 163.613 185.085 163.613 221.597V223.074C163.614 259.586 193.212 289.184 229.724 289.184H568.03C604.542 289.183 634.139 259.586 634.14 223.074V221.597C634.14 185.085 604.542 155.487 568.03 155.486H229.724Z" fill="#EDA35F" stroke="#202020" stroke-width="2.21598"/>
</mask>
<g mask="url(#mask0_18_1560)">
<g clip-path="url(#clip5_18_1560)">
<rect width="707.637" height="314.669" transform="translate(45.7969 41.3633)" fill="#FCF7F2"/>
<g clip-path="url(#clip6_18_1560)">
<rect width="708" height="35.5145" transform="matrix(1 0 0 -1 46.166 356.734)" fill="#FF0054"/>
<rect width="708" height="24.4162" transform="matrix(1 0 0 -1 46.166 312.34)" fill="#FF0054"/>
<rect width="708" height="4.43931" transform="matrix(1 0 0 -1 46.166 181.383)" fill="#FF0054"/>
<rect width="708" height="2.21966" transform="matrix(1 0 0 -1 46.166 159.184)" fill="#FF0054"/>
<rect width="708" height="17.7572" transform="matrix(1 0 0 -1 46.166 279.047)" fill="#FF0054"/>
<rect width="708" height="8.87862" transform="matrix(1 0 0 -1 46.166 225.773)" fill="#FF0054"/>
<rect width="708" height="13.3179" transform="matrix(1 0 0 -1 46.166 250.191)" fill="#FF0054"/>
<rect width="708" height="6.65897" transform="matrix(1 0 0 -1 46.166 203.578)" fill="#FF0054"/>
</g>
<path d="M372.597 133.845C372.597 134.1 372.523 134.313 372.374 134.484C372.225 134.675 372.044 134.824 371.831 134.931C371.618 135.059 371.394 135.165 371.16 135.25C370.925 135.357 370.723 135.463 370.553 135.57C370.063 135.463 369.552 135.367 369.019 135.282C368.487 135.218 368.008 135.08 367.582 134.867C366.708 133.908 366.091 132.801 365.729 131.544C365.388 130.309 365.164 129.074 365.058 127.839C365.015 127.477 364.994 127.125 364.994 126.784C364.994 126.422 364.973 126.06 364.93 125.698C364.888 125.379 364.696 125.187 364.355 125.123C364.611 125.081 364.792 124.953 364.898 124.74C365.005 124.506 365.069 124.25 365.09 123.973C365.111 123.675 365.111 123.387 365.09 123.111C365.09 122.812 365.111 122.568 365.154 122.376C364.983 122.44 364.834 122.589 364.707 122.823C364.579 123.036 364.462 123.281 364.355 123.558C364.249 123.835 364.142 124.112 364.036 124.388C363.95 124.644 363.865 124.846 363.78 124.995C362.886 126.529 361.842 127.924 360.649 129.18C359.478 130.437 358.264 131.683 357.007 132.918C356.645 133.046 356.305 133.206 355.985 133.397C355.666 133.61 355.368 133.834 355.091 134.068C354.281 134.302 353.515 134.42 352.791 134.42C352.13 134.42 351.481 134.324 350.842 134.132C350.203 133.962 349.628 133.664 349.117 133.238L347.935 130.554C347.871 130.384 347.796 130.213 347.711 130.043C347.626 129.851 347.562 129.67 347.519 129.5C347.477 129.308 347.456 129.106 347.456 128.893C347.477 128.659 347.487 128.456 347.487 128.286C347.487 127.541 347.509 126.795 347.551 126.05C347.615 125.283 347.7 124.527 347.807 123.781C347.85 123.483 347.913 123.175 347.999 122.855C348.084 122.536 348.148 122.227 348.19 121.929V121.577C348.19 121.471 348.18 121.343 348.158 121.194C348.137 121.023 348.073 120.917 347.967 120.874C348.478 119.639 348.733 118.351 348.733 117.009C348.733 116.796 348.723 116.594 348.701 116.402C348.701 116.189 348.691 115.976 348.669 115.763C348.819 115.614 348.914 115.444 348.957 115.252C349 115.039 349.021 114.826 349.021 114.613C349.021 114.379 349.021 114.155 349.021 113.942C349.042 113.729 349.106 113.527 349.213 113.335C349.191 113.101 349.17 112.877 349.149 112.664C349.149 112.43 349.149 112.196 349.149 111.961C349.149 110.534 349.255 109.129 349.468 107.744C349.702 106.339 349.82 104.923 349.82 103.496V102.154C349.82 101.856 349.82 101.547 349.82 101.227C349.841 100.908 349.883 100.599 349.947 100.301C350.033 100.003 350.15 99.726 350.299 99.4704C350.448 99.1935 350.661 98.9592 350.938 98.7676C350.98 98.7676 351.012 98.7676 351.034 98.7676C351.076 98.7463 351.119 98.7356 351.161 98.7356C351.353 98.7356 351.502 98.7889 351.609 98.8954C351.715 98.9805 351.875 99.0125 352.088 98.9912C352.471 99.5449 352.769 100.131 352.982 100.748C353.217 101.366 353.334 102.015 353.334 102.697C353.334 103.208 353.259 103.709 353.11 104.198C352.961 104.688 352.886 105.199 352.886 105.732C352.886 105.945 352.897 106.158 352.918 106.371C352.94 106.584 352.95 106.797 352.95 107.01C352.95 107.223 352.918 107.436 352.854 107.649C352.812 107.84 352.716 108.011 352.567 108.16C352.61 108.586 352.641 109.022 352.663 109.47C352.684 109.896 352.695 110.321 352.695 110.747C352.695 111.961 352.62 113.175 352.471 114.389C352.322 115.603 352.152 116.817 351.96 118.031C351.768 119.245 351.598 120.459 351.449 121.673C351.3 122.887 351.225 124.112 351.225 125.347V126.273C351.225 126.571 351.246 126.88 351.289 127.2C351.161 127.498 351.097 127.817 351.097 128.158C351.097 128.627 351.204 129.085 351.417 129.532C351.63 129.979 351.885 130.384 352.184 130.746C352.29 130.767 352.386 130.778 352.471 130.778C352.578 130.799 352.684 130.81 352.791 130.81C353.344 130.81 353.834 130.693 354.26 130.458C354.707 130.224 355.123 129.936 355.506 129.596C355.911 129.255 356.305 128.904 356.688 128.541C357.071 128.179 357.487 127.881 357.934 127.647C358.615 126.774 359.254 125.901 359.851 125.027C360.447 124.133 361.022 123.206 361.576 122.248C361.618 121.737 361.746 121.226 361.959 120.715C362.193 120.182 362.428 119.66 362.662 119.149C362.918 118.638 363.141 118.138 363.333 117.648C363.546 117.158 363.652 116.689 363.652 116.242C363.652 116.008 363.578 115.848 363.429 115.763C363.642 115.209 363.801 114.634 363.908 114.038C364.014 113.442 364.1 112.845 364.163 112.249C364.249 111.653 364.334 111.067 364.419 110.492C364.504 109.896 364.632 109.31 364.802 108.735C364.802 108.607 364.792 108.479 364.77 108.351C364.77 108.224 364.77 108.096 364.77 107.968C364.77 106.988 364.866 106.03 365.058 105.093C365.25 104.135 365.345 103.166 365.345 102.186C365.345 101.952 365.324 101.739 365.282 101.547C365.26 101.334 365.25 101.132 365.25 100.94C365.25 100.77 365.303 100.663 365.409 100.62C365.537 100.578 365.601 100.461 365.601 100.269C365.601 100.099 365.58 99.9176 365.537 99.726C365.516 99.5343 365.505 99.3319 365.505 99.119C365.505 98.4588 365.569 97.8092 365.697 97.1703C365.825 96.5313 365.889 95.8818 365.889 95.2215V94.8382C365.889 94.6891 365.867 94.5507 365.825 94.4229C365.974 94.1886 366.176 94.0395 366.432 93.9756C366.687 93.8904 366.932 93.8478 367.166 93.8478C367.55 93.8478 367.869 93.8904 368.125 93.9756C368.529 95.0618 368.87 96.1799 369.147 97.33C369.424 98.4588 369.648 99.6088 369.818 100.78C369.861 101.057 369.914 101.355 369.978 101.675C370.063 101.973 370.105 102.271 370.105 102.569C370.105 102.633 370.084 102.708 370.042 102.793C370.02 102.878 369.999 102.963 369.978 103.048C369.956 103.219 369.935 103.389 369.914 103.56C369.914 103.73 369.914 103.9 369.914 104.071C369.914 104.582 369.946 105.093 370.01 105.604C370.073 106.115 370.105 106.637 370.105 107.169C370.105 107.766 370.02 108.341 369.85 108.895C369.701 109.427 369.584 109.991 369.498 110.588C369.413 111.205 369.381 111.812 369.403 112.409C369.424 113.005 369.381 113.612 369.275 114.23C369.232 114.485 369.168 114.741 369.083 114.996C368.998 115.231 368.955 115.486 368.955 115.763C368.955 115.955 368.966 116.146 368.987 116.338C369.03 116.53 369.051 116.732 369.051 116.945C369.051 117.264 368.977 117.509 368.828 117.68C368.87 117.85 368.902 118.01 368.923 118.159C368.945 118.287 368.987 118.436 369.051 118.606C368.945 118.734 368.87 118.872 368.828 119.022C368.785 119.171 368.764 119.33 368.764 119.501C368.764 119.714 368.774 119.916 368.796 120.108C368.817 120.278 368.828 120.459 368.828 120.651C368.828 121.098 368.753 121.524 368.604 121.929C368.476 122.333 368.391 122.749 368.348 123.175C368.327 123.473 368.316 123.771 368.316 124.069C368.338 124.346 368.348 124.633 368.348 124.932C368.348 125.251 368.327 125.56 368.285 125.858C368.263 126.156 368.178 126.454 368.029 126.753C368.072 126.88 368.125 127.008 368.189 127.136C368.253 127.264 368.348 127.359 368.476 127.423C368.476 128.084 368.561 128.754 368.732 129.436C368.923 130.096 369.179 130.724 369.498 131.321C369.562 131.449 369.658 131.544 369.786 131.608C369.914 131.672 370.031 131.736 370.137 131.8C370.244 131.885 370.329 131.981 370.393 132.088C370.457 132.194 370.468 132.354 370.425 132.567C370.468 132.588 370.531 132.599 370.617 132.599C370.787 132.599 370.925 132.556 371.032 132.471C371.16 132.386 371.309 132.343 371.479 132.343H371.703C371.894 132.535 372.086 132.758 372.278 133.014C372.491 133.27 372.597 133.546 372.597 133.845ZM383.523 131.64C383.523 131.981 383.406 132.29 383.171 132.567C382.937 132.844 382.735 133.11 382.564 133.365C382.266 133.514 381.979 133.6 381.702 133.621C381.446 133.664 381.17 133.738 380.871 133.845C380.765 133.866 380.648 133.94 380.52 134.068C380.35 134.047 380.179 133.972 380.009 133.845C379.838 133.738 379.668 133.664 379.498 133.621C379.263 133.536 378.955 133.483 378.571 133.461C378.209 133.44 377.943 133.333 377.773 133.142C377.474 132.844 377.219 132.45 377.006 131.96C376.814 131.47 376.654 130.948 376.527 130.394C376.42 129.841 376.335 129.298 376.271 128.765C376.228 128.211 376.207 127.732 376.207 127.328C376.207 126.646 376.25 125.964 376.335 125.283C376.42 124.601 376.548 123.941 376.718 123.302V123.143C376.718 123.036 376.718 122.951 376.718 122.887C376.74 122.802 376.75 122.706 376.75 122.599C376.75 122.536 376.74 122.472 376.718 122.408C376.718 122.344 376.686 122.291 376.622 122.248C376.899 121.545 377.102 120.821 377.229 120.076C377.357 119.33 377.453 118.585 377.517 117.839C377.602 117.073 377.687 116.317 377.773 115.571C377.879 114.805 378.028 114.059 378.22 113.335C378.199 113.207 378.177 113.069 378.156 112.92C378.156 112.771 378.156 112.632 378.156 112.504C378.156 112.121 378.199 111.748 378.284 111.386C378.369 111.003 378.422 110.609 378.443 110.204C378.465 110.077 378.465 109.949 378.443 109.821C378.422 109.672 378.411 109.523 378.411 109.374C378.411 108.437 378.454 107.521 378.539 106.626C378.646 105.732 378.699 104.827 378.699 103.911C378.699 103.421 378.656 102.953 378.571 102.505C378.507 102.037 378.475 101.568 378.475 101.1C378.475 100.887 378.486 100.684 378.507 100.493C378.529 100.28 378.593 100.088 378.699 99.9176C379.168 99.5982 379.721 99.4384 380.36 99.4384C380.829 99.4384 381.233 99.5662 381.574 99.8218C381.553 99.8644 381.542 99.9283 381.542 100.013C381.542 100.12 381.553 100.216 381.574 100.301C381.595 100.386 381.606 100.482 381.606 100.589V100.716C381.606 100.759 381.595 100.801 381.574 100.844C381.723 101.1 381.819 101.377 381.862 101.675C381.926 101.952 381.958 102.239 381.958 102.537C381.958 102.814 381.947 103.091 381.926 103.368C381.904 103.623 381.894 103.89 381.894 104.166C381.894 104.55 381.894 104.933 381.894 105.317C381.915 105.7 381.926 106.083 381.926 106.467C381.926 107.489 381.872 108.501 381.766 109.502C381.681 110.481 381.617 111.482 381.574 112.504C381.532 113.378 381.414 114.23 381.223 115.06C381.052 115.891 380.935 116.732 380.871 117.584C380.85 117.754 380.839 117.925 380.839 118.095C380.861 118.244 380.871 118.415 380.871 118.606C380.871 119.096 380.776 119.586 380.584 120.076C380.392 120.544 380.296 121.045 380.296 121.577C380.296 121.833 380.339 122.056 380.424 122.248C380.296 122.589 380.179 122.993 380.073 123.462C379.987 123.931 379.902 124.42 379.817 124.932C379.753 125.421 379.7 125.911 379.657 126.401C379.615 126.87 379.593 127.285 379.593 127.647C379.593 128.158 379.657 128.68 379.785 129.212C379.913 129.724 380.126 130.192 380.424 130.618C380.637 130.682 380.893 130.714 381.191 130.714C381.489 130.714 381.787 130.724 382.085 130.746C382.383 130.767 382.66 130.82 382.916 130.906C383.171 130.991 383.363 131.161 383.491 131.417C383.512 131.459 383.523 131.502 383.523 131.544V131.64ZM403.617 104.582C403.574 105.093 403.479 105.593 403.33 106.083C403.202 106.552 403.042 107.02 402.85 107.489C402.68 107.957 402.499 108.426 402.307 108.895C402.137 109.342 402.009 109.821 401.924 110.332H401.796C401.732 110.332 401.668 110.343 401.604 110.364C401.562 110.385 401.509 110.417 401.445 110.46C401.445 110.481 401.434 110.502 401.413 110.524C401.413 110.545 401.413 110.566 401.413 110.588C401.413 110.673 401.423 110.747 401.445 110.811C401.487 110.875 401.509 110.928 401.509 110.971C401.509 111.014 401.498 111.046 401.477 111.067C401.477 111.067 401.466 111.088 401.445 111.131C400.742 112.302 400.114 113.505 399.56 114.741C399.006 115.976 398.42 117.201 397.803 118.415C397.547 118.904 397.281 119.384 397.004 119.852C396.749 120.321 396.472 120.789 396.174 121.258C396.067 121.428 395.95 121.588 395.822 121.737C395.716 121.886 395.609 122.046 395.503 122.216C395.46 122.259 395.428 122.333 395.407 122.44C395.407 122.546 395.407 122.621 395.407 122.663C395.407 122.791 395.439 122.919 395.503 123.047C395.29 123.068 395.141 123.143 395.055 123.27C394.97 123.398 394.843 123.505 394.672 123.59V123.686C394.693 123.856 394.651 124.016 394.544 124.165C394.459 124.314 394.427 124.474 394.449 124.644C394.065 125.027 393.756 125.475 393.522 125.986C393.288 126.497 393.032 126.987 392.755 127.455C392.649 127.647 392.532 127.828 392.404 127.998C392.276 128.147 392.159 128.297 392.053 128.446C391.946 128.616 391.85 128.818 391.765 129.053C391.68 129.266 391.595 129.468 391.509 129.66C391.403 129.915 391.19 130.362 390.871 131.001C390.572 131.662 390.253 132.343 389.912 133.046C389.593 133.77 389.295 134.43 389.018 135.027C388.762 135.644 388.634 136.049 388.634 136.241C388.613 136.411 388.602 136.571 388.602 136.72C388.624 136.89 388.634 137.061 388.634 137.231C388.357 137.486 388.112 137.753 387.9 138.03C387.687 138.306 387.431 138.541 387.133 138.732C386.835 138.626 386.547 138.498 386.27 138.349C385.993 138.2 385.706 138.061 385.408 137.934C385.28 137.721 385.195 137.497 385.152 137.263C385.11 137.05 385.003 136.858 384.833 136.688C384.833 136.454 384.886 136.23 384.992 136.017C385.078 135.825 385.12 135.623 385.12 135.41C385.12 135.282 385.099 135.176 385.056 135.09C385.163 135.048 385.259 134.995 385.344 134.931C385.408 134.888 385.514 134.867 385.663 134.867C385.642 134.803 385.631 134.718 385.631 134.611C385.631 134.313 385.791 134.089 386.111 133.94C386.132 133.387 386.249 132.865 386.462 132.375C386.675 131.907 386.909 131.438 387.165 130.969L387.931 129.564C388.187 129.095 388.379 128.605 388.506 128.094C388.741 127.732 388.954 127.391 389.145 127.072C389.337 126.731 389.465 126.337 389.529 125.89C390.146 125.081 390.711 124.261 391.222 123.43C391.754 122.578 392.191 121.641 392.532 120.619C392.809 120.385 393.043 120.108 393.235 119.788C393.426 119.447 393.607 119.107 393.778 118.766C393.948 118.425 394.129 118.095 394.321 117.776C394.512 117.456 394.757 117.179 395.055 116.945C395.098 116.604 395.173 116.285 395.279 115.987C395.407 115.667 395.535 115.358 395.662 115.06L396.078 114.166C396.227 113.868 396.344 113.548 396.429 113.207C396.77 112.717 397.068 112.196 397.324 111.642C397.579 111.067 397.803 110.492 397.995 109.917C398.208 109.32 398.399 108.735 398.57 108.16C398.761 107.563 398.964 106.988 399.177 106.435C399.155 106.328 399.134 106.232 399.113 106.147C399.113 106.041 399.113 105.934 399.113 105.828C399.113 104.954 399.39 104.305 399.943 103.879C400.518 103.432 401.21 103.208 402.02 103.208C402.318 103.442 402.595 103.677 402.85 103.911C403.106 104.124 403.362 104.348 403.617 104.582ZM427.768 133.845C427.768 134.1 427.694 134.313 427.545 134.484C427.396 134.675 427.215 134.824 427.002 134.931C426.789 135.059 426.565 135.165 426.331 135.25C426.097 135.357 425.894 135.463 425.724 135.57C425.234 135.463 424.723 135.367 424.19 135.282C423.658 135.218 423.179 135.08 422.753 134.867C421.88 133.908 421.262 132.801 420.9 131.544C420.559 130.309 420.336 129.074 420.229 127.839C420.187 127.477 420.165 127.125 420.165 126.784C420.165 126.422 420.144 126.06 420.101 125.698C420.059 125.379 419.867 125.187 419.526 125.123C419.782 125.081 419.963 124.953 420.069 124.74C420.176 124.506 420.24 124.25 420.261 123.973C420.282 123.675 420.282 123.387 420.261 123.111C420.261 122.812 420.282 122.568 420.325 122.376C420.155 122.44 420.006 122.589 419.878 122.823C419.75 123.036 419.633 123.281 419.526 123.558C419.42 123.835 419.313 124.112 419.207 124.388C419.122 124.644 419.036 124.846 418.951 124.995C418.057 126.529 417.013 127.924 415.821 129.18C414.649 130.437 413.435 131.683 412.179 132.918C411.817 133.046 411.476 133.206 411.156 133.397C410.837 133.61 410.539 133.834 410.262 134.068C409.453 134.302 408.686 134.42 407.962 134.42C407.302 134.42 406.652 134.324 406.013 134.132C405.374 133.962 404.799 133.664 404.288 133.238L403.106 130.554C403.042 130.384 402.968 130.213 402.882 130.043C402.797 129.851 402.733 129.67 402.691 129.5C402.648 129.308 402.627 129.106 402.627 128.893C402.648 128.659 402.659 128.456 402.659 128.286C402.659 127.541 402.68 126.795 402.723 126.05C402.786 125.283 402.872 124.527 402.978 123.781C403.021 123.483 403.085 123.175 403.17 122.855C403.255 122.536 403.319 122.227 403.362 121.929V121.577C403.362 121.471 403.351 121.343 403.33 121.194C403.308 121.023 403.244 120.917 403.138 120.874C403.649 119.639 403.905 118.351 403.905 117.009C403.905 116.796 403.894 116.594 403.873 116.402C403.873 116.189 403.862 115.976 403.841 115.763C403.99 115.614 404.086 115.444 404.128 115.252C404.171 115.039 404.192 114.826 404.192 114.613C404.192 114.379 404.192 114.155 404.192 113.942C404.213 113.729 404.277 113.527 404.384 113.335C404.362 113.101 404.341 112.877 404.32 112.664C404.32 112.43 404.32 112.196 404.32 111.961C404.32 110.534 404.426 109.129 404.639 107.744C404.874 106.339 404.991 104.923 404.991 103.496V102.154C404.991 101.856 404.991 101.547 404.991 101.227C405.012 100.908 405.055 100.599 405.119 100.301C405.204 100.003 405.321 99.726 405.47 99.4704C405.619 99.1935 405.832 98.9592 406.109 98.7676C406.151 98.7676 406.183 98.7676 406.205 98.7676C406.247 98.7463 406.29 98.7356 406.333 98.7356C406.524 98.7356 406.673 98.7889 406.78 98.8954C406.886 98.9805 407.046 99.0125 407.259 98.9912C407.642 99.5449 407.94 100.131 408.153 100.748C408.388 101.366 408.505 102.015 408.505 102.697C408.505 103.208 408.43 103.709 408.281 104.198C408.132 104.688 408.058 105.199 408.058 105.732C408.058 105.945 408.068 106.158 408.09 106.371C408.111 106.584 408.122 106.797 408.122 107.01C408.122 107.223 408.09 107.436 408.026 107.649C407.983 107.84 407.887 108.011 407.738 108.16C407.781 108.586 407.813 109.022 407.834 109.47C407.855 109.896 407.866 110.321 407.866 110.747C407.866 111.961 407.791 113.175 407.642 114.389C407.493 115.603 407.323 116.817 407.131 118.031C406.939 119.245 406.769 120.459 406.62 121.673C406.471 122.887 406.396 124.112 406.396 125.347V126.273C406.396 126.571 406.418 126.88 406.46 127.2C406.333 127.498 406.269 127.817 406.269 128.158C406.269 128.627 406.375 129.085 406.588 129.532C406.801 129.979 407.057 130.384 407.355 130.746C407.461 130.767 407.557 130.778 407.642 130.778C407.749 130.799 407.855 130.81 407.962 130.81C408.516 130.81 409.005 130.693 409.431 130.458C409.879 130.224 410.294 129.936 410.677 129.596C411.082 129.255 411.476 128.904 411.859 128.541C412.243 128.179 412.658 127.881 413.105 127.647C413.787 126.774 414.426 125.901 415.022 125.027C415.618 124.133 416.193 123.206 416.747 122.248C416.79 121.737 416.917 121.226 417.13 120.715C417.365 120.182 417.599 119.66 417.833 119.149C418.089 118.638 418.312 118.138 418.504 117.648C418.717 117.158 418.824 116.689 418.824 116.242C418.824 116.008 418.749 115.848 418.6 115.763C418.813 115.209 418.973 114.634 419.079 114.038C419.186 113.442 419.271 112.845 419.335 112.249C419.42 111.653 419.505 111.067 419.59 110.492C419.675 109.896 419.803 109.31 419.974 108.735C419.974 108.607 419.963 108.479 419.942 108.351C419.942 108.224 419.942 108.096 419.942 107.968C419.942 106.988 420.037 106.03 420.229 105.093C420.421 104.135 420.517 103.166 420.517 102.186C420.517 101.952 420.495 101.739 420.453 101.547C420.431 101.334 420.421 101.132 420.421 100.94C420.421 100.77 420.474 100.663 420.581 100.62C420.708 100.578 420.772 100.461 420.772 100.269C420.772 100.099 420.751 99.9176 420.708 99.726C420.687 99.5343 420.676 99.3319 420.676 99.119C420.676 98.4588 420.74 97.8092 420.868 97.1703C420.996 96.5313 421.06 95.8818 421.06 95.2215V94.8382C421.06 94.6891 421.038 94.5507 420.996 94.4229C421.145 94.1886 421.347 94.0395 421.603 93.9756C421.858 93.8904 422.103 93.8478 422.338 93.8478C422.721 93.8478 423.04 93.8904 423.296 93.9756C423.701 95.0618 424.041 96.1799 424.318 97.33C424.595 98.4588 424.819 99.6088 424.989 100.78C425.032 101.057 425.085 101.355 425.149 101.675C425.234 101.973 425.277 102.271 425.277 102.569C425.277 102.633 425.255 102.708 425.213 102.793C425.191 102.878 425.17 102.963 425.149 103.048C425.128 103.219 425.106 103.389 425.085 103.56C425.085 103.73 425.085 103.9 425.085 104.071C425.085 104.582 425.117 105.093 425.181 105.604C425.245 106.115 425.277 106.637 425.277 107.169C425.277 107.766 425.191 108.341 425.021 108.895C424.872 109.427 424.755 109.991 424.67 110.588C424.584 111.205 424.553 111.812 424.574 112.409C424.595 113.005 424.553 113.612 424.446 114.23C424.403 114.485 424.34 114.741 424.254 114.996C424.169 115.231 424.127 115.486 424.127 115.763C424.127 115.955 424.137 116.146 424.159 116.338C424.201 116.53 424.222 116.732 424.222 116.945C424.222 117.264 424.148 117.509 423.999 117.68C424.041 117.85 424.073 118.01 424.095 118.159C424.116 118.287 424.159 118.436 424.222 118.606C424.116 118.734 424.041 118.872 423.999 119.022C423.956 119.171 423.935 119.33 423.935 119.501C423.935 119.714 423.946 119.916 423.967 120.108C423.988 120.278 423.999 120.459 423.999 120.651C423.999 121.098 423.924 121.524 423.775 121.929C423.647 122.333 423.562 122.749 423.52 123.175C423.498 123.473 423.488 123.771 423.488 124.069C423.509 124.346 423.52 124.633 423.52 124.932C423.52 125.251 423.498 125.56 423.456 125.858C423.434 126.156 423.349 126.454 423.2 126.753C423.243 126.88 423.296 127.008 423.36 127.136C423.424 127.264 423.52 127.359 423.647 127.423C423.647 128.084 423.733 128.754 423.903 129.436C424.095 130.096 424.35 130.724 424.67 131.321C424.734 131.449 424.829 131.544 424.957 131.608C425.085 131.672 425.202 131.736 425.309 131.8C425.415 131.885 425.5 131.981 425.564 132.088C425.628 132.194 425.639 132.354 425.596 132.567C425.639 132.588 425.703 132.599 425.788 132.599C425.958 132.599 426.097 132.556 426.203 132.471C426.331 132.386 426.48 132.343 426.65 132.343H426.874C427.066 132.535 427.257 132.758 427.449 133.014C427.662 133.27 427.768 133.546 427.768 133.845ZM455.402 94.8382C455.402 95.0086 455.381 95.1683 455.338 95.3174C455.317 95.4665 455.327 95.6262 455.37 95.7966C454.71 96.2012 454.252 96.7337 453.996 97.3939C453.656 97.5643 453.379 97.7985 453.166 98.0967C452.953 98.3736 452.75 98.6717 452.559 98.9912C452.388 99.2894 452.207 99.5875 452.016 99.8857C451.824 100.163 451.568 100.397 451.249 100.589V101.291C451.079 101.249 450.961 101.27 450.898 101.355C450.855 101.419 450.78 101.472 450.674 101.515C450.248 102.324 449.811 103.134 449.364 103.943C448.917 104.731 448.363 105.444 447.703 106.083C447.533 106.531 447.341 106.967 447.128 107.393C446.915 107.819 446.691 108.245 446.457 108.671C446.223 109.097 445.999 109.523 445.786 109.949C445.573 110.375 445.403 110.811 445.275 111.259C444.849 111.706 444.487 112.206 444.189 112.76C443.891 113.292 443.603 113.836 443.326 114.389C443.071 114.922 442.783 115.454 442.464 115.987C442.166 116.519 441.804 117.009 441.378 117.456C441.399 117.648 441.367 117.808 441.282 117.935C441.197 118.063 441.154 118.202 441.154 118.351C441.154 118.84 441.388 119.394 441.857 120.012C442.347 120.608 442.922 121.215 443.582 121.833C444.242 122.429 444.902 122.983 445.563 123.494C446.223 124.005 446.734 124.399 447.096 124.676C447.65 124.442 448.14 124.207 448.565 123.973C448.991 123.718 449.503 123.569 450.099 123.526C450.397 123.675 450.631 123.877 450.802 124.133C450.993 124.367 451.089 124.644 451.089 124.964C451.089 125.453 450.94 125.922 450.642 126.369C450.344 126.795 450.014 127.147 449.652 127.423C449.311 127.487 448.97 127.541 448.629 127.583C448.289 127.626 447.948 127.647 447.607 127.647C446.926 127.647 446.244 127.583 445.563 127.455C444.902 127.306 444.242 127.147 443.582 126.976C443.22 126.508 442.815 126.103 442.368 125.762C441.942 125.4 441.463 125.113 440.93 124.9C440.909 124.644 440.845 124.431 440.739 124.261C440.632 124.09 440.504 123.941 440.355 123.813C440.206 123.664 440.036 123.537 439.844 123.43C439.674 123.324 439.503 123.206 439.333 123.079C439.12 123.143 438.928 123.238 438.758 123.366C438.588 123.473 438.396 123.558 438.183 123.622C437.778 124.601 437.235 125.517 436.554 126.369C436.596 126.753 436.522 127.051 436.33 127.264C436.16 127.455 435.936 127.658 435.659 127.871C435.553 128.488 435.35 129.042 435.052 129.532C434.775 130.022 434.445 130.501 434.062 130.969L434.094 131.225C434.094 131.31 434.062 131.385 433.998 131.449C433.955 131.512 433.945 131.619 433.966 131.768C433.647 132.151 433.38 132.588 433.167 133.078C432.954 133.589 432.752 134.111 432.56 134.643C432.39 135.176 432.22 135.708 432.049 136.241C431.9 136.773 431.73 137.273 431.538 137.742C431.623 137.934 431.666 138.157 431.666 138.413C431.666 138.647 431.645 138.881 431.602 139.116C431.559 139.35 431.538 139.584 431.538 139.819C431.538 140.01 431.57 140.191 431.634 140.362C431.698 140.553 431.815 140.713 431.985 140.841C432.241 140.607 432.571 140.489 432.976 140.489C433.21 140.489 433.434 140.521 433.647 140.585C433.881 140.649 434.094 140.734 434.286 140.841C434.371 141.011 434.413 141.16 434.413 141.288C434.413 141.437 434.371 141.565 434.286 141.671C434.222 141.799 434.136 141.916 434.03 142.023C433.945 142.151 433.849 142.268 433.742 142.374C433.657 142.481 433.604 142.609 433.583 142.758C433.093 142.8 432.603 142.875 432.113 142.981C431.645 143.088 431.187 143.247 430.739 143.46C430.484 143.418 430.25 143.322 430.037 143.173C429.845 143.045 429.621 142.949 429.366 142.885C429.089 142.523 428.876 142.129 428.727 141.703C428.556 141.277 428.344 140.873 428.088 140.489C428.088 140 428.152 139.51 428.28 139.02C428.407 138.551 428.546 138.083 428.695 137.614C428.823 137.146 428.94 136.666 429.046 136.177C429.153 135.708 429.185 135.229 429.142 134.739C429.355 134.633 429.526 134.462 429.653 134.228C429.781 134.015 429.877 133.77 429.941 133.493C430.026 133.238 430.101 132.971 430.164 132.695C430.228 132.439 430.303 132.205 430.388 131.992C430.622 131.843 430.793 131.651 430.899 131.417C431.027 131.204 431.208 131.023 431.442 130.874C431.442 130.831 431.432 130.788 431.41 130.746C431.41 130.724 431.41 130.693 431.41 130.65C431.389 130.607 431.368 130.575 431.346 130.554C431.325 130.554 431.315 130.533 431.315 130.49C431.315 130.448 431.304 130.405 431.283 130.362C431.283 130.341 431.293 130.309 431.315 130.267L431.634 129.851C431.932 129.468 432.156 129.117 432.305 128.797C432.454 128.456 432.624 128.073 432.816 127.647C432.986 127.242 433.199 126.838 433.455 126.433C433.71 126.028 433.955 125.624 434.19 125.219C434.743 124.218 435.276 123.228 435.787 122.248C436.319 121.247 436.884 120.257 437.48 119.277C437.31 119.149 437.171 119 437.065 118.83C436.958 118.638 436.852 118.446 436.745 118.255C436.66 118.063 436.564 117.882 436.458 117.712C436.351 117.52 436.202 117.36 436.011 117.233C435.563 116.061 435.052 114.922 434.477 113.814C433.923 112.685 433.38 111.567 432.848 110.46C432.656 110.055 432.475 109.651 432.305 109.246C432.156 108.82 431.975 108.426 431.762 108.064C431.698 107.957 431.623 107.915 431.538 107.936C431.453 107.957 431.378 107.925 431.315 107.84C431.144 107.35 430.995 106.914 430.867 106.531L430.388 105.093C430.473 104.667 430.665 104.358 430.963 104.166C431.261 103.975 431.613 103.879 432.017 103.879C432.337 103.879 432.678 103.932 433.04 104.039C433.231 104.252 433.412 104.486 433.583 104.742C433.753 104.976 433.955 105.199 434.19 105.412V106.243C434.807 107.5 435.382 108.756 435.915 110.013C436.469 111.269 437.065 112.526 437.704 113.782C437.938 113.825 438.13 113.921 438.279 114.07C438.428 114.219 438.566 114.379 438.694 114.549C438.822 114.719 438.95 114.879 439.077 115.028C439.227 115.177 439.429 115.262 439.684 115.284C439.77 115.241 439.897 115.103 440.068 114.868C440.238 114.613 440.409 114.347 440.579 114.07C440.771 113.772 440.93 113.484 441.058 113.207C441.207 112.93 441.282 112.739 441.282 112.632V112.409C442.687 110.471 443.869 108.415 444.828 106.243C445.041 106.137 445.211 105.998 445.339 105.828C445.467 105.636 445.584 105.444 445.69 105.253C445.818 105.04 445.946 104.837 446.074 104.646C446.201 104.454 446.361 104.294 446.553 104.166C446.659 103.719 446.83 103.304 447.064 102.921C447.298 102.537 447.543 102.154 447.799 101.771C448.054 101.387 448.299 101.004 448.534 100.62C448.768 100.216 448.949 99.7898 449.077 99.3426C449.311 99.2574 449.492 99.119 449.62 98.9273C449.769 98.7356 449.897 98.5333 450.003 98.3203C450.11 98.1073 450.227 97.905 450.354 97.7133C450.482 97.5217 450.663 97.3832 450.898 97.298C451.047 96.5952 451.334 96.0202 451.76 95.5729C452.186 95.1257 452.74 94.7849 453.421 94.5507L453.549 94.1992C453.634 94.2418 453.783 94.2844 453.996 94.327C454.209 94.3483 454.412 94.3803 454.603 94.4229C454.816 94.4442 454.997 94.4868 455.146 94.5507C455.317 94.6145 455.402 94.7104 455.402 94.8382Z" fill="#202020"/>
</g>
</g>
<path d="M710.829 41.3633H88.1771C81.9254 41.3633 75.9282 43.84 71.4982 48.2514L52.7551 66.9162C48.3008 71.3518 45.7969 77.379 45.7969 83.6651V332.396C45.7969 345.45 56.3796 356.033 69.434 356.033H729.573C742.627 356.033 753.21 345.45 753.21 332.396V83.6651C753.21 77.379 750.706 71.3518 746.251 66.9162L727.508 48.2514C723.078 43.84 717.081 41.3633 710.829 41.3633Z" stroke="#202020" stroke-width="2.21598"/>
<g clip-path="url(#clip7_18_1560)">
<path d="M229.723 157.706H568.029C603.317 157.706 631.924 186.312 631.924 221.6V223.077C631.924 258.365 603.317 286.972 568.029 286.972H229.723C194.435 286.972 165.829 258.365 165.829 223.077V221.6C165.829 186.312 194.435 157.706 229.723 157.706Z" stroke="#202020" stroke-width="2.21598"/>
<path d="M559.595 179.016C583.664 179.016 603.176 198.528 603.176 222.597C603.176 246.666 583.664 266.178 559.595 266.178C535.526 266.178 516.014 246.666 516.014 222.597C516.014 198.528 535.526 179.016 559.595 179.016ZM559.344 190.096C554.878 190.096 550.622 190.996 546.749 192.626L550.666 199.41L543.62 203.479L539.706 196.698C532.91 201.859 528.208 209.632 527.096 218.522H534.934V226.659H527.095C528.203 235.547 532.901 243.318 539.69 248.481L543.607 241.698L550.654 245.767L546.731 252.56C550.609 254.194 554.871 255.098 559.344 255.098C563.81 255.098 568.065 254.196 571.938 252.566L568.022 245.784L575.068 241.716L578.981 248.493C585.779 243.33 590.483 235.553 591.592 226.659H583.754V218.522H591.591C590.48 209.637 585.781 201.869 578.991 196.708L575.08 203.484L568.033 199.416L571.949 192.631C568.073 190.998 563.814 190.096 559.344 190.096Z" fill="#202020"/>
<path d="M237.849 179.016C261.918 179.016 281.43 198.528 281.43 222.597C281.43 246.666 261.918 266.178 237.849 266.178C213.78 266.178 194.268 246.666 194.268 222.597C194.268 198.528 213.78 179.016 237.849 179.016ZM237.598 190.096C233.132 190.096 228.876 190.996 225.003 192.626L228.92 199.41L221.874 203.479L217.96 196.698C211.164 201.859 206.461 209.632 205.35 218.522H213.188V226.659H205.349C206.457 235.547 211.155 243.318 217.944 248.481L221.861 241.698L228.908 245.767L224.985 252.56C228.863 254.194 233.125 255.098 237.598 255.098C242.064 255.098 246.319 254.196 250.192 252.566L246.276 245.784L253.322 241.716L257.235 248.493C264.033 243.33 268.737 235.553 269.846 226.659H262.008V218.522H269.845C268.733 209.637 264.035 201.869 257.245 196.708L253.334 203.484L246.287 199.416L250.203 192.631C246.327 190.998 242.068 190.096 237.598 190.096Z" fill="#202020"/>
</g>
<defs>
<clipPath id="clip0_18_1560">
<rect width="26.5918" height="26.5918" fill="white" transform="translate(385.467 386.871)"/>
</clipPath>
<clipPath id="clip1_18_1560">
<rect width="26.5918" height="26.5918" fill="white" transform="translate(19.9434 19.9453)"/>
</clipPath>
<clipPath id="clip2_18_1560">
<rect width="26.5918" height="26.5918" fill="white" transform="translate(19.9434 442.27)"/>
</clipPath>
<clipPath id="clip3_18_1560">
<rect width="26.5918" height="26.5918" fill="white" transform="translate(750.992 19.9453)"/>
</clipPath>
<clipPath id="clip4_18_1560">
<rect width="26.5918" height="26.5918" fill="white" transform="translate(750.992 442.27)"/>
</clipPath>
<clipPath id="clip5_18_1560">
<rect width="707.637" height="314.669" fill="white" transform="translate(45.7969 41.3633)"/>
</clipPath>
<clipPath id="clip6_18_1560">
<rect width="708" height="199.769" fill="white" transform="matrix(1 0 0 -1 46.166 356.734)"/>
</clipPath>
<clipPath id="clip7_18_1560">
<rect x="164.721" y="156.598" width="468.311" height="131.482" rx="65.0021" fill="white"/>
</clipPath>
</defs>
</svg>
