<svg width="400" height="246" viewBox="0 0 400 246" fill="none" xmlns="http://www.w3.org/2000/svg">
<g filter="url(#filter0_n_1411_113544)">
<g clip-path="url(#clip0_1411_113544)">
<rect width="400" height="245.185" rx="16.6765" fill="url(#paint0_linear_1411_113544)"/>
<g opacity="0.8">
<mask id="path-2-outside-1_1411_113544" maskUnits="userSpaceOnUse" x="-0.886719" y="-0.888672" width="401" height="247" fill="black">
<rect fill="white" x="-0.886719" y="-0.888672" width="401" height="247"/>
<path d="M382.595 1.11133C391.595 1.11133 398.891 8.40716 398.892 17.4072V227.778C398.891 236.778 391.595 244.074 382.595 244.074H17.4102C8.41011 244.074 1.11352 236.778 1.11328 227.778V17.4072C1.11344 8.40716 8.41006 1.11133 17.4102 1.11133H382.595ZM105.558 217.388C99.8304 217.388 95.1875 222.031 95.1875 227.758C95.1876 233.485 99.8305 238.128 105.558 238.128C111.285 238.128 115.929 233.485 115.929 227.758C115.929 222.03 111.285 217.388 105.558 217.388ZM294.817 217.388C289.09 217.388 284.447 222.03 284.447 227.758C284.447 233.485 289.09 238.128 294.817 238.128C300.545 238.128 305.187 233.485 305.188 227.758C305.188 222.03 300.545 217.388 294.817 217.388ZM138.891 217.388C137.663 217.388 136.669 218.382 136.669 219.609V229.239C136.669 230.466 137.663 231.461 138.891 231.461H148.521C149.748 231.461 150.742 230.466 150.742 229.239V219.609C150.742 218.382 149.748 217.388 148.521 217.388H138.891ZM251.854 217.388C250.627 217.388 249.633 218.382 249.633 219.609V229.239C249.633 230.466 250.627 231.461 251.854 231.461H261.484C262.712 231.461 263.707 230.466 263.707 229.239V219.609C263.707 218.382 262.712 217.388 261.484 217.388H251.854ZM119.261 89.6299C107.193 89.6301 97.4093 99.4132 97.4092 111.481C97.4092 123.55 107.192 133.333 119.261 133.333C131.329 133.333 141.113 123.55 141.113 111.481C141.113 99.4131 131.329 89.6299 119.261 89.6299ZM280.743 89.6299C268.675 89.6299 258.891 99.4131 258.891 111.481C258.891 123.55 268.675 133.333 280.743 133.333C292.811 133.333 302.595 123.55 302.595 111.481C302.595 99.4132 292.811 89.6301 280.743 89.6299Z"/>
</mask>
<path d="M382.595 1.11133C391.595 1.11133 398.891 8.40716 398.892 17.4072V227.778C398.891 236.778 391.595 244.074 382.595 244.074H17.4102C8.41011 244.074 1.11352 236.778 1.11328 227.778V17.4072C1.11344 8.40716 8.41006 1.11133 17.4102 1.11133H382.595ZM105.558 217.388C99.8304 217.388 95.1875 222.031 95.1875 227.758C95.1876 233.485 99.8305 238.128 105.558 238.128C111.285 238.128 115.929 233.485 115.929 227.758C115.929 222.03 111.285 217.388 105.558 217.388ZM294.817 217.388C289.09 217.388 284.447 222.03 284.447 227.758C284.447 233.485 289.09 238.128 294.817 238.128C300.545 238.128 305.187 233.485 305.188 227.758C305.188 222.03 300.545 217.388 294.817 217.388ZM138.891 217.388C137.663 217.388 136.669 218.382 136.669 219.609V229.239C136.669 230.466 137.663 231.461 138.891 231.461H148.521C149.748 231.461 150.742 230.466 150.742 229.239V219.609C150.742 218.382 149.748 217.388 148.521 217.388H138.891ZM251.854 217.388C250.627 217.388 249.633 218.382 249.633 219.609V229.239C249.633 230.466 250.627 231.461 251.854 231.461H261.484C262.712 231.461 263.707 230.466 263.707 229.239V219.609C263.707 218.382 262.712 217.388 261.484 217.388H251.854ZM119.261 89.6299C107.193 89.6301 97.4093 99.4132 97.4092 111.481C97.4092 123.55 107.192 133.333 119.261 133.333C131.329 133.333 141.113 123.55 141.113 111.481C141.113 99.4131 131.329 89.6299 119.261 89.6299ZM280.743 89.6299C268.675 89.6299 258.891 99.4131 258.891 111.481C258.891 123.55 268.675 133.333 280.743 133.333C292.811 133.333 302.595 123.55 302.595 111.481C302.595 99.4132 292.811 89.6301 280.743 89.6299Z" fill="white"/>
<path d="M398.892 17.4072H400.003V17.4072L398.892 17.4072ZM398.892 227.778L400.003 227.778V227.778H398.892ZM1.11328 227.778H0.00217009V227.778L1.11328 227.778ZM1.11328 17.4072L0.00217009 17.4072V17.4072H1.11328ZM105.558 217.388V216.277H105.558L105.558 217.388ZM95.1875 227.758H94.0764V227.758L95.1875 227.758ZM105.558 238.128L105.558 239.239H105.558V238.128ZM115.929 227.758L117.04 227.758V227.758H115.929ZM294.817 217.388V216.277H294.817L294.817 217.388ZM284.447 227.758H283.336V227.758L284.447 227.758ZM294.817 238.128L294.817 239.239H294.817V238.128ZM305.188 227.758L306.299 227.758V227.758H305.188ZM138.891 217.388V216.277H138.891L138.891 217.388ZM136.669 219.609L135.558 219.609V219.609H136.669ZM136.669 229.239H135.558V229.239L136.669 229.239ZM138.891 231.461L138.891 232.572H138.891V231.461ZM148.521 231.461V232.572H148.521L148.521 231.461ZM150.742 229.239L151.853 229.239V229.239H150.742ZM150.742 219.609H151.853V219.609L150.742 219.609ZM148.521 217.388L148.521 216.277H148.521V217.388ZM251.854 217.388V216.277H251.854L251.854 217.388ZM249.633 219.609L248.522 219.609V219.609H249.633ZM249.633 229.239H248.522V229.239L249.633 229.239ZM251.854 231.461L251.854 232.572H251.854V231.461ZM263.707 229.239L264.818 229.239V229.239H263.707ZM263.707 219.609H264.818V219.609L263.707 219.609ZM119.261 89.6299V88.5188H119.261L119.261 89.6299ZM97.4092 111.481L96.2981 111.481V111.481H97.4092ZM119.261 133.333L119.261 134.444H119.261V133.333ZM141.113 111.481H142.224V111.481L141.113 111.481ZM280.743 89.6299L280.743 88.5188H280.743V89.6299ZM258.891 111.481L257.78 111.481V111.481H258.891ZM280.743 133.333V134.444H280.743L280.743 133.333ZM302.595 111.481H303.706V111.481L302.595 111.481ZM382.595 1.11133V2.22244C390.981 2.22244 397.78 9.02089 397.78 17.4072L398.892 17.4072L400.003 17.4072C400.003 7.79344 392.208 0.000216961 382.595 0.000216961V1.11133ZM398.892 17.4072H397.78V227.778H398.892H400.003V17.4072H398.892ZM398.892 227.778L397.78 227.778C397.78 236.165 390.981 242.963 382.595 242.963V244.074V245.185C392.208 245.185 400.002 237.392 400.003 227.778L398.892 227.778ZM382.595 244.074V242.963H17.4102V244.074V245.185H382.595V244.074ZM17.4102 244.074V242.963C9.0237 242.963 2.22462 236.165 2.22439 227.778L1.11328 227.778L0.00217009 227.778C0.00242567 237.392 7.79652 245.185 17.4102 245.185V244.074ZM1.11328 227.778H2.22439V17.4072H1.11328H0.00217009V227.778H1.11328ZM1.11328 17.4072L2.22439 17.4072C2.22454 9.02089 9.02364 2.22244 17.4102 2.22244V1.11133V0.000216961C7.79647 0.000216961 0.00233757 7.79344 0.00217009 17.4072L1.11328 17.4072ZM17.4102 1.11133V2.22244H382.595V1.11133V0.000216961H17.4102V1.11133ZM105.558 217.388L105.558 216.277C99.2168 216.277 94.0764 221.417 94.0764 227.758H95.1875H96.2986C96.2986 222.644 100.444 218.499 105.558 218.499L105.558 217.388ZM95.1875 227.758L94.0764 227.758C94.0765 234.099 99.2169 239.239 105.558 239.239L105.558 238.128L105.558 237.017C100.444 237.017 96.2987 232.871 96.2986 227.758L95.1875 227.758ZM105.558 238.128V239.239C111.898 239.239 117.04 234.099 117.04 227.758L115.929 227.758L114.818 227.758C114.817 232.871 110.671 237.017 105.558 237.017V238.128ZM115.929 227.758H117.04C117.04 221.417 111.899 216.277 105.558 216.277V217.388V218.499C110.672 218.499 114.818 222.644 114.818 227.758H115.929ZM294.817 217.388L294.817 216.277C288.476 216.277 283.336 221.417 283.336 227.758H284.447H285.558C285.558 222.644 289.704 218.499 294.817 218.499L294.817 217.388ZM284.447 227.758L283.336 227.758C283.336 234.099 288.477 239.239 294.817 239.239L294.817 238.128L294.817 237.017C289.704 237.017 285.558 232.871 285.558 227.758L284.447 227.758ZM294.817 238.128V239.239C301.158 239.239 306.298 234.099 306.299 227.758L305.188 227.758L304.076 227.758C304.076 232.871 299.931 237.017 294.817 237.017V238.128ZM305.188 227.758H306.299C306.299 221.417 301.158 216.277 294.817 216.277V217.388V218.499C299.931 218.499 304.076 222.644 304.076 227.758H305.188ZM138.891 217.388L138.891 216.277C137.05 216.277 135.558 217.768 135.558 219.609L136.669 219.609L137.78 219.609C137.78 218.996 138.277 218.499 138.891 218.499L138.891 217.388ZM136.669 219.609H135.558V229.239H136.669H137.78V219.609H136.669ZM136.669 229.239L135.558 229.239C135.558 231.08 137.05 232.572 138.891 232.572L138.891 231.461L138.891 230.35C138.277 230.35 137.78 229.853 137.78 229.239L136.669 229.239ZM138.891 231.461V232.572H148.521V231.461V230.35H138.891V231.461ZM148.521 231.461L148.521 232.572C150.361 232.572 151.853 231.08 151.853 229.239L150.742 229.239L149.631 229.239C149.631 229.853 149.134 230.35 148.52 230.35L148.521 231.461ZM150.742 229.239H151.853V219.609H150.742H149.631V229.239H150.742ZM150.742 219.609L151.853 219.609C151.853 217.768 150.361 216.277 148.521 216.277L148.521 217.388L148.52 218.499C149.134 218.499 149.631 218.996 149.631 219.609L150.742 219.609ZM148.521 217.388V216.277H138.891V217.388V218.499H148.521V217.388ZM251.854 217.388L251.854 216.277C250.014 216.277 248.522 217.768 248.522 219.609L249.633 219.609L250.744 219.609C250.744 218.996 251.241 218.499 251.855 218.499L251.854 217.388ZM249.633 219.609H248.522V229.239H249.633H250.744V219.609H249.633ZM249.633 229.239L248.522 229.239C248.522 231.08 250.014 232.572 251.854 232.572L251.854 231.461L251.855 230.35C251.241 230.35 250.744 229.853 250.744 229.239L249.633 229.239ZM251.854 231.461V232.572H261.484V231.461V230.35H251.854V231.461ZM261.484 231.461V232.572C263.325 232.572 264.818 231.081 264.818 229.239L263.707 229.239L262.596 229.239C262.596 229.852 262.099 230.35 261.484 230.35V231.461ZM263.707 229.239H264.818V219.609H263.707H262.596V229.239H263.707ZM263.707 219.609L264.818 219.609C264.818 217.768 263.325 216.277 261.484 216.277V217.388V218.499C262.099 218.499 262.596 218.996 262.596 219.609L263.707 219.609ZM261.484 217.388V216.277H251.854V217.388V218.499H261.484V217.388ZM119.261 89.6299L119.261 88.5188C106.579 88.519 96.2981 98.7995 96.2981 111.481L97.4092 111.481L98.5203 111.481C98.5204 100.027 107.806 90.7412 119.261 90.741L119.261 89.6299ZM97.4092 111.481H96.2981C96.2981 124.163 106.579 134.444 119.261 134.444L119.261 133.333L119.261 132.222C107.806 132.222 98.5203 122.936 98.5203 111.481H97.4092ZM119.261 133.333V134.444C131.943 134.444 142.224 124.164 142.224 111.481H141.113H140.002C140.002 122.936 130.716 132.222 119.261 132.222V133.333ZM141.113 111.481L142.224 111.481C142.224 98.7994 131.943 88.5188 119.261 88.5188V89.6299V90.741C130.716 90.741 140.002 100.027 140.002 111.481L141.113 111.481ZM280.743 89.6299V88.5188C268.061 88.5188 257.78 98.7994 257.78 111.481L258.891 111.481L260.002 111.481C260.002 100.027 269.288 90.741 280.743 90.741V89.6299ZM258.891 111.481H257.78C257.78 124.164 268.061 134.444 280.743 134.444V133.333V132.222C269.288 132.222 260.002 122.936 260.002 111.481H258.891ZM280.743 133.333L280.743 134.444C293.425 134.444 303.706 124.163 303.706 111.481H302.595H301.484C301.484 122.936 292.198 132.222 280.743 132.222L280.743 133.333ZM302.595 111.481L303.706 111.481C303.706 98.7995 293.425 88.519 280.743 88.5188L280.743 89.6299L280.743 90.741C292.198 90.7412 301.484 100.027 301.484 111.481L302.595 111.481Z" fill="white" mask="url(#path-2-outside-1_1411_113544)"/>
</g>
<path d="M106.487 60.666L104.227 64.6211H131.347L129.652 60.666H106.487Z" fill="#1E1E1E" stroke="#1E1E1E" stroke-width="1.13001"/>
<path d="M131.686 54.9143V55.1177H121.556V54.9143L123.753 52.6362L121.638 47.185H110.41L108.62 51.9039L111.915 54.9143V55.1177H104.43V54.9143L106.383 51.9039L114.803 30.3433L113.339 26.8447V26.6413H119.848L130.059 52.6362L131.686 54.9143ZM120.987 45.5171L115.902 32.4993L111.02 45.5171H120.987ZM155.349 43.7678C155.349 47.1579 154.278 50.0055 152.135 52.3107C150.02 54.6159 147.389 55.7686 144.243 55.7686C142.752 55.7686 141.599 55.5516 140.786 55.1177V61.2197L143.348 63.0504V63.2538H133.585V63.0504L135.456 61.2197V37.8285L133.219 35.8351V35.6317L140.053 33.7604H140.46L140.745 37.1369H140.989C142.02 35.9165 142.982 35.0486 143.877 34.5333C144.799 34.0181 145.83 33.7604 146.969 33.7604C149.41 33.7604 151.417 34.6961 152.99 36.5674C154.563 38.4387 155.349 40.8388 155.349 43.7678ZM150.264 46.2086C150.264 43.578 149.654 41.4083 148.434 39.6998C147.213 37.9912 145.681 37.1369 143.837 37.1369C142.535 37.1369 141.518 37.6251 140.786 38.6014V53.165C141.599 53.8159 142.698 54.1413 144.081 54.1413C145.952 54.1413 147.444 53.4362 148.556 52.026C149.695 50.5886 150.264 48.6495 150.264 46.2086ZM180.218 43.7678C180.218 47.1579 179.147 50.0055 177.005 52.3107C174.889 54.6159 172.259 55.7686 169.113 55.7686C167.621 55.7686 166.468 55.5516 165.655 55.1177V61.2197L168.218 63.0504V63.2538H158.454V63.0504L160.326 61.2197V37.8285L158.088 35.8351V35.6317L164.922 33.7604H165.329L165.614 37.1369H165.858C166.889 35.9165 167.851 35.0486 168.746 34.5333C169.669 34.0181 170.699 33.7604 171.838 33.7604C174.279 33.7604 176.286 34.6961 177.859 36.5674C179.432 38.4387 180.218 40.8388 180.218 43.7678ZM175.133 46.2086C175.133 43.578 174.523 41.4083 173.303 39.6998C172.082 37.9912 170.55 37.1369 168.706 37.1369C167.404 37.1369 166.387 37.6251 165.655 38.6014V53.165C166.468 53.8159 167.567 54.1413 168.95 54.1413C170.821 54.1413 172.313 53.4362 173.425 52.026C174.564 50.5886 175.133 48.6495 175.133 46.2086ZM190.117 55.7279C188.897 55.7279 187.812 55.4296 186.863 54.8329C185.941 54.2091 185.33 53.3006 185.032 52.1073V36.4046H182.225V36.2012L189.67 30.2212H190.361V34.3706H195.934L195.65 36.4046H190.361V49.6665C190.361 50.6971 190.619 51.4836 191.134 52.026C191.676 52.5412 192.382 52.7989 193.249 52.7989C194.416 52.7989 195.473 52.3785 196.423 51.5378L196.585 51.6598C195.989 52.9074 195.107 53.8973 193.941 54.6295C192.802 55.3618 191.527 55.7279 190.117 55.7279ZM205.49 28.7567C204.948 29.272 204.216 29.5296 203.294 29.5296C202.372 29.5296 201.626 29.272 201.056 28.7567C200.487 28.2414 200.202 27.5363 200.202 26.6413C200.202 25.7464 200.487 25.0548 201.056 24.5666C201.626 24.0513 202.372 23.7937 203.294 23.7937C204.216 23.7937 204.948 24.0513 205.49 24.5666C206.06 25.0548 206.345 25.7464 206.345 26.6413C206.345 27.5363 206.06 28.2414 205.49 28.7567ZM207.85 54.955V55.1177H198.738V54.955L200.609 53.0837V37.9098L198.371 35.8758V35.7131L205.531 33.7604H205.938V53.0837L207.85 54.955ZM218.005 55.7279C216.785 55.7279 215.7 55.4296 214.751 54.8329C213.829 54.2091 213.219 53.3006 212.92 52.1073V36.4046H210.113V36.2012L217.558 30.2212H218.25V34.3706H223.823L223.538 36.4046H218.25V49.6665C218.25 50.6971 218.507 51.4836 219.022 52.026C219.565 52.5412 220.27 52.7989 221.138 52.7989C222.304 52.7989 223.362 52.3785 224.311 51.5378L224.474 51.6598C223.877 52.9074 222.996 53.8973 221.829 54.6295C220.69 55.3618 219.416 55.7279 218.005 55.7279ZM233.745 55.7279C232.036 55.7279 230.64 55.2262 229.555 54.2227C228.497 53.1921 227.968 51.8632 227.968 50.236V37.9098L225.731 35.8758V35.6724L232.891 33.7197H233.298V49.0563C233.298 50.1411 233.582 50.9954 234.152 51.6192C234.748 52.2158 235.562 52.5141 236.593 52.5141C237.976 52.5141 239.44 51.8632 240.986 50.5615V37.9505L238.749 35.9165V35.7131L245.908 33.7604H246.315V51.9446L248.39 53.8566V54.06L241.596 55.7279L241.108 52.026H240.864C238.64 54.4939 236.267 55.7279 233.745 55.7279ZM251.29 45.7612C251.29 42.344 252.347 39.4964 254.463 37.2183C256.605 34.913 259.222 33.7604 262.314 33.7604C263.779 33.7604 264.945 33.9638 265.813 34.3706V27.9838L263.575 25.9091V25.7464L270.735 23.7937H271.142V51.9039L273.257 53.8973V54.1007L266.342 55.7279L265.894 52.3514H265.65C264.592 53.5989 263.602 54.4803 262.68 54.9956C261.785 55.5109 260.768 55.7686 259.629 55.7686C257.216 55.7686 255.222 54.8329 253.649 52.9616C252.076 51.0632 251.29 48.663 251.29 45.7612ZM256.375 43.2797C256.375 45.8832 256.971 48.0528 258.165 49.7885C259.358 51.4971 260.89 52.3514 262.762 52.3514C264.009 52.3514 265.026 51.8632 265.813 50.8869V36.3233C264.999 35.6724 263.887 35.347 262.477 35.347C260.606 35.347 259.114 36.0656 258.002 37.503C256.917 38.9133 256.375 40.8388 256.375 43.2797ZM285.727 55.7279C282.798 55.7279 280.412 54.7516 278.568 52.7989C276.723 50.8191 275.801 48.2562 275.801 45.1103C275.801 41.883 276.764 39.1845 278.69 37.0149C280.642 34.8452 283.056 33.7604 285.931 33.7604C290.731 33.7604 293.674 36.8657 294.758 43.0762H280.154C280.29 45.7612 281.049 47.9037 282.432 49.5038C283.815 51.1039 285.619 51.9039 287.843 51.9039C290.772 51.9039 293.104 50.4665 294.84 47.5918L295.043 47.7138C294.582 50.2089 293.524 52.1751 291.87 53.6125C290.243 55.0228 288.195 55.7279 285.727 55.7279ZM284.873 35.2656C283.463 35.2656 282.351 35.8216 281.537 36.9335C280.724 38.0454 280.263 39.632 280.154 41.6931H289.673C289.239 39.4421 288.643 37.8149 287.883 36.8115C287.124 35.7809 286.121 35.2656 284.873 35.2656Z" fill="#1E1E1E"/>
<path d="M280.371 83.7036C295.712 83.7036 308.149 96.1399 308.149 111.481C308.149 126.822 295.712 139.259 280.371 139.259C265.03 139.259 252.594 126.822 252.594 111.481C252.594 96.1401 265.03 83.7039 280.371 83.7036ZM280.742 88.5181C268.06 88.5182 257.78 98.7991 257.779 111.481C257.779 124.163 268.06 134.444 280.742 134.444C293.424 134.444 303.705 124.163 303.705 111.481C303.705 98.7991 293.424 88.5181 280.742 88.5181Z" fill="#262626"/>
<path d="M46.8505 101.111C42.9842 131.761 27.9386 204.763 31.8504 228.333M43.332 237.963C69.0728 238.333 353.888 237.963 356.665 237.963M303.147 95.9258C316.26 115.358 358.452 193.064 367.943 223.333" stroke="#262626" stroke-width="0.37037"/>
<path d="M43.332 214.444C49.8775 214.444 55.1844 219.75 55.1846 226.296C55.1846 232.841 49.8776 238.148 43.332 238.148C36.7866 238.148 31.4805 232.841 31.4805 226.296C31.4807 219.751 36.7867 214.444 43.332 214.444ZM43.332 221.308C40.5761 221.308 38.3419 223.542 38.3418 226.298C38.3418 229.054 40.5761 231.288 43.332 231.288C46.0881 231.288 48.3223 229.054 48.3223 226.298C48.3221 223.542 46.088 221.308 43.332 221.308Z" fill="#262626"/>
<path d="M356.669 214.444C363.214 214.445 368.52 219.751 368.521 226.296C368.521 232.841 363.214 238.148 356.669 238.148C350.123 238.148 344.816 232.841 344.816 226.296C344.817 219.75 350.123 214.444 356.669 214.444ZM356.669 221.308C353.913 221.308 351.679 223.542 351.679 226.298C351.679 229.054 353.913 231.288 356.669 231.288C359.425 231.288 361.659 229.054 361.659 226.298C361.659 223.542 359.425 221.308 356.669 221.308Z" fill="#262626"/>
<path d="M90.1416 189.815H312.815C317.978 189.815 322.484 193.315 323.761 198.318L335.581 244.629H64.8281L79.3516 197.767C80.8171 193.038 85.191 189.815 90.1416 189.815Z" stroke="#262626" stroke-width="1.11111"/>
<circle cx="105.554" cy="227.778" r="9.81481" stroke="#262626" stroke-width="1.11111"/>
<circle cx="294.816" cy="227.778" r="9.81481" stroke="#262626" stroke-width="1.11111"/>
<rect x="137.224" y="217.963" width="12.963" height="12.963" rx="1.66667" stroke="#262626" stroke-width="1.11111"/>
<path d="M192.961 231.482C192.961 230.254 193.956 229.259 195.183 229.259H204.813C206.04 229.259 207.035 230.254 207.035 231.481V238.148H192.961V231.482Z" fill="#262626"/>
<rect x="250.184" y="217.963" width="12.963" height="12.963" rx="1.66667" stroke="#262626" stroke-width="1.11111"/>
<g clip-path="url(#clip1_1411_113544)">
<path d="M199.999 194.074C203.681 194.074 206.665 197.059 206.665 200.741C206.665 204.423 203.681 207.407 199.999 207.407C196.317 207.407 193.332 204.423 193.332 200.741C193.332 197.059 196.317 194.074 199.999 194.074ZM200.543 196.751C200.422 196.158 199.575 196.158 199.454 196.751L198.945 199.254C198.901 199.472 198.73 199.643 198.512 199.688L196.009 200.196C195.416 200.317 195.416 201.164 196.009 201.285L198.512 201.794C198.73 201.838 198.901 202.009 198.945 202.228L199.454 204.73C199.575 205.324 200.422 205.324 200.543 204.73L201.052 202.228C201.096 202.009 201.267 201.838 201.485 201.794L203.988 201.285C204.581 201.165 204.581 200.317 203.988 200.196L201.485 199.688C201.267 199.643 201.096 199.472 201.052 199.254L200.543 196.751Z" fill="#262626"/>
</g>
<g clip-path="url(#clip2_1411_113544)">
<path d="M16.667 10C20.3487 10.0002 23.333 12.9852 23.333 16.667C23.3328 20.3486 20.3486 23.3328 16.667 23.333C12.9852 23.333 10.0002 20.3487 10 16.667C10 12.9851 12.9851 10 16.667 10ZM17.2109 12.6768C17.0901 12.0839 16.2428 12.0839 16.1221 12.6768L15.6133 15.1797C15.5688 15.3981 15.3981 15.5688 15.1797 15.6133L12.6768 16.1221C12.0839 16.2428 12.0839 17.0901 12.6768 17.2109L15.1797 17.7197C15.398 17.7641 15.5687 17.935 15.6133 18.1533L16.1221 20.6562C16.2427 21.2494 17.0903 21.2494 17.2109 20.6562L17.7197 18.1533C17.7642 17.9351 17.9351 17.7642 18.1533 17.7197L20.6562 17.2109C21.2494 17.0903 21.2494 16.2427 20.6562 16.1221L18.1533 15.6133C17.935 15.5687 17.7641 15.398 17.7197 15.1797L17.2109 12.6768Z" fill="#262626"/>
</g>
<g clip-path="url(#clip3_1411_113544)">
<path d="M16.667 221.852C20.3487 221.852 23.333 224.837 23.333 228.519C23.3328 232.2 20.3486 235.184 16.667 235.185C12.9852 235.185 10.0002 232.2 10 228.519C10 224.837 12.9851 221.852 16.667 221.852ZM17.2109 224.528C17.0901 223.936 16.2428 223.935 16.1221 224.528L15.6133 227.031C15.5688 227.25 15.3981 227.42 15.1797 227.465L12.6768 227.974C12.0839 228.094 12.0839 228.942 12.6768 229.062L15.1797 229.571C15.398 229.616 15.5687 229.787 15.6133 230.005L16.1221 232.508C16.2427 233.101 17.0903 233.101 17.2109 232.508L17.7197 230.005C17.7642 229.787 17.9351 229.616 18.1533 229.571L20.6562 229.062C21.2494 228.942 21.2494 228.094 20.6562 227.974L18.1533 227.465C17.935 227.42 17.7641 227.25 17.7197 227.031L17.2109 224.528Z" fill="#262626"/>
</g>
<g clip-path="url(#clip4_1411_113544)">
<path d="M383.331 10C387.013 10.0002 389.997 12.9852 389.997 16.667C389.997 20.3486 387.013 23.3328 383.331 23.333C379.649 23.333 376.664 20.3487 376.664 16.667C376.664 12.9851 379.649 10 383.331 10ZM383.875 12.6768C383.754 12.0839 382.907 12.0839 382.786 12.6768L382.277 15.1797C382.233 15.3981 382.062 15.5688 381.844 15.6133L379.341 16.1221C378.748 16.2428 378.748 17.0901 379.341 17.2109L381.844 17.7197C382.062 17.7641 382.233 17.935 382.277 18.1533L382.786 20.6562C382.907 21.2494 383.754 21.2494 383.875 20.6562L384.384 18.1533C384.428 17.9351 384.599 17.7642 384.817 17.7197L387.32 17.2109C387.913 17.0903 387.913 16.2427 387.32 16.1221L384.817 15.6133C384.599 15.5687 384.428 15.398 384.384 15.1797L383.875 12.6768Z" fill="#262626"/>
</g>
<g clip-path="url(#clip5_1411_113544)">
<path d="M383.331 221.852C387.013 221.852 389.997 224.837 389.997 228.519C389.997 232.2 387.013 235.184 383.331 235.185C379.649 235.185 376.664 232.2 376.664 228.519C376.664 224.837 379.649 221.852 383.331 221.852ZM383.875 224.528C383.754 223.936 382.907 223.935 382.786 224.528L382.277 227.031C382.233 227.25 382.062 227.42 381.844 227.465L379.341 227.974C378.748 228.094 378.748 228.942 379.341 229.062L381.844 229.571C382.062 229.616 382.233 229.787 382.277 230.005L382.786 232.508C382.907 233.101 383.754 233.101 383.875 232.508L384.384 230.005C384.428 229.787 384.599 229.616 384.817 229.571L387.32 229.062C387.913 228.942 387.913 228.094 387.32 227.974L384.817 227.465C384.599 227.42 384.428 227.25 384.384 227.031L383.875 224.528Z" fill="#262626"/>
</g>
<path d="M280.93 89.6665C292.998 89.6665 302.782 99.4506 302.782 111.519C302.782 123.587 292.998 133.371 280.93 133.371C268.862 133.37 259.078 123.587 259.078 111.519C259.078 99.4507 268.861 89.6667 280.93 89.6665ZM280.806 95.2222C278.567 95.2222 276.433 95.6746 274.491 96.4917L276.455 99.8931L272.922 101.932L270.959 98.5327C267.552 101.12 265.194 105.019 264.637 109.476H268.566V113.555H264.636C265.191 118.012 267.547 121.909 270.951 124.498L272.916 121.096L276.449 123.136L274.481 126.542C276.426 127.362 278.563 127.815 280.806 127.815C283.045 127.815 285.178 127.362 287.12 126.545L285.157 123.145L288.69 121.105L290.652 124.503C294.061 121.915 296.421 118.015 296.977 113.555H293.045V109.476H296.976C296.418 105.02 294.062 101.124 290.657 98.5366L288.696 101.935L285.163 99.896L287.127 96.4937C285.183 95.675 283.047 95.2222 280.806 95.2222Z" fill="black"/>
<path d="M119.259 89.6665C131.327 89.6667 141.11 99.4507 141.11 111.519C141.11 123.587 131.327 133.37 119.259 133.371C107.19 133.371 97.4065 123.587 97.4062 111.519C97.4062 99.4506 107.19 89.6665 119.259 89.6665ZM119.132 95.2222C116.893 95.2222 114.759 95.6745 112.816 96.4917L114.78 99.8931L111.247 101.932L109.285 98.5327C105.878 101.12 103.519 105.018 102.962 109.476H106.892V113.555H102.962C103.517 118.011 105.872 121.909 109.276 124.498L111.241 121.096L114.774 123.136L112.807 126.542C114.751 127.362 116.889 127.815 119.132 127.815C121.371 127.815 123.504 127.362 125.445 126.545L123.483 123.145L127.016 121.105L128.978 124.503C132.386 121.915 134.746 118.015 135.302 113.555H131.371V109.476H135.301C134.744 105.02 132.387 101.124 128.982 98.5366L127.021 101.935L123.488 99.896L125.452 96.4937C123.509 95.6751 121.373 95.2222 119.132 95.2222Z" fill="black"/>
</g>
</g>
<defs>
<filter id="filter0_n_1411_113544" x="0" y="0" width="400" height="245.185" filterUnits="userSpaceOnUse" color-interpolation-filters="sRGB">
<feFlood flood-opacity="0" result="BackgroundImageFix"/>
<feBlend mode="normal" in="SourceGraphic" in2="BackgroundImageFix" result="shape"/>
<feTurbulence type="fractalNoise" baseFrequency="2.8783018589019775 2.8783018589019775" stitchTiles="stitch" numOctaves="3" result="noise" seed="8462" />
<feColorMatrix in="noise" type="luminanceToAlpha" result="alphaNoise" />
<feComponentTransfer in="alphaNoise" result="coloredNoise1">
<feFuncA type="discrete" tableValues="1 1 1 1 1 1 1 1 1 1 1 1 1 1 1 1 1 1 1 1 1 1 1 1 1 1 1 1 1 1 1 1 1 1 1 1 1 1 1 1 1 1 1 1 1 1 1 1 1 1 1 0 0 0 0 0 0 0 0 0 0 0 0 0 0 0 0 0 0 0 0 0 0 0 0 0 0 0 0 0 0 0 0 0 0 0 0 0 0 0 0 0 0 0 0 0 0 0 0 0 "/>
</feComponentTransfer>
<feComposite operator="in" in2="shape" in="coloredNoise1" result="noise1Clipped" />
<feFlood flood-color="rgba(0, 0, 0, 0.25)" result="color1Flood" />
<feComposite operator="in" in2="noise1Clipped" in="color1Flood" result="color1" />
<feMerge result="effect1_noise_1411_113544">
<feMergeNode in="shape" />
<feMergeNode in="color1" />
</feMerge>
</filter>
<linearGradient id="paint0_linear_1411_113544" x1="-44.3649" y1="-7.25225" x2="354.787" y2="320.372" gradientUnits="userSpaceOnUse">
<stop stop-color="#8D5D14"/>
<stop offset="0.512707" stop-color="#FFD060"/>
<stop offset="1" stop-color="#8D5D14"/>
</linearGradient>
<clipPath id="clip0_1411_113544">
<rect width="400" height="245.185" rx="16.6765" fill="white"/>
</clipPath>
<clipPath id="clip1_1411_113544">
<rect width="13.3333" height="13.3333" fill="white" transform="translate(193.332 194.074)"/>
</clipPath>
<clipPath id="clip2_1411_113544">
<rect width="13.3333" height="13.3333" fill="white" transform="translate(10 10)"/>
</clipPath>
<clipPath id="clip3_1411_113544">
<rect width="13.3333" height="13.3333" fill="white" transform="translate(10 221.852)"/>
</clipPath>
<clipPath id="clip4_1411_113544">
<rect width="13.3333" height="13.3333" fill="white" transform="translate(376.664 10)"/>
</clipPath>
<clipPath id="clip5_1411_113544">
<rect width="13.3333" height="13.3333" fill="white" transform="translate(376.664 221.852)"/>
</clipPath>
</defs>
</svg>
