<svg width="400" height="246" viewBox="0 0 400 246" fill="none" xmlns="http://www.w3.org/2000/svg">
<g filter="url(#filter0_n_1144_17395)">
<g clip-path="url(#clip0_1144_17395)">
<rect width="400" height="245.185" rx="16.6765" fill="white"/>
<g opacity="0.8">
<mask id="path-2-outside-1_1144_17395" maskUnits="userSpaceOnUse" x="-0.888672" y="-0.888916" width="401" height="247" fill="black">
<rect fill="white" x="-0.888672" y="-0.888916" width="401" height="247"/>
<path d="M382.593 1.11108C391.593 1.11108 398.889 8.40692 398.89 17.407V227.778C398.889 236.778 391.593 244.074 382.593 244.074H17.4082C8.40815 244.074 1.11157 236.778 1.11133 227.778V17.407C1.11148 8.40692 8.4081 1.11108 17.4082 1.11108H382.593ZM105.556 217.103C99.8284 217.103 95.1855 221.747 95.1855 227.474C95.1857 233.202 99.8285 237.844 105.556 237.844C111.283 237.844 115.926 233.202 115.926 227.474C115.926 221.747 111.283 217.103 105.556 217.103ZM294.579 217.103C288.852 217.103 284.209 221.747 284.209 227.474C284.209 233.202 288.852 237.844 294.579 237.844C300.306 237.844 304.949 233.202 304.949 227.474C304.949 221.747 300.306 217.103 294.579 217.103ZM138.889 217.103C137.661 217.103 136.666 218.099 136.666 219.326V228.956C136.666 230.183 137.661 231.177 138.889 231.177H148.519C149.746 231.177 150.74 230.183 150.74 228.956V219.326C150.74 218.099 149.746 217.103 148.519 217.103H138.889ZM251.616 217.103C250.389 217.103 249.395 218.099 249.395 219.326V228.956C249.395 230.183 250.389 231.177 251.616 231.177H261.246C262.473 231.177 263.469 230.183 263.469 228.956V219.326C263.469 218.099 262.473 217.103 261.246 217.103H251.616ZM119.259 89.6296C107.191 89.6297 97.4074 99.4129 97.4072 111.481C97.4072 123.55 107.19 133.334 119.259 133.334C131.327 133.334 141.11 123.55 141.11 111.481C141.11 99.4129 131.327 89.6296 119.259 89.6296ZM280.74 89.6296C268.672 89.6299 258.889 99.413 258.889 111.481C258.889 123.55 268.672 133.334 280.74 133.334C292.809 133.334 302.593 123.55 302.593 111.481C302.593 99.4129 292.809 89.6296 280.74 89.6296Z"/>
</mask>
<path d="M382.593 1.11108C391.593 1.11108 398.889 8.40692 398.89 17.407V227.778C398.889 236.778 391.593 244.074 382.593 244.074H17.4082C8.40815 244.074 1.11157 236.778 1.11133 227.778V17.407C1.11148 8.40692 8.4081 1.11108 17.4082 1.11108H382.593ZM105.556 217.103C99.8284 217.103 95.1855 221.747 95.1855 227.474C95.1857 233.202 99.8285 237.844 105.556 237.844C111.283 237.844 115.926 233.202 115.926 227.474C115.926 221.747 111.283 217.103 105.556 217.103ZM294.579 217.103C288.852 217.103 284.209 221.747 284.209 227.474C284.209 233.202 288.852 237.844 294.579 237.844C300.306 237.844 304.949 233.202 304.949 227.474C304.949 221.747 300.306 217.103 294.579 217.103ZM138.889 217.103C137.661 217.103 136.666 218.099 136.666 219.326V228.956C136.666 230.183 137.661 231.177 138.889 231.177H148.519C149.746 231.177 150.74 230.183 150.74 228.956V219.326C150.74 218.099 149.746 217.103 148.519 217.103H138.889ZM251.616 217.103C250.389 217.103 249.395 218.099 249.395 219.326V228.956C249.395 230.183 250.389 231.177 251.616 231.177H261.246C262.473 231.177 263.469 230.183 263.469 228.956V219.326C263.469 218.099 262.473 217.103 261.246 217.103H251.616ZM119.259 89.6296C107.191 89.6297 97.4074 99.4129 97.4072 111.481C97.4072 123.55 107.19 133.334 119.259 133.334C131.327 133.334 141.11 123.55 141.11 111.481C141.11 99.4129 131.327 89.6296 119.259 89.6296ZM280.74 89.6296C268.672 89.6299 258.889 99.413 258.889 111.481C258.889 123.55 268.672 133.334 280.74 133.334C292.809 133.334 302.593 123.55 302.593 111.481C302.593 99.4129 292.809 89.6296 280.74 89.6296Z" fill="#48BA86"/>
<path d="M398.89 17.407H400.001V17.407L398.89 17.407ZM398.89 227.778L400.001 227.778V227.778H398.89ZM1.11133 227.778H0.000216961V227.778L1.11133 227.778ZM1.11133 17.407L0.000216961 17.407V17.407H1.11133ZM105.556 217.103V215.992H105.556L105.556 217.103ZM95.1855 227.474H94.0744V227.474L95.1855 227.474ZM105.556 237.844L105.556 238.956H105.556V237.844ZM115.926 227.474L117.037 227.474V227.474H115.926ZM294.579 217.103V215.992H294.579L294.579 217.103ZM284.209 227.474H283.098V227.474L284.209 227.474ZM294.579 237.844L294.579 238.956H294.579V237.844ZM304.949 227.474L306.06 227.474V227.474H304.949ZM136.666 228.956H135.555V228.956L136.666 228.956ZM148.519 231.177V232.289H148.519L148.519 231.177ZM150.74 228.956L151.851 228.956V228.956H150.74ZM148.519 217.103L148.519 215.992H148.519V217.103ZM251.616 217.103V215.992H251.616L251.616 217.103ZM249.395 228.956H248.283V228.956L249.395 228.956ZM251.616 231.177L251.616 232.289H251.616V231.177ZM263.469 228.956L264.58 228.956V228.956H263.469ZM119.259 89.6296V88.5185H119.259L119.259 89.6296ZM97.4072 111.481L96.2961 111.481V111.481H97.4072ZM119.259 133.334L119.259 134.445H119.259V133.334ZM141.11 111.481H142.221V111.481L141.11 111.481ZM280.74 89.6296V88.5185H280.74L280.74 89.6296ZM258.889 111.481L257.778 111.481V111.481H258.889ZM280.74 133.334L280.74 134.445H280.74V133.334ZM302.593 111.481H303.704V111.481L302.593 111.481ZM382.593 1.11108V2.2222C390.979 2.2222 397.778 9.02064 397.779 17.407L398.89 17.407L400.001 17.407C400.001 7.7932 392.206 -2.71797e-05 382.593 -2.71797e-05V1.11108ZM398.89 17.407H397.779V227.778H398.89H400.001V17.407H398.89ZM398.89 227.778L397.779 227.778C397.778 236.164 390.979 242.963 382.593 242.963V244.074V245.185C392.206 245.185 400.001 237.392 400.001 227.778L398.89 227.778ZM382.593 244.074V242.963H17.4082V244.074V245.185H382.593V244.074ZM17.4082 244.074V242.963C9.02175 242.963 2.22266 236.164 2.22244 227.778L1.11133 227.778L0.000216961 227.778C0.000472546 237.392 7.79456 245.185 17.4082 245.185V244.074ZM1.11133 227.778H2.22244V17.407H1.11133H0.000216961V227.778H1.11133ZM1.11133 17.407L2.22244 17.407C2.22259 9.02064 9.02169 2.2222 17.4082 2.2222V1.11108V-2.71797e-05C7.79452 -2.71797e-05 0.00038445 7.7932 0.000216961 17.407L1.11133 17.407ZM17.4082 1.11108V2.2222H382.593V1.11108V-2.71797e-05H17.4082V1.11108ZM105.556 217.103L105.556 215.992C99.2146 215.992 94.0744 221.133 94.0744 227.474H95.1855H96.2967C96.2967 222.361 100.442 218.214 105.556 218.214L105.556 217.103ZM95.1855 227.474L94.0744 227.474C94.0747 233.815 99.2148 238.955 105.556 238.956L105.556 237.844L105.556 236.733C100.442 236.733 96.2968 232.588 96.2967 227.474L95.1855 227.474ZM105.556 237.844V238.956C111.897 238.956 117.037 233.815 117.037 227.474L115.926 227.474L114.815 227.474C114.814 232.588 110.669 236.733 105.556 236.733V237.844ZM115.926 227.474H117.037C117.037 221.133 111.897 215.992 105.556 215.992V217.103V218.214C110.669 218.214 114.815 222.36 114.815 227.474H115.926ZM294.579 217.103L294.579 215.992C288.238 215.992 283.098 221.133 283.098 227.474H284.209H285.32C285.32 222.361 289.466 218.214 294.579 218.214L294.579 217.103ZM284.209 227.474L283.098 227.474C283.098 233.815 288.238 238.956 294.579 238.956L294.579 237.844L294.579 236.733C289.466 236.733 285.32 232.588 285.32 227.474L284.209 227.474ZM294.579 237.844V238.956C300.92 238.956 306.06 233.815 306.06 227.474L304.949 227.474L303.838 227.474C303.838 232.588 299.693 236.733 294.579 236.733V237.844ZM304.949 227.474H306.06C306.06 221.133 300.92 215.992 294.579 215.992V217.103V218.214C299.693 218.214 303.838 222.36 303.838 227.474H304.949ZM138.889 217.103V215.992C137.048 215.992 135.555 217.485 135.555 219.326H136.666H137.777C137.777 218.712 138.275 218.214 138.889 218.214V217.103ZM136.666 219.326H135.555V228.956H136.666H137.777V219.326H136.666ZM136.666 228.956L135.555 228.956C135.555 230.797 137.048 232.289 138.889 232.289V231.177V230.066C138.275 230.066 137.777 229.569 137.777 228.956L136.666 228.956ZM138.889 231.177V232.289H148.519V231.177V230.066H138.889V231.177ZM148.519 231.177L148.519 232.289C150.359 232.288 151.851 230.797 151.851 228.956L150.74 228.956L149.629 228.956C149.629 229.569 149.132 230.066 148.518 230.066L148.519 231.177ZM150.74 228.956H151.851V219.326H150.74H149.629V228.956H150.74ZM150.74 219.326H151.851C151.851 217.486 150.36 215.992 148.519 215.992L148.519 217.103L148.518 218.214C149.132 218.214 149.629 218.712 149.629 219.326H150.74ZM148.519 217.103V215.992H138.889V217.103V218.214H148.519V217.103ZM251.616 217.103L251.616 215.992C249.775 215.992 248.283 217.486 248.283 219.326H249.395H250.506C250.506 218.712 251.003 218.214 251.616 218.214L251.616 217.103ZM249.395 219.326H248.283V228.956H249.395H250.506V219.326H249.395ZM249.395 228.956L248.283 228.956C248.284 230.797 249.775 232.288 251.616 232.289L251.616 231.177L251.616 230.066C251.003 230.066 250.506 229.569 250.506 228.956L249.395 228.956ZM251.616 231.177V232.289H261.246V231.177V230.066H251.616V231.177ZM261.246 231.177V232.289C263.086 232.289 264.58 230.797 264.58 228.956L263.469 228.956L262.358 228.956C262.358 229.569 261.86 230.066 261.246 230.066V231.177ZM263.469 228.956H264.58V219.326H263.469H262.358V228.956H263.469ZM263.469 219.326H264.58C264.58 217.485 263.087 215.992 261.246 215.992V217.103V218.214C261.86 218.214 262.358 218.712 262.358 219.326H263.469ZM261.246 217.103V215.992H251.616V217.103V218.214H261.246V217.103ZM119.259 89.6296L119.259 88.5185C106.577 88.5186 96.2963 98.7993 96.2961 111.481L97.4072 111.481L98.5183 111.481C98.5185 100.027 107.804 90.7408 119.259 90.7408L119.259 89.6296ZM97.4072 111.481H96.2961C96.2961 124.163 106.577 134.445 119.259 134.445L119.259 133.334L119.259 132.223C107.804 132.223 98.5183 122.936 98.5183 111.481H97.4072ZM119.259 133.334V134.445C131.941 134.445 142.221 124.163 142.221 111.481H141.11H139.999C139.999 122.936 130.714 132.223 119.259 132.223V133.334ZM141.11 111.481L142.221 111.481C142.221 98.7992 131.941 88.5185 119.259 88.5185V89.6296V90.7408C130.713 90.7408 139.999 100.027 139.999 111.481L141.11 111.481ZM280.74 89.6296L280.74 88.5185C268.058 88.5188 257.778 98.7994 257.778 111.481L258.889 111.481L260 111.481C260 100.027 269.286 90.741 280.74 90.7408L280.74 89.6296ZM258.889 111.481H257.778C257.778 124.163 268.058 134.445 280.74 134.445L280.74 133.334L280.74 132.223C269.286 132.222 260 122.936 260 111.481H258.889ZM280.74 133.334V134.445C293.422 134.445 303.704 124.163 303.704 111.481H302.593H301.482C301.482 122.936 292.195 132.223 280.74 132.223V133.334ZM302.593 111.481L303.704 111.481C303.704 98.7992 293.422 88.5185 280.74 88.5185V89.6296V90.7408C292.195 90.7408 301.482 100.027 301.482 111.481L302.593 111.481Z" fill="#202020" mask="url(#path-2-outside-1_1144_17395)"/>
</g>
<path d="M280.369 83.7037C295.71 83.7037 308.147 96.1408 308.147 111.482C308.147 126.823 295.71 139.259 280.369 139.259C265.028 139.259 252.592 126.823 252.592 111.482C252.592 96.1409 265.028 83.7039 280.369 83.7037ZM280.74 88.5182C268.058 88.5182 257.778 98.7992 257.777 111.481C257.777 124.163 268.058 134.445 280.74 134.445C293.422 134.445 303.703 124.163 303.703 111.481C303.703 98.7992 293.422 88.5182 280.74 88.5182Z" fill="#202020"/>
<path d="M46.8505 101.111C42.9842 131.762 27.9386 204.764 31.8504 228.333M43.332 237.963C69.0728 238.333 353.888 237.963 356.665 237.963M303.147 95.926C316.26 115.359 358.452 193.064 367.943 223.333" stroke="#202020" stroke-width="0.37037"/>
<path d="M43.0957 214.161C49.6413 214.161 54.9473 219.467 54.9473 226.013C54.9473 232.558 49.6413 237.864 43.0957 237.864C36.5502 237.864 31.2441 232.558 31.2441 226.013C31.2441 219.467 36.5502 214.161 43.0957 214.161ZM43.0957 221.025C40.3398 221.025 38.1055 223.259 38.1055 226.015C38.1056 228.771 40.3398 231.005 43.0957 231.005C45.8517 231.005 48.0858 228.771 48.0859 226.015C48.0859 223.259 45.8517 221.025 43.0957 221.025Z" fill="#202020"/>
<path d="M356.431 214.161C362.976 214.161 368.282 219.467 368.282 226.013C368.282 232.558 362.976 237.864 356.431 237.864C349.885 237.864 344.578 232.558 344.578 226.013C344.578 219.467 349.885 214.161 356.431 214.161ZM356.431 221.025C353.675 221.025 351.44 223.259 351.44 226.015C351.441 228.771 353.675 231.005 356.431 231.005C359.187 231.005 361.421 228.771 361.421 226.015C361.421 223.259 359.187 221.025 356.431 221.025Z" fill="#202020"/>
<path d="M90.1396 189.815H312.813C317.976 189.815 322.482 193.316 323.759 198.318L335.579 244.63H64.8262L79.3496 197.767C80.8151 193.038 85.189 189.815 90.1396 189.815Z" stroke="#202020" stroke-width="1.11111"/>
<circle cx="105.554" cy="227.494" r="9.81481" stroke="#202020" stroke-width="1.11111"/>
<circle cx="294.577" cy="227.494" r="9.81481" stroke="#202020" stroke-width="1.11111"/>
<rect x="137.222" y="217.679" width="12.963" height="12.963" rx="1.66667" stroke="#202020" stroke-width="1.11111"/>
<path d="M192.961 231.198C192.961 229.971 193.956 228.976 195.183 228.976H204.813C206.04 228.976 207.035 229.971 207.035 231.198V237.864H192.961V231.198Z" fill="#202020"/>
<rect x="249.948" y="217.679" width="12.963" height="12.963" rx="1.66667" stroke="#202020" stroke-width="1.11111"/>
<g clip-path="url(#clip1_1144_17395)">
<path d="M199.88 193.791C203.562 193.791 206.547 196.776 206.547 200.458C206.547 204.139 203.562 207.124 199.88 207.124C196.198 207.124 193.213 204.139 193.213 200.458C193.213 196.776 196.198 193.791 199.88 193.791ZM200.425 196.467C200.304 195.874 199.457 195.874 199.336 196.467L198.826 198.97C198.782 199.189 198.611 199.359 198.393 199.404L195.891 199.913C195.298 200.033 195.298 200.881 195.891 201.001L198.393 201.51C198.611 201.555 198.782 201.726 198.826 201.944L199.336 204.447C199.457 205.04 200.304 205.04 200.425 204.447L200.934 201.944C200.978 201.726 201.149 201.555 201.367 201.51L203.869 201.001C204.462 200.881 204.462 200.033 203.869 199.913L201.367 199.404C201.149 199.359 200.978 199.189 200.934 198.97L200.425 196.467Z" fill="#202020"/>
</g>
<g clip-path="url(#clip2_1144_17395)">
<path d="M16.665 10.0001C20.3469 10.0001 23.332 12.9852 23.332 16.6671C23.3318 20.3488 20.3468 23.3331 16.665 23.3331C12.9833 23.3331 9.99825 20.3488 9.99805 16.6671C9.99805 12.9852 12.9832 10.0001 16.665 10.0001ZM17.21 12.6769C17.0893 12.0839 16.2419 12.084 16.1211 12.6769L15.6113 15.1798C15.5668 15.3982 15.3962 15.569 15.1777 15.6134L12.6758 16.1222C12.0827 16.2428 12.0827 17.0904 12.6758 17.2111L15.1777 17.7198C15.3961 17.7643 15.5668 17.9351 15.6113 18.1534L16.1211 20.6564C16.2418 21.2494 17.0893 21.2495 17.21 20.6564L17.7188 18.1534C17.7633 17.9351 17.934 17.7643 18.1523 17.7198L20.6543 17.2111C21.2474 17.0904 21.2474 16.2428 20.6543 16.1222L18.1523 15.6134C17.9339 15.569 17.7632 15.3982 17.7188 15.1798L17.21 12.6769Z" fill="#202020"/>
</g>
<g clip-path="url(#clip3_1144_17395)">
<path d="M16.665 221.568C20.3469 221.568 23.332 224.554 23.332 228.235C23.3319 231.917 20.3468 234.901 16.665 234.901C12.9833 234.901 9.99823 231.917 9.99805 228.235C9.99805 224.554 12.9832 221.569 16.665 221.568ZM17.21 224.245C17.0893 223.652 16.2419 223.652 16.1211 224.245L15.6113 226.748C15.5668 226.967 15.3962 227.137 15.1777 227.182L12.6758 227.691C12.0827 227.811 12.0827 228.659 12.6758 228.779L15.1777 229.288C15.3961 229.333 15.5667 229.504 15.6113 229.722L16.1211 232.225C16.2417 232.818 17.0893 232.818 17.21 232.225L17.7188 229.722C17.7633 229.504 17.934 229.333 18.1523 229.288L20.6543 228.779C21.2474 228.659 21.2474 227.811 20.6543 227.691L18.1523 227.182C17.9339 227.137 17.7632 226.967 17.7188 226.748L17.21 224.245Z" fill="#202020"/>
</g>
<g clip-path="url(#clip4_1144_17395)">
<path d="M383.098 10.0001C386.78 10.0001 389.765 12.9852 389.765 16.6671C389.764 20.3489 386.779 23.3331 383.098 23.3331C379.416 23.3329 376.432 20.3487 376.432 16.6671C376.432 12.9854 379.416 10.0004 383.098 10.0001ZM383.643 12.6769C383.522 12.0841 382.675 12.0841 382.554 12.6769L382.045 15.1798C382.001 15.3982 381.83 15.5689 381.611 15.6134L379.108 16.1222C378.515 16.2428 378.515 17.0904 379.108 17.2111L381.611 17.7198C381.83 17.7643 382 17.9352 382.045 18.1534L382.554 20.6564C382.674 21.2495 383.522 21.2495 383.643 20.6564L384.151 18.1534C384.196 17.9352 384.367 17.7643 384.585 17.7198L387.088 17.2111C387.681 17.0903 387.681 16.2429 387.088 16.1222L384.585 15.6134C384.367 15.5689 384.196 15.3982 384.151 15.1798L383.643 12.6769Z" fill="#202020"/>
</g>
<g clip-path="url(#clip5_1144_17395)">
<path d="M383.098 221.568C386.78 221.568 389.765 224.554 389.765 228.235C389.764 231.917 386.779 234.901 383.098 234.901C379.416 234.901 376.432 231.917 376.432 228.235C376.432 224.554 379.416 221.569 383.098 221.568ZM383.643 224.245C383.522 223.652 382.674 223.652 382.554 224.245L382.045 226.748C382 226.967 381.83 227.137 381.611 227.182L379.108 227.691C378.515 227.811 378.515 228.659 379.108 228.779L381.611 229.288C381.83 229.333 382 229.504 382.045 229.722L382.554 232.225C382.674 232.818 383.522 232.818 383.643 232.225L384.151 229.722C384.196 229.504 384.367 229.333 384.585 229.288L387.088 228.779C387.681 228.659 387.681 227.811 387.088 227.691L384.585 227.182C384.367 227.137 384.196 226.967 384.151 226.748L383.643 224.245Z" fill="#202020"/>
</g>
<path d="M280.789 89.3247C292.857 89.3247 302.64 99.108 302.641 111.176C302.641 123.245 292.858 133.029 280.789 133.029C268.721 133.029 258.938 123.245 258.938 111.176C258.938 99.108 268.721 89.3247 280.789 89.3247ZM280.663 94.8804C278.424 94.8805 276.29 95.3317 274.348 96.1489L276.312 99.5513L272.779 101.59L270.816 98.1909C267.409 100.779 265.051 104.677 264.494 109.134H268.424V113.213H264.493C265.049 117.67 267.404 121.567 270.809 124.156L272.773 120.754L276.307 122.794L274.34 126.2C276.284 127.019 278.421 127.473 280.663 127.473C282.902 127.473 285.036 127.021 286.978 126.204L285.015 122.803L288.548 120.763L290.51 124.162C293.919 121.573 296.278 117.673 296.834 113.213H292.902V109.134H296.833C296.276 104.679 293.92 100.783 290.515 98.1948L288.554 101.593L285.021 99.5542L286.984 96.1509C285.041 95.3323 282.904 94.8804 280.663 94.8804Z" fill="#202020"/>
<path d="M119.261 89.3247C131.329 89.3248 141.112 99.108 141.112 111.176C141.112 123.245 131.329 133.028 119.261 133.028C107.192 133.028 97.4082 123.245 97.4082 111.176C97.4083 99.1079 107.192 89.3247 119.261 89.3247ZM119.134 94.8804C116.895 94.8804 114.761 95.3311 112.819 96.1479L114.784 99.5513L111.251 101.59L109.288 98.1899C105.88 100.778 103.522 104.676 102.965 109.134H106.896V113.213H102.964C103.52 117.67 105.875 121.568 109.28 124.157L111.245 120.754L114.778 122.794L112.812 126.201C114.756 127.02 116.892 127.473 119.134 127.473C121.373 127.473 123.507 127.02 125.449 126.203L123.486 122.803L127.02 120.763L128.981 124.161C132.389 121.572 134.748 117.673 135.304 113.213H131.374V109.134H135.303C134.746 104.679 132.39 100.784 128.986 98.1958L127.025 101.593L123.492 99.5542L125.456 96.1519C123.512 95.3329 121.376 94.8804 119.134 94.8804Z" fill="#202020"/>
<g clip-path="url(#clip6_1144_17395)" filter="url(#filter1_n_1144_17395)">
<path d="M195.268 12.3789L155.363 35.4641C152.454 37.1457 150.666 40.253 150.666 43.6162V89.7867C150.666 93.1499 152.454 96.2571 155.363 97.9387L195.268 121.024C198.178 122.706 201.754 122.706 204.663 121.024L244.568 97.9387C247.478 96.2571 249.266 93.1499 249.266 89.7867V43.6162C249.266 40.253 247.478 37.1457 244.568 35.4641L204.672 12.3789C201.763 10.6973 198.178 10.6973 195.268 12.3789Z" fill="#FAFBFB"/>
<path d="M242.769 91.4683V41.9437L199.964 17.1769L157.158 41.9437V91.4683L199.964 116.226L242.769 91.4683Z" fill="#2C2C2C" stroke="#48BA86" stroke-width="0.4798" stroke-miterlimit="10"/>
<path d="M200.021 31.3058L169.447 48.9899V49.1452L200.021 66.6922V31.3058Z" fill="#D3EBE0"/>
<path d="M200.02 66.6924V102.079L200.047 102.088L230.639 84.3856V84.2577L200.02 66.6924Z" fill="#5EBF94"/>
<path d="M200.021 66.6923L169.447 49.1453V84.3672L200.021 66.6923Z" fill="#48BA86"/>
<path d="M169.447 84.3673V84.3856L200.021 102.079V66.6924L169.447 84.3673Z" fill="#ADDBC8"/>
<path d="M230.658 48.9809L200.02 66.7107V31.2877L230.658 48.9809Z" fill="#86CCAC"/>
</g>
<path d="M53.4829 180.796C43.074 180.796 35.4375 173.159 35.3889 162.994C35.4375 152.877 42.9767 145.289 53.2397 145.289C64.4755 145.289 68.9503 151.369 69.4854 157.789H62.238C61.5084 155.455 60.2925 152.342 53.3856 152.342C47.5002 152.342 42.6848 155.746 42.6848 163.042C42.6848 170.29 47.4516 173.743 53.2883 173.743C60.6329 173.743 61.9948 170.63 62.7244 168.247H69.9718C69.0963 176.126 64.2809 180.796 53.4829 180.796ZM73.7767 167.906C73.7767 159.881 79.3703 155.017 88.0768 155.017C96.7833 155.017 102.377 160.319 102.377 167.906C102.377 175.543 96.7833 180.845 88.0768 180.845C79.3703 180.845 73.7767 175.932 73.7767 167.906ZM81.0727 167.906C81.0727 171.408 82.8723 174.278 88.0768 174.278C93.2326 174.278 95.0809 171.408 95.0809 167.906C95.0809 164.404 93.2326 161.583 88.0768 161.583C82.8723 161.583 81.0727 164.404 81.0727 167.906ZM125.655 157.643V144.802L132.464 144.754V180.018L125.655 180.066V178.315C125.655 176.856 126.53 175.154 126.968 173.792L125.849 173.403C125.363 174.765 125.168 176.807 124.196 177.829C122.396 179.726 119.915 180.845 116.656 180.845C109.361 180.845 104.253 175.154 104.497 167.955C104.691 161.048 109.701 155.017 116.608 155.017C119.867 155.017 122.347 156.33 124.147 158.178C125.168 159.2 125.363 161.194 125.849 162.556L127.017 162.167C126.53 160.805 125.655 159.103 125.655 157.643ZM117.727 174.521C121.812 174.521 124.196 171.798 124.196 168.101C124.196 164.404 121.812 161.34 117.727 161.34C113.641 161.34 111.306 164.404 111.306 168.101C111.306 171.798 113.641 174.521 117.727 174.521ZM152.035 180.845C141.724 180.845 136.179 175.008 136.179 167.76C136.179 160.513 142.21 155.017 150.771 155.017C159.623 155.017 165.071 160.999 165.022 167.76C165.022 168.295 165.071 169.463 165.022 169.852H144.545C144.545 172.235 146.734 175.154 151.355 175.154C154.322 175.154 156.17 174.035 156.656 173.111H164.487C163.758 175.64 160.012 180.845 152.035 180.845ZM144.545 165.62H156.997C156.997 162.507 154.711 160.221 150.965 160.221C147.171 160.221 144.545 162.799 144.545 165.62ZM179.543 171.214C178.57 172.187 176.77 172.673 175.457 173.208L175.895 174.327C177.208 173.792 178.813 172.868 180.224 172.868H192.821V180.066H167.918V173.354C167.918 173.354 172.198 168.928 179.397 162.41C186.887 155.649 183.677 152.39 180.467 152.39C176.673 152.39 175.895 156.719 175.895 158.665H168.599C168.599 153.704 172.004 145.289 182.899 145.289C191.314 145.289 195.594 154.774 190.146 160.416C186.158 164.647 181.877 168.928 179.543 171.214ZM214.602 180.796C204.193 180.796 196.557 173.159 196.508 162.994C196.557 152.877 204.096 145.289 214.359 145.289C225.595 145.289 230.07 151.369 230.605 157.789H223.357C222.628 155.455 221.412 152.342 214.505 152.342C208.619 152.342 203.804 155.746 203.804 163.042C203.804 170.29 208.571 173.743 214.408 173.743C221.752 173.743 223.114 170.63 223.844 168.247H231.091C230.216 176.126 225.4 180.796 214.602 180.796ZM245.013 157.254C247.688 155.406 250.607 155.017 255.13 155.017V161.34C248.904 161.34 242.338 163.577 242.338 170.338V180.066H235.528V155.746H242.338V156.038C242.338 158.178 241.219 160.659 240.344 162.605L241.414 163.091C242.289 161.145 243.262 158.47 245.013 157.254ZM273.445 180.845C263.133 180.845 257.588 175.008 257.588 167.76C257.588 160.513 263.62 155.017 272.18 155.017C281.033 155.017 286.48 160.999 286.432 167.76C286.432 168.295 286.48 169.463 286.432 169.852H265.954C265.954 172.235 268.143 175.154 272.764 175.154C275.731 175.154 277.579 174.035 278.066 173.111H285.897C285.167 175.64 281.422 180.845 273.445 180.845ZM265.954 165.62H278.406C278.406 162.507 276.12 160.221 272.375 160.221C268.581 160.221 265.954 162.799 265.954 165.62ZM307.451 177.634C305.7 179.629 303.219 180.845 299.96 180.845C292.81 180.845 287.703 175.008 287.703 167.76C287.703 160.513 292.81 155.017 299.96 155.017C303.171 155.017 305.651 156.136 307.402 158.032C308.424 159.103 308.57 161.097 309.007 162.507L310.175 162.118C309.737 160.756 308.862 159.054 308.862 157.595V155.746H315.671V180.066H308.862V178.072C308.862 176.613 309.737 174.862 310.126 173.5L309.007 173.111C308.57 174.521 308.424 176.516 307.451 177.634ZM294.513 167.76C294.513 171.408 297.042 174.521 300.447 174.521C303.852 174.521 306.43 171.408 306.478 167.76C306.478 164.064 304.387 161.34 300.447 161.34C297.042 161.34 294.513 164.064 294.513 167.76ZM324.444 171.117V161.583H319.58V155.746H324.444V146.018H331.254V155.746H337.577V161.583H331.254V171.117C331.254 173.159 332.178 173.743 334.464 173.743H337.334V180.066H330.767C325.757 180.066 324.444 175.154 324.444 171.117ZM356.142 180.845C345.83 180.845 340.286 175.008 340.286 167.76C340.286 160.513 346.317 155.017 354.877 155.017C363.73 155.017 369.178 160.999 369.129 167.76C369.129 168.295 369.178 169.463 369.129 169.852H348.652C348.652 172.235 350.84 175.154 355.461 175.154C358.428 175.154 360.276 174.035 360.763 173.111H368.594C367.864 175.64 364.119 180.845 356.142 180.845ZM348.652 165.62H361.103C361.103 162.507 358.817 160.221 355.072 160.221C351.278 160.221 348.652 162.799 348.652 165.62Z" fill="#1E1E1E"/>
</g>
</g>
<defs>
<filter id="filter0_n_1144_17395" x="0" y="0" width="400" height="245.185" filterUnits="userSpaceOnUse" color-interpolation-filters="sRGB">
<feFlood flood-opacity="0" result="BackgroundImageFix"/>
<feBlend mode="normal" in="SourceGraphic" in2="BackgroundImageFix" result="shape"/>
<feTurbulence type="fractalNoise" baseFrequency="2.8783018589019775 2.8783018589019775" stitchTiles="stitch" numOctaves="3" result="noise" seed="8462" />
<feColorMatrix in="noise" type="luminanceToAlpha" result="alphaNoise" />
<feComponentTransfer in="alphaNoise" result="coloredNoise1">
<feFuncA type="discrete" tableValues="1 1 1 1 1 1 1 1 1 1 1 1 1 1 1 1 1 1 1 1 1 1 1 1 1 1 1 1 1 1 1 1 1 1 1 1 1 1 1 1 1 1 1 1 1 1 1 1 1 1 1 0 0 0 0 0 0 0 0 0 0 0 0 0 0 0 0 0 0 0 0 0 0 0 0 0 0 0 0 0 0 0 0 0 0 0 0 0 0 0 0 0 0 0 0 0 0 0 0 0 "/>
</feComponentTransfer>
<feComposite operator="in" in2="shape" in="coloredNoise1" result="noise1Clipped" />
<feFlood flood-color="rgba(0, 0, 0, 0.25)" result="color1Flood" />
<feComposite operator="in" in2="noise1Clipped" in="color1Flood" result="color1" />
<feMerge result="effect1_noise_1144_17395">
<feMergeNode in="shape" />
<feMergeNode in="color1" />
</feMerge>
</filter>
<filter id="filter1_n_1144_17395" x="150.666" y="11.1177" width="98.6094" height="111.177" filterUnits="userSpaceOnUse" color-interpolation-filters="sRGB">
<feFlood flood-opacity="0" result="BackgroundImageFix"/>
<feBlend mode="normal" in="SourceGraphic" in2="BackgroundImageFix" result="shape"/>
<feTurbulence type="fractalNoise" baseFrequency="1.1333314180374146 1.1333314180374146" stitchTiles="stitch" numOctaves="3" result="noise" seed="1840" />
<feColorMatrix in="noise" type="luminanceToAlpha" result="alphaNoise" />
<feComponentTransfer in="alphaNoise" result="coloredNoise1">
<feFuncA type="discrete" tableValues="1 1 1 1 1 1 1 1 1 1 1 1 1 1 1 1 1 1 1 1 1 1 1 1 1 1 1 1 1 1 1 1 1 1 1 1 1 1 1 1 1 1 1 1 1 1 1 1 1 1 1 0 0 0 0 0 0 0 0 0 0 0 0 0 0 0 0 0 0 0 0 0 0 0 0 0 0 0 0 0 0 0 0 0 0 0 0 0 0 0 0 0 0 0 0 0 0 0 0 0 "/>
</feComponentTransfer>
<feComposite operator="in" in2="shape" in="coloredNoise1" result="noise1Clipped" />
<feComponentTransfer in="alphaNoise" result="coloredNoise2">
<feFuncA type="discrete" tableValues="0 0 0 0 0 0 0 0 0 0 0 0 0 0 0 0 0 0 0 0 0 0 0 0 0 0 0 0 0 0 0 0 0 0 0 0 0 0 0 0 0 0 0 0 0 0 0 0 0 1 1 1 1 1 1 1 1 1 1 1 1 1 1 1 1 1 1 1 1 1 1 1 1 1 1 1 1 1 1 1 1 1 1 1 1 1 1 1 1 1 1 1 1 1 1 1 1 1 1 1 "/>
</feComponentTransfer>
<feComposite operator="in" in2="shape" in="coloredNoise2" result="noise2Clipped" />
<feFlood flood-color="rgba(0, 0, 0, 0.25)" result="color1Flood" />
<feComposite operator="in" in2="noise1Clipped" in="color1Flood" result="color1" />
<feFlood flood-color="rgba(255, 255, 255, 0.25)" result="color2Flood" />
<feComposite operator="in" in2="noise2Clipped" in="color2Flood" result="color2" />
<feMerge result="effect1_noise_1144_17395">
<feMergeNode in="shape" />
<feMergeNode in="color1" />
<feMergeNode in="color2" />
</feMerge>
</filter>
<clipPath id="clip0_1144_17395">
<rect width="400" height="245.185" rx="16.6765" fill="white"/>
</clipPath>
<clipPath id="clip1_1144_17395">
<rect width="13.3333" height="13.3333" fill="white" transform="translate(193.215 193.791)"/>
</clipPath>
<clipPath id="clip2_1144_17395">
<rect width="13.3333" height="13.3333" fill="white" transform="translate(10 10.0001)"/>
</clipPath>
<clipPath id="clip3_1144_17395">
<rect width="13.3333" height="13.3333" fill="white" transform="translate(10 221.568)"/>
</clipPath>
<clipPath id="clip4_1144_17395">
<rect width="13.3333" height="13.3333" fill="white" transform="translate(376.43 10.0001)"/>
</clipPath>
<clipPath id="clip5_1144_17395">
<rect width="13.3333" height="13.3333" fill="white" transform="translate(376.43 221.568)"/>
</clipPath>
<clipPath id="clip6_1144_17395">
<rect width="98.6089" height="111.177" fill="white" transform="translate(150.666 11.1177)"/>
</clipPath>
</defs>
</svg>
