<svg width="400" height="246" viewBox="0 0 400 246" fill="none" xmlns="http://www.w3.org/2000/svg">
<g clip-path="url(#clip0_1411_113491)" filter="url(#filter0_n_1411_113491)">
<g opacity="0.8">
<mask id="path-1-outside-1_1411_113491" maskUnits="userSpaceOnUse" x="-0.886719" y="-0.888672" width="401" height="247" fill="black">
<rect fill="white" x="-0.886719" y="-0.888672" width="401" height="247"/>
<path d="M382.595 1.11133C391.595 1.11133 398.891 8.40716 398.892 17.4072V227.778C398.891 236.778 391.595 244.074 382.595 244.074H17.4102C8.41011 244.074 1.11352 236.778 1.11328 227.778V17.4072C1.11344 8.40716 8.41006 1.11133 17.4102 1.11133H382.595ZM105.558 217.387C99.8304 217.387 95.1875 222.031 95.1875 227.758C95.1877 233.485 99.8305 238.128 105.558 238.128C111.285 238.128 115.929 233.485 115.929 227.758C115.929 222.03 111.285 217.387 105.558 217.387ZM294.817 217.387C289.09 217.387 284.447 222.03 284.447 227.758C284.447 233.485 289.09 238.128 294.817 238.128C300.545 238.128 305.187 233.485 305.188 227.758C305.188 222.03 300.545 217.387 294.817 217.387ZM138.891 217.387C137.663 217.387 136.669 218.382 136.669 219.609V229.239C136.669 230.466 137.664 231.461 138.891 231.461H148.521C149.748 231.461 150.742 230.466 150.742 229.239V219.609C150.742 218.382 149.748 217.387 148.521 217.387H138.891ZM251.854 217.387C250.627 217.387 249.633 218.382 249.633 219.609V229.239C249.633 230.466 250.627 231.461 251.854 231.461H261.484C262.712 231.461 263.707 230.466 263.707 229.239V219.609C263.707 218.382 262.712 217.387 261.484 217.387H251.854ZM119.261 89.6299C107.192 89.6301 97.4092 99.4132 97.4092 111.481C97.4092 123.55 107.192 133.333 119.261 133.333C131.329 133.333 141.113 123.55 141.113 111.481C141.113 99.413 131.329 89.6299 119.261 89.6299ZM280.743 89.6299C268.675 89.6299 258.891 99.413 258.891 111.481C258.891 123.55 268.675 133.333 280.743 133.333C292.811 133.333 302.595 123.55 302.595 111.481C302.595 99.4131 292.811 89.6301 280.743 89.6299Z"/>
</mask>
<path d="M382.595 1.11133C391.595 1.11133 398.891 8.40716 398.892 17.4072V227.778C398.891 236.778 391.595 244.074 382.595 244.074H17.4102C8.41011 244.074 1.11352 236.778 1.11328 227.778V17.4072C1.11344 8.40716 8.41006 1.11133 17.4102 1.11133H382.595ZM105.558 217.387C99.8304 217.387 95.1875 222.031 95.1875 227.758C95.1877 233.485 99.8305 238.128 105.558 238.128C111.285 238.128 115.929 233.485 115.929 227.758C115.929 222.03 111.285 217.387 105.558 217.387ZM294.817 217.387C289.09 217.387 284.447 222.03 284.447 227.758C284.447 233.485 289.09 238.128 294.817 238.128C300.545 238.128 305.187 233.485 305.188 227.758C305.188 222.03 300.545 217.387 294.817 217.387ZM138.891 217.387C137.663 217.387 136.669 218.382 136.669 219.609V229.239C136.669 230.466 137.664 231.461 138.891 231.461H148.521C149.748 231.461 150.742 230.466 150.742 229.239V219.609C150.742 218.382 149.748 217.387 148.521 217.387H138.891ZM251.854 217.387C250.627 217.387 249.633 218.382 249.633 219.609V229.239C249.633 230.466 250.627 231.461 251.854 231.461H261.484C262.712 231.461 263.707 230.466 263.707 229.239V219.609C263.707 218.382 262.712 217.387 261.484 217.387H251.854ZM119.261 89.6299C107.192 89.6301 97.4092 99.4132 97.4092 111.481C97.4092 123.55 107.192 133.333 119.261 133.333C131.329 133.333 141.113 123.55 141.113 111.481C141.113 99.413 131.329 89.6299 119.261 89.6299ZM280.743 89.6299C268.675 89.6299 258.891 99.413 258.891 111.481C258.891 123.55 268.675 133.333 280.743 133.333C292.811 133.333 302.595 123.55 302.595 111.481C302.595 99.4131 292.811 89.6301 280.743 89.6299Z" fill="white"/>
<path d="M398.892 17.4072H400.003V17.4072L398.892 17.4072ZM398.892 227.778L400.003 227.778V227.778H398.892ZM1.11328 227.778H0.00217009V227.778L1.11328 227.778ZM1.11328 17.4072L0.00217009 17.4072V17.4072H1.11328ZM105.558 217.387V216.276H105.558L105.558 217.387ZM95.1875 227.758H94.0764V227.758L95.1875 227.758ZM105.558 238.128L105.558 239.239H105.558V238.128ZM115.929 227.758L117.04 227.758V227.758H115.929ZM294.817 217.387V216.276H294.817L294.817 217.387ZM284.447 227.758H283.336V227.758L284.447 227.758ZM294.817 238.128L294.817 239.239H294.817V238.128ZM305.188 227.758L306.299 227.758V227.758H305.188ZM138.891 217.387V216.276H138.891L138.891 217.387ZM136.669 229.239H135.558V229.239L136.669 229.239ZM138.891 231.461L138.891 232.572H138.891V231.461ZM148.521 231.461V232.572H148.521L148.521 231.461ZM150.742 229.239L151.853 229.239V229.239H150.742ZM148.521 217.387L148.521 216.276H148.521V217.387ZM251.854 217.387V216.276H251.854L251.854 217.387ZM249.633 229.239H248.522V229.239L249.633 229.239ZM251.854 231.461L251.854 232.572H251.854V231.461ZM263.707 229.239L264.818 229.239V229.239H263.707ZM119.261 89.6299V88.5188H119.261L119.261 89.6299ZM97.4092 111.481H96.2981H97.4092ZM119.261 133.333L119.261 134.444H119.261V133.333ZM141.113 111.481H142.224H141.113ZM280.743 89.6299L280.743 88.5188H280.743V89.6299ZM258.891 111.481H257.78H258.891ZM280.743 133.333V134.444H280.743L280.743 133.333ZM302.595 111.481H303.706H302.595ZM382.595 1.11133V2.22244C390.981 2.22244 397.78 9.02089 397.78 17.4072L398.892 17.4072L400.003 17.4072C400.003 7.79344 392.208 0.000216961 382.595 0.000216961V1.11133ZM398.892 17.4072H397.78V227.778H398.892H400.003V17.4072H398.892ZM398.892 227.778L397.78 227.778C397.78 236.165 390.981 242.963 382.595 242.963V244.074V245.185C392.208 245.185 400.002 237.392 400.003 227.778L398.892 227.778ZM382.595 244.074V242.963H17.4102V244.074V245.185H382.595V244.074ZM17.4102 244.074V242.963C9.0237 242.963 2.22462 236.165 2.22439 227.778L1.11328 227.778L0.00217009 227.778C0.00242567 237.392 7.79652 245.185 17.4102 245.185V244.074ZM1.11328 227.778H2.22439V17.4072H1.11328H0.00217009V227.778H1.11328ZM1.11328 17.4072L2.22439 17.4072C2.22454 9.02089 9.02364 2.22244 17.4102 2.22244V1.11133V0.000216961C7.79647 0.000216961 0.00233757 7.79344 0.00217009 17.4072L1.11328 17.4072ZM17.4102 1.11133V2.22244H382.595V1.11133V0.000216961H17.4102V1.11133ZM105.558 217.387L105.558 216.276C99.2167 216.276 94.0764 221.417 94.0764 227.758H95.1875H96.2986C96.2986 222.644 100.444 218.498 105.558 218.498L105.558 217.387ZM95.1875 227.758L94.0764 227.758C94.0766 234.099 99.2169 239.239 105.558 239.239L105.558 238.128L105.558 237.017C100.444 237.017 96.2988 232.871 96.2986 227.758L95.1875 227.758ZM105.558 238.128V239.239C111.898 239.239 117.04 234.099 117.04 227.758L115.929 227.758L114.818 227.758C114.817 232.871 110.671 237.017 105.558 237.017V238.128ZM115.929 227.758H117.04C117.04 221.417 111.899 216.276 105.558 216.276V217.387V218.498C110.671 218.498 114.818 222.644 114.818 227.758H115.929ZM294.817 217.387L294.817 216.276C288.476 216.276 283.336 221.417 283.336 227.758H284.447H285.558C285.558 222.644 289.704 218.498 294.817 218.498L294.817 217.387ZM284.447 227.758L283.336 227.758C283.336 234.099 288.477 239.239 294.817 239.239L294.817 238.128L294.817 237.017C289.704 237.017 285.559 232.871 285.558 227.758L284.447 227.758ZM294.817 238.128V239.239C301.158 239.239 306.298 234.099 306.299 227.758L305.188 227.758L304.076 227.758C304.076 232.871 299.931 237.017 294.817 237.017V238.128ZM305.188 227.758H306.299C306.299 221.417 301.159 216.276 294.817 216.276V217.387V218.498C299.931 218.498 304.076 222.644 304.076 227.758H305.188ZM138.891 217.387L138.891 216.276C137.049 216.276 135.558 217.769 135.558 219.609H136.669H137.78C137.78 218.995 138.278 218.498 138.891 218.498L138.891 217.387ZM136.669 219.609H135.558V229.239H136.669H137.78V219.609H136.669ZM136.669 229.239L135.558 229.239C135.558 231.08 137.05 232.572 138.891 232.572L138.891 231.461L138.891 230.35C138.277 230.35 137.78 229.853 137.78 229.239L136.669 229.239ZM138.891 231.461V232.572H148.521V231.461V230.35H138.891V231.461ZM148.521 231.461L148.521 232.572C150.361 232.572 151.853 231.08 151.853 229.239L150.742 229.239L149.631 229.239C149.631 229.853 149.134 230.35 148.52 230.35L148.521 231.461ZM150.742 229.239H151.853V219.609H150.742H149.631V229.239H150.742ZM150.742 219.609H151.853C151.853 217.769 150.362 216.276 148.521 216.276L148.521 217.387L148.52 218.498C149.134 218.498 149.631 218.995 149.631 219.609H150.742ZM148.521 217.387V216.276H138.891V217.387V218.498H148.521V217.387ZM251.854 217.387L251.854 216.276C250.013 216.276 248.522 217.769 248.522 219.609H249.633H250.744C250.744 218.995 251.242 218.498 251.855 218.498L251.854 217.387ZM249.633 219.609H248.522V229.239H249.633H250.744V219.609H249.633ZM249.633 229.239L248.522 229.239C248.522 231.08 250.014 232.572 251.854 232.572L251.854 231.461L251.855 230.35C251.241 230.35 250.744 229.853 250.744 229.239L249.633 229.239ZM251.854 231.461V232.572H261.484V231.461V230.35H251.854V231.461ZM261.484 231.461V232.572C263.325 232.572 264.818 231.081 264.818 229.239L263.707 229.239L262.596 229.239C262.596 229.852 262.098 230.35 261.484 230.35V231.461ZM263.707 229.239H264.818V219.609H263.707H262.596V229.239H263.707ZM263.707 219.609H264.818C264.818 217.768 263.325 216.276 261.484 216.276V217.387V218.498C262.098 218.498 262.596 218.996 262.596 219.609H263.707ZM261.484 217.387V216.276H251.854V217.387V218.498H261.484V217.387ZM119.261 89.6299L119.261 88.5188C106.579 88.519 96.2981 98.7995 96.2981 111.481H97.4092H98.5203C98.5203 100.027 107.806 90.7412 119.261 90.741L119.261 89.6299ZM97.4092 111.481H96.2981C96.2981 124.163 106.579 134.444 119.261 134.444L119.261 133.333L119.261 132.222C107.806 132.222 98.5203 122.936 98.5203 111.481H97.4092ZM119.261 133.333V134.444C131.943 134.444 142.224 124.164 142.224 111.481H141.113H140.002C140.002 122.936 130.716 132.222 119.261 132.222V133.333ZM141.113 111.481H142.224C142.224 98.7993 131.943 88.5188 119.261 88.5188V89.6299V90.741C130.716 90.741 140.002 100.027 140.002 111.481H141.113ZM280.743 89.6299V88.5188C268.061 88.5188 257.78 98.7993 257.78 111.481H258.891H260.002C260.002 100.027 269.288 90.741 280.743 90.741V89.6299ZM258.891 111.481H257.78C257.78 124.164 268.061 134.444 280.743 134.444V133.333V132.222C269.288 132.222 260.002 122.936 260.002 111.481H258.891ZM280.743 133.333L280.743 134.444C293.425 134.444 303.706 124.163 303.706 111.481H302.595H301.484C301.484 122.936 292.198 132.222 280.743 132.222L280.743 133.333ZM302.595 111.481H303.706C303.706 98.7995 293.425 88.519 280.743 88.5188L280.743 89.6299L280.743 90.741C292.198 90.7412 301.484 100.027 301.484 111.481H302.595Z" fill="white" mask="url(#path-1-outside-1_1411_113491)"/>
</g>
<path d="M280.371 83.7036C295.712 83.7036 308.149 96.1407 308.149 111.482C308.149 126.823 295.712 139.259 280.371 139.259C265.03 139.259 252.594 126.823 252.594 111.482C252.594 96.1408 265.03 83.7039 280.371 83.7036ZM280.742 88.5181C268.06 88.5182 257.78 98.7991 257.779 111.481C257.779 124.163 268.06 134.445 280.742 134.445C293.424 134.445 303.705 124.163 303.705 111.481C303.705 98.7991 293.424 88.5181 280.742 88.5181Z" fill="#262626"/>
<path d="M46.8505 101.111C42.9842 131.761 27.9386 204.763 31.8504 228.333M43.332 237.963C69.0728 238.333 353.888 237.963 356.665 237.963M303.147 95.9258C316.26 115.358 358.452 193.064 367.943 223.333" stroke="#262626" stroke-width="0.37037"/>
<path d="M43.332 214.444C49.8775 214.444 55.1844 219.75 55.1846 226.296C55.1846 232.841 49.8776 238.148 43.332 238.148C36.7866 238.148 31.4805 232.841 31.4805 226.296C31.4807 219.751 36.7867 214.444 43.332 214.444ZM43.332 221.308C40.5761 221.308 38.3418 223.542 38.3418 226.298C38.3418 229.054 40.5761 231.288 43.332 231.288C46.0881 231.288 48.3223 229.054 48.3223 226.298C48.3222 223.542 46.0881 221.308 43.332 221.308Z" fill="#262626"/>
<path d="M356.669 214.444C363.214 214.445 368.52 219.751 368.521 226.296C368.521 232.841 363.214 238.148 356.669 238.148C350.123 238.148 344.816 232.841 344.816 226.296C344.817 219.75 350.123 214.444 356.669 214.444ZM356.669 221.308C353.913 221.308 351.679 223.542 351.679 226.298C351.679 229.054 353.913 231.288 356.669 231.288C359.425 231.288 361.659 229.054 361.659 226.298C361.659 223.542 359.425 221.308 356.669 221.308Z" fill="#262626"/>
<path d="M90.1416 189.815H312.815C317.978 189.815 322.484 193.315 323.761 198.318L335.581 244.629H64.8281L79.3516 197.767C80.8171 193.038 85.191 189.815 90.1416 189.815Z" stroke="#262626" stroke-width="1.11111"/>
<circle cx="105.554" cy="227.778" r="9.81481" stroke="#262626" stroke-width="1.11111"/>
<circle cx="294.816" cy="227.778" r="9.81481" stroke="#262626" stroke-width="1.11111"/>
<rect x="137.224" y="217.963" width="12.963" height="12.963" rx="1.66667" stroke="#262626" stroke-width="1.11111"/>
<path d="M192.961 231.482C192.961 230.254 193.956 229.259 195.183 229.259H204.813C206.04 229.259 207.035 230.254 207.035 231.481V238.148H192.961V231.482Z" fill="#262626"/>
<rect x="250.184" y="217.963" width="12.963" height="12.963" rx="1.66667" stroke="#262626" stroke-width="1.11111"/>
<g clip-path="url(#clip1_1411_113491)">
<path d="M199.999 194.074C203.681 194.074 206.665 197.059 206.665 200.741C206.665 204.423 203.681 207.407 199.999 207.407C196.317 207.407 193.332 204.423 193.332 200.741C193.332 197.059 196.317 194.074 199.999 194.074ZM200.543 196.751C200.422 196.158 199.575 196.158 199.454 196.751L198.945 199.254C198.901 199.472 198.73 199.643 198.512 199.688L196.009 200.196C195.416 200.317 195.416 201.164 196.009 201.285L198.512 201.794C198.73 201.838 198.901 202.009 198.945 202.228L199.454 204.73C199.575 205.324 200.422 205.324 200.543 204.73L201.052 202.228C201.096 202.009 201.267 201.838 201.485 201.794L203.988 201.285C204.581 201.165 204.581 200.317 203.988 200.196L201.485 199.688C201.267 199.643 201.096 199.472 201.052 199.254L200.543 196.751Z" fill="#262626"/>
</g>
<g clip-path="url(#clip2_1411_113491)">
<path d="M16.667 10C20.3487 10.0002 23.333 12.9852 23.333 16.667C23.3328 20.3486 20.3486 23.3328 16.667 23.333C12.9852 23.333 10.0002 20.3487 10 16.667C10 12.9851 12.9851 10 16.667 10ZM17.2109 12.6768C17.0901 12.0839 16.2428 12.0839 16.1221 12.6768L15.6133 15.1797C15.5688 15.3981 15.3981 15.5688 15.1797 15.6133L12.6768 16.1221C12.0839 16.2428 12.0839 17.0901 12.6768 17.2109L15.1797 17.7197C15.398 17.7641 15.5687 17.935 15.6133 18.1533L16.1221 20.6562C16.2427 21.2494 17.0903 21.2494 17.2109 20.6562L17.7197 18.1533C17.7642 17.9351 17.9351 17.7642 18.1533 17.7197L20.6562 17.2109C21.2494 17.0903 21.2494 16.2427 20.6562 16.1221L18.1533 15.6133C17.935 15.5687 17.7641 15.398 17.7197 15.1797L17.2109 12.6768Z" fill="#262626"/>
</g>
<g clip-path="url(#clip3_1411_113491)">
<path d="M16.667 221.852C20.3487 221.852 23.333 224.837 23.333 228.519C23.3328 232.2 20.3486 235.184 16.667 235.185C12.9852 235.185 10.0002 232.2 10 228.519C10 224.837 12.9851 221.852 16.667 221.852ZM17.2109 224.528C17.0901 223.936 16.2428 223.935 16.1221 224.528L15.6133 227.031C15.5688 227.25 15.3981 227.42 15.1797 227.465L12.6768 227.974C12.0839 228.094 12.0839 228.942 12.6768 229.062L15.1797 229.571C15.398 229.616 15.5687 229.787 15.6133 230.005L16.1221 232.508C16.2427 233.101 17.0903 233.101 17.2109 232.508L17.7197 230.005C17.7642 229.787 17.9351 229.616 18.1533 229.571L20.6562 229.062C21.2494 228.942 21.2494 228.094 20.6562 227.974L18.1533 227.465C17.935 227.42 17.7641 227.25 17.7197 227.031L17.2109 224.528Z" fill="#262626"/>
</g>
<g clip-path="url(#clip4_1411_113491)">
<path d="M383.331 10C387.013 10.0002 389.997 12.9852 389.997 16.667C389.997 20.3486 387.013 23.3328 383.331 23.333C379.649 23.333 376.664 20.3487 376.664 16.667C376.664 12.9851 379.649 10 383.331 10ZM383.875 12.6768C383.754 12.0839 382.907 12.0839 382.786 12.6768L382.277 15.1797C382.233 15.3981 382.062 15.5688 381.844 15.6133L379.341 16.1221C378.748 16.2428 378.748 17.0901 379.341 17.2109L381.844 17.7197C382.062 17.7641 382.233 17.935 382.277 18.1533L382.786 20.6562C382.907 21.2494 383.754 21.2494 383.875 20.6562L384.384 18.1533C384.428 17.9351 384.599 17.7642 384.817 17.7197L387.32 17.2109C387.913 17.0903 387.913 16.2427 387.32 16.1221L384.817 15.6133C384.599 15.5687 384.428 15.398 384.384 15.1797L383.875 12.6768Z" fill="#262626"/>
</g>
<g clip-path="url(#clip5_1411_113491)">
<path d="M383.331 221.852C387.013 221.852 389.997 224.837 389.997 228.519C389.997 232.2 387.013 235.184 383.331 235.185C379.649 235.185 376.664 232.2 376.664 228.519C376.664 224.837 379.649 221.852 383.331 221.852ZM383.875 224.528C383.754 223.936 382.907 223.935 382.786 224.528L382.277 227.031C382.233 227.25 382.062 227.42 381.844 227.465L379.341 227.974C378.748 228.094 378.748 228.942 379.341 229.062L381.844 229.571C382.062 229.616 382.233 229.787 382.277 230.005L382.786 232.508C382.907 233.101 383.754 233.101 383.875 232.508L384.384 230.005C384.428 229.787 384.599 229.616 384.817 229.571L387.32 229.062C387.913 228.942 387.913 228.094 387.32 227.974L384.817 227.465C384.599 227.42 384.428 227.25 384.384 227.031L383.875 224.528Z" fill="#262626"/>
</g>
<path d="M280.93 89.6665C292.998 89.6665 302.782 99.4506 302.782 111.519C302.782 123.587 292.998 133.371 280.93 133.371C268.862 133.37 259.078 123.587 259.078 111.519C259.078 99.4507 268.861 89.6667 280.93 89.6665ZM280.806 95.2222C278.567 95.2222 276.433 95.6746 274.491 96.4917L276.455 99.8931L272.922 101.932L270.959 98.5327C267.552 101.12 265.194 105.019 264.637 109.476H268.566V113.555H264.636C265.191 118.012 267.547 121.909 270.951 124.498L272.916 121.096L276.449 123.136L274.481 126.542C276.426 127.362 278.563 127.815 280.806 127.815C283.045 127.815 285.178 127.362 287.12 126.545L285.157 123.145L288.69 121.105L290.652 124.503C294.061 121.915 296.421 118.015 296.977 113.555H293.045V109.476H296.976C296.418 105.02 294.062 101.124 290.657 98.5366L288.696 101.935L285.163 99.896L287.127 96.4937C285.183 95.675 283.047 95.2222 280.806 95.2222Z" fill="black"/>
<path d="M119.259 89.6665C131.327 89.6667 141.11 99.4507 141.11 111.519C141.11 123.587 131.327 133.37 119.259 133.371C107.19 133.371 97.4065 123.587 97.4062 111.519C97.4062 99.4506 107.19 89.6665 119.259 89.6665ZM119.132 95.2222C116.893 95.2222 114.759 95.6745 112.816 96.4917L114.78 99.8931L111.247 101.932L109.285 98.5327C105.878 101.12 103.519 105.018 102.962 109.476H106.892V113.555H102.962C103.517 118.011 105.872 121.909 109.276 124.498L111.241 121.096L114.774 123.136L112.807 126.542C114.751 127.362 116.889 127.815 119.132 127.815C121.371 127.815 123.504 127.362 125.445 126.545L123.483 123.145L127.016 121.105L128.978 124.503C132.386 121.915 134.746 118.015 135.302 113.555H131.371V109.476H135.301C134.744 105.02 132.387 101.124 128.982 98.5366L127.021 101.935L123.488 99.896L125.452 96.4937C123.509 95.6751 121.373 95.2222 119.132 95.2222Z" fill="black"/>
<circle cx="200.025" cy="73.7467" r="47.1579" fill="#F06465"/>
<circle cx="200.026" cy="73.7466" r="35.2251" fill="#1E1E1E"/>
<circle cx="200.028" cy="73.7469" r="23.6332" fill="#F06465"/>
<circle cx="200.011" cy="73.7622" r="11.9018" fill="#1E1E1E"/>
<path d="M198.729 72.4619C198.002 73.1876 198.001 74.3651 198.727 75.0918C199.453 75.8186 200.63 75.8195 201.357 75.0938L200.043 73.7778L198.729 72.4619ZM200.043 73.7778L201.357 75.0938L261.838 14.7014L260.524 13.3855L259.21 12.0695L198.729 72.4619L200.043 73.7778Z" fill="#464655"/>
<path d="M265.506 11.043C266.233 10.3168 266.233 9.13929 265.506 8.41305C264.78 7.68681 263.603 7.68681 262.876 8.41305L264.191 9.72803L265.506 11.043ZM264.191 9.72803L262.876 8.41305L259.199 12.0904L260.514 13.4053L261.829 14.7203L265.506 11.043L264.191 9.72803Z" fill="#F06465"/>
<path d="M247.101 34.2673L242.02 34.4927L260.384 16.144L262.487 18.3632C263.359 19.2824 263.334 20.7299 262.432 21.6187L251.564 32.3223C250.368 33.5 248.778 34.1929 247.101 34.2673Z" fill="#F06465" stroke="#464655" stroke-width="0.0309943"/>
<path d="M239.455 26.9928L239.229 32.0747L257.578 13.7106L255.359 11.6068C254.44 10.7354 252.992 10.7603 252.103 11.6626L241.4 22.5306C240.222 23.7263 239.529 25.316 239.455 26.9928Z" fill="#F06465" stroke="#464655" stroke-width="0.0309943"/>
<path d="M149.795 185.574C148.68 185.574 147.77 185.256 147.065 184.619C146.36 183.982 146.007 183.038 146.007 181.787V175.508C146.007 174.711 145.859 174.177 145.563 173.904C145.268 173.608 144.699 173.46 143.857 173.46V170.389C144.699 170.389 145.268 170.252 145.563 169.979C145.859 169.684 146.007 169.138 146.007 168.341V162.062C146.007 160.811 146.36 159.867 147.065 159.23C147.77 158.593 148.68 158.274 149.795 158.274H151.706V161.346H151.16C150.546 161.346 150.091 161.528 149.795 161.892C149.499 162.233 149.351 162.859 149.351 163.769V168.887C149.351 170.48 148.657 171.481 147.27 171.89V171.959C148.657 172.368 149.351 173.369 149.351 174.962V180.08C149.351 180.99 149.499 181.627 149.795 181.991C150.091 182.333 150.546 182.503 151.16 182.503H151.706V185.574H149.795ZM165.408 184.209C163.611 184.209 162.234 183.698 161.279 182.674C160.346 181.65 159.88 180.205 159.88 178.34V165.509C159.88 163.643 160.346 162.199 161.279 161.175C162.234 160.151 163.611 159.639 165.408 159.639C167.205 159.639 168.57 160.151 169.503 161.175C170.458 162.199 170.936 163.643 170.936 165.509V168.034H167.387V165.27C167.387 163.791 166.762 163.052 165.51 163.052C164.259 163.052 163.633 163.791 163.633 165.27V178.613C163.633 180.069 164.259 180.797 165.51 180.797C166.762 180.797 167.387 180.069 167.387 178.613V174.962H170.936V178.34C170.936 180.205 170.458 181.65 169.503 182.674C168.57 183.698 167.205 184.209 165.408 184.209ZM179.016 184.209C177.173 184.209 175.763 183.686 174.784 182.64C173.806 181.593 173.317 180.114 173.317 178.203V165.645C173.317 163.734 173.806 162.256 174.784 161.209C175.763 160.163 177.173 159.639 179.016 159.639C180.859 159.639 182.269 160.163 183.247 161.209C184.226 162.256 184.715 163.734 184.715 165.645V178.203C184.715 180.114 184.226 181.593 183.247 182.64C182.269 183.686 180.859 184.209 179.016 184.209ZM179.016 180.797C180.313 180.797 180.961 180.012 180.961 178.442V165.407C180.961 163.837 180.313 163.052 179.016 163.052C177.719 163.052 177.071 163.837 177.071 165.407V178.442C177.071 180.012 177.719 180.797 179.016 180.797ZM187.594 159.981H193.327C195.193 159.981 196.592 160.481 197.525 161.482C198.458 162.483 198.924 163.951 198.924 165.884V177.965C198.924 179.898 198.458 181.366 197.525 182.367C196.592 183.368 195.193 183.868 193.327 183.868H187.594V159.981ZM193.259 180.456C193.873 180.456 194.34 180.274 194.658 179.91C195 179.546 195.17 178.954 195.17 178.135V165.714C195.17 164.895 195 164.303 194.658 163.939C194.34 163.575 193.873 163.393 193.259 163.393H191.348V180.456H193.259ZM204.633 159.981H209.718L213.608 183.868H209.854L209.172 179.125V179.193H204.906L204.223 183.868H200.743L204.633 159.981ZM208.728 175.951L207.056 164.144H206.988L205.35 175.951H208.728ZM215.77 159.981H221.333C223.266 159.981 224.677 160.436 225.564 161.346C226.451 162.233 226.895 163.609 226.895 165.475V166.942C226.895 169.422 226.076 170.992 224.438 171.651V171.72C225.348 171.993 225.985 172.55 226.349 173.392C226.736 174.234 226.929 175.36 226.929 176.77V180.968C226.929 181.65 226.952 182.207 226.997 182.64C227.043 183.049 227.157 183.459 227.339 183.868H223.517C223.38 183.481 223.289 183.117 223.244 182.776C223.198 182.435 223.175 181.821 223.175 180.933V176.565C223.175 175.473 222.993 174.711 222.629 174.279C222.288 173.847 221.685 173.631 220.821 173.631H219.524V183.868H215.77V159.981ZM220.889 170.218C221.64 170.218 222.197 170.025 222.561 169.638C222.948 169.251 223.141 168.603 223.141 167.693V165.85C223.141 164.986 222.982 164.36 222.663 163.973C222.368 163.587 221.89 163.393 221.23 163.393H219.524V170.218H220.889ZM232.743 163.393H228.818V159.981H240.421V163.393H236.497V183.868H232.743V163.393ZM247.84 182.503H248.386C249 182.503 249.455 182.333 249.751 181.991C250.047 181.627 250.195 180.99 250.195 180.08V174.962C250.195 173.369 250.889 172.368 252.276 171.959V171.89C250.889 171.481 250.195 170.48 250.195 168.887V163.769C250.195 162.859 250.047 162.233 249.751 161.892C249.455 161.528 249 161.346 248.386 161.346H247.84V158.274H249.751C250.866 158.274 251.776 158.593 252.481 159.23C253.186 159.867 253.539 160.811 253.539 162.062V168.341C253.539 169.138 253.687 169.684 253.983 169.979C254.278 170.252 254.847 170.389 255.689 170.389V173.46C254.847 173.46 254.278 173.608 253.983 173.904C253.687 174.177 253.539 174.711 253.539 175.508V181.787C253.539 183.038 253.186 183.982 252.481 184.619C251.776 185.256 250.866 185.574 249.751 185.574H247.84V182.503Z" fill="#1E1E1E"/>
</g>
<defs>
<filter id="filter0_n_1411_113491" x="0" y="0" width="400" height="245.185" filterUnits="userSpaceOnUse" color-interpolation-filters="sRGB">
<feFlood flood-opacity="0" result="BackgroundImageFix"/>
<feBlend mode="normal" in="SourceGraphic" in2="BackgroundImageFix" result="shape"/>
<feTurbulence type="fractalNoise" baseFrequency="2.8783018589019775 2.8783018589019775" stitchTiles="stitch" numOctaves="3" result="noise" seed="8462" />
<feColorMatrix in="noise" type="luminanceToAlpha" result="alphaNoise" />
<feComponentTransfer in="alphaNoise" result="coloredNoise1">
<feFuncA type="discrete" tableValues="1 1 1 1 1 1 1 1 1 1 1 1 1 1 1 1 1 1 1 1 1 1 1 1 1 1 1 1 1 1 1 1 1 1 1 1 1 1 1 1 1 1 1 1 1 1 1 1 1 1 1 0 0 0 0 0 0 0 0 0 0 0 0 0 0 0 0 0 0 0 0 0 0 0 0 0 0 0 0 0 0 0 0 0 0 0 0 0 0 0 0 0 0 0 0 0 0 0 0 0 "/>
</feComponentTransfer>
<feComposite operator="in" in2="shape" in="coloredNoise1" result="noise1Clipped" />
<feFlood flood-color="rgba(0, 0, 0, 0.25)" result="color1Flood" />
<feComposite operator="in" in2="noise1Clipped" in="color1Flood" result="color1" />
<feMerge result="effect1_noise_1411_113491">
<feMergeNode in="shape" />
<feMergeNode in="color1" />
</feMerge>
</filter>
<clipPath id="clip0_1411_113491">
<rect width="400" height="245.185" fill="white"/>
</clipPath>
<clipPath id="clip1_1411_113491">
<rect width="13.3333" height="13.3333" fill="white" transform="translate(193.332 194.074)"/>
</clipPath>
<clipPath id="clip2_1411_113491">
<rect width="13.3333" height="13.3333" fill="white" transform="translate(10 10)"/>
</clipPath>
<clipPath id="clip3_1411_113491">
<rect width="13.3333" height="13.3333" fill="white" transform="translate(10 221.852)"/>
</clipPath>
<clipPath id="clip4_1411_113491">
<rect width="13.3333" height="13.3333" fill="white" transform="translate(376.664 10)"/>
</clipPath>
<clipPath id="clip5_1411_113491">
<rect width="13.3333" height="13.3333" fill="white" transform="translate(376.664 221.852)"/>
</clipPath>
</defs>
</svg>
