<svg width="400" height="246" viewBox="0 0 400 246" fill="none" xmlns="http://www.w3.org/2000/svg">
<g filter="url(#filter0_n_1411_113403)">
<g clip-path="url(#clip0_1411_113403)">
<g opacity="0.8">
<mask id="path-2-outside-1_1411_113403" maskUnits="userSpaceOnUse" x="-0.886719" y="-0.88916" width="401" height="247" fill="black">
<rect fill="white" x="-0.886719" y="-0.88916" width="401" height="247"/>
<path d="M382.595 1.11084C391.595 1.11084 398.891 8.40668 398.892 17.4067V227.778C398.891 236.778 391.595 244.074 382.595 244.074H17.4102C8.41011 244.074 1.11352 236.778 1.11328 227.778V17.4067C1.11344 8.40668 8.41006 1.11084 17.4102 1.11084H382.595ZM105.558 217.386C99.8304 217.386 95.1875 222.03 95.1875 227.757C95.1877 233.484 99.8305 238.127 105.558 238.127C111.285 238.127 115.929 233.485 115.929 227.757C115.929 222.03 111.285 217.386 105.558 217.386ZM294.817 217.386C289.09 217.386 284.447 222.03 284.447 227.757C284.447 233.485 289.09 238.127 294.817 238.127C300.545 238.127 305.187 233.485 305.188 227.757C305.188 222.03 300.545 217.386 294.817 217.386ZM138.891 217.386C137.663 217.386 136.669 218.382 136.669 219.609V229.239C136.669 230.466 137.663 231.46 138.891 231.46H148.521C149.748 231.46 150.742 230.466 150.742 229.239V219.609C150.742 218.382 149.748 217.386 148.521 217.386H138.891ZM251.854 217.386C250.627 217.386 249.633 218.382 249.633 219.609V229.239C249.633 230.466 250.627 231.46 251.854 231.46H261.484C262.712 231.46 263.707 230.466 263.707 229.239V219.609C263.707 218.382 262.712 217.386 261.484 217.386H251.854ZM119.261 89.6294C107.193 89.6296 97.4092 99.4127 97.4092 111.481C97.4092 123.549 107.192 133.332 119.261 133.333C131.329 133.333 141.113 123.549 141.113 111.481C141.113 99.4126 131.329 89.6294 119.261 89.6294ZM280.743 89.6294C268.675 89.6294 258.891 99.4126 258.891 111.481C258.891 123.549 268.675 133.333 280.743 133.333C292.811 133.332 302.595 123.549 302.595 111.481C302.595 99.4127 292.811 89.6296 280.743 89.6294Z"/>
</mask>
<path d="M382.595 1.11084C391.595 1.11084 398.891 8.40668 398.892 17.4067V227.778C398.891 236.778 391.595 244.074 382.595 244.074H17.4102C8.41011 244.074 1.11352 236.778 1.11328 227.778V17.4067C1.11344 8.40668 8.41006 1.11084 17.4102 1.11084H382.595ZM105.558 217.386C99.8304 217.386 95.1875 222.03 95.1875 227.757C95.1877 233.484 99.8305 238.127 105.558 238.127C111.285 238.127 115.929 233.485 115.929 227.757C115.929 222.03 111.285 217.386 105.558 217.386ZM294.817 217.386C289.09 217.386 284.447 222.03 284.447 227.757C284.447 233.485 289.09 238.127 294.817 238.127C300.545 238.127 305.187 233.485 305.188 227.757C305.188 222.03 300.545 217.386 294.817 217.386ZM138.891 217.386C137.663 217.386 136.669 218.382 136.669 219.609V229.239C136.669 230.466 137.663 231.46 138.891 231.46H148.521C149.748 231.46 150.742 230.466 150.742 229.239V219.609C150.742 218.382 149.748 217.386 148.521 217.386H138.891ZM251.854 217.386C250.627 217.386 249.633 218.382 249.633 219.609V229.239C249.633 230.466 250.627 231.46 251.854 231.46H261.484C262.712 231.46 263.707 230.466 263.707 229.239V219.609C263.707 218.382 262.712 217.386 261.484 217.386H251.854ZM119.261 89.6294C107.193 89.6296 97.4092 99.4127 97.4092 111.481C97.4092 123.549 107.192 133.332 119.261 133.333C131.329 133.333 141.113 123.549 141.113 111.481C141.113 99.4126 131.329 89.6294 119.261 89.6294ZM280.743 89.6294C268.675 89.6294 258.891 99.4126 258.891 111.481C258.891 123.549 268.675 133.333 280.743 133.333C292.811 133.332 302.595 123.549 302.595 111.481C302.595 99.4127 292.811 89.6296 280.743 89.6294Z" fill="white"/>
<path d="M398.892 17.4067H400.003V17.4067L398.892 17.4067ZM398.892 227.778L400.003 227.778V227.778H398.892ZM1.11328 227.778H0.00217009V227.778L1.11328 227.778ZM1.11328 17.4067L0.00217009 17.4067V17.4067H1.11328ZM105.558 217.386V216.275H105.558L105.558 217.386ZM95.1875 227.757H94.0764V227.757L95.1875 227.757ZM105.558 238.127L105.558 239.239H105.558V238.127ZM115.929 227.757L117.04 227.757V227.757H115.929ZM294.817 217.386V216.275H294.817L294.817 217.386ZM284.447 227.757H283.336V227.757L284.447 227.757ZM294.817 238.127L294.817 239.239H294.817V238.127ZM305.188 227.757L306.299 227.757V227.757H305.188ZM138.891 217.386V216.275H138.891L138.891 217.386ZM136.669 219.609H135.558H136.669ZM136.669 229.239H135.558V229.239L136.669 229.239ZM138.891 231.46L138.891 232.572H138.891V231.46ZM148.521 231.46V232.572H148.521L148.521 231.46ZM150.742 229.239L151.853 229.239V229.239H150.742ZM150.742 219.609H151.853H150.742ZM148.521 217.386L148.521 216.275H148.521V217.386ZM251.854 217.386V216.275H251.854L251.854 217.386ZM249.633 219.609H248.522H249.633ZM249.633 229.239H248.522V229.239L249.633 229.239ZM251.854 231.46L251.854 232.572H251.854V231.46ZM263.707 229.239L264.818 229.239V229.239H263.707ZM263.707 219.609H264.818H263.707ZM119.261 89.6294V88.5183H119.261L119.261 89.6294ZM97.4092 111.481L96.2981 111.481V111.481H97.4092ZM119.261 133.333L119.261 134.444H119.261V133.333ZM141.113 111.481H142.224V111.481L141.113 111.481ZM280.743 89.6294L280.743 88.5183H280.743V89.6294ZM258.891 111.481L257.78 111.481V111.481H258.891ZM280.743 133.333V134.444H280.743L280.743 133.333ZM302.595 111.481H303.706V111.481L302.595 111.481ZM382.595 1.11084V2.22195C390.981 2.22195 397.78 9.0204 397.78 17.4068L398.892 17.4067L400.003 17.4067C400.003 7.79295 392.208 -0.00027132 382.595 -0.00027132V1.11084ZM398.892 17.4067H397.78V227.778H398.892H400.003V17.4067H398.892ZM398.892 227.778L397.78 227.778C397.78 236.164 390.981 242.963 382.595 242.963V244.074V245.185C392.208 245.185 400.002 237.392 400.003 227.778L398.892 227.778ZM382.595 244.074V242.963H17.4102V244.074V245.185H382.595V244.074ZM17.4102 244.074V242.963C9.0237 242.963 2.22462 236.164 2.22439 227.778L1.11328 227.778L0.00217009 227.778C0.00242567 237.392 7.79652 245.185 17.4102 245.185V244.074ZM1.11328 227.778H2.22439V17.4067H1.11328H0.00217009V227.778H1.11328ZM1.11328 17.4067L2.22439 17.4068C2.22454 9.0204 9.02364 2.22195 17.4102 2.22195V1.11084V-0.00027132C7.79647 -0.00027132 0.00233757 7.79295 0.00217009 17.4067L1.11328 17.4067ZM17.4102 1.11084V2.22195H382.595V1.11084V-0.00027132H17.4102V1.11084ZM105.558 217.386L105.558 216.275C99.2167 216.275 94.0764 221.417 94.0764 227.757H95.1875H96.2986C96.2986 222.644 100.444 218.498 105.558 218.497L105.558 217.386ZM95.1875 227.757L94.0764 227.757C94.0766 234.098 99.2169 239.238 105.558 239.239L105.558 238.127L105.558 237.016C100.444 237.016 96.2987 232.871 96.2986 227.757L95.1875 227.757ZM105.558 238.127V239.239C111.898 239.239 117.04 234.098 117.04 227.757L115.929 227.757L114.818 227.757C114.817 232.871 110.671 237.016 105.558 237.016V238.127ZM115.929 227.757H117.04C117.04 221.416 111.899 216.275 105.558 216.275V217.386V218.497C110.671 218.497 114.818 222.644 114.818 227.757H115.929ZM294.817 217.386L294.817 216.275C288.476 216.275 283.336 221.416 283.336 227.757H284.447H285.558C285.558 222.644 289.704 218.497 294.817 218.497L294.817 217.386ZM284.447 227.757L283.336 227.757C283.336 234.098 288.477 239.238 294.817 239.239L294.817 238.127L294.817 237.016C289.704 237.016 285.559 232.871 285.558 227.757L284.447 227.757ZM294.817 238.127V239.239C301.158 239.239 306.298 234.098 306.299 227.757L305.188 227.757L304.076 227.757C304.076 232.871 299.931 237.016 294.817 237.016V238.127ZM305.188 227.757H306.299C306.299 221.416 301.159 216.275 294.817 216.275V217.386V218.497C299.931 218.497 304.076 222.643 304.076 227.757H305.188ZM138.891 217.386L138.891 216.275C137.049 216.275 135.558 217.769 135.558 219.609H136.669H137.78C137.78 218.995 138.278 218.497 138.891 218.497L138.891 217.386ZM136.669 219.609H135.558V229.239H136.669H137.78V219.609H136.669ZM136.669 229.239L135.558 229.239C135.558 231.08 137.05 232.571 138.891 232.572L138.891 231.46L138.891 230.349C138.277 230.349 137.78 229.852 137.78 229.239L136.669 229.239ZM138.891 231.46V232.572H148.521V231.46V230.349H138.891V231.46ZM148.521 231.46L148.521 232.572C150.361 232.571 151.853 231.08 151.853 229.239L150.742 229.239L149.631 229.239C149.631 229.852 149.134 230.349 148.52 230.349L148.521 231.46ZM150.742 229.239H151.853V219.609H150.742H149.631V229.239H150.742ZM150.742 219.609H151.853C151.853 217.769 150.362 216.275 148.521 216.275L148.521 217.386L148.52 218.497C149.134 218.497 149.631 218.995 149.631 219.609H150.742ZM148.521 217.386V216.275H138.891V217.386V218.497H148.521V217.386ZM251.854 217.386L251.854 216.275C250.013 216.275 248.522 217.769 248.522 219.609H249.633H250.744C250.744 218.995 251.242 218.497 251.855 218.497L251.854 217.386ZM249.633 219.609H248.522V229.239H249.633H250.744V219.609H249.633ZM249.633 229.239L248.522 229.239C248.522 231.08 250.014 232.571 251.854 232.572L251.854 231.46L251.855 230.349C251.241 230.349 250.744 229.852 250.744 229.239L249.633 229.239ZM251.854 231.46V232.572H261.484V231.46V230.349H251.854V231.46ZM261.484 231.46V232.572C263.325 232.572 264.818 231.08 264.818 229.239L263.707 229.239L262.596 229.239C262.596 229.852 262.098 230.349 261.484 230.349V231.46ZM263.707 229.239H264.818V219.609H263.707H262.596V229.239H263.707ZM263.707 219.609H264.818C264.818 217.768 263.325 216.275 261.484 216.275V217.386V218.497C262.098 218.497 262.596 218.995 262.596 219.609H263.707ZM261.484 217.386V216.275H251.854V217.386V218.497H261.484V217.386ZM119.261 89.6294L119.261 88.5183C106.579 88.5185 96.2981 98.799 96.2981 111.481L97.4092 111.481L98.5203 111.481C98.5203 100.026 107.806 90.7407 119.261 90.7405L119.261 89.6294ZM97.4092 111.481H96.2981C96.2981 124.163 106.579 134.443 119.261 134.444L119.261 133.333L119.261 132.221C107.806 132.221 98.5203 122.936 98.5203 111.481H97.4092ZM119.261 133.333V134.444C131.943 134.444 142.224 124.163 142.224 111.481H141.113H140.002C140.002 122.936 130.716 132.221 119.261 132.221V133.333ZM141.113 111.481L142.224 111.481C142.224 98.7988 131.943 88.5183 119.261 88.5183V89.6294V90.7405C130.716 90.7405 140.002 100.026 140.002 111.481L141.113 111.481ZM280.743 89.6294V88.5183C268.061 88.5183 257.78 98.7988 257.78 111.481L258.891 111.481L260.002 111.481C260.002 100.026 269.288 90.7405 280.743 90.7405V89.6294ZM258.891 111.481H257.78C257.78 124.163 268.061 134.444 280.743 134.444V133.333V132.221C269.288 132.221 260.002 122.936 260.002 111.481H258.891ZM280.743 133.333L280.743 134.444C293.425 134.443 303.706 124.163 303.706 111.481H302.595H301.484C301.484 122.936 292.198 132.221 280.743 132.221L280.743 133.333ZM302.595 111.481L303.706 111.481C303.706 98.799 293.425 88.5185 280.743 88.5183L280.743 89.6294L280.743 90.7405C292.198 90.7407 301.484 100.026 301.484 111.481L302.595 111.481Z" fill="black" mask="url(#path-2-outside-1_1411_113403)"/>
</g>
<circle cx="200.338" cy="445.621" r="341.393" fill="#4A90E2"/>
<circle cx="200.34" cy="438.689" r="334.461" fill="black"/>
<circle cx="200.335" cy="435.223" r="330.995" fill="#9B51E0"/>
<circle cx="200.337" cy="417.893" r="313.665" fill="#FF007A"/>
<circle cx="200.336" cy="414.428" r="310.2" fill="#4A90E2"/>
<circle cx="200.337" cy="404.03" r="299.802" fill="black"/>
<circle cx="200.338" cy="393.632" r="289.404" fill="#9B51E0"/>
<circle cx="200.336" cy="386.7" r="282.472" fill="#FF007A"/>
<circle cx="200.336" cy="376.302" r="272.074" fill="#4A90E2"/>
<circle cx="200.337" cy="365.905" r="261.677" fill="black"/>
<circle cx="200.336" cy="362.439" r="258.211" fill="#9B51E0"/>
<circle cx="200.338" cy="345.109" r="240.881" fill="#FF007A"/>
<circle cx="200.337" cy="341.643" r="237.415" fill="#4A90E2"/>
<circle cx="200.338" cy="331.246" r="227.018" fill="black"/>
<circle cx="200.34" cy="324.314" r="220.086" fill="#9B51E0"/>
<circle cx="200.336" cy="300.052" r="195.824" fill="#FF007A"/>
<circle cx="200.338" cy="293.12" r="188.892" fill="#4A90E2"/>
<circle cx="200.337" cy="289.655" r="185.427" fill="black"/>
<circle cx="200.338" cy="282.723" r="178.495" fill="#9B51E0"/>
<circle cx="200.337" cy="279.257" r="175.029" fill="#FF007A"/>
<circle cx="200.339" cy="272.325" r="168.097" fill="#4A90E2"/>
<circle cx="200.339" cy="258.461" r="154.233" fill="black"/>
<circle cx="200.336" cy="248.064" r="143.836" fill="#9B51E0"/>
<circle cx="200.337" cy="241.132" r="136.904" fill="#FF007A"/>
<circle cx="200.338" cy="230.734" r="126.506" fill="#4A90E2"/>
<circle cx="200.337" cy="227.268" r="123.04" fill="black"/>
<circle cx="200.339" cy="220.336" r="116.108" fill="#9B51E0"/>
<circle cx="200.339" cy="209.938" r="105.71" fill="#FF007A"/>
<circle cx="200.338" cy="206.473" r="102.245" fill="#4A90E2"/>
<circle cx="200.339" cy="196.075" r="91.8468" fill="black"/>
<circle cx="200.336" cy="185.677" r="81.449" fill="#9B51E0"/>
<circle cx="200.338" cy="178.745" r="74.5172" fill="#FF007A"/>
<circle cx="200.336" cy="175.279" r="71.0513" fill="#4A90E2"/>
<circle cx="200.338" cy="168.347" r="64.1195" fill="black"/>
<circle cx="200.339" cy="157.95" r="53.7217" fill="#9B51E0"/>
<circle cx="200.338" cy="154.484" r="50.2558" fill="#FF007A"/>
<circle cx="200.339" cy="144.086" r="39.858" fill="#4A90E2"/>
<circle cx="200.336" cy="137.154" r="32.9262" fill="black"/>
<circle cx="200.339" cy="133.688" r="29.4603" fill="#9B51E0"/>
<circle cx="200.337" cy="126.756" r="22.5285" fill="#FF007A"/>
<circle cx="200.34" cy="123.291" r="19.0625" fill="#4A90E2"/>
<circle cx="200.338" cy="116.359" r="12.1307" fill="black"/>
<circle cx="200.337" cy="112.893" r="8.66479" fill="#9B51E0"/>
<circle cx="200.34" cy="109.427" r="5.19888" fill="#FF007A"/>
<circle cx="200.337" cy="107.694" r="3.46592" fill="#4A90E2"/>
<path d="M280.371 83.7031C295.712 83.7031 308.149 96.1402 308.149 111.481C308.149 126.822 295.712 139.259 280.371 139.259C265.03 139.259 252.594 126.822 252.594 111.481C252.594 96.1404 265.03 83.7034 280.371 83.7031ZM280.742 88.5176C268.06 88.5177 257.779 98.7994 257.779 111.481C257.78 124.163 268.06 134.444 280.742 134.444C293.424 134.444 303.705 124.163 303.705 111.481C303.705 98.7994 293.424 88.5176 280.742 88.5176Z" fill="white"/>
<path d="M46.8505 101.11C42.9842 131.761 27.9386 204.763 31.8504 228.333M43.332 237.962C69.0728 238.333 353.888 237.962 356.665 237.962M303.147 95.9253C316.26 115.358 358.452 193.063 367.943 223.333" stroke="white" stroke-width="0.37037"/>
<path d="M43.332 214.444C49.8775 214.444 55.1844 219.75 55.1846 226.295C55.1846 232.841 49.8776 238.148 43.332 238.148C36.7866 238.148 31.4805 232.841 31.4805 226.295C31.4807 219.75 36.7867 214.444 43.332 214.444ZM43.332 221.307C40.5761 221.307 38.3418 223.541 38.3418 226.297C38.3418 229.053 40.5761 231.288 43.332 231.288C46.0881 231.288 48.3223 229.053 48.3223 226.297C48.3222 223.541 46.088 221.307 43.332 221.307Z" fill="white"/>
<path d="M356.669 214.444C363.214 214.444 368.52 219.75 368.521 226.295C368.521 232.841 363.214 238.148 356.669 238.148C350.123 238.148 344.816 232.841 344.816 226.295C344.817 219.75 350.123 214.444 356.669 214.444ZM356.669 221.307C353.913 221.307 351.679 223.541 351.679 226.297C351.679 229.053 353.913 231.288 356.669 231.288C359.425 231.287 361.659 229.053 361.659 226.297C361.659 223.541 359.425 221.307 356.669 221.307Z" fill="white"/>
<path d="M90.1416 189.814H312.815C317.978 189.814 322.484 193.315 323.761 198.317L335.581 244.629H64.8281L79.3516 197.767C80.8171 193.038 85.191 189.814 90.1416 189.814Z" stroke="white" stroke-width="1.11111"/>
<circle cx="105.554" cy="227.778" r="9.81481" stroke="white" stroke-width="1.11111"/>
<circle cx="294.816" cy="227.778" r="9.81481" stroke="white" stroke-width="1.11111"/>
<rect x="137.224" y="217.963" width="12.963" height="12.963" rx="1.66667" stroke="white" stroke-width="1.11111"/>
<path d="M192.961 231.482C192.961 230.254 193.956 229.259 195.183 229.259H204.813C206.04 229.259 207.035 230.254 207.035 231.481V238.148H192.961V231.482Z" fill="white"/>
<rect x="250.184" y="217.963" width="12.963" height="12.963" rx="1.66667" stroke="white" stroke-width="1.11111"/>
<g clip-path="url(#clip1_1411_113403)">
<path d="M199.999 194.074C203.681 194.074 206.665 197.059 206.665 200.741C206.665 204.423 203.681 207.407 199.999 207.407C196.317 207.407 193.332 204.423 193.332 200.741C193.332 197.059 196.317 194.074 199.999 194.074ZM200.543 196.751C200.422 196.158 199.575 196.158 199.454 196.751L198.945 199.254C198.901 199.472 198.73 199.643 198.512 199.688L196.009 200.196C195.416 200.317 195.416 201.164 196.009 201.285L198.512 201.794C198.73 201.838 198.901 202.009 198.945 202.228L199.454 204.73C199.575 205.324 200.422 205.324 200.543 204.73L201.052 202.228C201.096 202.009 201.267 201.838 201.485 201.794L203.988 201.285C204.581 201.165 204.581 200.317 203.988 200.196L201.485 199.688C201.267 199.643 201.096 199.472 201.052 199.254L200.543 196.751Z" fill="white"/>
</g>
<g clip-path="url(#clip2_1411_113403)">
<path d="M16.667 9.99951C20.3487 9.99969 23.333 12.9847 23.333 16.6665C23.3328 20.3481 20.3486 23.3323 16.667 23.3325C12.9852 23.3325 10.0002 20.3483 10 16.6665C10 12.9846 12.9851 9.99951 16.667 9.99951ZM17.2109 12.6763C17.0901 12.0835 16.2428 12.0834 16.1221 12.6763L15.6133 15.1792C15.5688 15.3976 15.3981 15.5683 15.1797 15.6128L12.6768 16.1216C12.0839 16.2423 12.0839 17.0897 12.6768 17.2104L15.1797 17.7192C15.398 17.7637 15.5687 17.9345 15.6133 18.1528L16.1221 20.6558C16.2427 21.2489 17.0903 21.2489 17.2109 20.6558L17.7197 18.1528C17.7642 17.9346 17.9351 17.7638 18.1533 17.7192L20.6562 17.2104C21.2494 17.0898 21.2494 16.2422 20.6562 16.1216L18.1533 15.6128C17.935 15.5682 17.7641 15.3976 17.7197 15.1792L17.2109 12.6763Z" fill="white"/>
</g>
<g clip-path="url(#clip3_1411_113403)">
<path d="M16.667 221.852C20.3487 221.852 23.333 224.837 23.333 228.519C23.3328 232.2 20.3486 235.184 16.667 235.185C12.9852 235.185 10.0002 232.2 10 228.519C10 224.837 12.9851 221.852 16.667 221.852ZM17.2109 224.528C17.0901 223.936 16.2428 223.935 16.1221 224.528L15.6133 227.031C15.5688 227.25 15.3981 227.42 15.1797 227.465L12.6768 227.974C12.0839 228.094 12.0839 228.942 12.6768 229.062L15.1797 229.571C15.398 229.616 15.5687 229.787 15.6133 230.005L16.1221 232.508C16.2427 233.101 17.0903 233.101 17.2109 232.508L17.7197 230.005C17.7642 229.787 17.9351 229.616 18.1533 229.571L20.6562 229.062C21.2494 228.942 21.2494 228.094 20.6562 227.974L18.1533 227.465C17.935 227.42 17.7641 227.25 17.7197 227.031L17.2109 224.528Z" fill="white"/>
</g>
<g clip-path="url(#clip4_1411_113403)">
<path d="M383.331 9.99951C387.013 9.99969 389.997 12.9847 389.997 16.6665C389.997 20.3481 387.013 23.3323 383.331 23.3325C379.649 23.3325 376.664 20.3483 376.664 16.6665C376.664 12.9846 379.649 9.99951 383.331 9.99951ZM383.875 12.6763C383.754 12.0835 382.907 12.0834 382.786 12.6763L382.277 15.1792C382.233 15.3976 382.062 15.5683 381.844 15.6128L379.341 16.1216C378.748 16.2423 378.748 17.0897 379.341 17.2104L381.844 17.7192C382.062 17.7637 382.233 17.9345 382.277 18.1528L382.786 20.6558C382.907 21.2489 383.754 21.2489 383.875 20.6558L384.384 18.1528C384.428 17.9346 384.599 17.7638 384.817 17.7192L387.32 17.2104C387.913 17.0898 387.913 16.2422 387.32 16.1216L384.817 15.6128C384.599 15.5682 384.428 15.3976 384.384 15.1792L383.875 12.6763Z" fill="white"/>
</g>
<g clip-path="url(#clip5_1411_113403)">
<path d="M383.331 221.852C387.013 221.852 389.997 224.837 389.997 228.519C389.997 232.2 387.013 235.184 383.331 235.185C379.649 235.185 376.664 232.2 376.664 228.519C376.664 224.837 379.649 221.852 383.331 221.852ZM383.875 224.528C383.754 223.936 382.907 223.935 382.786 224.528L382.277 227.031C382.233 227.25 382.062 227.42 381.844 227.465L379.341 227.974C378.748 228.094 378.748 228.942 379.341 229.062L381.844 229.571C382.062 229.616 382.233 229.787 382.277 230.005L382.786 232.508C382.907 233.101 383.754 233.101 383.875 232.508L384.384 230.005C384.428 229.787 384.599 229.616 384.817 229.571L387.32 229.062C387.913 228.942 387.913 228.094 387.32 227.974L384.817 227.465C384.599 227.42 384.428 227.25 384.384 227.031L383.875 224.528Z" fill="white"/>
</g>
<path d="M280.93 89.6665C292.998 89.6665 302.782 99.4506 302.782 111.519C302.782 123.587 292.998 133.371 280.93 133.371C268.862 133.37 259.078 123.587 259.078 111.519C259.078 99.4507 268.861 89.6667 280.93 89.6665ZM280.806 95.2222C278.567 95.2222 276.433 95.6746 274.491 96.4917L276.455 99.8931L272.922 101.932L270.959 98.5327C267.552 101.12 265.194 105.019 264.637 109.476H268.566V113.555H264.636C265.191 118.012 267.547 121.909 270.951 124.498L272.916 121.096L276.449 123.136L274.481 126.542C276.426 127.362 278.563 127.815 280.806 127.815C283.045 127.815 285.178 127.362 287.12 126.545L285.157 123.145L288.69 121.105L290.652 124.503C294.061 121.915 296.421 118.015 296.977 113.555H293.045V109.476H296.976C296.418 105.02 294.062 101.124 290.657 98.5366L288.696 101.935L285.163 99.896L287.127 96.4937C285.183 95.675 283.047 95.2222 280.806 95.2222Z" fill="#262626"/>
<path d="M119.259 89.6665C131.327 89.6667 141.11 99.4507 141.11 111.519C141.11 123.587 131.327 133.37 119.259 133.371C107.19 133.371 97.4065 123.587 97.4062 111.519C97.4062 99.4506 107.19 89.6665 119.259 89.6665ZM119.132 95.2222C116.893 95.2222 114.759 95.6745 112.816 96.4917L114.78 99.8931L111.247 101.932L109.285 98.5327C105.878 101.12 103.519 105.018 102.962 109.476H106.892V113.555H102.962C103.517 118.011 105.872 121.909 109.276 124.498L111.241 121.096L114.774 123.136L112.807 126.542C114.751 127.362 116.889 127.815 119.132 127.815C121.371 127.815 123.504 127.362 125.445 126.545L123.483 123.145L127.016 121.105L128.978 124.503C132.386 121.915 134.746 118.015 135.302 113.555H131.371V109.476H135.301C134.744 105.02 132.387 101.124 128.982 98.5366L127.021 101.935L123.488 99.896L125.452 96.4937C123.509 95.6751 121.373 95.2222 119.132 95.2222Z" fill="#262626"/>
<path d="M161.187 80.379C156.474 80.379 152.74 79.0739 149.985 76.4636C147.23 73.817 145.852 70.0465 145.852 65.1522V56.0161C145.852 51.1218 147.23 47.3695 149.985 44.7592C152.74 42.1126 156.474 40.7893 161.187 40.7893C165.864 40.7893 169.472 42.0763 172.009 44.6504C174.583 47.1882 175.87 50.6867 175.87 55.146V55.4723H168.801V54.9285C168.801 52.6807 168.166 50.8318 166.898 49.3816C165.665 47.9314 163.762 47.2063 161.187 47.2063C158.65 47.2063 156.656 47.9858 155.205 49.5447C153.755 51.1037 153.03 53.2245 153.03 55.9074V65.261C153.03 67.9075 153.755 70.0284 155.205 71.6236C156.656 73.1825 158.65 73.962 161.187 73.962C163.762 73.962 165.665 73.2369 166.898 71.7867C168.166 70.3003 168.801 68.4513 168.801 66.2398V65.261H175.87V66.0223C175.87 70.4816 174.583 73.9983 172.009 76.5723C169.472 79.1101 165.864 80.379 161.187 80.379Z" fill="black"/>
<path d="M181.152 61.1176C181.152 50.5967 189.681 42.0679 200.202 42.0679C210.723 42.0679 219.252 50.5967 219.252 61.1176C219.252 71.6384 210.723 80.1673 200.202 80.1673C189.681 80.1673 181.152 71.6384 181.152 61.1176Z" fill="#FF007A"/>
<path d="M224.775 79.6177V73.3094H229.778V47.8589H224.775V41.5506H240.437C245.549 41.5506 249.428 42.8558 252.074 45.4661C254.757 48.0402 256.099 51.8831 256.099 56.995V64.1733C256.099 69.2852 254.757 73.1463 252.074 75.7566C249.428 78.3306 245.549 79.6177 240.437 79.6177H224.775ZM236.956 73.0919H240.546C243.446 73.0919 245.567 72.3306 246.908 70.8079C248.25 69.2852 248.92 67.1462 248.92 64.3909V56.7775C248.92 53.9859 248.25 51.8469 246.908 50.3604C245.567 48.8378 243.446 48.0764 240.546 48.0764H236.956V73.0919ZM262.082 79.6177V41.5506H286.553V48.0764H269.26V57.1581H285.031V63.6839H269.26V73.0919H286.879V79.6177H262.082Z" fill="black"/>
<rect x="303.977" y="46.96" width="10.1711" height="10.1711" fill="#FF007A"/>
<rect x="293.805" y="57.1309" width="10.1711" height="10.1711" fill="#FF007A"/>
<rect x="314.402" y="57.1309" width="10.1711" height="10.1711" fill="#FF007A"/>
<rect x="303.977" y="67.3018" width="10.1711" height="10.1711" fill="#FF007A"/>
<rect x="324.574" y="26.6177" width="10.1711" height="10.1711" fill="#7F30FF"/>
<rect x="314.402" y="36.7891" width="10.1711" height="10.1711" fill="#7F30FF"/>
<rect x="335" y="36.7891" width="10.1711" height="10.1711" fill="#7F30FF"/>
<rect x="324.574" y="46.96" width="10.1711" height="10.1711" fill="#7F30FF"/>
</g>
</g>
<defs>
<filter id="filter0_n_1411_113403" x="0" y="0" width="400" height="245.185" filterUnits="userSpaceOnUse" color-interpolation-filters="sRGB">
<feFlood flood-opacity="0" result="BackgroundImageFix"/>
<feBlend mode="normal" in="SourceGraphic" in2="BackgroundImageFix" result="shape"/>
<feTurbulence type="fractalNoise" baseFrequency="2.8783018589019775 2.8783018589019775" stitchTiles="stitch" numOctaves="3" result="noise" seed="8462" />
<feColorMatrix in="noise" type="luminanceToAlpha" result="alphaNoise" />
<feComponentTransfer in="alphaNoise" result="coloredNoise1">
<feFuncA type="discrete" tableValues="1 1 1 1 1 1 1 1 1 1 1 1 1 1 1 1 1 1 1 1 1 1 1 1 1 1 1 1 1 1 1 1 1 1 1 1 1 1 1 1 1 1 1 1 1 1 1 1 1 1 1 0 0 0 0 0 0 0 0 0 0 0 0 0 0 0 0 0 0 0 0 0 0 0 0 0 0 0 0 0 0 0 0 0 0 0 0 0 0 0 0 0 0 0 0 0 0 0 0 0 "/>
</feComponentTransfer>
<feComposite operator="in" in2="shape" in="coloredNoise1" result="noise1Clipped" />
<feFlood flood-color="rgba(0, 0, 0, 0.25)" result="color1Flood" />
<feComposite operator="in" in2="noise1Clipped" in="color1Flood" result="color1" />
<feMerge result="effect1_noise_1411_113403">
<feMergeNode in="shape" />
<feMergeNode in="color1" />
</feMerge>
</filter>
<clipPath id="clip0_1411_113403">
<rect width="400" height="245.185" rx="16.6765" fill="white"/>
</clipPath>
<clipPath id="clip1_1411_113403">
<rect width="13.3333" height="13.3333" fill="white" transform="translate(193.332 194.074)"/>
</clipPath>
<clipPath id="clip2_1411_113403">
<rect width="13.3333" height="13.3333" fill="white" transform="translate(10 9.99951)"/>
</clipPath>
<clipPath id="clip3_1411_113403">
<rect width="13.3333" height="13.3333" fill="white" transform="translate(10 221.852)"/>
</clipPath>
<clipPath id="clip4_1411_113403">
<rect width="13.3333" height="13.3333" fill="white" transform="translate(376.664 9.99951)"/>
</clipPath>
<clipPath id="clip5_1411_113403">
<rect width="13.3333" height="13.3333" fill="white" transform="translate(376.664 221.852)"/>
</clipPath>
</defs>
</svg>
