<svg width="400" height="246" viewBox="0 0 400 246" fill="none" xmlns="http://www.w3.org/2000/svg">
<g clip-path="url(#clip0_1411_113683)" filter="url(#filter0_n_1411_113683)">
<g opacity="0.8">
<mask id="path-1-outside-1_1411_113683" maskUnits="userSpaceOnUse" x="-0.886719" y="-0.88916" width="401" height="247" fill="black">
<rect fill="white" x="-0.886719" y="-0.88916" width="401" height="247"/>
<path d="M382.595 1.11084C391.595 1.11084 398.891 8.40668 398.892 17.4067V227.778C398.891 236.778 391.595 244.074 382.595 244.074H17.4102C8.41011 244.074 1.11352 236.778 1.11328 227.778V17.4067C1.11344 8.40668 8.41006 1.11084 17.4102 1.11084H382.595ZM105.558 217.387C99.8304 217.387 95.1875 222.03 95.1875 227.757C95.1876 233.485 99.8305 238.127 105.558 238.127C111.285 238.127 115.929 233.485 115.929 227.757C115.929 222.03 111.285 217.387 105.558 217.387ZM294.817 217.387C289.09 217.387 284.447 222.03 284.447 227.757C284.447 233.485 289.09 238.127 294.817 238.127C300.545 238.127 305.187 233.485 305.188 227.757C305.188 222.03 300.545 217.387 294.817 217.387ZM138.891 217.387C137.663 217.387 136.669 218.382 136.669 219.609V229.239C136.669 230.466 137.663 231.46 138.891 231.46H148.521C149.748 231.46 150.742 230.466 150.742 229.239V219.609C150.742 218.382 149.748 217.387 148.521 217.387H138.891ZM251.854 217.387C250.627 217.387 249.633 218.382 249.633 219.609V229.239C249.633 230.466 250.627 231.46 251.854 231.46H261.484C262.712 231.46 263.707 230.466 263.707 229.239V219.609C263.707 218.382 262.712 217.387 261.484 217.387H251.854ZM119.261 89.6294C107.193 89.6296 97.4093 99.4128 97.4092 111.481C97.4092 123.549 107.192 133.333 119.261 133.333C131.329 133.333 141.113 123.549 141.113 111.481C141.113 99.4126 131.329 89.6294 119.261 89.6294ZM280.743 89.6294C268.675 89.6294 258.891 99.4126 258.891 111.481C258.891 123.549 268.675 133.333 280.743 133.333C292.811 133.333 302.595 123.549 302.595 111.481C302.595 99.4127 292.811 89.6296 280.743 89.6294Z"/>
</mask>
<path d="M382.595 1.11084C391.595 1.11084 398.891 8.40668 398.892 17.4067V227.778C398.891 236.778 391.595 244.074 382.595 244.074H17.4102C8.41011 244.074 1.11352 236.778 1.11328 227.778V17.4067C1.11344 8.40668 8.41006 1.11084 17.4102 1.11084H382.595ZM105.558 217.387C99.8304 217.387 95.1875 222.03 95.1875 227.757C95.1876 233.485 99.8305 238.127 105.558 238.127C111.285 238.127 115.929 233.485 115.929 227.757C115.929 222.03 111.285 217.387 105.558 217.387ZM294.817 217.387C289.09 217.387 284.447 222.03 284.447 227.757C284.447 233.485 289.09 238.127 294.817 238.127C300.545 238.127 305.187 233.485 305.188 227.757C305.188 222.03 300.545 217.387 294.817 217.387ZM138.891 217.387C137.663 217.387 136.669 218.382 136.669 219.609V229.239C136.669 230.466 137.663 231.46 138.891 231.46H148.521C149.748 231.46 150.742 230.466 150.742 229.239V219.609C150.742 218.382 149.748 217.387 148.521 217.387H138.891ZM251.854 217.387C250.627 217.387 249.633 218.382 249.633 219.609V229.239C249.633 230.466 250.627 231.46 251.854 231.46H261.484C262.712 231.46 263.707 230.466 263.707 229.239V219.609C263.707 218.382 262.712 217.387 261.484 217.387H251.854ZM119.261 89.6294C107.193 89.6296 97.4093 99.4128 97.4092 111.481C97.4092 123.549 107.192 133.333 119.261 133.333C131.329 133.333 141.113 123.549 141.113 111.481C141.113 99.4126 131.329 89.6294 119.261 89.6294ZM280.743 89.6294C268.675 89.6294 258.891 99.4126 258.891 111.481C258.891 123.549 268.675 133.333 280.743 133.333C292.811 133.333 302.595 123.549 302.595 111.481C302.595 99.4127 292.811 89.6296 280.743 89.6294Z" fill="black"/>
<path d="M398.892 17.4067H400.003V17.4067L398.892 17.4067ZM398.892 227.778L400.003 227.778V227.778H398.892ZM1.11328 227.778H0.00217009V227.778L1.11328 227.778ZM1.11328 17.4067L0.00217009 17.4067V17.4067H1.11328ZM105.558 217.387V216.276H105.558L105.558 217.387ZM95.1875 227.757H94.0764V227.757L95.1875 227.757ZM105.558 238.127L105.558 239.239H105.558V238.127ZM115.929 227.757L117.04 227.757V227.757H115.929ZM294.817 217.387V216.276H294.817L294.817 217.387ZM284.447 227.757H283.336V227.757L284.447 227.757ZM294.817 238.127L294.817 239.239H294.817V238.127ZM305.188 227.757L306.299 227.757V227.757H305.188ZM138.891 217.387V216.276H138.891L138.891 217.387ZM136.669 219.609L135.558 219.609V219.609H136.669ZM136.669 229.239H135.558V229.239L136.669 229.239ZM138.891 231.46L138.891 232.572H138.891V231.46ZM148.521 231.46V232.572H148.521L148.521 231.46ZM150.742 229.239L151.853 229.239V229.239H150.742ZM150.742 219.609H151.853V219.609L150.742 219.609ZM148.521 217.387L148.521 216.276H148.521V217.387ZM251.854 217.387V216.276H251.854L251.854 217.387ZM249.633 219.609L248.522 219.609V219.609H249.633ZM249.633 229.239H248.522V229.239L249.633 229.239ZM251.854 231.46L251.854 232.572H251.854V231.46ZM263.707 229.239L264.818 229.239V229.239H263.707ZM263.707 219.609H264.818V219.609L263.707 219.609ZM119.261 89.6294V88.5183H119.261L119.261 89.6294ZM97.4092 111.481L96.2981 111.481V111.481H97.4092ZM119.261 133.333L119.261 134.445H119.261V133.333ZM141.113 111.481H142.224V111.481L141.113 111.481ZM280.743 89.6294L280.743 88.5183H280.743V89.6294ZM258.891 111.481L257.78 111.481V111.481H258.891ZM280.743 133.333V134.445H280.743L280.743 133.333ZM302.595 111.481H303.706V111.481L302.595 111.481ZM382.595 1.11084V2.22195C390.981 2.22195 397.78 9.0204 397.78 17.4068L398.892 17.4067L400.003 17.4067C400.003 7.79295 392.208 -0.00027132 382.595 -0.00027132V1.11084ZM398.892 17.4067H397.78V227.778H398.892H400.003V17.4067H398.892ZM398.892 227.778L397.78 227.778C397.78 236.164 390.981 242.963 382.595 242.963V244.074V245.185C392.208 245.185 400.002 237.392 400.003 227.778L398.892 227.778ZM382.595 244.074V242.963H17.4102V244.074V245.185H382.595V244.074ZM17.4102 244.074V242.963C9.0237 242.963 2.22462 236.164 2.22439 227.778L1.11328 227.778L0.00217009 227.778C0.00242567 237.392 7.79652 245.185 17.4102 245.185V244.074ZM1.11328 227.778H2.22439V17.4067H1.11328H0.00217009V227.778H1.11328ZM1.11328 17.4067L2.22439 17.4068C2.22454 9.0204 9.02364 2.22195 17.4102 2.22195V1.11084V-0.00027132C7.79647 -0.00027132 0.00233757 7.79295 0.00217009 17.4067L1.11328 17.4067ZM17.4102 1.11084V2.22195H382.595V1.11084V-0.00027132H17.4102V1.11084ZM105.558 217.387L105.558 216.276C99.2168 216.276 94.0764 221.416 94.0764 227.757H95.1875H96.2986C96.2986 222.644 100.444 218.499 105.558 218.498L105.558 217.387ZM95.1875 227.757L94.0764 227.757C94.0765 234.098 99.2168 239.238 105.558 239.239L105.558 238.127L105.558 237.016C100.444 237.016 96.2987 232.871 96.2986 227.757L95.1875 227.757ZM105.558 238.127V239.239C111.898 239.239 117.04 234.098 117.04 227.757L115.929 227.757L114.818 227.757C114.818 232.871 110.671 237.016 105.558 237.016V238.127ZM115.929 227.757H117.04C117.04 221.416 111.899 216.276 105.558 216.276V217.387V218.498C110.672 218.498 114.818 222.644 114.818 227.757H115.929ZM294.817 217.387L294.817 216.276C288.476 216.276 283.336 221.416 283.336 227.757H284.447H285.558C285.558 222.644 289.704 218.498 294.817 218.498L294.817 217.387ZM284.447 227.757L283.336 227.757C283.336 234.098 288.476 239.238 294.817 239.239L294.817 238.127L294.817 237.016C289.704 237.016 285.558 232.871 285.558 227.757L284.447 227.757ZM294.817 238.127V239.239C301.158 239.239 306.299 234.098 306.299 227.757L305.188 227.757L304.076 227.757C304.076 232.871 299.931 237.016 294.817 237.016V238.127ZM305.188 227.757H306.299C306.299 221.416 301.158 216.276 294.817 216.276V217.387V218.498C299.931 218.498 304.076 222.644 304.076 227.757H305.188ZM138.891 217.387L138.891 216.276C137.05 216.276 135.558 217.768 135.558 219.609L136.669 219.609L137.78 219.609C137.78 218.995 138.277 218.498 138.891 218.498L138.891 217.387ZM136.669 219.609H135.558V229.239H136.669H137.78V219.609H136.669ZM136.669 229.239L135.558 229.239C135.558 231.08 137.05 232.571 138.891 232.572L138.891 231.46L138.891 230.349C138.277 230.349 137.78 229.852 137.78 229.239L136.669 229.239ZM138.891 231.46V232.572H148.521V231.46V230.349H138.891V231.46ZM148.521 231.46L148.521 232.572C150.361 232.571 151.853 231.08 151.853 229.239L150.742 229.239L149.631 229.239C149.631 229.852 149.134 230.349 148.52 230.349L148.521 231.46ZM150.742 229.239H151.853V219.609H150.742H149.631V229.239H150.742ZM150.742 219.609L151.853 219.609C151.853 217.768 150.361 216.276 148.521 216.276L148.521 217.387L148.52 218.498C149.134 218.498 149.631 218.995 149.631 219.609L150.742 219.609ZM148.521 217.387V216.276H138.891V217.387V218.498H148.521V217.387ZM251.854 217.387L251.854 216.276C250.014 216.276 248.522 217.768 248.522 219.609L249.633 219.609L250.744 219.609C250.744 218.996 251.241 218.498 251.855 218.498L251.854 217.387ZM249.633 219.609H248.522V229.239H249.633H250.744V219.609H249.633ZM249.633 229.239L248.522 229.239C248.522 231.08 250.014 232.571 251.854 232.572L251.854 231.46L251.855 230.349C251.241 230.349 250.744 229.852 250.744 229.239L249.633 229.239ZM251.854 231.46V232.572H261.484V231.46V230.349H251.854V231.46ZM261.484 231.46V232.572C263.325 232.572 264.818 231.08 264.818 229.239L263.707 229.239L262.596 229.239C262.596 229.852 262.099 230.349 261.484 230.349V231.46ZM263.707 229.239H264.818V219.609H263.707H262.596V229.239H263.707ZM263.707 219.609L264.818 219.609C264.818 217.767 263.325 216.276 261.484 216.276V217.387V218.498C262.099 218.498 262.596 218.996 262.596 219.609L263.707 219.609ZM261.484 217.387V216.276H251.854V217.387V218.498H261.484V217.387ZM119.261 89.6294L119.261 88.5183C106.579 88.5185 96.2982 98.7991 96.2981 111.481L97.4092 111.481L98.5203 111.481C98.5204 100.026 107.806 90.7407 119.261 90.7405L119.261 89.6294ZM97.4092 111.481H96.2981C96.2981 124.163 106.579 134.444 119.261 134.445L119.261 133.333L119.261 132.222C107.806 132.222 98.5203 122.936 98.5203 111.481H97.4092ZM119.261 133.333V134.445C131.943 134.445 142.224 124.163 142.224 111.481H141.113H140.002C140.002 122.936 130.716 132.222 119.261 132.222V133.333ZM141.113 111.481L142.224 111.481C142.224 98.7989 131.943 88.5183 119.261 88.5183V89.6294V90.7405C130.716 90.7405 140.002 100.026 140.002 111.481L141.113 111.481ZM280.743 89.6294V88.5183C268.061 88.5183 257.78 98.7989 257.78 111.481L258.891 111.481L260.002 111.481C260.002 100.026 269.288 90.7405 280.743 90.7405V89.6294ZM258.891 111.481H257.78C257.78 124.163 268.061 134.445 280.743 134.445V133.333V132.222C269.288 132.222 260.002 122.936 260.002 111.481H258.891ZM280.743 133.333L280.743 134.445C293.425 134.444 303.706 124.163 303.706 111.481H302.595H301.484C301.484 122.936 292.198 132.222 280.743 132.222L280.743 133.333ZM302.595 111.481L303.706 111.481C303.706 98.7991 293.425 88.5185 280.743 88.5183L280.743 89.6294L280.743 90.7405C292.198 90.7407 301.484 100.026 301.484 111.481L302.595 111.481Z" fill="black" mask="url(#path-1-outside-1_1411_113683)"/>
</g>
<path d="M103.99 157.235V161.391H95.314V165.88H101.806V169.915H95.314V178.53H90.1268V157.235H103.99ZM114.421 178.772C112.763 178.772 111.266 178.419 109.931 177.711C108.617 177.003 107.575 175.992 106.807 174.677C106.059 173.363 105.685 171.826 105.685 170.066C105.685 168.327 106.069 166.8 106.837 165.486C107.606 164.151 108.657 163.13 109.992 162.422C111.327 161.714 112.823 161.36 114.482 161.36C116.14 161.36 117.636 161.714 118.971 162.422C120.306 163.13 121.357 164.151 122.126 165.486C122.894 166.8 123.279 168.327 123.279 170.066C123.279 171.806 122.884 173.343 122.096 174.677C121.327 175.992 120.265 177.003 118.91 177.711C117.576 178.419 116.079 178.772 114.421 178.772ZM114.421 174.283C115.412 174.283 116.251 173.919 116.939 173.191C117.647 172.463 118 171.421 118 170.066C118 168.712 117.657 167.67 116.969 166.942C116.302 166.214 115.473 165.85 114.482 165.85C113.47 165.85 112.631 166.214 111.964 166.942C111.296 167.65 110.963 168.691 110.963 170.066C110.963 171.421 111.286 172.463 111.934 173.191C112.601 173.919 113.43 174.283 114.421 174.283ZM131.218 164.424C131.824 163.494 132.583 162.766 133.493 162.24C134.403 161.694 135.414 161.421 136.526 161.421V166.912H135.101C133.806 166.912 132.836 167.195 132.188 167.761C131.541 168.307 131.218 169.278 131.218 170.673V178.53H126.031V161.603H131.218V164.424ZM149.35 178.53L144.193 171.432V178.53H139.006V156.082H144.193V168.489L149.319 161.603H155.72L148.682 170.097L155.781 178.53H149.35ZM167.191 174.131V178.53H164.552C162.671 178.53 161.205 178.075 160.154 177.165C159.102 176.234 158.576 174.728 158.576 172.645V165.911H156.514V161.603H158.576V157.478H163.763V161.603H167.161V165.911H163.763V172.706C163.763 173.211 163.885 173.575 164.127 173.798C164.37 174.02 164.775 174.131 165.341 174.131H167.191ZM177.786 178.772C176.127 178.772 174.631 178.419 173.296 177.711C171.982 177.003 170.94 175.992 170.172 174.677C169.423 173.363 169.049 171.826 169.049 170.066C169.049 168.327 169.433 166.8 170.202 165.486C170.97 164.151 172.022 163.13 173.357 162.422C174.691 161.714 176.188 161.36 177.846 161.36C179.505 161.36 181.001 161.714 182.336 162.422C183.67 163.13 184.722 164.151 185.491 165.486C186.259 166.8 186.643 168.327 186.643 170.066C186.643 171.806 186.249 173.343 185.46 174.677C184.692 175.992 183.63 177.003 182.275 177.711C180.94 178.419 179.444 178.772 177.786 178.772ZM177.786 174.283C178.777 174.283 179.616 173.919 180.303 173.191C181.011 172.463 181.365 171.421 181.365 170.066C181.365 168.712 181.021 167.67 180.334 166.942C179.666 166.214 178.837 165.85 177.846 165.85C176.835 165.85 175.996 166.214 175.328 166.942C174.661 167.65 174.327 168.691 174.327 170.066C174.327 171.421 174.651 172.463 175.298 173.191C175.966 173.919 176.795 174.283 177.786 174.283ZM194.582 164C195.068 163.211 195.765 162.574 196.675 162.089C197.585 161.603 198.627 161.36 199.8 161.36C201.195 161.36 202.459 161.714 203.592 162.422C204.724 163.13 205.614 164.141 206.261 165.456C206.928 166.77 207.262 168.297 207.262 170.036C207.262 171.775 206.928 173.312 206.261 174.647C205.614 175.961 204.724 176.983 203.592 177.711C202.459 178.419 201.195 178.772 199.8 178.772C198.607 178.772 197.565 178.54 196.675 178.075C195.786 177.589 195.088 176.952 194.582 176.164V178.53H189.395V156.082H194.582V164ZM201.984 170.036C201.984 168.742 201.62 167.731 200.892 167.003C200.184 166.254 199.304 165.88 198.253 165.88C197.221 165.88 196.342 166.254 195.614 167.003C194.906 167.751 194.552 168.772 194.552 170.066C194.552 171.361 194.906 172.382 195.614 173.13C196.342 173.879 197.221 174.253 198.253 174.253C199.284 174.253 200.164 173.879 200.892 173.13C201.62 172.362 201.984 171.33 201.984 170.036ZM225.939 169.793C225.939 170.279 225.909 170.784 225.848 171.31H214.109C214.19 172.362 214.524 173.171 215.11 173.737C215.717 174.283 216.455 174.556 217.324 174.556C218.619 174.556 219.519 174.01 220.024 172.918H225.545C225.262 174.03 224.746 175.031 223.998 175.921C223.27 176.811 222.35 177.509 221.238 178.014C220.125 178.52 218.882 178.772 217.506 178.772C215.848 178.772 214.372 178.419 213.078 177.711C211.783 177.003 210.772 175.992 210.044 174.677C209.316 173.363 208.952 171.826 208.952 170.066C208.952 168.307 209.306 166.77 210.014 165.456C210.742 164.141 211.753 163.13 213.047 162.422C214.342 161.714 215.828 161.36 217.506 161.36C219.144 161.36 220.601 161.704 221.875 162.392C223.149 163.079 224.14 164.06 224.847 165.334C225.575 166.608 225.939 168.095 225.939 169.793ZM220.631 168.428C220.631 167.539 220.328 166.831 219.721 166.305C219.114 165.779 218.356 165.516 217.446 165.516C216.576 165.516 215.838 165.769 215.231 166.275C214.645 166.78 214.281 167.498 214.139 168.428H220.631ZM233.863 164.424C234.47 163.494 235.228 162.766 236.138 162.24C237.048 161.694 238.059 161.421 239.172 161.421V166.912H237.746C236.452 166.912 235.481 167.195 234.834 167.761C234.187 168.307 233.863 169.278 233.863 170.673V178.53H228.676V161.603H233.863V164.424ZM261.942 157.235V161.391H253.266V165.88H259.758V169.915H253.266V178.53H248.079V157.235H261.942ZM280.624 169.793C280.624 170.279 280.594 170.784 280.533 171.31H268.794C268.875 172.362 269.208 173.171 269.795 173.737C270.402 174.283 271.14 174.556 272.009 174.556C273.304 174.556 274.204 174.01 274.709 172.918H280.23C279.947 174.03 279.431 175.031 278.683 175.921C277.955 176.811 277.035 177.509 275.923 178.014C274.81 178.52 273.567 178.772 272.191 178.772C270.533 178.772 269.057 178.419 267.763 177.711C266.468 177.003 265.457 175.992 264.729 174.677C264.001 173.363 263.637 171.826 263.637 170.066C263.637 168.307 263.991 166.77 264.699 165.456C265.427 164.141 266.438 163.13 267.732 162.422C269.026 161.714 270.513 161.36 272.191 161.36C273.829 161.36 275.286 161.704 276.56 162.392C277.834 163.079 278.825 164.06 279.532 165.334C280.26 166.608 280.624 168.095 280.624 169.793ZM275.316 168.428C275.316 167.539 275.012 166.831 274.406 166.305C273.799 165.779 273.041 165.516 272.131 165.516C271.261 165.516 270.523 165.769 269.916 166.275C269.33 166.78 268.966 167.498 268.824 168.428H275.316ZM290.247 178.772C288.771 178.772 287.456 178.52 286.303 178.014C285.151 177.509 284.241 176.821 283.573 175.951C282.906 175.062 282.532 174.071 282.451 172.979H287.577C287.638 173.565 287.911 174.04 288.396 174.404C288.882 174.768 289.478 174.95 290.186 174.95C290.833 174.95 291.329 174.829 291.673 174.586C292.037 174.323 292.219 173.99 292.219 173.585C292.219 173.1 291.966 172.746 291.46 172.524C290.955 172.281 290.136 172.018 289.003 171.735C287.79 171.452 286.779 171.159 285.97 170.855C285.161 170.532 284.463 170.036 283.877 169.369C283.29 168.681 282.997 167.761 282.997 166.608C282.997 165.638 283.26 164.758 283.786 163.969C284.332 163.16 285.12 162.523 286.152 162.058C287.203 161.593 288.447 161.36 289.883 161.36C292.006 161.36 293.675 161.886 294.888 162.938C296.122 163.989 296.829 165.385 297.011 167.124H292.219C292.138 166.538 291.875 166.072 291.43 165.729C291.005 165.385 290.439 165.213 289.731 165.213C289.124 165.213 288.659 165.334 288.336 165.577C288.012 165.799 287.85 166.113 287.85 166.517C287.85 167.003 288.103 167.367 288.609 167.609C289.135 167.852 289.943 168.095 291.035 168.337C292.289 168.661 293.311 168.985 294.099 169.308C294.888 169.611 295.576 170.117 296.162 170.825C296.769 171.512 297.082 172.443 297.102 173.616C297.102 174.607 296.819 175.496 296.253 176.285C295.707 177.054 294.908 177.66 293.857 178.105C292.825 178.55 291.622 178.772 290.247 178.772ZM309.71 174.131V178.53H307.071C305.19 178.53 303.724 178.075 302.672 177.165C301.621 176.234 301.095 174.728 301.095 172.645V165.911H299.032V161.603H301.095V157.478H306.282V161.603H309.68V165.911H306.282V172.706C306.282 173.211 306.403 173.575 306.646 173.798C306.889 174.02 307.293 174.131 307.859 174.131H309.71Z" fill="white"/>
<path d="M280.371 83.7036C295.712 83.7036 308.149 96.1407 308.149 111.482C308.149 126.823 295.712 139.259 280.371 139.259C265.03 139.259 252.594 126.823 252.594 111.482C252.594 96.1408 265.03 83.7039 280.371 83.7036ZM280.742 88.5181C268.06 88.5182 257.779 98.7999 257.779 111.482C257.78 124.164 268.06 134.445 280.742 134.445C293.424 134.445 303.705 124.164 303.705 111.482C303.705 98.7998 293.424 88.5181 280.742 88.5181Z" fill="#FF7C7C"/>
<path d="M46.8505 101.111C42.9842 131.762 27.9386 204.764 31.8504 228.334M43.332 237.963C69.0728 238.334 353.888 237.963 356.665 237.963M303.147 95.9263C316.26 115.359 358.452 193.064 367.943 223.334" stroke="#FF7C7C" stroke-width="0.37037"/>
<path d="M43.332 214.444C49.8775 214.444 55.1844 219.75 55.1846 226.296C55.1846 232.841 49.8776 238.148 43.332 238.148C36.7866 238.148 31.4805 232.841 31.4805 226.296C31.4807 219.751 36.7867 214.444 43.332 214.444ZM43.332 221.308C40.5761 221.308 38.3419 223.542 38.3418 226.298C38.3418 229.054 40.5761 231.288 43.332 231.288C46.0881 231.288 48.3223 229.054 48.3223 226.298C48.3222 223.542 46.088 221.308 43.332 221.308Z" fill="#FF7C7C"/>
<path d="M356.669 214.444C363.214 214.445 368.52 219.751 368.521 226.296C368.521 232.841 363.214 238.148 356.669 238.148C350.123 238.148 344.816 232.841 344.816 226.296C344.817 219.75 350.123 214.444 356.669 214.444ZM356.669 221.308C353.913 221.308 351.679 223.542 351.679 226.298C351.679 229.054 353.913 231.288 356.669 231.288C359.425 231.288 361.659 229.054 361.659 226.298C361.659 223.542 359.425 221.308 356.669 221.308Z" fill="#FF7C7C"/>
<path d="M90.1416 189.815H312.815C317.978 189.815 322.484 193.315 323.761 198.318L335.581 244.629H64.8281L79.3516 197.767C80.8171 193.038 85.191 189.815 90.1416 189.815Z" stroke="#FF7C7C" stroke-width="1.11111"/>
<circle cx="105.554" cy="227.778" r="9.81481" stroke="#FF7C7C" stroke-width="1.11111"/>
<circle cx="294.816" cy="227.778" r="9.81481" stroke="#FF7C7C" stroke-width="1.11111"/>
<rect x="137.224" y="217.963" width="12.963" height="12.963" rx="1.66667" stroke="#FF7C7C" stroke-width="1.11111"/>
<path d="M192.961 231.481C192.961 230.254 193.956 229.259 195.183 229.259H204.813C206.04 229.259 207.035 230.254 207.035 231.481V238.148H192.961V231.481Z" fill="#FF7C7C"/>
<rect x="250.184" y="217.963" width="12.963" height="12.963" rx="1.66667" stroke="#FF7C7C" stroke-width="1.11111"/>
<g clip-path="url(#clip1_1411_113683)">
<path d="M199.999 194.074C203.681 194.074 206.665 197.059 206.665 200.741C206.665 204.423 203.681 207.407 199.999 207.407C196.317 207.407 193.332 204.423 193.332 200.741C193.332 197.059 196.317 194.074 199.999 194.074ZM200.543 196.751C200.422 196.158 199.575 196.158 199.454 196.751L198.945 199.254C198.901 199.472 198.73 199.643 198.512 199.688L196.009 200.196C195.416 200.317 195.416 201.164 196.009 201.285L198.512 201.794C198.73 201.838 198.901 202.009 198.945 202.228L199.454 204.73C199.575 205.324 200.422 205.324 200.543 204.73L201.052 202.228C201.096 202.009 201.267 201.838 201.485 201.794L203.988 201.285C204.581 201.165 204.581 200.317 203.988 200.196L201.485 199.688C201.267 199.643 201.096 199.472 201.052 199.254L200.543 196.751Z" fill="#FF7C7C"/>
</g>
<g clip-path="url(#clip2_1411_113683)">
<path d="M16.667 10C20.3487 10.0002 23.333 12.9852 23.333 16.667C23.3328 20.3486 20.3486 23.3328 16.667 23.333C12.9852 23.333 10.0002 20.3487 10 16.667C10 12.9851 12.9851 10 16.667 10ZM17.2109 12.6768C17.0901 12.0839 16.2428 12.0839 16.1221 12.6768L15.6133 15.1797C15.5688 15.3981 15.3981 15.5688 15.1797 15.6133L12.6768 16.1221C12.0839 16.2428 12.0839 17.0901 12.6768 17.2109L15.1797 17.7197C15.398 17.7641 15.5687 17.935 15.6133 18.1533L16.1221 20.6562C16.2427 21.2494 17.0903 21.2494 17.2109 20.6562L17.7197 18.1533C17.7642 17.9351 17.9351 17.7642 18.1533 17.7197L20.6562 17.2109C21.2494 17.0903 21.2494 16.2427 20.6562 16.1221L18.1533 15.6133C17.935 15.5687 17.7641 15.398 17.7197 15.1797L17.2109 12.6768Z" fill="#FF7C7C"/>
</g>
<g clip-path="url(#clip3_1411_113683)">
<path d="M16.667 221.852C20.3487 221.852 23.333 224.837 23.333 228.519C23.3328 232.201 20.3486 235.185 16.667 235.185C12.9852 235.185 10.0002 232.201 10 228.519C10 224.837 12.9851 221.852 16.667 221.852ZM17.2109 224.529C17.0901 223.936 16.2428 223.936 16.1221 224.529L15.6133 227.032C15.5688 227.25 15.3981 227.421 15.1797 227.465L12.6768 227.974C12.0839 228.095 12.0839 228.942 12.6768 229.063L15.1797 229.572C15.398 229.616 15.5687 229.787 15.6133 230.005L16.1221 232.508C16.2427 233.101 17.0903 233.101 17.2109 232.508L17.7197 230.005C17.7642 229.787 17.9351 229.616 18.1533 229.572L20.6562 229.063C21.2494 228.942 21.2494 228.095 20.6562 227.974L18.1533 227.465C17.935 227.421 17.7641 227.25 17.7197 227.032L17.2109 224.529Z" fill="#FF7C7C"/>
</g>
<g clip-path="url(#clip4_1411_113683)">
<path d="M383.331 10C387.013 10.0002 389.997 12.9852 389.997 16.667C389.997 20.3486 387.013 23.3328 383.331 23.333C379.649 23.333 376.664 20.3487 376.664 16.667C376.664 12.9851 379.649 10 383.331 10ZM383.875 12.6768C383.754 12.0839 382.907 12.0839 382.786 12.6768L382.277 15.1797C382.233 15.3981 382.062 15.5688 381.844 15.6133L379.341 16.1221C378.748 16.2428 378.748 17.0901 379.341 17.2109L381.844 17.7197C382.062 17.7641 382.233 17.935 382.277 18.1533L382.786 20.6562C382.907 21.2494 383.754 21.2494 383.875 20.6562L384.384 18.1533C384.428 17.9351 384.599 17.7642 384.817 17.7197L387.32 17.2109C387.913 17.0903 387.913 16.2427 387.32 16.1221L384.817 15.6133C384.599 15.5687 384.428 15.398 384.384 15.1797L383.875 12.6768Z" fill="#FF7C7C"/>
</g>
<g clip-path="url(#clip5_1411_113683)">
<path d="M383.331 221.852C387.013 221.852 389.997 224.837 389.997 228.519C389.997 232.2 387.013 235.184 383.331 235.185C379.649 235.185 376.664 232.2 376.664 228.519C376.664 224.837 379.649 221.852 383.331 221.852ZM383.875 224.528C383.754 223.936 382.907 223.935 382.786 224.528L382.277 227.031C382.233 227.25 382.062 227.42 381.844 227.465L379.341 227.974C378.748 228.094 378.748 228.942 379.341 229.062L381.844 229.571C382.062 229.616 382.233 229.787 382.277 230.005L382.786 232.508C382.907 233.101 383.754 233.101 383.875 232.508L384.384 230.005C384.428 229.787 384.599 229.616 384.817 229.571L387.32 229.062C387.913 228.942 387.913 228.094 387.32 227.974L384.817 227.465C384.599 227.42 384.428 227.25 384.384 227.031L383.875 224.528Z" fill="#FF7C7C"/>
</g>
<path d="M280.93 89.6665C292.998 89.6665 302.782 99.4506 302.782 111.519C302.782 123.587 292.998 133.371 280.93 133.371C268.862 133.37 259.078 123.587 259.078 111.519C259.078 99.4507 268.861 89.6667 280.93 89.6665ZM280.806 95.2222C278.567 95.2222 276.433 95.6746 274.491 96.4917L276.455 99.8931L272.922 101.932L270.959 98.5327C267.552 101.12 265.194 105.019 264.637 109.476H268.566V113.555H264.636C265.191 118.012 267.547 121.909 270.951 124.498L272.916 121.096L276.449 123.136L274.481 126.542C276.426 127.362 278.563 127.815 280.806 127.815C283.045 127.815 285.178 127.362 287.12 126.545L285.157 123.145L288.69 121.105L290.652 124.503C294.061 121.915 296.421 118.015 296.977 113.555H293.045V109.476H296.976C296.418 105.02 294.062 101.124 290.657 98.5366L288.696 101.935L285.163 99.896L287.127 96.4937C285.183 95.675 283.047 95.2222 280.806 95.2222Z" fill="white"/>
<path d="M119.259 89.6665C131.327 89.6667 141.11 99.4507 141.11 111.519C141.11 123.587 131.327 133.37 119.259 133.371C107.19 133.371 97.4065 123.587 97.4062 111.519C97.4062 99.4506 107.19 89.6665 119.259 89.6665ZM119.132 95.2222C116.893 95.2222 114.759 95.6745 112.816 96.4917L114.78 99.8931L111.247 101.932L109.285 98.5327C105.878 101.12 103.519 105.018 102.962 109.476H106.892V113.555H102.962C103.517 118.011 105.872 121.909 109.276 124.498L111.241 121.096L114.774 123.136L112.807 126.542C114.751 127.362 116.889 127.815 119.132 127.815C121.371 127.815 123.504 127.362 125.445 126.545L123.483 123.145L127.016 121.105L128.978 124.503C132.386 121.915 134.746 118.015 135.302 113.555H131.371V109.476H135.301C134.744 105.02 132.387 101.124 128.982 98.5366L127.021 101.935L123.488 99.896L125.452 96.4937C123.509 95.6751 121.373 95.2222 119.132 95.2222Z" fill="white"/>
<path d="M134.214 30.7373V51.6701C132.075 52.131 130.182 53.3672 128.9 55.1409C127.617 56.9145 127.036 59.1001 127.268 61.277C127.499 63.4538 128.527 65.468 130.154 66.9318C131.781 68.3955 133.892 69.2053 136.08 69.2053C138.268 69.2053 140.378 68.3955 142.005 66.9318C143.632 65.468 144.66 63.4538 144.892 61.277C145.123 59.1001 144.542 56.9145 143.26 55.1409C141.977 53.3672 140.084 52.131 137.945 51.6701V44.2372H155.669C158.142 44.2344 160.513 43.2501 162.262 41.5003C164.011 39.7505 164.995 37.3781 164.997 34.9035V30.623C167.107 30.0465 168.93 28.7095 170.113 26.8694C171.297 25.0293 171.759 22.8161 171.41 20.6558C171.061 18.4955 169.925 16.5408 168.222 15.1678C166.519 13.7949 164.368 13.1008 162.184 13.2192C160 13.3375 157.937 14.2599 156.392 15.8089C154.847 17.3578 153.93 19.4238 153.816 21.6092C153.702 23.7946 154.4 25.945 155.775 27.6464C157.151 29.3478 159.106 30.4801 161.266 30.8252V34.9035C161.264 36.3883 160.674 37.8117 159.625 38.8616C158.576 39.9114 157.153 40.502 155.669 40.5037H137.945V30.7373C140.084 30.2765 141.977 29.0402 143.26 27.2666C144.542 25.4929 145.123 23.3073 144.892 21.1305C144.66 18.9536 143.632 16.9394 142.005 15.4757C140.378 14.012 138.268 13.2021 136.08 13.2021C133.892 13.2021 131.781 14.012 130.154 15.4757C128.527 16.9394 127.499 18.9536 127.268 21.1305C127.036 23.3073 127.617 25.4929 128.9 27.2666C130.182 29.0402 132.075 30.2765 134.214 30.7373ZM157.535 22.0698C157.535 21.0545 157.836 20.0619 158.399 19.2178C158.963 18.3735 159.764 17.7156 160.702 17.327C161.639 16.9385 162.671 16.8368 163.666 17.0349C164.662 17.233 165.576 17.7219 166.293 18.4398C167.011 19.1578 167.499 20.0725 167.697 21.0683C167.895 22.0641 167.794 23.0963 167.405 24.0343C167.017 24.9723 166.359 25.774 165.516 26.3381C164.672 26.9022 163.68 27.2033 162.665 27.2033C161.305 27.2018 160.001 26.6604 159.039 25.698C158.077 24.7356 157.536 23.4308 157.535 22.0698ZM141.21 60.3377C141.21 61.353 140.909 62.3455 140.346 63.1897C139.782 64.0339 138.981 64.6919 138.043 65.0804C137.106 65.469 136.074 65.5706 135.079 65.3726C134.084 65.1745 133.169 64.6856 132.452 63.9676C131.734 63.2497 131.246 62.335 131.048 61.3392C130.85 60.3434 130.951 59.3112 131.34 58.3732C131.728 57.4352 132.386 56.6334 133.229 56.0693C134.073 55.5053 135.065 55.2042 136.08 55.2042C137.44 55.2057 138.744 55.747 139.706 56.7094C140.668 57.6718 141.209 58.9767 141.21 60.3377ZM136.08 16.9363C137.094 16.9363 138.086 17.2373 138.93 17.8014C139.774 18.3655 140.431 19.1672 140.82 20.1053C141.208 21.0433 141.31 22.0755 141.112 23.0713C140.914 24.0671 140.425 24.9818 139.708 25.6997C138.99 26.4176 138.076 26.9066 137.081 27.1046C136.085 27.3027 135.054 27.201 134.116 26.8125C133.179 26.424 132.378 25.766 131.814 24.9218C131.25 24.0776 130.949 23.0851 130.949 22.0698C130.951 20.7087 131.492 19.4039 132.453 18.4415C133.415 17.4791 134.719 16.9378 136.08 16.9363Z" fill="white"/>
<path d="M106.312 75.739V72.4838H109.146C109.962 72.4838 110.545 72.3088 110.895 71.9588C111.268 71.6321 111.454 71.0721 111.454 70.2787V53.8278H107.047V50.6776H111.454V48.2625C111.454 46.3257 111.932 44.9373 112.888 44.0972C113.844 43.2572 115.209 42.8372 116.981 42.8372H121.213V46.0923H117.436C116.619 46.0923 116.036 46.2557 115.687 46.5824C115.337 46.909 115.162 47.4808 115.162 48.2975V50.6776H121.213V53.8278H115.162V70.3137C115.162 72.2505 114.684 73.6389 113.728 74.4789C112.772 75.319 111.396 75.739 109.6 75.739H106.312Z" fill="white"/>
<path d="M152.064 68.0386V64.8184H156.296V55.0528C156.296 54.2828 155.923 53.8978 155.177 53.8978H152.414V50.6776H156.576C157.532 50.6776 158.313 50.9576 158.92 51.5176C159.526 52.0543 159.829 52.8127 159.829 53.7928V54.2128H160.004C160.26 52.9061 160.808 51.926 161.648 51.2726C162.511 50.5959 163.758 50.2576 165.391 50.2576H168.084V54.1778H164.306C162.93 54.1778 161.869 54.6562 161.123 55.6129C160.377 56.5696 160.004 57.713 160.004 59.0431V64.8184H165.391V68.0386H152.064Z" fill="white"/>
<path d="M173.772 68.0386V42.8372H177.479V57.958L184.125 50.6776H188.777L181.537 58.378V58.658L189.722 68.0386H185.209L177.479 59.1131V68.0386H173.772Z" fill="white"/>
<path d="M203.699 68.0386C201.997 68.0386 200.644 67.6302 199.642 66.8135C198.639 65.9735 198.138 64.4917 198.138 62.3683V53.8278H193.765V50.6776H196.354C197.543 50.6776 198.243 50.0942 198.453 48.9275L198.977 46.1273H201.845V50.6776H208.701V53.8278H201.845V62.2983C201.845 63.2083 202.044 63.85 202.44 64.2234C202.86 64.5734 203.571 64.7484 204.574 64.7484H208.631V68.0386H203.699Z" fill="white"/>
<path d="M222.784 68.4586C221.128 68.4586 219.647 68.0853 218.341 67.3385C217.036 66.5918 216.01 65.5418 215.263 64.1884C214.517 62.8116 214.144 61.2015 214.144 59.3581C214.144 57.5147 214.517 55.9162 215.263 54.5628C216.01 53.1861 217.036 52.1243 218.341 51.3776C219.647 50.6309 221.14 50.2576 222.819 50.2576C224.498 50.2576 225.978 50.6309 227.261 51.3776C228.567 52.1243 229.581 53.1861 230.304 54.5628C231.05 55.9162 231.423 57.5147 231.423 59.3581C231.423 61.2015 231.05 62.8116 230.304 64.1884C229.558 65.5418 228.532 66.5918 227.226 67.3385C225.943 68.0853 224.463 68.4586 222.784 68.4586ZM222.784 64.9234C223.67 64.9234 224.486 64.7251 225.232 64.3284C225.978 63.9317 226.573 63.325 227.016 62.5083C227.482 61.6682 227.716 60.6182 227.716 59.3581C227.716 58.0747 227.482 57.0246 227.016 56.2079C226.573 55.3912 225.978 54.7845 225.232 54.3878C224.509 53.9911 223.705 53.7928 222.819 53.7928C221.932 53.7928 221.116 53.9911 220.37 54.3878C219.624 54.7845 219.018 55.3912 218.551 56.2079C218.108 57.0246 217.887 58.0747 217.887 59.3581C217.887 61.2715 218.365 62.6833 219.321 63.5933C220.3 64.48 221.454 64.9234 222.784 64.9234Z" fill="white"/>
<path d="M244.701 68.4586C243.419 68.4586 242.334 68.2019 241.448 67.6886C240.585 67.1519 239.921 66.4168 239.455 65.4834H239.245L238.93 68.0386H235.747V42.8372H239.455V52.9177C239.874 52.2177 240.539 51.5993 241.448 51.0626C242.358 50.5259 243.442 50.2576 244.701 50.2576C246.147 50.2576 247.441 50.6076 248.584 51.3076C249.726 51.9843 250.624 52.9994 251.277 54.3528C251.953 55.7062 252.291 57.3746 252.291 59.3581C252.291 61.3415 251.953 63.01 251.277 64.3634C250.624 65.7168 249.726 66.7435 248.584 67.4435C247.441 68.1203 246.147 68.4586 244.701 68.4586ZM243.932 64.9234C245.261 64.9234 246.357 64.4684 247.22 63.5583C248.106 62.6249 248.549 61.2365 248.549 59.3931C248.549 57.5263 248.106 56.1262 247.22 55.1929C246.357 54.2595 245.261 53.7928 243.932 53.7928C242.603 53.7928 241.495 54.2595 240.609 55.1929C239.746 56.1029 239.315 57.4913 239.315 59.3581C239.315 61.2015 239.746 62.5899 240.609 63.5233C241.495 64.4567 242.603 64.9234 243.932 64.9234Z" fill="white"/>
<path d="M264.94 68.4586C263.261 68.4586 261.78 68.0853 260.498 67.3385C259.215 66.5685 258.212 65.5068 257.49 64.1534C256.767 62.7999 256.405 61.2249 256.405 59.4281C256.405 57.608 256.755 56.0096 257.455 54.6328C258.177 53.2561 259.18 52.1827 260.463 51.4126C261.769 50.6426 263.273 50.2576 264.975 50.2576C266.654 50.2576 268.1 50.6426 269.312 51.4126C270.525 52.1593 271.457 53.1627 272.11 54.4228C272.787 55.6829 273.125 57.0713 273.125 58.588C273.125 58.8214 273.125 59.0781 273.125 59.3581C273.125 59.6148 273.113 59.9065 273.09 60.2331H260.043C260.16 61.8432 260.684 63.0683 261.617 63.9083C262.55 64.7251 263.646 65.1334 264.905 65.1334C266.001 65.1334 266.864 64.9117 267.493 64.4684C268.146 64.0017 268.624 63.3716 268.927 62.5783H272.67C272.25 64.235 271.376 65.6351 270.047 66.7785C268.718 67.8986 267.015 68.4586 264.94 68.4586ZM264.94 53.4778C263.797 53.4778 262.783 53.8278 261.897 54.5278C261.011 55.2045 260.439 56.1612 260.183 57.398H269.417C269.324 56.2312 268.869 55.2862 268.053 54.5628C267.237 53.8394 266.199 53.4778 264.94 53.4778Z" fill="white"/>
<path d="M277.903 68.0386V64.8184H282.135V55.0528C282.135 54.2828 281.762 53.8978 281.016 53.8978H278.253V50.6776H282.415C283.371 50.6776 284.153 50.9576 284.759 51.5176C285.365 52.0543 285.668 52.8127 285.668 53.7928V54.2128H285.843C286.1 52.9061 286.648 51.926 287.487 51.2726C288.35 50.5959 289.597 50.2576 291.23 50.2576H293.923V54.1778H290.145C288.77 54.1778 287.709 54.6562 286.962 55.6129C286.216 56.5696 285.843 57.713 285.843 59.0431V64.8184H291.23V68.0386H277.903Z" fill="white"/>
</g>
<defs>
<filter id="filter0_n_1411_113683" x="0" y="0" width="400" height="245.185" filterUnits="userSpaceOnUse" color-interpolation-filters="sRGB">
<feFlood flood-opacity="0" result="BackgroundImageFix"/>
<feBlend mode="normal" in="SourceGraphic" in2="BackgroundImageFix" result="shape"/>
<feTurbulence type="fractalNoise" baseFrequency="2.8783018589019775 2.8783018589019775" stitchTiles="stitch" numOctaves="3" result="noise" seed="8462" />
<feColorMatrix in="noise" type="luminanceToAlpha" result="alphaNoise" />
<feComponentTransfer in="alphaNoise" result="coloredNoise1">
<feFuncA type="discrete" tableValues="1 1 1 1 1 1 1 1 1 1 1 1 1 1 1 1 1 1 1 1 1 1 1 1 1 1 1 1 1 1 1 1 1 1 1 1 1 1 1 1 1 1 1 1 1 1 1 1 1 1 1 0 0 0 0 0 0 0 0 0 0 0 0 0 0 0 0 0 0 0 0 0 0 0 0 0 0 0 0 0 0 0 0 0 0 0 0 0 0 0 0 0 0 0 0 0 0 0 0 0 "/>
</feComponentTransfer>
<feComposite operator="in" in2="shape" in="coloredNoise1" result="noise1Clipped" />
<feFlood flood-color="rgba(0, 0, 0, 0.25)" result="color1Flood" />
<feComposite operator="in" in2="noise1Clipped" in="color1Flood" result="color1" />
<feMerge result="effect1_noise_1411_113683">
<feMergeNode in="shape" />
<feMergeNode in="color1" />
</feMerge>
</filter>
<clipPath id="clip0_1411_113683">
<rect width="400" height="245.185" fill="white"/>
</clipPath>
<clipPath id="clip1_1411_113683">
<rect width="13.3333" height="13.3333" fill="white" transform="translate(193.332 194.074)"/>
</clipPath>
<clipPath id="clip2_1411_113683">
<rect width="13.3333" height="13.3333" fill="white" transform="translate(10 10)"/>
</clipPath>
<clipPath id="clip3_1411_113683">
<rect width="13.3333" height="13.3333" fill="white" transform="translate(10 221.852)"/>
</clipPath>
<clipPath id="clip4_1411_113683">
<rect width="13.3333" height="13.3333" fill="white" transform="translate(376.664 10)"/>
</clipPath>
<clipPath id="clip5_1411_113683">
<rect width="13.3333" height="13.3333" fill="white" transform="translate(376.664 221.852)"/>
</clipPath>
</defs>
</svg>
