<svg width="400" height="246" viewBox="0 0 400 246" fill="none" xmlns="http://www.w3.org/2000/svg">
<g filter="url(#filter0_n_1411_113642)">
<g clip-path="url(#clip0_1411_113642)">
<g opacity="0.8">
<mask id="path-2-outside-1_1411_113642" maskUnits="userSpaceOnUse" x="-0.886719" y="-0.888672" width="401" height="247" fill="black">
<rect fill="white" x="-0.886719" y="-0.888672" width="401" height="247"/>
<path d="M382.595 1.11133C391.595 1.11133 398.891 8.40716 398.892 17.4072V227.778C398.891 236.778 391.595 244.074 382.595 244.074H17.4102C8.41011 244.074 1.11352 236.778 1.11328 227.778V17.4072C1.11344 8.40716 8.41006 1.11133 17.4102 1.11133H382.595ZM105.558 217.388C99.8304 217.388 95.1875 222.031 95.1875 227.758C95.1875 233.485 99.8304 238.128 105.558 238.128C111.285 238.128 115.929 233.485 115.929 227.758C115.929 222.03 111.285 217.388 105.558 217.388ZM294.817 217.388C289.09 217.388 284.447 222.03 284.447 227.758C284.447 233.485 289.09 238.128 294.817 238.128C300.545 238.128 305.187 233.485 305.188 227.758C305.188 222.03 300.545 217.388 294.817 217.388ZM138.891 217.388C137.663 217.388 136.669 218.382 136.669 219.609V229.239C136.669 230.466 137.663 231.462 138.891 231.462H148.521C149.748 231.462 150.742 230.467 150.742 229.239V219.609C150.742 218.382 149.748 217.388 148.521 217.388H138.891ZM251.854 217.388C250.627 217.388 249.633 218.382 249.633 219.609V229.239C249.633 230.466 250.627 231.462 251.854 231.462H261.484C262.712 231.462 263.707 230.467 263.707 229.239V219.609C263.707 218.382 262.712 217.388 261.484 217.388H251.854ZM119.261 89.6299C107.193 89.6301 97.4093 99.4133 97.4092 111.481C97.4092 123.55 107.192 133.334 119.261 133.334C131.329 133.334 141.113 123.55 141.113 111.481C141.113 99.4131 131.329 89.6299 119.261 89.6299ZM280.743 89.6299C268.675 89.6299 258.891 99.4131 258.891 111.481C258.891 123.55 268.675 133.334 280.743 133.334C292.811 133.334 302.595 123.55 302.595 111.481C302.595 99.4133 292.811 89.6301 280.743 89.6299Z"/>
</mask>
<path d="M382.595 1.11133C391.595 1.11133 398.891 8.40716 398.892 17.4072V227.778C398.891 236.778 391.595 244.074 382.595 244.074H17.4102C8.41011 244.074 1.11352 236.778 1.11328 227.778V17.4072C1.11344 8.40716 8.41006 1.11133 17.4102 1.11133H382.595ZM105.558 217.388C99.8304 217.388 95.1875 222.031 95.1875 227.758C95.1875 233.485 99.8304 238.128 105.558 238.128C111.285 238.128 115.929 233.485 115.929 227.758C115.929 222.03 111.285 217.388 105.558 217.388ZM294.817 217.388C289.09 217.388 284.447 222.03 284.447 227.758C284.447 233.485 289.09 238.128 294.817 238.128C300.545 238.128 305.187 233.485 305.188 227.758C305.188 222.03 300.545 217.388 294.817 217.388ZM138.891 217.388C137.663 217.388 136.669 218.382 136.669 219.609V229.239C136.669 230.466 137.663 231.462 138.891 231.462H148.521C149.748 231.462 150.742 230.467 150.742 229.239V219.609C150.742 218.382 149.748 217.388 148.521 217.388H138.891ZM251.854 217.388C250.627 217.388 249.633 218.382 249.633 219.609V229.239C249.633 230.466 250.627 231.462 251.854 231.462H261.484C262.712 231.462 263.707 230.467 263.707 229.239V219.609C263.707 218.382 262.712 217.388 261.484 217.388H251.854ZM119.261 89.6299C107.193 89.6301 97.4093 99.4133 97.4092 111.481C97.4092 123.55 107.192 133.334 119.261 133.334C131.329 133.334 141.113 123.55 141.113 111.481C141.113 99.4131 131.329 89.6299 119.261 89.6299ZM280.743 89.6299C268.675 89.6299 258.891 99.4131 258.891 111.481C258.891 123.55 268.675 133.334 280.743 133.334C292.811 133.334 302.595 123.55 302.595 111.481C302.595 99.4133 292.811 89.6301 280.743 89.6299Z" fill="#FA0148"/>
<path d="M398.892 17.4072H400.003V17.4072L398.892 17.4072ZM398.892 227.778L400.003 227.778V227.778H398.892ZM1.11328 227.778H0.00217009V227.778L1.11328 227.778ZM1.11328 17.4072L0.00217009 17.4072V17.4072H1.11328ZM105.558 217.388V216.277H105.558L105.558 217.388ZM95.1875 227.758H94.0764H95.1875ZM105.558 238.128L105.558 239.239H105.558V238.128ZM115.929 227.758H117.04H115.929ZM294.817 217.388V216.277H294.817L294.817 217.388ZM284.447 227.758H283.336H284.447ZM294.817 238.128L294.817 239.239H294.817V238.128ZM305.188 227.758H306.299H305.188ZM138.891 217.388V216.277H138.891L138.891 217.388ZM136.669 219.609L135.558 219.609V219.609H136.669ZM136.669 229.239H135.558V229.239L136.669 229.239ZM138.891 231.462L138.891 232.573H138.891V231.462ZM148.521 231.462V232.573H148.521L148.521 231.462ZM150.742 229.239L151.853 229.239V229.239H150.742ZM150.742 219.609H151.853V219.609L150.742 219.609ZM148.521 217.388L148.521 216.277H148.521V217.388ZM251.854 217.388V216.277H251.854L251.854 217.388ZM249.633 219.609L248.522 219.609V219.609H249.633ZM249.633 229.239H248.522V229.239L249.633 229.239ZM251.854 231.462L251.854 232.573H251.854V231.462ZM263.707 229.239L264.818 229.239V229.239H263.707ZM263.707 219.609H264.818V219.609L263.707 219.609ZM119.261 89.6299V88.5188H119.261L119.261 89.6299ZM97.4092 111.481L96.2981 111.481V111.481H97.4092ZM119.261 133.334L119.261 134.445H119.261V133.334ZM141.113 111.481H142.224V111.481L141.113 111.481ZM280.743 89.6299L280.743 88.5188H280.743V89.6299ZM258.891 111.481L257.78 111.481V111.481H258.891ZM280.743 133.334V134.445H280.743L280.743 133.334ZM302.595 111.481H303.706V111.481L302.595 111.481ZM382.595 1.11133V2.22244C390.981 2.22244 397.78 9.02089 397.78 17.4072L398.892 17.4072L400.003 17.4072C400.003 7.79344 392.208 0.000216961 382.595 0.000216961V1.11133ZM398.892 17.4072H397.78V227.778H398.892H400.003V17.4072H398.892ZM398.892 227.778L397.78 227.778C397.78 236.165 390.981 242.963 382.595 242.963V244.074V245.185C392.208 245.185 400.002 237.392 400.003 227.778L398.892 227.778ZM382.595 244.074V242.963H17.4102V244.074V245.185H382.595V244.074ZM17.4102 244.074V242.963C9.0237 242.963 2.22462 236.165 2.22439 227.778L1.11328 227.778L0.00217009 227.778C0.00242567 237.392 7.79652 245.185 17.4102 245.185V244.074ZM1.11328 227.778H2.22439V17.4072H1.11328H0.00217009V227.778H1.11328ZM1.11328 17.4072L2.22439 17.4072C2.22454 9.02089 9.02364 2.22244 17.4102 2.22244V1.11133V0.000216961C7.79647 0.000216961 0.00233757 7.79344 0.00217009 17.4072L1.11328 17.4072ZM17.4102 1.11133V2.22244H382.595V1.11133V0.000216961H17.4102V1.11133ZM105.558 217.388L105.558 216.277C99.2168 216.277 94.0764 221.417 94.0764 227.758H95.1875H96.2986C96.2986 222.644 100.444 218.499 105.558 218.499L105.558 217.388ZM95.1875 227.758H94.0764C94.0764 234.099 99.2168 239.239 105.558 239.239L105.558 238.128L105.558 237.017C100.444 237.017 96.2986 232.871 96.2986 227.758H95.1875ZM105.558 238.128V239.239C111.899 239.239 117.04 234.099 117.04 227.758H115.929H114.818C114.818 232.871 110.671 237.017 105.558 237.017V238.128ZM115.929 227.758H117.04C117.04 221.417 111.899 216.277 105.558 216.277V217.388V218.499C110.672 218.499 114.818 222.644 114.818 227.758H115.929ZM294.817 217.388L294.817 216.277C288.476 216.277 283.336 221.417 283.336 227.758H284.447H285.558C285.558 222.644 289.704 218.499 294.817 218.499L294.817 217.388ZM284.447 227.758H283.336C283.336 234.099 288.476 239.239 294.817 239.239L294.817 238.128L294.817 237.017C289.704 237.017 285.558 232.871 285.558 227.758H284.447ZM294.817 238.128V239.239C301.158 239.239 306.299 234.099 306.299 227.758H305.188H304.076C304.076 232.872 299.931 237.017 294.817 237.017V238.128ZM305.188 227.758H306.299C306.299 221.417 301.158 216.277 294.817 216.277V217.388V218.499C299.931 218.499 304.076 222.644 304.076 227.758H305.188ZM138.891 217.388L138.891 216.277C137.05 216.277 135.558 217.769 135.558 219.609L136.669 219.609L137.78 219.609C137.78 218.996 138.277 218.499 138.891 218.499L138.891 217.388ZM136.669 219.609H135.558V229.239H136.669H137.78V219.609H136.669ZM136.669 229.239L135.558 229.239C135.558 231.08 137.049 232.573 138.891 232.573L138.891 231.462L138.891 230.351C138.278 230.351 137.78 229.853 137.78 229.239L136.669 229.239ZM138.891 231.462V232.573H148.521V231.462V230.351H138.891V231.462ZM148.521 231.462L148.521 232.573C150.362 232.573 151.853 231.08 151.853 229.239L150.742 229.239L149.631 229.239C149.631 229.853 149.133 230.351 148.52 230.351L148.521 231.462ZM150.742 229.239H151.853V219.609H150.742H149.631V229.239H150.742ZM150.742 219.609L151.853 219.609C151.853 217.769 150.361 216.277 148.521 216.277L148.521 217.388L148.52 218.499C149.134 218.499 149.631 218.996 149.631 219.609L150.742 219.609ZM148.521 217.388V216.277H138.891V217.388V218.499H148.521V217.388ZM251.854 217.388L251.854 216.277C250.014 216.277 248.522 217.769 248.522 219.609L249.633 219.609L250.744 219.609C250.744 218.996 251.241 218.499 251.855 218.499L251.854 217.388ZM249.633 219.609H248.522V229.239H249.633H250.744V219.609H249.633ZM249.633 229.239L248.522 229.239C248.522 231.08 250.013 232.573 251.854 232.573L251.854 231.462L251.855 230.351C251.242 230.351 250.744 229.853 250.744 229.239L249.633 229.239ZM251.854 231.462V232.573H261.484V231.462V230.351H251.854V231.462ZM261.484 231.462V232.573C263.325 232.573 264.818 231.08 264.818 229.239L263.707 229.239L262.596 229.239C262.596 229.853 262.098 230.351 261.484 230.351V231.462ZM263.707 229.239H264.818V219.609H263.707H262.596V229.239H263.707ZM263.707 219.609L264.818 219.609C264.818 217.768 263.325 216.277 261.484 216.277V217.388V218.499C262.098 218.499 262.596 218.996 262.596 219.609L263.707 219.609ZM261.484 217.388V216.277H251.854V217.388V218.499H261.484V217.388ZM119.261 89.6299L119.261 88.5188C106.579 88.519 96.2982 98.7996 96.2981 111.481L97.4092 111.481L98.5203 111.481C98.5204 100.027 107.806 90.7412 119.261 90.741L119.261 89.6299ZM97.4092 111.481H96.2981C96.2981 124.163 106.579 134.445 119.261 134.445L119.261 133.334L119.261 132.223C107.806 132.223 98.5203 122.936 98.5203 111.481H97.4092ZM119.261 133.334V134.445C131.943 134.445 142.224 124.164 142.224 111.481H141.113H140.002C140.002 122.936 130.716 132.223 119.261 132.223V133.334ZM141.113 111.481L142.224 111.481C142.224 98.7994 131.943 88.5188 119.261 88.5188V89.6299V90.741C130.715 90.741 140.002 100.027 140.002 111.481L141.113 111.481ZM280.743 89.6299V88.5188C268.061 88.5188 257.78 98.7994 257.78 111.481L258.891 111.481L260.002 111.481C260.002 100.027 269.288 90.741 280.743 90.741V89.6299ZM258.891 111.481H257.78C257.78 124.164 268.061 134.445 280.743 134.445V133.334V132.223C269.288 132.223 260.002 122.936 260.002 111.481H258.891ZM280.743 133.334L280.743 134.445C293.425 134.445 303.706 124.163 303.706 111.481H302.595H301.484C301.484 122.936 292.198 132.223 280.743 132.223L280.743 133.334ZM302.595 111.481L303.706 111.481C303.706 98.7996 293.425 88.519 280.743 88.5188L280.743 89.6299L280.743 90.741C292.198 90.7412 301.483 100.027 301.484 111.481L302.595 111.481Z" fill="#FA0148" mask="url(#path-2-outside-1_1411_113642)"/>
</g>
<path d="M280.371 83.7036C295.712 83.7036 308.149 96.1399 308.149 111.481C308.149 126.822 295.712 139.259 280.371 139.259C265.03 139.259 252.594 126.822 252.594 111.481C252.594 96.14 265.03 83.7039 280.371 83.7036ZM280.742 88.5181C268.06 88.5182 257.779 98.7991 257.779 111.481C257.779 124.163 268.06 134.444 280.742 134.444C293.424 134.444 303.705 124.163 303.705 111.481C303.705 98.799 293.424 88.5181 280.742 88.5181Z" fill="#262626"/>
<path d="M46.8505 101.111C42.9842 131.762 27.9386 204.764 31.8504 228.334M43.332 237.963C69.0728 238.334 353.888 237.963 356.665 237.963M303.147 95.9263C316.26 115.359 358.452 193.064 367.943 223.334" stroke="#262626" stroke-width="0.37037"/>
<path d="M43.332 214.445C49.8775 214.445 55.1844 219.751 55.1846 226.296C55.1846 232.842 49.8776 238.149 43.332 238.149C36.7866 238.149 31.4805 232.842 31.4805 226.296C31.4807 219.751 36.7867 214.445 43.332 214.445ZM43.332 221.308C40.5761 221.308 38.3419 223.542 38.3418 226.298C38.3418 229.054 40.5761 231.288 43.332 231.289C46.0881 231.289 48.3223 229.054 48.3223 226.298C48.3222 223.542 46.088 221.308 43.332 221.308Z" fill="#262626"/>
<path d="M356.669 214.445C363.214 214.445 368.52 219.751 368.521 226.296C368.521 232.842 363.214 238.149 356.669 238.149C350.123 238.149 344.816 232.842 344.816 226.296C344.817 219.751 350.123 214.445 356.669 214.445ZM356.669 221.308C353.913 221.308 351.679 223.542 351.679 226.298C351.679 229.054 353.913 231.289 356.669 231.289C359.425 231.288 361.659 229.054 361.659 226.298C361.659 223.543 359.425 221.308 356.669 221.308Z" fill="#262626"/>
<path d="M90.1416 189.815H312.815C317.978 189.815 322.484 193.316 323.761 198.318L335.581 244.63H64.8281L79.3516 197.768C80.8171 193.039 85.191 189.815 90.1416 189.815Z" stroke="#262626" stroke-width="1.11111"/>
<circle cx="105.554" cy="227.778" r="9.81481" stroke="#262626" stroke-width="1.11111"/>
<circle cx="294.816" cy="227.778" r="9.81481" stroke="#262626" stroke-width="1.11111"/>
<rect x="137.224" y="217.963" width="12.963" height="12.963" rx="1.66667" stroke="#262626" stroke-width="1.11111"/>
<path d="M192.961 231.482C192.961 230.254 193.956 229.259 195.183 229.259H204.813C206.04 229.259 207.035 230.254 207.035 231.481V238.148H192.961V231.482Z" fill="#262626"/>
<rect x="250.184" y="217.963" width="12.963" height="12.963" rx="1.66667" stroke="#262626" stroke-width="1.11111"/>
<g clip-path="url(#clip1_1411_113642)">
<path d="M199.999 194.075C203.681 194.075 206.665 197.06 206.665 200.742C206.665 204.423 203.681 207.408 199.999 207.408C196.317 207.408 193.332 204.423 193.332 200.742C193.332 197.06 196.317 194.075 199.999 194.075ZM200.543 196.751C200.422 196.159 199.575 196.159 199.454 196.751L198.945 199.254C198.901 199.473 198.73 199.644 198.512 199.688L196.009 200.197C195.416 200.318 195.416 201.165 196.009 201.286L198.512 201.794C198.73 201.839 198.901 202.01 198.945 202.228L199.454 204.731C199.575 205.324 200.422 205.324 200.543 204.731L201.052 202.228C201.096 202.01 201.267 201.839 201.485 201.794L203.988 201.286C204.581 201.165 204.581 200.317 203.988 200.197L201.485 199.688C201.267 199.643 201.096 199.473 201.052 199.254L200.543 196.751Z" fill="#262626"/>
</g>
<g clip-path="url(#clip2_1411_113642)">
<path d="M16.667 10C20.3487 10.0002 23.333 12.9852 23.333 16.667C23.3328 20.3486 20.3486 23.3328 16.667 23.333C12.9852 23.333 10.0002 20.3487 10 16.667C10 12.9851 12.9851 10 16.667 10ZM17.2109 12.6768C17.0901 12.0839 16.2428 12.0839 16.1221 12.6768L15.6133 15.1797C15.5688 15.3981 15.3981 15.5688 15.1797 15.6133L12.6768 16.1221C12.0839 16.2428 12.0839 17.0901 12.6768 17.2109L15.1797 17.7197C15.398 17.7641 15.5687 17.935 15.6133 18.1533L16.1221 20.6562C16.2427 21.2494 17.0903 21.2494 17.2109 20.6562L17.7197 18.1533C17.7642 17.9351 17.9351 17.7642 18.1533 17.7197L20.6562 17.2109C21.2494 17.0903 21.2494 16.2427 20.6562 16.1221L18.1533 15.6133C17.935 15.5687 17.7641 15.398 17.7197 15.1797L17.2109 12.6768Z" fill="#262626"/>
</g>
<g clip-path="url(#clip3_1411_113642)">
<path d="M16.667 221.852C20.3487 221.852 23.333 224.837 23.333 228.519C23.3328 232.201 20.3486 235.185 16.667 235.185C12.9852 235.185 10.0002 232.201 10 228.519C10 224.837 12.9851 221.852 16.667 221.852ZM17.2109 224.529C17.0901 223.936 16.2428 223.936 16.1221 224.529L15.6133 227.032C15.5688 227.25 15.3981 227.421 15.1797 227.465L12.6768 227.974C12.0839 228.095 12.0839 228.942 12.6768 229.063L15.1797 229.572C15.398 229.616 15.5687 229.787 15.6133 230.005L16.1221 232.508C16.2427 233.101 17.0903 233.101 17.2109 232.508L17.7197 230.005C17.7642 229.787 17.9351 229.616 18.1533 229.572L20.6562 229.063C21.2494 228.942 21.2494 228.095 20.6562 227.974L18.1533 227.465C17.935 227.421 17.7641 227.25 17.7197 227.032L17.2109 224.529Z" fill="#262626"/>
</g>
<g clip-path="url(#clip4_1411_113642)">
<path d="M383.331 10C387.013 10.0002 389.997 12.9852 389.997 16.667C389.997 20.3486 387.013 23.3328 383.331 23.333C379.649 23.333 376.664 20.3487 376.664 16.667C376.664 12.9851 379.649 10 383.331 10ZM383.875 12.6768C383.754 12.0839 382.907 12.0839 382.786 12.6768L382.277 15.1797C382.233 15.3981 382.062 15.5688 381.844 15.6133L379.341 16.1221C378.748 16.2428 378.748 17.0901 379.341 17.2109L381.844 17.7197C382.062 17.7641 382.233 17.935 382.277 18.1533L382.786 20.6562C382.907 21.2494 383.754 21.2494 383.875 20.6562L384.384 18.1533C384.428 17.9351 384.599 17.7642 384.817 17.7197L387.32 17.2109C387.913 17.0903 387.913 16.2427 387.32 16.1221L384.817 15.6133C384.599 15.5687 384.428 15.398 384.384 15.1797L383.875 12.6768Z" fill="#262626"/>
</g>
<g clip-path="url(#clip5_1411_113642)">
<path d="M383.331 221.852C387.013 221.852 389.997 224.837 389.997 228.519C389.997 232.201 387.013 235.185 383.331 235.185C379.649 235.185 376.664 232.201 376.664 228.519C376.664 224.837 379.649 221.852 383.331 221.852ZM383.875 224.529C383.754 223.936 382.907 223.936 382.786 224.529L382.277 227.032C382.233 227.25 382.062 227.421 381.844 227.465L379.341 227.974C378.748 228.095 378.748 228.942 379.341 229.063L381.844 229.572C382.062 229.616 382.233 229.787 382.277 230.005L382.786 232.508C382.907 233.101 383.754 233.101 383.875 232.508L384.384 230.005C384.428 229.787 384.599 229.616 384.817 229.572L387.32 229.063C387.913 228.942 387.913 228.095 387.32 227.974L384.817 227.465C384.599 227.421 384.428 227.25 384.384 227.032L383.875 224.529Z" fill="#262626"/>
</g>
<path d="M280.93 89.6665C292.998 89.6665 302.782 99.4506 302.782 111.519C302.782 123.587 292.998 133.371 280.93 133.371C268.862 133.37 259.078 123.587 259.078 111.519C259.078 99.4507 268.861 89.6667 280.93 89.6665ZM280.806 95.2222C278.567 95.2222 276.433 95.6746 274.491 96.4917L276.455 99.8931L272.922 101.932L270.959 98.5327C267.552 101.12 265.194 105.019 264.637 109.476H268.566V113.555H264.636C265.191 118.012 267.547 121.909 270.951 124.498L272.916 121.096L276.449 123.136L274.481 126.542C276.426 127.362 278.563 127.815 280.806 127.815C283.045 127.815 285.178 127.362 287.12 126.545L285.157 123.145L288.69 121.105L290.652 124.503C294.061 121.915 296.421 118.015 296.977 113.555H293.045V109.476H296.976C296.418 105.02 294.062 101.124 290.657 98.5366L288.696 101.935L285.163 99.896L287.127 96.4937C285.183 95.675 283.047 95.2222 280.806 95.2222Z" fill="black"/>
<path d="M119.259 89.6665C131.327 89.6667 141.11 99.4507 141.11 111.519C141.11 123.587 131.327 133.37 119.259 133.371C107.19 133.371 97.4065 123.587 97.4062 111.519C97.4062 99.4506 107.19 89.6665 119.259 89.6665ZM119.132 95.2222C116.893 95.2222 114.759 95.6745 112.816 96.4917L114.78 99.8931L111.247 101.932L109.285 98.5327C105.878 101.12 103.519 105.018 102.962 109.476H106.892V113.555H102.962C103.517 118.011 105.872 121.909 109.276 124.498L111.241 121.096L114.774 123.136L112.807 126.542C114.751 127.362 116.889 127.815 119.132 127.815C121.371 127.815 123.504 127.362 125.445 126.545L123.483 123.145L127.016 121.105L128.978 124.503C132.386 121.915 134.746 118.015 135.302 113.555H131.371V109.476H135.301C134.744 105.02 132.387 101.124 128.982 98.5366L127.021 101.935L123.488 99.896L125.452 96.4937C123.509 95.6751 121.373 95.2222 119.132 95.2222Z" fill="black"/>
<path d="M216.3 95.8899L213.25 89.2936M216.3 95.8899L213.666 95.6286M216.3 95.8899L216.265 88.6405M213.25 89.2936L213.666 95.6286M213.25 89.2936L206.629 88.0229M213.25 89.2936L204.656 85.1137M213.666 95.6286L209.161 94.2571M213.666 95.6286L208.19 95.0408M213.666 95.6286L206.629 88.0229M206.629 88.0229L204.656 85.1137M209.161 94.2571L208.19 95.0408M209.161 94.2571L201.121 81.5217M208.19 95.0408L201.121 81.5217M201.121 81.5217L204.656 85.1137M201.121 81.5217V75.9704M201.121 81.5217L204.933 81.1952M204.656 85.1137L205.903 83.2198M201.121 75.9704L203.963 78.6481M201.121 75.9704L207.567 80.2155M201.121 75.9704L208.537 77.6684M201.121 75.9704L205.695 75.5132M201.121 75.9704L186.982 77.1459M203.963 78.6481L204.933 81.1952M203.963 78.6481L205.557 79.693M204.933 81.1952V82.8932L205.903 83.2198M204.933 81.1952L205.557 79.693M205.903 83.2198L211.933 87.4649M205.903 83.2198L207.567 80.2155M205.903 83.2198L213.25 85.375M211.933 87.4649L213.25 85.375M211.933 87.4649L214.082 88.4445L216.265 88.6405M213.25 85.375L220.181 88.8364M213.25 85.375L211.448 80.2155M220.181 88.8364H218.448L216.265 88.6405M220.181 88.8364L219.418 84.526M220.181 88.8364H229.815M220.181 88.8364L229.815 86.5506M207.567 80.2155L205.557 79.693M207.567 80.2155L208.537 77.6684M207.567 80.2155H211.448M208.537 77.6684L211.448 80.2155M208.537 77.6684L217.409 75.3826M208.537 77.6684L208.676 77.6496M211.448 80.2155L219.418 84.526M211.448 80.2155L218.171 76.3622M210.27 75.056L217.409 75.3826M210.27 75.056L205.695 75.5132M210.27 75.056L217.409 74.0764M217.409 75.3826L218.171 76.3622M217.409 75.3826V74.0764M217.409 75.3826L220.666 75.5132C220.683 75.5039 220.7 75.4946 220.717 75.4853M218.171 76.3622L219.418 84.526M218.171 76.3622L208.676 77.6496M218.171 76.3622L226.211 76.7541M219.418 84.526L221.082 79.0399M219.418 84.526L229.815 86.5506M208.676 77.6496L205.695 75.5132M186.982 77.1459L192.319 69.1781M186.982 77.1459L182.685 75.056M186.982 77.1459L181.507 75.9704M192.319 69.1781L217.409 74.0764M192.319 69.1781L182.685 75.056M192.319 69.1781H201.121M217.409 74.0764L206.629 67.2842M217.409 74.0764L201.121 69.1781M217.409 74.0764L214.775 68.1332M217.409 74.0764L230.716 70.0272M206.629 67.2842L201.121 69.1781M206.629 67.2842L201.121 61.2756M201.121 69.1781V61.2756M201.121 69.1781L186.081 66.4351M201.121 61.2756L186.081 66.4351M201.121 61.2756L199.735 57.7489M186.081 66.4351L170.071 69.7659M186.081 66.4351L182.685 75.056M186.081 66.4351L182.13 62.4512M186.081 66.4351L186.774 60.1001M170.071 69.7659L171.734 73.7498M170.071 69.7659L176.031 72.2656M170.071 69.7659L176.447 61.9287L182.13 62.4512M170.071 69.7659L182.13 62.4512M170.071 69.7659L172.427 60.5572M170.071 69.7659L166.397 58.2714M170.071 69.7659L164.457 64.4105M171.734 73.7498L174.368 74.4029M171.734 73.7498L176.031 72.2656M174.368 74.4029L181.507 75.9704M174.368 74.4029L182.685 75.056M181.507 75.9704L182.685 75.056M182.685 75.056L176.031 72.2656M182.13 62.4512L172.427 60.5572M182.13 62.4512L186.774 60.1001M172.427 60.5572L166.397 58.2714M172.427 60.5572L192.041 54.8753M166.397 58.2714L164.457 64.4105M166.397 58.2714L162.031 55.5937M166.397 58.2714L177.695 49.3893M166.397 58.2714L192.041 54.8753M164.457 64.4105L163.833 62.7778L162.031 56.9652M162.031 55.5937V56.9652M162.031 55.5937H161.753M162.031 55.5937L168.269 52.916M162.031 56.9652L158.496 60.8185M162.031 56.9652L157.248 54.5242M158.496 60.8185V56.0509M158.496 60.8185L154.615 59.9695L149.347 57.7489M158.496 56.0509L149.347 57.7489M158.496 56.0509L161.753 55.5937M149.347 57.7489L146.298 52.8507M149.347 57.7489L149.139 49.5199M149.347 57.7489L157.248 54.5242M161.753 55.5937L155.031 51.2832M146.298 52.8507L145.604 50.8914M146.298 52.8507L149.139 49.5199M145.604 50.8914L142.694 45.8625M145.604 50.8914L149.139 49.5199M145.604 50.8914L143.872 42.8583M142.694 45.8625L141.931 44.491M142.694 45.8625L143.872 42.8583M141.931 44.491L144.288 33.2577M141.931 44.491L143.872 42.8583M144.288 33.2577L150.387 40.5724M144.288 33.2577L143.872 42.8583M144.288 33.2577L149.209 28.4901M144.288 33.2577L150.387 33.5843M144.288 33.2577L151.565 28.2289M150.387 40.5724L158.773 43.3807M150.387 40.5724L143.872 42.8583M150.387 40.5724V33.5843M150.387 40.5724L159.05 39.0703M150.387 40.5724L154.545 36.066M158.773 43.3807L155.031 51.2832M158.773 43.3807L149.139 49.5199M158.773 43.3807L143.872 42.8583M158.773 43.3807L169.932 42.7276M155.031 51.2832L155.377 53.5691M155.377 53.5691L149.139 49.5199M155.377 53.5691L157.248 54.5242M149.139 49.5199L143.872 42.8583M149.209 28.4901L151.565 28.2289M149.209 28.4901L157.11 19.2814M151.565 28.2289L150.387 33.5843M151.565 28.2289L155.031 24.8981M151.565 28.2289L155.55 31.1206M150.387 33.5843L155.308 32.3144M157.11 19.2814L155.031 24.8981M157.11 19.2814L163.971 15.3628L173.259 13.2076M157.11 19.2814L158.219 24.3103M157.11 19.2814L173.259 13.2076M155.031 24.8981L155.793 29.9269M155.793 29.9269L155.55 31.1206M155.793 29.9269L164.179 34.1067M155.793 29.9269L163.971 28.0982M155.793 29.9269L157.318 28.7903M154.545 36.066L159.05 39.0703M154.545 36.066L155.308 32.3144M159.05 39.0703L169.932 42.7276M159.05 39.0703L164.179 34.1067M159.05 39.0703L168.546 33.0618M169.932 42.7276L174.368 32.3144M169.932 42.7276L169.17 50.3689M169.932 42.7276L178.457 48.5402M155.308 32.3144L155.55 31.1206M199.735 57.7489L186.774 60.1001M199.735 57.7489L205.072 49.5852M186.774 60.1001L192.041 54.8753M186.774 60.1001L205.072 49.5852M192.041 54.8753L177.695 49.3893M192.041 54.8753L205.072 49.5852M192.041 54.8753L196.131 45.8625M192.041 54.8753L189.616 50.5648M177.695 49.3893L169.17 50.3689M177.695 49.3893L172.081 51.2832L168.269 52.916M177.695 49.3893L189.616 50.5648M177.695 49.3893L178.457 48.5402M177.695 49.3893L192.319 45.8625M169.17 50.3689L168.269 52.916M205.072 49.5852L196.131 45.8625M205.072 49.5852L215.191 54.1569M205.072 49.5852L215.745 50.1077M196.131 45.8625L193.774 47.5634M196.131 45.8625L199.042 45.8306M189.616 50.5648L193.774 47.5634M178.457 48.5402L174.368 32.3144M178.457 48.5402L183.309 40.6377M174.368 32.3144L168.546 33.0618M174.368 32.3144L181.645 32.0168M174.368 32.3144L183.309 40.6377M164.179 34.1067L168.546 33.0618M164.179 34.1067L163.971 28.0982M168.546 33.0618L167.991 22.6775M168.546 33.0618L163.971 28.0982M168.546 33.0618L174.021 23.5919M168.546 33.0618L182.615 25.094M173.259 13.2076L158.219 24.3103M173.259 13.2076L182.2 14.884M173.259 13.2076L185.596 18.2365M173.259 13.2076L183.794 13.8276M185.596 18.2365L186.843 15.7547L182.2 14.884M185.596 18.2365L182.615 25.094M185.596 18.2365L188.715 17.3863M185.596 18.2365L171.179 19.0202M182.615 25.094L174.021 23.5919M182.615 25.094L181.645 32.0168M182.615 25.094L183.309 40.6377M182.615 25.094L194.19 27.7064M182.615 25.094L188.229 20.1957M174.021 23.5919L171.179 19.0202M171.179 19.0202L167.991 22.6775M171.179 19.0202L158.219 24.3103M167.991 22.6775L165.08 23.0041M167.991 22.6775L163.971 28.0982M165.08 23.0041L163.971 28.0982M165.08 23.0041L160.437 26.4655M158.219 24.3103L160.437 26.4655M158.219 24.3103L157.318 28.7903M160.437 26.4655L157.318 28.7903M181.645 32.0168L183.309 40.6377M183.309 40.6377L187.883 38.6131M183.309 40.6377L194.19 27.7064M183.309 40.6377L193.774 34.0414M193.774 47.5634L192.319 45.8625M192.319 45.8625L187.883 38.6131M187.883 38.6131L193.774 34.0414M187.883 38.6131L197.101 42.4664M194.19 27.7064L197.448 21.5019M194.19 27.7064L188.229 20.1957M194.19 27.7064L203.339 21.306M194.19 27.7064L200.497 21.5019M194.19 27.7064L193.774 34.0414M188.229 20.1957L193.982 15.9506M193.982 15.9506L194.19 12.032M193.982 15.9506L197.448 21.5019M193.982 15.9506L200.497 21.5019M193.982 15.9506L188.715 17.3863M194.19 12.032L201.329 12.3586M194.19 12.032L201.467 21.1101M194.19 12.032L201.121 18.8895M194.19 12.032L205.279 16.6037M194.19 12.032L187.883 11.1177M201.329 12.3586L209.369 15.2322M201.329 12.3586L205.279 16.6037M209.369 15.2322L213.042 14.5138M209.369 15.2322L205.279 16.6037M213.042 14.5138L207.844 17.8446M213.042 14.5138L220.389 15.9506M207.844 17.8446L205.279 16.6037M207.844 17.8446L207.775 17.9752M205.279 16.6037L201.121 18.8895M205.279 16.6037L201.467 21.1101M201.121 18.8895L201.467 21.1101M201.467 21.1101L200.497 21.5019M201.467 21.1101L207.775 17.9752M200.497 21.5019H197.448M200.497 21.5019L203.339 21.306M207.775 17.9752L206.527 20.3264M207.775 17.9752L220.389 15.9506M207.775 17.9752L221.636 18.8895M207.775 17.9752L213.042 19.608M206.527 20.3264L203.339 21.306M206.527 20.3264L210.824 23.3306M203.339 21.306L193.774 34.0414M203.339 21.306L205.279 29.6004M203.339 21.306L210.824 23.3306M229.815 88.8364L232.864 88.0229L237.231 85.8975M229.815 88.8364V86.5506M237.231 85.8975L240.627 83.8729M237.231 85.8975L235.914 76.0357M237.231 85.8975L235.082 83.0238M237.231 85.8975L229.815 86.5506M237.231 85.8975L225.448 84.526M240.627 83.8729H242.706M240.627 83.8729L243.33 78.1909M240.627 83.8729L235.914 76.0357M242.706 83.8729L244.924 80.2155L243.33 78.1909M242.706 83.8729L243.33 78.1909M243.33 78.1909L243.815 77.0153L249.637 74.207M243.33 78.1909L239.379 76.3622M249.637 74.207L256.083 68.721M249.637 74.207L240.488 74.6642M256.083 68.721L258.301 61.341M256.083 68.721L251.195 69.1128M258.301 61.341L256.984 53.8303M258.301 61.341L254.974 57.4224M258.301 61.341L254.558 65.1289M256.984 53.8303L254.558 49.7811M256.984 53.8303L254.766 53.6017M254.558 49.7811V47.6259M254.558 49.7811L254.766 53.6017M254.558 47.6259L251.994 45.4054M254.558 47.6259H252.617M251.994 45.4054L249.776 37.6988M251.994 45.4054L252.617 47.6259M251.994 45.4054L246.796 42.4664M251.994 45.4054L248.736 40.6377M249.776 37.6988L244.647 33.1271M249.776 37.6988L247.558 38.156M244.647 33.1271L244.092 31.7556M244.647 33.1271L247.558 38.156M244.647 33.1271L232.033 27.6411M244.092 31.7556V27.9023M244.092 31.7556L232.033 27.6411M244.092 31.7556L233.488 25.5512M244.092 27.9023L236.815 24.1143L234.874 22.6122L230.508 20.3264M244.092 27.9023L233.488 25.5512M230.508 20.3264L228.637 19.608M230.508 20.3264L233.488 25.5512M230.508 20.3264L216.23 22.351M230.508 20.3264L222.884 20.1957M228.637 19.608L220.389 15.9506M228.637 19.608L221.636 18.8895M220.389 15.9506L221.636 18.8895M221.082 79.0399L226.211 76.7541M221.082 79.0399L232.518 81.2605M221.082 79.0399L225.448 84.2647M226.211 76.7541L232.864 76.3622M226.211 76.7541L232.518 81.2605M226.211 76.7541L225.448 75.056M232.864 76.3622L235.914 76.0357M232.864 76.3622L235.082 83.0238M232.864 76.3622L228.567 75.056M235.914 76.0357L239.379 76.3622M239.379 76.3622L240.488 74.6642M235.082 83.0238L232.518 81.2605M235.082 83.0238L225.448 84.2647M225.448 84.2647V84.526M225.448 84.526L229.815 86.5506M214.775 68.1332L209.022 58.402M214.775 68.1332L221.082 69.7006L230.716 70.0272M214.775 68.1332L218.933 60.1001M209.022 58.402L215.191 54.1569M209.022 58.402L218.933 60.1001M215.191 54.1569L224.755 54.7447M215.191 54.1569L218.933 60.1001M215.191 54.1569L215.745 50.1077M224.755 54.7447L232.379 51.1526M224.755 54.7447L218.933 60.1001M224.755 54.7447L215.745 50.1077M232.379 51.1526L234.389 46.8422M232.379 51.1526L218.933 60.1001M232.379 51.1526L228.567 65.6514M232.379 51.1526L237.508 55.2671M232.379 51.1526L228.151 43.5767M232.379 51.1526L215.745 50.1077M234.389 46.8422L244.855 48.7362M234.389 46.8422L236.676 42.0746M234.389 46.8422L228.151 43.5767M244.855 48.7362H247.281M244.855 48.7362L237.508 55.2671M244.855 48.7362L236.676 42.0746M247.281 48.7362L249.221 52.4588M247.281 48.7362L239.795 54.1569M247.281 48.7362L249.221 60.1001M247.281 48.7362L252.617 47.6259M247.281 48.7362L246.796 42.4664M249.221 52.4588L252.617 59.1857M249.221 52.4588L252.617 47.6259M252.617 59.1857L254.558 65.1289M252.617 59.1857L254.974 57.4224M252.617 59.1857V47.6259M254.558 65.1289L251.924 67.676M254.558 65.1289L254.974 57.4224M251.924 67.676L249.221 60.1001M251.924 67.676H245.964M251.924 67.676L251.195 69.1128M249.637 72.1824L245.964 67.676M249.637 72.1824L251.195 69.1128M249.637 72.1824L235.567 69.1128M249.637 72.1824L240.488 74.6642M245.964 67.676L249.221 60.1001M245.964 67.676L235.567 69.1128M245.964 67.676L240.488 56.4427M249.221 60.1001L240.488 56.4427M240.488 56.4427L239.795 54.1569M240.488 56.4427V66.3698M239.795 54.1569L237.508 55.2671M237.508 55.2671L228.567 65.6514M228.567 65.6514L230.716 70.0272M230.716 70.0272L240.488 66.3698M230.716 70.0272L235.567 69.1128M230.716 70.0272C230.164 70.3389 223.854 73.7773 220.717 75.4853M240.488 66.3698L235.567 69.1128M235.567 69.1128L240.488 74.6642M240.488 74.6642L228.567 75.056M228.567 75.056H225.448M225.448 75.056L220.717 75.4853M254.974 57.4224L254.766 53.6017M252.617 47.6259L246.796 42.4664M246.796 42.4664L236.676 42.0746M246.796 42.4664L248.736 40.6377M246.796 42.4664L244.647 38.156M246.796 42.4664L230.161 32.2128M236.676 42.0746L228.151 43.5767M236.676 42.0746L230.161 32.2128M236.676 42.0746L227.112 35.5436M228.151 43.5767L215.745 50.1077M228.151 43.5767L227.112 35.5436M228.151 43.5767L222.329 38.156M228.151 43.5767L218.864 30.1882M228.151 43.5767L214.012 45.6666M215.745 50.1077L214.012 45.6666M214.012 45.6666L203.685 40.6377M214.012 45.6666L222.329 38.156M214.012 45.6666L205.072 45.7646M203.685 40.6377L197.101 42.4664M203.685 40.6377L205.279 37.111M203.685 40.6377L205.072 45.7646M203.685 40.6377L200.844 45.8109M197.101 42.4664L193.774 34.0414M197.101 42.4664L205.279 37.111M197.101 42.4664L199.042 45.8306M193.774 34.0414L205.279 37.111M205.279 29.6004V37.111M205.279 29.6004L210.824 23.3306M205.279 29.6004L221.221 24.3756M205.279 37.111L222.329 38.156M205.279 37.111L218.864 30.1882M205.279 37.111L221.221 24.3756M222.329 38.156L218.864 30.1882M218.864 30.1882L227.112 35.5436M218.864 30.1882L230.161 32.2128M218.864 30.1882L221.221 24.3756M227.112 35.5436L230.161 32.2128M230.161 32.2128L244.647 38.156M230.161 32.2128L221.221 24.3756M244.647 38.156L230.508 27.3145L232.033 27.6411M244.647 38.156L248.736 40.6377M232.033 27.6411L233.488 25.5512M233.488 25.5512L226.211 25.0287L221.221 24.3756M221.221 24.3756L216.23 22.351M216.23 22.351L210.824 23.3306M210.824 23.3306L213.042 19.608M213.042 19.608L222.884 20.1957M222.884 20.1957L221.636 18.8895M248.736 40.6377L247.558 38.156M188.715 17.3863L187.883 11.1177M187.883 11.1177L183.794 13.8276M182.2 14.884L183.794 13.8276M205.072 45.7646L200.844 45.8109M200.844 45.8109L199.042 45.8306" stroke="black" stroke-width="0.959685"/>
<path d="M46.666 175.185H40.1769V163.817H32.4618V158.541H54.3811V163.817H46.666V175.185ZM72.7958 169.476H63.0497V175.16H56.5606V158.517H63.0497V164.201H72.7958V158.517H79.2973V175.16H72.7958V169.476ZM83.0867 175.185V158.541H102.566V162.801H89.5758V164.931H102.566V168.783H89.5758V170.913H102.566V175.185H83.0867ZM131.693 167.334V158.517H138.195V175.16H130.888L121.947 164.993V175.16H115.458V158.517H124.387L131.693 167.334ZM141.984 175.185V158.541H161.464V162.801H148.473V164.931H161.464V168.783H148.473V170.913H161.464V175.185H141.984ZM180.411 167.049V158.517H186.912V167.458C186.937 173.749 181.785 175.557 175.544 175.569C169.303 175.557 164.151 173.749 164.176 167.458V158.517H170.665V167.049C170.64 169.786 172.882 170.256 175.544 170.294C178.194 170.256 180.448 169.786 180.411 167.049ZM189.835 158.529H205.872C209.302 158.492 212.212 161.377 212.163 164.82C212.163 166.071 211.829 167.21 211.16 168.226C210.503 169.229 209.624 169.996 208.534 170.504L212.163 175.173H205.253L202.12 171.111H196.324V175.173H189.835V158.529ZM204.237 163.396H196.324V166.232H204.237C204.634 166.232 204.968 166.096 205.24 165.823C205.525 165.538 205.661 165.204 205.661 164.82C205.661 164.027 205.03 163.396 204.237 163.396ZM225.463 163.359L223.172 168.275H227.742L225.463 163.359ZM212.671 175.185L221.599 158.541H229.314L238.243 175.185H230.937L229.624 172.337H221.29L219.977 175.185H212.671ZM238.751 158.517H245.24V169.885H258.231V175.16H238.751V158.517ZM287.357 169.476H277.611V175.16H271.122V158.517H277.611V164.201H287.357V158.517H293.859V175.16H287.357V169.476ZM307.146 163.359L304.855 168.275H309.425L307.146 163.359ZM294.354 175.185L303.283 158.541H310.998L319.927 175.185H312.62L311.307 172.337H302.973L301.66 175.185H294.354ZM334.923 168.263H341.573C341.165 173.885 336.236 175.569 330.242 175.569C324.001 175.557 318.849 173.749 318.874 167.445V166.232C318.849 159.941 324.001 158.133 330.242 158.108C336.236 158.12 341.165 159.805 341.573 165.414H334.923C334.317 163.78 332.471 163.396 330.242 163.396C327.592 163.433 325.338 163.904 325.375 166.64V167.049C325.338 169.761 327.592 170.256 330.242 170.294C332.471 170.294 334.329 169.897 334.923 168.263ZM352.843 169.476H350.007V175.16H343.518V158.517H350.007V164.201H352.843L358.948 158.517H367.468L358.836 166.839L367.468 175.16H358.948L352.843 169.476Z" fill="#EFEFEF"/>
</g>
</g>
<defs>
<filter id="filter0_n_1411_113642" x="0" y="0" width="400" height="245.185" filterUnits="userSpaceOnUse" color-interpolation-filters="sRGB">
<feFlood flood-opacity="0" result="BackgroundImageFix"/>
<feBlend mode="normal" in="SourceGraphic" in2="BackgroundImageFix" result="shape"/>
<feTurbulence type="fractalNoise" baseFrequency="2.8783018589019775 2.8783018589019775" stitchTiles="stitch" numOctaves="3" result="noise" seed="8462" />
<feColorMatrix in="noise" type="luminanceToAlpha" result="alphaNoise" />
<feComponentTransfer in="alphaNoise" result="coloredNoise1">
<feFuncA type="discrete" tableValues="1 1 1 1 1 1 1 1 1 1 1 1 1 1 1 1 1 1 1 1 1 1 1 1 1 1 1 1 1 1 1 1 1 1 1 1 1 1 1 1 1 1 1 1 1 1 1 1 1 1 1 0 0 0 0 0 0 0 0 0 0 0 0 0 0 0 0 0 0 0 0 0 0 0 0 0 0 0 0 0 0 0 0 0 0 0 0 0 0 0 0 0 0 0 0 0 0 0 0 0 "/>
</feComponentTransfer>
<feComposite operator="in" in2="shape" in="coloredNoise1" result="noise1Clipped" />
<feFlood flood-color="rgba(0, 0, 0, 0.25)" result="color1Flood" />
<feComposite operator="in" in2="noise1Clipped" in="color1Flood" result="color1" />
<feMerge result="effect1_noise_1411_113642">
<feMergeNode in="shape" />
<feMergeNode in="color1" />
</feMerge>
</filter>
<clipPath id="clip0_1411_113642">
<rect width="400" height="245.185" rx="16.6765" fill="white"/>
</clipPath>
<clipPath id="clip1_1411_113642">
<rect width="13.3333" height="13.3333" fill="white" transform="translate(193.332 194.075)"/>
</clipPath>
<clipPath id="clip2_1411_113642">
<rect width="13.3333" height="13.3333" fill="white" transform="translate(10 10)"/>
</clipPath>
<clipPath id="clip3_1411_113642">
<rect width="13.3333" height="13.3333" fill="white" transform="translate(10 221.852)"/>
</clipPath>
<clipPath id="clip4_1411_113642">
<rect width="13.3333" height="13.3333" fill="white" transform="translate(376.664 10)"/>
</clipPath>
<clipPath id="clip5_1411_113642">
<rect width="13.3333" height="13.3333" fill="white" transform="translate(376.664 221.852)"/>
</clipPath>
</defs>
</svg>
