<svg width="400" height="246" viewBox="0 0 400 246" fill="none" xmlns="http://www.w3.org/2000/svg">
<g filter="url(#filter0_n_1411_113241)">
<g clip-path="url(#clip0_1411_113241)">
<rect width="400" height="245.185" rx="16.6765" fill="white"/>
<g opacity="0.8">
<mask id="path-2-outside-1_1411_113241" maskUnits="userSpaceOnUse" x="-0.886719" y="-0.888916" width="401" height="247" fill="black">
<rect fill="white" x="-0.886719" y="-0.888916" width="401" height="247"/>
<path d="M382.595 1.11108C391.595 1.11108 398.891 8.40692 398.892 17.407V227.778C398.891 236.778 391.595 244.074 382.595 244.074H17.4102C8.41011 244.074 1.11352 236.778 1.11328 227.778V17.407C1.11344 8.40692 8.41006 1.11108 17.4102 1.11108H382.595ZM105.558 217.387C99.8304 217.388 95.1875 222.03 95.1875 227.758C95.1875 233.485 99.8304 238.127 105.558 238.128C111.285 238.128 115.929 233.485 115.929 227.758C115.929 222.03 111.285 217.387 105.558 217.387ZM294.817 217.387C289.09 217.388 284.447 222.03 284.447 227.758C284.447 233.485 289.09 238.128 294.817 238.128C300.545 238.128 305.187 233.485 305.188 227.758C305.188 222.03 300.545 217.387 294.817 217.387ZM138.891 217.387C137.663 217.388 136.669 218.382 136.669 219.609V229.239C136.669 230.466 137.663 231.462 138.891 231.462H148.521C149.748 231.462 150.742 230.466 150.742 229.239V219.609C150.742 218.382 149.748 217.387 148.521 217.387H138.891ZM251.854 217.387C250.627 217.388 249.633 218.382 249.633 219.609V229.239C249.633 230.466 250.627 231.462 251.854 231.462H261.484C262.712 231.462 263.707 230.466 263.707 229.239V219.609C263.707 218.382 262.712 217.387 261.484 217.387H251.854ZM119.261 89.6296C107.193 89.6299 97.4092 99.4129 97.4092 111.481C97.4092 123.549 107.192 133.333 119.261 133.333C131.329 133.333 141.113 123.55 141.113 111.481C141.113 99.4128 131.329 89.6296 119.261 89.6296ZM280.743 89.6296C268.675 89.6296 258.891 99.4128 258.891 111.481C258.891 123.55 268.675 133.333 280.743 133.333C292.811 133.333 302.595 123.55 302.595 111.481C302.595 99.4129 292.811 89.6298 280.743 89.6296Z"/>
</mask>
<path d="M382.595 1.11108C391.595 1.11108 398.891 8.40692 398.892 17.407V227.778C398.891 236.778 391.595 244.074 382.595 244.074H17.4102C8.41011 244.074 1.11352 236.778 1.11328 227.778V17.407C1.11344 8.40692 8.41006 1.11108 17.4102 1.11108H382.595ZM105.558 217.387C99.8304 217.388 95.1875 222.03 95.1875 227.758C95.1875 233.485 99.8304 238.127 105.558 238.128C111.285 238.128 115.929 233.485 115.929 227.758C115.929 222.03 111.285 217.387 105.558 217.387ZM294.817 217.387C289.09 217.388 284.447 222.03 284.447 227.758C284.447 233.485 289.09 238.128 294.817 238.128C300.545 238.128 305.187 233.485 305.188 227.758C305.188 222.03 300.545 217.387 294.817 217.387ZM138.891 217.387C137.663 217.388 136.669 218.382 136.669 219.609V229.239C136.669 230.466 137.663 231.462 138.891 231.462H148.521C149.748 231.462 150.742 230.466 150.742 229.239V219.609C150.742 218.382 149.748 217.387 148.521 217.387H138.891ZM251.854 217.387C250.627 217.388 249.633 218.382 249.633 219.609V229.239C249.633 230.466 250.627 231.462 251.854 231.462H261.484C262.712 231.462 263.707 230.466 263.707 229.239V219.609C263.707 218.382 262.712 217.387 261.484 217.387H251.854ZM119.261 89.6296C107.193 89.6299 97.4092 99.4129 97.4092 111.481C97.4092 123.549 107.192 133.333 119.261 133.333C131.329 133.333 141.113 123.55 141.113 111.481C141.113 99.4128 131.329 89.6296 119.261 89.6296ZM280.743 89.6296C268.675 89.6296 258.891 99.4128 258.891 111.481C258.891 123.55 268.675 133.333 280.743 133.333C292.811 133.333 302.595 123.55 302.595 111.481C302.595 99.4129 292.811 89.6298 280.743 89.6296Z" fill="#9B51E0"/>
<path d="M398.892 17.407H400.003V17.407L398.892 17.407ZM398.892 227.778L400.003 227.778V227.778H398.892ZM1.11328 227.778H0.00217009V227.778L1.11328 227.778ZM1.11328 17.407L0.00217009 17.407V17.407H1.11328ZM105.558 217.387V216.276H105.558L105.558 217.387ZM95.1875 227.758H94.0764V227.758L95.1875 227.758ZM105.558 238.128L105.558 239.239H105.558V238.128ZM115.929 227.758L117.04 227.758V227.758H115.929ZM294.817 217.387V216.276H294.817L294.817 217.387ZM284.447 227.758H283.336V227.758L284.447 227.758ZM294.817 238.128L294.817 239.239H294.817V238.128ZM305.188 227.758L306.299 227.758V227.758H305.188ZM138.891 217.387V216.276H138.891L138.891 217.387ZM136.669 219.609L135.558 219.609V219.609H136.669ZM136.669 229.239H135.558V229.239L136.669 229.239ZM138.891 231.462L138.891 232.573H138.891V231.462ZM148.521 231.462V232.573H148.521L148.521 231.462ZM150.742 229.239L151.853 229.239V229.239H150.742ZM150.742 219.609H151.853V219.609L150.742 219.609ZM148.521 217.387L148.521 216.276H148.521V217.387ZM251.854 217.387V216.276H251.854L251.854 217.387ZM249.633 219.609L248.522 219.609V219.609H249.633ZM249.633 229.239H248.522V229.239L249.633 229.239ZM251.854 231.462L251.854 232.573H251.854V231.462ZM263.707 229.239L264.818 229.239V229.239H263.707ZM263.707 219.609H264.818V219.609L263.707 219.609ZM119.261 89.6296V88.5185H119.261L119.261 89.6296ZM97.4092 111.481L96.2981 111.481V111.481H97.4092ZM119.261 133.333L119.261 134.444H119.261V133.333ZM141.113 111.481H142.224V111.481L141.113 111.481ZM280.743 89.6296L280.743 88.5185H280.743V89.6296ZM258.891 111.481L257.78 111.481V111.481H258.891ZM280.743 133.333V134.444H280.743L280.743 133.333ZM302.595 111.481H303.706V111.481L302.595 111.481ZM382.595 1.11108V2.2222C390.981 2.2222 397.78 9.02064 397.78 17.407L398.892 17.407L400.003 17.407C400.003 7.7932 392.208 -2.71797e-05 382.595 -2.71797e-05V1.11108ZM398.892 17.407H397.78V227.778H398.892H400.003V17.407H398.892ZM398.892 227.778L397.78 227.778C397.78 236.164 390.981 242.963 382.595 242.963V244.074V245.185C392.208 245.185 400.002 237.392 400.003 227.778L398.892 227.778ZM382.595 244.074V242.963H17.4102V244.074V245.185H382.595V244.074ZM17.4102 244.074V242.963C9.0237 242.963 2.22462 236.164 2.22439 227.778L1.11328 227.778L0.00217009 227.778C0.00242567 237.392 7.79652 245.185 17.4102 245.185V244.074ZM1.11328 227.778H2.22439V17.407H1.11328H0.00217009V227.778H1.11328ZM1.11328 17.407L2.22439 17.407C2.22454 9.02064 9.02364 2.2222 17.4102 2.2222V1.11108V-2.71797e-05C7.79647 -2.71797e-05 0.00233757 7.7932 0.00217009 17.407L1.11328 17.407ZM17.4102 1.11108V2.2222H382.595V1.11108V-2.71797e-05H17.4102V1.11108ZM105.558 217.387L105.558 216.276C99.2168 216.277 94.0764 221.417 94.0764 227.758H95.1875H96.2986C96.2986 222.644 100.444 218.499 105.558 218.499L105.558 217.387ZM95.1875 227.758L94.0764 227.758C94.0764 234.098 99.2168 239.239 105.558 239.239L105.558 238.128L105.558 237.017C100.444 237.016 96.2987 232.871 96.2986 227.758L95.1875 227.758ZM105.558 238.128V239.239C111.899 239.239 117.04 234.099 117.04 227.758L115.929 227.758L114.818 227.758C114.818 232.871 110.671 237.017 105.558 237.017V238.128ZM115.929 227.758H117.04C117.04 221.416 111.899 216.276 105.558 216.276V217.387V218.499C110.672 218.499 114.818 222.644 114.818 227.758H115.929ZM294.817 217.387L294.817 216.276C288.476 216.276 283.336 221.417 283.336 227.758H284.447H285.558C285.558 222.644 289.704 218.499 294.817 218.499L294.817 217.387ZM284.447 227.758L283.336 227.758C283.336 234.099 288.476 239.239 294.817 239.239L294.817 238.128L294.817 237.017C289.704 237.016 285.558 232.871 285.558 227.758L284.447 227.758ZM294.817 238.128V239.239C301.158 239.239 306.299 234.099 306.299 227.758L305.188 227.758L304.076 227.758C304.076 232.871 299.931 237.017 294.817 237.017V238.128ZM305.188 227.758H306.299C306.299 221.417 301.158 216.276 294.817 216.276V217.387V218.499C299.931 218.499 304.076 222.644 304.076 227.758H305.188ZM138.891 217.387L138.891 216.276C137.05 216.276 135.558 217.768 135.558 219.609L136.669 219.609L137.78 219.609C137.78 218.996 138.277 218.499 138.891 218.499L138.891 217.387ZM136.669 219.609H135.558V229.239H136.669H137.78V219.609H136.669ZM136.669 229.239L135.558 229.239C135.558 231.079 137.049 232.573 138.891 232.573L138.891 231.462L138.891 230.351C138.278 230.351 137.78 229.853 137.78 229.239L136.669 229.239ZM138.891 231.462V232.573H148.521V231.462V230.351H138.891V231.462ZM148.521 231.462L148.521 232.573C150.362 232.573 151.853 231.079 151.853 229.239L150.742 229.239L149.631 229.239C149.631 229.853 149.133 230.351 148.52 230.351L148.521 231.462ZM150.742 229.239H151.853V219.609H150.742H149.631V229.239H150.742ZM150.742 219.609L151.853 219.609C151.853 217.768 150.361 216.276 148.521 216.276L148.521 217.387L148.52 218.499C149.134 218.499 149.631 218.996 149.631 219.609L150.742 219.609ZM148.521 217.387V216.276H138.891V217.387V218.499H148.521V217.387ZM251.854 217.387L251.854 216.276C250.014 216.277 248.522 217.768 248.522 219.609L249.633 219.609L250.744 219.609C250.744 218.996 251.241 218.499 251.855 218.499L251.854 217.387ZM249.633 219.609H248.522V229.239H249.633H250.744V219.609H249.633ZM249.633 229.239L248.522 229.239C248.522 231.079 250.013 232.573 251.854 232.573L251.854 231.462L251.855 230.351C251.242 230.35 250.744 229.853 250.744 229.239L249.633 229.239ZM251.854 231.462V232.573H261.484V231.462V230.351H251.854V231.462ZM261.484 231.462V232.573C263.325 232.573 264.818 231.08 264.818 229.239L263.707 229.239L262.596 229.239C262.596 229.853 262.098 230.351 261.484 230.351V231.462ZM263.707 229.239H264.818V219.609H263.707H262.596V229.239H263.707ZM263.707 219.609L264.818 219.609C264.818 217.768 263.325 216.276 261.484 216.276V217.387V218.499C262.098 218.499 262.596 218.996 262.596 219.609L263.707 219.609ZM261.484 217.387V216.276H251.854V217.387V218.499H261.484V217.387ZM119.261 89.6296L119.261 88.5185C106.579 88.5188 96.2981 98.7993 96.2981 111.481L97.4092 111.481L98.5203 111.481C98.5204 100.027 107.806 90.741 119.261 90.7408L119.261 89.6296ZM97.4092 111.481H96.2981C96.2981 124.163 106.579 134.444 119.261 134.444L119.261 133.333L119.261 132.222C107.806 132.221 98.5203 122.936 98.5203 111.481H97.4092ZM119.261 133.333V134.444C131.943 134.444 142.224 124.163 142.224 111.481H141.113H140.002C140.002 122.936 130.716 132.222 119.261 132.222V133.333ZM141.113 111.481L142.224 111.481C142.224 98.7991 131.943 88.5185 119.261 88.5185V89.6296V90.7408C130.716 90.7408 140.002 100.027 140.002 111.481L141.113 111.481ZM280.743 89.6296V88.5185C268.061 88.5185 257.78 98.7991 257.78 111.481L258.891 111.481L260.002 111.481C260.002 100.027 269.288 90.7408 280.743 90.7408V89.6296ZM258.891 111.481H257.78C257.78 124.163 268.061 134.444 280.743 134.444V133.333V132.222C269.288 132.222 260.002 122.936 260.002 111.481H258.891ZM280.743 133.333L280.743 134.444C293.425 134.444 303.706 124.163 303.706 111.481H302.595H301.484C301.484 122.936 292.198 132.221 280.743 132.222L280.743 133.333ZM302.595 111.481L303.706 111.481C303.706 98.7993 293.425 88.5187 280.743 88.5185L280.743 89.6296L280.743 90.7408C292.198 90.7409 301.484 100.027 301.484 111.481L302.595 111.481Z" fill="#202020" mask="url(#path-2-outside-1_1411_113241)"/>
</g>
<g filter="url(#filter1_d_1411_113241)">
<path d="M130.221 185.023V157.979H110.335V162.395H125.175V168.884H111.432V173.3H125.175V180.608H110.335V185.023H130.221Z" fill="#1E1E1E"/>
<path d="M57.3982 165.725C57.3982 166.588 57.2851 167.413 57.0591 168.199C56.8463 168.973 56.5006 169.722 56.0219 170.445C55.5565 171.168 54.9116 171.815 54.0871 172.386C53.276 172.957 52.3119 173.401 51.1949 173.718L59.7518 185.023H53.2095L45.2709 174.537H40.4639V185.023H35.4375V157.979H47.5049C48.1033 157.979 48.6485 157.998 49.1405 158.036C49.6458 158.062 50.2508 158.138 50.9556 158.265C51.6737 158.379 52.3053 158.538 52.8505 158.741C53.4089 158.944 53.9808 159.242 54.5658 159.635C55.1642 160.028 55.6562 160.491 56.0418 161.024C56.4408 161.545 56.7666 162.211 57.0192 163.023C57.2719 163.822 57.3982 164.723 57.3982 165.725ZM40.4639 162.376V170.121H45.0914C45.8893 170.121 46.594 170.096 47.2057 170.045C47.8174 169.995 48.449 169.893 49.1006 169.741C49.7522 169.576 50.2841 169.354 50.6963 169.075C51.1218 168.796 51.4675 168.409 51.7335 167.914C52.0127 167.419 52.1523 166.835 52.1523 166.163C52.1523 163.638 50.1112 162.376 46.0289 162.376H40.4639Z" fill="#1E1E1E"/>
<path d="M61.468 185.023V157.979H81.3543V162.395H66.5144V168.884H80.2572V173.3H66.5144V180.608H81.3543V185.023H61.468Z" fill="#1E1E1E"/>
<path d="M81.4349 157.979H87.1993L95.5368 179.865L103.854 157.979H109.32L98.3492 185.023H92.3853L81.4349 157.979Z" fill="#1E1E1E"/>
<path d="M132.468 165.725C132.468 166.588 132.581 167.413 132.807 168.199C133.02 168.973 133.366 169.722 133.844 170.445C134.31 171.168 134.955 171.815 135.779 172.386C136.59 172.957 137.554 173.401 138.671 173.718L130.115 185.023H136.657L144.595 174.537H149.402V185.023H154.429V157.979H142.361C141.763 157.979 141.218 157.998 140.726 158.036C140.221 158.062 139.616 158.138 138.911 158.265C138.193 158.379 137.561 158.538 137.016 158.741C136.457 158.944 135.886 159.242 135.301 159.635C134.702 160.028 134.21 160.491 133.825 161.024C133.426 161.545 133.1 162.211 132.847 163.023C132.595 163.822 132.468 164.723 132.468 165.725ZM149.402 162.376V170.121H144.775C143.977 170.121 143.272 170.096 142.661 170.045C142.049 169.995 141.417 169.893 140.766 169.741C140.114 169.576 139.582 169.354 139.17 169.075C138.745 168.796 138.399 168.409 138.133 167.914C137.854 167.419 137.714 166.835 137.714 166.163C137.714 163.638 139.755 162.376 143.837 162.376H149.402Z" fill="#1E1E1E"/>
<path d="M168.766 157.732C171.412 157.732 174.025 158.106 176.605 158.855L177.423 159.083L175.787 163.498L175.029 163.289C172.622 162.655 170.428 162.338 168.447 162.338C166.492 162.338 164.817 162.642 163.421 163.251C162.038 163.86 161.346 164.64 161.346 165.592C161.346 166.214 161.652 166.759 162.264 167.229C162.889 167.698 163.693 168.098 164.677 168.428C165.661 168.745 166.745 169.062 167.928 169.379C169.125 169.696 170.322 170.064 171.519 170.483C172.716 170.902 173.806 171.384 174.79 171.929C175.774 172.475 176.572 173.204 177.183 174.118C177.808 175.019 178.121 176.059 178.121 177.239C178.121 178 177.981 178.755 177.702 179.504C177.436 180.24 176.977 180.969 176.326 181.692C175.687 182.416 174.89 183.05 173.932 183.596C172.988 184.129 171.778 184.566 170.302 184.909C168.839 185.239 167.197 185.404 165.375 185.404C163.554 185.404 161.911 185.245 160.449 184.928C158.986 184.598 157.437 184.129 155.801 183.52L155.063 183.253L156.759 178.647L157.537 178.933C160.901 180.075 163.673 180.646 165.854 180.646C167.902 180.646 169.557 180.348 170.821 179.751C172.097 179.155 172.735 178.368 172.735 177.391C172.735 176.846 172.543 176.357 172.157 175.926C171.771 175.495 171.253 175.133 170.601 174.841C169.95 174.537 169.198 174.258 168.347 174.004C167.51 173.75 166.625 173.503 165.694 173.262C164.764 173.021 163.833 172.76 162.902 172.481C161.971 172.202 161.08 171.866 160.229 171.473C159.391 171.079 158.647 170.635 157.995 170.14C157.344 169.646 156.825 169.03 156.439 168.294C156.054 167.546 155.861 166.715 155.861 165.801C155.861 163.517 157.031 161.602 159.372 160.054C161.725 158.506 164.857 157.732 168.766 157.732Z" fill="#1E1E1E"/>
<path d="M180.575 185.023V157.979H200.461V162.395H185.621V168.884H199.364V173.3H185.621V180.608H200.461V185.023H180.575Z" fill="#1E1E1E"/>
</g>
<path d="M223.033 185.404C218.326 185.404 214.733 184.204 212.255 181.806C209.804 179.407 208.578 176.001 208.578 171.587C208.578 169.393 208.954 167.441 209.706 165.731C210.458 163.996 211.489 162.542 212.798 161.368C214.107 160.169 215.666 159.263 217.477 158.65C219.287 158.038 221.251 157.732 223.367 157.732C224.593 157.732 225.707 157.821 226.709 158C227.712 158.153 228.589 158.344 229.341 158.574C230.093 158.778 230.72 158.995 231.221 159.225C231.723 159.454 232.085 159.633 232.308 159.76L230.428 164.583C229.536 164.149 228.492 163.779 227.294 163.473C226.125 163.167 224.788 163.014 223.284 163.014C222.281 163.014 221.292 163.167 220.318 163.473C219.371 163.779 218.521 164.277 217.769 164.966C217.045 165.629 216.46 166.497 216.014 167.568C215.569 168.64 215.346 169.941 215.346 171.472C215.346 172.697 215.485 173.845 215.764 174.917C216.07 175.963 216.544 176.869 217.184 177.634C217.853 178.4 218.716 179.012 219.774 179.471C220.833 179.905 222.114 180.122 223.618 180.122C224.565 180.122 225.414 180.071 226.166 179.969C226.918 179.867 227.587 179.752 228.172 179.624C228.757 179.471 229.272 179.305 229.717 179.127C230.163 178.948 230.567 178.782 230.929 178.629L232.725 183.413C231.806 183.924 230.511 184.383 228.84 184.791C227.169 185.199 225.233 185.404 223.033 185.404Z" fill="#1E1E1E"/>
<path d="M241.333 171.587C241.333 172.888 241.501 174.062 241.835 175.108C242.197 176.154 242.698 177.06 243.339 177.825C244.007 178.565 244.815 179.14 245.762 179.548C246.709 179.956 247.795 180.16 249.02 180.16C250.218 180.16 251.29 179.956 252.237 179.548C253.212 179.14 254.02 178.565 254.66 177.825C255.329 177.06 255.83 176.154 256.164 175.108C256.526 174.062 256.707 172.888 256.707 171.587C256.707 170.286 256.526 169.112 256.164 168.066C255.83 166.994 255.329 166.088 254.66 165.348C254.02 164.583 253.212 163.996 252.237 163.588C251.29 163.18 250.218 162.975 249.02 162.975C247.795 162.975 246.709 163.192 245.762 163.626C244.815 164.034 244.007 164.621 243.339 165.387C242.698 166.127 242.197 167.032 241.835 168.104C241.501 169.15 241.333 170.311 241.333 171.587ZM263.434 171.587C263.434 173.858 263.058 175.861 262.306 177.596C261.581 179.305 260.579 180.747 259.298 181.921C258.016 183.069 256.485 183.936 254.702 184.523C252.947 185.11 251.054 185.404 249.02 185.404C247.043 185.404 245.177 185.11 243.422 184.523C241.668 183.936 240.136 183.069 238.827 181.921C237.518 180.747 236.487 179.305 235.735 177.596C234.983 175.861 234.607 173.858 234.607 171.587C234.607 169.316 234.997 167.326 235.777 165.616C236.557 163.881 237.601 162.427 238.91 161.253C240.247 160.079 241.779 159.199 243.506 158.612C245.26 158.025 247.099 157.732 249.02 157.732C250.998 157.732 252.864 158.025 254.619 158.612C256.373 159.199 257.905 160.079 259.214 161.253C260.523 162.427 261.554 163.881 262.306 165.616C263.058 167.326 263.434 169.316 263.434 171.587Z" fill="#1E1E1E"/>
<path d="M275.383 180.007C275.69 180.033 276.038 180.058 276.428 180.084C276.846 180.084 277.333 180.084 277.89 180.084C281.149 180.084 283.558 179.331 285.117 177.825C286.705 176.32 287.499 174.241 287.499 171.587C287.499 168.806 286.747 166.701 285.243 165.272C283.739 163.843 281.358 163.128 278.099 163.128C277.653 163.128 277.194 163.141 276.72 163.167C276.247 163.167 275.801 163.192 275.383 163.243V180.007ZM294.225 171.587C294.225 173.883 293.835 175.886 293.055 177.596C292.275 179.305 291.161 180.722 289.713 181.844C288.293 182.967 286.552 183.809 284.491 184.37C282.43 184.932 280.118 185.212 277.556 185.212C276.386 185.212 275.021 185.161 273.462 185.059C271.902 184.983 270.37 184.804 268.866 184.523V158.689C270.37 158.434 271.93 158.268 273.545 158.191C275.188 158.089 276.595 158.038 277.765 158.038C280.243 158.038 282.486 158.293 284.491 158.804C286.524 159.314 288.265 160.118 289.713 161.215C291.161 162.312 292.275 163.715 293.055 165.425C293.835 167.134 294.225 169.188 294.225 171.587Z" fill="#1E1E1E"/>
<path d="M329.376 184.868C327.51 181.831 325.491 178.833 323.318 175.874C321.146 172.914 318.834 170.12 316.383 167.492V184.868H309.95V158.344H315.256C316.175 159.186 317.191 160.22 318.305 161.444C319.419 162.669 320.547 163.983 321.689 165.387C322.859 166.764 324.015 168.206 325.157 169.712C326.299 171.191 327.371 172.62 328.373 173.998V158.344H334.849V184.868H329.376Z" fill="#1E1E1E"/>
<path d="M355.648 162.937C352.612 162.937 350.412 163.715 349.047 165.272C347.71 166.803 347.042 168.908 347.042 171.587C347.042 172.888 347.209 174.075 347.543 175.146C347.878 176.192 348.379 177.098 349.047 177.864C349.716 178.629 350.551 179.229 351.554 179.663C352.557 180.071 353.726 180.275 355.063 180.275C355.787 180.275 356.4 180.262 356.901 180.237C357.431 180.211 357.89 180.16 358.28 180.084V170.86H364.797V183.988C364.017 184.268 362.764 184.562 361.037 184.868C359.311 185.199 357.18 185.365 354.645 185.365C352.473 185.365 350.496 185.059 348.713 184.447C346.959 183.834 345.455 182.941 344.201 181.768C342.948 180.594 341.973 179.152 341.277 177.443C340.608 175.733 340.274 173.781 340.274 171.587C340.274 169.367 340.65 167.402 341.402 165.693C342.154 163.983 343.185 162.542 344.494 161.368C345.803 160.169 347.334 159.263 349.089 158.65C350.872 158.038 352.766 157.732 354.771 157.732C356.136 157.732 357.361 157.821 358.447 158C359.561 158.153 360.508 158.344 361.288 158.574C362.096 158.778 362.75 158.995 363.252 159.225C363.781 159.454 364.157 159.633 364.38 159.76L362.5 164.545C361.608 164.111 360.578 163.741 359.408 163.435C358.266 163.103 357.013 162.937 355.648 162.937Z" fill="#1E1E1E"/>
<path d="M297.606 176.215V168.222H305.811V175.176C305.811 177.537 305.622 179.367 305.244 180.667C304.866 181.967 304.054 183.028 302.809 183.851C301.586 184.696 299.852 185.151 297.606 185.216V181.837C300.274 181.447 301.608 179.833 301.608 176.995C301.608 176.822 301.597 176.562 301.575 176.215H297.606Z" fill="#1E1E1E"/>
<path d="M305.008 161.996C305.008 163.906 303.418 165.454 301.458 165.454C299.497 165.454 297.907 163.906 297.907 161.996C297.907 160.085 299.497 158.537 301.458 158.537C303.418 158.537 305.008 160.085 305.008 161.996Z" fill="#1E1E1E"/>
<path d="M280.371 83.7036C295.712 83.7036 308.149 96.1399 308.149 111.481C308.149 126.822 295.712 139.259 280.371 139.259C265.03 139.259 252.594 126.822 252.594 111.481C252.594 96.1401 265.03 83.7039 280.371 83.7036ZM280.742 88.5181C268.06 88.5182 257.78 98.7991 257.779 111.481C257.779 124.163 268.06 134.444 280.742 134.444C293.424 134.444 303.705 124.163 303.705 111.481C303.705 98.799 293.424 88.5181 280.742 88.5181Z" fill="#202020"/>
<path d="M46.8505 101.111C42.9842 131.761 27.9386 204.763 31.8504 228.333M43.332 237.963C69.0728 238.333 353.888 237.963 356.665 237.963M303.147 95.9258C316.26 115.358 358.452 193.064 367.943 223.333" stroke="#202020" stroke-width="0.37037"/>
<path d="M43.332 214.444C49.8775 214.444 55.1844 219.75 55.1846 226.296C55.1846 232.841 49.8776 238.148 43.332 238.148C36.7866 238.148 31.4805 232.841 31.4805 226.296C31.4807 219.751 36.7867 214.444 43.332 214.444ZM43.332 221.308C40.5762 221.308 38.3419 223.542 38.3418 226.298C38.3418 229.054 40.5761 231.288 43.332 231.288C46.0881 231.288 48.3223 229.054 48.3223 226.298C48.3221 223.542 46.088 221.308 43.332 221.308Z" fill="#202020"/>
<path d="M356.669 214.444C363.214 214.445 368.52 219.751 368.521 226.296C368.521 232.841 363.214 238.148 356.669 238.148C350.123 238.148 344.816 232.841 344.816 226.296C344.817 219.75 350.123 214.444 356.669 214.444ZM356.669 221.308C353.913 221.308 351.679 223.542 351.679 226.298C351.679 229.054 353.913 231.288 356.669 231.288C359.425 231.288 361.659 229.054 361.659 226.298C361.659 223.542 359.425 221.308 356.669 221.308Z" fill="#202020"/>
<path d="M90.1416 189.815H312.815C317.978 189.815 322.484 193.315 323.761 198.318L335.581 244.629H64.8281L79.3516 197.767C80.8171 193.038 85.191 189.815 90.1416 189.815Z" stroke="#202020" stroke-width="1.11111"/>
<circle cx="105.554" cy="227.778" r="9.81481" stroke="#202020" stroke-width="1.11111"/>
<circle cx="294.816" cy="227.778" r="9.81481" stroke="#202020" stroke-width="1.11111"/>
<rect x="137.224" y="217.963" width="12.963" height="12.963" rx="1.66667" stroke="#202020" stroke-width="1.11111"/>
<path d="M192.961 231.482C192.961 230.254 193.956 229.259 195.183 229.259H204.813C206.04 229.259 207.035 230.254 207.035 231.481V238.148H192.961V231.482Z" fill="#202020"/>
<rect x="250.184" y="217.963" width="12.963" height="12.963" rx="1.66667" stroke="#202020" stroke-width="1.11111"/>
<g clip-path="url(#clip1_1411_113241)">
<path d="M199.999 194.074C203.681 194.074 206.665 197.059 206.665 200.741C206.665 204.422 203.681 207.407 199.999 207.407C196.317 207.407 193.332 204.422 193.332 200.741C193.332 197.059 196.317 194.074 199.999 194.074ZM200.543 196.75C200.422 196.158 199.575 196.158 199.454 196.75L198.945 199.253C198.901 199.472 198.73 199.643 198.512 199.687L196.009 200.196C195.416 200.317 195.416 201.164 196.009 201.285L198.512 201.793C198.73 201.838 198.901 202.009 198.945 202.227L199.454 204.73C199.575 205.323 200.422 205.323 200.543 204.73L201.052 202.227C201.096 202.009 201.267 201.838 201.485 201.793L203.988 201.285C204.581 201.164 204.581 200.316 203.988 200.196L201.485 199.687C201.267 199.642 201.096 199.472 201.052 199.253L200.543 196.75Z" fill="#202020"/>
</g>
<g clip-path="url(#clip2_1411_113241)">
<path d="M16.667 10C20.3487 10.0002 23.333 12.9852 23.333 16.667C23.3328 20.3486 20.3486 23.3328 16.667 23.333C12.9852 23.333 10.0002 20.3487 10 16.667C10 12.9851 12.9851 10 16.667 10ZM17.2109 12.6768C17.0901 12.0839 16.2428 12.0839 16.1221 12.6768L15.6133 15.1797C15.5688 15.3981 15.3981 15.5688 15.1797 15.6133L12.6768 16.1221C12.0839 16.2428 12.0839 17.0901 12.6768 17.2109L15.1797 17.7197C15.398 17.7641 15.5687 17.935 15.6133 18.1533L16.1221 20.6562C16.2427 21.2494 17.0903 21.2494 17.2109 20.6562L17.7197 18.1533C17.7642 17.9351 17.9351 17.7642 18.1533 17.7197L20.6562 17.2109C21.2494 17.0903 21.2494 16.2427 20.6562 16.1221L18.1533 15.6133C17.935 15.5687 17.7641 15.398 17.7197 15.1797L17.2109 12.6768Z" fill="#202020"/>
</g>
<g clip-path="url(#clip3_1411_113241)">
<path d="M16.667 221.852C20.3487 221.852 23.333 224.837 23.333 228.519C23.3328 232.201 20.3486 235.185 16.667 235.185C12.9852 235.185 10.0002 232.201 10 228.519C10 224.837 12.9851 221.852 16.667 221.852ZM17.2109 224.529C17.0901 223.936 16.2428 223.936 16.1221 224.529L15.6133 227.032C15.5688 227.25 15.3981 227.421 15.1797 227.465L12.6768 227.974C12.0839 228.095 12.0839 228.942 12.6768 229.063L15.1797 229.572C15.398 229.616 15.5687 229.787 15.6133 230.005L16.1221 232.508C16.2427 233.101 17.0903 233.101 17.2109 232.508L17.7197 230.005C17.7642 229.787 17.9351 229.616 18.1533 229.572L20.6562 229.063C21.2494 228.942 21.2494 228.095 20.6562 227.974L18.1533 227.465C17.935 227.421 17.7641 227.25 17.7197 227.032L17.2109 224.529Z" fill="#202020"/>
</g>
<g clip-path="url(#clip4_1411_113241)">
<path d="M383.331 10C387.013 10.0002 389.997 12.9852 389.997 16.667C389.997 20.3486 387.013 23.3328 383.331 23.333C379.649 23.333 376.664 20.3487 376.664 16.667C376.664 12.9851 379.649 10 383.331 10ZM383.875 12.6768C383.754 12.0839 382.907 12.0839 382.786 12.6768L382.277 15.1797C382.233 15.3981 382.062 15.5688 381.844 15.6133L379.341 16.1221C378.748 16.2428 378.748 17.0901 379.341 17.2109L381.844 17.7197C382.062 17.7641 382.233 17.935 382.277 18.1533L382.786 20.6562C382.907 21.2494 383.754 21.2494 383.875 20.6562L384.384 18.1533C384.428 17.9351 384.599 17.7642 384.817 17.7197L387.32 17.2109C387.913 17.0903 387.913 16.2427 387.32 16.1221L384.817 15.6133C384.599 15.5687 384.428 15.398 384.384 15.1797L383.875 12.6768Z" fill="#202020"/>
</g>
<g clip-path="url(#clip5_1411_113241)">
<path d="M383.331 221.852C387.013 221.852 389.997 224.837 389.997 228.519C389.997 232.201 387.013 235.185 383.331 235.185C379.649 235.185 376.664 232.201 376.664 228.519C376.664 224.837 379.649 221.852 383.331 221.852ZM383.875 224.529C383.754 223.936 382.907 223.936 382.786 224.529L382.277 227.032C382.233 227.25 382.062 227.421 381.844 227.465L379.341 227.974C378.748 228.095 378.748 228.942 379.341 229.063L381.844 229.572C382.062 229.616 382.233 229.787 382.277 230.005L382.786 232.508C382.907 233.101 383.754 233.101 383.875 232.508L384.384 230.005C384.428 229.787 384.599 229.616 384.817 229.572L387.32 229.063C387.913 228.942 387.913 228.095 387.32 227.974L384.817 227.465C384.599 227.421 384.428 227.25 384.384 227.032L383.875 224.529Z" fill="#202020"/>
</g>
<path d="M280.93 89.6667C292.998 89.6667 302.782 99.45 302.782 111.518C302.782 123.587 292.998 133.371 280.93 133.371C268.861 133.371 259.078 123.587 259.078 111.518C259.078 99.4501 268.861 89.6669 280.93 89.6667ZM280.806 95.2224C278.567 95.2225 276.433 95.6739 274.491 96.491L276.455 99.8923L272.922 101.932L270.959 98.533C267.552 101.121 265.194 105.018 264.637 109.475H268.566V113.555H264.636C265.191 118.012 267.547 121.908 270.951 124.497L272.916 121.096L276.449 123.136L274.482 126.542C276.427 127.361 278.563 127.815 280.806 127.815C283.045 127.815 285.178 127.362 287.12 126.545L285.157 123.144L288.69 121.105L290.652 124.503C294.061 121.914 296.42 118.015 296.977 113.555H293.045V109.475H296.976C296.418 105.02 294.062 101.124 290.657 98.5369L288.696 101.935L285.163 99.8953L287.127 96.4929C285.183 95.6743 283.047 95.2224 280.806 95.2224Z" fill="#202020"/>
<path d="M119.259 89.6667C131.327 89.6669 141.11 99.4501 141.11 111.518C141.11 123.587 131.327 133.371 119.259 133.371C107.19 133.371 97.4062 123.587 97.4062 111.518C97.4064 99.45 107.19 89.6667 119.259 89.6667ZM119.132 95.2224C116.893 95.2224 114.758 95.6738 112.816 96.491L114.78 99.8923L111.247 101.932L109.285 98.533C105.878 101.121 103.519 105.018 102.962 109.475H106.892V113.555H102.962C103.518 118.011 105.872 121.908 109.276 124.497L111.241 121.096L114.774 123.136L112.808 126.542C114.752 127.361 116.889 127.815 119.132 127.815C121.371 127.815 123.504 127.362 125.446 126.545L123.483 123.144L127.016 121.105L128.978 124.503C132.386 121.914 134.746 118.015 135.302 113.555H131.371V109.475H135.301C134.743 105.02 132.387 101.124 128.982 98.5369L127.021 101.935L123.488 99.8953L125.452 96.4929C123.509 95.6745 121.373 95.2224 119.132 95.2224Z" fill="#202020"/>
<g filter="url(#filter2_n_1411_113241)">
<path d="M222.099 119.313C222.099 120.104 222.402 120.862 222.94 121.421C223.478 121.98 224.207 122.294 224.968 122.294H235.119C235.88 122.294 236.609 121.98 237.148 121.421C237.686 120.862 237.988 120.104 237.988 119.313V54.8146C237.988 54.0232 237.686 53.2641 237.148 52.7037C236.61 52.1432 235.881 51.8273 235.119 51.8249H224.155C223.393 51.8273 222.663 52.1432 222.126 52.7037C221.588 53.2641 221.286 54.0232 221.286 54.8146V55.5729C221.286 56.3634 221.588 57.1216 222.126 57.6807C222.664 58.2397 223.394 58.5538 224.155 58.5538H227.51C228.273 58.5538 229.005 58.8687 229.545 59.4294C230.084 59.99 230.388 60.7505 230.388 61.5434L230.304 113.369C230.297 114.154 229.993 114.904 229.458 115.457C228.922 116.01 228.198 116.322 227.443 116.324H224.977C224.214 116.324 223.482 116.639 222.942 117.199C222.403 117.76 222.099 118.521 222.099 119.313Z" fill="#1E1E1E"/>
<path d="M178.494 119.313C178.494 120.104 178.192 120.862 177.654 121.421C177.116 121.98 176.386 122.294 175.625 122.294H165.475C164.713 122.294 163.983 121.981 163.443 121.422C162.904 120.863 162.6 120.105 162.598 119.313V54.8146C162.6 54.0224 162.904 53.2633 163.443 52.7031C163.982 52.143 164.713 51.8272 165.475 51.8249H176.431C177.193 51.8272 177.924 52.143 178.463 52.7031C179.002 53.2633 179.306 54.0224 179.308 54.8146V55.5729C179.306 56.3642 179.002 57.1224 178.462 57.6812C177.923 58.24 177.192 58.5538 176.431 58.5538H173.075C172.314 58.5561 171.584 58.8721 171.046 59.4325C170.508 59.9929 170.206 60.752 170.206 61.5434L170.29 113.369C170.29 113.761 170.365 114.149 170.51 114.511C170.654 114.872 170.867 115.201 171.134 115.477C171.401 115.753 171.719 115.972 172.068 116.12C172.417 116.268 172.79 116.344 173.168 116.341H175.634C176.391 116.346 177.116 116.66 177.652 117.217C178.187 117.773 178.49 118.527 178.494 119.313Z" fill="#1E1E1E"/>
<path d="M182.093 111.155C182.091 111.535 181.944 111.899 181.685 112.166C181.425 112.434 181.075 112.585 180.709 112.585H175.843C175.479 112.582 175.131 112.431 174.873 112.163C174.616 111.896 174.47 111.534 174.468 111.155V95.706V80.2568C174.468 79.8776 174.613 79.514 174.871 79.246C175.129 78.9779 175.479 78.8273 175.843 78.8273H181.103C181.468 78.8273 181.818 78.9779 182.076 79.246C182.334 79.514 182.479 79.8776 182.479 80.2568V80.5967C182.477 80.9751 182.331 81.3374 182.074 81.6049C181.816 81.8725 181.467 82.0238 181.103 82.0261H179.493C179.127 82.0261 178.776 82.1764 178.517 82.4443C178.257 82.7121 178.111 83.0756 178.108 83.4555L178.15 108.296C178.153 108.676 178.299 109.04 178.559 109.308C178.818 109.575 179.169 109.726 179.535 109.726H180.709C180.89 109.725 181.07 109.761 181.238 109.832C181.406 109.903 181.559 110.008 181.687 110.141C181.816 110.274 181.918 110.432 181.988 110.606C182.057 110.78 182.093 110.967 182.093 111.155Z" fill="#1E1E1E"/>
<path d="M200.029 70.4686C212.45 70.4686 222.519 68.1779 222.519 65.3522C222.519 62.5266 212.45 60.2359 200.029 60.2359C187.607 60.2359 177.538 62.5266 177.538 65.3522C177.538 68.1779 187.607 70.4686 200.029 70.4686Z" fill="#1E1E1E"/>
<path d="M193.829 50.6221C183.956 45.3925 197.705 33.835 193.687 26.3479C192.797 24.6744 188.88 26.1736 189.71 27.7163C192.638 33.1813 186.808 38.1146 186.279 43.536C185.902 47.4582 187.361 51.302 190.818 53.1236C192.277 53.8994 195.775 51.6506 193.829 50.6221Z" fill="#1E1E1E"/>
<path d="M199.76 35.892C201.052 32.5886 202.059 28.9191 201.161 25.3804C199.953 20.5604 196.329 17.4924 196.128 12.1407C196.052 10.258 192.026 11.2691 192.084 12.8031C192.158 16.0504 193.071 19.2173 194.727 21.9724C197.596 26.775 197.94 30.6275 195.884 35.8745C195.104 37.8531 199.139 37.304 199.693 35.8745L199.76 35.892Z" fill="#1E1E1E"/>
</g>
</g>
</g>
<defs>
<filter id="filter0_n_1411_113241" x="0" y="0" width="400" height="245.185" filterUnits="userSpaceOnUse" color-interpolation-filters="sRGB">
<feFlood flood-opacity="0" result="BackgroundImageFix"/>
<feBlend mode="normal" in="SourceGraphic" in2="BackgroundImageFix" result="shape"/>
<feTurbulence type="fractalNoise" baseFrequency="2.8783018589019775 2.8783018589019775" stitchTiles="stitch" numOctaves="3" result="noise" seed="8462" />
<feColorMatrix in="noise" type="luminanceToAlpha" result="alphaNoise" />
<feComponentTransfer in="alphaNoise" result="coloredNoise1">
<feFuncA type="discrete" tableValues="1 1 1 1 1 1 1 1 1 1 1 1 1 1 1 1 1 1 1 1 1 1 1 1 1 1 1 1 1 1 1 1 1 1 1 1 1 1 1 1 1 1 1 1 1 1 1 1 1 1 1 0 0 0 0 0 0 0 0 0 0 0 0 0 0 0 0 0 0 0 0 0 0 0 0 0 0 0 0 0 0 0 0 0 0 0 0 0 0 0 0 0 0 0 0 0 0 0 0 0 "/>
</feComponentTransfer>
<feComposite operator="in" in2="shape" in="coloredNoise1" result="noise1Clipped" />
<feFlood flood-color="rgba(0, 0, 0, 0.25)" result="color1Flood" />
<feComposite operator="in" in2="noise1Clipped" in="color1Flood" result="color1" />
<feMerge result="effect1_noise_1411_113241">
<feMergeNode in="shape" />
<feMergeNode in="color1" />
</feMerge>
</filter>
<filter id="filter1_d_1411_113241" x="33.693" y="157.732" width="168.512" height="31.1606" filterUnits="userSpaceOnUse" color-interpolation-filters="sRGB">
<feFlood flood-opacity="0" result="BackgroundImageFix"/>
<feColorMatrix in="SourceAlpha" type="matrix" values="0 0 0 0 0 0 0 0 0 0 0 0 0 0 0 0 0 0 127 0" result="hardAlpha"/>
<feOffset dy="1.7445"/>
<feGaussianBlur stdDeviation="0.872249"/>
<feComposite in2="hardAlpha" operator="out"/>
<feColorMatrix type="matrix" values="0 0 0 0 0 0 0 0 0 0 0 0 0 0 0 0 0 0 0.25 0"/>
<feBlend mode="normal" in2="BackgroundImageFix" result="effect1_dropShadow_1411_113241"/>
<feBlend mode="normal" in="SourceGraphic" in2="effect1_dropShadow_1411_113241" result="shape"/>
</filter>
<filter id="filter2_n_1411_113241" x="162.598" y="11.1177" width="75.3906" height="111.177" filterUnits="userSpaceOnUse" color-interpolation-filters="sRGB">
<feFlood flood-opacity="0" result="BackgroundImageFix"/>
<feBlend mode="normal" in="SourceGraphic" in2="BackgroundImageFix" result="shape"/>
<feTurbulence type="fractalNoise" baseFrequency="1.1333314180374146 1.1333314180374146" stitchTiles="stitch" numOctaves="3" result="noise" seed="1840" />
<feColorMatrix in="noise" type="luminanceToAlpha" result="alphaNoise" />
<feComponentTransfer in="alphaNoise" result="coloredNoise1">
<feFuncA type="discrete" tableValues="1 1 1 1 1 1 1 1 1 1 1 1 1 1 1 1 1 1 1 1 1 1 1 1 1 1 1 1 1 1 1 1 1 1 1 1 1 1 1 1 1 1 1 1 1 1 1 1 1 1 1 0 0 0 0 0 0 0 0 0 0 0 0 0 0 0 0 0 0 0 0 0 0 0 0 0 0 0 0 0 0 0 0 0 0 0 0 0 0 0 0 0 0 0 0 0 0 0 0 0 "/>
</feComponentTransfer>
<feComposite operator="in" in2="shape" in="coloredNoise1" result="noise1Clipped" />
<feComponentTransfer in="alphaNoise" result="coloredNoise2">
<feFuncA type="discrete" tableValues="0 0 0 0 0 0 0 0 0 0 0 0 0 0 0 0 0 0 0 0 0 0 0 0 0 0 0 0 0 0 0 0 0 0 0 0 0 0 0 0 0 0 0 0 0 0 0 0 0 1 1 1 1 1 1 1 1 1 1 1 1 1 1 1 1 1 1 1 1 1 1 1 1 1 1 1 1 1 1 1 1 1 1 1 1 1 1 1 1 1 1 1 1 1 1 1 1 1 1 1 "/>
</feComponentTransfer>
<feComposite operator="in" in2="shape" in="coloredNoise2" result="noise2Clipped" />
<feFlood flood-color="rgba(0, 0, 0, 0.25)" result="color1Flood" />
<feComposite operator="in" in2="noise1Clipped" in="color1Flood" result="color1" />
<feFlood flood-color="rgba(255, 255, 255, 0.25)" result="color2Flood" />
<feComposite operator="in" in2="noise2Clipped" in="color2Flood" result="color2" />
<feMerge result="effect1_noise_1411_113241">
<feMergeNode in="shape" />
<feMergeNode in="color1" />
<feMergeNode in="color2" />
</feMerge>
</filter>
<clipPath id="clip0_1411_113241">
<rect width="400" height="245.185" rx="16.6765" fill="white"/>
</clipPath>
<clipPath id="clip1_1411_113241">
<rect width="13.3333" height="13.3333" fill="white" transform="translate(193.332 194.074)"/>
</clipPath>
<clipPath id="clip2_1411_113241">
<rect width="13.3333" height="13.3333" fill="white" transform="translate(10 10)"/>
</clipPath>
<clipPath id="clip3_1411_113241">
<rect width="13.3333" height="13.3333" fill="white" transform="translate(10 221.852)"/>
</clipPath>
<clipPath id="clip4_1411_113241">
<rect width="13.3333" height="13.3333" fill="white" transform="translate(376.664 10)"/>
</clipPath>
<clipPath id="clip5_1411_113241">
<rect width="13.3333" height="13.3333" fill="white" transform="translate(376.664 221.852)"/>
</clipPath>
</defs>
</svg>
