<svg width="95" height="42" viewBox="0 0 95 42" fill="none" xmlns="http://www.w3.org/2000/svg">
<g clip-path="url(#clip0_5552_105578)">
<path d="M18.8245 36.6494C19.1031 36.6494 19.3277 36.6108 19.4981 36.5332C19.7679 36.4117 19.9361 36.1926 20.0024 35.8762C20.071 35.5578 19.9881 35.3432 19.7536 35.2325C19.6187 35.1706 19.4073 35.1397 19.1197 35.1397H17.9418L17.6234 36.6494H18.8245ZM18.569 38.8991C18.9737 38.8991 19.2868 38.7819 19.508 38.5474C19.6474 38.3992 19.7402 38.2201 19.7867 38.0099C19.862 37.6559 19.7546 37.4148 19.4649 37.2865C19.3122 37.2179 19.0977 37.1837 18.8212 37.1837H17.5104L17.1454 38.8991H18.569ZM17.4143 34.5889H19.508C20.0787 34.5889 20.4481 34.7592 20.6163 35.0999C20.7158 35.3011 20.7368 35.5333 20.6793 35.7967C20.6151 36.1042 20.4747 36.3562 20.2579 36.5533C20.145 36.6572 19.9946 36.7522 19.8066 36.8386C20.0345 36.9337 20.1981 37.041 20.2977 37.1604C20.4725 37.3727 20.5201 37.6659 20.4404 38.0397C20.3741 38.3539 20.2148 38.638 19.9627 38.8926C19.5887 39.2729 19.0811 39.4632 18.4396 39.4632H16.3789L17.4143 34.5889ZM21.8871 34.5723H22.4843L22.0962 36.3906C22.2775 36.2114 22.4323 36.0853 22.5608 36.0123C22.7798 35.8863 23.033 35.8232 23.3206 35.8232C23.836 35.8232 24.1467 36.0035 24.253 36.3641C24.3105 36.5609 24.3027 36.8342 24.2297 37.1837L23.7452 39.4632H23.1314L23.6059 37.2235C23.6613 36.9624 23.669 36.7711 23.6292 36.6494C23.5606 36.4547 23.377 36.3574 23.0783 36.3574C22.8306 36.3574 22.5885 36.4426 22.3517 36.6129C22.1149 36.7832 21.9458 37.1052 21.8439 37.5785L21.4458 39.4632H20.8485L21.8871 34.5723ZM25.8059 39.0749C26.0161 39.0749 26.2306 39.0263 26.4496 38.9291C26.8146 38.7676 27.037 38.5031 27.1165 38.136L27.2161 37.6548C27.1343 37.7012 27.0324 37.74 26.9109 37.771C26.7891 37.8019 26.672 37.8241 26.5591 37.8373L26.1875 37.8837C25.9641 37.9126 25.7916 37.9579 25.6698 38.0198C25.4642 38.1238 25.3369 38.2897 25.2882 38.5175C25.2506 38.69 25.2838 38.8261 25.3878 38.9256C25.494 39.0252 25.6333 39.0749 25.8059 39.0749ZM26.9906 37.3097C27.132 37.2921 27.2371 37.2345 27.3057 37.1371C27.3433 37.0841 27.372 37.0077 27.3919 36.9082C27.4362 36.7046 27.3953 36.5577 27.2692 36.4669C27.1431 36.374 26.9451 36.3276 26.6752 36.3276C26.3634 36.3276 26.1245 36.4116 25.9586 36.5797C25.8655 36.6727 25.7893 36.8109 25.7296 36.9945H25.1722C25.2762 36.5565 25.4829 36.2523 25.7925 36.082C26.1023 35.9094 26.4375 35.8232 26.7979 35.8232C27.2161 35.8232 27.5379 35.9028 27.7636 36.0621C27.9893 36.2213 28.0667 36.4692 27.996 36.8053L27.5612 38.8526C27.548 38.9146 27.549 38.9644 27.5645 39.0019C27.5822 39.0395 27.6319 39.0585 27.7139 39.0585C27.7404 39.0585 27.7703 39.0573 27.8034 39.055C27.8389 39.0506 27.8764 39.0451 27.9163 39.0384L27.82 39.4798C27.7227 39.5064 27.6485 39.5229 27.5977 39.5295C27.549 39.5362 27.4827 39.5395 27.3986 39.5395C27.1929 39.5395 27.059 39.4665 26.9971 39.3205C26.964 39.2431 26.9529 39.1336 26.964 38.992C26.8069 39.1513 26.6022 39.2895 26.35 39.4068C26.0979 39.524 25.8346 39.5827 25.5603 39.5827C25.2307 39.5827 24.9819 39.4831 24.8137 39.284C24.6478 39.0827 24.597 38.8316 24.6612 38.5308C24.7319 38.2012 24.889 37.9457 25.1323 37.7643C25.3778 37.5829 25.6721 37.4712 26.015 37.4291L26.9906 37.3097ZM29.1839 35.9094H29.7513L29.6217 36.5233C29.6926 36.4038 29.8363 36.259 30.0532 36.0887C30.2722 35.9161 30.5 35.8298 30.7366 35.8298C30.7477 35.8298 30.7666 35.8309 30.7932 35.8332C30.8197 35.8353 30.8639 35.8397 30.9258 35.8464L30.7932 36.4768C30.7576 36.4701 30.7257 36.4657 30.6969 36.4636C30.6682 36.4613 30.6361 36.4602 30.6007 36.4602C30.2997 36.4602 30.0477 36.5577 29.8441 36.7522C29.6427 36.9447 29.5145 37.1671 29.4592 37.4192L29.0278 39.4632H28.4305L29.1839 35.9094ZM31.8515 39.0749C32.0617 39.0749 32.2763 39.0263 32.4953 38.9291C32.8603 38.7676 33.0826 38.5031 33.1623 38.136L33.2619 37.6548C33.1799 37.7012 33.0782 37.74 32.9565 37.771C32.8349 37.8019 32.7176 37.8241 32.6048 37.8373L32.2332 37.8837C32.0097 37.9126 31.8372 37.9579 31.7156 38.0198C31.5098 38.1238 31.3826 38.2897 31.334 38.5175C31.2964 38.69 31.3296 38.8261 31.4336 38.9256C31.5396 39.0252 31.6791 39.0749 31.8515 39.0749ZM33.0362 37.3097C33.1778 37.2921 33.2829 37.2345 33.3515 37.1371C33.389 37.0841 33.4178 37.0077 33.4377 36.9082C33.482 36.7046 33.4409 36.5577 33.315 36.4669C33.1889 36.374 32.9909 36.3276 32.721 36.3276C32.409 36.3276 32.1701 36.4116 32.0042 36.5797C31.9113 36.6727 31.8351 36.8109 31.7753 36.9945H31.2178C31.3218 36.5565 31.5286 36.2523 31.8383 36.082C32.1481 35.9094 32.4831 35.8232 32.8437 35.8232C33.2619 35.8232 33.5837 35.9028 33.8094 36.0621C34.0349 36.2213 34.1123 36.4692 34.0416 36.8053L33.607 38.8526C33.5936 38.9146 33.5948 38.9644 33.6102 39.0019C33.6278 39.0395 33.6777 39.0585 33.7595 39.0585C33.7861 39.0585 33.8159 39.0573 33.8491 39.055C33.8845 39.0506 33.9221 39.0451 33.9619 39.0384L33.8658 39.4798C33.7685 39.5064 33.6943 39.5229 33.6435 39.5295C33.5948 39.5362 33.5284 39.5395 33.4444 39.5395C33.2386 39.5395 33.1048 39.4665 33.0429 39.3205C33.0096 39.2431 32.9985 39.1336 33.0096 38.992C32.8525 39.1513 32.648 39.2895 32.3958 39.4068C32.1435 39.524 31.8804 39.5827 31.6061 39.5827C31.2765 39.5827 31.0276 39.4831 30.8595 39.284C30.6936 39.0827 30.6426 38.8316 30.7068 38.5308C30.7777 38.2012 30.9346 37.9457 31.178 37.7643C31.4236 37.5829 31.7177 37.4712 32.0606 37.4291L33.0362 37.3097ZM35.5448 34.9174H36.1487L35.9362 35.9094H36.5036L36.4008 36.3971H35.8334L35.339 38.7166C35.3124 38.8404 35.3367 38.9235 35.412 38.9656C35.454 38.9898 35.5293 39.0019 35.6377 39.0019C35.6664 39.0019 35.6973 39.0019 35.7306 39.0019C35.7638 38.9998 35.8036 38.9965 35.85 38.992L35.7504 39.4632C35.6774 39.4831 35.6023 39.4974 35.5247 39.5064C35.4496 39.5152 35.3688 39.5196 35.2826 39.5196C35.0038 39.5196 34.8291 39.4489 34.7584 39.3073C34.6898 39.1634 34.6798 38.9776 34.7284 38.7498L35.2295 36.3971H34.7483L34.8513 35.9094H35.3323L35.5448 34.9174ZM39.2645 34.5889H39.8384L39.2345 37.4192L41.0893 35.9094H41.8526L40.2101 37.2401L41.1757 39.4632H40.4124L39.6824 37.6714L39.0852 38.1293L38.8031 39.4632H38.2291L39.2645 34.5889ZM42.8148 39.0749C43.025 39.0749 43.2396 39.0263 43.4586 38.9291C43.8235 38.7676 44.0459 38.5031 44.1254 38.136L44.225 37.6548C44.1432 37.7012 44.0415 37.74 43.9198 37.771C43.7981 37.8019 43.6809 37.8241 43.568 37.8373L43.1964 37.8837C42.973 37.9126 42.8005 37.9579 42.6788 38.0198C42.4731 38.1238 42.3458 38.2897 42.2971 38.5175C42.2596 38.69 42.2927 38.8261 42.3967 38.9256C42.5029 39.0252 42.6423 39.0749 42.8148 39.0749ZM43.9995 37.3097C44.1411 37.2921 44.246 37.2345 44.3146 37.1371C44.3523 37.0841 44.3809 37.0077 44.401 36.9082C44.4451 36.7046 44.4042 36.5577 44.2781 36.4669C44.152 36.374 43.954 36.3276 43.6842 36.3276C43.3723 36.3276 43.1334 36.4116 42.9675 36.5797C42.8746 36.6727 42.7982 36.8109 42.7386 36.9945H42.1811C42.2851 36.5565 42.4919 36.2523 42.8016 36.082C43.1112 35.9094 43.4464 35.8232 43.807 35.8232C44.225 35.8232 44.547 35.9028 44.7725 36.0621C44.9982 36.2213 45.0756 36.4692 45.0049 36.8053L44.5701 38.8526C44.5569 38.9146 44.5579 38.9644 44.5735 39.0019C44.5911 39.0395 44.641 39.0585 44.7228 39.0585C44.7494 39.0585 44.7792 39.0573 44.8124 39.055C44.8478 39.0506 44.8854 39.0451 44.9252 39.0384L44.8289 39.4798C44.7316 39.5064 44.6575 39.5229 44.6066 39.5295C44.5579 39.5362 44.4916 39.5395 44.4075 39.5395C44.2019 39.5395 44.0681 39.4665 44.006 39.3205C43.9729 39.2431 43.9618 39.1336 43.9729 38.992C43.8158 39.1513 43.6112 39.2895 43.3591 39.4068C43.1068 39.524 42.8437 39.5827 42.5693 39.5827C42.2396 39.5827 41.9908 39.4831 41.8228 39.284C41.6567 39.0827 41.6059 38.8316 41.6701 38.5308C41.7408 38.2012 41.8979 37.9457 42.1412 37.7643C42.3867 37.5829 42.681 37.4712 43.0239 37.4291L43.9995 37.3097ZM51.8568 34.5889L51.7341 35.1695H50.0915L49.179 39.4632H48.5088L49.4213 35.1695H47.7788L47.9016 34.5889H51.8568ZM51.8669 35.9094H52.4343L52.3047 36.5233C52.3756 36.4038 52.5193 36.259 52.7362 36.0887C52.9552 35.9161 53.183 35.8298 53.4196 35.8298C53.4307 35.8298 53.4496 35.8309 53.4762 35.8332C53.5027 35.8353 53.5469 35.8397 53.6088 35.8464L53.4762 36.4768C53.4406 36.4701 53.4087 36.4657 53.3799 36.4636C53.3512 36.4613 53.3191 36.4602 53.2837 36.4602C52.9828 36.4602 52.7307 36.5577 52.5271 36.7522C52.3257 36.9447 52.1975 37.1671 52.1423 37.4192L51.7108 39.4632H51.1135L51.8669 35.9094ZM54.5345 39.0749C54.7447 39.0749 54.9593 39.0263 55.1783 38.9291C55.5434 38.7676 55.7656 38.5031 55.8453 38.136L55.9449 37.6548C55.8631 37.7012 55.7612 37.74 55.6395 37.771C55.5179 37.8019 55.4006 37.8241 55.2878 37.8373L54.9162 37.8837C54.6928 37.9126 54.5202 37.9579 54.3986 38.0198C54.1928 38.1238 54.0657 38.2897 54.017 38.5175C53.9794 38.69 54.0126 38.8261 54.1166 38.9256C54.2226 39.0252 54.3621 39.0749 54.5345 39.0749ZM55.7192 37.3097C55.8608 37.2921 55.9659 37.2345 56.0345 37.1371C56.072 37.0841 56.1008 37.0077 56.1207 36.9082C56.165 36.7046 56.1239 36.5577 55.998 36.4669C55.8719 36.374 55.6739 36.3276 55.404 36.3276C55.092 36.3276 54.8531 36.4116 54.6872 36.5797C54.5943 36.6727 54.5181 36.8109 54.4583 36.9945H53.9008C54.0048 36.5565 54.2116 36.2523 54.5213 36.082C54.8311 35.9094 55.1661 35.8232 55.5267 35.8232C55.9449 35.8232 56.2667 35.9028 56.4924 36.0621C56.7179 36.2213 56.7955 36.4692 56.7246 36.8053L56.29 38.8526C56.2766 38.9146 56.2778 38.9644 56.2932 39.0019C56.311 39.0395 56.3607 39.0585 56.4425 39.0585C56.4691 39.0585 56.4989 39.0573 56.5321 39.055C56.5675 39.0506 56.6051 39.0451 56.6449 39.0384L56.5488 39.4798C56.4515 39.5064 56.3773 39.5229 56.3265 39.5295C56.2778 39.5362 56.2114 39.5395 56.1274 39.5395C55.9216 39.5395 55.7878 39.4665 55.7259 39.3205C55.6926 39.2431 55.6815 39.1336 55.6926 38.992C55.5355 39.1513 55.331 39.2895 55.0788 39.4068C54.8265 39.524 54.5634 39.5827 54.2891 39.5827C53.9595 39.5827 53.7107 39.4831 53.5425 39.284C53.3766 39.0827 53.3258 38.8316 53.3898 38.5308C53.4607 38.2012 53.6176 37.9457 53.8611 37.7643C54.1066 37.5829 54.4007 37.4712 54.7436 37.4291L55.7192 37.3097ZM58.1879 35.9094L58.5231 38.8029L60.1291 35.9094H60.7827L58.6889 39.4632H58.0518L57.4944 35.9094H58.1879ZM63.9283 36.4669C64.0102 36.6461 64.0456 36.8552 64.0345 37.0941C64.0368 37.2577 63.9992 37.5187 63.9218 37.8771H61.317C61.2505 38.2377 61.2738 38.5276 61.3866 38.7466C61.5016 38.9633 61.7262 39.0716 62.0602 39.0716C62.3721 39.0716 62.642 38.9688 62.8699 38.763C63.0026 38.6436 63.1077 38.5054 63.1851 38.3483H63.7723C63.7282 38.4788 63.6452 38.6248 63.5235 38.7863C63.4041 38.9455 63.2791 39.076 63.1486 39.1779C62.9296 39.3549 62.6796 39.4743 62.3987 39.5362C62.246 39.5716 62.079 39.5893 61.8976 39.5893C61.4552 39.5893 61.1145 39.429 60.8756 39.1081C60.6367 38.7852 60.5792 38.334 60.703 37.7544C60.8247 37.1837 61.078 36.7201 61.463 36.3641C61.8479 36.0079 62.2903 35.8298 62.7902 35.8298C63.0423 35.8298 63.2747 35.8896 63.487 36.009C63.6993 36.1262 63.8465 36.2788 63.9283 36.4669ZM63.4073 37.4025C63.4383 37.1438 63.4262 36.937 63.3708 36.7822C63.2692 36.4946 63.0268 36.3507 62.6442 36.3507C62.37 36.3507 62.1189 36.4503 61.8909 36.6494C61.6631 36.8462 61.5104 37.0973 61.433 37.4025H63.4073ZM65.3751 34.5889H65.9723L64.9371 39.4632H64.3397L65.3751 34.5889ZM70.359 37.4656L70.0769 35.3122L68.8326 37.4656H70.359ZM69.8877 34.5889H70.6343L71.3676 39.4632H70.6443L70.4585 38.0032H68.5306L67.6944 39.4632H67.0175L69.8877 34.5889ZM74.7423 37.6647C74.802 37.3817 74.8119 37.1382 74.7721 36.9347C74.7014 36.5431 74.4602 36.3474 74.0488 36.3474C73.6351 36.3474 73.3077 36.5542 73.0665 36.968C72.9383 37.1891 72.8376 37.4702 72.7646 37.8107C72.7071 38.085 72.6994 38.3185 72.7414 38.5109C72.8166 38.8781 73.06 39.0617 73.4715 39.0617C73.7501 39.0617 74.0068 38.9455 74.2412 38.7133C74.4757 38.4788 74.6428 38.1293 74.7423 37.6647ZM72.592 35.9261H73.1728L73.0732 36.3971C73.2259 36.2357 73.383 36.1107 73.5445 36.0222C73.7744 35.8896 74.0255 35.8232 74.2976 35.8232C74.7003 35.8232 75.0087 35.978 75.2233 36.2876C75.438 36.5951 75.4844 37.0354 75.3628 37.6084C75.1991 38.3825 74.8794 38.9356 74.4039 39.2675C74.1029 39.4776 73.7822 39.5827 73.4415 39.5827C73.1739 39.5827 72.9614 39.524 72.8045 39.4068C72.7115 39.3405 72.6176 39.2265 72.5224 39.065L72.1376 40.8801H71.5402L72.592 35.9261ZM78.525 37.6647C78.5847 37.3817 78.5946 37.1382 78.5549 36.9347C78.484 36.5431 78.243 36.3474 77.8315 36.3474C77.4178 36.3474 77.0904 36.5542 76.8493 36.968C76.721 37.1891 76.6203 37.4702 76.5473 37.8107C76.4898 38.085 76.4821 38.3185 76.5242 38.5109C76.5993 38.8781 76.8426 39.0617 77.254 39.0617C77.5328 39.0617 77.7895 38.9455 78.024 38.7133C78.2585 38.4788 78.4255 38.1293 78.525 37.6647ZM76.3747 35.9261H76.9555L76.8559 36.3971C77.0086 36.2357 77.1655 36.1107 77.327 36.0222C77.5571 35.8896 77.8082 35.8232 78.0804 35.8232C78.483 35.8232 78.7915 35.978 79.0061 36.2876C79.2207 36.5951 79.2671 37.0354 79.1454 37.6084C78.9818 38.3825 78.6621 38.9356 78.1866 39.2675C77.8856 39.4776 77.5649 39.5827 77.2242 39.5827C76.9566 39.5827 76.7442 39.524 76.5872 39.4068C76.4942 39.3405 76.4002 39.2265 76.3052 39.065L75.9203 40.8801H75.3229L76.3747 35.9261Z" fill="white"/>
<path d="M2.29014 24.7862V21.4834H6.18494V19.6138H2.29014V16.7317H6.41863V14.8154H0V26.718H6.6679V24.8017L2.29014 24.7862ZM8.78667 20.1279C9.34753 19.7853 10.1265 19.5359 10.9055 19.5359C12.1674 19.5359 12.4634 20.1747 12.4634 21.0471C9.70584 21.0471 7.74286 22.0754 7.74286 24.2876C7.74286 25.6898 8.73994 26.8737 10.329 26.8737C11.2949 26.8737 12.1362 26.4843 12.6192 25.8144H12.6659L12.8061 26.7023H14.8626C14.7691 26.1727 14.7379 25.4093 14.7379 24.6615V21.5145C14.7379 19.6295 14.0213 17.9157 11.3261 17.9157C9.97069 17.9157 8.91131 18.3052 8.3193 18.6324L8.78667 20.1279ZM12.5257 23.758C12.5257 24.8484 11.6377 25.2535 11.0768 25.2535C10.5004 25.2535 9.98628 24.8952 9.98628 24.0695C9.98628 22.8075 11.2793 22.5116 12.5101 22.5116V23.758H12.5257ZM16.2803 26.2972C16.8567 26.6401 17.7759 26.8737 18.7106 26.8737C20.8606 26.8737 22.1068 25.7988 22.1068 24.1474C22.1068 22.9478 21.4369 22.1221 19.9725 21.5145C18.9754 21.0939 18.6484 20.8602 18.6484 20.3616C18.6484 19.8943 19.0222 19.5516 19.7233 19.5516C20.362 19.5516 20.9852 19.8007 21.359 20.0033L21.7953 18.3831C21.2968 18.1183 20.5334 17.9001 19.6609 17.9001C17.7446 17.9001 16.4984 19.0841 16.4984 20.6264C16.4984 21.5612 17.0904 22.4804 18.6951 23.1347C19.6455 23.5398 19.9414 23.8046 19.9414 24.3343C19.9414 24.8641 19.5519 25.1911 18.7417 25.1911C18.0407 25.1911 17.1683 24.8796 16.7321 24.6148L16.2803 26.2972ZM30.5664 23.0724C30.6132 22.8231 30.6288 22.4959 30.6288 22.1689C30.6288 19.3802 29.2577 17.9001 27.1702 17.9001C24.6462 17.9001 23.2131 20.0344 23.2131 22.5116C23.2131 25.1911 24.7398 26.8737 27.4039 26.8737C28.4788 26.8737 29.4759 26.6868 30.2081 26.3753L29.8809 24.7862C29.2889 24.9886 28.619 25.1445 27.7777 25.1445C26.5314 25.1445 25.4876 24.5524 25.4253 23.0879H30.582V23.0724H30.5664ZM25.4097 21.4988C25.4721 20.6577 25.9394 19.5048 27.0455 19.5048C28.1828 19.5048 28.5411 20.5953 28.5256 21.4988H25.4097ZM40.3814 14.7999L39.026 19.2711C38.6209 20.7045 38.2782 22.1376 37.9821 23.4775H37.9353C37.6705 22.1065 37.3279 20.7199 36.9382 19.2711L35.6452 14.7999H32.7942L31.9997 26.7023H34.1185L34.3522 22.1221C34.4301 20.642 34.508 18.8972 34.5391 17.386H34.5859C34.8663 18.8504 35.2401 20.4551 35.6296 21.7949L36.9539 26.5311H38.6988L40.1632 21.717C40.5683 20.3772 40.9889 18.8036 41.3472 17.386H41.394C41.3783 18.5856 41.4564 20.5019 41.5186 22.0754L41.7366 26.7023H43.9177L43.2478 14.7999H40.3814ZM49.4641 22.5895C49.3394 23.1192 49.1991 23.7423 49.1057 24.2097H49.059C48.95 23.7267 48.794 23.1347 48.6539 22.5895L47.3763 18.0871H44.8681L47.7814 26.0013C47.8437 26.1727 47.875 26.2972 47.875 26.3908C47.875 26.5622 47.4854 27.4346 46.7221 27.9955C46.317 28.2759 45.8964 28.5251 45.5068 28.6186L46.0833 30.5504C46.5974 30.457 47.4854 30.1453 48.3112 29.3508C49.277 28.3849 50.0248 26.8581 50.9751 24.0695L52.9225 18.0715H50.5389L49.4641 22.5895ZM53.203 14.7999V16.7785H56.1475V26.7023H58.4376V16.7785H61.3977V14.7999H53.203ZM64.5914 19.5827L64.4979 18.0715H62.535C62.5661 18.8349 62.5972 19.7074 62.5972 20.7667V26.7023H64.8875V22.2468C64.8875 20.7667 65.6664 20.0812 66.7102 20.0812C66.9439 20.0812 67.1308 20.0968 67.3022 20.1279V17.9468C67.1465 17.9157 67.0062 17.9001 66.7881 17.9001C65.9936 17.9001 65.0433 18.4766 64.6536 19.5982H64.5914V19.5827ZM70.9478 15.719C70.9478 15.018 70.4491 14.4883 69.7014 14.4883C69.0004 14.4883 68.4706 15.0024 68.4706 15.719C68.4706 16.4045 68.9692 16.9498 69.7014 16.9498C70.4337 16.9654 70.9478 16.4668 70.9478 15.719ZM68.5798 26.7023H70.8699V18.0715H68.5798V26.7023ZM74.8737 18.0871H72.8795C72.9107 18.866 72.9418 19.8007 72.9418 20.9068V30.1609H75.2475V25.861H75.2788C75.6526 26.4375 76.3849 26.8581 77.3196 26.8581C79.0801 26.8581 80.8716 25.4561 80.8716 22.2934C80.8716 19.645 79.4696 17.8846 77.5844 17.8846C76.4628 17.8846 75.5904 18.3674 75.0295 19.2555H74.9984L74.8737 18.0871ZM75.2475 21.6235C75.2475 20.5953 75.9331 19.754 76.8366 19.754C77.974 19.754 78.566 20.8602 78.566 22.4026C78.566 23.9604 77.9584 25.0978 76.7899 25.0978C76.0266 25.0978 75.2475 24.4901 75.2475 23.2437V21.6235Z" fill="white"/>
<path fill-rule="evenodd" clip-rule="evenodd" d="M14.8301 19.2084C21.1397 6.4646 38.4015 16.2172 47.967 7.71094C38.4326 17.6505 19.5662 9.25328 14.8301 19.2084Z" fill="white"/>
<path fill-rule="evenodd" clip-rule="evenodd" d="M43.5295 7.92926L44.6667 9.14444C45.2276 9.75202 45.0718 9.76759 44.4331 10.1415L40.803 11.8396C40.3668 12.1045 40.0864 11.8864 40.3981 11.3878L42.7037 7.71115C42.9219 7.25935 43.1712 7.50862 43.5295 7.92926Z" fill="white"/>
<path d="M79.3816 30.2935C79.5284 30.2935 79.6166 30.2348 79.6459 30.1467C79.7046 30.0587 79.7046 29.9412 79.7046 29.8239C79.7046 29.7064 79.6459 29.6477 79.5871 29.5889C79.4991 29.5302 79.4109 29.4716 79.3229 29.4716C79.2054 29.4716 79.1175 29.5302 79.0881 29.6184C79.0293 29.7357 79.0293 29.8239 79.0293 29.9119C79.0293 30.0293 79.0588 30.088 79.1468 30.1762C79.1761 30.2642 79.2643 30.2935 79.3816 30.2935ZM82.4926 30.3228C82.7569 30.3228 82.9918 30.2642 83.2266 30.1762C83.4614 30.088 83.6964 29.9705 83.9018 29.8239C84.1073 29.677 84.2835 29.5009 84.4596 29.3247C84.6358 29.1193 84.7824 28.9431 84.8706 28.7083C84.8999 28.679 84.8999 28.6495 84.9292 28.5908C84.9586 28.5322 84.9586 28.5028 84.9586 28.4733C84.9586 28.3853 84.8999 28.3267 84.8117 28.3267C84.7531 28.3267 84.6944 28.356 84.6651 28.4147C84.6063 28.4733 84.5769 28.5322 84.5476 28.5615C84.4596 28.7083 84.3421 28.8551 84.2246 29.0018C84.1073 29.1486 83.9605 29.2661 83.8137 29.3834C83.6669 29.5009 83.4907 29.5889 83.3441 29.677C83.1679 29.765 82.9918 29.7945 82.7863 29.7945C82.6101 29.7945 82.4633 29.7357 82.3458 29.6184C82.2578 29.5302 82.1992 29.4127 82.1697 29.2954C82.111 29.1779 82.111 29.0311 82.111 28.8845C82.111 28.7376 82.1403 28.5615 82.1697 28.4147C82.1992 28.2385 82.2578 28.0917 82.3165 27.9451C82.3753 27.7982 82.434 27.6514 82.522 27.5341C82.6101 27.4166 82.6688 27.2991 82.7274 27.2405C82.7863 27.1818 82.8743 27.123 82.9329 27.0936C83.0211 27.035 83.0797 27.035 83.1679 27.035C83.2852 27.035 83.3441 27.0643 83.3441 27.1523C83.3734 27.2405 83.3734 27.2991 83.3734 27.3873C83.3734 27.5341 83.3441 27.6514 83.2852 27.7396C83.2266 27.8276 83.1972 27.9157 83.1972 27.9744C83.1972 28.033 83.2266 28.0624 83.2852 28.0624C83.3734 28.0624 83.432 28.033 83.5202 27.9744C83.6082 27.8862 83.6669 27.7982 83.6964 27.6514C83.7257 27.5046 83.755 27.4166 83.755 27.2991C83.755 27.0643 83.6964 26.8882 83.5495 26.8002C83.432 26.6827 83.2559 26.6533 83.0504 26.6533C82.8743 26.6533 82.6981 26.712 82.522 26.7707C82.3752 26.8588 82.2285 26.9468 82.111 27.0643C81.9935 27.1818 81.9055 27.2698 81.8469 27.4166C81.7587 27.5634 81.7001 27.7101 81.6414 27.8569C81.5826 28.0037 81.5239 28.1799 81.4946 28.3267C81.4652 28.5028 81.4359 28.6495 81.4359 28.8256C81.4359 29.0606 81.4652 29.2661 81.5532 29.5009C81.6119 29.7064 81.7294 29.8825 81.8762 30.0587C81.9642 30.1467 82.0523 30.2055 82.1697 30.2642C82.2285 30.2935 82.3458 30.3228 82.4926 30.3228ZM84.6358 29.1486C84.6358 29.5302 84.7238 29.8532 84.8706 30.0293C85.0467 30.2055 85.2229 30.3228 85.4577 30.3228C85.6338 30.3228 85.81 30.2642 86.0155 30.1762C86.2209 30.0587 86.3678 29.9119 86.5439 29.7357C86.6906 29.5302 86.8374 29.2954 86.9255 29.0018C87.0429 28.7083 87.0722 28.3853 87.0722 28.0037C87.0722 27.8569 87.0429 27.7101 87.0135 27.5634C86.9842 27.4166 86.9255 27.2991 86.8667 27.2111C86.8081 27.0936 86.7201 27.035 86.6026 26.9763C86.4851 26.9175 86.3678 26.8882 86.2503 26.8882C86.0155 26.8882 85.81 26.9763 85.5752 27.0936C85.3695 27.2405 85.1935 27.4166 85.076 27.6514C84.9292 27.8862 84.8117 28.1212 84.7531 28.3853C84.6944 28.6202 84.6358 28.8845 84.6358 29.1486ZM86.2796 27.3873C86.4264 27.3873 86.5439 27.4753 86.6026 27.5928C86.6906 27.7396 86.7201 27.9157 86.7201 28.1212C86.7201 28.3853 86.6906 28.6202 86.6319 28.8551C86.5732 29.0606 86.4851 29.2368 86.3971 29.4127C86.2796 29.5596 86.1916 29.677 86.0741 29.765C85.9568 29.8532 85.8393 29.8825 85.7218 29.8825C85.6045 29.8825 85.487 29.8239 85.399 29.7064C85.3109 29.5889 85.2815 29.4127 85.2815 29.1486C85.2815 28.9725 85.3109 28.767 85.3695 28.5615C85.4284 28.356 85.5163 28.1799 85.5752 28.0037C85.6632 27.8276 85.7806 27.6807 85.898 27.5928C86.0155 27.4753 86.1329 27.3873 86.2796 27.3873ZM90.3015 30.088C90.3602 30.088 90.3895 30.0587 90.4484 30.0293C90.507 30 90.5364 29.9705 90.5657 29.9119C90.6243 29.8239 90.6832 29.7357 90.7418 29.5596C90.83 29.4127 90.918 29.2368 91.0355 29.0311C91.1528 28.8256 91.2703 28.6495 91.3876 28.444C91.5051 28.2385 91.6519 28.0624 91.7694 27.8862C91.8867 27.7101 92.0042 27.5928 92.0922 27.4753C92.2097 27.3579 92.2684 27.2991 92.3565 27.2991C92.4152 27.2991 92.4445 27.3284 92.4445 27.3579C92.4738 27.3873 92.4738 27.4459 92.5032 27.4753C92.5327 27.5341 92.5327 27.5634 92.5327 27.6221V27.7396C92.5327 28.0037 92.5032 28.2385 92.4738 28.5028C92.4445 28.767 92.4152 29.0018 92.4152 29.2661C92.4152 29.3834 92.4152 29.5009 92.4445 29.6184C92.4738 29.765 92.4738 29.8825 92.5327 30C92.5913 30.1173 92.65 30.2348 92.7086 30.2935C92.7968 30.3816 92.9143 30.411 93.0316 30.411C93.1784 30.411 93.3546 30.3521 93.5307 30.2642C93.7069 30.1762 93.883 30.0293 94.0592 29.9119C94.2353 29.765 94.382 29.6184 94.5288 29.4716C94.6756 29.3247 94.7931 29.1779 94.8811 29.0606C94.9104 29.0311 94.9104 29.0018 94.9398 28.9725C94.9693 28.9431 94.9691 28.9138 94.9691 28.8845C94.9691 28.8256 94.9398 28.7963 94.9398 28.767C94.9104 28.7083 94.8811 28.7083 94.8224 28.7083C94.7636 28.7083 94.7049 28.7376 94.6756 28.7963C94.617 28.8551 94.5876 28.9138 94.5581 28.9431C94.4995 29.0311 94.4113 29.1193 94.3233 29.2368C94.2058 29.3541 94.0885 29.4716 93.971 29.5889C93.8537 29.7064 93.7069 29.7945 93.5894 29.8825C93.4719 29.9705 93.3546 30 93.2664 30C93.2078 30 93.1491 29.9705 93.1198 29.9412C93.0904 29.8825 93.0609 29.8532 93.0316 29.7945C93.0023 29.7357 93.0023 29.677 93.0023 29.6184V29.4716C93.0023 29.1486 93.0316 28.7963 93.0609 28.5028C93.1198 28.1799 93.1198 27.8569 93.1198 27.5341C93.1198 27.4459 93.0904 27.3579 93.0904 27.2991C93.0609 27.2111 93.0316 27.123 93.0023 27.0643C92.9436 26.9763 92.8848 26.9175 92.8261 26.8882C92.7381 26.8295 92.6793 26.8002 92.5913 26.8002C92.4445 26.8002 92.327 26.8588 92.2097 26.9468C92.0629 27.035 91.9749 27.123 91.8867 27.2111C91.7692 27.3284 91.6812 27.4459 91.5932 27.5928C91.5051 27.7396 91.4171 27.8569 91.3289 27.9744C91.2116 28.1505 91.0941 28.2973 90.9766 28.4733C90.8593 28.6495 90.7418 28.7963 90.6538 28.9725C90.6243 29.0018 90.6243 29.0311 90.595 29.0606C90.5657 29.1193 90.5364 29.1486 90.5364 29.1486C90.507 29.1486 90.507 29.1193 90.4777 29.0606C90.4482 29.0018 90.4484 28.9431 90.4484 28.8845C90.4484 28.8256 90.4189 28.7376 90.4189 28.679V28.5322C90.4189 28.356 90.4189 28.2092 90.4484 28.033C90.4484 27.8569 90.4777 27.7101 90.4777 27.5341C90.4777 27.4753 90.4777 27.3873 90.4484 27.3284C90.4189 27.2405 90.4189 27.1523 90.3895 27.0936C90.3602 27.0056 90.3309 26.9468 90.272 26.8882C90.2134 26.8295 90.1547 26.8002 90.0666 26.8002C89.9492 26.8002 89.8318 26.8588 89.6849 26.9763C89.5383 27.0936 89.4208 27.2405 89.274 27.3873C89.1272 27.5634 89.0098 27.7101 88.9217 27.8862C88.8044 28.0624 88.7162 28.1799 88.6575 28.2679C88.6869 28.0917 88.7162 27.945 88.775 27.7689C88.8337 27.5928 88.863 27.4459 88.9217 27.2991C88.9512 27.2405 88.9805 27.1818 89.0098 27.0936C89.0392 27.0056 89.0978 26.9175 89.1272 26.8588C89.1567 26.7707 89.186 26.6827 89.2153 26.624C89.2446 26.5359 89.2446 26.4772 89.2446 26.4185C89.2446 26.3597 89.2153 26.301 89.186 26.2717C89.1566 26.2129 89.0978 26.2129 89.0392 26.2129C88.9217 26.2129 88.8044 26.2424 88.6575 26.301C88.5107 26.3597 88.4227 26.4479 88.3639 26.5652C88.3346 26.6533 88.2759 26.7707 88.2466 26.9175C88.1878 27.0936 88.1291 27.2991 88.0998 27.5341C88.0411 27.7689 87.9823 28.0037 87.9529 28.2679C87.8943 28.5322 87.8356 28.767 87.8061 29.0018C87.7475 29.2368 87.7181 29.4422 87.6888 29.6477C87.6595 29.8532 87.63 29.9705 87.63 30.0587C87.63 30.1173 87.6595 30.1467 87.6888 30.2055C87.7181 30.2642 87.7768 30.2642 87.8356 30.2642C87.9236 30.2642 87.9823 30.2348 88.0411 30.1762C88.0998 30.1173 88.1291 30.0587 88.1584 30C88.1878 29.9119 88.2466 29.8239 88.3346 29.677C88.4227 29.5302 88.5107 29.3541 88.6282 29.1779C88.7455 28.9725 88.863 28.7963 88.9805 28.5908C89.1272 28.3853 89.2446 28.2092 89.3621 28.033C89.4795 27.8569 89.5969 27.7396 89.6849 27.6221C89.8024 27.5046 89.8611 27.4459 89.9199 27.4459C89.9786 27.4459 90.0079 27.4753 90.0079 27.5341C90.0079 27.5928 90.0372 27.6221 90.0372 27.6514V27.8862V28.2973C90.0372 28.444 90.0372 28.5908 90.0666 28.767C90.0666 28.9431 90.0961 29.0899 90.0961 29.2661C90.1254 29.4422 90.1254 29.5889 90.1547 29.7064C90.1841 29.8532 90.2134 29.9705 90.2427 30.0587C90.1841 30.0293 90.2427 30.088 90.3015 30.088Z" fill="white"/>
<path fill-rule="evenodd" clip-rule="evenodd" d="M37.1405 0.0303064L59.528 1.88423C60.6184 1.94656 60.447 2.16466 59.9018 2.66319L48.9808 13.3505C48.3732 14.0204 48.2329 13.8335 47.5008 13.0389L43.2321 8.20939C42.6712 7.61737 42.5777 7.49275 43.5437 7.15L54.1687 3.73816L42.2194 5.85692C41.3313 6.04388 41.4405 6.16852 40.8017 5.2805L36.829 0.731371C36.3305 0.170519 36.3771 -0.0943273 37.1405 0.0303064Z" fill="white"/>
<path d="M13.5117 37.0137H0.423828V37.8347H13.5117V37.0137Z" fill="#FF630B"/>
<path d="M94.9853 37.0137H81.8975V37.8347H94.9853V37.0137Z" fill="#139E3A"/>
</g>
<defs>
<clipPath id="clip0_5552_105578">
<rect width="95" height="41.2264" fill="white"/>
</clipPath>
</defs>
</svg>
