<svg width="97" height="39" viewBox="0 0 97 39" fill="none" xmlns="http://www.w3.org/2000/svg">
<path d="M45.058 0.38693C45.1902 0.386297 45.3223 0.385665 45.4585 0.385013C45.8916 0.383787 46.3246 0.387331 46.7577 0.391081C47.0615 0.391479 47.3653 0.391629 47.6692 0.391543C48.3048 0.392063 48.9404 0.394813 49.576 0.3993C50.3863 0.404951 51.1965 0.406238 52.0068 0.405985C52.6341 0.406076 53.2614 0.407913 53.8886 0.410319C54.1872 0.411371 54.4857 0.412034 54.7842 0.412283C59.6711 0.420814 59.6711 0.420814 61.5754 2.28887C62.228 3.16623 62.4218 4.05014 62.4054 5.12415C62.4041 5.24143 62.4027 5.35871 62.4012 5.47954C62.365 6.59354 62.1551 7.3076 61.3735 8.09616C60.9895 8.43849 60.6268 8.73744 60.1659 8.9679C60.2524 9.00636 60.339 9.04482 60.4282 9.08444C61.4672 9.5703 62.3221 10.1302 62.7472 11.2557C63.0576 12.6345 63.0013 14.0311 62.2759 15.2596C61.2479 16.6528 60.0341 17.339 58.3325 17.6346C57.1962 17.749 56.0519 17.7247 54.9113 17.7173C54.5842 17.7173 54.2571 17.7175 53.9301 17.718C53.2489 17.7182 52.5677 17.7161 51.8865 17.7123C51.0147 17.7076 50.143 17.7081 49.2711 17.7102C48.5975 17.7113 47.924 17.71 47.2504 17.708C46.9289 17.7072 46.6073 17.7072 46.2858 17.7078C45.8371 17.7083 45.3886 17.7055 44.94 17.7019C44.7424 17.703 44.7424 17.703 44.5409 17.7042C43.74 17.6934 43.1956 17.5707 42.4992 17.1346C41.7265 16.2992 41.6404 15.6416 41.6364 14.5417C41.6353 14.4137 41.6342 14.2857 41.633 14.1539C41.6297 13.7301 41.6278 13.3064 41.6261 12.8826C41.6255 12.7376 41.6248 12.5927 41.6241 12.4433C41.6206 11.6756 41.6182 10.9079 41.6167 10.1401C41.6148 9.34901 41.6091 8.55796 41.6025 7.76686C41.5981 7.15703 41.5967 6.54721 41.5961 5.93736C41.5953 5.64586 41.5934 5.35436 41.5903 5.06287C41.5862 4.65362 41.5864 4.24456 41.5875 3.83529C41.5854 3.7162 41.5833 3.5971 41.5811 3.47439C41.5901 2.58712 41.7785 1.84344 42.3325 1.13457C43.1637 0.483124 44.0322 0.371138 45.058 0.38693ZM46.6659 4.4679C46.6659 5.5129 46.6659 6.5579 46.6659 7.63457C47.9561 7.64693 49.2462 7.656 50.5365 7.66204C50.9754 7.66455 51.4143 7.66796 51.8532 7.67229C52.4841 7.67836 53.115 7.68119 53.7459 7.6834C53.9421 7.68598 54.1384 7.68856 54.3405 7.69122C54.524 7.69126 54.7074 7.69129 54.8964 7.69133C55.0574 7.69244 55.2184 7.69355 55.3843 7.6947C55.9229 7.62245 56.2295 7.45431 56.6659 7.13457C57.0857 6.50476 57.0223 6.20692 56.9237 5.48353C56.8544 5.10474 56.8544 5.10474 56.52 4.80124C55.9123 4.51527 55.4471 4.44743 54.7829 4.44898C54.6028 4.449 54.4226 4.44901 54.237 4.44902C53.9456 4.45031 53.9456 4.45031 53.6483 4.45163C53.4492 4.45186 53.2502 4.4521 53.0451 4.45234C52.4082 4.45328 51.7714 4.45537 51.1346 4.45749C50.7033 4.45832 50.272 4.45908 49.8407 4.45977C48.7824 4.4616 47.7241 4.46448 46.6659 4.4679ZM46.6659 10.9679C46.6659 11.8479 46.6659 12.7279 46.6659 13.6346C47.9336 13.6496 49.2012 13.6619 50.469 13.6691C51.0577 13.6726 51.6464 13.6773 52.2351 13.6849C52.9123 13.6935 53.5895 13.6967 54.2668 13.6997C54.4776 13.7031 54.6883 13.7066 54.9055 13.7101C55.1023 13.7102 55.2991 13.7102 55.5019 13.7103C55.6748 13.7117 55.8476 13.7132 56.0257 13.7147C56.6261 13.6131 56.9021 13.391 57.3325 12.9679C57.5403 12.4851 57.5403 12.4851 57.4992 11.9679C57.2041 11.51 56.9887 11.2127 56.4992 10.9679C56.186 10.9527 55.8722 10.9483 55.5587 10.949C55.3618 10.949 55.165 10.949 54.9622 10.949C54.6421 10.9503 54.6421 10.9503 54.3156 10.9516C53.9889 10.952 53.9889 10.952 53.6556 10.9523C53.0764 10.953 52.4972 10.9546 51.9179 10.9565C51.327 10.9582 50.736 10.9589 50.145 10.9598C48.9853 10.9616 47.8256 10.9645 46.6659 10.9679Z" fill="white"/>
<path d="M21.833 0.468702C23.3196 0.457056 24.8062 0.448202 26.2928 0.442796C26.9833 0.4402 27.6738 0.436686 28.3643 0.430983C29.0321 0.425502 29.6999 0.42255 30.3678 0.421264C30.6211 0.420349 30.8743 0.418561 31.1276 0.415837C33.465 0.391724 35.7667 0.593415 37.5413 2.26037C38.807 3.60047 39.2556 5.18371 39.2054 7.00321C39.0665 8.65876 38.3947 9.68997 37.1663 10.802C36.4202 11.302 36.4202 11.302 35.9997 11.302C36.6161 12.4849 36.6161 12.4849 37.4997 13.4687C38.3365 13.7133 38.9468 13.6784 39.833 13.6354C39.833 14.9554 39.833 16.2754 39.833 17.6354C37.523 17.6354 35.213 17.6354 32.833 17.6354C32.7505 16.3979 32.7505 16.3979 32.6663 15.1354C32.366 14.5483 32.1417 14.1565 31.7393 13.6666C30.833 12.4841 30.833 12.4841 30.833 12.1354C29.183 12.1354 27.533 12.1354 25.833 12.1354C25.833 12.7404 25.833 13.3454 25.833 13.9687C26.1939 13.9635 26.1939 13.9635 26.5622 13.9583C27.2913 13.9479 27.2913 13.9479 27.6663 14.1354C27.6663 15.2904 27.6663 16.4454 27.6663 17.6354C24.7513 17.6354 21.8363 17.6354 18.833 17.6354C18.833 16.3154 18.833 14.9954 18.833 13.6354C19.493 13.6354 20.153 13.6354 20.833 13.6354C20.8278 13.3609 20.8225 13.0864 20.8171 12.8035C20.8008 11.8809 20.7894 10.9583 20.7812 10.0356C20.776 9.47787 20.7685 8.92043 20.7576 8.36279C20.7038 5.55502 20.8577 3.11712 21.833 0.468702ZM25.833 4.4687C25.833 5.7887 25.833 7.1087 25.833 8.4687C26.7879 8.4802 27.7426 8.49015 28.6976 8.49617C29.0222 8.49868 29.3468 8.50208 29.6714 8.50642C30.1389 8.51251 30.6063 8.51533 31.0739 8.51753C31.2182 8.52011 31.3625 8.52269 31.5112 8.52535C32.3567 8.52558 32.9334 8.43828 33.6663 7.9687C34.1963 7.36808 34.2619 6.78144 34.2373 6.00581C34.1145 5.36491 33.8064 5.07575 33.333 4.63537C32.8737 4.48227 32.6064 4.44836 32.1337 4.44978C31.9235 4.4498 31.9235 4.4498 31.7091 4.44982C31.5586 4.45068 31.408 4.45154 31.2529 4.45243C31.0983 4.45266 30.9436 4.4529 30.7843 4.45314C30.2901 4.45407 29.7959 4.45617 29.3018 4.45829C28.9668 4.45912 28.6318 4.45988 28.2969 4.46056C27.4756 4.46226 26.6543 4.46552 25.833 4.4687Z" fill="white"/>
<path d="M82 0.46875C84.255 0.46875 86.51 0.46875 88.8333 0.46875C89.9293 4.18006 90.9631 7.90712 92 11.6354C92 7.95042 92 4.26542 92 0.46875C93.65 0.46875 95.3 0.46875 97 0.46875C97 6.13375 97 11.7987 97 17.6354C94.745 17.6354 92.49 17.6354 90.1667 17.6354C89.8593 16.8158 89.5862 16.0675 89.3651 15.2327C89.311 15.0299 89.257 14.827 89.2012 14.618C89.1462 14.4089 89.0912 14.1998 89.0345 13.9844C88.9826 13.7891 88.9307 13.5939 88.8772 13.3927C88.6847 12.6683 88.4935 11.9435 88.3021 11.2187C87.8724 9.59625 87.4427 7.97375 87 6.30208C87 10.0421 87 13.7821 87 17.6354C85.35 17.6354 83.7 17.6354 82 17.6354C82 11.9704 82 6.30542 82 0.46875Z" fill="white"/>
<path d="M77.6178 1.46436C79.035 2.66811 79.5966 3.81098 79.834 5.63428C79.8777 6.5639 79.8729 7.49163 79.8665 8.42204C79.8659 8.6887 79.8654 8.95536 79.8651 9.22203C79.8638 9.91852 79.8606 10.615 79.8568 11.3115C79.8534 12.0243 79.8519 12.7372 79.8502 13.45C79.8467 14.8448 79.8408 16.2395 79.834 17.6343C78.349 17.6343 76.864 17.6343 75.334 17.6343C75.334 16.7543 75.334 15.8743 75.334 14.9676C75.1483 15.222 74.9627 15.4764 74.7715 15.7384C73.8905 16.8373 72.7815 17.6512 71.3763 17.9266C69.3657 18.1461 67.6638 17.9362 65.9967 16.7463C64.9083 15.8256 64.5319 14.7334 64.3756 13.3426C64.2808 11.9525 64.4119 10.7308 65.334 9.63428C66.685 8.16512 68.5202 7.87856 70.4277 7.69678C72.8737 7.59831 72.8737 7.59831 75.0006 6.63428C75.1395 6.05811 75.1395 6.05811 75.0006 5.46762C74.4006 4.83425 73.8869 4.66261 73.039 4.60043C71.8469 4.58206 71.0176 4.63922 70.0319 5.35303C69.751 5.72358 69.751 5.72358 69.5006 6.63428C68.0156 6.63428 66.5306 6.63428 65.0006 6.63428C65.0006 4.85239 65.4425 3.4314 66.6627 2.11215C69.3178 -0.425828 74.6371 -0.719491 77.6178 1.46436ZM72.3548 10.7697C72.0348 10.8111 72.0348 10.8111 71.7083 10.8534C71.3999 10.8961 71.3999 10.8961 71.0853 10.9396C70.8033 10.9776 70.8033 10.9776 70.5157 11.0163C69.9752 11.1401 69.6164 11.3126 69.1673 11.6343C68.9728 11.9398 68.9728 11.9398 69.0006 12.3009C69.229 12.8653 69.3983 13.0843 69.9485 13.353C71.214 13.6157 72.3155 13.4793 73.5006 12.9676C74.2778 12.3425 75.0111 11.483 75.1673 10.4676C74.2235 10.4676 73.2884 10.6412 72.3548 10.7697ZM75.5006 14.3009C75.6673 14.6343 75.6673 14.6343 75.6673 14.6343L75.5006 14.3009Z" fill="white"/>
<path d="M14.6665 20.9688C16.2615 20.9688 17.8565 20.9688 19.4998 20.9688C19.508 21.6492 19.5162 22.3296 19.5246 23.0306C19.532 23.5767 19.5398 24.1227 19.5477 24.6688C19.556 25.2433 19.5638 25.8177 19.5702 26.3922C19.5775 27.053 19.5875 27.7136 19.5975 28.3743C19.5994 28.5781 19.6013 28.7818 19.6033 28.9916C19.6243 30.2149 19.6516 31.4206 20.1978 32.5417C21.066 33.2902 22.3379 33.1866 23.4165 33.1855C23.6651 33.1866 23.6651 33.1866 23.9188 33.1877C24.2679 33.1887 24.6169 33.1888 24.966 33.188C25.4982 33.1875 26.0302 33.1914 26.5623 33.1956C26.9026 33.196 27.2429 33.1961 27.5832 33.196C27.7412 33.1975 27.8992 33.199 28.062 33.2006C29.0022 33.1941 29.6708 33.0906 30.4998 32.6354C31.1413 31.8229 31.1859 30.9619 31.2007 29.9562C31.2041 29.756 31.2074 29.5559 31.2108 29.3497C31.2136 29.1352 31.2164 28.9208 31.2192 28.6999C31.2227 28.4769 31.2262 28.2538 31.2297 28.0308C31.2389 27.4459 31.2472 26.8609 31.2552 26.2759C31.2636 25.6782 31.2729 25.0805 31.2821 24.4827C31.3 23.3114 31.3166 22.1401 31.3332 20.9688C32.9282 20.9688 34.5232 20.9688 36.1665 20.9688C36.1799 23.5639 36.1799 23.5639 36.1828 24.679C36.1848 25.4368 36.1871 26.1946 36.1917 26.9524C36.1953 27.564 36.1973 28.1757 36.1981 28.7873C36.1987 29.0195 36.1999 29.2516 36.2018 29.4838C36.2191 31.804 36.0064 34.193 34.3332 35.9688C32.4023 37.6233 30.3402 37.993 27.8735 38.0026C27.6836 38.0036 27.4937 38.0045 27.2981 38.0055C26.8966 38.0071 26.4951 38.0081 26.0936 38.0088C25.4846 38.0104 24.8757 38.0156 24.2668 38.0208C23.8753 38.0219 23.4838 38.0228 23.0923 38.0234C22.9125 38.0255 22.7328 38.0276 22.5476 38.0297C20.3184 38.0232 18.1966 37.487 16.5311 35.9479C14.7029 33.997 14.6137 31.5354 14.634 28.9928C14.6346 28.76 14.6351 28.5273 14.6354 28.2945C14.6366 27.6881 14.6399 27.0818 14.6436 26.4755C14.6471 25.8542 14.6486 25.2329 14.6502 24.6117C14.6536 23.3973 14.6601 22.1831 14.6665 20.9688Z" fill="white"/>
<path d="M67.0153 22.2182C67.6754 22.7373 68.288 23.3788 68.6657 24.1342C68.6948 24.4841 68.7102 24.8352 68.7178 25.1863C68.7271 25.4689 68.7271 25.4689 68.7367 25.7572C68.6507 26.4158 68.4671 26.6711 67.999 27.1342C67.2121 27.6707 66.243 27.5626 65.3324 27.4675C64.838 27.3109 64.4325 27.0826 63.999 26.8008C63.8237 26.69 63.8237 26.69 63.6449 26.5769C63.4201 26.4348 63.1968 26.2903 62.9756 26.1426C62.149 25.6755 61.1841 25.6911 60.2751 25.8835C59.2323 26.1911 58.6589 26.656 58.0407 27.5613C57.5015 28.6127 57.5131 29.833 57.7855 30.9656C58.0876 31.8659 58.3882 32.5463 59.1657 33.1342C60.1703 33.607 61.1947 33.6269 62.2673 33.3588C62.8069 33.1533 63.2086 32.9854 63.5361 32.4968C63.6975 32.1458 63.6975 32.1458 63.8324 31.6342C63.6818 31.6279 63.5311 31.6217 63.376 31.6153C63.1794 31.6043 62.9828 31.5934 62.7803 31.5821C62.4873 31.5676 62.4873 31.5676 62.1885 31.5528C61.6657 31.4675 61.6657 31.4675 61.3512 31.2566C61.1185 30.894 61.0882 30.6576 61.0824 30.2279C61.0772 30.101 61.072 29.974 61.0667 29.8432C61.2167 29.2739 61.5108 29.1159 61.999 28.8008C62.58 28.7172 62.58 28.7172 63.2425 28.7182C63.3606 28.7179 63.4788 28.7177 63.6005 28.7174C63.8496 28.7177 64.0986 28.7196 64.3477 28.7231C64.7259 28.7279 65.1038 28.7265 65.4821 28.7244C67.6476 28.7336 67.6476 28.7336 68.6657 29.3008C69.2821 29.9903 69.2411 30.7232 69.238 31.6023C69.2388 31.743 69.2397 31.8837 69.2406 32.0287C69.2417 32.3255 69.2415 32.6224 69.24 32.9192C69.2386 33.3717 69.2434 33.8239 69.2487 34.2764C69.249 34.5656 69.2489 34.8548 69.2484 35.1439C69.2502 35.2783 69.2521 35.4128 69.254 35.5512C69.2432 36.4314 69.0863 36.9389 68.499 37.6342C67.6639 38.152 67.0172 38.2031 66.0492 38.0606C65.4775 37.9218 65.2085 37.7567 64.8324 37.3008C64.408 36.3913 64.2559 35.4596 64.1657 34.4675C64.1051 34.6515 64.1051 34.6515 64.0433 34.8393C63.5996 36.1311 63.2672 36.9301 62.0303 37.5925C61.3453 37.912 60.7607 38.0926 59.999 38.1342C59.8828 38.1406 59.7666 38.1471 59.6468 38.1537C57.8376 38.21 56.3653 37.7175 54.9971 36.5033C53.263 34.6715 52.8272 32.1072 52.7803 29.6654C52.8532 27.2211 53.4347 24.9406 55.1657 23.1342C58.2182 20.3943 63.5166 20.0625 67.0153 22.2182Z" fill="white"/>
<path d="M84.5 20.9688C88.625 20.9688 92.75 20.9688 97 20.9688C97 22.3988 97 23.8288 97 25.3021C94.47 25.3021 91.94 25.3021 89.3333 25.3021C89.3333 25.9071 89.3333 26.5121 89.3333 27.1354C91.7533 27.1354 94.1733 27.1354 96.6667 27.1354C96.6667 28.5654 96.6667 29.9954 96.6667 31.4688C94.2467 31.4688 91.8267 31.4688 89.3333 31.4688C89.3333 32.1288 89.3333 32.7888 89.3333 33.4688C91.8633 33.4688 94.3933 33.4688 97 33.4688C97 34.8988 97 36.3288 97 37.8021C92.875 37.8021 88.75 37.8021 84.5 37.8021C84.5 32.2471 84.5 26.6921 84.5 20.9688Z" fill="white"/>
<path d="M49.305 21.306C50.2322 21.999 50.6562 23.0232 50.8337 24.1341C50.8483 24.5854 50.8547 25.0321 50.8526 25.4833C50.8526 25.6167 50.8526 25.7501 50.8527 25.8876C50.8525 26.3267 50.8512 26.7659 50.8499 27.2051C50.8496 27.5103 50.8494 27.8155 50.8492 28.1207C50.8486 28.9227 50.847 29.7247 50.8451 30.5267C50.8434 31.3456 50.8426 32.1645 50.8418 32.9834C50.84 34.5892 50.8371 36.195 50.8337 37.8008C49.2937 37.8008 47.7537 37.8008 46.167 37.8008C46.1646 37.4627 46.1621 37.1246 46.1596 36.7763C46.1512 35.6573 46.1401 34.5384 46.1277 33.4195C46.1203 32.7414 46.1137 32.0632 46.1093 31.385C46.1049 30.7301 46.0982 30.0752 46.0898 29.4204C46.087 29.1709 46.0851 28.9215 46.0841 28.6721C46.0824 28.3217 46.0778 27.9716 46.0724 27.6213C46.0696 27.3227 46.0696 27.3227 46.0668 27.0179C45.9925 26.4025 45.8211 25.9953 45.5003 25.4674C44.9772 25.2059 44.5772 25.2421 44.0003 25.3008C43.4222 25.7532 43.1224 26.0827 43.0003 26.8008C42.9812 27.1623 42.9709 27.5243 42.9661 27.8862C42.9636 28.0473 42.9636 28.0473 42.9611 28.2116C42.9559 28.5651 42.9517 28.9186 42.9476 29.2721C42.9442 29.5178 42.9407 29.7635 42.9371 30.0091C42.9279 30.6547 42.9197 31.3002 42.9116 31.9457C42.9032 32.6049 42.894 33.264 42.8848 33.9232C42.8669 35.2157 42.85 36.5082 42.8337 37.8008C41.2937 37.8008 39.7537 37.8008 38.167 37.8008C38.167 32.2458 38.167 26.6908 38.167 20.9674C39.707 20.9674 41.247 20.9674 42.8337 20.9674C42.8337 21.6274 42.8337 22.2874 42.8337 22.9674C42.923 22.8196 43.0124 22.6718 43.1045 22.5195C44.5197 20.4287 47.163 20.0977 49.305 21.306Z" fill="white"/>
<path d="M11.3333 0.46875C14.1933 0.46875 17.0533 0.46875 20 0.46875C19.3333 3.46875 19.3333 3.46875 19 4.46875C18.065 4.46875 17.13 4.46875 16.1667 4.46875C16.1719 4.78495 16.1719 4.78495 16.1772 5.10754C16.1894 5.8993 16.197 6.69105 16.2033 7.48287C16.2066 7.82376 16.2111 8.16464 16.217 8.50549C16.2637 11.3199 16.1187 13.7152 14.1563 15.9063C12.3978 17.584 10.0031 17.9818 7.66667 17.9688C5.30627 17.8218 3.34056 17.2651 1.70768 15.4831C0.493673 13.9557 0.286156 12.6385 0 10.6354C1.65 10.6354 3.3 10.6354 5 10.6354C5.22 11.1854 5.44 11.7354 5.66667 12.3021C6.20478 12.9818 6.65277 13.286 7.5 13.4688C8.47925 13.5465 9.12425 13.4645 10 12.9688C11.0388 11.9761 11.1759 10.925 11.2198 9.55078C11.2267 9.12763 11.2319 8.70444 11.2357 8.28125C11.2388 8.05521 11.2421 7.82918 11.2455 7.60315C11.254 7.01244 11.2606 6.42172 11.2668 5.83098C11.2735 5.2265 11.282 4.62204 11.2904 4.01758C11.3066 2.83465 11.3199 1.65173 11.3333 0.46875Z" fill="white"/>
<path d="M8 20.9688C9.54 20.9688 11.08 20.9688 12.6667 20.9688C12.6818 22.5669 12.694 24.165 12.7012 25.7632C12.7047 26.5054 12.7094 27.2476 12.717 27.9899C12.7243 28.7074 12.7282 29.4249 12.7299 30.1425C12.7311 30.415 12.7335 30.6875 12.7372 30.96C12.7625 32.9465 12.6068 34.7333 11.3053 36.3379C9.75412 37.8494 7.93898 38.0373 5.88045 38.0293C4.20889 37.998 2.86591 37.6843 1.63086 36.4974C0.101033 34.6362 0 32.641 0 30.3021C1.54 30.3021 3.08 30.3021 4.66667 30.3021C4.77667 31.0171 4.88667 31.7321 5 32.4688C5.39501 33.3399 5.39501 33.3399 6.0625 33.4688C6.7389 33.4688 6.99623 33.4149 7.5 32.9688C7.79871 32.2466 7.87754 31.623 7.88647 30.8455C7.88899 30.6843 7.88899 30.6843 7.89155 30.5199C7.89666 30.1682 7.89952 29.8166 7.90234 29.4648C7.90547 29.2196 7.90873 28.9745 7.91212 28.7293C7.92065 28.0865 7.92727 27.4437 7.93348 26.8009C7.94017 26.1439 7.94868 25.487 7.95703 24.8301C7.97313 23.543 7.98704 22.2559 8 20.9688Z" fill="white"/>
<path d="M71.166 20.9688C72.816 20.9688 74.466 20.9688 76.166 20.9688C76.166 24.9838 76.166 28.9988 76.166 33.1354C78.421 33.1354 80.676 33.1354 82.9993 33.1354C82.9993 34.6754 82.9993 36.2154 82.9993 37.8021C79.0943 37.8021 75.1893 37.8021 71.166 37.8021C71.166 32.2471 71.166 26.6921 71.166 20.9688Z" fill="white"/>
<path d="M0 0.46875C1.65 0.46875 3.3 0.46875 5 0.46875C5 3.16375 5 5.85875 5 8.63542C3.35 8.63542 1.7 8.63542 0 8.63542C0 5.94042 0 3.24542 0 0.46875Z" fill="white"/>
</svg>
