<svg width="100" height="22" viewBox="0 0 100 22" fill="none" xmlns="http://www.w3.org/2000/svg">
<path d="M7.0399 21.9999C4.86935 21.9999 3.15343 21.4035 1.89176 20.2107C0.630832 19.0179 0 17.4046 0 15.3707H3.66667C3.66667 16.4264 3.9645 17.2628 4.56126 17.8786C5.15766 18.4944 5.98375 18.8025 7.0399 18.8025C8.07626 18.8025 8.89759 18.4995 9.50425 17.8933C10.1098 17.2873 10.4131 16.4558 10.4131 15.3996V0.292969H14.0802V15.3996C14.0802 17.4339 13.4493 19.0421 12.188 20.225C10.9264 21.4086 9.21081 21.9999 7.0399 21.9999Z" fill="white"/>
<path d="M24.9925 21.9999C22.8997 21.9999 21.2621 21.4277 20.0792 20.284C18.896 19.1399 18.3047 17.5808 18.3047 15.6051V0.292969H22.0007V15.5758C22.0007 16.5928 22.2542 17.3848 22.7634 17.9519C23.2715 18.5193 24.0144 18.8025 24.9925 18.8025C25.9505 18.8025 26.689 18.5193 27.2074 17.9519C27.725 17.3852 27.9844 16.5931 27.9844 15.5758V0.292969H31.6804V15.6051C31.6804 17.5808 31.0939 19.1399 29.9205 20.284C28.7471 21.428 27.1048 21.9999 24.9925 21.9999Z" fill="white"/>
<path d="M35.8145 21.7065V0.292969H42.1796C43.6266 0.292969 44.8828 0.571751 45.9488 1.12895C47.0145 1.68615 47.8409 2.46388 48.4278 3.46105C49.0147 4.45859 49.3074 5.6316 49.3074 6.98118V14.9893C49.3074 16.3385 49.0143 17.517 48.4278 18.5237C47.8409 19.5312 47.0148 20.3133 45.9488 20.8705C44.8828 21.4277 43.6266 21.7065 42.1796 21.7065H35.8145ZM39.4811 18.4212H42.1796C43.2357 18.4212 44.0761 18.1131 44.7022 17.4972C45.3279 16.8811 45.6407 16.0451 45.6407 14.9893V6.98118C45.6407 5.94481 45.3279 5.11872 44.7022 4.50255C44.0761 3.88637 43.2357 3.57864 42.1796 3.57864H39.4811V18.4212Z" fill="white"/>
<path d="M59.809 22C58.4202 22 57.2175 21.7406 56.2009 21.2226C55.184 20.7046 54.3967 19.9712 53.8395 19.0228C53.2823 18.0747 53.0039 16.9548 53.0039 15.6642V6.3358C53.0039 5.04519 53.2823 3.92567 53.8395 2.97722C54.3967 2.02914 55.184 1.29573 56.2009 0.777367C57.2171 0.259367 58.4202 0 59.809 0C61.1773 0 62.3704 0.259367 63.3877 0.777367C64.4043 1.29573 65.1967 2.02914 65.7638 2.97722C66.3305 3.92603 66.6141 5.04556 66.6141 6.3358H62.9181C62.9181 5.33826 62.6492 4.57115 62.1114 4.033C61.5733 3.49522 60.8065 3.22633 59.809 3.22633C58.8114 3.22633 58.0388 3.49046 57.4919 4.01835C56.9442 4.54624 56.6706 5.30896 56.6706 6.30649V15.6638C56.6706 16.6614 56.9442 17.434 57.4919 17.9813C58.0388 18.529 58.8118 18.8026 59.809 18.8026C60.8062 18.8026 61.5733 18.529 62.1114 17.9813C62.6492 17.434 62.9181 16.6614 62.9181 15.6638V13.2878H59.2807V10.1201H66.6141V15.6638C66.6141 16.9544 66.3305 18.0743 65.7638 19.0224C65.1963 19.9712 64.4043 20.7046 63.3877 21.2223C62.3704 21.7406 61.1773 22 59.809 22Z" fill="white"/>
<path d="M70.1055 21.7065V0.292969H82.9536V3.51966H73.7135V9.09311H81.9268V12.2026H73.7135V18.4798H82.9536V21.7065H70.1055Z" fill="white"/>
<path d="M92.8988 22C91.51 22 90.3074 21.7359 89.2908 21.208C88.2738 20.6801 87.4866 19.9372 86.9294 18.9788C86.3722 18.0208 86.0938 16.8962 86.0938 15.6056V6.39441C86.0938 5.10381 86.3722 3.97952 86.9294 3.02118C87.4866 2.06321 88.2738 1.31991 89.2908 0.792021C90.307 0.264129 91.51 0 92.8988 0C94.2872 0 95.4896 0.263763 96.5069 0.792021C97.5235 1.31991 98.3111 2.06358 98.8683 3.02118C99.4255 3.97952 99.7039 5.10417 99.7039 6.39441V15.6052C99.7039 16.8958 99.4255 18.0208 98.8683 18.9785C98.3111 19.9368 97.5235 20.6797 96.5069 21.2076C95.4896 21.7359 94.2872 22 92.8988 22ZM92.8988 18.8319C93.9154 18.8319 94.7268 18.5385 95.3335 17.952C95.9394 17.3655 96.2427 16.5833 96.2427 15.6052V6.39441C96.2427 5.41702 95.9446 4.63453 95.3482 4.04766C94.7514 3.46079 93.9356 3.16772 92.8988 3.16772C91.8621 3.16772 91.0455 3.46115 90.4495 4.04766C89.8527 4.63453 89.5549 5.41666 89.5549 6.39441V15.6052C89.5549 16.5833 89.8579 17.3655 90.4641 17.952C91.0701 18.5385 91.8819 18.8319 92.8988 18.8319ZM92.8988 12.7599C92.312 12.7599 91.8427 12.5987 91.4906 12.276C91.1386 11.9532 90.9627 11.4986 90.9627 10.9117C90.9627 10.3252 91.1386 9.88048 91.4906 9.57715C91.8427 9.27419 92.312 9.12252 92.8988 9.12252C93.4857 9.12252 93.955 9.27419 94.307 9.57715C94.6591 9.88048 94.8349 10.3252 94.8349 10.9117C94.8349 11.4986 94.6591 11.9532 94.307 12.276C93.955 12.5987 93.4857 12.7599 92.8988 12.7599Z" fill="white"/>
</svg>
