<svg width="120" height="16" viewBox="0 0 120 16" fill="none" xmlns="http://www.w3.org/2000/svg">
<path d="M42.8993 3.82812H39.8242L43.5399 15.2816H46.85L50.5658 3.82812H47.4906L45.1638 12.4557L42.8993 3.82812Z" fill="white"/>
<path d="M0 0H3.1819V15.2856H0V0Z" fill="white"/>
<path d="M6.31934 0H9.50122V15.2856H6.31934V0Z" fill="white"/>
<path d="M12.6396 0H22.0571V2.54761H15.8215V6.18702H21.6301V8.73463H15.8215V12.738H22.0571V15.2856H12.6396V0Z" fill="white"/>
<path d="M24.0029 0H27.0139V15.2856H24.0029V0Z" fill="white"/>
<path d="M28.8271 9.54521C28.8271 5.37057 30.8986 3.57227 34.1232 3.57227C37.3478 3.57227 39.1844 5.34915 39.1844 9.58803V10.2731H31.7955C31.9023 12.7565 32.6496 13.5914 34.0805 13.5914C35.2122 13.5914 35.9169 12.9277 36.0451 11.7717H39.0561C38.864 14.2979 36.7713 15.5396 34.0805 15.5396C30.6637 15.5396 28.8271 13.7198 28.8271 9.54521ZM36.216 8.28211C36.0666 6.18408 35.3404 5.49902 34.0805 5.49902C32.8206 5.49902 32.0303 6.20549 31.8169 8.28211H36.216Z" fill="white"/>
<path d="M51.1426 9.54521C51.1426 5.37057 53.214 3.57227 56.4386 3.57227C59.6632 3.57227 61.4998 5.34915 61.4998 9.58803V10.2731H54.1109C54.2177 12.7565 54.9651 13.5914 56.3959 13.5914C57.5276 13.5914 58.2323 12.9277 58.3606 11.7717H61.3716C61.1794 14.2979 59.0865 15.5396 56.3959 15.5396C52.979 15.5396 51.1426 13.7198 51.1426 9.54521ZM58.5313 8.28211C58.3818 6.18408 57.6559 5.49902 56.3959 5.49902C55.136 5.49902 54.3457 6.20549 54.1323 8.28211H58.5313Z" fill="white"/>
<path d="M75.7637 0H78.9456V12.738H84.9249V15.2856H75.7637V0Z" fill="white"/>
<path fill-rule="evenodd" clip-rule="evenodd" d="M85.6729 9.54521C85.6729 5.17789 87.6802 3.57227 90.2642 3.57227C91.5454 3.57227 92.7199 4.30016 93.1898 5.07086V3.82917H96.2649V15.2827H93.2752V13.9339C92.8267 14.8331 91.5668 15.5396 90.1786 15.5396C87.4453 15.5396 85.6729 13.7841 85.6729 9.54521ZM91.0543 5.82014C92.549 5.82014 93.3605 6.9548 93.3605 9.54521C93.3605 12.1356 92.549 13.2917 91.0543 13.2917C89.5595 13.2917 88.7053 12.1356 88.7053 9.54521C88.7053 6.9548 89.5595 5.82014 91.0543 5.82014Z" fill="white"/>
<path fill-rule="evenodd" clip-rule="evenodd" d="M101.582 13.9369V15.2856H98.5928V0H101.604V5.0738C102.116 4.28168 103.312 3.57521 104.594 3.57521C107.113 3.57521 109.121 5.18083 109.121 9.54816C109.121 13.9155 107.156 15.5425 104.529 15.5425C103.141 15.5425 102.01 14.836 101.582 13.9369ZM103.739 5.8445C105.234 5.8445 106.088 6.95774 106.088 9.54816C106.088 12.1386 105.234 13.2946 103.739 13.2946C102.244 13.2946 101.433 12.1386 101.433 9.54816C101.433 6.95774 102.244 5.8445 103.739 5.8445Z" fill="white"/>
<path d="M110.36 11.8787H113.371C113.414 13.0776 114.055 13.6556 115.187 13.6556C116.318 13.6556 116.959 13.1418 116.959 12.2427C116.959 11.4291 116.468 11.1294 115.4 10.8725L114.482 10.637C111.877 9.97338 110.574 9.2669 110.574 7.10464C110.574 4.94241 112.581 3.57227 115.144 3.57227C117.706 3.57227 119.65 4.57845 119.735 6.9548H116.724C116.66 5.90578 116.019 5.45621 115.101 5.45621C114.183 5.45621 113.542 5.90578 113.542 6.76212C113.542 7.55422 114.055 7.85395 114.952 8.06802L115.891 8.30352C118.368 8.92436 119.927 9.54521 119.927 11.8573C119.927 14.1694 117.877 15.5396 115.101 15.5396C112.09 15.5396 110.424 14.4049 110.36 11.8787Z" fill="white"/>
<path d="M66.3681 8.53901C66.3681 6.74071 67.2223 5.75592 68.5464 5.75592C69.6354 5.75592 70.2547 6.44098 70.2547 7.91817V15.2827H73.2657V7.44718C73.2657 4.79254 71.771 3.57227 69.5927 3.57227C68.1192 3.57227 66.9021 4.32155 66.3681 5.30634V3.82917H63.3145V15.2827H66.3681V8.53901Z" fill="white"/>
</svg>
