<svg width="119" height="27" viewBox="0 0 119 27" fill="none" xmlns="http://www.w3.org/2000/svg">
<path fill-rule="evenodd" clip-rule="evenodd" d="M21.6006 21.1487C22.9605 20.3655 23.7982 18.918 23.7982 17.3514V8.70698C23.7982 7.14045 22.9605 5.69293 21.6006 4.90967L14.0967 0.587446C12.7368 -0.195816 11.0614 -0.195815 9.70155 0.587447L2.19756 4.90967C0.837704 5.69293 0 7.14045 0 8.70698V17.3514C0 18.918 0.837707 20.3655 2.19756 21.1487L9.70155 25.4709C11.0614 26.2542 12.7368 26.2542 14.0967 25.4709L21.6006 21.1487ZM21.6006 17.3514C21.6006 18.1346 21.1818 18.8584 20.5019 19.2501L16.5744 21.5122C16.2283 21.7116 16.0553 21.8113 15.9132 21.7964C15.7893 21.7835 15.6768 21.7187 15.6036 21.618C15.5197 21.5028 15.5197 21.3035 15.5197 20.9047V16.3804C15.5197 15.5972 15.9385 14.8735 16.6184 14.4818L18.7212 13.2705C19.01 13.1043 19.1543 13.0211 19.2594 12.9047C19.3521 12.8017 19.4223 12.6804 19.4649 12.5487C19.5133 12.3997 19.513 12.2334 19.5123 11.9007L19.5122 11.8008C19.5113 11.3032 19.5109 11.0545 19.4058 10.9106C19.3143 10.7852 19.1737 10.7044 19.019 10.6882C18.8415 10.6697 18.6255 10.7941 18.1936 11.0429L15.5197 12.5831C14.1598 13.3664 13.3221 14.8139 13.3221 16.3804V23.0121C13.3221 23.2433 13.1984 23.4567 12.9979 23.5723C12.318 23.964 11.4803 23.964 10.8003 23.5723L3.29634 19.2501C2.61642 18.8584 2.19756 18.1346 2.19756 17.3514V12.8957C2.19756 12.4969 2.19756 12.2975 2.28149 12.1823C2.35471 12.0817 2.46724 12.0169 2.59112 12.0039C2.73315 11.989 2.90621 12.0887 3.25238 12.2881L7.09851 14.5033C7.77842 14.8948 8.19728 15.6187 8.19728 16.402V18.709C8.19728 19.0416 8.19728 19.208 8.24584 19.3567C8.28882 19.4885 8.3591 19.6097 8.45211 19.7124C8.55724 19.8286 8.70177 19.9115 8.99083 20.0774L9.07766 20.1271C9.51002 20.3751 9.72621 20.4993 9.90356 20.4804C10.0583 20.464 10.1987 20.3829 10.2901 20.2573C10.3948 20.1133 10.3948 19.8645 10.3948 19.3669V16.402C10.3948 14.8354 9.55714 13.3879 8.19728 12.6046L2.58131 9.37008C2.34385 9.23332 2.19756 8.98054 2.19756 8.70698C2.19756 7.92371 2.6164 7.19995 3.29634 6.80832L10.8003 2.4861C11.4803 2.09447 12.318 2.09447 12.9979 2.4861L16.8826 4.72366C17.2288 4.92306 17.4019 5.02275 17.46 5.15289C17.5106 5.26641 17.5106 5.39606 17.46 5.50959C17.4019 5.63973 17.2288 5.73942 16.8826 5.93881L12.9371 8.21137C12.2572 8.603 11.4195 8.603 10.7396 8.21137L8.529 6.93811C8.30896 6.81137 8.19894 6.74799 8.08185 6.72254C7.97823 6.70003 7.87107 6.69913 7.76709 6.71991C7.6496 6.74338 7.53853 6.8049 7.31637 6.92792L7.04231 7.07972C6.59801 7.32577 6.37587 7.44881 6.3007 7.61203C6.23517 7.75435 6.23379 7.91783 6.29692 8.06124C6.36932 8.2257 6.58936 8.35243 7.02944 8.60591L9.6408 10.11C11.0006 10.8933 12.6761 10.8933 14.0359 10.11L19.7681 6.80832C19.9951 6.67756 20.2748 6.67756 20.5019 6.80832C21.1818 7.19995 21.6006 7.92371 21.6006 8.70698V17.3514Z" fill="white"/>
<path d="M40.596 7.01953C40.8756 7.01953 41.1021 7.2435 41.1021 7.51979V8.96095C41.1021 9.23599 40.8774 9.45945 40.5992 9.4612L37.2297 9.48242C35.873 9.48242 35.577 9.70189 35.577 11.3601V18.7118C35.577 18.9881 35.3505 19.2121 35.0711 19.2121H33.1233C32.8438 19.2121 32.6172 18.9881 32.6172 18.7118V10.2627C32.6172 8.06809 33.6038 7.01953 35.8977 7.01953H40.596Z" fill="white"/>
<path d="M52.3329 16.5785C51.3956 18.5537 49.8665 19.4072 48.1398 19.4072C44.5141 19.4072 43.3301 16.5785 43.3301 12.9207V7.51979C43.3301 7.2435 43.5567 7.01953 43.8361 7.01953H45.784C46.0634 7.01953 46.2899 7.2435 46.2899 7.51979V12.9207C46.2899 15.3836 47.3753 16.4566 49.2497 16.4566C50.4337 16.4566 52.6535 15.6031 52.6535 11.5795V7.51979C52.6535 7.2435 52.8801 7.01953 53.1596 7.01953H55.1074C55.3868 7.01953 55.6133 7.2435 55.6133 7.51979V18.7118C55.6133 18.9881 55.3868 19.2121 55.1074 19.2121H53.1596C52.8801 19.2121 52.6535 18.9881 52.6535 18.7118V16.6517C52.6535 16.1495 52.7247 15.5066 52.8205 15.0219C52.8235 15.0072 52.812 14.9934 52.7968 14.9934C52.7851 14.9934 52.7752 15.0015 52.773 15.0125C52.6743 15.4976 52.5276 16.1212 52.3329 16.5785Z" fill="white"/>
<path d="M61.1255 9.79919C62.1121 7.72647 64.036 6.82422 65.6886 6.82422C68.9443 6.82422 70.1776 9.65289 70.1776 13.3106V18.7115C70.1776 18.9879 69.9511 19.2119 69.6717 19.2119H67.6991C67.4197 19.2119 67.1932 18.9879 67.1932 18.7115V13.3106C67.1932 11.0916 66.2559 9.7748 64.6032 9.7748C63.3208 9.7748 60.7801 10.6283 60.7801 14.6518V18.7115C60.7801 18.9879 60.5536 19.2119 60.2742 19.2119H58.3264C58.047 19.2119 57.8203 18.9879 57.8203 18.7115V7.51955C57.8203 7.24326 58.047 7.0193 58.3264 7.0193H60.2742C60.5536 7.0193 60.7801 7.24326 60.7801 7.51955V9.72604C60.7801 10.2043 60.7091 10.8467 60.6132 11.3313C60.6103 11.3461 60.6218 11.3598 60.637 11.3598C60.6485 11.3598 60.6585 11.3519 60.6608 11.3407C60.7594 10.8563 60.9064 10.2565 61.1255 9.79919Z" fill="white"/>
<path d="M75.9407 8.74874C77.0506 7.57827 79.0238 6.87109 80.6518 6.87109C84.5242 6.89548 86.7687 8.89506 86.7687 13.1136C86.7687 17.3323 84.5242 19.3563 80.6518 19.3563C79.0238 19.3563 77.0506 18.6491 75.9407 17.4786C75.5501 17.0926 75.2804 16.3959 75.1075 15.8852C75.1041 15.8756 75.0952 15.8691 75.0849 15.8691C75.0689 15.8691 75.0574 15.8844 75.062 15.8996C75.2307 16.4546 75.3734 17.1229 75.3734 17.6737V21.08C75.3734 21.3562 75.1468 21.5802 74.8673 21.5802H72.9187C72.6395 21.5802 72.4132 21.3568 72.4128 21.0808L72.3896 7.51845C72.3892 7.24186 72.6159 7.01741 72.8957 7.01741H74.8673C75.1468 7.01741 75.3734 7.24138 75.3734 7.51766V8.55366C75.3734 9.10354 75.2311 9.81747 75.0628 10.3278C75.0579 10.3428 75.0693 10.3582 75.0852 10.3582C75.0953 10.3582 75.1041 10.3519 75.1073 10.3425C75.2803 9.83173 75.5501 9.13494 75.9407 8.74874ZM79.7884 17.0641C82.7236 17.0641 83.8088 15.5766 83.8088 13.1136C83.8088 10.602 82.6989 9.35837 79.7884 9.28522C77.5193 9.28522 75.3734 10.7727 75.3734 13.1136C75.3734 15.4546 77.5193 17.0641 79.7884 17.0641Z" fill="white"/>
<path d="M102.828 13.1136C102.828 17.3323 99.4983 19.3563 95.6259 19.3563C91.7781 19.3563 88.4482 17.3323 88.4482 13.1136C88.4482 8.89506 91.7781 6.87109 95.6259 6.87109C99.4983 6.87109 102.828 8.91944 102.828 13.1136ZM99.8682 13.1136C99.8682 10.6508 97.8704 9.26084 95.6259 9.26084C93.4553 9.26084 91.4081 10.6508 91.4081 13.1136C91.4081 15.6497 93.3074 16.9421 95.6259 16.9421C97.895 16.9421 99.8682 15.6009 99.8682 13.1136Z" fill="white"/>
<path d="M115.431 17.5284C114.296 18.6501 112.323 19.3573 110.695 19.3573C106.823 19.3573 104.578 17.3333 104.578 13.1147C104.578 8.89608 106.823 6.89651 110.695 6.87212C112.323 6.87212 114.321 7.62806 115.431 8.79854C115.821 9.18466 116.067 9.88125 116.239 10.392C116.243 10.4016 116.252 10.408 116.262 10.408C116.278 10.408 116.289 10.3928 116.285 10.3776C116.116 9.8226 115.974 9.15423 115.974 8.60347V4.98074C115.974 4.70445 116.2 4.48047 116.479 4.48047H118.452C118.731 4.48047 118.958 4.70445 118.958 4.98074V18.7107C118.958 18.987 118.731 19.211 118.452 19.211H116.479C116.2 19.211 115.974 18.987 115.974 18.7107V17.7235C115.974 17.1707 116.117 16.4757 116.287 15.9655C116.291 15.9528 116.285 15.9389 116.273 15.9329C116.258 15.9255 116.24 15.9329 116.235 15.9484C116.063 16.4579 115.818 17.1457 115.431 17.5284ZM111.558 16.9431C113.828 16.9431 115.974 15.4556 115.974 13.1147C115.974 10.7737 113.828 9.16433 111.558 9.16433C108.623 9.23748 107.513 10.6274 107.513 13.1147C107.513 15.602 108.648 16.9431 111.558 16.9431Z" fill="white"/>
</svg>
