<svg width="118" height="23" viewBox="0 0 118 23" fill="none" xmlns="http://www.w3.org/2000/svg">
<path d="M0 1.01663H8.57098C10.6483 0.960334 12.7102 1.38905 14.5935 2.26893C16.2233 3.05555 17.5737 4.32317 18.4631 5.9013C19.3946 7.63133 19.8579 9.57543 19.8071 11.5404C19.8604 13.5154 19.4017 15.4705 18.4758 17.215C17.5938 18.7944 16.2469 20.0629 14.6189 20.8474C12.7277 21.7279 10.6582 22.1566 8.57352 22.0997H0L0 1.01663ZM8.03085 17.5274C8.85787 17.5916 9.68929 17.4899 10.4765 17.2282C11.2638 16.9665 11.991 16.5501 12.6156 16.0034C13.1636 15.3791 13.5807 14.6509 13.842 13.8619C14.1034 13.073 14.2037 12.2394 14.1371 11.4108C14.2071 10.582 14.1084 9.74758 13.8468 8.95813C13.5853 8.16872 13.1664 7.44069 12.6156 6.8183C11.9868 6.28033 11.258 5.8723 10.4712 5.61774C9.68435 5.36313 8.85498 5.26698 8.03085 5.33486H5.32518V17.5274H8.03085Z" fill="#2F80ED"/>
<path d="M36.0079 15.7492H26.8791C26.9764 16.548 27.369 17.2812 27.9796 17.8042C28.6571 18.2635 29.4685 18.4826 30.2847 18.4264C31.7624 18.4071 33.1997 17.9404 34.4079 17.0878L35.7544 20.55C34.9501 21.1221 34.0538 21.5517 33.1045 21.8201C32.1036 22.1233 31.064 22.279 30.0184 22.2824C28.511 22.3208 27.0154 22.0051 25.6518 21.3603C24.4624 20.7804 23.4745 19.8555 22.8167 18.7059C22.1255 17.4688 21.7771 16.0691 21.8075 14.6519C21.7828 13.2785 22.1038 11.9209 22.7407 10.7045C23.3383 9.57043 24.246 8.63034 25.3576 7.99416C26.5164 7.33695 27.8299 7.00277 29.1613 7.02639C30.0839 6.99035 31.0035 7.15316 31.8578 7.50372C32.7122 7.85429 33.4815 8.38449 34.1137 9.05847C35.3811 10.5751 36.0544 12.5018 36.0079 14.4791V15.7492ZM26.8791 13.2091H31.4942C31.3793 11.4631 30.6109 10.5902 29.1892 10.5902C27.7675 10.5902 26.9974 11.4631 26.8791 13.2091Z" fill="#2F80ED"/>
<path d="M48.0731 7.36719H53.284L46.7139 22.0999H42.3169L35.8506 7.36719H41.4293L44.6675 15.6708L48.0731 7.36719Z" fill="#2F80ED"/>
<path d="M62.6342 7.62025H65.931V11.4304H62.3808V22.0989H57.0554V11.4304H54.5195V7.62025H57.2353C57.226 6.76203 57.4021 5.91198 57.7523 5.12873C58.1029 4.34549 58.6184 3.64769 59.264 3.08354C60.921 1.92724 62.8978 1.3205 64.9166 1.34867L66.7472 1.23438L67.0514 5.0115L65.6414 5.0674C64.834 5.04197 64.0329 5.21647 63.3086 5.57545C63.0738 5.752 62.8885 5.98617 62.7706 6.2553C62.6523 6.52449 62.6053 6.81959 62.6342 7.1122V7.62025Z" fill="#2F80ED"/>
<path d="M70.6035 21.3371C69.4219 20.7463 68.4399 19.8194 67.7816 18.6725C67.0969 17.4345 66.7546 16.0358 66.7898 14.621C66.7531 13.2101 67.0954 11.8151 67.7816 10.5822C68.4394 9.44765 69.4171 8.53236 70.5913 7.95066C71.926 7.34216 73.3756 7.02734 74.8423 7.02734C76.309 7.02734 77.7586 7.34216 79.0938 7.95066C80.269 8.53196 81.2471 9.44726 81.9059 10.5822C82.5916 11.8151 82.9339 13.2101 82.8973 14.621C82.9325 16.0358 82.5906 17.4345 81.9059 18.6725C81.233 19.8255 80.2343 20.7528 79.0351 21.3371C77.7073 21.9537 76.2606 22.2732 74.7968 22.2732C73.3325 22.2732 71.8864 21.9537 70.5581 21.3371H70.6035ZM77.6662 14.6667C77.6662 12.2045 76.7252 10.9734 74.8438 10.9734C72.9618 10.9734 72.0194 12.2045 72.016 14.6667C72.016 17.129 72.9569 18.36 74.8384 18.36C76.7203 18.36 77.6618 17.129 77.6632 14.6667H77.6662Z" fill="#2F80ED"/>
<path d="M85.2031 22.0987V1.01562H90.5286V22.0987H85.2031Z" fill="#2F80ED"/>
<path d="M93.5703 0H99.1491V4.82623H93.5703V0ZM93.5703 22.0635V7.36636H98.8958V22.0991L93.5703 22.0635Z" fill="#2F80ED"/>
<path d="M105.139 21.3371C103.957 20.7463 102.975 19.8194 102.316 18.6725C101.632 17.4345 101.29 16.0358 101.325 14.621C101.288 13.2101 101.631 11.8151 102.316 10.5822C102.975 9.44765 103.952 8.53236 105.126 7.95066C106.461 7.34216 107.911 7.02734 109.377 7.02734C110.844 7.02734 112.294 7.34216 113.628 7.95066C114.803 8.53236 115.78 9.44765 116.438 10.5822C117.124 11.8151 117.467 13.2101 117.43 14.621C117.465 16.0358 117.123 17.4345 116.438 18.6725C115.775 19.8204 114.789 20.7471 113.603 21.3371C112.275 21.9537 110.829 22.2732 109.365 22.2732C107.901 22.2732 106.454 21.9537 105.126 21.3371H105.139ZM112.201 14.7328C112.201 12.2706 111.26 11.0394 109.378 11.0394C107.497 11.0394 106.557 12.2706 106.557 14.7328C106.557 17.195 107.497 18.4261 109.378 18.4261C111.26 18.4261 112.197 17.195 112.188 14.7328H112.201Z" fill="#2F80ED"/>
</svg>
