<svg width="60" height="47" viewBox="0 0 60 47" fill="none" xmlns="http://www.w3.org/2000/svg">
<path d="M22.9434 19.1299L29.5696 33.578L39.4114 27.9838H39.4303V16.7891L22.9434 19.1299Z" fill="#2BBDF7"/>
<path d="M52.141 8.394L45.9993 6.12234L39.4297 5.59375V16.7885V40.4742L49.2841 46.0747L57.1437 30.3052L52.1598 15.1335L52.141 8.394Z" fill="#2891F9"/>
<path d="M51.5694 5.59375L49.2852 11.1943V45.9866L59.1395 40.3861V5.59375H51.5694Z" fill="#2BBDF7"/>
<path d="M49.2841 0L39.4297 5.59422L49.2841 11.1947L59.1385 5.59422L49.2841 0Z" fill="#2B6DEF"/>
<path d="M29.5694 22.3827L19.7151 11.5089L0 5.59375V40.3861L9.85438 45.9866L12.6798 26.731L19.7151 27.9832L29.5694 33.5774V22.3827Z" fill="#2891F9"/>
<path d="M9.85438 0L0 5.59422L29.5694 22.3832L34.0373 19.8535L39.4301 16.7889L9.85438 0Z" fill="#2B6DEF"/>
<path d="M9.85449 22.3828V45.9868L19.7152 40.3863V27.9833L9.85449 22.3828Z" fill="#2BBDF7"/>
</svg>
