<svg width="34" height="34" viewBox="0 0 34 34" fill="none" xmlns="http://www.w3.org/2000/svg">
<g clip-path="url(#clip0_1153_20812)">
<path d="M32.0666 9.99072C32.0666 9.41507 31.9311 8.90715 31.6941 8.50081C31.4571 8.06061 31.0846 7.72199 30.6105 7.4511C26.6149 5.1485 22.6192 2.8459 18.6235 0.509444C17.5399 -0.100067 16.4902 -0.100067 15.4405 0.543305C13.849 1.49143 5.89148 6.06277 3.4873 7.41723C2.50531 7.99288 2.03125 8.87329 2.03125 9.99072C2.03125 14.6298 2.03125 19.2688 2.03125 23.9079C2.03125 24.4497 2.13284 24.9576 2.36987 25.3639C2.6069 25.8041 2.97938 26.1766 3.4873 26.4475C5.85762 27.8358 13.849 32.3733 15.4405 33.3214C16.5241 33.9648 17.5399 33.9648 18.6235 33.3553C22.6192 31.0866 26.6149 28.784 30.6105 26.4814C31.1185 26.2105 31.4571 25.838 31.728 25.3978C31.965 24.9576 32.0666 24.4835 32.0666 23.9417C32.0666 23.9079 32.0666 14.6298 32.0666 9.99072Z" fill="#838383"/>
<path d="M17.1009 16.898L2.37109 25.3973C2.60813 25.8375 2.9806 26.21 3.48853 26.4809C5.85885 27.8692 13.8502 32.4067 15.4417 33.3548C16.5253 33.9982 17.5411 33.9982 18.6247 33.3887C22.6204 31.0861 26.6161 28.7835 30.6118 26.4809C31.1197 26.21 31.4583 25.8375 31.7292 25.3973L17.1009 16.898Z" fill="#3E3E3E"/>
<path d="M12.7344 19.4038C13.5809 20.8937 15.2063 21.9096 17.0348 21.9096C18.8972 21.9096 20.5226 20.8937 21.3691 19.3699L17.0687 16.898L12.7344 19.4038Z" fill="#3E3E3E"/>
<path d="M32.0684 9.99028C32.0684 9.41463 31.933 8.90671 31.696 8.50037L17.1016 16.8981L31.7298 25.3635C31.9669 24.9233 32.0684 24.4492 32.0684 23.9074C32.0684 23.9074 32.0684 14.6293 32.0684 9.99028Z" fill="#4C4C4C"/>
<path d="M31.2895 17.5077H30.1382V18.659H28.9869V17.5077H27.8356V16.3564H28.9869V15.2051H30.1382V16.3564H31.2895V17.5077ZM27.0906 17.5077H25.9393V18.659H24.788V17.5077H23.6367V16.3564H24.788V15.2051H25.9393V16.3564H27.0906V17.5077Z" fill="white"/>
<path d="M21.399 19.4042C20.5525 20.928 18.9271 21.9438 17.0647 21.9438C15.2023 21.9438 13.6108 20.928 12.7643 19.438C12.3241 18.6931 12.1209 17.8465 12.1209 16.9661C12.1209 14.2233 14.3558 11.9885 17.0986 11.9885C18.9271 11.9885 20.5186 12.9705 21.399 14.4604L25.7333 11.9546C24.0064 8.97477 20.7895 6.97693 17.0986 6.97693C11.5791 6.97693 7.10938 11.4467 7.10938 16.9661C7.10938 18.7608 7.58344 20.4539 8.42998 21.9438C10.1569 24.9236 13.3738 26.9553 17.0986 26.9553C20.8234 26.9553 24.0402 24.9236 25.7672 21.9099L21.399 19.4042Z" fill="white"/>
</g>
<defs>
<clipPath id="clip0_1153_20812">
<rect width="33.8617" height="33.8617" fill="white" transform="translate(0 0.0691528)"/>
</clipPath>
</defs>
</svg>
