<svg width="33" height="32" viewBox="0 0 33 32" fill="none" xmlns="http://www.w3.org/2000/svg">
<g clip-path="url(#clip0_1153_20854)">
<path d="M6.79425 10.1035C7.87908 10.1035 8.75952 10.9839 8.75952 12.0688V25.8257C8.75952 26.9105 7.87908 27.7909 6.79425 27.7909H2.86371C1.78019 27.7909 0.898438 26.9105 0.898438 25.8257V12.0688C0.898438 10.9839 1.78019 10.1035 2.86371 10.1035H6.79425ZM18.5859 4.20767C19.6707 4.20767 20.5512 5.08811 20.5512 6.17294V25.8257C20.5512 26.9105 19.6707 27.7909 18.5859 27.7909H14.6553C13.5718 27.7909 12.6901 26.9105 12.6901 25.8257V6.17294C12.6901 5.08811 13.5718 4.20767 14.6553 4.20767H18.5859ZM30.3775 14.034C31.4623 14.034 32.3428 14.9145 32.3428 15.9993V25.8257C32.3428 26.9105 31.4623 27.7909 30.3775 27.7909H26.447C25.3621 27.7909 24.4817 26.9105 24.4817 25.8257V15.9993C24.4817 14.9145 25.3621 14.034 26.447 14.034H30.3775Z" fill="white"/>
</g>
<defs>
<clipPath id="clip0_1153_20854">
<rect width="31.4443" height="31.4443" fill="white" transform="translate(0.898438 0.277832)"/>
</clipPath>
</defs>
</svg>
