<svg width="65" height="50" viewBox="0 0 65 50" fill="none" xmlns="http://www.w3.org/2000/svg">
<g style="mix-blend-mode:luminosity">
<path d="M9.0341 35.9303C8.96636 35.9303 8.90281 35.9397 8.84502 35.9584C8.79134 35.9757 8.74531 35.9994 8.70868 36.0285C8.67474 36.0553 8.64915 36.0853 8.62998 36.1211C8.61425 36.15 8.607 36.1787 8.607 36.2119C8.607 36.2397 8.61261 36.2625 8.62476 36.2838C8.64204 36.3143 8.66572 36.3406 8.69748 36.3647C8.73165 36.3906 8.77586 36.4112 8.82915 36.4263C8.95224 36.4612 9.11551 36.4612 9.23557 36.4268C9.28792 36.4114 9.33182 36.3908 9.36616 36.3647C9.39796 36.3406 9.42182 36.3143 9.43886 36.284C9.4511 36.2627 9.45686 36.2395 9.45686 36.2119C9.45686 36.179 9.44952 36.15 9.43388 36.1211C9.41472 36.0855 9.38912 36.0555 9.35566 36.029C9.31816 35.9994 9.27252 35.9755 9.21923 35.9577C9.16382 35.9395 9.10136 35.9303 9.0341 35.9303ZM9.0341 36.966C8.91261 36.966 8.79662 36.9505 8.68934 36.9202C8.57399 36.8875 8.47239 36.8382 8.38737 36.7735C8.30053 36.7077 8.23018 36.6283 8.17862 36.5375C8.12235 36.4386 8.09375 36.329 8.09375 36.2119C8.09375 36.0937 8.12217 35.9812 8.17822 35.8774C8.23072 35.7801 8.30226 35.6952 8.39077 35.6257C8.47461 35.5592 8.57439 35.5066 8.68665 35.4702C8.9055 35.3994 9.16485 35.3996 9.38029 35.4706C9.49112 35.5073 9.58974 35.5594 9.67388 35.6261C9.76184 35.6956 9.83336 35.7803 9.8857 35.8774C9.94176 35.9816 9.97011 36.0941 9.97011 36.2119C9.97011 36.3285 9.94151 36.438 9.88531 36.5373C9.83384 36.6279 9.76366 36.7073 9.67649 36.7735C9.59147 36.838 9.49105 36.8871 9.37783 36.9198C9.27173 36.9505 9.15599 36.966 9.0341 36.966Z" fill="#4C82C3"/>
<path d="M11.874 35.2782C11.7874 35.2782 11.7058 35.2905 11.6314 35.3144C11.5608 35.3374 11.5002 35.3688 11.4515 35.4074C11.4052 35.4438 11.3701 35.4852 11.3437 35.5341C11.3212 35.5762 11.3101 35.6199 11.3101 35.6674C11.3101 35.71 11.319 35.746 11.3384 35.7797C11.3624 35.8218 11.3954 35.8587 11.4393 35.892C11.485 35.9267 11.5438 35.9543 11.614 35.9742C11.7713 36.0188 11.9772 36.019 12.1298 35.9747L12.1303 35.9745C12.199 35.9547 12.2573 35.9269 12.3034 35.892C12.3473 35.8585 12.3804 35.8218 12.4043 35.7797C12.4235 35.746 12.4326 35.71 12.4326 35.6674C12.4326 35.6196 12.4215 35.576 12.3988 35.5339C12.3727 35.4852 12.3376 35.444 12.2916 35.4078C12.2421 35.3685 12.1819 35.337 12.1122 35.3139C12.0404 35.2903 11.9603 35.2782 11.874 35.2782ZM11.874 36.5212C11.7327 36.5212 11.5981 36.5032 11.474 36.4679C11.342 36.4308 11.2257 36.3745 11.1288 36.3006C11.0299 36.2256 10.9503 36.1354 10.892 36.033C10.8289 35.9218 10.7969 35.7988 10.7969 35.6674C10.7969 35.535 10.8288 35.4082 10.8918 35.2909C10.9515 35.1802 11.0328 35.0839 11.1334 35.0045C11.2295 34.9284 11.3438 34.8683 11.4728 34.8264C11.7251 34.7446 12.0258 34.7449 12.2735 34.8267C12.4007 34.8688 12.5137 34.9289 12.6098 35.0049C12.7103 35.0843 12.7915 35.1806 12.8508 35.2907C12.9138 35.408 12.9457 35.5346 12.9457 35.6674C12.9457 35.7986 12.9138 35.9216 12.8508 36.0328C12.7925 36.1352 12.7129 36.2253 12.6139 36.3006C12.5171 36.374 12.4023 36.4302 12.2726 36.4677C12.1499 36.5032 12.0159 36.5212 11.874 36.5212Z" fill="#4C82C3"/>
<path d="M15.0302 34.6046C14.9209 34.6046 14.8177 34.62 14.7235 34.6507C14.6327 34.6803 14.5545 34.7206 14.4911 34.7709C14.4303 34.8189 14.3838 34.8739 14.3488 34.9386C14.3175 34.997 14.3023 35.0573 14.3023 35.1233C14.3023 35.1827 14.3155 35.2351 14.3427 35.2829C14.3751 35.3399 14.4191 35.3891 14.4776 35.4336C14.5376 35.479 14.6139 35.5152 14.7043 35.5406C14.9014 35.5967 15.1599 35.5967 15.3514 35.5413L15.3518 35.541C15.4403 35.5156 15.5161 35.4792 15.5769 35.4331C15.6351 35.3888 15.6792 35.3397 15.7112 35.2831C15.7385 35.2351 15.7518 35.1827 15.7518 35.1233C15.7518 35.0573 15.7366 34.997 15.7053 34.9386C15.6705 34.8739 15.6238 34.8189 15.5628 34.7706C15.4993 34.7204 15.4217 34.6799 15.3322 34.6503C15.2409 34.62 15.1391 34.6046 15.0302 34.6046ZM15.0302 36.0961C14.8649 36.0961 14.7082 36.0755 14.5642 36.0345C14.4122 35.9915 14.2785 35.9266 14.1672 35.8424C14.0535 35.756 13.9624 35.6529 13.8964 35.5362C13.8253 35.4112 13.7891 35.272 13.7891 35.1233C13.7891 34.9724 13.8253 34.8285 13.8968 34.6956C13.9647 34.5693 14.0577 34.4592 14.173 34.368C14.284 34.2803 14.4158 34.2112 14.5647 34.1628C14.8568 34.0678 15.2064 34.068 15.4938 34.163C15.6404 34.2117 15.7706 34.2807 15.8812 34.368C15.9967 34.4595 16.0895 34.5695 16.1572 34.6956C16.2288 34.8285 16.2651 34.9724 16.2651 35.1233C16.2651 35.2715 16.229 35.4103 16.1578 35.5362C16.0917 35.6529 16.0007 35.7555 15.8872 35.8419C15.7755 35.9266 15.6434 35.9913 15.4939 36.0342C15.3519 36.0755 15.1958 36.0961 15.0302 36.0961Z" fill="#4C82C3"/>
<path d="M16.7797 26.2653C16.7024 26.3423 16.585 26.3621 16.4869 26.3145C16.3888 26.2671 16.3314 26.1625 16.3438 26.0544C16.3777 25.7577 16.3009 25.5553 16.1091 25.4357C15.7544 25.2153 15.0313 25.3011 14.53 25.623C14.3499 25.739 14.0539 25.98 14.0947 26.295C14.1129 26.4355 14.0137 26.564 13.8732 26.5822C13.7327 26.6 13.6039 26.5015 13.5857 26.361C13.4596 25.3864 12.9355 25.0803 12.5181 24.9952C11.8289 24.8546 11.0065 25.2254 10.6461 25.8392C10.3402 26.3601 10.4387 26.9577 10.9235 27.5217C10.9823 27.5903 11.0009 27.6849 10.9723 27.7704C10.9438 27.8561 10.8723 27.9204 10.7841 27.9397C8.97105 28.3388 8.40239 29.1921 8.47478 29.8577C8.56028 30.6441 9.57436 31.4805 11.2852 31.4805C11.3537 31.4805 11.4194 31.5077 11.4677 31.5566C11.5158 31.6053 11.5425 31.6713 11.5418 31.7397C11.538 32.0822 11.6507 32.3509 11.8063 32.559H19.4949C20.6103 32.559 21.5228 31.6463 21.5228 30.5309V25.9671C20.303 24.97 18.3104 24.7419 16.7797 26.2653Z" fill="#4C82C3"/>
<path d="M7.96334 29.9126C7.87286 29.0808 8.44927 28.0472 10.292 27.5328C9.87986 26.8858 9.84348 26.1902 10.2024 25.579C10.6749 24.7746 11.7148 24.3073 12.6194 24.492C13.1881 24.608 13.6224 24.9665 13.8746 25.5093C13.9761 25.3939 14.1022 25.2867 14.2512 25.1911C14.832 24.8176 15.7749 24.6235 16.379 24.9996C16.5896 25.1308 16.7346 25.3194 16.8079 25.5514C18.3594 24.3115 20.2233 24.4714 21.5216 25.3306V22.2977C21.5216 21.1824 20.609 20.2698 19.4937 20.2698H8.04354C6.92819 20.2698 6.01562 21.1824 6.01562 22.2977V30.5306C6.01562 31.6459 6.92819 32.5584 8.04354 32.5584H11.2077C11.1229 32.3806 11.0642 32.1907 11.0406 31.9882C9.15876 31.9082 8.07126 30.9047 7.96334 29.9126Z" fill="#4C82C3"/>
<path d="M22.4645 29.2875C23.436 28.0601 22.9959 26.6608 22.0867 25.7829C21.9144 25.6167 21.7244 25.4654 21.521 25.3307V25.9672C21.5934 26.0264 21.6635 26.0878 21.7302 26.1522C22.4496 26.847 22.9323 28.043 21.9254 29.1281C21.878 29.179 21.8534 29.2472 21.8573 29.3167C21.861 29.386 21.893 29.4511 21.9455 29.4968C22.7057 30.1547 22.7492 31.4253 22.0466 32.4522C21.1226 33.8027 18.9457 34.6163 15.6063 32.8494C15.5685 32.8294 15.5273 32.8196 15.4863 32.8196C15.4314 32.8196 15.3765 32.8373 15.331 32.872C14.5841 33.4395 13.3396 33.525 12.4363 33.0709C12.2501 32.9772 11.995 32.8134 11.8045 32.5586H11.207C11.3972 32.9582 11.7337 33.2919 12.2058 33.5292C13.2199 34.0395 14.6058 33.9676 15.5064 33.3759C16.8938 34.088 18.0997 34.3786 19.1168 34.3786C20.7095 34.3783 21.8382 33.6656 22.4702 32.7419C23.2625 31.5838 23.2459 30.1483 22.4645 29.2875Z" fill="#4C82C3"/>
<path d="M31.1675 24.0625C31.2504 24.0981 31.3122 24.1768 31.3234 24.2665L31.5989 26.5134H32.5697V23.8702C32.5697 23.7913 32.6063 23.7167 32.6693 23.6685L33.1243 23.32L31.7736 22.9187C31.6717 22.8884 31.5993 22.7978 31.5925 22.6917C31.5857 22.5853 31.6456 22.486 31.7429 22.443L33.028 21.8731L31.9013 21.543C31.8171 21.5183 31.7517 21.4522 31.728 21.3675C31.7043 21.2832 31.7261 21.1925 31.7853 21.1277L32.5697 20.2698H28.5664C28.6304 21.9263 29.6353 23.4031 31.1675 24.0625Z" fill="white"/>
<path d="M33.8351 21.5805C33.9373 21.6105 34.0101 21.7011 34.0171 21.8075C34.0242 21.9138 33.9641 22.0134 33.8667 22.0566L32.5779 22.6281L33.7457 22.9748C33.8371 23.002 33.9057 23.0783 33.9231 23.1722C33.9404 23.2663 33.9036 23.3621 33.8279 23.4202L33.0764 23.9957V26.5134H34.1382L34.411 24.2733C34.422 24.1834 34.4803 24.1007 34.5636 24.0652C36.0996 23.4068 37.1066 21.9289 37.1707 20.2698H33.2568L32.4336 21.17L33.8351 21.5805Z" fill="white"/>
<path d="M34.3988 28.109H31.3422C31.2018 28.109 31.0883 27.9952 31.0883 27.8549C31.0883 27.7145 31.2018 27.6009 31.3422 27.6009H34.3988C34.5391 27.6009 34.6527 27.7145 34.6527 27.8549C34.6527 27.9952 34.5391 28.109 34.3988 28.109ZM34.3988 29.0913H31.3422C31.2018 29.0913 31.0883 28.9777 31.0883 28.8373C31.0883 28.697 31.2018 28.5832 31.3422 28.5832H34.3988C34.5391 28.5832 34.6527 28.697 34.6527 28.8373C34.6527 28.9777 34.5391 29.0913 34.3988 29.0913ZM34.3988 30.0737H31.3422C31.2018 30.0737 31.0883 29.9601 31.0883 29.8196C31.0883 29.6794 31.2018 29.5656 31.3422 29.5656H34.3988C34.5391 29.5656 34.6527 29.6794 34.6527 29.8196C34.6527 29.9601 34.5391 30.0737 34.3988 30.0737ZM33.4165 31.056H32.3244C32.1841 31.056 32.0705 30.9424 32.0705 30.802C32.0705 30.6617 32.1841 30.5478 32.3244 30.5478H33.4165C33.5569 30.5478 33.6705 30.6617 33.6705 30.802C33.6705 30.9424 33.5569 31.056 33.4165 31.056ZM38.6146 20.2698H37.6817C37.619 22.0836 36.5483 23.706 34.9014 24.4717L34.6179 26.7983C34.6023 26.9257 34.4942 27.0215 34.3657 27.0215H31.3751C31.2468 27.0215 31.1387 26.9259 31.1231 26.7985L30.8376 24.4704C29.1889 23.7 28.122 22.0794 28.0593 20.2698H27.1646C26.0492 20.2698 25.1367 21.1823 25.1367 22.2976V30.5305C25.1367 31.6459 26.0492 32.5586 27.1646 32.5586H38.6146C39.7301 32.5586 40.6426 31.6459 40.6426 30.5305V22.2976C40.6426 21.1823 39.7301 20.2698 38.6146 20.2698Z" fill="white"/>
<path d="M6.29308 38.14H7.02374V42.3731H6.29308V38.14ZM6.29308 38.14H7.02374V42.3731H6.29308V38.14ZM6.65047 37.3974C6.56308 37.3974 6.48167 37.3869 6.40628 37.3656C6.3308 37.3446 6.26654 37.3139 6.21374 37.2742C6.16067 37.2347 6.119 37.1884 6.0886 37.1354C6.05812 37.0823 6.04297 37.0242 6.04297 36.9606C6.04297 36.8944 6.05876 36.8323 6.09058 36.774C6.12231 36.7159 6.16534 36.6654 6.21966 36.6231C6.27389 36.5808 6.33808 36.5477 6.41229 36.5238C6.48626 36.5001 6.56575 36.488 6.65047 36.488C6.73525 36.488 6.81396 36.5001 6.88676 36.5238C6.95961 36.5477 7.0231 36.5808 7.07742 36.6231C7.13165 36.6654 7.17468 36.7159 7.20641 36.774C7.23823 36.8323 7.25409 36.8944 7.25409 36.9606C7.25409 37.0242 7.23878 37.0823 7.20847 37.1354C7.1779 37.1884 7.1363 37.2347 7.08334 37.2742C7.03036 37.3139 6.96681 37.3446 6.89268 37.3656C6.81863 37.3869 6.73786 37.3974 6.65047 37.3974Z" fill="#4C82C3"/>
<path d="M11.4539 39.5495H10.759C10.7166 39.2864 10.62 39.0677 10.4691 38.8934C10.3182 38.7195 10.076 38.6322 9.74243 38.6322C9.287 38.6322 8.9614 38.855 8.76561 39.3002C8.63844 39.5892 8.57496 39.9458 8.57496 40.3697C8.57496 40.7965 8.66489 41.1557 8.84496 41.4473C9.02496 41.7388 9.30822 41.8846 9.69482 41.8846C9.99127 41.8846 10.2261 41.794 10.3997 41.6125C10.573 41.4313 10.6928 41.1831 10.759 40.8679H11.4539C11.3746 41.432 11.176 41.8443 10.8584 42.105C10.5407 42.3657 10.1343 42.496 9.63925 42.496C9.08322 42.496 8.63978 42.2932 8.30884 41.8866C7.97789 41.4802 7.8125 40.9725 7.8125 40.3636C7.8125 39.6171 7.99384 39.0359 8.35651 38.6204C8.71921 38.2048 9.18112 37.9969 9.74243 37.9969C10.2216 37.9969 10.6114 38.1133 10.9119 38.3462C11.2124 38.5793 11.3931 38.9804 11.4539 39.5495Z" fill="#4C82C3"/>
<path d="M15.1234 40.2202C15.1234 39.8811 15.0744 39.5901 14.9765 39.3465C14.7912 38.8778 14.4524 38.6436 13.9599 38.6436C13.4648 38.6436 13.126 38.8912 12.9433 39.3862C12.8453 39.6509 12.7964 39.9873 12.7964 40.3947C12.7964 40.7232 12.8453 41.0024 12.9433 41.2327C13.1286 41.6721 13.4674 41.8919 13.9599 41.8919C14.2935 41.8919 14.5707 41.7524 14.7919 41.473C15.0129 41.1936 15.1234 40.7761 15.1234 40.2202ZM12.1094 38.1392H12.8044V38.703C12.9473 38.5098 13.1035 38.3603 13.2729 38.2544C13.5138 38.0956 13.7971 38.0162 14.1228 38.0162C14.6046 38.0162 15.0135 38.2009 15.3498 38.5699C15.6859 38.9395 15.8541 39.4669 15.8541 40.1526C15.8541 41.0791 15.6119 41.741 15.1275 42.1379C14.8203 42.3894 14.4629 42.5153 14.0553 42.5153C13.7348 42.5153 13.4662 42.4452 13.2491 42.305C13.1221 42.2254 12.9804 42.0892 12.8242 41.8958V44.0682H12.1094V38.1392Z" fill="#4C82C3"/>
<path d="M20.0399 39.5495H19.3449C19.3026 39.2864 19.206 39.0677 19.0551 38.8934C18.9041 38.7195 18.6619 38.6322 18.3284 38.6322C17.8729 38.6322 17.5474 38.855 17.3516 39.3002C17.2244 39.5892 17.1609 39.9458 17.1609 40.3697C17.1609 40.7965 17.2508 41.1557 17.4309 41.4473C17.6109 41.7388 17.8942 41.8846 18.2808 41.8846C18.5772 41.8846 18.8121 41.794 18.9856 41.6125C19.159 41.4313 19.2787 41.1831 19.3449 40.8679H20.0399C19.9605 41.432 19.7619 41.8443 19.4443 42.105C19.1266 42.3657 18.7202 42.496 18.2252 42.496C17.6692 42.496 17.2257 42.2932 16.8948 41.8866C16.5638 41.4802 16.3984 40.9725 16.3984 40.3636C16.3984 39.6171 16.5798 39.0359 16.9425 38.6204C17.3051 38.2048 17.7671 37.9969 18.3284 37.9969C18.8075 37.9969 19.1974 38.1133 19.4978 38.3462C19.7983 38.5793 19.979 38.9804 20.0399 39.5495Z" fill="#4C82C3"/>
<path d="M21.3381 42.3928C21.2507 42.3928 21.1693 42.3823 21.0939 42.361C21.0184 42.3399 20.9541 42.3092 20.9013 42.2696C20.8483 42.2301 20.8065 42.1838 20.7762 42.1307C20.7457 42.0777 20.7305 42.0196 20.7305 41.956C20.7305 41.8897 20.7463 41.8277 20.7782 41.7693C20.8099 41.7112 20.8529 41.6608 20.9072 41.6185C20.9614 41.5761 21.0257 41.5428 21.0998 41.5191C21.1738 41.4954 21.2533 41.4834 21.3381 41.4834C21.4227 41.4834 21.5015 41.4954 21.5744 41.5191C21.6471 41.5428 21.7107 41.5761 21.765 41.6185C21.8192 41.6608 21.8622 41.7112 21.894 41.7693C21.9257 41.8277 21.9417 41.8897 21.9417 41.956C21.9417 42.0196 21.9264 42.0777 21.8961 42.1307C21.8655 42.1838 21.8238 42.2301 21.7709 42.2696C21.7179 42.3092 21.6544 42.3399 21.5803 42.361C21.5062 42.3823 21.4254 42.3928 21.3381 42.3928Z" fill="#4C82C3"/>
<path d="M23.3481 36.8201C23.515 36.5765 23.8367 36.4547 24.3132 36.4547C24.3582 36.4547 24.4044 36.4563 24.452 36.4587C24.4998 36.4613 24.554 36.4653 24.615 36.4705V37.1218C24.5408 37.1168 24.4871 37.1133 24.454 37.112C24.4209 37.1107 24.39 37.11 24.3608 37.11C24.1437 37.11 24.0139 37.1664 23.9715 37.2786C23.9292 37.3914 23.9082 37.6778 23.9082 38.1385H24.615V38.7023H23.9V42.3716H23.1933V38.7023H22.6016V38.1385H23.1933V37.4714C23.2038 37.1749 23.2553 36.9578 23.3481 36.8201Z" fill="#4C82C3"/>
<path d="M28.201 40.1772C28.201 39.78 28.1372 39.457 28.01 39.2081C27.8085 38.8164 27.4611 38.6204 26.9679 38.6204C26.5304 38.6204 26.2122 38.7872 26.0133 39.1208C25.8146 39.4541 25.7151 39.8568 25.7151 40.3278C25.7151 40.7807 25.8146 41.1581 26.0133 41.4598C26.2122 41.7616 26.5278 41.9125 26.96 41.9125C27.4346 41.9125 27.7603 41.7331 27.9366 41.3743C28.1129 41.0155 28.201 40.6164 28.201 40.1772ZM28.9475 40.1572C28.9475 40.8427 28.7809 41.4094 28.4471 41.8568C28.1135 42.3041 27.596 42.528 26.8945 42.528C26.3094 42.528 25.8447 42.33 25.5006 41.9342C25.1565 41.5386 24.9844 41.007 24.9844 40.3399C24.9844 39.625 25.1657 39.0559 25.5285 38.6322C25.8912 38.2087 26.3782 37.9969 26.9899 37.9969C27.5379 37.9969 28.001 38.1796 28.3798 38.5449C28.7583 38.9103 28.9475 39.4475 28.9475 40.1572Z" fill="#4C82C3"/>
<path d="M30.4729 38.1187V40.9393C30.4729 41.1562 30.5073 41.3334 30.5762 41.4707C30.7034 41.7246 30.9402 41.8516 31.2869 41.8516C31.7847 41.8516 32.1235 41.6294 32.3036 41.1851C32.4016 40.9472 32.4505 40.6207 32.4505 40.2053V38.1187H33.1652V42.3718H32.4902L32.4981 41.7443C32.4056 41.906 32.2902 42.0424 32.1527 42.1536C31.8799 42.3757 31.549 42.4871 31.16 42.4871C30.5536 42.4871 30.1407 42.2845 29.9209 41.8794C29.8018 41.6623 29.7422 41.3726 29.7422 41.0099V38.1187H30.4729Z" fill="#4C82C3"/>
<path d="M34.2383 38.1195H34.9174V38.7232C35.1188 38.4743 35.3321 38.2958 35.5576 38.187C35.7828 38.0785 36.0335 38.0243 36.3093 38.0243C36.9135 38.0243 37.3221 38.2346 37.5341 38.6557C37.6506 38.8862 37.7089 39.2155 37.7089 39.6445V42.3728H36.9784V39.6923C36.9784 39.4327 36.9398 39.2237 36.8631 39.0647C36.7361 38.8 36.5058 38.6675 36.1723 38.6675C36.0028 38.6675 35.8637 38.6848 35.7552 38.7193C35.5593 38.7774 35.3872 38.8938 35.2389 39.0688C35.1199 39.2092 35.0424 39.3539 35.0067 39.5035C34.971 39.6533 34.9532 39.8669 34.9532 40.1449V42.3728H34.2383V38.1195Z" fill="#4C82C3"/>
<path d="M40.4346 41.9001C40.7655 41.9001 41.0375 41.758 41.2506 41.4734C41.4638 41.189 41.5704 40.7804 41.5704 40.2482C41.5704 39.7109 41.4605 39.3131 41.2408 39.055C41.0208 38.7969 40.7498 38.6677 40.4267 38.6677C40.0666 38.6677 39.7748 38.8056 39.5511 39.0808C39.3272 39.3561 39.2155 39.7613 39.2155 40.296C39.2155 40.7512 39.312 41.1326 39.5055 41.4396C39.6987 41.7466 40.0083 41.9001 40.4346 41.9001ZM41.1096 38.2508C41.2366 38.3302 41.3809 38.4692 41.5425 38.6677V36.5194H42.2296V42.3727H41.5862V41.7813C41.4195 42.0433 41.2221 42.2324 40.9945 42.3488C40.7669 42.4653 40.5061 42.5238 40.2123 42.5238C39.7384 42.5238 39.3278 42.3245 38.9811 41.926C38.6342 41.5276 38.4609 40.9975 38.4609 40.3354C38.4609 39.7159 38.6191 39.1795 38.9355 38.7254C39.2517 38.2712 39.7039 38.0442 40.2916 38.0442C40.6171 38.0442 40.8899 38.1131 41.1096 38.2508Z" fill="#4C82C3"/>
<path d="M44.5556 41.9079C44.8072 41.9079 45.0506 41.8495 45.2863 41.7331C45.6835 41.5399 45.8822 41.2234 45.8822 40.784V40.2081C45.7947 40.2636 45.6822 40.3101 45.5447 40.3471C45.4067 40.3842 45.2717 40.4105 45.1394 40.4265L44.7065 40.4822C44.4473 40.5166 44.2526 40.5708 44.1228 40.6449C43.9032 40.7695 43.7934 40.968 43.7934 41.2405C43.7934 41.4471 43.8688 41.6101 44.0197 41.7289C44.1706 41.8482 44.3491 41.9079 44.5556 41.9079ZM45.5247 39.7952C45.6888 39.7739 45.7986 39.7052 45.8541 39.5886C45.8861 39.5252 45.9019 39.4337 45.9019 39.3147C45.9019 39.0712 45.8153 38.8945 45.6418 38.7844C45.4684 38.6745 45.2201 38.6197 44.8973 38.6197C44.5238 38.6197 44.2592 38.7204 44.103 38.9215C44.0157 39.0327 43.9587 39.1982 43.9324 39.4177H43.2651C43.2785 38.8936 43.4484 38.5291 43.7754 38.3239C44.1024 38.1188 44.4815 38.0162 44.9131 38.0162C45.4135 38.0162 45.8199 38.1114 46.1322 38.3022C46.4421 38.4927 46.5969 38.7892 46.5969 39.1914V41.6419C46.5969 41.716 46.612 41.7754 46.6425 41.8204C46.673 41.8655 46.737 41.8879 46.835 41.8879C46.8668 41.8879 46.9026 41.8859 46.9423 41.882C46.982 41.8778 47.0243 41.8721 47.0695 41.864V42.3923C46.9581 42.4239 46.8734 42.4438 46.8153 42.452C46.757 42.4596 46.6778 42.4638 46.5771 42.4638C46.3309 42.4638 46.1521 42.3763 46.041 42.2015C45.9828 42.109 45.9418 41.978 45.9179 41.8085C45.7723 41.9991 45.5629 42.1647 45.2903 42.305C45.0177 42.4452 44.717 42.5153 44.389 42.5153C43.9945 42.5153 43.6721 42.3956 43.4221 42.1561C43.1719 41.9164 43.0469 41.6166 43.0469 41.2563C43.0469 40.862 43.1699 40.5563 43.4162 40.3392C43.6622 40.1221 43.9852 39.9886 44.385 39.9381L45.5247 39.7952Z" fill="#4C82C3"/>
<path d="M47.9116 36.9324H48.6346V38.1195H49.3136V38.7032H48.6346V41.4791C48.6346 41.6274 48.6848 41.7267 48.7853 41.7769C48.841 41.8061 48.9335 41.8206 49.0633 41.8206C49.0978 41.8206 49.1348 41.8199 49.1745 41.8186C49.2142 41.8173 49.2605 41.814 49.3136 41.8087V42.3725C49.2313 42.3964 49.146 42.4135 49.0574 42.4243C48.9688 42.4348 48.8728 42.4401 48.7695 42.4401C48.4359 42.4401 48.2096 42.3548 48.0905 42.1839C47.9712 42.0131 47.9116 41.7916 47.9116 41.5188V38.7032H47.3359V38.1195H47.9116V36.9324Z" fill="#4C82C3"/>
<path d="M50.0276 38.14H50.7583V42.3731H50.0276V38.14ZM50.0276 38.14H50.7583V42.3731H50.0276V38.14ZM50.385 37.3974C50.2977 37.3974 50.2162 37.3869 50.1409 37.3656C50.0653 37.3446 50.0012 37.3139 49.9482 37.2742C49.8953 37.2347 49.8537 37.1884 49.8232 37.1354C49.7927 37.0823 49.7773 37.0242 49.7773 36.9606C49.7773 36.8944 49.7936 36.8323 49.8251 36.774C49.8569 36.7159 49.8999 36.6654 49.9543 36.6231C50.0085 36.5808 50.0727 36.5477 50.1469 36.5238C50.2208 36.5001 50.3004 36.488 50.385 36.488C50.4699 36.488 50.5486 36.5001 50.6212 36.5238C50.6942 36.5477 50.7576 36.5808 50.812 36.6231C50.8662 36.6654 50.9091 36.7159 50.9409 36.774C50.9727 36.8323 50.9887 36.8944 50.9887 36.9606C50.9887 37.0242 50.9734 37.0823 50.9429 37.1354C50.9124 37.1884 50.8708 37.2347 50.8179 37.2742C50.7648 37.3139 50.7015 37.3446 50.6273 37.3656C50.553 37.3869 50.4723 37.3974 50.385 37.3974Z" fill="#4C82C3"/>
<path d="M54.7633 40.1772C54.7633 39.78 54.6997 39.457 54.5725 39.2081C54.371 38.8164 54.0236 38.6204 53.5304 38.6204C53.0929 38.6204 52.7745 38.7872 52.5758 39.1208C52.3769 39.4541 52.2776 39.8568 52.2776 40.3278C52.2776 40.7807 52.3769 41.1581 52.5758 41.4598C52.7745 41.7616 53.0903 41.9125 53.5223 41.9125C53.9969 41.9125 54.3225 41.7331 54.4988 41.3743C54.6754 41.0155 54.7633 40.6164 54.7633 40.1772ZM55.51 40.1572C55.51 40.8427 55.3431 41.4094 55.0096 41.8568C54.676 42.3041 54.1585 42.528 53.457 42.528C52.8717 42.528 52.4072 42.33 52.0631 41.9342C51.719 41.5386 51.5469 41.007 51.5469 40.3399C51.5469 39.625 51.728 39.0559 52.091 38.6322C52.4535 38.2087 52.9407 37.9969 53.5524 37.9969C54.1004 37.9969 54.5633 38.1796 54.9423 38.5449C55.3208 38.9103 55.51 39.4475 55.51 40.1572Z" fill="#4C82C3"/>
<path d="M56.3164 38.1195H56.9956V38.7232C57.1971 38.4743 57.4105 38.2958 57.6359 38.187C57.8611 38.0785 58.1116 38.0243 58.3875 38.0243C58.9918 38.0243 59.4002 38.2346 59.6122 38.6557C59.7289 38.8862 59.7872 39.2155 59.7872 39.6445V42.3728H59.0565V39.6923C59.0565 39.4327 59.0182 39.2237 58.9414 39.0647C58.8142 38.8 58.584 38.6675 58.2504 38.6675C58.0809 38.6675 57.9421 38.6848 57.8333 38.7193C57.6375 38.7774 57.4655 38.8938 57.3173 39.0688C57.198 39.2092 57.1206 39.3539 57.0848 39.5035C57.0491 39.6533 57.0313 39.8669 57.0313 40.1449V42.3728H56.3164V38.1195Z" fill="#4C82C3"/>
<path d="M28.2213 18.3725C28.1875 18.3725 28.1535 18.3659 28.1204 18.3523L25.37 17.213C25.2684 17.1709 25.207 17.0726 25.207 16.969C25.207 16.9354 25.2134 16.9011 25.2272 16.8681C25.2829 16.7333 25.4373 16.6697 25.5722 16.7252L28.3224 17.8645C28.4241 17.9066 28.4855 18.0049 28.4853 18.1086C28.4853 18.1421 28.479 18.1764 28.4654 18.2094C28.4233 18.3111 28.3248 18.3725 28.2213 18.3725Z" fill="white"/>
<path d="M29.3136 16.7413C29.2463 16.7413 29.1785 16.7156 29.127 16.664L27.0538 14.5908C27.0022 14.5393 26.9766 14.4719 26.9766 14.4042C26.9766 14.3366 27.0022 14.2692 27.0538 14.2176C27.1568 14.1145 27.3242 14.1145 27.427 14.2176L29.5002 16.2907C29.552 16.3424 29.5777 16.4098 29.5777 16.4774C29.5777 16.545 29.552 16.6124 29.5002 16.664C29.4489 16.7156 29.3812 16.7413 29.3136 16.7413Z" fill="white"/>
<path d="M30.9438 15.6515C30.8403 15.6515 30.7421 15.59 30.7 15.4883L29.5864 12.8001C29.5728 12.7671 29.5664 12.7328 29.5664 12.6993C29.5662 12.5956 29.6276 12.4974 29.7293 12.4553C29.8638 12.3993 30.0184 12.4632 30.0741 12.5982L31.1877 15.2864C31.2013 15.3194 31.2079 15.3537 31.2079 15.3872C31.2079 15.4909 31.1465 15.5891 31.0447 15.6312C31.0118 15.6449 30.9776 15.6515 30.9438 15.6515Z" fill="white"/>
<path d="M32.8656 15.2688C32.7198 15.2688 32.6016 15.1507 32.6016 15.0049V12.0982C32.6016 11.9523 32.7198 11.8342 32.8656 11.8342C33.0114 11.8342 33.1296 11.9523 33.1296 12.0982V15.0049C33.1296 15.1507 33.0114 15.2688 32.8656 15.2688Z" fill="white"/>
<path d="M34.7912 15.6523C34.7576 15.6523 34.7234 15.6457 34.6903 15.632C34.5887 15.5899 34.5273 15.4917 34.5273 15.388C34.5273 15.3545 34.5337 15.3202 34.5475 15.2872L35.6679 12.5824C35.7236 12.4479 35.878 12.3835 36.0126 12.4395C36.1144 12.4816 36.1758 12.5798 36.1758 12.6835C36.1758 12.7171 36.1692 12.7513 36.1556 12.7843L35.0352 15.4891C34.9931 15.5908 34.8949 15.6523 34.7912 15.6523Z" fill="white"/>
<path d="M36.4201 16.7414C36.3525 16.7414 36.285 16.7157 36.2334 16.6641C36.1819 16.6125 36.1562 16.5451 36.1562 16.4775C36.1562 16.4099 36.1819 16.3425 36.2334 16.2908L38.3306 14.1938C38.4337 14.0907 38.6008 14.0907 38.7038 14.1938C38.7554 14.2454 38.781 14.3128 38.781 14.3805C38.781 14.4481 38.7554 14.5156 38.7038 14.5671L36.6067 16.6641C36.5552 16.7157 36.4876 16.7414 36.4201 16.7414Z" fill="white"/>
<path d="M37.5143 18.3726C37.4105 18.3726 37.3123 18.3112 37.2702 18.2095C37.2566 18.1765 37.25 18.1422 37.25 18.1087C37.25 18.005 37.3114 17.9067 37.4132 17.8647L40.2046 16.7083C40.3399 16.6524 40.4936 16.7165 40.5496 16.8511C40.5632 16.8842 40.5697 16.9183 40.5697 16.952C40.5697 17.0556 40.5083 17.1539 40.4066 17.196L37.6151 18.3524C37.582 18.3661 37.5478 18.3726 37.5143 18.3726Z" fill="white"/>
<path d="M57.7336 20.2716H53.01C53.2757 20.5123 53.5672 20.7293 53.8529 20.9099C53.8536 20.9103 53.8698 20.9207 53.8707 20.9212C55.9084 22.2385 56.8626 23.7034 56.7062 25.2751C56.5233 27.1185 54.8352 29.0334 51.6891 30.9674C50.6301 31.6183 49.576 32.1615 48.7422 32.5602H57.7336C58.849 32.5602 59.7615 31.6477 59.7615 30.5323V22.2994C59.7615 21.1841 58.849 20.2716 57.7336 20.2716Z" fill="#B22D1B"/>
<path d="M56.194 25.2241C56.3293 23.8594 55.4535 22.5565 53.5905 21.3521C53.3267 21.1854 52.7658 20.7994 52.2864 20.2716H46.2818C45.1664 20.2716 44.2539 21.1841 44.2539 22.2995V30.5324C44.2539 31.6478 45.1664 32.5603 46.2818 32.5603H47.5087C49.5484 31.6629 55.8568 28.6234 56.194 25.2241Z" fill="#B22D1B"/>
<path d="M52.3233 16.6621C52.3209 16.6629 52.3194 16.6648 52.3172 16.6657C52.2887 16.6764 52.2632 16.6917 52.2408 16.7109C52.238 16.7133 52.2351 16.7153 52.2325 16.7177C52.2084 16.7402 52.1889 16.7664 52.1746 16.7966L52.1744 16.7972C52.1742 16.7976 52.1742 16.7982 52.174 16.7987C52.1663 16.8154 52.159 16.8322 52.1553 16.8505C52.1522 16.8643 52.1527 16.878 52.1522 16.8917C52.152 16.8946 52.1516 16.8973 52.1516 16.9002C52.1509 16.9338 52.1562 16.9665 52.1685 16.9974V16.998L52.6463 18.2198H50.8029L51.2808 16.998C51.2812 16.9965 51.281 16.9948 51.2814 16.9934C51.2922 16.965 51.297 16.935 51.297 16.9043C51.297 16.8978 51.2961 16.8917 51.2957 16.8852C51.2948 16.8735 51.2955 16.8617 51.293 16.85C51.2895 16.8346 51.283 16.8205 51.277 16.8063C51.2759 16.8033 51.2762 16.8 51.2748 16.7972C51.2744 16.7959 51.2731 16.7952 51.2726 16.7939C51.2588 16.7654 51.2402 16.7405 51.2176 16.7189C51.2139 16.7155 51.2101 16.7129 51.2062 16.7097C51.1843 16.6911 51.1597 16.6762 51.1323 16.6658C51.1299 16.6649 51.1283 16.6629 51.1259 16.6621C48.9908 15.9205 47.2262 13.3982 47.1084 10.9202C47.0498 9.68446 47.4367 8.5931 48.2275 7.76384C49.0845 6.86518 50.3251 6.37018 51.729 6.37018C53.1242 6.37018 54.3647 6.86518 55.2218 7.76384C56.0123 8.5931 56.3994 9.68446 56.3408 10.9202C56.2231 13.3982 54.4584 15.9205 52.3233 16.6621ZM54.5691 17.2646C54.6191 17.3607 54.5702 17.4283 54.5207 17.4684C54.3503 17.6058 53.8161 17.6739 52.9663 17.0323C53.9441 16.842 54.4571 17.0483 54.5691 17.2646ZM48.9279 17.4696C48.8783 17.4299 48.8297 17.3621 48.8792 17.2661C48.9601 17.1095 49.2514 16.9579 49.7766 16.9579C49.977 16.9579 50.2117 16.9799 50.4819 17.0323C49.6327 17.6739 49.0987 17.6074 48.9279 17.4696ZM56.8538 10.9452C56.9194 9.56582 56.4836 8.34347 55.5937 7.41031C54.6387 6.40902 53.2663 5.85748 51.7204 5.85748C50.1836 5.85748 48.8115 6.40902 47.8564 7.41031C46.9665 8.34347 46.5305 9.56582 46.5963 10.9452C46.6976 13.0837 47.9468 15.2523 49.6292 16.4474C48.9674 16.4792 48.5799 16.7293 48.424 17.0306C48.2722 17.3233 48.3459 17.6607 48.6069 17.8704C48.7577 17.9916 48.977 18.0718 49.2538 18.0718C49.5838 18.0718 49.9961 17.9564 50.4709 17.6615L50.1884 18.3835C50.1575 18.4626 50.1678 18.5518 50.2154 18.6217C50.2632 18.6917 50.3426 18.7336 50.4275 18.7336H51.4878C51.5525 19.2396 51.8268 19.7616 52.288 20.2717H53.011C52.5904 19.8922 52.1093 19.3401 52.0051 18.7336H53.0226C53.1073 18.7336 53.1867 18.6917 53.2345 18.6217C53.2823 18.5518 53.2924 18.4626 53.2615 18.3835L52.9794 17.6619C53.4531 17.9556 53.8648 18.0707 54.1946 18.0707C54.4718 18.0707 54.6917 17.9904 54.8428 17.8686C55.1038 17.6589 55.177 17.3214 55.0253 17.0288C54.8689 16.7278 54.4823 16.4783 53.8222 16.4465C55.504 15.2511 56.7522 13.0831 56.8538 10.9452Z" fill="#B22D1B"/>
</g>
</svg>
