<svg width="32" height="32" viewBox="0 0 32 32" fill="none" xmlns="http://www.w3.org/2000/svg">
<g clip-path="url(#clip0_1153_20856)">
<path d="M16.1686 2.13956L2.30859 16.0299L16.1081 29.8597L29.9682 15.9694L16.1686 2.13956Z" fill="#606060" stroke="black" stroke-width="0.0808907"/>
<path d="M16.1096 2.20063V0.990143L1.03906 16.0607H2.31007L16.1096 2.20063Z" fill="#C5C5C5" stroke="black" stroke-width="0.0808907"/>
<path d="M16.0781 2.20063V0.990143L31.1487 16.0909H29.8777L16.0781 2.20063Z" fill="#ABABAB" stroke="black" stroke-width="0.0808907"/>
<path d="M16.1096 29.9209V31.1314L1.03906 16.0306H2.31007L16.1096 29.9209Z" fill="#4D4D4D" stroke="black" stroke-width="0.0808907"/>
<path d="M3.85039 2.50262H13.5645L14.1698 3.10787V4.9236L13.6856 5.49858H12.6264V14.547L21.7656 5.49858H20.2525L19.7077 4.9236V3.01708L20.1919 2.56315H30.0271L30.5113 3.04734V4.83281L8.29893 27.711H5.75691L5.03062 27.2873V5.40779H3.78987L3.33594 4.95386V3.04734L3.85039 2.50262Z" stroke="black" stroke-width="1.61803"/>
<path d="M16.0781 29.9209V31.1314L31.1487 16.0306H29.8777L16.0781 29.9209Z" fill="#373737" stroke="black" stroke-width="0.0808907"/>
<path d="M16.0764 0.868805L0.945312 16.0301L16.0159 31.1309L31.1469 15.9696L16.0764 0.868805Z" stroke="black" stroke-width="0.485405"/>
<path d="M13.6553 3.44075L14.2 3.13813L13.6553 2.59341H3.85039L3.33594 3.07761V4.95386L3.88066 5.49858L4.15302 4.95386L3.82013 4.62098V3.28944L4.09249 3.04735H13.4435L13.6553 3.44075Z" fill="#FEFEFE" stroke="black" stroke-width="0.0808907"/>
<path d="M20.5875 3.01712L20.2546 3.35V4.62101L20.5572 4.92363H22.1611V6.16438L11.5693 16.9074V4.9539H13.3246L13.6877 4.59075V3.28948L13.3548 3.04738H4.06434L3.76172 3.35V4.65128L4.06434 4.9539H5.66823V26.9847L5.97085 27.2874H7.81684L30.0292 4.34865V3.35L29.6964 3.01712H20.5875Z" stroke="black" stroke-width="0.0808907"/>
<path d="M5.66873 4.92416V27.0155L5.94109 27.3484L5.72925 27.7721L5.09375 27.1366V5.49914L5.66873 4.92416Z" fill="#FEFEFE" stroke="black" stroke-width="0.0808907"/>
<path d="M4.09272 4.92416L3.94141 5.46888H5.12163L5.7874 4.92416H4.09272Z" fill="#808080" stroke="black" stroke-width="0.0808907"/>
<path d="M20.3766 5.52941L20.649 4.98469L20.2858 4.65181V3.47159L20.7095 3.04792H29.7579L30.0907 3.50185L30.5749 3.16897L30.0605 2.65451H20.3463L19.8621 3.1387V5.04522L20.3766 5.52941ZM12.5084 14.6081L11.5703 16.908L22.2226 6.19518V4.92417L12.5084 14.6081Z" fill="#FEFEFE"/>
<path d="M20.3766 5.52941L20.649 4.98469L20.2858 4.65181V3.47159L20.7095 3.04792H29.7579L30.0907 3.50185L30.5749 3.16897L30.0605 2.65451H20.3463L19.8621 3.1387V5.04522L20.3766 5.52941ZM12.5084 14.6081L11.5703 16.908L22.2226 6.19518V4.92417L12.5084 14.6081Z" stroke="black" stroke-width="0.0808907"/>
<path d="M13.6281 3.38087L14.1123 3.07825V4.92424L13.5676 5.46896H12.5084V14.6384L11.5703 16.908V4.92424H13.3255L13.6584 4.65188V3.38087H13.6281Z" fill="#808080" stroke="black" stroke-width="0.0808907"/>
<path d="M20.5875 3.01712L20.2546 3.35V4.62101L20.5572 4.92363H22.1611V6.16438L11.5693 16.9074V4.9539H13.3246L13.6877 4.59075V3.28948L13.3548 3.04738H4.06434L3.76172 3.35V4.65128L4.06434 4.9539H5.66823V26.9847L5.97085 27.2873H7.81684L30.0292 4.34865V3.35L29.6964 3.01712H20.5875Z" fill="#CCCCCC" stroke="black" stroke-width="0.0808907"/>
<path d="M30.0603 3.38073L30.5445 3.10837V4.89383L8.18076 27.772H5.82031L6.03215 27.3181H7.84787L30.03 4.37938L30.0603 3.38073Z" fill="#808080" stroke="black" stroke-width="0.0808907"/>
<path d="M22.1595 4.95425L21.645 5.46871H20.3438L20.6464 4.95425C20.6766 4.95425 22.1595 4.95425 22.1595 4.95425Z" fill="#808080" stroke="black" stroke-width="0.0808907"/>
<path d="M16.8355 17.8455C16.8053 17.8455 16.8053 17.8455 16.775 17.8758L16.3513 18.2389L16.3211 18.2692L15.8974 19.4797C15.8974 19.5099 15.8974 19.5099 15.8974 19.5402C15.8974 19.5705 15.8974 19.5705 15.9277 19.6007L16.2605 19.9336C16.2908 19.9639 16.2908 19.9639 16.3211 19.9639H17.6526C17.6829 19.9639 17.7131 19.9639 17.7131 19.9336L18.046 19.5705L18.0763 19.5402L18.4394 18.2692C18.4394 18.2389 18.4394 18.2389 18.4394 18.2087C18.4394 18.1784 18.4394 18.1784 18.4092 18.1481L18.1368 17.8758C18.1065 17.8455 18.1065 17.8455 18.0763 17.8455H16.8355ZM14.4146 21.2651C14.3843 21.2651 14.3843 21.2651 14.354 21.2954C14.354 21.2954 14.3238 21.3257 14.3238 21.3559L14.1725 22.0217V22.052C14.1725 22.052 14.1725 22.0822 14.2027 22.0822L14.233 22.1125H14.2632H15.0501L13.1133 27.6505C13.1133 27.6505 13.1133 27.6807 13.1133 27.711C13.1133 27.7412 13.1133 27.7412 13.1435 27.7412L13.1738 27.7715H13.2041H16.0184C16.0487 27.7715 16.0487 27.7715 16.079 27.7412C16.1092 27.7412 16.1092 27.711 16.1092 27.6807L16.2908 27.0755C16.2908 27.0755 16.2908 27.0452 16.2908 27.0149C16.2908 26.9847 16.2908 26.9847 16.2605 26.9847L16.2303 26.9544H16.2H15.5645L17.471 21.3559C17.471 21.3559 17.471 21.3257 17.471 21.2954C17.471 21.2651 17.471 21.2651 17.4408 21.2651L17.4105 21.2349H17.3802H14.4146C14.4146 21.2651 14.4146 21.2651 14.4146 21.2651ZM23.3721 21.2651C23.3419 21.2651 23.3419 21.2954 23.3116 21.2954L22.7366 21.9612H21.7985L21.163 21.3257L21.1327 21.2954H21.1025H18.8631C18.8328 21.2954 18.8328 21.2954 18.8026 21.3257C18.7723 21.3257 18.7723 21.3559 18.7723 21.3862L18.5605 21.9914C18.5605 21.9914 18.5605 22.0217 18.5605 22.052C18.5605 22.0822 18.5605 22.0822 18.5907 22.0822L18.621 22.1125H18.6513H19.2565L17.4105 27.5899C17.4105 27.5899 17.4105 27.6202 17.4105 27.6505C17.4105 27.6807 17.4105 27.6807 17.4408 27.6807L17.471 27.711H17.5013H19.8617C19.892 27.711 19.892 27.711 19.9223 27.6807C19.9525 27.6807 19.9525 27.6505 19.9525 27.6202L20.1341 27.0755C20.1341 27.0755 20.1341 27.0452 20.1341 27.0149C20.1341 26.9847 20.1341 26.9847 20.1038 26.9847L20.0736 26.9544H20.0433H19.6196L20.8301 23.2624H22.9787L21.6169 27.5899C21.6169 27.5899 21.6169 27.6202 21.6169 27.6505C21.6169 27.6807 21.6169 27.6807 21.6472 27.6807L21.6775 27.711H21.7077H24.0076C24.0379 27.711 24.0379 27.711 24.0682 27.6807C24.0984 27.6807 24.0984 27.6505 24.0984 27.6505L24.3103 27.1663C24.3103 27.1663 24.3103 27.136 24.3103 27.1057C24.3103 27.0755 24.3103 27.0755 24.28 27.0755L24.2497 27.0452C24.2497 27.0452 24.2195 27.0452 24.1892 27.0452H23.7656L24.976 23.2624H27.0036L25.6418 27.6202C25.6418 27.6202 25.6418 27.6505 25.6418 27.6807C25.6418 27.711 25.6418 27.711 25.6721 27.711L25.7023 27.7412H25.7326H28.2443C28.2746 27.7412 28.2746 27.7412 28.3049 27.711C28.3351 27.711 28.3351 27.6807 28.3351 27.6505L28.547 27.1057C28.547 27.1057 28.547 27.0755 28.547 27.0452C28.547 27.0149 28.547 27.0149 28.5167 27.0149L28.4864 26.9847C28.4864 26.9847 28.4562 26.9847 28.4259 26.9847H27.9417L29.4548 22.052C29.4548 22.0217 29.4548 22.0217 29.4548 21.9914C29.4548 21.9612 29.4548 21.9612 29.4246 21.9612L28.9404 21.3257L28.9101 21.2954H28.8799H27.0944H27.0641C27.0641 21.2954 27.0339 21.2954 27.0339 21.3257L26.4589 21.9612H25.4602L24.8852 21.3257L24.855 21.2954H24.8247H23.3721C23.3721 21.2651 23.3721 21.2651 23.3721 21.2651Z" fill="#CCCCCC" stroke="black" stroke-width="0.647216" stroke-miterlimit="10"/>
<path d="M16.8648 17.9664L16.4412 18.3295L16.0175 19.54L16.3504 19.8729H17.6819L18.0148 19.5098L18.3779 18.2388L18.1056 17.9664H16.8648ZM14.4136 21.3558L14.2623 22.0215H15.1702L13.2031 27.6805H16.0175L16.1991 27.0753H15.4123L17.3793 21.3558H14.4136ZM23.3712 21.386L22.766 22.082H21.737L21.0713 21.4163H18.8319L18.62 22.0215H19.4069L17.5003 27.62H19.8608L20.0424 27.0753H19.4976L20.7384 23.1412H23.0988L21.7068 27.5898H24.0067L24.2185 27.1056H23.6436L24.9146 23.111H27.154L25.7619 27.62H28.2737L28.4855 27.0753H27.85L29.3934 22.0215L28.9092 21.386H27.1237L26.5185 22.0518H25.4593L24.854 21.386H23.3712Z" fill="#CCCCCC" stroke="black" stroke-width="0.0808907" stroke-miterlimit="10"/>
</g>
<defs>
<clipPath id="clip0_1153_20856">
<rect width="31.17" height="31.4726" fill="white" transform="translate(0.339844 0.263702)"/>
</clipPath>
</defs>
</svg>
