<svg width="42" height="42" viewBox="0 0 42 42" fill="none" xmlns="http://www.w3.org/2000/svg">
<g clip-path="url(#clip0_1153_20389)">
<path d="M7.32935 0.699066H34.0937C38.1539 0.699066 41.4269 3.9721 41.4269 8.03232V33.7609C41.4269 37.8211 38.1539 41.0941 34.0937 41.0941H7.32935C3.26913 41.0941 -0.00390625 37.8211 -0.00390625 33.7609V8.03232C-0.00390625 3.9721 3.26913 0.699066 7.32935 0.699066Z" fill="white"/>
<path d="M16.6494 24.8523H10.2276L8.90183 28.9125C8.8604 29.0783 8.73611 29.1611 8.57038 29.1611H5.33878C5.13162 29.1611 5.09019 29.0783 5.13162 28.8297L10.6834 12.8788C10.7248 12.7131 10.7662 12.5474 10.8491 12.3402C10.9319 11.9673 10.9319 11.5945 10.9319 11.2216C10.9319 11.1387 10.9734 11.0559 11.0562 11.0144H11.1805H15.6136C15.7379 11.0144 15.8208 11.0559 15.8208 11.1387L22.1183 28.7468C22.1597 28.954 22.1183 29.0368 21.9525 29.0368H18.3481C18.2238 29.0368 18.0995 28.954 18.058 28.8297L16.6494 24.6866V24.8523ZM11.222 21.4136H15.6136C15.5308 21.0407 15.365 20.6264 15.1993 20.1706C15.0336 19.7149 14.8679 19.2177 14.7436 18.6791C14.5778 18.1405 14.4121 17.6434 14.2464 17.1048C14.0807 16.5662 13.915 16.069 13.7907 15.5718C13.6664 15.0747 13.5421 14.6603 13.4178 14.246H13.3764C13.2106 14.9918 13.0449 15.7375 12.7963 16.4833C12.5477 17.3119 12.2992 18.182 12.0091 19.052C11.7606 19.8806 11.4705 20.7092 11.222 21.4136Z" fill="#1E1E1E"/>
<path d="M32.2744 23.3204H26.8055C26.8883 23.859 27.0541 24.3976 27.3441 24.8533C27.6755 25.3091 28.0898 25.682 28.587 25.8891C29.2913 26.1791 30.0371 26.3448 30.7828 26.3034C31.4043 26.3034 31.9843 26.2206 32.5644 26.0963C33.103 26.0134 33.6001 25.8891 34.0973 25.682C34.1802 25.5991 34.2216 25.6405 34.2216 25.8062V28.4578C34.2216 28.5407 34.2216 28.5821 34.1802 28.665C34.1387 28.7064 34.0973 28.7478 34.0559 28.7893C33.5173 29.0378 32.9372 29.2036 32.3158 29.2864C31.4872 29.4522 30.7 29.4936 29.8714 29.4936C28.5456 29.4936 27.4684 29.2864 26.5569 28.8721C25.7283 28.4992 24.9825 27.9606 24.4025 27.2149C23.8639 26.552 23.4496 25.7648 23.201 24.9362C22.9524 24.1076 22.8281 23.279 22.8281 22.4089C22.8281 21.4974 22.9524 20.5445 23.2424 19.6745C23.5324 18.8044 23.9468 18.0173 24.5268 17.3129C25.1068 16.6086 25.8111 16.07 26.5983 15.6557C27.4269 15.2414 28.3799 15.1171 29.4985 15.1171C30.41 15.1171 31.3214 15.2828 32.1915 15.6557C32.8958 15.9871 33.5173 16.4429 34.0144 17.0229C34.4702 17.6029 34.8431 18.2658 35.0502 19.0116C35.2574 19.7159 35.3817 20.4202 35.3817 21.1246C35.3817 21.5389 35.3817 21.9117 35.3402 22.2432C35.2988 22.5746 35.2988 22.8232 35.2574 22.9889C35.2574 23.1132 35.1331 23.1961 35.0088 23.1961C34.9259 23.1961 34.7188 23.1961 34.4288 23.2375C34.1387 23.279 33.8073 23.279 33.4344 23.279C33.1444 23.3618 32.7301 23.3204 32.2744 23.3204ZM26.8055 20.7931H30.4514C30.9071 20.7931 31.2386 20.7931 31.4457 20.7931C31.57 20.7931 31.7358 20.7517 31.86 20.6688V20.5031C31.86 20.2959 31.8186 20.0888 31.7772 19.8816C31.4457 18.9287 30.5343 18.2658 29.5399 18.3073C28.587 18.2658 27.6755 18.763 27.2612 19.6331C26.9712 19.9645 26.8469 20.3788 26.8055 20.7931Z" fill="#1E1E1E"/>
</g>
<defs>
<clipPath id="clip0_1153_20389">
<rect width="41.4308" height="41.4308" fill="white" transform="translate(0 0.284607)"/>
</clipPath>
</defs>
</svg>
