<svg width="42" height="42" viewBox="0 0 42 42" fill="none" xmlns="http://www.w3.org/2000/svg">
<g clip-path="url(#clip0_1153_20393)">
<path d="M7.76294 0.699066H34.5272C38.5875 0.699066 41.8605 3.9721 41.8605 8.03232V33.7609C41.8605 37.8211 38.5875 41.0941 34.5272 41.0941H7.76294C3.70272 41.0941 0.429688 37.8211 0.429688 33.7609V8.03232C0.429688 3.9721 3.70272 0.699066 7.76294 0.699066Z" fill="white"/>
<path d="M20.5205 24.9352H14.0987L12.7729 28.9954C12.7315 29.1611 12.6072 29.244 12.4415 29.244H9.20987C9.00272 29.244 8.96129 29.1611 9.00272 28.9125L14.5544 12.9203C14.5959 12.7545 14.6373 12.5474 14.7202 12.3402C14.803 11.9673 14.803 11.5945 14.803 11.2216C14.803 11.1387 14.8445 11.0559 14.9273 11.0144H14.9688H19.4019C19.5261 11.0144 19.609 11.0559 19.609 11.1387L25.9065 28.9125C25.9479 29.1197 25.9065 29.2026 25.7408 29.2026H22.1363C22.012 29.2026 21.8877 29.1197 21.8463 28.9954L20.5205 24.9352ZM15.093 21.4136H19.4847C19.4019 21.0407 19.2361 20.6264 19.0704 20.1706C18.9047 19.7149 18.739 19.2177 18.6147 18.6791C18.4489 18.1405 18.2832 17.6434 18.1175 17.1048C17.9518 16.5662 17.786 16.069 17.6618 15.5718C17.5375 15.0747 17.4132 14.6603 17.2889 14.246H17.2474C17.0817 14.9918 16.916 15.7375 16.6674 16.4833C16.4188 17.3119 16.1702 18.182 15.8802 19.052C15.5902 19.8806 15.3416 20.7092 15.093 21.4136Z" fill="#262626"/>
<path d="M29.7627 13.9977C29.1827 13.9977 28.6441 13.7906 28.2298 13.3763C27.8155 12.962 27.6083 12.3819 27.6497 11.8019C27.6497 11.2219 27.8569 10.6418 28.2712 10.269C28.6855 9.85465 29.2241 9.64749 29.8041 9.64749C30.467 9.64749 31.0056 9.85465 31.3785 10.269C31.7514 10.6833 31.9585 11.2219 31.9585 11.8019C31.9585 12.3819 31.7514 12.962 31.3371 13.3763C30.9228 13.7906 30.3427 14.0392 29.7627 13.9977ZM27.8155 28.9542V15.6964C27.8155 15.5307 27.8983 15.4478 28.0226 15.4478H31.4199C31.5857 15.4478 31.6271 15.5307 31.6271 15.6964V28.9957C31.6271 29.2028 31.5442 29.2857 31.4199 29.2857H28.0226C27.8983 29.2443 27.8155 29.1614 27.8155 28.9542Z" fill="#262626"/>
</g>
<defs>
<clipPath id="clip0_1153_20393">
<rect width="41.4308" height="41.4308" fill="white" transform="translate(0.429688 0.284607)"/>
</clipPath>
</defs>
</svg>
