<svg width="36" height="30" viewBox="0 0 36 30" fill="none" xmlns="http://www.w3.org/2000/svg">
<path d="M35.8014 16.6277C35.595 15.1752 35.0919 13.7977 34.3057 12.534C33.62 11.4311 32.7402 10.4502 31.69 9.61653L31.6929 9.61392L20.6636 1.14282C20.6557 1.13582 20.6474 1.12922 20.6388 1.12306C20.2721 0.842157 19.7756 0.687592 19.2413 0.687592C18.7064 0.687592 18.1905 0.842502 17.7894 1.12396C17.3582 1.42517 17.1118 1.82484 17.0946 2.25025C17.0788 2.64717 17.2681 3.02907 17.6291 3.32678C18.3389 3.88686 19.0472 4.45913 19.7564 5.03209C20.4447 5.58839 21.1539 6.16128 21.8596 6.71903L8.35061 6.70987C6.80571 6.70987 5.75377 7.43533 5.53737 8.64989C5.44229 9.18189 5.61008 9.76683 5.98517 10.2148C6.38311 10.6897 6.96089 10.9517 7.612 10.9517L8.64184 10.9524C10.0645 10.9524 11.4935 10.9489 12.9205 10.9455L14.2814 10.9423L2.02078 20.013L1.9721 20.0486C1.28726 20.5735 0.83892 21.3094 0.742187 22.0675C0.668863 22.6418 0.802843 23.1667 1.12981 23.5858C1.51949 24.0855 2.12791 24.3604 2.84311 24.3604C3.54571 24.3604 4.26264 24.0941 4.86272 23.6094L11.4836 18.191C11.4553 18.4556 11.421 18.8437 11.4249 19.1255C11.4324 19.5715 11.5756 20.4666 11.8023 21.1932C12.2707 22.6865 13.0598 24.0528 14.1475 25.2527C15.2792 26.5011 16.6576 27.4909 18.244 28.1941C19.9211 28.9359 21.7241 29.3124 23.6029 29.3124H23.6203C25.5051 29.3079 27.3138 28.9253 28.9964 28.1751C30.5854 27.4636 31.9632 26.4698 33.0906 25.2216C34.1769 24.0156 34.9649 22.647 35.4324 21.1549C35.6637 20.4163 35.8119 19.6542 35.8742 18.8827C35.9319 18.1371 35.9071 17.3783 35.8014 16.6277ZM23.7403 23.7852C19.5996 23.7852 16.2419 20.7815 16.2419 17.076C16.2419 13.371 19.5997 10.3673 23.7403 10.3673C27.881 10.3673 31.2384 13.371 31.2384 17.076C31.2385 20.7815 27.881 23.7852 23.7403 23.7852ZM28.0644 16.4865C28.1255 17.5924 27.6838 18.6193 26.9081 19.3794C26.119 20.1539 24.993 20.6403 23.7339 20.6403C22.4754 20.6403 21.3492 20.1539 20.5599 19.3794C19.7845 18.6193 19.3436 17.5925 19.4044 16.4874C19.4638 15.4131 19.9879 14.4649 20.7771 13.7935C21.5533 13.1333 22.5954 12.7305 23.7339 12.7305C24.8724 12.7305 25.9143 13.1334 26.6905 13.7935C27.4802 14.4649 28.0043 15.4124 28.0644 16.4865Z" fill="#EFEFEF"/>
</svg>
