<svg width="39" height="38" viewBox="0 0 39 38" fill="none" xmlns="http://www.w3.org/2000/svg">
<path d="M19.5883 1.81027C10.1034 1.81027 2.39844 9.51528 2.39844 19.0001C2.39844 28.4849 10.1034 36.1899 19.5883 36.1899C29.0731 36.1899 36.7781 28.4849 36.7781 19.0001C36.7781 9.51528 29.0731 1.81027 19.5883 1.81027ZM19.5883 3.30504C28.2653 3.30504 35.2833 10.3231 35.2833 19.0001C35.2833 27.6771 28.2653 34.6952 19.5883 34.6952C10.9113 34.6952 3.89321 27.6771 3.89321 19.0001C3.89321 10.3231 10.9113 3.30504 19.5883 3.30504ZM19.5883 6.29458C16.7034 6.29458 14.3566 8.51299 14.3566 11.2387C14.3566 13.8889 16.8113 16.8952 19.108 18.8249C19.247 18.9415 19.4171 18.9986 19.5883 18.9986C19.7594 18.9986 19.9303 18.9408 20.0685 18.8235C22.3652 16.8937 24.82 13.8889 24.82 11.2387C24.82 8.51374 22.4724 6.29532 19.5883 6.29458ZM12.4356 19.0059C11.2652 19.0364 10.1768 19.2596 9.30736 19.7563C8.19451 20.3915 7.39651 21.441 7.05645 22.7078C6.69546 24.0531 6.90231 25.5348 7.62429 26.7732C8.62429 28.4892 10.4112 29.462 12.2049 29.462C13.0218 29.462 13.8406 29.2603 14.5872 28.8343C16.9086 27.5062 18.3001 23.8727 18.8292 20.9138C18.8935 20.5558 18.6905 20.2022 18.3475 20.0789C16.5669 19.4389 14.3862 18.9552 12.4356 19.0059ZM26.7424 19.0059C24.792 18.9552 22.6116 19.4389 20.8305 20.0789C20.4875 20.2022 20.2831 20.5558 20.3473 20.9138C20.8757 23.8727 22.2679 27.5077 24.5893 28.8343C25.3352 29.2603 26.154 29.462 26.9716 29.462C28.7646 29.462 30.5515 28.4899 31.5537 26.7732C32.2757 25.5348 32.4818 24.0539 32.1216 22.7078C31.7822 21.4403 30.982 20.3923 29.8692 19.7563C28.9998 19.2596 27.9127 19.0364 26.7424 19.0059Z" fill="#EFEFEF"/>
</svg>
