<svg width="42" height="42" viewBox="0 0 42 42" fill="none" xmlns="http://www.w3.org/2000/svg">
<g clip-path="url(#clip0_1153_20401)">
<path d="M14.0908 41.7149C17.9025 41.7149 21.0098 38.6076 21.0098 34.7959V27.9184H14.0908C10.2792 27.9184 7.17188 31.0257 7.17188 34.8374C7.17188 38.649 10.2792 41.7149 14.0908 41.7149Z" fill="#8C8C8C"/>
<path d="M7.21094 21.0001C7.21094 17.1884 10.3182 14.0811 14.1299 14.0811H21.0074V27.8776H14.0885C10.2768 27.919 7.21094 24.8117 7.21094 21.0001Z" fill="#818181"/>
<path d="M7.21094 7.20337C7.21094 3.39173 10.2768 0.284424 14.0885 0.284424H21.0074V14.0809H14.0885C10.2768 14.0809 7.21094 11.015 7.21094 7.20337Z" fill="#7A7A7A"/>
<path d="M21.0078 0.284424H27.9268C31.7384 0.284424 34.8457 3.39174 34.8457 7.20337C34.8457 11.015 31.7384 14.1223 27.9268 14.1223H21.0078V0.284424Z" fill="#9B9B9B"/>
<path d="M34.8043 21.0001C34.8043 24.8117 31.697 27.919 27.8853 27.919C24.0737 27.919 21.0078 24.8117 21.0078 21.0001C21.0078 17.1884 24.1151 14.0811 27.9268 14.0811C31.7384 14.0811 34.8043 17.1884 34.8043 21.0001Z" fill="#939393"/>
</g>
<defs>
<clipPath id="clip0_1153_20401">
<rect width="41.4308" height="41.4308" fill="white" transform="translate(0.292969 0.284607)"/>
</clipPath>
</defs>
</svg>
