<svg width="51" height="50" viewBox="0 0 51 50" fill="none" xmlns="http://www.w3.org/2000/svg">
<g style="mix-blend-mode:luminosity">
<path fill-rule="evenodd" clip-rule="evenodd" d="M6.96875 36.4474L6.96979 20.8318L9.05313 16.6651L13.2198 14.5818H18.4281L20.5115 15.6234L24.6781 14.5818H29.8865L31.9698 15.6234L36.1365 14.5818H41.3448L44.4698 17.7068V36.4474C44.4698 41.0526 40.7313 44.7922 36.125 44.7922H15.3135C10.7083 44.7922 6.96875 41.0536 6.96875 36.4474Z" fill="#010F16"/>
<path fill-rule="evenodd" clip-rule="evenodd" d="M25.724 25.0014C25.0229 25.0014 24.3354 23.9889 23.6604 24.0431L23.6406 23.9598L25.724 22.9181H31.8125L31.6177 24.6712C29.8156 24.2139 27.8208 25.0014 25.724 25.0014Z" fill="#FF6F43"/>
<path fill-rule="evenodd" clip-rule="evenodd" d="M30.2891 24.3795L31.1307 22.9181H42.3849V23.3941L38.213 27.9952C34.9568 28.1629 32.6786 26.2004 30.2891 24.3795Z" fill="#F44236"/>
<path fill-rule="evenodd" clip-rule="evenodd" d="M38.5932 32.2931C38.5932 29.9775 38.6484 27.8816 35.9766 26.3723L41.9589 22.9181H42.388V32.6139L40.2016 33.2879C40.2682 32.9608 38.5932 32.6285 38.5932 32.2931Z" fill="#E91E62"/>
<path fill-rule="evenodd" clip-rule="evenodd" d="M40.081 41.3054L33.1445 39.4648C36.0143 36.8773 38.9227 34.2356 40.3018 32.2929H42.3852V36.4595C42.3852 38.4137 41.4862 40.1595 40.081 41.3054Z" fill="#AA47BC"/>
<path fill-rule="evenodd" clip-rule="evenodd" d="M30.3516 42.7079L27.7401 40.6027L27.7266 40.5475C30.0484 38.7965 33.2266 38.484 35.9766 38.2152L40.5682 40.8652C39.4359 42.0038 37.8682 42.7079 36.138 42.7079H30.3516Z" fill="#7C4DFF"/>
<path fill-rule="evenodd" clip-rule="evenodd" d="M24.8865 42.7089L24.0312 40.5714C24.5854 40.6079 25.1479 39.8006 25.7198 39.8006C27.3156 39.8006 28.8521 40.4797 30.2906 40.2079L31.7333 42.7089H24.8865Z" fill="#1E89E5"/>
<path fill-rule="evenodd" clip-rule="evenodd" d="M19.8216 24.6712L19.6289 22.9181H25.7195L25.7185 23.9598C23.7299 24.7358 21.7768 25.2858 19.8216 24.6712Z" fill="#FFA926"/>
<path fill-rule="evenodd" clip-rule="evenodd" d="M13.2216 27.9973L9.05078 23.3962V22.9181H20.3018L21.1435 24.3795C18.8956 25.6723 16.9841 27.516 13.2216 27.9973Z" fill="#FDD935"/>
<path fill-rule="evenodd" clip-rule="evenodd" d="M11.2383 33.2889L9.05078 32.615V22.9181H9.47891L15.4612 26.3723C12.7904 27.8837 13.1143 29.9795 13.1143 32.2931C13.1133 32.6306 11.1706 32.9618 11.2383 33.2889Z" fill="#FFEA00"/>
<path fill-rule="evenodd" clip-rule="evenodd" d="M9.05182 36.4595L9.05078 32.2929H11.1352C12.0258 34.6252 16.3174 36.146 18.2893 39.4648L11.3549 41.3054C9.9487 40.1595 9.05182 38.4137 9.05182 36.4595Z" fill="#B1FF59"/>
<path fill-rule="evenodd" clip-rule="evenodd" d="M10.8711 40.8652L15.4617 38.2152C18.1409 38.6038 21.6294 38.3829 23.7117 40.5486L23.6992 40.6038L21.0867 42.709H15.3044C13.5711 42.71 12.0023 42.0038 10.8711 40.8652Z" fill="#66DD17"/>
<path fill-rule="evenodd" clip-rule="evenodd" d="M19.7031 42.7074L21.1458 40.2064C22.7802 39.6616 24.374 39.5658 25.7156 40.6241L25.7167 42.7074H19.7031Z" fill="#00ACC1"/>
<path fill-rule="evenodd" clip-rule="evenodd" d="M25.7214 28.4369C25.2828 28.4369 24.8516 27.1036 24.4297 27.1358L25.7214 23.9608C27.3172 23.9608 28.8547 24.1077 30.2932 24.3806L31.4068 26.564L30.2453 27.7338C28.9047 27.3202 27.3609 28.4369 25.7214 28.4369Z" fill="#FF8965"/>
<path fill-rule="evenodd" clip-rule="evenodd" d="M28.5859 27.3327L30.2911 24.3785C32.4536 24.7869 34.3922 25.4754 35.9745 26.3702L37.3234 28.9785L34.0578 29.9119C31.8807 30.016 30.0214 28.9452 28.5859 27.3327Z" fill="#FF5252"/>
<path fill-rule="evenodd" clip-rule="evenodd" d="M35.7812 34.6434L34.3615 34.3132C34.8333 33.6913 33.3771 33.008 33.3771 32.2913C33.3771 30.8195 33.9906 29.4872 32.2188 28.5403L35.976 26.3705C38.6479 27.8799 40.3042 29.9757 40.3042 32.2913L35.7812 34.6434Z" fill="#F06291"/>
<path fill-rule="evenodd" clip-rule="evenodd" d="M35.9799 38.2158L32.5747 39.3127L30.1914 36.872C30.4258 34.3887 33.5654 33.3554 35.0966 32.2929H40.3049C40.3049 34.6085 38.6487 36.7043 35.9799 38.2158Z" fill="#B968C8"/>
<path fill-rule="evenodd" clip-rule="evenodd" d="M30.2987 40.2059L26.9727 37.4548C28.4112 36.3423 30.2987 35.9455 32.2174 36.0465L35.9758 38.2163C34.3945 39.109 32.457 39.7975 30.2987 40.2059Z" fill="#9575CD"/>
<path fill-rule="evenodd" clip-rule="evenodd" d="M25.724 40.6275L23.6406 39.5859L24.2531 37.44C24.7323 37.4817 25.3573 36.3869 25.8583 36.3869C26.8573 36.3869 27.5927 36.8202 28.5875 37.2546L30.2948 40.2088C28.8552 40.4817 27.3198 40.6275 25.724 40.6275Z" fill="#64B5F6"/>
<path fill-rule="evenodd" clip-rule="evenodd" d="M21.1906 27.7311L20.0312 26.5603L21.1396 24.378C22.5802 24.1061 24.1177 23.9582 25.7156 23.9572V27.0832C24.4302 27.9561 23.0677 28.6311 21.1906 27.7311Z" fill="#FFB84D"/>
<path fill-rule="evenodd" clip-rule="evenodd" d="M17.3784 29.9119L15.4648 26.3692C17.0451 25.4765 18.9846 24.7858 21.144 24.3785L22.8492 27.3337C21.2607 28.3692 19.5711 29.5202 17.3784 29.9119Z" fill="#FFEC3B"/>
<path fill-rule="evenodd" clip-rule="evenodd" d="M15.6604 34.6445L11.2437 33.2872C11.176 32.9611 11.1406 32.6288 11.1406 32.2913C11.1406 29.9778 12.7948 27.882 15.4656 26.3705L19.2229 28.5403C17.451 29.4893 18.026 30.8195 18.026 32.2913C18.026 33.008 16.6094 33.6913 17.0813 34.3122L15.6604 34.6445Z" fill="#FFEF58"/>
<path fill-rule="evenodd" clip-rule="evenodd" d="M11.1406 32.2929H16.349C18.9562 33.7345 20.1375 35.6189 21.2521 36.872L15.4698 38.2179C12.7969 36.7064 11.1406 34.6106 11.1406 32.2929Z" fill="#CDFF90"/>
<path fill-rule="evenodd" clip-rule="evenodd" d="M15.4648 38.2122L19.2232 36.0424C21.0701 36.2018 23.3523 36.0976 24.4659 37.4518L21.1503 40.2049C18.9888 39.7987 17.0482 39.107 15.4648 38.2122Z" fill="#78FF03"/>
<path fill-rule="evenodd" clip-rule="evenodd" d="M21.1445 40.2064L22.8497 37.2522C23.8987 36.7033 24.8789 36.7022 25.7133 37.4991V40.6241C24.1185 40.6252 22.582 40.4793 21.1445 40.2064Z" fill="#4DD1E1"/>
<path fill-rule="evenodd" clip-rule="evenodd" d="M25.719 30.9901C25.543 30.9901 25.3701 30.2162 25.1992 30.2276L25.719 27.086C26.719 27.086 27.6815 27.1735 28.5857 27.3349L27.5701 30.4297C27.0117 30.2901 26.3826 30.9901 25.719 30.9901Z" fill="#FFAB91"/>
<path fill-rule="evenodd" clip-rule="evenodd" d="M26.875 30.2904L28.5844 27.332C29.9646 27.5789 31.2062 27.9987 32.226 28.5445L29.3375 31.2602C28.1323 31.4518 27.2958 31.0549 26.875 30.2904Z" fill="#FF8B80"/>
<path fill-rule="evenodd" clip-rule="evenodd" d="M35.0943 32.2911L29.4932 33.1755C29.7443 32.9057 29.3401 32.6078 29.3401 32.2911C29.3401 31.663 29.3276 31.0994 28.4453 30.7172L32.2172 28.539C33.9901 29.4869 35.0943 30.8182 35.0943 32.2911Z" fill="#F48FB0"/>
<path fill-rule="evenodd" clip-rule="evenodd" d="M32.2104 36.0502L27.5469 34.1668C27.625 32.3429 29.4792 32.6533 29.8854 32.2929H35.0937C35.0937 33.7689 33.9865 35.1023 32.2104 36.0502Z" fill="#CD93D8"/>
<path fill-rule="evenodd" clip-rule="evenodd" d="M26.7779 36.599L26.2227 34.3615C26.7049 33.6146 27.5352 33.5584 28.4466 33.8688L32.2185 36.0469C31.2018 36.5896 29.9654 37.0084 28.5904 37.2521C28.0695 37.3448 27.3341 36.5573 26.7779 36.599Z" fill="#B49DDB"/>
<path fill-rule="evenodd" clip-rule="evenodd" d="M25.7206 37.5021L25.1289 34.3573C25.3216 34.3698 25.5706 33.9489 25.7716 33.9489C26.1716 33.9489 26.5091 34.3489 26.8758 34.2958L28.5841 37.2542C27.681 37.4156 26.7185 37.5021 25.7206 37.5021Z" fill="#90CAF9"/>
<path fill-rule="evenodd" clip-rule="evenodd" d="M23.8648 30.4276L22.7773 28.861L22.8534 27.3328C23.7565 27.1735 24.7169 27.086 25.7159 27.086V30.211C25.2971 30.6183 24.8003 30.9141 23.8648 30.4276Z" fill="#FFCC80"/>
<path fill-rule="evenodd" clip-rule="evenodd" d="M22.1021 31.2618L19.2188 28.5441C20.2354 27.9993 21.474 27.5816 22.8521 27.3357L24.5604 30.293C24.0156 30.9201 23.2719 31.4003 22.1021 31.2618Z" fill="#FFF276"/>
<path fill-rule="evenodd" clip-rule="evenodd" d="M16.3438 32.2938C16.3438 30.8219 17.4448 29.4906 19.2177 28.5427L22.9885 30.7208C22.1094 31.1031 22.3604 31.6667 22.3604 32.2948C22.3604 32.6115 21.6927 32.9104 21.9427 33.1781L17.076 34.3156C16.6031 33.6938 16.3438 33.0104 16.3438 32.2938Z" fill="#FFF59D"/>
<path fill-rule="evenodd" clip-rule="evenodd" d="M16.3438 32.2929H21.5521C23.2823 32.9981 23.4271 33.7637 23.8885 34.1648L19.2146 36.0439C17.4448 35.095 16.3438 33.7658 16.3438 32.2929Z" fill="#DCFFB1"/>
<path fill-rule="evenodd" clip-rule="evenodd" d="M19.2188 36.0458L22.9906 33.8676C24.1792 33.6312 24.724 34.2624 25.174 34.6551L22.874 37.2562C21.4885 37.0124 20.2427 36.5937 19.2188 36.0458Z" fill="#B9FF81"/>
<path fill-rule="evenodd" clip-rule="evenodd" d="M22.8516 37.2514L24.5599 34.2931C25.0255 33.9816 25.4182 33.9858 25.7151 34.3733V37.4983C24.7172 37.4993 23.7547 37.4129 22.8516 37.2514Z" fill="#80DEEA"/>
<path fill-rule="evenodd" clip-rule="evenodd" d="M25.7206 32.2944L25.5039 30.8653L25.7206 30.2111C26.1216 30.2111 26.5122 30.2403 26.8799 30.2944L26.7081 31.1569L25.7206 32.2944Z" fill="#FFCCBC"/>
<path fill-rule="evenodd" clip-rule="evenodd" d="M25.7188 32.2939L26.874 30.2929C27.4604 30.3773 27.9938 30.5252 28.4417 30.7189L27.5885 31.6981L25.7188 32.2939Z" fill="#FFCDD2"/>
<path fill-rule="evenodd" clip-rule="evenodd" d="M29.4927 33.1763L25.7188 32.2919L28.4448 30.718C29.3271 31.1003 29.8854 31.6638 29.8854 32.2919C29.8865 32.6086 29.7448 32.9065 29.4927 33.1763Z" fill="#F8BBD0"/>
<path fill-rule="evenodd" clip-rule="evenodd" d="M27.5469 34.1668L25.7188 32.2929H29.8854C29.8865 33.1158 28.9302 33.8283 27.5469 34.1668Z" fill="#E1BEE7"/>
<path fill-rule="evenodd" clip-rule="evenodd" d="M26.875 34.296L26.1906 33.6377L25.7188 32.2929L28.4438 33.8689C27.9948 34.0648 27.4615 34.2116 26.875 34.296Z" fill="#D1C4E9"/>
<path fill-rule="evenodd" clip-rule="evenodd" d="M25.7182 34.3762L25.4609 33.6356L25.7182 32.2929L26.8734 34.296C26.5068 34.3481 26.1182 34.3762 25.7182 34.3762Z" fill="#BBDEFB"/>
<path fill-rule="evenodd" clip-rule="evenodd" d="M25.7174 32.2923L24.6331 31.1048L24.5664 30.2913C24.932 30.2382 25.3174 30.2111 25.7164 30.2111L25.7174 32.2923Z" fill="#FFE0B2"/>
<path fill-rule="evenodd" clip-rule="evenodd" d="M25.7193 32.2939L23.587 31.6846L22.9922 30.721C23.4411 30.5262 23.9745 30.3783 24.5599 30.2929L25.7193 32.2939Z" fill="#FFF9C4"/>
<path fill-rule="evenodd" clip-rule="evenodd" d="M21.5547 32.2919C21.5547 31.6638 22.112 31.1003 22.9911 30.718L25.7193 32.2919L22.9484 32.7794L21.5547 32.2919Z" fill="#FFF9C4"/>
<path fill-rule="evenodd" clip-rule="evenodd" d="M21.5547 32.2929H25.7182L24.1755 33.5918L22.9891 33.8668C22.1099 33.4845 21.5547 32.92 21.5547 32.2929Z" fill="#E5FFC7"/>
<path fill-rule="evenodd" clip-rule="evenodd" d="M22.9922 33.8679L25.7182 32.2929L25.2974 33.9148C25.0755 33.9012 24.7734 34.3262 24.5641 34.295C23.9766 34.2106 23.4422 34.0637 22.9922 33.8679Z" fill="#E5FFC7"/>
<path fill-rule="evenodd" clip-rule="evenodd" d="M24.5586 34.296L25.7159 32.2929L25.7148 34.3762C25.3128 34.3773 24.9253 34.3491 24.5586 34.296Z" fill="#B2EBF2"/>
<path fill-rule="evenodd" clip-rule="evenodd" d="M12.1797 20.8361L18.4297 14.5861H24.6797L18.4297 20.8361H12.1797Z" fill="#EEEEEE"/>
<path fill-rule="evenodd" clip-rule="evenodd" d="M23.6406 20.8361L29.8906 14.5861H36.1406L29.8906 20.8361H23.6406Z" fill="#EEEEEE"/>
<path fill-rule="evenodd" clip-rule="evenodd" d="M35.0938 20.8361L41.3438 14.5861H44.4688V17.7111L41.3438 20.8361H35.0938Z" fill="#EEEEEE"/>
<path fill-rule="evenodd" clip-rule="evenodd" d="M6.96875 20.8361V14.5871L6.96979 14.5861H13.2198L6.96875 20.8361Z" fill="#EEEEEE"/>
<path fill-rule="evenodd" clip-rule="evenodd" d="M11.8982 8.23908L15.7576 8.47241L17.7242 7.22658L22.9325 6.65679L27.2169 7.21616L29.1825 5.97345L34.3909 5.40262L40.9909 7.76824L41.3419 10.8193L36.1336 11.3891L31.8471 10.8297L29.8836 12.0745L24.6753 12.6453L20.3919 12.086L18.4253 13.3287L13.2169 13.8995L9.97422 13.2255L8.83984 10.487C9.65964 9.5297 10.6992 8.75262 11.8982 8.23908Z" fill="#010F16"/>
<path fill-rule="evenodd" clip-rule="evenodd" d="M18.4286 13.3277L11.8984 8.2402C12.6568 7.91415 13.4807 7.69124 14.3484 7.59749L17.7276 7.22665L24.6786 12.6444L18.4286 13.3277Z" fill="#EEEEEE"/>
<path fill-rule="evenodd" clip-rule="evenodd" d="M29.8846 12.0723L22.9336 6.65562L29.1836 5.97229L36.1346 11.3879L29.8846 12.0723Z" fill="#EEEEEE"/>
<path fill-rule="evenodd" clip-rule="evenodd" d="M41.3456 10.8181L34.3945 5.4014L35.6914 5.25869C39.5737 4.83369 43.1383 7.07015 44.4706 10.4754L41.3456 10.8181Z" fill="#EEEEEE"/>
<path fill-rule="evenodd" clip-rule="evenodd" d="M8.83958 10.4877L13.2188 13.8992L6.96875 14.5836C7.19062 13.0523 7.85417 11.6398 8.83958 10.4877Z" fill="#EEEEEE"/>
</g>
</svg>
