<svg width="43" height="42" viewBox="0 0 43 42" fill="none" xmlns="http://www.w3.org/2000/svg">
<g clip-path="url(#clip0_1153_20397)">
<path d="M8.19654 0.699066H34.9608C39.0211 0.699066 42.2941 3.9721 42.2941 8.03232V33.7609C42.2941 37.8211 39.0211 41.0941 34.9608 41.0941H8.19654C4.13632 41.0941 0.863281 37.8211 0.863281 33.7609V8.03232C0.863281 3.9721 4.13632 0.699066 8.19654 0.699066Z" fill="white"/>
<path d="M10.1836 29.0377V11.2639C10.1836 11.1396 10.225 11.0567 10.3493 11.0567C10.6393 11.0567 10.9293 11.0567 11.3022 11.0567C11.7165 11.0567 12.1308 11.0567 12.628 11.0153C13.0838 11.0153 13.5809 11.0153 14.1195 10.9738C14.6581 10.9738 15.1553 10.9738 15.6939 10.9738C17.1025 10.9738 18.2626 11.1396 19.2569 11.5124C20.127 11.8025 20.9142 12.2996 21.5771 12.9211C22.1157 13.4597 22.5714 14.164 22.82 14.9098C23.0686 15.6555 23.2343 16.3599 23.2343 17.147C23.2343 18.6385 22.9029 19.84 22.1985 20.8344C21.4942 21.7873 20.5413 22.533 19.4227 22.9473C18.2626 23.3617 16.9368 23.5274 15.5282 23.5274C15.1139 23.5274 14.8238 23.5274 14.6581 23.5274C14.4924 23.5274 14.2438 23.5274 13.9124 23.5274V29.0791C13.9124 29.2034 13.8295 29.2863 13.7052 29.3277C13.7052 29.3277 13.6638 29.3277 13.6224 29.3277H10.3907C10.2665 29.2448 10.1836 29.2034 10.1836 29.0377ZM13.9538 14.4126V20.2129C14.2024 20.2129 14.4095 20.2543 14.6167 20.2543H15.5282C16.1911 20.2543 16.854 20.1715 17.5168 19.9229C18.0554 19.7572 18.5526 19.4257 18.9255 19.0114C19.2984 18.5971 19.4641 17.9757 19.4641 17.2299C19.4641 16.6913 19.3398 16.1527 19.0498 15.697C18.7598 15.2412 18.3455 14.9098 17.8483 14.7026C17.2268 14.454 16.5225 14.3297 15.8182 14.3712C15.3624 14.3712 14.9896 14.3712 14.6581 14.3712C14.3267 14.3712 14.0781 14.3712 13.9538 14.4126Z" fill="#262626"/>
<path d="M34.0053 19.1359C33.5081 18.8459 32.9281 18.6801 32.348 18.5559C31.7266 18.4316 31.0637 18.3487 30.4008 18.3487C30.0694 18.3487 29.6965 18.3901 29.365 18.473C29.1579 18.5144 28.9507 18.6387 28.8264 18.8044C28.7436 18.9287 28.7021 19.1359 28.7021 19.2602C28.7021 19.4259 28.785 19.5916 28.8679 19.7159C29.0336 19.9231 29.2407 20.0474 29.4479 20.1717C29.8622 20.3788 30.2765 20.586 30.6908 20.7517C31.6023 21.0831 32.5138 21.4974 33.3424 21.9946C33.9224 22.3675 34.3782 22.8232 34.7096 23.4447C34.9996 23.9833 35.1239 24.6048 35.1239 25.2262C35.1239 26.0548 34.9168 26.842 34.461 27.5049C33.9638 28.2092 33.301 28.7478 32.5138 29.0378C31.6852 29.4107 30.6494 29.5764 29.4065 29.5764C28.6193 29.5764 27.8321 29.4936 27.0449 29.3693C26.4234 29.2864 25.8434 29.0793 25.3048 28.8307C25.1805 28.7478 25.0977 28.6235 25.0977 28.4992V25.4748C25.0977 25.4334 25.0977 25.3505 25.1805 25.3091C25.2219 25.2676 25.2634 25.3091 25.3462 25.3091C26.0091 25.7234 26.7135 25.972 27.5006 26.1377C28.1635 26.3034 28.8264 26.3863 29.5308 26.3863C30.1936 26.3863 30.6494 26.3034 30.9808 26.1377C31.2708 26.0134 31.4366 25.7234 31.4366 25.3919C31.4366 25.1434 31.3123 24.9362 31.0223 24.6876C30.7322 24.4805 30.1936 24.1904 29.3236 23.859C28.4536 23.5276 27.6249 23.1132 26.8792 22.6161C26.3406 22.2432 25.8848 21.746 25.5534 21.166C25.2634 20.6274 25.1391 20.0059 25.1391 19.3845C25.1391 18.6387 25.3462 17.9344 25.7191 17.3129C26.1334 16.6086 26.7963 16.07 27.5421 15.7386C28.3707 15.3242 29.365 15.1171 30.608 15.1171C31.3123 15.1171 32.058 15.1585 32.7624 15.2828C33.2595 15.3657 33.7981 15.49 34.2539 15.6971C34.3367 15.6971 34.3782 15.78 34.4196 15.8629C34.4196 15.9457 34.461 15.9871 34.461 16.07V18.8873C34.461 18.9702 34.4196 19.0116 34.3782 19.053C34.171 19.1773 34.0881 19.1773 34.0053 19.1359Z" fill="#262626"/>
</g>
<defs>
<clipPath id="clip0_1153_20397">
<rect width="41.4308" height="41.4308" fill="white" transform="translate(0.863281 0.284607)"/>
</clipPath>
</defs>
</svg>
