<svg xmlns="http://www.w3.org/2000/svg" fill="none" viewBox="57.39 54.11 500 250">
<path d="M138.607 69.0411L89.5702 187.532C90.9301 188.204 92.29 188.875 93.6499 189.547L142.815 70.1114C141.594 69.8442 140.1 69.4426 138.607 69.0411Z" fill="#F95F4A"/>
<path d="M114.347 67.4714L71.2926 171.792C72.3859 173.004 73.3458 174.485 74.7111 175.831L119.627 67.0563C117.595 67.0603 115.835 67.1987 114.347 67.4714Z" fill="#F95F4A"/>
<path d="M126.944 67.3116L79.901 181.079C81.1276 182.021 82.3542 182.962 83.5808 183.904L131.552 67.572C129.925 67.4405 128.299 67.3089 126.944 67.3116Z" fill="#F95F4A"/>
<path d="M100.285 70.6009L63.3404 159.807C64.1671 161.558 65.2659 163.444 66.2259 164.925L105.959 68.7018C104.338 69.2444 102.311 69.9227 100.285 70.6009Z" fill="#F95F4A"/>
<path d="M84.5018 78.5882L57.9225 142.692C58.3493 145.254 59.0481 147.949 59.8801 150.375L91.2422 74.5294C88.9492 75.7476 86.5228 77.2357 84.5018 78.5882Z" fill="#F95F4A"/>
<path d="M72.6687 89.5339C63.8117 99.9346 58.3626 113.025 57.3877 126.647L72.6687 89.5339Z" fill="#F95F4A"/>
<path d="M183.778 111.156L151.221 190.106C153.514 188.887 155.674 187.939 157.695 186.587L185.869 118.569C185.17 115.873 184.61 113.582 183.778 111.156Z" fill="#F95F4A"/>
<path d="M177.165 97.146L136.632 194.989C138.525 194.581 140.418 194.173 142.173 193.36L179.911 101.86C178.951 100.379 178.125 98.6274 177.165 97.146Z" fill="#F95F4A"/>
<path d="M187.337 132.725L169.135 177.125C174.643 171.45 178.791 165.104 181.985 157.951L182.913 155.387C185.835 148.1 187.263 140.411 187.337 132.725Z" fill="#F95F4A"/>
<path d="M159.543 78.7078L111.306 195.579C112.799 195.981 114.425 196.112 116.052 196.244L163.495 81.6664C162.268 80.725 160.77 79.6492 159.543 78.7078Z" fill="#F95F4A"/>
<path d="M149.475 73.0642L100.177 192.77C101.67 193.171 103.03 193.843 104.523 194.244L153.694 75.4829C152.195 74.4072 150.835 73.7357 149.475 73.0642Z" fill="#F95F4A"/>
<path d="M168.818 86.6453L123.37 196.499C125.129 196.361 126.756 196.493 128.516 196.354L172.37 90.4138C171.277 89.2024 169.912 87.8567 168.818 86.6453Z" fill="#F95F4A"/>
<path d="M143.951 115.251C131.577 98.2184 135.279 74.3076 152.288 61.9497C169.298 49.5917 193.152 53.4167 205.557 70.4914C217.962 87.5661 214.229 111.434 197.22 123.792C180.211 136.15 156.326 132.283 143.951 115.251ZM204.753 71.0755C192.687 54.468 169.388 50.6944 152.802 62.7449C136.215 74.7955 132.574 98.078 144.671 114.728C156.767 131.378 180.036 135.109 196.622 123.059C213.208 111.008 216.819 87.683 204.753 71.0755Z" fill="white" stroke="white" stroke-width="1.17152"/>
<path d="M144.001 212.846L164.539 149.36H184.444L205.061 212.846H184.997L182.549 204.955H166.356L163.907 212.846H144.001ZM169.515 190.444H179.547L174.65 173.031H174.334L169.515 190.444ZM233.597 214.206C216.061 214.206 204.291 200.783 204.291 181.103C204.291 161.513 216.219 147.999 233.439 147.999C249.316 147.999 260.612 158.611 263.139 175.842H244.419C242.997 171.036 239.047 167.952 234.308 167.952C227.91 167.952 223.565 173.212 223.565 181.103C223.565 188.902 227.91 194.253 234.15 194.253C239.126 194.253 242.997 191.079 244.577 186.091H263.376C261.402 203.141 249.553 214.206 233.597 214.206ZM270.312 212.846V149.36H285.794L303.014 176.024L320.313 149.36H335.716V212.846H317.075V198.244L317.233 185.184H316.996L308.307 198.879H297.722L289.033 185.093L288.796 185.184L288.954 198.244V212.846H270.312Z" fill="#FEFDF8"/>
<path d="M367.498 275.999C348.692 275.999 335.717 263.217 335.717 245.103C335.717 226.988 348.692 214.206 367.498 214.206C386.386 214.206 399.361 226.988 399.361 245.103C399.361 263.217 386.386 275.999 367.498 275.999ZM355.755 245.103C355.755 252.382 360.6 257.377 367.498 257.377C374.396 257.377 379.323 252.382 379.323 245.103C379.323 237.823 374.396 232.829 367.498 232.829C360.6 232.829 355.755 237.823 355.755 245.103ZM406.68 274.729V215.476H422.776L441.172 241.039H441.5L441.336 233.506V215.476H460.799V274.729H444.703L426.225 248.912H425.979L426.143 256.699V274.729H406.68ZM471.079 274.729V215.476H512.468V230.628H490.377V237.484H510.333V252.213H490.377V259.323H513.289V274.729H471.079Z" fill="#FEFDF8"/>
<path d="M321.572 225.976H206.858V253.93H321.572V225.976Z" fill="#FEFDF8"/>
<path d="M466.146 170.068H348.289V198.022H466.146V170.068Z" fill="#FEFDF8"/>
</svg>
