<svg width="267" height="32" viewBox="0 0 267 32" fill="none" xmlns="http://www.w3.org/2000/svg">
<path d="M9.52583 31.5523V27.1047H5.07815V22.657H0.630478V9.31395H5.07815V4.86628H9.52583V0.418606H27.3165V4.86628H31.7642V9.31395H22.8688V4.86628H13.9735V9.31395H9.52583V22.657H13.9735V27.1047H22.8688V22.657H31.7642V27.1047H27.3165V31.5523H9.52583ZM44.2177 31.5523V0.418606H53.113V27.1047H70.9037V31.5523H44.2177ZM83.3572 31.5523V27.1047H92.2526V4.86628H83.3572V0.418606H110.043V4.86628H101.148V27.1047H110.043V31.5523H83.3572ZM122.497 18.2093V13.7616H149.183V18.2093H122.497ZM157.189 31.5523V0.418606H183.875V4.86628H188.322V18.2093H179.427V22.657H183.875V27.1047H188.322V31.5523H174.979V27.1047H170.532V22.657H166.084V31.5523H157.189ZM166.084 18.2093H174.979V13.7616H179.427V4.86628H166.084V18.2093ZM196.328 31.5523V0.418606H223.014V4.86628H227.462V18.2093H223.014V22.657H205.223V31.5523H196.328ZM205.223 18.2093H218.567V4.86628H205.223V18.2093ZM244.363 31.5523V27.1047H239.915V22.657H235.468V9.31395H239.915V4.86628H244.363V0.418606H266.601V4.86628H248.811V9.31395H244.363V22.657H248.811V27.1047H257.706V18.2093H253.258V13.7616H266.601V31.5523H244.363Z" fill="white"/>
</svg>
