<svg width="469" height="88" viewBox="0 0 469 88" fill="none" xmlns="http://www.w3.org/2000/svg">
<g clip-path="url(#clip0_285_171797)">
<g clip-path="url(#clip1_285_171797)">
<path d="M69.3574 5.07617C76.6308 5.07617 82.5466 10.9933 82.5469 18.2666C82.5467 25.4356 76.799 31.2853 69.6689 31.4512V45.8242C69.6687 47.3983 68.3925 48.6738 66.8184 48.6738C65.2443 48.6738 63.968 47.3983 63.9678 45.8242V31.4561H59.0186C57.4443 31.4561 56.168 30.1797 56.168 28.6055C56.168 27.0313 57.4443 25.7549 59.0186 25.7549H69.3574C73.4861 25.7549 76.8465 22.3952 76.8467 18.2666C76.8467 14.1376 73.4862 10.7773 69.3574 10.7773H39.0332C34.8941 10.7776 31.5451 14.0912 31.5449 18.1396C31.5449 19.7139 30.2685 20.9902 28.6943 20.9902C27.1202 20.9902 25.8438 19.7138 25.8438 18.1396C25.8438 15.4097 26.6964 12.8745 28.1465 10.7773H17.6611C13.5323 10.7773 10.1719 14.1376 10.1719 18.2666C10.1721 22.3952 13.5324 25.7549 17.6611 25.7549H43.5098C47.6385 25.7547 50.9979 22.3951 50.998 18.2666C50.998 16.6924 52.2745 15.4161 53.8486 15.416C55.4228 15.416 56.6992 16.6924 56.6992 18.2666C56.699 25.5395 50.7828 31.4558 43.5098 31.4561H23.0508V45.8242C23.0506 47.3982 21.7743 48.6738 20.2002 48.6738C18.6261 48.6738 17.3498 47.3983 17.3496 45.8242V31.4512C10.2196 31.2853 4.47088 25.4358 4.4707 18.2666C4.4707 10.9932 10.3878 5.07617 17.6611 5.07617H69.3574Z" fill="white" stroke="white" stroke-width="1.45036"/>
<path d="M76.8913 77.2568L75.9388 77.4571C72.5686 78.1654 70.8833 78.5196 69.1982 78.5434C67.7029 78.5646 66.2112 78.3929 64.7601 78.0326C63.1245 77.6267 61.5637 76.899 58.4425 75.4434L15.1363 55.2496C12.2324 53.8953 10.9761 50.4437 12.3301 47.5397C13.6843 44.6359 17.136 43.3796 20.0399 44.7336L64.1406 65.2982C66.9724 66.6186 68.3882 67.2788 69.6439 68.1608C70.7586 68.9436 71.7776 69.8545 72.68 70.8749C73.6966 72.0245 74.5107 73.3579 76.1388 76.0246L76.8913 77.2568Z" fill="url(#paint0_linear_285_171797)"/>
<path d="M27.1447 48.0467L22.9243 57.0972M76.8913 77.2568L75.9388 77.4571C72.5686 78.1654 70.8833 78.5196 69.1982 78.5434C67.7029 78.5646 66.2112 78.3929 64.7601 78.0326C63.1245 77.6267 61.5637 76.899 58.4425 75.4434L15.1363 55.2496C12.2324 53.8953 10.9761 50.4437 12.3301 47.5397C13.6843 44.6359 17.136 43.3796 20.0399 44.7336L64.1406 65.2982C66.9724 66.6186 68.3882 67.2788 69.6439 68.1608C70.7586 68.9436 71.7776 69.8545 72.68 70.8749C73.6966 72.0245 74.5107 73.3579 76.1388 76.0246L76.8913 77.2568Z" stroke="url(#paint1_linear_285_171797)" stroke-width="0.725182" stroke-linecap="round" stroke-linejoin="round"/>
<path d="M12.401 77.6525L12.8599 76.794C14.4836 73.757 15.2956 72.2383 16.3605 70.9322C17.3054 69.7731 18.3958 68.7407 19.6045 67.8607C20.9668 66.8687 22.5276 66.1408 25.6489 64.6855L68.9549 44.4914C71.8589 43.1373 75.3106 44.3936 76.6648 47.2975C78.0188 50.2013 76.7624 53.6531 73.8587 55.0072L29.7579 75.5717C26.9261 76.8923 25.5103 77.5524 24.0275 77.9475C22.7114 78.2982 21.3585 78.4932 19.9969 78.5286C18.4628 78.5684 16.918 78.3349 13.8287 77.868L12.401 77.6525Z" fill="url(#paint2_linear_285_171797)"/>
<path d="M66.7538 58.3203L62.5335 49.2697M12.401 77.6525L12.8599 76.794C14.4836 73.757 15.2956 72.2383 16.3605 70.9322C17.3054 69.7731 18.3958 68.7407 19.6045 67.8607C20.9668 66.8687 22.5276 66.1408 25.6489 64.6855L68.9549 44.4914C71.8589 43.1373 75.3106 44.3936 76.6648 47.2975C78.0188 50.2013 76.7624 53.6531 73.8587 55.0072L29.7579 75.5717C26.9261 76.8923 25.5103 77.5524 24.0275 77.9475C22.7114 78.2982 21.3585 78.4932 19.9969 78.5286C18.4628 78.5684 16.918 78.3349 13.8287 77.868L12.401 77.6525Z" stroke="url(#paint3_linear_285_171797)" stroke-width="0.725182" stroke-linecap="round" stroke-linejoin="round"/>
</g>
<path d="M105.354 67.5107V24.2899H134.42V32.1219H114.347V41.9263H133.259V49.7583H114.347V59.6788H134.42V67.5107H105.354ZM136.385 67.5107L147.465 51.6148L136.327 35.8348H146.421L154.775 48.1339H150.366L158.72 35.8348H168.815L157.676 51.6148L168.699 67.5107H158.662L150.482 55.2117H154.659L146.479 67.5107H136.385ZM181.883 68.2069C179.601 68.2069 177.629 67.8395 175.966 67.1046C174.303 66.3698 173.026 65.3255 172.137 63.9719C171.247 62.5795 170.803 60.9358 170.803 59.0406C170.803 57.2615 171.209 55.6951 172.021 54.3414C172.833 52.9491 174.071 51.7888 175.734 50.8606C177.436 49.9323 179.543 49.2748 182.057 48.8881L191.746 47.3217V53.7033L183.624 55.1536C182.386 55.3857 181.439 55.7918 180.781 56.3719C180.124 56.9134 179.795 57.7063 179.795 58.7505C179.795 59.7175 180.162 60.4716 180.897 61.0131C181.632 61.5546 182.541 61.8253 183.624 61.8253C185.055 61.8253 186.312 61.5159 187.395 60.8971C188.478 60.2783 189.309 59.4467 189.889 58.4025C190.508 57.3195 190.818 56.1399 190.818 54.8636V46.6255C190.818 45.4265 190.334 44.4209 189.367 43.6087C188.439 42.7965 187.163 42.3904 185.538 42.3904C183.991 42.3904 182.618 42.8159 181.419 43.6668C180.259 44.5176 179.408 45.6393 178.867 47.0316L171.905 43.7248C172.524 41.9457 173.51 40.4179 174.864 39.1416C176.217 37.8653 177.842 36.8791 179.737 36.1829C181.632 35.4867 183.701 35.1386 185.944 35.1386C188.613 35.1386 190.972 35.6221 193.022 36.589C195.072 37.5559 196.658 38.9096 197.779 40.65C198.94 42.3518 199.52 44.3436 199.52 46.6255V67.5107H191.398V62.4055L193.37 62.0574C192.442 63.4497 191.417 64.61 190.295 65.5382C189.174 66.4278 187.917 67.0853 186.525 67.5107C185.132 67.9749 183.585 68.2069 181.883 68.2069ZM205.902 67.5107V35.8348H214.024V43.5507L213.154 42.2744C213.618 39.8378 214.739 38.0393 216.519 36.8791C218.298 35.7188 220.425 35.1386 222.9 35.1386C225.53 35.1386 227.831 35.8155 229.804 37.1691C231.815 38.4841 233.072 40.2632 233.575 42.5065L231.08 42.7385C232.124 40.1472 233.613 38.2327 235.547 36.9951C237.481 35.7574 239.744 35.1386 242.335 35.1386C244.617 35.1386 246.628 35.6414 248.369 36.647C250.148 37.6526 251.54 39.0643 252.546 40.8821C253.551 42.6612 254.054 44.7497 254.054 47.1476V67.5107H245.352V49.0041C245.352 47.7665 245.12 46.7029 244.656 45.8133C244.23 44.9237 243.611 44.2276 242.799 43.7248C241.987 43.222 241.001 42.9706 239.84 42.9706C238.719 42.9706 237.733 43.222 236.882 43.7248C236.069 44.2276 235.431 44.9237 234.967 45.8133C234.542 46.7029 234.329 47.7665 234.329 49.0041V67.5107H225.627V49.0041C225.627 47.7665 225.395 46.7029 224.931 45.8133C224.505 44.9237 223.886 44.2276 223.074 43.7248C222.262 43.222 221.276 42.9706 220.115 42.9706C218.994 42.9706 218.008 43.222 217.157 43.7248C216.344 44.2276 215.706 44.9237 215.242 45.8133C214.817 46.7029 214.604 47.7665 214.604 49.0041V67.5107H205.902Z" fill="white"/>
<path d="M280.956 68.2069C277.862 68.2069 274.98 67.6461 272.312 66.5245C269.682 65.4029 267.381 63.8365 265.408 61.8253C263.436 59.8141 261.888 57.4549 260.767 54.7475C259.684 52.0402 259.142 49.0814 259.142 45.8713C259.142 42.6612 259.684 39.7024 260.767 36.9951C261.85 34.2491 263.378 31.8898 265.35 29.9173C267.323 27.9061 269.624 26.3591 272.254 25.2761C274.922 24.1545 277.823 23.5937 280.956 23.5937C284.089 23.5937 286.893 24.1159 289.368 25.1601C291.882 26.2044 294.009 27.5967 295.75 29.3372C297.49 31.0776 298.728 33.0114 299.463 35.1386L291.515 38.9676C290.78 36.8791 289.484 35.158 287.628 33.8043C285.81 32.4119 283.586 31.7158 280.956 31.7158C278.403 31.7158 276.16 32.3152 274.226 33.5142C272.292 34.7132 270.784 36.3763 269.701 38.5035C268.657 40.592 268.135 43.0479 268.135 45.8713C268.135 48.6947 268.657 51.17 269.701 53.2972C270.784 55.4244 272.292 57.0875 274.226 58.2864C276.16 59.4854 278.403 60.0849 280.956 60.0849C283.586 60.0849 285.81 59.408 287.628 58.0544C289.484 56.662 290.78 54.9216 291.515 52.8331L299.463 56.662C298.728 58.7892 297.49 60.723 295.75 62.4635C294.009 64.2039 291.882 65.5963 289.368 66.6405C286.893 67.6848 284.089 68.2069 280.956 68.2069ZM319.75 68.2069C316.617 68.2069 313.755 67.4914 311.164 66.0604C308.611 64.6294 306.561 62.6762 305.014 60.2009C303.506 57.6869 302.752 54.8442 302.752 51.6728C302.752 48.4626 303.506 45.6199 305.014 43.1446C306.561 40.6693 308.611 38.7162 311.164 37.2852C313.755 35.8541 316.617 35.1386 319.75 35.1386C322.883 35.1386 325.725 35.8541 328.278 37.2852C330.831 38.7162 332.861 40.6693 334.37 43.1446C335.917 45.6199 336.69 48.4626 336.69 51.6728C336.69 54.8442 335.917 57.6869 334.37 60.2009C332.861 62.6762 330.831 64.6294 328.278 66.0604C325.725 67.4914 322.883 68.2069 319.75 68.2069ZM319.75 60.375C321.336 60.375 322.709 60.0075 323.869 59.2727C325.068 58.5378 325.996 57.5129 326.654 56.1979C327.35 54.8829 327.698 53.3745 327.698 51.6728C327.698 49.971 327.35 48.482 326.654 47.2056C325.996 45.8907 325.068 44.8657 323.869 44.1309C322.709 43.3573 321.336 42.9706 319.75 42.9706C318.164 42.9706 316.772 43.3573 315.573 44.1309C314.374 44.8657 313.426 45.8907 312.73 47.2056C312.073 48.482 311.744 49.971 311.744 51.6728C311.744 53.3745 312.073 54.8829 312.73 56.1979C313.426 57.5129 314.374 58.5378 315.573 59.2727C316.772 60.0075 318.164 60.375 319.75 60.375ZM357.539 68.2069C354.406 68.2069 351.544 67.4914 348.953 66.0604C346.4 64.6294 344.35 62.6762 342.803 60.2009C341.295 57.6869 340.541 54.8442 340.541 51.6728C340.541 48.4626 341.295 45.6199 342.803 43.1446C344.35 40.6693 346.4 38.7162 348.953 37.2852C351.544 35.8541 354.406 35.1386 357.539 35.1386C360.672 35.1386 363.514 35.8541 366.067 37.2852C368.62 38.7162 370.65 40.6693 372.158 43.1446C373.705 45.6199 374.479 48.4626 374.479 51.6728C374.479 54.8442 373.705 57.6869 372.158 60.2009C370.65 62.6762 368.62 64.6294 366.067 66.0604C363.514 67.4914 360.672 68.2069 357.539 68.2069ZM357.539 60.375C359.124 60.375 360.498 60.0075 361.658 59.2727C362.857 58.5378 363.785 57.5129 364.443 56.1979C365.139 54.8829 365.487 53.3745 365.487 51.6728C365.487 49.971 365.139 48.482 364.443 47.2056C363.785 45.8907 362.857 44.8657 361.658 44.1309C360.498 43.3573 359.124 42.9706 357.539 42.9706C355.953 42.9706 354.561 43.3573 353.362 44.1309C352.163 44.8657 351.215 45.8907 350.519 47.2056C349.862 48.482 349.533 49.971 349.533 51.6728C349.533 53.3745 349.862 54.8829 350.519 56.1979C351.215 57.5129 352.163 58.5378 353.362 59.2727C354.561 60.0075 355.953 60.375 357.539 60.375ZM379.606 67.5107V23.5937H388.308V51.7308L385.059 50.6865L399.04 35.8348H409.773L398.286 48.598L409.715 67.5107H399.853L390.28 51.4407L395.328 50.1644L385.639 60.723L388.308 55.6758V67.5107H379.606ZM428.29 68.2069C424.925 68.2069 422.005 67.4721 419.53 66.0024C417.054 64.494 415.14 62.4828 413.786 59.9688C412.432 57.4549 411.756 54.6702 411.756 51.6148C411.756 48.4433 412.452 45.6199 413.844 43.1446C415.275 40.6693 417.19 38.7162 419.588 37.2852C421.986 35.8541 424.693 35.1386 427.71 35.1386C430.224 35.1386 432.447 35.5447 434.381 36.3569C436.315 37.1305 437.94 38.2327 439.255 39.6638C440.608 41.0948 441.633 42.7579 442.329 44.653C443.025 46.5095 443.374 48.54 443.374 50.7445C443.374 51.3634 443.335 51.9822 443.258 52.601C443.219 53.1811 443.122 53.6839 442.967 54.1094H419.24V47.7278H438.036L433.917 50.7445C434.304 49.0815 434.285 47.6117 433.859 46.3354C433.434 45.0204 432.68 43.9955 431.597 43.2607C430.552 42.4871 429.257 42.1004 427.71 42.1004C426.201 42.1004 424.906 42.4678 423.823 43.2026C422.74 43.9375 421.928 45.0204 421.386 46.4515C420.845 47.8825 420.632 49.6229 420.748 51.6728C420.593 53.4519 420.806 55.0183 421.386 56.3719C421.966 57.7256 422.856 58.7892 424.055 59.5627C425.254 60.2976 426.704 60.665 428.406 60.665C429.953 60.665 431.268 60.3556 432.351 59.7368C433.472 59.118 434.343 58.2671 434.961 57.1842L441.923 60.491C441.304 62.038 440.318 63.3917 438.964 64.552C437.649 65.7123 436.083 66.6212 434.265 67.2787C432.447 67.8975 430.456 68.2069 428.29 68.2069ZM448.498 67.5107V35.8348H456.62V43.4347L456.04 42.3324C456.736 39.6638 457.877 37.8653 459.463 36.9371C461.087 35.9702 463.002 35.4867 465.206 35.4867H467.063V43.0286H464.336C462.209 43.0286 460.488 43.6861 459.173 45.0011C457.858 46.2774 457.2 48.0952 457.2 50.4545V67.5107H448.498Z" fill="url(#paint4_linear_285_171797)"/>
</g>
<defs>
<linearGradient id="paint0_linear_285_171797" x1="59.2071" y1="28.6697" x2="28.3258" y2="95.338" gradientUnits="userSpaceOnUse">
<stop offset="0.2" stop-color="white"/>
<stop offset="0.8" stop-color="#383838"/>
</linearGradient>
<linearGradient id="paint1_linear_285_171797" x1="59.2071" y1="28.6697" x2="28.3258" y2="95.338" gradientUnits="userSpaceOnUse">
<stop offset="0.2" stop-color="white"/>
<stop offset="0.8" stop-color="#383838"/>
</linearGradient>
<linearGradient id="paint2_linear_285_171797" x1="78.8426" y1="46.2819" x2="12.1066" y2="77.0131" gradientUnits="userSpaceOnUse">
<stop offset="0.2" stop-color="#2E2E2E"/>
<stop offset="0.8" stop-color="#A9A9A9"/>
</linearGradient>
<linearGradient id="paint3_linear_285_171797" x1="78.8426" y1="46.2819" x2="12.1066" y2="77.0131" gradientUnits="userSpaceOnUse">
<stop offset="0.2" stop-color="#2E2E2E"/>
<stop offset="0.8" stop-color="#A9A9A9"/>
</linearGradient>
<linearGradient id="paint4_linear_285_171797" x1="468.526" y1="8.51074" x2="442.76" y2="143.596" gradientUnits="userSpaceOnUse">
<stop offset="0.2" stop-color="white"/>
<stop offset="0.8" stop-color="#A9A9A9"/>
</linearGradient>
<clipPath id="clip0_285_171797">
<rect width="468.525" height="87.0218" fill="white"/>
</clipPath>
<clipPath id="clip1_285_171797">
<rect width="87.0218" height="87.0218" fill="white"/>
</clipPath>
</defs>
</svg>
