<svg width="650" height="495" viewBox="0 0 650 495" fill="none" xmlns="http://www.w3.org/2000/svg">
<g opacity="0.5">
<g opacity="0.8" clip-path="url(#clip0_2037_687)">
<rect x="113.442" y="1.34333" width="599.808" height="246.919" rx="14.9815" transform="rotate(27 113.442 1.34333)" stroke="white" stroke-width="1.99753"/>
<path d="M106.982 80.218L119.409 86.55C120.883 87.3014 121.469 89.1054 120.718 90.5797L116.876 98.1211C114.376 103.027 108.372 104.978 103.466 102.478C98.5603 99.9783 96.6097 93.9747 99.1094 89.0687L102.952 81.5274C103.703 80.0529 105.507 79.4668 106.982 80.218Z" stroke="white" stroke-width="1.99753"/>
<path d="M134.346 94.1609L146.773 100.493C148.247 101.244 148.834 103.048 148.083 104.523L144.24 112.064C141.74 116.97 135.737 118.92 130.831 116.421C125.925 113.921 123.974 107.918 126.474 103.012L130.316 95.4703C131.068 93.9958 132.872 93.4096 134.346 94.1609Z" stroke="white" stroke-width="1.99753"/>
<path d="M134.72 128.862L147.147 135.194C148.622 135.945 149.208 137.749 148.457 139.223L144.614 146.765C142.114 151.671 136.111 153.621 131.205 151.122C126.299 148.622 124.348 142.618 126.848 137.712L130.691 130.171C131.442 128.696 133.246 128.11 134.72 128.862Z" stroke="white" stroke-width="1.99753"/>
<path d="M161.433 142.472L173.86 148.804C175.334 149.556 175.921 151.36 175.17 152.834L171.327 160.375C168.827 165.281 162.824 167.232 157.918 164.732C153.012 162.233 151.061 156.229 153.561 151.323L157.403 143.782C158.155 142.307 159.959 141.721 161.433 142.472Z" stroke="white" stroke-width="1.99753"/>
<path d="M188.146 156.083L200.573 162.415C202.047 163.167 202.634 164.971 201.882 166.445L198.04 173.986C195.54 178.892 189.537 180.843 184.631 178.343C179.725 175.844 177.774 169.84 180.274 164.934L184.116 157.393C184.868 155.918 186.672 155.332 188.146 156.083Z" stroke="white" stroke-width="1.99753"/>
<path d="M214.859 169.694L227.286 176.026C228.76 176.777 229.347 178.581 228.595 180.056L224.753 187.597C222.253 192.503 216.25 194.454 211.344 191.954C206.438 189.454 204.487 183.451 206.987 178.545L210.829 171.003C211.58 169.529 213.384 168.943 214.859 169.694Z" stroke="white" stroke-width="1.99753"/>
<path d="M241.572 183.305L253.999 189.637C255.473 190.389 256.059 192.193 255.308 193.667L251.466 201.208C248.966 206.114 242.962 208.065 238.057 205.565C233.151 203.065 231.2 197.062 233.7 192.156L237.542 184.615C238.293 183.14 240.097 182.554 241.572 183.305Z" stroke="white" stroke-width="1.99753"/>
<path d="M268.285 196.916L280.712 203.248C282.186 203.999 282.772 205.803 282.021 207.278L278.179 214.819C275.679 219.725 269.675 221.676 264.769 219.176C259.863 216.676 257.913 210.673 260.412 205.767L264.255 198.225C265.006 196.751 266.81 196.165 268.285 196.916Z" stroke="white" stroke-width="1.99753"/>
<path d="M294.998 210.527L307.425 216.859C308.899 217.61 309.485 219.414 308.734 220.889L304.892 228.43C302.392 233.336 296.388 235.286 291.482 232.787C286.576 230.287 284.626 224.284 287.125 219.378L290.968 211.836C291.719 210.362 293.523 209.776 294.998 210.527Z" stroke="white" stroke-width="1.99753"/>
<path d="M127.941 158.274L140.368 164.606C141.842 165.357 142.428 167.161 141.677 168.635L137.835 176.177C135.335 181.083 129.331 183.033 124.426 180.534C119.52 178.034 117.569 172.03 120.069 167.124L123.911 159.583C124.662 158.109 126.466 157.522 127.941 158.274Z" stroke="white" stroke-width="1.99753"/>
<path d="M154.654 171.885L167.081 178.216C168.555 178.968 169.141 180.772 168.39 182.246L164.548 189.788C162.048 194.693 156.044 196.644 151.138 194.144C146.232 191.645 144.282 185.641 146.781 180.735L150.624 173.194C151.375 171.719 153.179 171.133 154.654 171.885Z" stroke="white" stroke-width="1.99753"/>
<path d="M181.367 185.496L193.794 191.828C195.268 192.579 195.854 194.383 195.103 195.857L191.261 203.399C188.761 208.305 182.757 210.255 177.851 207.756C172.945 205.256 170.995 199.252 173.494 194.346L177.337 186.805C178.088 185.331 179.892 184.744 181.367 185.496Z" stroke="white" stroke-width="1.99753"/>
<path d="M208.08 199.106L220.507 205.438C221.981 206.19 222.567 207.994 221.816 209.468L217.973 217.009C215.474 221.915 209.47 223.866 204.564 221.366C199.658 218.867 197.708 212.863 200.207 207.957L204.05 200.416C204.801 198.941 206.605 198.355 208.08 199.106Z" stroke="white" stroke-width="1.99753"/>
<path d="M234.792 212.717L247.22 219.049C248.694 219.801 249.28 221.605 248.529 223.079L244.686 230.62C242.187 235.526 236.183 237.477 231.277 234.977C226.371 232.478 224.42 226.474 226.92 221.568L230.763 214.027C231.514 212.552 233.318 211.966 234.792 212.717Z" stroke="white" stroke-width="1.99753"/>
<path d="M261.505 226.328L273.932 232.66C275.407 233.411 275.993 235.215 275.242 236.69L271.399 244.231C268.9 249.137 262.896 251.088 257.99 248.588C253.084 246.088 251.133 240.085 253.633 235.179L257.476 227.637C258.227 226.163 260.031 225.577 261.505 226.328Z" stroke="white" stroke-width="1.99753"/>
<path d="M288.218 239.939L300.645 246.271C302.119 247.023 302.706 248.827 301.955 250.301L298.112 257.842C295.612 262.748 289.609 264.699 284.703 262.199C279.797 259.699 277.846 253.696 280.346 248.79L284.188 241.249C284.94 239.774 286.744 239.188 288.218 239.939Z" stroke="white" stroke-width="1.99753"/>
<path d="M127.012 192.31L139.439 198.642C140.913 199.394 141.5 201.198 140.748 202.672L136.906 210.213C134.406 215.119 128.403 217.07 123.497 214.57C118.591 212.071 116.64 206.067 119.14 201.161L122.982 193.62C123.734 192.145 125.538 191.559 127.012 192.31Z" stroke="white" stroke-width="1.99753"/>
<path d="M153.725 205.921L166.152 212.253C167.626 213.004 168.213 214.809 167.461 216.283L163.619 223.824C161.119 228.73 155.116 230.681 150.21 228.181C145.304 225.681 143.353 219.678 145.853 214.772L149.695 207.231C150.446 205.756 152.25 205.17 153.725 205.921Z" stroke="white" stroke-width="1.99753"/>
<path d="M180.438 219.532L192.865 225.864C194.339 226.615 194.925 228.419 194.174 229.894L190.332 237.435C187.832 242.341 181.828 244.292 176.922 241.792C172.016 239.292 170.066 233.289 172.566 228.383L176.408 220.841C177.159 219.367 178.963 218.781 180.438 219.532Z" stroke="white" stroke-width="1.99753"/>
<path d="M207.151 233.143L219.578 239.475C221.052 240.226 221.638 242.03 220.887 243.505L217.045 251.046C214.545 255.952 208.541 257.903 203.635 255.403C198.729 252.903 196.779 246.9 199.278 241.994L203.121 234.452C203.872 232.978 205.676 232.392 207.151 233.143Z" stroke="white" stroke-width="1.99753"/>
<path d="M233.864 246.754L246.291 253.086C247.765 253.837 248.351 255.641 247.6 257.116L243.758 264.657C241.258 269.563 235.254 271.513 230.348 269.014C225.442 266.514 223.492 260.511 225.991 255.605L229.834 248.063C230.585 246.589 232.389 246.003 233.864 246.754Z" stroke="white" stroke-width="1.99753"/>
<path d="M260.576 260.365L273.004 266.697C274.478 267.448 275.064 269.252 274.313 270.726L270.47 278.268C267.971 283.174 261.967 285.124 257.061 282.625C252.155 280.125 250.205 274.121 252.704 269.215L256.547 261.674C257.298 260.2 259.102 259.614 260.576 260.365Z" stroke="white" stroke-width="1.99753"/>
<path d="M287.289 273.976L299.716 280.308C301.191 281.059 301.777 282.863 301.026 284.337L297.183 291.879C294.684 296.785 288.68 298.735 283.774 296.236C278.868 293.736 276.917 287.732 279.417 282.826L283.26 275.285C284.011 273.811 285.815 273.224 287.289 273.976Z" stroke="white" stroke-width="1.99753"/>
<path d="M321.71 224.138L334.138 230.47C335.612 231.221 336.198 233.025 335.447 234.499L331.604 242.041C329.105 246.947 323.101 248.897 318.195 246.398C313.289 243.898 311.339 237.894 313.838 232.988L317.681 225.447C318.432 223.973 320.236 223.386 321.71 224.138Z" stroke="white" stroke-width="1.99753"/>
<path d="M348.423 237.749L360.85 244.081C362.325 244.832 362.911 246.636 362.16 248.11L358.317 255.652C355.818 260.558 349.814 262.508 344.908 260.009C340.002 257.509 338.051 251.505 340.551 246.6L344.394 239.058C345.145 237.584 346.949 236.998 348.423 237.749Z" stroke="white" stroke-width="1.99753"/>
<path d="M375.136 251.36L387.563 257.692C389.038 258.443 389.624 260.247 388.873 261.721L385.03 269.263C382.53 274.169 376.527 276.119 371.621 273.62C366.715 271.12 364.764 265.116 367.264 260.21L371.107 252.669C371.858 251.195 373.662 250.608 375.136 251.36Z" stroke="white" stroke-width="1.99753"/>
<path d="M401.849 264.97L414.276 271.302C415.75 272.054 416.337 273.858 415.586 275.332L411.743 282.874C409.243 287.779 403.24 289.73 398.334 287.23C393.428 284.731 391.477 278.727 393.977 273.821L397.819 266.28C398.571 264.805 400.375 264.219 401.849 264.97Z" stroke="white" stroke-width="1.99753"/>
<path d="M315.583 253.882L328.01 260.214C329.484 260.965 330.07 262.769 329.319 264.244L325.476 271.785C322.977 276.691 316.973 278.642 312.067 276.142C307.161 273.642 305.211 267.639 307.71 262.733L311.553 255.191C312.304 253.717 314.108 253.131 315.583 253.882Z" stroke="white" stroke-width="1.99753"/>
<path d="M342.295 267.493L354.723 273.825C356.197 274.576 356.783 276.38 356.032 277.855L352.189 285.396C349.69 290.302 343.686 292.252 338.78 289.753C333.874 287.253 331.924 281.25 334.423 276.344L338.266 268.802C339.017 267.328 340.821 266.742 342.295 267.493Z" stroke="white" stroke-width="1.99753"/>
<path d="M369.008 281.104L381.435 287.436C382.91 288.187 383.496 289.991 382.745 291.465L378.902 299.007C376.403 303.913 370.399 305.863 365.493 303.364C360.587 300.864 358.636 294.86 361.136 289.954L364.979 282.413C365.73 280.939 367.534 280.353 369.008 281.104Z" stroke="white" stroke-width="1.99753"/>
<path d="M395.721 294.715L408.148 301.047C409.623 301.798 410.209 303.602 409.458 305.076L405.615 312.618C403.115 317.524 397.112 319.474 392.206 316.975C387.3 314.475 385.349 308.471 387.849 303.565L391.692 296.024C392.443 294.55 394.247 293.963 395.721 294.715Z" stroke="white" stroke-width="1.99753"/>
<path d="M316.608 288.915L329.035 295.247C330.51 295.998 331.096 297.802 330.345 299.276L326.502 306.818C324.003 311.723 317.999 313.674 313.093 311.175C308.187 308.675 306.236 302.671 308.736 297.765L312.579 290.224C313.33 288.749 315.134 288.163 316.608 288.915Z" stroke="white" stroke-width="1.99753"/>
<path d="M343.321 302.525L355.748 308.857C357.222 309.609 357.809 311.413 357.058 312.887L353.215 320.428C350.715 325.334 344.712 327.285 339.806 324.785C334.9 322.286 332.949 316.282 335.449 311.376L339.291 303.835C340.043 302.36 341.847 301.774 343.321 302.525Z" stroke="white" stroke-width="1.99753"/>
<path d="M370.034 316.136L382.461 322.468C383.935 323.22 384.522 325.024 383.771 326.498L379.928 334.039C377.428 338.945 371.425 340.896 366.519 338.396C361.613 335.896 359.662 329.893 362.162 324.987L366.004 317.446C366.756 315.971 368.56 315.385 370.034 316.136Z" stroke="white" stroke-width="1.99753"/>
<path d="M428.562 278.581L440.989 284.913C442.463 285.665 443.05 287.469 442.299 288.943L438.456 296.484C435.956 301.39 429.953 303.341 425.047 300.841C420.141 298.342 418.19 292.338 420.69 287.432L424.532 279.891C425.284 278.416 427.088 277.83 428.562 278.581Z" stroke="white" stroke-width="1.99753"/>
<path d="M161.71 108.104L174.138 114.436C175.612 115.187 176.198 116.991 175.447 118.465L171.604 126.007C169.105 130.913 163.101 132.863 158.195 130.364C153.289 127.864 151.339 121.86 153.838 116.954L157.681 109.413C158.432 107.939 160.236 107.353 161.71 108.104Z" stroke="white" stroke-width="1.99753"/>
<path d="M189.075 122.047L201.502 128.379C202.976 129.13 203.563 130.934 202.811 132.408L198.969 139.95C196.469 144.856 190.466 146.806 185.56 144.307C180.654 141.807 178.703 135.803 181.203 130.897L185.045 123.356C185.796 121.882 187.6 121.295 189.075 122.047Z" stroke="white" stroke-width="1.99753"/>
<path d="M216.439 135.99L228.866 142.321C230.341 143.073 230.927 144.877 230.176 146.351L226.333 153.893C223.834 158.798 217.83 160.749 212.924 158.249C208.018 155.75 206.067 149.746 208.567 144.84L212.41 137.299C213.161 135.824 214.965 135.238 216.439 135.99Z" stroke="white" stroke-width="1.99753"/>
<path d="M243.804 149.932L256.231 156.264C257.705 157.016 258.291 158.82 257.54 160.294L253.698 167.835C251.198 172.741 245.194 174.692 240.288 172.192C235.382 169.693 233.432 163.689 235.932 158.783L239.774 151.242C240.525 149.767 242.329 149.181 243.804 149.932Z" stroke="white" stroke-width="1.99753"/>
<path d="M271.168 163.875L283.595 170.207C285.069 170.959 285.656 172.763 284.905 174.237L281.062 181.778C278.562 186.684 272.559 188.635 267.653 186.135C262.747 183.635 260.796 177.632 263.296 172.726L267.138 165.185C267.89 163.71 269.694 163.124 271.168 163.875Z" stroke="white" stroke-width="1.99753"/>
<path d="M298.533 177.818L310.96 184.15C312.434 184.901 313.02 186.705 312.269 188.18L308.427 195.721C305.927 200.627 299.923 202.578 295.017 200.078C290.111 197.578 288.161 191.575 290.66 186.669L294.503 179.127C295.254 177.653 297.058 177.067 298.533 177.818Z" stroke="white" stroke-width="1.99753"/>
<path d="M325.897 191.761L338.324 198.093C339.798 198.844 340.385 200.648 339.633 202.123L335.791 209.664C333.291 214.57 327.288 216.521 322.382 214.021C317.476 211.521 315.525 205.518 318.025 200.612L321.867 193.07C322.619 191.596 324.423 191.01 325.897 191.761Z" stroke="white" stroke-width="1.99753"/>
<path d="M353.261 205.704L365.689 212.036C367.163 212.787 367.749 214.591 366.998 216.066L363.155 223.607C360.656 228.513 354.652 230.463 349.746 227.964C344.84 225.464 342.89 219.461 345.389 214.555L349.232 207.013C349.983 205.539 351.787 204.953 353.261 205.704Z" stroke="white" stroke-width="1.99753"/>
<path d="M380.626 219.647L393.053 225.979C394.527 226.73 395.113 228.534 394.362 230.008L390.52 237.55C388.02 242.456 382.016 244.406 377.111 241.907C372.205 239.407 370.254 233.403 372.754 228.497L376.596 220.956C377.347 219.482 379.151 218.895 380.626 219.647Z" stroke="white" stroke-width="1.99753"/>
<path d="M407.99 233.59L420.417 239.922C421.892 240.673 422.478 242.477 421.727 243.951L417.884 251.493C415.385 256.399 409.381 258.349 404.475 255.85C399.569 253.35 397.618 247.346 400.118 242.44L403.961 234.899C404.712 233.425 406.516 232.838 407.99 233.59Z" stroke="white" stroke-width="1.99753"/>
<path d="M435.355 247.532L447.782 253.864C449.256 254.616 449.842 256.42 449.091 257.894L445.249 265.436C442.749 270.341 436.745 272.292 431.839 269.792C426.933 267.293 424.983 261.289 427.482 256.383L431.325 248.842C432.076 247.367 433.88 246.781 435.355 247.532Z" stroke="white" stroke-width="1.99753"/>
<path d="M462.719 261.475L501.859 281.418C503.333 282.169 503.92 283.974 503.168 285.448L499.334 292.974C496.83 297.888 490.816 299.842 485.901 297.338L459.219 283.743C454.305 281.239 452.351 275.225 454.855 270.31L458.689 262.785C459.441 261.31 461.245 260.724 462.719 261.475Z" stroke="white" stroke-width="1.99753"/>
<path d="M462.455 294.207L488.564 307.51C490.038 308.262 490.625 310.066 489.873 311.54L486.039 319.066C483.534 323.98 477.521 325.935 472.606 323.431L458.955 316.475C454.041 313.971 452.087 307.957 454.591 303.042L458.425 295.517C459.177 294.042 460.981 293.456 462.455 294.207Z" stroke="white" stroke-width="1.99753"/>
<path d="M428.617 312.298L474.272 335.56C475.747 336.312 476.333 338.116 475.582 339.59L471.747 347.116C469.243 352.03 463.228 353.984 458.314 351.48L425.117 334.566C420.203 332.061 418.249 326.047 420.753 321.133L424.587 313.607C425.339 312.133 427.143 311.546 428.617 312.298Z" stroke="white" stroke-width="1.99753"/>
<path d="M399.991 333.044L459.98 363.61C461.455 364.361 462.041 366.165 461.29 367.639L457.455 375.165C454.951 380.079 448.937 382.034 444.022 379.53L396.492 355.312C391.577 352.807 389.623 346.793 392.127 341.879L395.962 334.353C396.713 332.879 398.517 332.292 399.991 333.044Z" stroke="white" stroke-width="1.99753"/>
<path d="M428.062 381.035L446.353 390.354C447.828 391.106 448.414 392.91 447.663 394.384L443.828 401.91C441.324 406.824 435.309 408.778 430.394 406.274L424.563 403.303C419.648 400.798 417.694 394.784 420.198 389.87L424.033 382.344C424.784 380.87 426.588 380.283 428.062 381.035Z" stroke="white" stroke-width="1.99753"/>
<path d="M394.183 363.772L412.474 373.092C413.948 373.843 414.534 375.647 413.783 377.122L409.948 384.647C407.444 389.562 401.429 391.516 396.515 389.012L390.683 386.04C385.768 383.536 383.815 377.522 386.318 372.607L390.153 365.082C390.904 363.607 392.708 363.021 394.183 363.772Z" stroke="white" stroke-width="1.99753"/>
<path d="M360.303 346.51L378.594 355.829C380.068 356.581 380.654 358.385 379.903 359.859L376.069 367.385C373.564 372.299 367.55 374.253 362.635 371.749L356.803 368.777C351.889 366.273 349.935 360.259 352.439 355.345L356.273 347.819C357.024 346.344 358.829 345.758 360.303 346.51Z" stroke="white" stroke-width="1.99753"/>
<path d="M326.423 329.247L344.714 338.567C346.188 339.318 346.775 341.122 346.023 342.596L342.189 350.122C339.684 355.037 333.67 356.99 328.755 354.486L322.923 351.515C318.009 349.011 316.055 342.997 318.559 338.082L322.393 330.556C323.145 329.082 324.949 328.496 326.423 329.247Z" stroke="white" stroke-width="1.99753"/>
<path d="M155.07 241.938L310.834 321.304C312.308 322.055 312.895 323.859 312.143 325.334L308.309 332.859C305.805 337.774 299.791 339.728 294.876 337.224L151.57 264.206C146.655 261.702 144.702 255.688 147.205 250.773L151.04 243.247C151.791 241.773 153.595 241.187 155.07 241.938Z" stroke="white" stroke-width="1.99753"/>
<path d="M52.779 189.818L71.7207 199.469C73.1951 200.221 73.7822 202.025 73.0309 203.5L69.1964 211.025C66.6921 215.94 60.6773 217.894 55.7626 215.389L49.2793 212.086C44.3647 209.582 42.4108 203.568 44.9147 198.653L48.7492 191.127C49.5005 189.653 51.3045 189.067 52.779 189.818Z" stroke="white" stroke-width="1.99753"/>
<path d="M67.0708 161.769L112.075 184.699C113.549 185.451 114.135 187.255 113.384 188.729L109.549 196.255C107.045 201.169 101.031 203.123 96.1164 200.619L63.5712 184.037C58.6565 181.533 56.7026 175.519 59.2066 170.604L63.0411 163.078C63.7924 161.604 65.5964 161.018 67.0708 161.769Z" stroke="white" stroke-width="1.99753"/>
<path d="M80.3788 134.04L112.352 150.331C113.826 151.082 114.412 152.886 113.661 154.36L109.826 161.886C107.322 166.801 101.308 168.755 96.3934 166.251L76.8792 156.308C71.9645 153.804 70.0106 147.79 72.5146 142.875L76.3491 135.349C77.1004 133.875 78.9044 133.289 80.3788 134.04Z" stroke="white" stroke-width="1.99753"/>
<path d="M93.6736 107.947L119.131 120.918C120.605 121.67 121.191 123.474 120.44 124.948L116.606 132.474C114.101 137.388 108.087 139.343 103.173 136.838L90.174 130.215C85.2593 127.711 83.3054 121.697 85.8094 116.782L89.6439 109.257C90.3952 107.782 92.1992 107.196 93.6736 107.947Z" stroke="white" stroke-width="1.99753"/>
<path d="M86.0071 206.749L104.949 216.4C106.423 217.151 107.01 218.956 106.259 220.43L102.425 227.956C99.9202 232.871 93.9055 234.824 88.9908 232.32L82.5075 229.017C77.5928 226.513 75.6389 220.499 78.1429 215.584L81.9774 208.058C82.7287 206.584 84.5327 205.998 86.0071 206.749Z" stroke="white" stroke-width="1.99753"/>
<path d="M119.235 223.679L138.177 233.331C139.652 234.082 140.239 235.886 139.487 237.361L135.653 244.887C133.148 249.801 127.134 251.755 122.219 249.251L115.736 245.947C110.821 243.443 108.867 237.429 111.371 232.515L115.206 224.989C115.957 223.514 117.761 222.928 119.235 223.679Z" stroke="white" stroke-width="1.99753"/>
<path d="M182.317 67.6604L194.745 73.9923C196.219 74.7437 196.805 76.5478 196.054 78.0221L192.211 85.5634C189.712 90.4693 183.708 92.4199 178.802 89.9204C173.896 87.4207 171.945 81.4171 174.445 76.5111L178.288 68.9698C179.039 67.4953 180.843 66.9092 182.317 67.6604Z" stroke="white" stroke-width="1.99753"/>
<path d="M209.682 81.6033L222.109 87.9352C223.583 88.6866 224.169 90.4906 223.418 91.965L219.576 99.5063C217.076 104.412 211.072 106.363 206.166 103.863C201.261 101.364 199.31 95.36 201.81 90.454L205.652 82.9126C206.403 81.4382 208.207 80.852 209.682 81.6033Z" stroke="white" stroke-width="1.99753"/>
<path d="M237.046 95.5462L249.473 101.878C250.947 102.629 251.534 104.434 250.783 105.908L246.94 113.449C244.44 118.355 238.437 120.306 233.531 117.806C228.625 115.306 226.674 109.303 229.174 104.397L233.016 96.8555C233.768 95.3811 235.572 94.7949 237.046 95.5462Z" stroke="white" stroke-width="1.99753"/>
<path d="M264.411 109.489L276.838 115.821C278.312 116.572 278.898 118.376 278.147 119.851L274.305 127.392C271.805 132.298 265.801 134.249 260.895 131.749C255.989 129.249 254.039 123.246 256.538 118.34L260.381 110.798C261.132 109.324 262.936 108.738 264.411 109.489Z" stroke="white" stroke-width="1.99753"/>
<path d="M306.109 130.735L318.536 137.067C320.01 137.819 320.597 139.623 319.845 141.097L316.003 148.638C313.503 153.544 307.499 155.495 302.594 152.995C297.688 150.496 295.737 144.492 298.237 139.586L302.079 132.045C302.83 130.57 304.634 129.984 306.109 130.735Z" stroke="white" stroke-width="1.99753"/>
<path d="M332.822 144.346L345.249 150.678C346.723 151.43 347.309 153.234 346.558 154.708L342.716 162.249C340.216 167.155 334.212 169.106 329.306 166.606C324.4 164.106 322.45 158.103 324.95 153.197L328.792 145.656C329.543 144.181 331.347 143.595 332.822 144.346Z" stroke="white" stroke-width="1.99753"/>
<path d="M359.535 157.957L371.962 164.289C373.436 165.04 374.022 166.844 373.271 168.319L369.429 175.86C366.929 180.766 360.925 182.717 356.019 180.217C351.113 177.717 349.163 171.714 351.662 166.808L355.505 159.266C356.256 157.792 358.06 157.206 359.535 157.957Z" stroke="white" stroke-width="1.99753"/>
<path d="M386.247 171.568L398.675 177.9C400.149 178.651 400.735 180.455 399.984 181.93L396.141 189.471C393.642 194.377 387.638 196.328 382.732 193.828C377.826 191.328 375.876 185.325 378.375 180.419L382.218 172.877C382.969 171.403 384.773 170.817 386.247 171.568Z" stroke="white" stroke-width="1.99753"/>
<path d="M428.597 193.146L441.024 199.478C442.498 200.23 443.085 202.034 442.334 203.508L438.491 211.049C435.991 215.955 429.988 217.906 425.082 215.406C420.176 212.906 418.225 206.903 420.725 201.997L424.567 194.456C425.319 192.981 427.123 192.395 428.597 193.146Z" stroke="white" stroke-width="1.99753"/>
<path d="M455.962 207.089L468.389 213.421C469.863 214.172 470.449 215.976 469.698 217.451L465.856 224.992C463.356 229.898 457.352 231.849 452.446 229.349C447.54 226.849 445.59 220.846 448.089 215.94L451.932 208.398C452.683 206.924 454.487 206.338 455.962 207.089Z" stroke="white" stroke-width="1.99753"/>
<path d="M483.326 221.032L495.753 227.364C497.227 228.115 497.814 229.919 497.062 231.394L493.22 238.935C490.72 243.841 484.717 245.792 479.811 243.292C474.905 240.792 472.954 234.789 475.454 229.883L479.296 222.341C480.048 220.867 481.852 220.281 483.326 221.032Z" stroke="white" stroke-width="1.99753"/>
<path d="M510.69 234.975L523.118 241.307C524.592 242.058 525.178 243.862 524.427 245.337L520.584 252.878C518.085 257.784 512.081 259.734 507.175 257.235C502.269 254.735 500.319 248.732 502.818 243.826L506.661 236.284C507.412 234.81 509.216 234.224 510.69 234.975Z" stroke="white" stroke-width="1.99753"/>
<path d="M545.222 252.57L557.649 258.902C559.123 259.653 559.709 261.457 558.958 262.931L555.116 270.473C552.616 275.379 546.612 277.329 541.706 274.83C536.8 272.33 534.85 266.326 537.35 261.42L541.192 253.879C541.943 252.405 543.747 251.818 545.222 252.57Z" stroke="white" stroke-width="1.99753"/>
<path d="M524.615 293.013L537.042 299.345C538.516 300.096 539.103 301.9 538.351 303.375L534.509 310.916C532.009 315.822 526.005 317.772 521.1 315.273C516.194 312.773 514.243 306.77 516.743 301.864L520.585 294.322C521.336 292.848 523.14 292.262 524.615 293.013Z" stroke="white" stroke-width="1.99753"/>
<path d="M551.979 306.956L564.406 313.288C565.881 314.039 566.467 315.843 565.716 317.317L561.873 324.859C559.373 329.765 553.37 331.715 548.464 329.216C543.558 326.716 541.607 320.713 544.107 315.807L547.949 308.265C548.701 306.791 550.505 306.205 551.979 306.956Z" stroke="white" stroke-width="1.99753"/>
<path d="M579.344 320.899L591.771 327.231C593.245 327.982 593.831 329.786 593.08 331.26L589.238 338.802C586.738 343.708 580.734 345.658 575.828 343.159C570.922 340.659 568.972 334.655 571.471 329.749L575.314 322.208C576.065 320.734 577.869 320.147 579.344 320.899Z" stroke="white" stroke-width="1.99753"/>
<path d="M511.32 319.105L523.747 325.437C525.221 326.189 525.808 327.993 525.057 329.467L521.214 337.008C518.714 341.914 512.711 343.865 507.805 341.365C502.899 338.865 500.948 332.862 503.448 327.956L507.29 320.415C508.042 318.94 509.846 318.354 511.32 319.105Z" stroke="white" stroke-width="1.99753"/>
<path d="M509.782 388.163L522.209 394.495C523.683 395.246 524.269 397.05 523.518 398.525L519.675 406.066C517.176 410.972 511.172 412.922 506.266 410.423C501.36 407.923 499.41 401.92 501.909 397.014L505.752 389.472C506.503 387.998 508.307 387.412 509.782 388.163Z" stroke="white" stroke-width="1.99753"/>
<path d="M469.109 401.949L481.536 408.281C483.01 409.032 483.597 410.836 482.846 412.311L479.003 419.852C476.503 424.758 470.5 426.709 465.594 424.209C460.688 421.709 458.737 415.706 461.237 410.8L465.079 403.258C465.831 401.784 467.635 401.198 469.109 401.949Z" stroke="white" stroke-width="1.99753"/>
<path d="M495.822 415.56L508.249 421.892C509.723 422.643 510.31 424.447 509.558 425.922L505.716 433.463C503.216 438.369 497.213 440.319 492.307 437.82C487.401 435.32 485.45 429.317 487.95 424.411L491.792 416.869C492.544 415.395 494.348 414.809 495.822 415.56Z" stroke="white" stroke-width="1.99753"/>
<path d="M522.535 429.171L534.962 435.503C536.436 436.254 537.023 438.058 536.271 439.533L532.429 447.074C529.929 451.98 523.926 453.93 519.02 451.431C514.114 448.931 512.163 442.928 514.663 438.022L518.505 430.48C519.256 429.006 521.06 428.42 522.535 429.171Z" stroke="white" stroke-width="1.99753"/>
<path d="M538.684 333.048L551.112 339.38C552.586 340.131 553.172 341.935 552.421 343.41L548.578 350.951C546.079 355.857 540.075 357.808 535.169 355.308C530.263 352.808 528.312 346.805 530.812 341.899L534.655 334.357C535.406 332.883 537.21 332.297 538.684 333.048Z" stroke="white" stroke-width="1.99753"/>
<path d="M566.049 346.991L578.476 353.323C579.95 354.074 580.537 355.878 579.785 357.353L575.943 364.894C573.443 369.8 567.44 371.75 562.534 369.251C557.628 366.751 555.677 360.748 558.177 355.842L562.019 348.3C562.77 346.826 564.574 346.24 566.049 346.991Z" stroke="white" stroke-width="1.99753"/>
<path d="M571.935 266.18L584.362 272.512C585.836 273.264 586.422 275.068 585.671 276.542L581.829 284.083C579.329 288.989 573.325 290.94 568.419 288.44C563.513 285.941 561.563 279.937 564.062 275.031L567.905 267.49C568.656 266.015 570.46 265.429 571.935 266.18Z" stroke="white" stroke-width="1.99753"/>
<path d="M599.951 280.455L612.378 286.787C613.852 287.539 614.438 289.343 613.687 290.817L609.845 298.358C607.345 303.264 601.341 305.215 596.435 302.715C591.529 300.216 589.579 294.212 592.078 289.306L595.921 281.765C596.672 280.29 598.476 279.704 599.951 280.455Z" stroke="white" stroke-width="1.99753"/>
<rect x="121.368" y="32.4969" width="31.6392" height="32.4115" rx="2.99629" transform="rotate(27 121.368 32.4969)" stroke="white" stroke-width="1.99753"/>
<rect x="101.759" y="70.9832" width="460.873" height="157.602" rx="2.99629" transform="rotate(27 101.759 70.9832)" stroke="white" stroke-width="1.99753"/>
<rect x="519.392" y="283.778" width="93.0628" height="65.3563" rx="2.99629" transform="rotate(27 519.392 283.778)" stroke="white" stroke-width="1.99753"/>
<path d="M508.039 381.113L528.936 391.76C530.41 392.512 530.997 394.316 530.245 395.79L518.756 418.339C517.504 420.797 518.481 423.804 520.939 425.056L542.161 435.87C543.635 436.621 544.221 438.425 543.47 439.899L531.803 462.798C531.051 464.273 529.247 464.859 527.773 464.108L450.193 424.579C448.718 423.827 448.132 422.023 448.883 420.549L460.551 397.65C461.302 396.175 463.106 395.589 464.581 396.341L485.803 407.154C488.26 408.406 491.268 407.429 492.52 404.971L504.009 382.422C504.761 380.948 506.565 380.361 508.039 381.113Z" stroke="white" stroke-width="1.99753"/>
<rect x="176.749" y="60.7147" width="123.043" height="32.4115" rx="2.99629" transform="rotate(27 176.749 60.7147)" stroke="white" stroke-width="1.99753"/>
<rect x="299.237" y="123.126" width="123.043" height="32.4115" rx="2.99629" transform="rotate(27 299.237 123.126)" stroke="white" stroke-width="1.99753"/>
<rect x="421.726" y="185.536" width="123.043" height="32.4115" rx="2.99629" transform="rotate(27 421.726 185.536)" stroke="white" stroke-width="1.99753"/>
<rect x="539.002" y="245.292" width="92.3316" height="32.4115" rx="2.99629" transform="rotate(27 539.002 245.292)" stroke="white" stroke-width="1.99753"/>
</g>
<g opacity="0.8">
<path d="M212.934 186.507L217.254 178.028L218.243 178.532L213.923 187.011L212.934 186.507Z" fill="white"/>
</g>
<path opacity="0.8" d="M320.123 241.122L324.443 232.643L325.433 233.147L321.112 241.626L320.123 241.122Z" fill="white"/>
<path opacity="0.8" d="M344.828 253.709L349.148 245.23L350.138 245.735L348.349 249.244C348.73 248.983 349.147 248.844 349.6 248.828C350.065 248.808 350.51 248.906 350.933 249.122C351.389 249.354 351.739 249.646 351.985 249.998C352.23 250.351 352.348 250.762 352.336 251.231C352.329 251.692 352.179 252.209 351.887 252.782L350.057 256.374L349.079 255.876L350.855 252.39C351.155 251.801 351.252 251.291 351.145 250.861C351.046 250.435 350.761 250.102 350.289 249.861C349.952 249.689 349.604 249.616 349.245 249.641C348.898 249.662 348.568 249.785 348.255 250.012C347.942 250.238 347.673 250.571 347.449 251.01L345.817 254.213L344.828 253.709Z" fill="white"/>
<path opacity="0.8" d="M374.099 268.802C373.55 268.522 373.119 268.144 372.807 267.669C372.5 267.186 372.34 266.645 372.329 266.046C372.318 265.446 372.472 264.833 372.792 264.205C373.116 263.569 373.524 263.079 374.015 262.736C374.514 262.397 375.048 262.214 375.615 262.187C376.195 262.156 376.759 262.28 377.309 262.56C377.874 262.848 378.311 263.234 378.618 263.717C378.93 264.192 379.091 264.729 379.103 265.329C379.118 265.92 378.961 266.537 378.633 267.181C378.313 267.809 377.904 268.293 377.405 268.632C376.914 268.975 376.378 269.162 375.799 269.193C375.231 269.22 374.665 269.09 374.099 268.802ZM374.543 267.96C374.889 268.136 375.248 268.215 375.623 268.198C376.001 268.174 376.363 268.037 376.708 267.787C377.064 267.534 377.371 267.156 377.627 266.653C377.883 266.151 378.01 265.687 378.01 265.261C378.009 264.836 377.905 264.466 377.699 264.153C377.496 263.833 377.222 263.584 376.877 263.408C376.547 263.24 376.189 263.167 375.803 263.187C375.428 263.204 375.065 263.335 374.712 263.581C374.368 263.831 374.065 264.211 373.805 264.721C373.553 265.215 373.426 265.679 373.422 266.113C373.431 266.543 373.532 266.916 373.727 267.232C373.933 267.545 374.206 267.788 374.543 267.96Z" fill="white"/>
<path opacity="0.8" d="M400.973 282C400.47 281.744 400.076 281.439 399.791 281.086C399.514 280.737 399.344 280.364 399.28 279.965C399.22 279.559 399.268 279.143 399.425 278.719L400.438 279.235C400.373 279.459 400.36 279.69 400.397 279.926C400.435 280.163 400.532 280.39 400.688 280.608C400.855 280.822 401.096 281.009 401.41 281.169C401.685 281.309 401.933 281.386 402.153 281.4C402.378 281.405 402.569 281.36 402.728 281.262C402.894 281.169 403.021 281.036 403.109 280.863C403.233 280.62 403.268 280.405 403.215 280.22C403.173 280.03 403.06 279.844 402.876 279.661C402.704 279.475 402.475 279.274 402.189 279.059C401.938 278.872 401.703 278.673 401.484 278.463C401.273 278.256 401.101 278.04 400.969 277.815C400.848 277.585 400.783 277.344 400.773 277.092C400.764 276.84 400.829 276.576 400.969 276.301C401.141 275.964 401.379 275.71 401.684 275.538C401.988 275.367 402.34 275.289 402.738 275.304C403.143 275.323 403.566 275.444 404.006 275.668C404.642 275.992 405.078 276.407 405.314 276.914C405.551 277.42 405.558 277.978 405.337 278.587L404.36 278.089C404.468 277.778 404.455 277.484 404.319 277.208C404.187 276.923 403.937 276.686 403.568 276.498C403.191 276.306 402.866 276.235 402.594 276.284C402.33 276.337 402.136 276.486 402.012 276.729C401.932 276.886 401.911 277.053 401.949 277.231C401.987 277.409 402.09 277.595 402.258 277.789C402.426 277.983 402.653 278.188 402.939 278.403C403.303 278.678 403.616 278.956 403.878 279.238C404.14 279.519 404.309 279.828 404.385 280.164C404.462 280.499 404.388 280.877 404.164 281.297C403.98 281.678 403.723 281.957 403.395 282.136C403.067 282.315 402.694 282.397 402.276 282.382C401.862 282.359 401.428 282.232 400.973 282Z" fill="white"/>
<path opacity="0.8" d="M428.628 295.913C428.275 295.733 427.996 295.522 427.793 295.28C427.59 295.038 427.484 294.752 427.475 294.421C427.477 294.086 427.593 293.694 427.821 293.247L429.525 289.902L428.477 289.368L428.903 288.532L429.951 289.066L430.818 287.684L431.678 288.122L430.94 289.57L432.671 290.452L432.245 291.289L430.514 290.407L428.81 293.751C428.622 294.12 428.568 294.409 428.65 294.619C428.735 294.82 428.966 295.017 429.343 295.209L429.99 295.539L429.558 296.387L428.628 295.913Z" fill="white"/>
<path opacity="0.8" d="M240.635 200.798C240.085 200.518 239.654 200.14 239.343 199.665C239.035 199.182 238.876 198.641 238.864 198.042C238.853 197.443 239.008 196.829 239.328 196.201C239.652 195.565 240.059 195.076 240.551 194.733C241.05 194.394 241.583 194.211 242.151 194.183C242.73 194.152 243.295 194.277 243.844 194.557C244.409 194.845 244.846 195.23 245.154 195.713C245.465 196.189 245.627 196.726 245.638 197.325C245.653 197.916 245.497 198.534 245.169 199.177C244.849 199.805 244.439 200.289 243.94 200.628C243.449 200.971 242.913 201.158 242.334 201.189C241.766 201.216 241.2 201.086 240.635 200.798ZM241.078 199.956C241.424 200.132 241.784 200.212 242.158 200.195C242.537 200.17 242.898 200.033 243.243 199.783C243.6 199.53 243.906 199.152 244.162 198.65C244.418 198.147 244.546 197.683 244.545 197.257C244.544 196.832 244.441 196.463 244.234 196.15C244.032 195.829 243.758 195.581 243.412 195.405C243.082 195.237 242.724 195.163 242.338 195.184C241.964 195.201 241.6 195.332 241.248 195.577C240.903 195.827 240.6 196.207 240.34 196.717C240.088 197.212 239.961 197.676 239.957 198.109C239.966 198.539 240.068 198.912 240.262 199.229C240.469 199.542 240.741 199.784 241.078 199.956Z" fill="white"/>
<path opacity="0.8" d="M266.823 214.142C266.266 213.858 265.829 213.472 265.514 212.985C265.21 212.494 265.051 211.953 265.036 211.362C265.024 210.763 265.177 210.153 265.493 209.533C265.813 208.905 266.216 208.423 266.704 208.088C267.195 207.745 267.726 207.556 268.298 207.521C268.882 207.482 269.456 207.607 270.021 207.895C270.72 208.251 271.211 208.733 271.494 209.342C271.781 209.943 271.829 210.586 271.639 211.27L270.626 210.754C270.74 210.337 270.695 209.949 270.493 209.589C270.291 209.229 269.982 208.942 269.566 208.73C269.228 208.558 268.87 208.485 268.491 208.509C268.117 208.526 267.757 208.66 267.413 208.909C267.068 209.159 266.768 209.535 266.512 210.037C266.32 210.414 266.201 210.774 266.155 211.116C266.113 211.451 266.128 211.76 266.201 212.045C266.277 212.321 266.404 212.568 266.579 212.786C266.767 213.001 266.986 213.172 267.237 213.3C267.52 213.444 267.799 213.527 268.075 213.548C268.351 213.57 268.611 213.535 268.856 213.442C269.105 213.341 269.321 213.179 269.504 212.956L270.517 213.472C270.083 214.013 269.531 214.349 268.86 214.482C268.201 214.611 267.522 214.498 266.823 214.142Z" fill="white"/>
<path opacity="0.8" d="M292.784 226.875C292.305 226.631 291.947 226.345 291.709 226.016C291.483 225.683 291.363 225.335 291.35 224.973C291.337 224.61 291.415 224.264 291.583 223.934C291.787 223.534 292.061 223.248 292.405 223.077C292.761 222.903 293.166 222.837 293.618 222.88C294.071 222.923 294.557 223.076 295.075 223.34L296.641 224.138C296.829 223.769 296.932 223.431 296.95 223.124C296.968 222.816 296.9 222.544 296.744 222.306C296.596 222.073 296.357 221.872 296.027 221.704C295.658 221.516 295.288 221.446 294.918 221.495C294.555 221.547 294.252 221.734 294.009 222.055L292.996 221.539C293.255 221.147 293.575 220.87 293.954 220.707C294.338 220.537 294.748 220.469 295.185 220.504C295.63 220.542 296.053 220.664 296.453 220.868C297.003 221.148 297.406 221.482 297.663 221.87C297.932 222.254 298.065 222.673 298.062 223.126C298.062 223.572 297.94 224.034 297.696 224.513L295.8 228.234L294.917 227.784L295.392 226.706C295.23 226.831 295.048 226.936 294.846 227.021C294.656 227.102 294.451 227.156 294.23 227.182C294.013 227.2 293.783 227.186 293.539 227.141C293.303 227.1 293.051 227.011 292.784 226.875ZM293.363 226.117C293.638 226.257 293.913 226.328 294.189 226.33C294.477 226.328 294.749 226.269 295.006 226.153C295.267 226.029 295.499 225.865 295.702 225.662C295.912 225.462 296.085 225.229 296.221 224.962L296.251 224.903L294.767 224.147C294.383 223.951 294.049 223.841 293.765 223.815C293.489 223.793 293.258 223.838 293.072 223.951C292.89 224.056 292.747 224.211 292.643 224.415C292.535 224.627 292.486 224.839 292.497 225.052C292.511 225.257 292.59 225.451 292.735 225.633C292.887 225.82 293.096 225.981 293.363 226.117Z" fill="white"/>
</g>
<g filter="url(#filter0_d_2037_687)">
<path d="M101.177 259.02V204.208H115.515V251.941C115.515 255.753 117.421 256.751 121.868 256.751H126.859V270H119.145C108.074 270 101.177 265.554 101.177 259.02ZM136.187 247.404C136.187 232.067 146.804 223.265 163.774 223.265C180.653 223.265 191.271 233.066 191.271 247.404C191.271 261.742 180.653 271.452 163.774 271.452C146.804 271.452 136.187 262.74 136.187 247.404ZM151.614 247.404C151.614 253.121 154.427 257.568 163.683 257.568C172.94 257.568 175.844 253.121 175.844 247.404C175.844 241.687 172.94 237.059 163.683 237.059C154.427 237.059 151.614 241.687 151.614 247.404ZM197.213 247.132C197.213 231.432 207.104 223.265 222.259 223.265C238.231 223.265 247.487 232.34 248.304 243.23H232.786C232.967 244.228 231.062 236.605 221.805 236.696C215.907 236.696 211.369 240.053 211.369 246.95C211.279 253.756 215.453 257.931 221.715 257.931C230.608 258.021 233.33 250.399 233.058 251.306H248.576C246.943 263.013 237.505 271.452 222.35 271.452C206.741 271.452 197.213 262.65 197.213 247.132ZM286.607 265.463C283.43 269.184 278.893 271.452 272.813 271.452C259.564 271.452 250.126 260.562 250.126 247.041C250.126 233.519 259.564 223.265 272.813 223.265C278.802 223.265 283.34 225.352 286.607 228.891C288.422 230.888 288.512 234.699 289.329 237.331L291.779 236.514C290.963 233.973 289.238 230.797 289.238 227.984L289.329 224.626H303.577V270H289.329L289.238 266.28C289.238 263.557 290.963 260.381 291.689 257.749L289.329 257.023C288.512 259.655 288.422 263.376 286.607 265.463ZM264.373 247.041C264.373 253.03 268.82 258.203 273.993 258.203C279.165 258.203 283.793 253.212 283.793 247.041C283.793 241.142 280.436 236.514 273.993 236.514C268.82 236.514 264.373 240.961 264.373 247.041ZM310.943 259.02V204.208H325.282V251.941C325.282 255.753 327.187 256.751 331.634 256.751H336.625V270H328.912C317.84 270 310.943 265.554 310.943 259.02Z" fill="#CBCBCB"/>
</g>
<g filter="url(#filter1_d_2037_687)">
<path d="M368.643 227.671C372.092 225.311 376.085 224.585 381.348 224.585C390.514 224.585 397.501 229.849 397.501 240.194V271.321H383.163V250.539C383.163 242.644 380.531 239.196 374.905 239.196C368.734 239.196 363.652 242.735 363.652 250.539V271.321H349.314V205.438H363.652V225.765C363.652 230.212 361.383 235.475 359.75 239.65L362.019 240.557C363.652 236.383 365.104 230.393 368.643 227.671ZM404.867 248.724C404.867 233.388 415.484 224.585 432.454 224.585C449.333 224.585 459.951 234.386 459.951 248.724C459.951 263.063 449.333 272.773 432.454 272.773C415.484 272.773 404.867 264.061 404.867 248.724ZM420.294 248.724C420.294 254.442 423.107 258.888 432.363 258.888C441.62 258.888 444.524 254.442 444.524 248.724C444.524 243.007 441.62 238.379 432.363 238.379C423.107 238.379 420.294 243.007 420.294 248.724ZM509.883 255.258C509.883 263.426 502.805 272.773 486.288 272.773C467.05 272.773 462.966 261.066 462.966 254.079H477.304C477.304 255.531 479.301 259.433 488.285 259.433C494.819 259.433 495.363 256.62 495.363 256.075C495.363 250.176 463.057 253.262 463.057 238.288C463.057 231.21 469.228 224.585 485.653 224.585C505.799 224.585 509.157 235.112 509.066 240.194H494.728C494.728 238.016 491.733 235.657 484.564 235.657C481.116 235.657 477.304 236.02 477.304 238.016C477.304 242.372 509.883 237.109 509.883 255.258ZM522.473 253.262V237.925H513.398V225.856H522.473V206.708H536.72V225.856H548.518V237.925H536.72V253.262C536.72 256.983 538.445 258.072 542.71 258.072H548.064V271.321H534.542C524.469 271.321 522.473 260.885 522.473 253.262Z" fill="white"/>
</g>
<defs>
<filter id="filter0_d_2037_687" x="101.177" y="204.208" width="238.439" height="70.2349" filterUnits="userSpaceOnUse" color-interpolation-filters="sRGB">
<feFlood flood-opacity="0" result="BackgroundImageFix"/>
<feColorMatrix in="SourceAlpha" type="matrix" values="0 0 0 0 0 0 0 0 0 0 0 0 0 0 0 0 0 0 127 0" result="hardAlpha"/>
<feOffset dx="2.99054" dy="2.99054"/>
<feComposite in2="hardAlpha" operator="out"/>
<feColorMatrix type="matrix" values="0 0 0 0 1 0 0 0 0 1 0 0 0 0 1 0 0 0 1 0"/>
<feBlend mode="normal" in2="BackgroundImageFix" result="effect1_dropShadow_2037_687"/>
<feBlend mode="normal" in="SourceGraphic" in2="effect1_dropShadow_2037_687" result="shape"/>
</filter>
<filter id="filter1_d_2037_687" x="349.314" y="205.438" width="202.194" height="70.3257" filterUnits="userSpaceOnUse" color-interpolation-filters="sRGB">
<feFlood flood-opacity="0" result="BackgroundImageFix"/>
<feColorMatrix in="SourceAlpha" type="matrix" values="0 0 0 0 0 0 0 0 0 0 0 0 0 0 0 0 0 0 127 0" result="hardAlpha"/>
<feOffset dx="2.99054" dy="2.99054"/>
<feComposite in2="hardAlpha" operator="out"/>
<feColorMatrix type="matrix" values="0 0 0 0 0.796078 0 0 0 0 0.796078 0 0 0 0 0.796078 0 0 0 1 0"/>
<feBlend mode="normal" in2="BackgroundImageFix" result="effect1_dropShadow_2037_687"/>
<feBlend mode="normal" in="SourceGraphic" in2="effect1_dropShadow_2037_687" result="shape"/>
</filter>
<clipPath id="clip0_2037_687">
<rect width="601.805" height="248.916" fill="white" transform="translate(113.006) rotate(27)"/>
</clipPath>
</defs>
</svg>
