<svg width="27" height="28" viewBox="0 0 27 28" fill="none" xmlns="http://www.w3.org/2000/svg">
<path fill-rule="evenodd" clip-rule="evenodd" d="M16.5277 2.08552C14.8418 0.398576 12.1084 0.398576 10.4224 2.08552L1.26445 11.249C-0.421484 12.9359 -0.421484 15.671 1.26445 17.358L10.4224 26.5214C12.1084 28.2084 14.8418 28.2084 16.5277 26.5214L25.6857 17.358C27.3716 15.671 27.3716 12.9359 25.6857 11.249L16.5277 2.08552ZM9.74148 15.1939C9.73966 15.5093 9.74512 15.8264 9.77792 16.1418C9.78351 16.193 9.79053 16.2443 9.79751 16.2954C9.80418 16.3441 9.81084 16.3927 9.81617 16.4407C9.78994 16.4582 9.76371 16.457 9.73748 16.4559C9.73588 16.4558 9.73428 16.4557 9.73269 16.4557C9.72772 16.4554 9.72276 16.4553 9.7178 16.4553H8.59381C8.58895 16.4553 8.58409 16.4551 8.57924 16.4549C8.56952 16.4545 8.5598 16.4541 8.55009 16.4553C8.50272 16.4607 8.48815 16.4371 8.48633 16.3915C8.48306 16.2978 8.47784 16.2048 8.47262 16.1116C8.4691 16.049 8.46558 15.986 8.46265 15.923C8.46146 15.8982 8.46181 15.8734 8.46221 15.8456C8.46242 15.8305 8.46265 15.8146 8.46265 15.7973C8.41695 15.813 8.40035 15.841 8.38479 15.8673C8.3805 15.8746 8.37628 15.8817 8.37156 15.8884C8.18757 16.1509 7.96168 16.3587 7.65381 16.468C7.46253 16.5373 7.26397 16.5628 7.06358 16.5574C6.77211 16.5501 6.4861 16.5009 6.22013 16.3696C5.84122 16.1837 5.60622 15.8902 5.53699 15.4691C5.53153 15.4363 5.52606 15.4035 5.49691 15.3817V15.0536C5.52914 15.0367 5.53293 15.0055 5.53659 14.9754C5.53701 14.972 5.53743 14.9685 5.53789 14.9651C5.53818 14.963 5.53848 14.9609 5.53881 14.9588C5.60439 14.5742 5.81936 14.2934 6.15273 14.1021C6.41505 13.9508 6.70288 13.8724 6.99982 13.8286C7.42974 13.7648 7.86148 13.7594 8.29323 13.8232C8.38067 13.8359 8.38796 13.8305 8.37885 13.7411C8.35334 13.4932 8.2404 13.3073 8.00904 13.2016C7.89974 13.1506 7.78315 13.1196 7.66292 13.1104C7.18928 13.0758 6.72474 13.1232 6.28207 13.3073C6.24546 13.3232 6.20992 13.3401 6.17458 13.3569C6.1449 13.371 6.11524 13.3851 6.08532 13.3985C6.05948 13.3841 6.06193 13.3629 6.06412 13.3439C6.06471 13.3388 6.06529 13.3338 6.06529 13.3292L6.06472 13.3084C6.05763 13.0457 6.05057 12.7845 6.04525 12.5217C6.04344 12.4294 6.04522 12.4287 6.12716 12.3967L6.12904 12.3959C6.48792 12.2574 6.86137 12.1808 7.24393 12.148C7.52265 12.1243 7.80137 12.1152 8.08191 12.1462C8.40617 12.1826 8.71768 12.2592 9.00187 12.4287C9.40811 12.6712 9.63036 13.0339 9.71233 13.4914C9.73602 13.6172 9.74148 13.7448 9.74148 13.8724V15.1939ZM6.89598 15.2449C6.95063 15.4181 7.08179 15.5129 7.24939 15.553C7.93435 15.7207 8.36063 15.152 8.38249 14.6361C8.38431 14.596 8.37156 14.5778 8.32784 14.576C8.2424 14.5723 8.15742 14.5682 8.07244 14.5642L8.07189 14.5641C7.98673 14.56 7.90156 14.5559 7.81594 14.5523C7.70664 14.5468 7.59734 14.5596 7.48986 14.5742C7.34412 14.5924 7.20385 14.6307 7.0818 14.7163C6.91056 14.8348 6.83404 15.0499 6.89598 15.2449ZM13.6818 13.4185C13.6308 13.393 13.5835 13.3693 13.5324 13.3474C13.2045 13.2016 12.8621 13.1542 12.5105 13.2362C12.0642 13.342 11.7618 13.6919 11.6998 14.1458C11.6688 14.37 11.6761 14.5906 11.769 14.7984C11.9439 15.1903 12.2609 15.4017 12.6744 15.4692C13.0205 15.5238 13.3557 15.4673 13.68 15.3416C13.6951 15.3357 13.7102 15.3294 13.7249 15.3233C13.7422 15.3161 13.759 15.3092 13.7747 15.3033C13.7971 15.3092 13.7975 15.3213 13.7979 15.3324C13.798 15.334 13.798 15.3356 13.7981 15.3372L13.7984 15.3397C13.8014 15.4445 13.8042 15.549 13.807 15.6534C13.8127 15.8653 13.8184 16.077 13.8257 16.2894C13.8276 16.3514 13.8075 16.3787 13.7474 16.397C13.5197 16.4644 13.2883 16.5081 13.0533 16.5355C12.607 16.5865 12.1662 16.5592 11.7362 16.4298C11.248 16.2821 10.8381 16.0196 10.543 15.5968C10.339 15.3033 10.2315 14.9752 10.1914 14.6216C10.1532 14.2679 10.1842 13.9234 10.2971 13.588C10.5011 12.9902 10.9147 12.5855 11.4921 12.3467C11.933 12.1644 12.3957 12.1079 12.8712 12.1407C13.1572 12.1608 13.4341 12.2118 13.6982 12.323C13.7987 12.3653 13.7985 12.3667 13.7885 12.4641L13.7875 12.4743C13.7602 12.7386 13.7347 13.0029 13.7092 13.2672C13.7085 13.2754 13.7081 13.2837 13.7076 13.292C13.7053 13.3323 13.7029 13.3748 13.6818 13.4185ZM15.7114 12.9502C15.7037 12.9673 15.6948 12.987 15.6584 12.9901V12.3339C15.6584 12.2337 15.6584 12.2319 15.5582 12.2319H14.4342C14.3322 12.2319 14.3304 12.2319 14.3304 12.3321V16.3641C14.3304 16.4571 14.3322 16.4589 14.4269 16.4589H15.693C15.7877 16.4589 15.7877 16.4571 15.7895 16.3643L15.7895 14.638C15.7895 14.4775 15.8023 14.319 15.8314 14.1604C15.866 13.9653 15.9262 13.7794 16.0464 13.6172C16.2286 13.3729 16.5237 13.311 16.7678 13.3638C16.9645 13.4057 17.0757 13.5479 17.1412 13.7284C17.1977 13.8833 17.2105 14.0474 17.2105 14.2114V16.3204C17.2105 16.3289 17.2107 16.3374 17.2109 16.3459C17.2113 16.3629 17.2117 16.3799 17.2105 16.397C17.2068 16.4462 17.2323 16.4608 17.276 16.4571C17.2882 16.4559 17.3003 16.4563 17.3125 16.4567C17.3186 16.4569 17.3246 16.4571 17.3307 16.4571H18.6186C18.6551 16.4589 18.6715 16.4407 18.6697 16.4042C18.6684 16.3872 18.6688 16.3702 18.6692 16.3532C18.6694 16.3447 18.6697 16.3362 18.6697 16.3277C18.6697 16.149 18.6699 15.9705 18.6701 15.7921C18.6705 15.4354 18.6709 15.079 18.6697 14.7218C18.6697 14.565 18.6733 14.4083 18.6952 14.2533C18.7207 14.0674 18.7644 13.8888 18.8555 13.7229C18.9429 13.5662 19.0631 13.4422 19.2398 13.3875C19.6388 13.2654 19.9467 13.4021 20.0487 13.8232C20.076 13.938 20.0888 14.0528 20.0888 14.1695V16.4097C20.0888 16.4389 20.0997 16.4571 20.1325 16.4571H21.4314C21.4945 16.4571 21.5237 16.4589 21.5371 16.4452C21.5507 16.4312 21.5479 16.4012 21.5479 16.3368C21.5479 16.0949 21.5477 15.8532 21.5475 15.6116C21.5471 15.1286 21.5467 14.6458 21.5479 14.1622C21.5479 13.9653 21.5425 13.7703 21.5315 13.5734C21.5224 13.3875 21.4933 13.2034 21.4423 13.0248C21.3093 12.5509 21.0014 12.2647 20.5187 12.1717C20.2673 12.1243 20.0141 12.1116 19.759 12.1498C19.3856 12.2063 19.0577 12.3558 18.7899 12.6311C18.7227 12.6997 18.6658 12.7766 18.6091 12.8532C18.5905 12.8783 18.572 12.9034 18.5531 12.9282C18.5287 12.9096 18.5179 12.8853 18.5073 12.8617C18.5044 12.8552 18.5015 12.8488 18.4984 12.8425C18.3454 12.5363 18.1067 12.3303 17.7861 12.2191C17.4564 12.1043 17.1212 12.1024 16.7842 12.1717C16.316 12.2683 15.9462 12.5108 15.7148 12.9428C15.7137 12.9451 15.7125 12.9476 15.7114 12.9502Z" fill="#1E1E1E"/>
</svg>
