<svg width="140" height="50" viewBox="0 0 140 50" fill="none" xmlns="http://www.w3.org/2000/svg">
<path fill-rule="evenodd" clip-rule="evenodd" d="M30.6245 2.34433C27.5006 -0.781443 22.4358 -0.781443 19.3119 2.34433L2.34292 19.3235C-0.780973 22.4492 -0.780974 27.5171 2.34292 30.6429L19.3119 47.622C22.4358 50.7478 27.5006 50.7478 30.6245 47.622L47.5934 30.6429C50.7173 27.5171 50.7173 22.4492 47.5934 19.3235L30.6245 2.34433ZM18.0501 26.6331C18.0468 27.2174 18.0569 27.805 18.1177 28.3893C18.128 28.4844 18.141 28.5794 18.154 28.6739C18.1663 28.7642 18.1787 28.8542 18.1885 28.9433C18.1399 28.9757 18.0913 28.9735 18.0427 28.9714C18.0398 28.9712 18.0368 28.9711 18.0338 28.971C18.0246 28.9706 18.0155 28.9703 18.0063 28.9703H15.9236C15.9146 28.9703 15.9056 28.9699 15.8966 28.9695C15.8786 28.9688 15.8606 28.968 15.8426 28.9703C15.7548 28.9804 15.7278 28.9365 15.7244 28.8521C15.7184 28.6785 15.7087 28.5061 15.699 28.3335L15.699 28.3331C15.6925 28.217 15.686 28.1008 15.6806 27.9841C15.6784 27.9381 15.679 27.8921 15.6798 27.8406C15.6802 27.8127 15.6806 27.7831 15.6806 27.751C15.5959 27.7801 15.5651 27.8321 15.5363 27.8808C15.5284 27.8943 15.5205 27.9075 15.5118 27.9199C15.1709 28.4062 14.7523 28.7913 14.1819 28.9939C13.8274 29.1223 13.4595 29.1695 13.0882 29.1594C12.5481 29.1459 12.0182 29.0547 11.5254 28.8115C10.8233 28.467 10.3878 27.9233 10.2596 27.1431C10.2495 27.0823 10.2393 27.0215 10.1853 26.9809V26.373C10.245 26.3417 10.252 26.284 10.2588 26.2283C10.2596 26.2218 10.2604 26.2155 10.2612 26.2091C10.2618 26.2052 10.2623 26.2013 10.263 26.1974C10.3845 25.4847 10.7828 24.9646 11.4005 24.6099C11.8865 24.3296 12.4199 24.1844 12.9701 24.1033C13.7667 23.9851 14.5667 23.975 15.3666 24.0932C15.5287 24.1168 15.5422 24.1067 15.5253 23.9412C15.478 23.4819 15.2688 23.1374 14.8401 22.9415C14.6375 22.8469 14.4215 22.7895 14.1987 22.7726C13.3211 22.7084 12.4604 22.7962 11.6401 23.1374C11.5723 23.1667 11.5065 23.1981 11.441 23.2292L11.4407 23.2293C11.3858 23.2555 11.331 23.2816 11.2756 23.3062C11.2277 23.2796 11.2322 23.2404 11.2363 23.2052C11.2374 23.1957 11.2385 23.1865 11.2385 23.1779L11.2374 23.1395C11.2243 22.6526 11.2112 22.1687 11.2013 21.6817C11.198 21.5107 11.2013 21.5094 11.3531 21.45L11.3566 21.4486C12.0216 21.1919 12.7135 21.0501 13.4224 20.9893C13.9388 20.9454 14.4553 20.9285 14.9751 20.9859C15.5759 21.0534 16.1531 21.1953 16.6797 21.5094C17.4324 21.9586 17.8442 22.6307 17.9961 23.4785C18.04 23.7115 18.0501 23.948 18.0501 24.1844V26.6331ZM12.7777 26.7276C12.8789 27.0485 13.122 27.2241 13.4325 27.2984C14.7017 27.6091 15.4915 26.5554 15.532 25.5995C15.5354 25.5252 15.5118 25.4915 15.4308 25.4881C15.2725 25.4813 15.115 25.4738 14.9575 25.4662L14.9565 25.4661C14.7987 25.4585 14.6409 25.4509 14.4823 25.4442C14.2798 25.434 14.0772 25.4577 13.8781 25.4847C13.608 25.5185 13.3481 25.5894 13.122 25.7482C12.8047 25.9677 12.6629 26.3662 12.7777 26.7276ZM25.3513 23.3434C25.2568 23.2961 25.169 23.2522 25.0745 23.2117C24.4669 22.9415 23.8323 22.8537 23.1808 23.0056C22.3539 23.2015 21.7935 23.85 21.6788 24.691C21.6214 25.1064 21.6349 25.5151 21.807 25.9001C22.1311 26.6263 22.7184 27.0181 23.4846 27.1431C24.126 27.2444 24.7471 27.1397 25.3479 26.9066C25.3759 26.8958 25.4038 26.8842 25.4312 26.8728C25.4632 26.8595 25.4943 26.8466 25.5234 26.8357C25.5648 26.8468 25.5656 26.8691 25.5663 26.8897C25.5665 26.8927 25.5666 26.8957 25.5668 26.8985C25.5669 26.9001 25.5671 26.9017 25.5673 26.9033C25.5729 27.0973 25.5781 27.291 25.5833 27.4845C25.5938 27.8771 25.6044 28.2693 25.6179 28.6629C25.6213 28.7778 25.5842 28.8284 25.4728 28.8622C25.0509 28.9872 24.6222 29.0682 24.1867 29.1189C23.3597 29.2135 22.5429 29.1628 21.7463 28.923C20.8417 28.6494 20.0822 28.1631 19.5353 27.3795C19.1573 26.8357 18.9581 26.2278 18.8839 25.5725C18.813 24.9173 18.8704 24.279 19.0797 23.6575C19.4577 22.5497 20.2239 21.7999 21.294 21.3574C22.1108 21.0197 22.9682 20.915 23.8492 20.9758C24.3791 21.0129 24.8922 21.1075 25.3816 21.3135C25.5678 21.3919 25.5675 21.3945 25.549 21.575L25.547 21.5939C25.4964 22.0836 25.4492 22.5733 25.4019 23.0631C25.4007 23.0782 25.3999 23.0935 25.399 23.1091C25.3948 23.1836 25.3904 23.2623 25.3513 23.3434ZM29.1119 22.4756C29.0976 22.5073 29.0812 22.5438 29.0136 22.5497V21.3338C29.0136 21.148 29.0136 21.1446 28.828 21.1446H26.7453C26.5563 21.1446 26.5529 21.1446 26.5529 21.3304V28.8014C26.5529 28.9737 26.5563 28.977 26.7318 28.977H29.0778C29.2532 28.977 29.2533 28.9737 29.2567 28.8016L29.2567 25.6029C29.2567 25.3057 29.2803 25.0119 29.3343 24.718C29.3985 24.3566 29.5098 24.0121 29.7326 23.7115C30.0702 23.2589 30.617 23.1441 31.0693 23.2421C31.4339 23.3197 31.6398 23.5832 31.7613 23.9176C31.8659 24.2046 31.8895 24.5086 31.8895 24.8126V28.7203C31.8895 28.7361 31.8899 28.7519 31.8903 28.7676C31.891 28.7992 31.8918 28.8307 31.8895 28.8622C31.8828 28.9534 31.93 28.9804 32.0111 28.9737C32.0336 28.9714 32.0561 28.9722 32.0786 28.9729C32.0898 28.9733 32.1011 28.9737 32.1123 28.9737H34.4988C34.5663 28.977 34.5967 28.9433 34.5933 28.8757C34.591 28.8442 34.5918 28.8127 34.5925 28.7811C34.5929 28.7654 34.5933 28.7496 34.5933 28.7339C34.5933 28.4027 34.5937 28.072 34.594 27.7414C34.5948 27.0805 34.5955 26.4202 34.5933 25.7583C34.5933 25.4678 34.6 25.1774 34.6405 24.8903C34.6878 24.5458 34.7688 24.2148 34.9376 23.9074C35.0996 23.617 35.3224 23.3873 35.6498 23.286C36.389 23.0597 36.9595 23.313 37.1485 24.0932C37.1991 24.306 37.2228 24.5188 37.2228 24.7349V28.8858C37.2228 28.9399 37.243 28.9737 37.3038 28.9737H39.7105C39.8275 28.9737 39.8816 28.977 39.9064 28.9516C39.9317 28.9257 39.9265 28.8701 39.9265 28.7507C39.9265 28.3025 39.9261 27.8547 39.9258 27.407C39.925 26.512 39.9243 25.6174 39.9265 24.7214C39.9265 24.3566 39.9164 23.9952 39.8961 23.6305C39.8793 23.286 39.8253 22.9448 39.7307 22.6138C39.4843 21.7357 38.9139 21.2054 38.0194 21.0332C37.5536 20.9454 37.0844 20.9217 36.6118 20.9927C35.9198 21.0974 35.3123 21.3743 34.8161 21.8843C34.6915 22.0115 34.5861 22.154 34.4811 22.2959C34.4467 22.3425 34.4123 22.389 34.3773 22.4348C34.3322 22.4004 34.3121 22.3555 34.2925 22.3116C34.2871 22.2996 34.2818 22.2877 34.276 22.2761C33.9925 21.7087 33.5503 21.327 32.9562 21.121C32.3452 20.9082 31.7241 20.9048 31.0997 21.0332C30.2322 21.2122 29.547 21.6614 29.1183 22.4619C29.1161 22.4663 29.114 22.4709 29.1119 22.4756Z" fill="#FEFCD9"/>
<path d="M54.1151 16.5083L56.1629 10.9055H57.3148L59.3626 16.5083H58.2747L57.8267 15.2117H55.643L55.187 16.5083H54.1151ZM55.9229 14.4113H57.5468L56.7309 12.0821L55.9229 14.4113Z" fill="#FEFCD9"/>
<path d="M61.6998 16.6044C61.3478 16.6044 61.0385 16.5483 60.7718 16.4363C60.5052 16.3189 60.2919 16.1588 60.1319 15.956C59.9719 15.7533 59.8759 15.5185 59.8439 15.2517H60.8758C60.9078 15.4064 60.9932 15.5398 61.1318 15.6519C61.2758 15.7586 61.4598 15.812 61.6838 15.812C61.9077 15.812 62.0704 15.7666 62.1717 15.6759C62.2784 15.5852 62.3317 15.4811 62.3317 15.3638C62.3317 15.193 62.257 15.0783 62.1077 15.0196C61.9584 14.9555 61.7504 14.8942 61.4838 14.8355C61.3131 14.7981 61.1398 14.7528 60.9638 14.6994C60.7878 14.6461 60.6252 14.5794 60.4759 14.4993C60.3319 14.4139 60.2146 14.3072 60.1239 14.1792C60.0332 14.0458 59.9879 13.883 59.9879 13.6909C59.9879 13.3387 60.1266 13.0426 60.4039 12.8025C60.6865 12.5623 61.0811 12.4423 61.5878 12.4423C62.057 12.4423 62.4303 12.5517 62.7077 12.7704C62.9903 12.9892 63.1583 13.2907 63.2116 13.6749H62.2437C62.185 13.3814 61.9637 13.2347 61.5798 13.2347C61.3878 13.2347 61.2385 13.272 61.1318 13.3467C61.0305 13.4214 60.9798 13.5148 60.9798 13.6269C60.9798 13.7443 61.0571 13.8376 61.2118 13.907C61.3665 13.9764 61.5718 14.0404 61.8277 14.0991C62.105 14.1631 62.3584 14.2352 62.5877 14.3152C62.8223 14.3899 63.009 14.5047 63.1476 14.6594C63.2863 14.8088 63.3556 15.0249 63.3556 15.3077C63.3609 15.5532 63.2969 15.7746 63.1636 15.9721C63.0303 16.1695 62.8383 16.3242 62.5877 16.4363C62.337 16.5483 62.0411 16.6044 61.6998 16.6044Z" fill="#FEFCD9"/>
<path d="M65.9025 16.6044C65.5505 16.6044 65.2412 16.5483 64.9746 16.4363C64.7079 16.3189 64.4946 16.1588 64.3346 15.956C64.1746 15.7533 64.0787 15.5185 64.0467 15.2517H65.0786C65.1105 15.4064 65.1959 15.5398 65.3345 15.6519C65.4785 15.7586 65.6625 15.812 65.8865 15.812C66.1105 15.812 66.2731 15.7666 66.3744 15.6759C66.4811 15.5852 66.5344 15.4811 66.5344 15.3638C66.5344 15.193 66.4598 15.0783 66.3104 15.0196C66.1611 14.9555 65.9531 14.8942 65.6865 14.8355C65.5158 14.7981 65.3425 14.7528 65.1665 14.6994C64.9906 14.6461 64.8279 14.5794 64.6786 14.4993C64.5346 14.4139 64.4173 14.3072 64.3266 14.1792C64.236 14.0458 64.1906 13.883 64.1906 13.6909C64.1906 13.3387 64.3293 13.0426 64.6066 12.8025C64.8892 12.5623 65.2839 12.4423 65.7905 12.4423C66.2598 12.4423 66.6331 12.5517 66.9104 12.7704C67.193 12.9892 67.361 13.2907 67.4143 13.6749H66.4464C66.3878 13.3814 66.1665 13.2347 65.7825 13.2347C65.5905 13.2347 65.4412 13.272 65.3345 13.3467C65.2332 13.4214 65.1825 13.5148 65.1825 13.6269C65.1825 13.7443 65.2599 13.8376 65.4145 13.907C65.5692 13.9764 65.7745 14.0404 66.0305 14.0991C66.3078 14.1631 66.5611 14.2352 66.7904 14.3152C67.025 14.3899 67.2117 14.5047 67.3503 14.6594C67.489 14.8088 67.5583 15.0249 67.5583 15.3077C67.5637 15.5532 67.4997 15.7746 67.3663 15.9721C67.233 16.1695 67.041 16.3242 66.7904 16.4363C66.5397 16.5483 66.2438 16.6044 65.9025 16.6044Z" fill="#FEFCD9"/>
<path d="M70.3692 16.6044C69.9852 16.6044 69.6386 16.5163 69.3293 16.3402C69.0253 16.1642 68.7827 15.9214 68.6013 15.6119C68.4254 15.2971 68.3374 14.9342 68.3374 14.5233C68.3374 14.1125 68.428 13.7523 68.6093 13.4428C68.7907 13.128 69.0333 12.8825 69.3373 12.7064C69.6466 12.5303 69.9932 12.4423 70.3772 12.4423C70.7558 12.4423 71.0971 12.5303 71.4011 12.7064C71.7104 12.8825 71.953 13.128 72.129 13.4428C72.3103 13.7523 72.401 14.1125 72.401 14.5233C72.401 14.9342 72.3103 15.2971 72.129 15.6119C71.953 15.9214 71.7104 16.1642 71.4011 16.3402C71.0918 16.5163 70.7478 16.6044 70.3692 16.6044ZM70.3692 15.7159C70.6358 15.7159 70.8678 15.6172 71.0651 15.4198C71.2624 15.217 71.3611 14.9182 71.3611 14.5233C71.3611 14.1285 71.2624 13.8323 71.0651 13.6349C70.8678 13.4321 70.6385 13.3307 70.3772 13.3307C70.1052 13.3307 69.8705 13.4321 69.6732 13.6349C69.4813 13.8323 69.3853 14.1285 69.3853 14.5233C69.3853 14.9182 69.4813 15.217 69.6732 15.4198C69.8705 15.6172 70.1025 15.7159 70.3692 15.7159Z" fill="#FEFCD9"/>
<path d="M75.2603 16.6044C74.855 16.6044 74.4977 16.5163 74.1884 16.3402C73.8791 16.1642 73.6338 15.9187 73.4524 15.6039C73.2765 15.289 73.1885 14.9289 73.1885 14.5233C73.1885 14.1178 73.2765 13.7576 73.4524 13.4428C73.6338 13.128 73.8791 12.8825 74.1884 12.7064C74.4977 12.5303 74.855 12.4423 75.2603 12.4423C75.7669 12.4423 76.1935 12.5757 76.5401 12.8425C76.8868 13.1039 77.1081 13.4668 77.2041 13.931H76.1242C76.0709 13.7389 75.9642 13.5895 75.8042 13.4828C75.6496 13.3707 75.4656 13.3147 75.2523 13.3147C74.9696 13.3147 74.7296 13.4214 74.5323 13.6349C74.335 13.8483 74.2364 14.1445 74.2364 14.5233C74.2364 14.9022 74.335 15.1983 74.5323 15.4118C74.7296 15.6252 74.9696 15.7319 75.2523 15.7319C75.4656 15.7319 75.6496 15.6786 75.8042 15.5719C75.9642 15.4651 76.0709 15.3131 76.1242 15.1156H77.2041C77.1081 15.5639 76.8868 15.924 76.5401 16.1962C76.1935 16.4683 75.7669 16.6044 75.2603 16.6044Z" fill="#FEFCD9"/>
<path d="M78.6648 11.922C78.4782 11.922 78.3235 11.866 78.2009 11.7539C78.0835 11.6419 78.0249 11.5005 78.0249 11.3297C78.0249 11.159 78.0835 11.0202 78.2009 10.9135C78.3235 10.8014 78.4782 10.7454 78.6648 10.7454C78.8515 10.7454 79.0034 10.8014 79.1208 10.9135C79.2434 11.0202 79.3047 11.159 79.3047 11.3297C79.3047 11.5005 79.2434 11.6419 79.1208 11.7539C79.0034 11.866 78.8515 11.922 78.6648 11.922ZM78.1529 16.5083V12.5383H79.1768V16.5083H78.1529Z" fill="#FEFCD9"/>
<path d="M81.6133 16.6044C81.272 16.6044 80.9921 16.551 80.7734 16.4443C80.5548 16.3322 80.3921 16.1855 80.2855 16.0041C80.1788 15.8226 80.1255 15.6225 80.1255 15.4038C80.1255 15.0356 80.2695 14.7368 80.5574 14.5073C80.8454 14.2779 81.2774 14.1631 81.8533 14.1631H82.8612V14.0671C82.8612 13.795 82.7839 13.5949 82.6292 13.4668C82.4746 13.3387 82.2826 13.2747 82.0533 13.2747C81.8453 13.2747 81.664 13.3254 81.5094 13.4268C81.3547 13.5228 81.2587 13.6669 81.2214 13.859H80.2215C80.2481 13.5708 80.3441 13.3201 80.5094 13.1066C80.6801 12.8932 80.8988 12.7304 81.1654 12.6184C81.432 12.501 81.7307 12.4423 82.0613 12.4423C82.6266 12.4423 83.0719 12.5837 83.3972 12.8665C83.7225 13.1493 83.8851 13.5495 83.8851 14.0671V16.5083H83.0132L82.9172 15.868C82.7999 16.0814 82.6346 16.2575 82.4213 16.3963C82.2133 16.535 81.944 16.6044 81.6133 16.6044ZM81.8453 15.804C82.1386 15.804 82.3653 15.7079 82.5253 15.5158C82.6906 15.3237 82.7946 15.0863 82.8372 14.8035H81.9653C81.6933 14.8035 81.4987 14.8542 81.3814 14.9555C81.264 15.0516 81.2054 15.1717 81.2054 15.3157C81.2054 15.4705 81.264 15.5905 81.3814 15.6759C81.4987 15.7613 81.6534 15.804 81.8453 15.804Z" fill="#FEFCD9"/>
<path d="M86.5754 16.5083C86.1594 16.5083 85.8261 16.4069 85.5755 16.2042C85.3248 16.0014 85.1995 15.6412 85.1995 15.1236V13.3948H84.5196V12.5383H85.1995L85.3195 11.4738H86.2234V12.5383H87.2953V13.3948H86.2234V15.1316C86.2234 15.3237 86.2634 15.4571 86.3434 15.5318C86.4287 15.6012 86.5727 15.6359 86.7754 15.6359H87.2713V16.5083H86.5754Z" fill="#FEFCD9"/>
<path d="M88.7263 11.922C88.5397 11.922 88.3851 11.866 88.2624 11.7539C88.1451 11.6419 88.0864 11.5005 88.0864 11.3297C88.0864 11.159 88.1451 11.0202 88.2624 10.9135C88.3851 10.8014 88.5397 10.7454 88.7263 10.7454C88.913 10.7454 89.065 10.8014 89.1823 10.9135C89.305 11.0202 89.3663 11.159 89.3663 11.3297C89.3663 11.5005 89.305 11.6419 89.1823 11.7539C89.065 11.866 88.913 11.922 88.7263 11.922ZM88.2144 16.5083V12.5383H89.2383V16.5083H88.2144Z" fill="#FEFCD9"/>
<path d="M92.2108 16.6044C91.8269 16.6044 91.4802 16.5163 91.1709 16.3402C90.867 16.1642 90.6243 15.9214 90.443 15.6119C90.267 15.2971 90.179 14.9342 90.179 14.5233C90.179 14.1125 90.2697 13.7523 90.451 13.4428C90.6323 13.128 90.875 12.8825 91.1789 12.7064C91.4882 12.5303 91.8349 12.4423 92.2188 12.4423C92.5975 12.4423 92.9388 12.5303 93.2427 12.7064C93.552 12.8825 93.7947 13.128 93.9707 13.4428C94.152 13.7523 94.2426 14.1125 94.2426 14.5233C94.2426 14.9342 94.152 15.2971 93.9707 15.6119C93.7947 15.9214 93.552 16.1642 93.2427 16.3402C92.9334 16.5163 92.5895 16.6044 92.2108 16.6044ZM92.2108 15.7159C92.4775 15.7159 92.7095 15.6172 92.9068 15.4198C93.1041 15.217 93.2027 14.9182 93.2027 14.5233C93.2027 14.1285 93.1041 13.8323 92.9068 13.6349C92.7095 13.4321 92.4801 13.3307 92.2188 13.3307C91.9469 13.3307 91.7122 13.4321 91.5149 13.6349C91.3229 13.8323 91.2269 14.1285 91.2269 14.5233C91.2269 14.9182 91.3229 15.217 91.5149 15.4198C91.7122 15.6172 91.9442 15.7159 92.2108 15.7159Z" fill="#FEFCD9"/>
<path d="M95.1581 16.5083V12.5383H96.062L96.142 13.2107C96.2647 12.9759 96.4407 12.7891 96.67 12.6504C96.9046 12.5116 97.1793 12.4423 97.4939 12.4423C97.9845 12.4423 98.3658 12.597 98.6378 12.9065C98.9098 13.216 99.0457 13.6696 99.0457 14.2672V16.5083H98.0218V14.3632C98.0218 14.0217 97.9525 13.7603 97.8139 13.5788C97.6752 13.3974 97.4592 13.3067 97.1659 13.3067C96.878 13.3067 96.6406 13.4081 96.454 13.6109C96.2727 13.8136 96.182 14.0964 96.182 14.4593V16.5083H95.1581Z" fill="#FEFCD9"/>
<path d="M102.115 16.5083V13.3948H101.571V12.5383H102.115V12.0741C102.115 11.5938 102.235 11.2523 102.475 11.0496C102.72 10.8468 103.051 10.7454 103.467 10.7454H103.907V11.6179H103.627C103.451 11.6179 103.325 11.6525 103.251 11.7219C103.176 11.7913 103.139 11.9087 103.139 12.0741V12.5383H103.995V13.3948H103.139V16.5083H102.115Z" fill="#FEFCD9"/>
<path d="M106.553 16.6044C106.169 16.6044 105.823 16.5163 105.513 16.3402C105.209 16.1642 104.967 15.9214 104.785 15.6119C104.609 15.2971 104.521 14.9342 104.521 14.5233C104.521 14.1125 104.612 13.7523 104.793 13.4428C104.975 13.128 105.217 12.8825 105.521 12.7064C105.831 12.5303 106.177 12.4423 106.561 12.4423C106.94 12.4423 107.281 12.5303 107.585 12.7064C107.894 12.8825 108.137 13.128 108.313 13.4428C108.494 13.7523 108.585 14.1125 108.585 14.5233C108.585 14.9342 108.494 15.2971 108.313 15.6119C108.137 15.9214 107.894 16.1642 107.585 16.3402C107.276 16.5163 106.932 16.6044 106.553 16.6044ZM106.553 15.7159C106.82 15.7159 107.052 15.6172 107.249 15.4198C107.446 15.217 107.545 14.9182 107.545 14.5233C107.545 14.1285 107.446 13.8323 107.249 13.6349C107.052 13.4321 106.823 13.3307 106.561 13.3307C106.289 13.3307 106.055 13.4321 105.857 13.6349C105.665 13.8323 105.569 14.1285 105.569 14.5233C105.569 14.9182 105.665 15.217 105.857 15.4198C106.055 15.6172 106.287 15.7159 106.553 15.7159Z" fill="#FEFCD9"/>
<path d="M109.5 16.5083V12.5383H110.412L110.508 13.2827C110.652 13.0266 110.847 12.8238 111.092 12.6744C111.343 12.5196 111.636 12.4423 111.972 12.4423V13.5228H111.684C111.46 13.5228 111.26 13.5575 111.084 13.6269C110.908 13.6962 110.77 13.8163 110.668 13.9871C110.572 14.1578 110.524 14.3953 110.524 14.6994V16.5083H109.5Z" fill="#FEFCD9"/>
<path d="M57.0108 27.1097C56.4455 27.1097 55.9603 26.9896 55.555 26.7495C55.1497 26.504 54.8377 26.1652 54.6191 25.733C54.4004 25.2954 54.2911 24.7912 54.2911 24.2202C54.2911 23.6493 54.4004 23.145 54.6191 22.7075C54.8377 22.2699 55.1497 21.9284 55.555 21.6829C55.9603 21.4375 56.4455 21.3148 57.0108 21.3148C57.6828 21.3148 58.232 21.4828 58.6587 21.819C59.0906 22.1498 59.3599 22.6167 59.4666 23.2197H58.3387C58.2694 22.9156 58.1201 22.6781 57.8907 22.5074C57.6668 22.3313 57.3681 22.2432 56.9948 22.2432C56.4775 22.2432 56.0722 22.4193 55.7789 22.7715C55.4856 23.1237 55.339 23.6066 55.339 24.2202C55.339 24.8339 55.4856 25.3168 55.7789 25.6689C56.0722 26.0158 56.4775 26.1892 56.9948 26.1892C57.3681 26.1892 57.6668 26.1092 57.8907 25.9491C58.1201 25.7837 58.2694 25.5569 58.3387 25.2687H59.4666C59.3599 25.845 59.0906 26.2959 58.6587 26.6214C58.232 26.9469 57.6828 27.1097 57.0108 27.1097Z" fill="#FEFCD9"/>
<path d="M62.2528 27.1097C61.8688 27.1097 61.5222 27.0216 61.2129 26.8455C60.9089 26.6695 60.6662 26.4267 60.4849 26.1172C60.3089 25.8024 60.221 25.4395 60.221 25.0286C60.221 24.6178 60.3116 24.2576 60.4929 23.9481C60.6742 23.6333 60.9169 23.3878 61.2209 23.2117C61.5302 23.0356 61.8768 22.9476 62.2608 22.9476C62.6394 22.9476 62.9807 23.0356 63.2847 23.2117C63.594 23.3878 63.8366 23.6333 64.0126 23.9481C64.1939 24.2576 64.2846 24.6178 64.2846 25.0286C64.2846 25.4395 64.1939 25.8024 64.0126 26.1172C63.8366 26.4267 63.594 26.6695 63.2847 26.8455C62.9754 27.0216 62.6314 27.1097 62.2528 27.1097ZM62.2528 26.2212C62.5194 26.2212 62.7514 26.1225 62.9487 25.9251C63.146 25.7223 63.2447 25.4235 63.2447 25.0286C63.2447 24.6338 63.146 24.3376 62.9487 24.1402C62.7514 23.9374 62.5221 23.836 62.2608 23.836C61.9888 23.836 61.7541 23.9374 61.5568 24.1402C61.3648 24.3376 61.2689 24.6338 61.2689 25.0286C61.2689 25.4235 61.3648 25.7223 61.5568 25.9251C61.7541 26.1225 61.9861 26.2212 62.2528 26.2212Z" fill="#FEFCD9"/>
<path d="M65.2 27.0136V23.0436H66.104L66.1919 23.5799C66.3199 23.3878 66.4879 23.2357 66.6959 23.1237C66.9092 23.0063 67.1545 22.9476 67.4318 22.9476C68.0451 22.9476 68.4797 23.185 68.7357 23.6599C68.8797 23.4412 69.0717 23.2677 69.3117 23.1397C69.557 23.0116 69.8236 22.9476 70.1116 22.9476C70.6289 22.9476 71.0262 23.1023 71.3035 23.4118C71.5808 23.7213 71.7194 24.1749 71.7194 24.7725V27.0136H70.6955V24.8685C70.6955 24.527 70.6289 24.2656 70.4955 24.0842C70.3675 23.9027 70.1676 23.812 69.8956 23.812C69.6183 23.812 69.3943 23.9134 69.2237 24.1162C69.0583 24.3189 68.9757 24.6017 68.9757 24.9646V27.0136H67.9518V24.8685C67.9518 24.527 67.8851 24.2656 67.7518 24.0842C67.6185 23.9027 67.4132 23.812 67.1359 23.812C66.8639 23.812 66.6426 23.9134 66.4719 24.1162C66.3066 24.3189 66.2239 24.6017 66.2239 24.9646V27.0136H65.2Z" fill="#FEFCD9"/>
<path d="M72.6915 28.7745V23.0436H73.6034L73.7154 23.6119C73.8434 23.4358 74.0114 23.2811 74.2194 23.1477C74.4327 23.0143 74.7073 22.9476 75.0433 22.9476C75.4166 22.9476 75.7499 23.0383 76.0432 23.2197C76.3365 23.4011 76.5685 23.6493 76.7391 23.9641C76.9098 24.2789 76.9951 24.6364 76.9951 25.0366C76.9951 25.4368 76.9098 25.7943 76.7391 26.1092C76.5685 26.4187 76.3365 26.6641 76.0432 26.8455C75.7499 27.0216 75.4166 27.1097 75.0433 27.1097C74.7447 27.1097 74.4833 27.0536 74.2594 26.9416C74.0354 26.8295 73.8541 26.6721 73.7154 26.4694V28.7745H72.6915ZM74.8273 26.2132C75.1526 26.2132 75.4219 26.1038 75.6352 25.8851C75.8485 25.6663 75.9552 25.3835 75.9552 25.0366C75.9552 24.6898 75.8485 24.4043 75.6352 24.1802C75.4219 23.9561 75.1526 23.844 74.8273 23.844C74.4967 23.844 74.2247 23.9561 74.0114 24.1802C73.8034 24.399 73.6994 24.6818 73.6994 25.0286C73.6994 25.3755 73.8034 25.6609 74.0114 25.8851C74.2247 26.1038 74.4967 26.2132 74.8273 26.2132Z" fill="#FEFCD9"/>
<path d="M79.3976 27.1097C78.9017 27.1097 78.5177 26.9549 78.2457 26.6454C77.9791 26.336 77.8458 25.8824 77.8458 25.2848V23.0436H78.8617V25.1887C78.8617 25.5302 78.931 25.7917 79.0696 25.9731C79.2083 26.1545 79.4269 26.2452 79.7256 26.2452C80.0082 26.2452 80.2402 26.1439 80.4215 25.9411C80.6082 25.7383 80.7015 25.4555 80.7015 25.0927V23.0436H81.7254V27.0136H80.8215L80.7415 26.3413C80.6188 26.5761 80.4402 26.7628 80.2055 26.9016C79.9762 27.0403 79.7069 27.1097 79.3976 27.1097Z" fill="#FEFCD9"/>
<path d="M84.5443 27.0136C84.1284 27.0136 83.7951 26.9122 83.5444 26.7095C83.2938 26.5067 83.1684 26.1465 83.1684 25.6289V23.9001H82.4885V23.0436H83.1684L83.2884 21.9791H84.1923V23.0436H85.2643V23.9001H84.1923V25.6369C84.1923 25.829 84.2323 25.9624 84.3123 26.0371C84.3977 26.1065 84.5416 26.1412 84.7443 26.1412H85.2402V27.0136H84.5443Z" fill="#FEFCD9"/>
<path d="M86.6953 22.4273C86.5087 22.4273 86.354 22.3713 86.2313 22.2592C86.114 22.1472 86.0554 22.0058 86.0554 21.835C86.0554 21.6643 86.114 21.5255 86.2313 21.4188C86.354 21.3067 86.5087 21.2507 86.6953 21.2507C86.8819 21.2507 87.0339 21.3067 87.1513 21.4188C87.2739 21.5255 87.3352 21.6643 87.3352 21.835C87.3352 22.0058 87.2739 22.1472 87.1513 22.2592C87.0339 22.3713 86.8819 22.4273 86.6953 22.4273ZM86.1833 27.0136V23.0436H87.2072V27.0136H86.1833Z" fill="#FEFCD9"/>
<path d="M88.276 27.0136V23.0436H89.1799L89.2599 23.716C89.3825 23.4812 89.5585 23.2944 89.7878 23.1557C90.0225 23.0169 90.2971 22.9476 90.6117 22.9476C91.1024 22.9476 91.4837 23.1023 91.7556 23.4118C92.0276 23.7213 92.1636 24.1749 92.1636 24.7725V27.0136H91.1397V24.8685C91.1397 24.527 91.0704 24.2656 90.9317 24.0842C90.7931 23.9027 90.5771 23.812 90.2838 23.812C89.9958 23.812 89.7585 23.9134 89.5718 24.1162C89.3905 24.3189 89.2999 24.6017 89.2999 24.9646V27.0136H88.276Z" fill="#FEFCD9"/>
<path d="M94.8225 25.829C94.6305 25.829 94.4519 25.8077 94.2866 25.765L93.9906 26.0611C94.0813 26.1092 94.2039 26.1492 94.3586 26.1812C94.5132 26.2132 94.7639 26.2452 95.1105 26.2773C95.6384 26.3253 96.0224 26.4507 96.2624 26.6534C96.5024 26.8562 96.6223 27.1364 96.6223 27.4939C96.6223 27.7287 96.5584 27.9501 96.4304 28.1582C96.3024 28.3716 96.1051 28.5424 95.8384 28.6705C95.5718 28.8039 95.2305 28.8706 94.8145 28.8706C94.2492 28.8706 93.7933 28.7638 93.4466 28.5504C93.1 28.3423 92.9267 28.0275 92.9267 27.6059C92.9267 27.2484 93.1 26.9389 93.4466 26.6775C93.34 26.6294 93.2467 26.5787 93.1667 26.5254C93.092 26.472 93.0254 26.416 92.9667 26.3573V26.1732L93.6626 25.4368C93.3533 25.1647 93.1987 24.8152 93.1987 24.3883C93.1987 24.1215 93.2627 23.8787 93.3907 23.6599C93.524 23.4412 93.7106 23.2677 93.9506 23.1397C94.1906 23.0116 94.4812 22.9476 94.8225 22.9476C95.0465 22.9476 95.2545 22.9796 95.4465 23.0436H96.9503V23.6679L96.2704 23.716C96.377 23.9187 96.4304 24.1428 96.4304 24.3883C96.4304 24.6551 96.3664 24.8979 96.2384 25.1167C96.1104 25.3354 95.9237 25.5089 95.6784 25.6369C95.4385 25.765 95.1532 25.829 94.8225 25.829ZM94.8225 25.0446C95.0305 25.0446 95.2011 24.9886 95.3345 24.8766C95.4731 24.7645 95.5424 24.6044 95.5424 24.3963C95.5424 24.1882 95.4731 24.0281 95.3345 23.9161C95.2011 23.804 95.0305 23.748 94.8225 23.748C94.6039 23.748 94.4279 23.804 94.2946 23.9161C94.1612 24.0281 94.0946 24.1882 94.0946 24.3963C94.0946 24.6044 94.1612 24.7645 94.2946 24.8766C94.4279 24.9886 94.6039 25.0446 94.8225 25.0446ZM93.8626 27.5019C93.8626 27.6993 93.9533 27.846 94.1346 27.9421C94.3212 28.0435 94.5479 28.0942 94.8145 28.0942C95.0705 28.0942 95.2785 28.0408 95.4385 27.9341C95.5984 27.8327 95.6784 27.694 95.6784 27.5179C95.6784 27.3738 95.6251 27.2537 95.5184 27.1577C95.4171 27.0617 95.2118 27.003 94.9025 26.9816C94.6839 26.9656 94.4812 26.9416 94.2946 26.9096C94.1399 26.995 94.0279 27.0883 93.9586 27.1897C93.8946 27.2911 93.8626 27.3952 93.8626 27.5019Z" fill="#FEFCD9"/>
<path d="M99.627 27.0136V21.4108H100.843L102.627 24.9646L104.387 21.4108H105.602V27.0136H104.579V23.1477L103.019 26.2132H102.211L100.651 23.1477V27.0136H99.627Z" fill="#FEFCD9"/>
<path d="M108.033 27.1097C107.691 27.1097 107.411 27.0563 107.193 26.9496C106.974 26.8375 106.811 26.6908 106.705 26.5094C106.598 26.3279 106.545 26.1278 106.545 25.9091C106.545 25.5409 106.689 25.2421 106.977 25.0126C107.265 24.7832 107.697 24.6684 108.273 24.6684H109.281V24.5724C109.281 24.3003 109.203 24.1002 109.049 23.9721C108.894 23.844 108.702 23.78 108.473 23.78C108.265 23.78 108.083 23.8307 107.929 23.9321C107.774 24.0281 107.678 24.1722 107.641 24.3643H106.641C106.667 24.0761 106.763 23.8254 106.929 23.6119C107.099 23.3985 107.318 23.2357 107.585 23.1237C107.851 23.0063 108.15 22.9476 108.481 22.9476C109.046 22.9476 109.491 23.089 109.817 23.3718C110.142 23.6546 110.304 24.0548 110.304 24.5724V27.0136H109.433L109.337 26.3733C109.219 26.5867 109.054 26.7628 108.841 26.9016C108.633 27.0403 108.363 27.1097 108.033 27.1097ZM108.265 26.3093C108.558 26.3093 108.785 26.2132 108.945 26.0211C109.11 25.829 109.214 25.5916 109.257 25.3088H108.385C108.113 25.3088 107.918 25.3595 107.801 25.4608C107.683 25.5569 107.625 25.677 107.625 25.821C107.625 25.9758 107.683 26.0958 107.801 26.1812C107.918 26.2666 108.073 26.3093 108.265 26.3093Z" fill="#FEFCD9"/>
<path d="M113.225 27.1097C112.82 27.1097 112.463 27.0216 112.153 26.8455C111.844 26.6695 111.599 26.424 111.418 26.1092C111.242 25.7943 111.154 25.4342 111.154 25.0286C111.154 24.6231 111.242 24.2629 111.418 23.9481C111.599 23.6333 111.844 23.3878 112.153 23.2117C112.463 23.0356 112.82 22.9476 113.225 22.9476C113.732 22.9476 114.159 23.081 114.505 23.3478C114.852 23.6092 115.073 23.9721 115.169 24.4363H114.089C114.036 24.2442 113.929 24.0948 113.769 23.9881C113.615 23.876 113.431 23.82 113.217 23.82C112.935 23.82 112.695 23.9267 112.497 24.1402C112.3 24.3536 112.201 24.6498 112.201 25.0286C112.201 25.4075 112.3 25.7036 112.497 25.9171C112.695 26.1305 112.935 26.2372 113.217 26.2372C113.431 26.2372 113.615 26.1839 113.769 26.0772C113.929 25.9704 114.036 25.8184 114.089 25.6209H115.169C115.073 26.0692 114.852 26.4293 114.505 26.7015C114.159 26.9736 113.732 27.1097 113.225 27.1097Z" fill="#FEFCD9"/>
<path d="M116.078 27.0136V21.2507H117.102V23.6519C117.235 23.4332 117.414 23.2624 117.638 23.1397C117.867 23.0116 118.128 22.9476 118.422 22.9476C118.912 22.9476 119.291 23.1023 119.558 23.4118C119.83 23.7213 119.966 24.1749 119.966 24.7725V27.0136H118.95V24.8685C118.95 24.527 118.88 24.2656 118.742 24.0842C118.608 23.9027 118.395 23.812 118.102 23.812C117.814 23.812 117.574 23.9134 117.382 24.1162C117.195 24.3189 117.102 24.6017 117.102 24.9646V27.0136H116.078Z" fill="#FEFCD9"/>
<path d="M121.497 22.4273C121.31 22.4273 121.155 22.3713 121.033 22.2592C120.915 22.1472 120.857 22.0058 120.857 21.835C120.857 21.6643 120.915 21.5255 121.033 21.4188C121.155 21.3067 121.31 21.2507 121.497 21.2507C121.683 21.2507 121.835 21.3067 121.953 21.4188C122.075 21.5255 122.137 21.6643 122.137 21.835C122.137 22.0058 122.075 22.1472 121.953 22.2592C121.835 22.3713 121.683 22.4273 121.497 22.4273ZM120.985 27.0136V23.0436H122.009V27.0136H120.985Z" fill="#FEFCD9"/>
<path d="M123.077 27.0136V23.0436H123.981L124.061 23.716C124.184 23.4812 124.36 23.2944 124.589 23.1557C124.824 23.0169 125.098 22.9476 125.413 22.9476C125.904 22.9476 126.285 23.1023 126.557 23.4118C126.829 23.7213 126.965 24.1749 126.965 24.7725V27.0136H125.941V24.8685C125.941 24.527 125.872 24.2656 125.733 24.0842C125.594 23.9027 125.378 23.812 125.085 23.812C124.797 23.812 124.56 23.9134 124.373 24.1162C124.192 24.3189 124.101 24.6017 124.101 24.9646V27.0136H123.077Z" fill="#FEFCD9"/>
<path d="M129.872 27.1097C129.472 27.1097 129.117 27.0243 128.808 26.8535C128.499 26.6828 128.256 26.4427 128.08 26.1332C127.904 25.8237 127.816 25.4662 127.816 25.0606C127.816 24.6498 127.901 24.2843 128.072 23.9641C128.248 23.6439 128.488 23.3958 128.792 23.2197C129.101 23.0383 129.464 22.9476 129.88 22.9476C130.269 22.9476 130.613 23.033 130.912 23.2037C131.21 23.3745 131.442 23.6092 131.608 23.9081C131.778 24.2015 131.864 24.5297 131.864 24.8926C131.864 24.9513 131.861 25.0126 131.856 25.0767C131.856 25.1407 131.853 25.2074 131.848 25.2768H128.832C128.853 25.5862 128.96 25.829 129.152 26.0051C129.349 26.1812 129.587 26.2693 129.864 26.2693C130.072 26.2693 130.245 26.2239 130.384 26.1332C130.528 26.0371 130.634 25.9144 130.704 25.765H131.744C131.669 26.0158 131.544 26.2452 131.368 26.4533C131.197 26.6561 130.984 26.8162 130.728 26.9336C130.477 27.051 130.192 27.1097 129.872 27.1097ZM129.88 23.78C129.629 23.78 129.408 23.852 129.216 23.9961C129.024 24.1348 128.901 24.3483 128.848 24.6364H130.824C130.808 24.375 130.712 24.1669 130.536 24.0121C130.36 23.8574 130.141 23.78 129.88 23.78Z" fill="#FEFCD9"/>
<path d="M132.725 27.0136V23.0436H133.637L133.733 23.788C133.877 23.5319 134.071 23.3291 134.317 23.1797C134.567 23.0249 134.861 22.9476 135.197 22.9476V24.0281H134.909C134.685 24.0281 134.485 24.0628 134.309 24.1322C134.133 24.2015 133.994 24.3216 133.893 24.4924C133.797 24.6631 133.749 24.9006 133.749 25.2047V27.0136H132.725Z" fill="#FEFCD9"/>
<path d="M136.392 28.7745L137.312 26.7495H137.072L135.528 23.0436H136.64L137.752 25.837L138.912 23.0436H140L137.48 28.7745H136.392Z" fill="#FEFCD9"/>
<path d="M55.641 39.5199L54.0631 35.3178H54.6091L55.9349 38.9857L57.2728 35.3178H57.8067L56.2289 39.5199H55.641Z" fill="#FEFCD9"/>
<path d="M58.3825 39.5199V35.3178H58.8865V39.5199H58.3825Z" fill="#FEFCD9"/>
<path d="M60.7608 39.5199V35.732H59.5069V35.3178H62.5186V35.732H61.2648V39.5199H60.7608Z" fill="#FEFCD9"/>
<path d="M66.0596 39.592C65.7516 39.592 65.4837 39.5359 65.2557 39.4239C65.0277 39.3118 64.8517 39.1558 64.7277 38.9557C64.6038 38.7556 64.5418 38.5234 64.5418 38.2593H65.0697C65.0697 38.4234 65.1077 38.5755 65.1837 38.7155C65.2597 38.8516 65.3697 38.9617 65.5137 39.0457C65.6617 39.1257 65.8436 39.1658 66.0596 39.1658C66.3436 39.1658 66.5636 39.0977 66.7196 38.9617C66.8755 38.8256 66.9535 38.6555 66.9535 38.4514C66.9535 38.2833 66.9175 38.1492 66.8455 38.0492C66.7736 37.9451 66.6756 37.8611 66.5516 37.7971C66.4316 37.733 66.2916 37.677 66.1316 37.629C65.9756 37.581 65.8116 37.5269 65.6397 37.4669C65.3157 37.3548 65.0757 37.2168 64.9197 37.0527C64.7637 36.8846 64.6857 36.6665 64.6857 36.3984C64.6817 36.1743 64.7337 35.9762 64.8417 35.8041C64.9497 35.628 65.1017 35.4919 65.2977 35.3959C65.4977 35.2958 65.7336 35.2458 66.0056 35.2458C66.2736 35.2458 66.5056 35.2958 66.7016 35.3959C66.9015 35.4959 67.0555 35.634 67.1635 35.8101C67.2755 35.9862 67.3335 36.1863 67.3375 36.4104H66.8095C66.8095 36.2943 66.7795 36.1803 66.7196 36.0682C66.6596 35.9521 66.5676 35.8581 66.4436 35.7861C66.3236 35.714 66.1716 35.678 65.9876 35.678C65.7596 35.674 65.5717 35.732 65.4237 35.8521C65.2797 35.9721 65.2077 36.1382 65.2077 36.3503C65.2077 36.5304 65.2577 36.6685 65.3577 36.7645C65.4617 36.8606 65.6057 36.9406 65.7896 37.0047C65.9736 37.0647 66.1856 37.1347 66.4256 37.2148C66.6256 37.2868 66.8055 37.3709 66.9655 37.4669C67.1255 37.563 67.2495 37.687 67.3375 37.8391C67.4295 37.9912 67.4755 38.1853 67.4755 38.4214C67.4755 38.6215 67.4235 38.8116 67.3195 38.9917C67.2155 39.1678 67.0575 39.3118 66.8455 39.4239C66.6376 39.5359 66.3756 39.592 66.0596 39.592Z" fill="#FEFCD9"/>
<path d="M69.3361 39.5199C69.0641 39.5199 68.8501 39.4539 68.6941 39.3218C68.5381 39.1898 68.4601 38.9517 68.4601 38.6075V36.9687H67.9442V36.5424H68.4601L68.5261 35.8281H68.9641V36.5424H69.84V36.9687H68.9641V38.6075C68.9641 38.7956 69.0021 38.9236 69.0781 38.9917C69.1541 39.0557 69.2881 39.0877 69.48 39.0877H69.792V39.5199H69.3361Z" fill="#FEFCD9"/>
<path d="M71.5662 39.592C71.2142 39.592 70.9342 39.4859 70.7262 39.2738C70.5182 39.0577 70.4143 38.7275 70.4143 38.2833V36.5424H70.9182V38.2293C70.9182 38.8496 71.1722 39.1598 71.6801 39.1598C71.9401 39.1598 72.1541 39.0677 72.3221 38.8836C72.4941 38.6955 72.5801 38.4294 72.5801 38.0852V36.5424H73.084V39.5199H72.628L72.5921 38.9857C72.5001 39.1738 72.3621 39.3218 72.1781 39.4299C71.9981 39.5379 71.7941 39.592 71.5662 39.592Z" fill="#FEFCD9"/>
<path d="M75.2634 39.592C74.9674 39.592 74.7074 39.5239 74.4835 39.3879C74.2635 39.2518 74.0915 39.0657 73.9675 38.8296C73.8475 38.5935 73.7875 38.3253 73.7875 38.0252C73.7875 37.725 73.8495 37.4589 73.9735 37.2268C74.0975 36.9907 74.2695 36.8066 74.4895 36.6745C74.7094 36.5384 74.9694 36.4704 75.2694 36.4704C75.5134 36.4704 75.7293 36.5204 75.9173 36.6205C76.1053 36.7205 76.2513 36.8606 76.3553 37.0407V35.1978H76.8592V39.5199H76.4033L76.3553 39.0277C76.2593 39.1718 76.1213 39.3018 75.9413 39.4179C75.7613 39.5339 75.5354 39.592 75.2634 39.592ZM75.3174 39.1538C75.5174 39.1538 75.6934 39.1077 75.8453 39.0157C76.0013 38.9196 76.1213 38.7876 76.2053 38.6195C76.2933 38.4514 76.3373 38.2553 76.3373 38.0312C76.3373 37.8071 76.2933 37.611 76.2053 37.4429C76.1213 37.2748 76.0013 37.1447 75.8453 37.0527C75.6934 36.9566 75.5174 36.9086 75.3174 36.9086C75.1214 36.9086 74.9454 36.9566 74.7894 37.0527C74.6375 37.1447 74.5175 37.2748 74.4295 37.4429C74.3455 37.611 74.3035 37.8071 74.3035 38.0312C74.3035 38.2553 74.3455 38.4514 74.4295 38.6195C74.5175 38.7876 74.6375 38.9196 74.7894 39.0157C74.9454 39.1077 75.1214 39.1538 75.3174 39.1538Z" fill="#FEFCD9"/>
<path d="M79.0186 39.592C78.7346 39.592 78.4827 39.5279 78.2627 39.3999C78.0427 39.2678 77.8687 39.0857 77.7407 38.8536C77.6167 38.6215 77.5547 38.3473 77.5547 38.0312C77.5547 37.719 77.6167 37.4469 77.7407 37.2148C77.8647 36.9787 78.0367 36.7966 78.2567 36.6685C78.4807 36.5364 78.7386 36.4704 79.0306 36.4704C79.3186 36.4704 79.5666 36.5364 79.7745 36.6685C79.9865 36.7966 80.1485 36.9666 80.2605 37.1788C80.3725 37.3909 80.4285 37.619 80.4285 37.8631C80.4285 37.9071 80.4265 37.9511 80.4225 37.9952C80.4225 38.0392 80.4225 38.0892 80.4225 38.1452H78.0527C78.0647 38.3734 78.1167 38.5635 78.2087 38.7155C78.3047 38.8636 78.4227 38.9757 78.5627 39.0517C78.7066 39.1277 78.8586 39.1658 79.0186 39.1658C79.2266 39.1658 79.4006 39.1177 79.5406 39.0217C79.6805 38.9256 79.7825 38.7956 79.8465 38.6315H80.3445C80.2645 38.9076 80.1105 39.1377 79.8825 39.3218C79.6585 39.5019 79.3706 39.592 79.0186 39.592ZM79.0186 36.8966C78.7786 36.8966 78.5647 36.9706 78.3767 37.1187C78.1927 37.2628 78.0867 37.4749 78.0587 37.755H79.9305C79.9185 37.4869 79.8265 37.2768 79.6545 37.1247C79.4826 36.9727 79.2706 36.8966 79.0186 36.8966Z" fill="#FEFCD9"/>
<path d="M81.0964 39.5199V36.5424H81.5524L81.5824 37.0767C81.6784 36.8886 81.8164 36.7405 81.9963 36.6325C82.1763 36.5244 82.3803 36.4704 82.6083 36.4704C82.9603 36.4704 83.2402 36.5785 83.4482 36.7946C83.6602 37.0067 83.7662 37.3348 83.7662 37.7791V39.5199H83.2622V37.8331C83.2622 37.2128 83.0062 36.9026 82.4943 36.9026C82.2383 36.9026 82.0243 36.9967 81.8524 37.1848C81.6844 37.3689 81.6004 37.633 81.6004 37.9772V39.5199H81.0964Z" fill="#FEFCD9"/>
<path d="M85.7056 39.5199C85.4336 39.5199 85.2196 39.4539 85.0636 39.3218C84.9077 39.1898 84.8297 38.9517 84.8297 38.6075V36.9687H84.3137V36.5424H84.8297L84.8957 35.8281H85.3336V36.5424H86.2095V36.9687H85.3336V38.6075C85.3336 38.7956 85.3716 38.9236 85.4476 38.9917C85.5236 39.0557 85.6576 39.0877 85.8496 39.0877H86.1615V39.5199H85.7056Z" fill="#FEFCD9"/>
<path d="M90.3093 39.592C89.8974 39.592 89.5414 39.5019 89.2414 39.3218C88.9455 39.1377 88.7155 38.8836 88.5515 38.5595C88.3875 38.2313 88.3055 37.8511 88.3055 37.4189C88.3055 36.9907 88.3875 36.6145 88.5515 36.2903C88.7155 35.9621 88.9455 35.706 89.2414 35.5219C89.5414 35.3378 89.8974 35.2458 90.3093 35.2458C90.7893 35.2458 91.1793 35.3618 91.4792 35.594C91.7832 35.8221 91.9772 36.1422 92.0612 36.5544H91.5032C91.4392 36.2943 91.3072 36.0862 91.1073 35.9301C90.9113 35.77 90.6453 35.69 90.3093 35.69C90.0094 35.69 89.7474 35.76 89.5234 35.9001C89.2994 36.0362 89.1255 36.2343 89.0015 36.4944C88.8815 36.7505 88.8215 37.0587 88.8215 37.4189C88.8215 37.7791 88.8815 38.0892 89.0015 38.3493C89.1255 38.6055 89.2994 38.8036 89.5234 38.9436C89.7474 39.0797 90.0094 39.1477 90.3093 39.1477C90.6453 39.1477 90.9113 39.0717 91.1073 38.9196C91.3072 38.7636 91.4392 38.5575 91.5032 38.3013H92.0612C91.9772 38.7055 91.7832 39.0217 91.4792 39.2498C91.1793 39.4779 90.7893 39.592 90.3093 39.592Z" fill="#FEFCD9"/>
<path d="M92.7555 39.5199V35.1978H93.2594V37.0527C93.3594 36.8686 93.5014 36.7265 93.6854 36.6265C93.8694 36.5224 94.0693 36.4704 94.2853 36.4704C94.6293 36.4704 94.9053 36.5785 95.1132 36.7946C95.3212 37.0067 95.4252 37.3348 95.4252 37.7791V39.5199H94.9273V37.8331C94.9273 37.2128 94.6773 36.9026 94.1773 36.9026C93.9174 36.9026 93.6994 36.9967 93.5234 37.1848C93.3474 37.3689 93.2594 37.633 93.2594 37.9772V39.5199H92.7555Z" fill="#FEFCD9"/>
<path d="M97.1786 39.592C96.9307 39.592 96.7247 39.5499 96.5607 39.4659C96.3967 39.3819 96.2747 39.2698 96.1947 39.1297C96.1147 38.9897 96.0747 38.8376 96.0747 38.6735C96.0747 38.3694 96.1907 38.1352 96.4227 37.9712C96.6547 37.8071 96.9707 37.725 97.3706 37.725H98.1745V37.689C98.1745 37.4289 98.1065 37.2328 97.9706 37.1007C97.8346 36.9646 97.6526 36.8966 97.4246 36.8966C97.2286 36.8966 97.0587 36.9466 96.9147 37.0467C96.7747 37.1427 96.6867 37.2848 96.6507 37.4729H96.1347C96.1547 37.2568 96.2267 37.0747 96.3507 36.9266C96.4787 36.7786 96.6367 36.6665 96.8247 36.5905C97.0127 36.5104 97.2126 36.4704 97.4246 36.4704C97.8406 36.4704 98.1525 36.5825 98.3605 36.8066C98.5725 37.0267 98.6785 37.3208 98.6785 37.689V39.5199H98.2285L98.1985 38.9857C98.1145 39.1538 97.9906 39.2978 97.8266 39.4179C97.6666 39.5339 97.4506 39.592 97.1786 39.592ZM97.2566 39.1658C97.4486 39.1658 97.6126 39.1157 97.7486 39.0157C97.8886 38.9156 97.9946 38.7856 98.0666 38.6255C98.1385 38.4654 98.1745 38.2973 98.1745 38.1212V38.1152H97.4126C97.1166 38.1152 96.9067 38.1673 96.7827 38.2713C96.6627 38.3714 96.6027 38.4974 96.6027 38.6495C96.6027 38.8056 96.6587 38.9316 96.7707 39.0277C96.8867 39.1197 97.0487 39.1658 97.2566 39.1658Z" fill="#FEFCD9"/>
<path d="M99.4345 40.8406V36.5424H99.8905L99.9385 37.0347C100.034 36.8906 100.17 36.7605 100.346 36.6445C100.526 36.5284 100.754 36.4704 101.03 36.4704C101.326 36.4704 101.584 36.5384 101.804 36.6745C102.024 36.8106 102.194 36.9967 102.314 37.2328C102.438 37.4689 102.5 37.737 102.5 38.0372C102.5 38.3373 102.438 38.6055 102.314 38.8416C102.194 39.0737 102.022 39.2578 101.798 39.3939C101.578 39.5259 101.32 39.592 101.024 39.592C100.78 39.592 100.562 39.542 100.37 39.4419C100.182 39.3418 100.038 39.2018 99.9385 39.0217V40.8406H99.4345ZM100.97 39.1538C101.17 39.1538 101.346 39.1077 101.498 39.0157C101.65 38.9196 101.77 38.7876 101.858 38.6195C101.946 38.4514 101.99 38.2553 101.99 38.0312C101.99 37.8071 101.946 37.611 101.858 37.4429C101.77 37.2748 101.65 37.1447 101.498 37.0527C101.346 36.9566 101.17 36.9086 100.97 36.9086C100.77 36.9086 100.594 36.9566 100.442 37.0527C100.29 37.1447 100.17 37.2748 100.082 37.4429C99.9945 37.611 99.9505 37.8071 99.9505 38.0312C99.9505 38.2553 99.9945 38.4514 100.082 38.6195C100.17 38.7876 100.29 38.9196 100.442 39.0157C100.594 39.1077 100.77 39.1538 100.97 39.1538Z" fill="#FEFCD9"/>
<path d="M104.26 39.5199C103.988 39.5199 103.774 39.4539 103.619 39.3218C103.463 39.1898 103.385 38.9517 103.385 38.6075V36.9687H102.869V36.5424H103.385L103.451 35.8281H103.888V36.5424H104.764V36.9687H103.888V38.6075C103.888 38.7956 103.926 38.9236 104.002 38.9917C104.078 39.0557 104.212 39.0877 104.404 39.0877H104.716V39.5199H104.26Z" fill="#FEFCD9"/>
<path d="M106.66 39.592C106.377 39.592 106.125 39.5279 105.905 39.3999C105.685 39.2678 105.511 39.0857 105.383 38.8536C105.259 38.6215 105.197 38.3473 105.197 38.0312C105.197 37.719 105.259 37.4469 105.383 37.2148C105.507 36.9787 105.679 36.7966 105.899 36.6685C106.123 36.5364 106.381 36.4704 106.672 36.4704C106.96 36.4704 107.208 36.5364 107.416 36.6685C107.628 36.7966 107.79 36.9666 107.902 37.1788C108.014 37.3909 108.07 37.619 108.07 37.8631C108.07 37.9071 108.068 37.9511 108.064 37.9952C108.064 38.0392 108.064 38.0892 108.064 38.1452H105.695C105.707 38.3734 105.759 38.5635 105.851 38.7155C105.947 38.8636 106.065 38.9757 106.205 39.0517C106.349 39.1277 106.501 39.1658 106.66 39.1658C106.868 39.1658 107.042 39.1177 107.182 39.0217C107.322 38.9256 107.424 38.7956 107.488 38.6315H107.986C107.906 38.9076 107.752 39.1377 107.524 39.3218C107.3 39.5019 107.012 39.592 106.66 39.592ZM106.66 36.8966C106.421 36.8966 106.207 36.9706 106.019 37.1187C105.835 37.2628 105.729 37.4749 105.701 37.755H107.572C107.56 37.4869 107.468 37.2768 107.296 37.1247C107.124 36.9727 106.912 36.8966 106.66 36.8966Z" fill="#FEFCD9"/>
<path d="M108.738 39.5199V36.5424H109.194L109.236 37.1127C109.328 36.9166 109.468 36.7605 109.656 36.6445C109.844 36.5284 110.076 36.4704 110.352 36.4704V36.9987H110.214C110.038 36.9987 109.876 37.0307 109.728 37.0947C109.58 37.1547 109.462 37.2588 109.374 37.4069C109.286 37.5549 109.242 37.759 109.242 38.0192V39.5199H108.738Z" fill="#FEFCD9"/>
</svg>
