<svg width="764" height="390" viewBox="0 0 675 390" fill="none" xmlns="http://www.w3.org/2000/svg">
<g opacity="0.4" clip-path="url(#clip0_1_8)">
<path d="M691.981 257.973L691.981 257.576H691.981V257.973ZM698.638 262.745L699.035 262.745L699.035 262.745L698.638 262.745ZM691.981 267.519L691.981 267.916L691.981 267.916L691.981 267.519ZM659.873 267.519V267.122H659.306L659.5 267.654L659.873 267.519ZM703.53 387.466L703.903 387.33L703.903 387.33L703.53 387.466ZM701.628 391.544L701.763 391.917L701.763 391.917L701.628 391.544ZM697.55 389.642L697.923 389.506L697.923 389.506L697.55 389.642ZM653.1 267.519L653.473 267.383L653.378 267.122H653.1V267.519ZM256.917 267.519V267.122H256.639L256.544 267.383L256.917 267.519ZM212.468 389.642L212.095 389.506L212.095 389.506L212.468 389.642ZM208.389 391.544L208.254 391.917L208.254 391.917L208.389 391.544ZM206.487 387.466L206.114 387.33L206.114 387.33L206.487 387.466ZM250.144 267.519L250.517 267.654L250.711 267.122H250.144V267.519ZM218.036 267.519L218.036 267.916H218.036V267.519ZM211.38 262.745L210.983 262.745V262.745H211.38ZM218.036 257.973L218.036 257.576L218.036 257.576L218.036 257.973ZM691.981 257.973L691.981 258.37C693.746 258.37 695.327 258.883 696.457 259.693C697.588 260.504 698.241 261.588 698.242 262.745L698.638 262.745L699.035 262.745C699.035 261.267 698.198 259.965 696.92 259.048C695.64 258.131 693.893 257.576 691.981 257.576L691.981 257.973ZM698.638 262.745H698.242C698.242 263.902 697.588 264.987 696.457 265.798C695.327 266.608 693.746 267.122 691.981 267.122L691.981 267.519L691.981 267.916C693.893 267.916 695.64 267.36 696.92 266.443C698.199 265.526 699.035 264.224 699.035 262.745H698.638ZM691.981 267.519V267.122H659.873V267.519V267.916H691.981V267.519ZM659.873 267.519L659.5 267.654L703.157 387.602L703.53 387.466L703.903 387.33L660.246 267.383L659.873 267.519ZM703.53 387.466L703.157 387.602C703.683 389.047 702.937 390.645 701.492 391.171L701.628 391.544L701.763 391.917C703.62 391.241 704.579 389.187 703.903 387.33L703.53 387.466ZM701.628 391.544L701.492 391.171C700.047 391.697 698.449 390.951 697.923 389.506L697.55 389.642L697.177 389.777C697.852 391.634 699.906 392.593 701.763 391.917L701.628 391.544ZM697.55 389.642L697.923 389.506L653.473 267.383L653.1 267.519L652.727 267.654L697.177 389.777L697.55 389.642ZM653.1 267.519V267.122H256.917V267.519V267.916H653.1V267.519ZM256.917 267.519L256.544 267.383L212.095 389.506L212.468 389.642L212.841 389.777L257.29 267.654L256.917 267.519ZM212.468 389.642L212.095 389.506C211.569 390.951 209.97 391.697 208.525 391.171L208.389 391.544L208.254 391.917C210.111 392.593 212.165 391.635 212.841 389.777L212.468 389.642ZM208.389 391.544L208.525 391.171C207.08 390.645 206.334 389.047 206.86 387.602L206.487 387.466L206.114 387.33C205.438 389.187 206.397 391.241 208.254 391.917L208.389 391.544ZM206.487 387.466L206.86 387.602L250.517 267.654L250.144 267.519L249.771 267.383L206.114 387.33L206.487 387.466ZM250.144 267.519V267.122H218.036V267.519V267.916H250.144V267.519ZM218.036 267.519L218.036 267.122C216.271 267.122 214.69 266.608 213.56 265.798C212.43 264.987 211.777 263.902 211.777 262.745H211.38H210.983C210.983 264.224 211.819 265.526 213.098 266.443C214.377 267.36 216.124 267.916 218.036 267.916L218.036 267.519ZM211.38 262.745L211.777 262.745C211.777 261.588 212.43 260.504 213.561 259.693C214.69 258.883 216.271 258.37 218.036 258.37L218.036 257.973L218.036 257.576C216.124 257.576 214.377 258.131 213.098 259.048C211.82 259.965 210.983 261.267 210.983 262.745L211.38 262.745ZM218.036 257.973V258.37H691.981V257.973V257.576H218.036V257.973Z" fill="white"/>
<path d="M583.289 242.336H529.057L523.089 259.986H589.258L583.289 242.336Z" fill="#FED601" stroke="white" stroke-width="0.796107" stroke-linecap="round" stroke-linejoin="round"/>
<path d="M484.682 223.608C485.149 223.608 485.518 224.008 485.475 224.476C485.337 225.971 484.863 231.152 484.347 237.206C483.986 241.441 483.604 246.104 483.302 250.231C482.988 254.528 482.761 258.234 482.734 260.274C482.728 260.709 482.374 261.064 481.934 261.064H464.925C464.485 261.064 464.132 260.708 464.126 260.273C464.099 258.202 463.875 254.506 463.563 250.231C463.262 246.1 462.88 241.439 462.518 237.207C462 231.151 461.523 225.972 461.384 224.477C461.341 224.009 461.71 223.608 462.177 223.608H484.682Z" fill="white" stroke="white" stroke-width="0.796107"/>
<path d="M483.95 237.173H462.913C463.276 241.406 463.658 246.069 463.959 250.202H482.904C483.207 246.073 483.589 241.409 483.95 237.173Z" fill="#BF0C34"/>
<rect x="463.261" y="219.305" width="20.2409" height="3.85811" rx="0.796107" fill="#ABABAB" stroke="white" stroke-width="0.796107"/>
<rect x="460.398" y="221.672" width="25.9661" height="3.32746" rx="0.796107" fill="#CCCCCC" stroke="white" stroke-width="0.796107"/>
<path d="M244.907 221.085C244.74 220.395 245.209 219.712 245.913 219.621L299.854 212.578C300.54 212.488 301.158 212.997 301.201 213.687L303.731 254.301C303.774 254.989 303.228 255.57 302.54 255.57H254.17C253.618 255.57 253.138 255.192 253.009 254.656L244.907 221.085Z" fill="white"/>
<path d="M249.527 218.423C249.454 217.718 250.007 217.105 250.715 217.105H306.608C307.317 217.105 307.869 217.718 307.796 218.423L304.063 254.499C304 255.107 303.487 255.57 302.875 255.57H254.448C253.836 255.57 253.323 255.107 253.26 254.499L249.527 218.423Z" stroke="white" stroke-width="1.19416"/>
<rect x="251.565" y="256.816" width="54.1954" height="3.10319" rx="1.55159" fill="white"/>
<ellipse cx="278.661" cy="237.56" rx="4.4608" ry="3.58612" stroke="white" stroke-width="1.19416"/>
<path d="M342.243 250.391L350.28 229.752L393.958 238.148C392.001 249.342 396.404 258.437 398.85 261.585L353.424 262.285L342.243 250.391Z" fill="#FF85B0"/>
<path d="M346.482 240.34L387.678 240.34C383.688 236.782 386.015 233.243 387.678 231.919L346.482 231.919C342.059 235.779 344.639 239.141 346.482 240.34Z" stroke="white" stroke-width="0.796107"/>
<path d="M349.547 248.382L390.742 248.382C386.753 244.986 389.08 241.608 390.742 240.344L349.547 240.344C345.124 244.029 347.704 247.238 349.547 248.382Z" stroke="white" stroke-width="0.796107"/>
<path d="M346.482 256.803L387.678 256.803C383.688 253.245 386.015 249.706 387.678 248.382L346.482 248.382C342.059 252.242 344.639 255.604 346.482 256.803Z" stroke="white" stroke-width="0.796107"/>
<path d="M373.503 198.401C354.735 193.537 345.082 214.736 343.062 220.087L344.872 216.366L363.9 211.773L364.977 222.372L357.77 230.575C365.033 232.129 376.364 233.672 382.395 225.491C387.456 218.626 392.499 206.457 373.503 198.401Z" fill="#FED501"/>
<path d="M373.702 200.987C354.529 195.938 345.768 208.942 343.705 214.497L347.006 216.331L366.445 211.563L367.546 222.567L360.182 231.082C367.602 232.696 379.178 234.297 385.34 225.804C390.51 218.677 393.598 207.752 373.702 200.987Z" stroke="white" stroke-width="0.796107"/>
<path d="M340.746 211.739C340.163 213.434 341.541 218.935 342.302 221.474C341.938 222.037 343.395 234.885 358.825 231.772C371.169 229.282 371.033 219.322 369.421 214.653C369.156 210.812 367.169 206.871 366.209 205.381C363.905 205.991 362.247 209.454 361.706 211.11C356.117 210.606 349.863 213.262 347.435 214.653C347.09 213.646 342.832 212.291 340.746 211.739Z" fill="#FED501"/>
<path d="M340.816 211.523C340.233 213.218 341.611 218.719 342.372 221.258C342.008 221.821 343.465 234.668 358.895 231.556C371.239 229.066 371.103 219.106 369.491 214.437C369.226 210.596 367.239 206.656 366.279 205.166C363.975 205.775 362.317 209.238 361.776 210.894C356.187 210.391 349.933 213.046 347.505 214.437C347.16 213.43 342.902 212.075 340.816 211.523Z" stroke="white" stroke-width="0.796107"/>
<path d="M386.049 218.279C386.161 214.083 383.971 210.543 383.135 209.013C382.551 207.942 380.534 204.883 377.092 202.752C376.995 202.692 381.579 204.304 382.615 204.841C384.075 205.597 386.218 207.034 388.625 210.736C390.722 213.961 392.04 227.364 382.615 231.428C375.693 234.412 375.295 231.428 374.759 230.915C374.224 230.403 374.409 226.536 376.877 226.562C379.961 226.594 385.846 225.945 386.049 218.279Z" fill="#FED501"/>
<path d="M384.529 209.741C385.372 211.288 386.431 213.772 386.316 218.016C386.105 225.768 380.839 226.709 377.722 226.678C375.228 226.654 374.736 229.064 374.897 230.802C375.058 232.541 377.209 235.038 384.529 231.116C393.679 226.215 391.762 214.843 390.028 211.364C388.624 208.548 384.728 205.731 383.252 204.966C382.206 204.424 377.613 202.543 377.722 202.579C380.069 203.35 383.228 207.354 384.529 209.741Z" stroke="white" stroke-width="0.796107"/>
<path d="M345.063 222.452C346.109 223.306 348.789 224.13 351.142 220.604C350.783 222.832 347.645 226.339 345.063 222.452Z" fill="white"/>
<path d="M365.018 217.827C364.502 219.074 362.534 221.071 358.789 219.083C360.162 220.873 364.588 222.473 365.018 217.827Z" fill="white"/>
<path d="M341.963 213.628C341.671 214.741 342.912 218.881 343.155 219.753C343.817 217.534 345.439 216.022 346.069 215.647C345.473 214.554 341.963 213.363 341.963 213.628Z" fill="white" stroke="white" stroke-width="0.796107"/>
<path d="M365.94 207.836C366.667 208.727 367.154 211.541 367.295 212.435C366.09 211.645 363.851 211.19 363.123 211.11C363.211 209.869 365.83 207.595 365.94 207.836Z" fill="white" stroke="white" stroke-width="0.796107"/>
<ellipse cx="2.38408" cy="2.38416" rx="2.38408" ry="2.38416" transform="matrix(0.994968 -0.100196 0.100189 0.994968 352.024 221.854)" fill="white"/>
<ellipse cx="2.38408" cy="2.38403" rx="2.38408" ry="2.38403" transform="matrix(0.994968 -0.10019 0.100194 0.994968 356.314 220.644)" fill="white"/>
<path d="M37.2384 240.715C46.4646 224.735 38.5608 208.703 54.0262 221.887C97.0648 262.948 91.5753 272.786 82.3491 288.766C71.3803 294.031 71.092 306.77 52.5137 296.043C33.9354 285.317 28.0122 256.696 37.2384 240.715Z" fill="#FF85B0"/>
<path d="M133.003 183.965C120.939 170.003 125.69 152.772 112.977 168.626C78.4185 217.042 85.6584 225.673 97.7225 239.635C109.485 242.746 112.161 255.203 128.394 241.178C144.626 227.152 145.067 197.928 133.003 183.965Z" fill="#FF85B0"/>
<path d="M134.091 236.924C150.817 229.13 153.542 211.464 158.644 231.135C170.334 289.459 160.194 294.367 143.469 302.162C131.464 300.181 123.919 310.448 114.857 291.004C105.796 271.559 117.366 244.719 134.091 236.924Z" fill="#FF85B0"/>
<path d="M124.18 231.558C140.087 222.207 141.118 204.362 148.07 223.458C165.261 280.404 155.634 286.255 139.726 295.607C127.588 294.778 121.055 305.717 110.183 287.223C99.3106 268.73 108.273 240.91 124.18 231.558Z" stroke="white" stroke-width="1.59221"/>
<path d="M117.264 192.052C102.87 180.506 104.422 162.699 94.7908 180.594C69.5748 234.469 78.2585 241.646 92.6523 253.192C104.784 254.12 109.672 265.886 123.096 249.152C136.519 232.419 131.658 203.598 117.264 192.052Z" stroke="white" stroke-width="1.59221"/>
<path d="M117.436 306.424C114.148 314.589 115.896 331.972 117.18 339.643L118.78 339.768C118.137 333.879 117.88 328.94 117.656 325.336C117.145 313.665 118.259 308.235 123.528 298.487C128.796 288.739 130.303 279.478 129.641 274.416C129.113 270.365 129.951 262.042 130.436 258.387C130.796 256.53 131.696 252.398 132.415 250.726C133.314 248.636 132.507 247.791 131.681 247.772C130.855 247.754 130.238 248.579 129.038 252.163C127.838 255.747 127.301 263.199 127.461 275.256C127.62 287.314 121.545 296.217 117.436 306.424Z" fill="white"/>
<path d="M103.828 293.322C105.287 302.002 99.8522 318.606 96.9523 325.823L95.3634 325.602C97.254 319.988 98.5644 315.219 99.5558 311.747C102.559 300.457 102.635 294.914 99.5797 284.263C96.5246 273.612 97.0395 264.244 98.7712 259.441C100.157 255.598 101.123 247.289 101.433 243.614C101.479 241.724 101.487 237.495 101.143 235.707C100.713 233.473 101.683 232.821 102.494 232.98C103.305 233.139 103.73 234.077 104.133 237.835C104.536 241.593 103.463 248.987 100.721 260.729C97.9787 272.472 102.004 282.472 103.828 293.322Z" fill="white"/>
<path d="M49.8719 243.826C59.0981 227.845 51.1943 211.814 66.6596 224.997C109.698 266.059 104.209 275.896 94.9826 291.877C84.0138 297.142 83.7255 309.88 65.1472 299.154C46.5689 288.427 40.6457 259.806 49.8719 243.826Z" stroke="white" stroke-width="1.59221"/>
<path d="M80.4172 310.852C81.811 319.543 92.2716 333.536 97.3277 339.446L98.7625 338.728C95.1754 334.014 92.4083 329.914 90.3585 326.942C83.9018 317.206 82.057 311.979 81.5445 300.91C81.0321 289.841 77.5475 281.13 74.3704 277.133C71.8287 273.935 68.2552 266.372 66.7863 262.99C66.1372 261.213 64.7775 257.209 64.5315 255.406C64.2241 253.151 63.0967 252.843 62.3793 253.253C61.6619 253.663 61.5594 254.688 62.3793 258.378C63.1992 262.067 66.5813 268.729 72.9356 278.978C79.2898 289.227 78.6749 299.988 80.4172 310.852Z" fill="white"/>
<ellipse opacity="0.4" cx="104.137" cy="382.088" rx="31.9763" ry="5.1244" fill="#ABABAB"/>
<path d="M78.5776 312.21C105.102 312.21 115.635 312.21 135.574 312.21C155.513 312.21 123.091 383.002 123.091 383.002H86.7698C86.7698 383.002 52.0529 312.21 78.5776 312.21Z" fill="white"/>
<path d="M73.1434 312.558H129.638C130.824 312.558 131.794 312.81 132.583 313.267C133.371 313.724 133.997 314.396 134.477 315.269C135.445 317.026 135.812 319.579 135.696 322.712C135.464 328.969 133.314 337.341 130.534 345.748C127.756 354.147 124.361 362.549 121.659 368.853C120.308 372.004 119.132 374.631 118.293 376.469C117.873 377.388 117.538 378.11 117.307 378.602C117.194 378.843 117.107 379.03 117.047 379.156H81.4774L81.4764 379.154C81.4124 379.028 81.3176 378.84 81.1951 378.594C80.9501 378.102 80.5934 377.38 80.1492 376.461C79.2609 374.624 78.0209 371.998 76.6151 368.848C73.8025 362.545 70.3283 354.146 67.6756 345.752C65.0194 337.347 63.201 328.989 63.6668 322.751C63.8996 319.634 64.7 317.089 66.2078 315.327C67.7045 313.579 69.9377 312.558 73.1434 312.558Z" stroke="white" stroke-width="0.694832"/>
<path d="M82.1941 314.885C79.3582 317.066 72.2466 323.916 74.3409 331.246C76.2107 337.79 78.922 340.408 82.1941 344.335C85.4662 348.262 86.9061 355.591 82.1941 361.35C77.4821 367.11 82.4123 375.094 85.4664 379.02" stroke="white" stroke-width="0.680652" stroke-linecap="round"/>
<path d="M98.2806 314.885C95.4446 317.066 88.3331 323.916 90.4273 331.246C92.2972 337.79 95.0084 340.408 98.2806 344.335C101.553 348.262 102.993 355.591 98.2806 361.35C93.5686 367.11 98.4988 375.094 101.553 379.02" stroke="white" stroke-width="0.680652" stroke-linecap="round"/>
<path d="M112.679 314.885C109.843 317.066 102.732 323.916 104.826 331.246C106.696 337.79 109.407 340.408 112.679 344.335C115.951 348.262 117.391 355.591 112.679 361.35C107.967 367.11 112.897 375.094 115.951 379.02" stroke="white" stroke-width="0.680652" stroke-linecap="round"/>
<path d="M128.384 314.885C125.548 317.066 118.437 323.916 120.531 331.246C122.401 337.79 126.041 343.68 129.313 347.607" stroke="white" stroke-width="0.680652" stroke-linecap="round"/>
</g>
<defs>
<clipPath id="clip0_1_8">
<rect width="764" height="389.759" fill="white"/>
</clipPath>
</defs>
</svg>
