<svg width="1765" height="134" viewBox="0 0 1765 134" fill="none" xmlns="http://www.w3.org/2000/svg">
<g opacity="0.99" filter="url(#filter0_n_1_66)">
<path d="M49.1402 48.227C74.9056 50.7504 92.4368 56.3285 92.4368 78.1096C92.4368 93.5157 76.8978 107.062 47.8121 107.062C17.3983 107.062 3.18747 90.3283 3.18747 73.0628H22.8436C23.1092 80.2346 27.2263 91.1251 47.8121 91.1251C66.6713 91.1251 72.2494 83.8205 72.2494 79.1721C72.2494 72.7971 67.3354 68.68 47.8121 66.555C16.8671 63.1019 6.90619 54.4692 6.90619 38.0006C6.90619 23.3913 22.3123 11.4383 48.0777 11.4383C76.4994 11.4383 88.054 26.0475 88.4524 41.188H69.1948C69.1948 35.0787 64.2807 27.3756 47.8121 27.3756C31.3435 27.3756 27.2263 33.485 27.2263 37.2037C27.2263 40.7896 29.2185 46.3677 49.1402 48.227ZM150.837 34.8131C169.298 34.8131 181.65 44.6411 181.65 64.5628V106H162.525V71.469C162.525 55.6645 157.345 51.2817 146.056 51.2817C133.572 51.2817 122.15 62.305 122.15 78.508V106H103.025V10.3758H122.15V40.2583C122.15 44.5083 121.221 47.0317 120.025 49.8208C119.494 51.0161 118.564 52.8754 120.291 53.2739C121.353 53.5395 121.885 52.7426 122.549 51.6801C126.931 44.7739 135.963 34.8131 150.837 34.8131ZM270.962 70.0081C270.962 71.8675 270.829 73.7268 270.431 75.719H209.072C210.666 85.8127 219.166 91.6564 232.314 91.6564C242.408 91.6564 247.587 87.4064 249.978 81.5627H269.501C265.915 96.0391 254.228 107.062 232.049 107.062C205.088 107.062 190.213 91.7892 190.213 70.9378C190.213 49.0239 206.283 34.8131 231.65 34.8131C250.908 34.8131 270.962 44.5083 270.962 70.0081ZM210.002 62.9691H251.837C251.041 54.8676 244.666 49.1567 232.447 49.1567C218.635 49.1567 212.392 55.266 210.002 62.9691ZM313.556 59.2504C313.556 32.8209 332.283 11.4383 365.22 11.4383C397.892 11.4383 412.102 32.024 413.431 47.563H393.376C392.048 39.063 383.415 28.4381 365.618 28.4381C345.298 28.4381 333.744 42.1177 333.744 59.2504C333.744 76.3831 345.298 90.0626 365.618 90.0626C383.415 90.0626 392.048 79.4377 393.376 70.9378H413.431C412.102 86.4767 397.892 107.062 365.22 107.062C332.283 107.062 313.556 85.6799 313.556 59.2504ZM461.217 34.8131C487.115 34.8131 502.654 51.0161 502.654 70.9378C502.654 90.8595 487.115 107.062 461.217 107.062C435.318 107.062 419.78 90.8595 419.78 70.9378C419.78 51.0161 435.318 34.8131 461.217 34.8131ZM461.217 90.5939C475.428 90.5939 483.529 81.8283 483.529 70.9378C483.529 60.0472 475.428 51.2817 461.217 51.2817C447.006 51.2817 438.904 60.0472 438.904 70.9378C438.904 81.8283 447.006 90.5939 461.217 90.5939ZM573.799 38.5318V10.3758H592.924V106H573.799V102.945C573.799 100.289 574.463 98.1641 575.659 95.7735C576.323 94.4454 576.987 93.2501 575.393 92.586C574.331 92.1876 573.534 93.5157 573.268 93.9142C568.221 101.484 558.393 107.062 545.643 107.062C523.862 107.062 510.05 91.1251 510.05 70.9378C510.05 50.7504 523.862 34.8131 545.643 34.8131C558.792 34.8131 567.69 40.524 573.268 47.8286C573.666 48.3598 574.729 49.9536 575.791 49.4223C577.12 48.7583 576.19 47.1645 575.659 45.8364C574.596 43.313 573.799 41.3208 573.799 38.5318ZM550.823 90.5939C564.635 90.5939 573.799 81.5627 573.799 70.9378C573.799 60.3129 562.909 51.2817 550.823 51.2817C536.081 51.2817 529.175 60.3129 529.175 70.9378C529.175 81.5627 536.081 90.5939 550.823 90.5939ZM682.237 70.0081C682.237 71.8675 682.104 73.7268 681.705 75.719H620.347C621.94 85.8127 630.44 91.6564 643.589 91.6564C653.682 91.6564 658.862 87.4064 661.252 81.5627H680.776C677.19 96.0391 665.502 107.062 643.323 107.062C616.362 107.062 601.487 91.7892 601.487 70.9378C601.487 49.0239 617.558 34.8131 642.925 34.8131C662.182 34.8131 682.237 44.5083 682.237 70.0081ZM621.276 62.9691H663.112C662.315 54.8676 655.94 49.1567 643.721 49.1567C629.909 49.1567 623.667 55.266 621.276 62.9691ZM688.645 82.3596H707.504C707.637 87.5392 711.621 93.2501 727.426 93.2501C741.371 93.2501 746.019 90.0626 746.019 85.6799C746.019 80.3674 737.652 79.7033 721.449 78.1096C694.489 75.4534 691.168 64.0316 691.168 56.1957C691.168 44.7739 703.254 34.8131 727.16 34.8131C749.34 34.8131 761.425 44.6411 762.621 57.391H743.894C743.363 53.0082 739.379 48.6255 726.762 48.6255C714.277 48.6255 710.293 51.5473 710.293 55.266C710.293 58.5863 712.418 61.1097 729.285 62.4379C750.535 64.1644 765.144 70.0081 765.144 84.0861C765.144 98.6954 751.597 107.062 726.762 107.062C702.324 107.062 689.442 97.3673 688.645 82.3596ZM773.647 106V86.8752H794.897V106H773.647ZM1030.31 48.227C1056.08 50.7504 1073.61 56.3285 1073.61 78.1096C1073.61 93.5157 1058.07 107.062 1028.98 107.062C998.569 107.062 984.358 90.3283 984.358 73.0628H1004.01C1004.28 80.2346 1008.4 91.1251 1028.98 91.1251C1047.84 91.1251 1053.42 83.8205 1053.42 79.1721C1053.42 72.7971 1048.51 68.68 1028.98 66.555C998.037 63.1019 988.076 54.4692 988.076 38.0006C988.076 23.3913 1003.48 11.4383 1029.25 11.4383C1057.67 11.4383 1069.22 26.0475 1069.62 41.188H1050.37C1050.37 35.0787 1045.45 27.3756 1028.98 27.3756C1012.51 27.3756 1008.4 33.485 1008.4 37.2037C1008.4 40.7896 1010.39 46.3677 1030.31 48.227ZM1132.01 34.8131C1150.47 34.8131 1162.82 44.6411 1162.82 64.5628V106H1143.7V71.469C1143.7 55.6645 1138.52 51.2817 1127.23 51.2817C1114.74 51.2817 1103.32 62.305 1103.32 78.508V106H1084.2V10.3758H1103.32V40.2583C1103.32 44.5083 1102.39 47.0317 1101.2 49.8208C1100.66 51.0161 1099.73 52.8754 1101.46 53.2739C1102.52 53.5395 1103.05 52.7426 1103.72 51.6801C1108.1 44.7739 1117.13 34.8131 1132.01 34.8131ZM1252.13 70.0081C1252.13 71.8675 1252 73.7268 1251.6 75.719H1190.24C1191.84 85.8127 1200.34 91.6564 1213.48 91.6564C1223.58 91.6564 1228.76 87.4064 1231.15 81.5627H1250.67C1247.09 96.0391 1235.4 107.062 1213.22 107.062C1186.26 107.062 1171.38 91.7892 1171.38 70.9378C1171.38 49.0239 1187.45 34.8131 1212.82 34.8131C1232.08 34.8131 1252.13 44.5083 1252.13 70.0081ZM1191.17 62.9691H1233.01C1232.21 54.8676 1225.84 49.1567 1213.62 49.1567C1199.8 49.1567 1193.56 55.266 1191.17 62.9691ZM1298.98 106V12.5008H1319.16V89.0001H1373.35V106H1298.98ZM1460.43 70.0081C1460.43 71.8675 1460.3 73.7268 1459.9 75.719H1398.54C1400.13 85.8127 1408.63 91.6564 1421.78 91.6564C1431.87 91.6564 1437.05 87.4064 1439.44 81.5627H1458.97C1455.38 96.0391 1443.69 107.062 1421.51 107.062C1394.55 107.062 1379.68 91.7892 1379.68 70.9378C1379.68 49.0239 1395.75 34.8131 1421.12 34.8131C1440.37 34.8131 1460.43 44.5083 1460.43 70.0081ZM1399.47 62.9691H1441.3C1440.51 54.8676 1434.13 49.1567 1421.91 49.1567C1408.1 49.1567 1401.86 55.266 1399.47 62.9691ZM1466.84 86.7423C1466.84 71.2034 1479.32 65.4925 1497.25 64.6956C1512.13 64.0316 1526.47 65.2269 1526.34 58.7191C1526.2 53.9379 1523.95 49.688 1508.41 49.688C1492.73 49.688 1489.41 53.5395 1488.22 59.2504H1469.36C1472.28 41.5865 1490.34 34.8131 1508.94 34.8131C1528.2 34.8131 1545.46 40.1255 1545.46 67.2191V106H1526.34V101.086C1526.34 97.8985 1527.4 95.7735 1528.73 93.3829C1529.39 92.1876 1530.06 90.8595 1528.59 90.3283C1527 89.797 1526.6 91.1251 1526.07 91.7892C1518.77 100.953 1510.53 107.062 1494.59 107.062C1479.32 107.062 1466.84 98.5626 1466.84 86.7423ZM1526.34 69.8753C1521.29 74.2581 1511.06 75.719 1499.77 76.5159C1490.61 77.1799 1485.96 79.5705 1485.96 85.8127C1485.96 91.6564 1492.87 94.9767 1502.3 93.7813C1511.86 92.586 1526.2 85.1486 1526.34 69.8753ZM1618.78 38.5318V10.3758H1637.91V106H1618.78V102.945C1618.78 100.289 1619.45 98.1641 1620.64 95.7735C1621.3 94.4454 1621.97 93.2501 1620.38 92.586C1619.31 92.1876 1618.52 93.5157 1618.25 93.9142C1613.2 101.484 1603.38 107.062 1590.63 107.062C1568.84 107.062 1555.03 91.1251 1555.03 70.9378C1555.03 50.7504 1568.84 34.8131 1590.63 34.8131C1603.77 34.8131 1612.67 40.524 1618.25 47.8286C1618.65 48.3598 1619.71 49.9536 1620.77 49.4223C1622.1 48.7583 1621.17 47.1645 1620.64 45.8364C1619.58 43.313 1618.78 41.3208 1618.78 38.5318ZM1595.8 90.5939C1609.62 90.5939 1618.78 81.5627 1618.78 70.9378C1618.78 60.3129 1607.89 51.2817 1595.8 51.2817C1581.06 51.2817 1574.16 60.3129 1574.16 70.9378C1574.16 81.5627 1581.06 90.5939 1595.8 90.5939ZM1647.51 82.3596H1666.37C1666.5 87.5392 1670.48 93.2501 1686.29 93.2501C1700.23 93.2501 1704.88 90.0626 1704.88 85.6799C1704.88 80.3674 1696.51 79.7033 1680.31 78.1096C1653.35 75.4534 1650.03 64.0316 1650.03 56.1957C1650.03 44.7739 1662.12 34.8131 1686.02 34.8131C1708.2 34.8131 1720.29 44.6411 1721.48 57.391H1702.76C1702.23 53.0082 1698.24 48.6255 1685.62 48.6255C1673.14 48.6255 1669.16 51.5473 1669.16 55.266C1669.16 58.5863 1671.28 61.1097 1688.15 62.4379C1709.4 64.1644 1724.01 70.0081 1724.01 84.0861C1724.01 98.6954 1710.46 107.062 1685.62 107.062C1661.19 107.062 1648.3 97.3673 1647.51 82.3596ZM1732.51 106V86.8752H1753.76V106H1732.51ZM1844.43 48.227C1870.19 50.7504 1887.73 56.3285 1887.73 78.1096C1887.73 93.5157 1872.19 107.062 1843.1 107.062C1812.69 107.062 1798.48 90.3283 1798.48 73.0628H1818.13C1818.4 80.2346 1822.52 91.1251 1843.1 91.1251C1861.96 91.1251 1867.54 83.8205 1867.54 79.1721C1867.54 72.7971 1862.62 68.68 1843.1 66.555C1812.16 63.1019 1802.19 54.4692 1802.19 38.0006C1802.19 23.3913 1817.6 11.4383 1843.37 11.4383C1871.79 11.4383 1883.34 26.0475 1883.74 41.188H1864.48C1864.48 35.0787 1859.57 27.3756 1843.1 27.3756C1826.63 27.3756 1822.52 33.485 1822.52 37.2037C1822.52 40.7896 1824.51 46.3677 1844.43 48.227ZM1946.13 34.8131C1964.59 34.8131 1976.94 44.6411 1976.94 64.5628V106H1957.81V71.469C1957.81 55.6645 1952.63 51.2817 1941.34 51.2817C1928.86 51.2817 1917.44 62.305 1917.44 78.508V106H1898.31V10.3758H1917.44V40.2583C1917.44 44.5083 1916.51 47.0317 1915.31 49.8208C1914.78 51.0161 1913.85 52.8754 1915.58 53.2739C1916.64 53.5395 1917.17 52.7426 1917.84 51.6801C1922.22 44.7739 1931.25 34.8131 1946.13 34.8131ZM2066.25 70.0081C2066.25 71.8675 2066.12 73.7268 2065.72 75.719H2004.36C2005.95 85.8127 2014.45 91.6564 2027.6 91.6564C2037.7 91.6564 2042.88 87.4064 2045.27 81.5627H2064.79C2061.2 96.0391 2049.52 107.062 2027.34 107.062C2000.38 107.062 1985.5 91.7892 1985.5 70.9378C1985.5 49.0239 2001.57 34.8131 2026.94 34.8131C2046.2 34.8131 2066.25 44.5083 2066.25 70.0081ZM2005.29 62.9691H2047.13C2046.33 54.8676 2039.95 49.1567 2027.74 49.1567C2013.92 49.1567 2007.68 55.266 2005.29 62.9691ZM2108.84 59.2504C2108.84 32.8209 2127.57 11.4383 2160.51 11.4383C2193.18 11.4383 2207.39 32.024 2208.72 47.563H2188.66C2187.34 39.063 2178.7 28.4381 2160.91 28.4381C2140.59 28.4381 2129.03 42.1177 2129.03 59.2504C2129.03 76.3831 2140.59 90.0626 2160.91 90.0626C2178.7 90.0626 2187.34 79.4377 2188.66 70.9378H2208.72C2207.39 86.4767 2193.18 107.062 2160.51 107.062C2127.57 107.062 2108.84 85.6799 2108.84 59.2504ZM2256.51 34.8131C2282.4 34.8131 2297.94 51.0161 2297.94 70.9378C2297.94 90.8595 2282.4 107.062 2256.51 107.062C2230.61 107.062 2215.07 90.8595 2215.07 70.9378C2215.07 51.0161 2230.61 34.8131 2256.51 34.8131ZM2256.51 90.5939C2270.72 90.5939 2278.82 81.8283 2278.82 70.9378C2278.82 60.0472 2270.72 51.2817 2256.51 51.2817C2242.29 51.2817 2234.19 60.0472 2234.19 70.9378C2234.19 81.8283 2242.29 90.5939 2256.51 90.5939ZM2369.09 38.5318V10.3758H2388.21V106H2369.09V102.945C2369.09 100.289 2369.75 98.1641 2370.95 95.7735C2371.61 94.4454 2372.28 93.2501 2370.68 92.586C2369.62 92.1876 2368.82 93.5157 2368.56 93.9142C2363.51 101.484 2353.68 107.062 2340.93 107.062C2319.15 107.062 2305.34 91.1251 2305.34 70.9378C2305.34 50.7504 2319.15 34.8131 2340.93 34.8131C2354.08 34.8131 2362.98 40.524 2368.56 47.8286C2368.96 48.3598 2370.02 49.9536 2371.08 49.4223C2372.41 48.7583 2371.48 47.1645 2370.95 45.8364C2369.88 43.313 2369.09 41.3208 2369.09 38.5318ZM2346.11 90.5939C2359.92 90.5939 2369.09 81.5627 2369.09 70.9378C2369.09 60.3129 2358.2 51.2817 2346.11 51.2817C2331.37 51.2817 2324.46 60.3129 2324.46 70.9378C2324.46 81.5627 2331.37 90.5939 2346.11 90.5939ZM2477.53 70.0081C2477.53 71.8675 2477.39 73.7268 2476.99 75.719H2415.64C2417.23 85.8127 2425.73 91.6564 2438.88 91.6564C2448.97 91.6564 2454.15 87.4064 2456.54 81.5627H2476.06C2472.48 96.0391 2460.79 107.062 2438.61 107.062C2411.65 107.062 2396.78 91.7892 2396.78 70.9378C2396.78 49.0239 2412.85 34.8131 2438.21 34.8131C2457.47 34.8131 2477.53 44.5083 2477.53 70.0081ZM2416.56 62.9691H2458.4C2457.6 54.8676 2451.23 49.1567 2439.01 49.1567C2425.2 49.1567 2418.96 55.266 2416.56 62.9691ZM2483.93 82.3596H2502.79C2502.93 87.5392 2506.91 93.2501 2522.71 93.2501C2536.66 93.2501 2541.31 90.0626 2541.31 85.6799C2541.31 80.3674 2532.94 79.7033 2516.74 78.1096C2489.78 75.4534 2486.46 64.0316 2486.46 56.1957C2486.46 44.7739 2498.54 34.8131 2522.45 34.8131C2544.63 34.8131 2556.71 44.6411 2557.91 57.391H2539.18C2538.65 53.0082 2534.67 48.6255 2522.05 48.6255C2509.57 48.6255 2505.58 51.5473 2505.58 55.266C2505.58 58.5863 2507.71 61.1097 2524.57 62.4379C2545.82 64.1644 2560.43 70.0081 2560.43 84.0861C2560.43 98.6954 2546.89 107.062 2522.05 107.062C2497.61 107.062 2484.73 97.3673 2483.93 82.3596ZM2568.94 106V86.8752H2590.19V106H2568.94ZM2680.86 48.227C2706.62 50.7504 2724.15 56.3285 2724.15 78.1096C2724.15 93.5157 2708.61 107.062 2679.53 107.062C2649.11 107.062 2634.9 90.3283 2634.9 73.0628H2654.56C2654.82 80.2346 2658.94 91.1251 2679.53 91.1251C2698.39 91.1251 2703.96 83.8205 2703.96 79.1721C2703.96 72.7971 2699.05 68.68 2679.53 66.555C2648.58 63.1019 2638.62 54.4692 2638.62 38.0006C2638.62 23.3913 2654.03 11.4383 2679.79 11.4383C2708.21 11.4383 2719.77 26.0475 2720.17 41.188H2700.91C2700.91 35.0787 2696 27.3756 2679.53 27.3756C2663.06 27.3756 2658.94 33.485 2658.94 37.2037C2658.94 40.7896 2660.93 46.3677 2680.86 48.227ZM2782.55 34.8131C2801.01 34.8131 2813.37 44.6411 2813.37 64.5628V106H2794.24V71.469C2794.24 55.6645 2789.06 51.2817 2777.77 51.2817C2765.29 51.2817 2753.87 62.305 2753.87 78.508V106H2734.74V10.3758H2753.87V40.2583C2753.87 44.5083 2752.94 47.0317 2751.74 49.8208C2751.21 51.0161 2750.28 52.8754 2752.01 53.2739C2753.07 53.5395 2753.6 52.7426 2754.26 51.6801C2758.65 44.7739 2767.68 34.8131 2782.55 34.8131ZM2902.68 70.0081C2902.68 71.8675 2902.54 73.7268 2902.15 75.719H2840.79C2842.38 85.8127 2850.88 91.6564 2864.03 91.6564C2874.12 91.6564 2879.3 87.4064 2881.69 81.5627H2901.22C2897.63 96.0391 2885.94 107.062 2863.76 107.062C2836.8 107.062 2821.93 91.7892 2821.93 70.9378C2821.93 49.0239 2838 34.8131 2863.37 34.8131C2882.62 34.8131 2902.68 44.5083 2902.68 70.0081ZM2841.72 62.9691H2883.55C2882.76 54.8676 2876.38 49.1567 2864.16 49.1567C2850.35 49.1567 2844.11 55.266 2841.72 62.9691ZM2949.52 106V12.5008H2969.71V89.0001H3023.9V106H2949.52ZM3110.97 70.0081C3110.97 71.8675 3110.84 73.7268 3110.44 75.719H3049.08C3050.68 85.8127 3059.18 91.6564 3072.33 91.6564C3082.42 91.6564 3087.6 87.4064 3089.99 81.5627H3109.51C3105.93 96.0391 3094.24 107.062 3072.06 107.062C3045.1 107.062 3030.22 91.7892 3030.22 70.9378C3030.22 49.0239 3046.29 34.8131 3071.66 34.8131C3090.92 34.8131 3110.97 44.5083 3110.97 70.0081ZM3050.01 62.9691H3091.85C3091.05 54.8676 3084.68 49.1567 3072.46 49.1567C3058.65 49.1567 3052.4 55.266 3050.01 62.9691ZM3117.38 86.7423C3117.38 71.2034 3129.87 65.4925 3147.8 64.6956C3162.67 64.0316 3177.01 65.2269 3176.88 58.7191C3176.75 53.9379 3174.49 49.688 3158.95 49.688C3143.28 49.688 3139.96 53.5395 3138.76 59.2504H3119.91C3122.83 41.5865 3140.89 34.8131 3159.48 34.8131C3178.74 34.8131 3196.01 40.1255 3196.01 67.2191V106H3176.88V101.086C3176.88 97.8985 3177.94 95.7735 3179.27 93.3829C3179.94 92.1876 3180.6 90.8595 3179.14 90.3283C3177.55 89.797 3177.15 91.1251 3176.62 91.7892C3169.31 100.953 3161.08 107.062 3145.14 107.062C3129.87 107.062 3117.38 98.5626 3117.38 86.7423ZM3176.88 69.8753C3171.83 74.2581 3161.61 75.719 3150.32 76.5159C3141.16 77.1799 3136.51 79.5705 3136.51 85.8127C3136.51 91.6564 3143.41 94.9767 3152.84 93.7813C3162.4 92.586 3176.75 85.1486 3176.88 69.8753ZM3269.33 38.5318V10.3758H3288.45V106H3269.33V102.945C3269.33 100.289 3269.99 98.1641 3271.19 95.7735C3271.85 94.4454 3272.51 93.2501 3270.92 92.586C3269.86 92.1876 3269.06 93.5157 3268.8 93.9142C3263.75 101.484 3253.92 107.062 3241.17 107.062C3219.39 107.062 3205.58 91.1251 3205.58 70.9378C3205.58 50.7504 3219.39 34.8131 3241.17 34.8131C3254.32 34.8131 3263.22 40.524 3268.8 47.8286C3269.19 48.3598 3270.26 49.9536 3271.32 49.4223C3272.65 48.7583 3271.72 47.1645 3271.19 45.8364C3270.12 43.313 3269.33 41.3208 3269.33 38.5318ZM3246.35 90.5939C3260.16 90.5939 3269.33 81.5627 3269.33 70.9378C3269.33 60.3129 3258.44 51.2817 3246.35 51.2817C3231.61 51.2817 3224.7 60.3129 3224.7 70.9378C3224.7 81.5627 3231.61 90.5939 3246.35 90.5939ZM3298.05 82.3596H3316.91C3317.04 87.5392 3321.03 93.2501 3336.83 93.2501C3350.78 93.2501 3355.43 90.0626 3355.43 85.6799C3355.43 80.3674 3347.06 79.7033 3330.86 78.1096C3303.9 75.4534 3300.58 64.0316 3300.58 56.1957C3300.58 44.7739 3312.66 34.8131 3336.57 34.8131C3358.75 34.8131 3370.83 44.6411 3372.03 57.391H3353.3C3352.77 53.0082 3348.79 48.6255 3336.17 48.6255C3323.68 48.6255 3319.7 51.5473 3319.7 55.266C3319.7 58.5863 3321.83 61.1097 3338.69 62.4379C3359.94 64.1644 3374.55 70.0081 3374.55 84.0861C3374.55 98.6954 3361 107.062 3336.17 107.062C3311.73 107.062 3298.85 97.3673 3298.05 82.3596ZM3383.05 106V86.8752H3404.3V106H3383.05Z" fill="url(#paint0_linear_1_66)"/>
</g>
<g filter="url(#filter1_n_1_66)">
<path fill-rule="evenodd" clip-rule="evenodd" d="M874.148 24.388C879.995 18.5373 889.475 18.5373 895.323 24.388L927.085 56.1684C932.932 62.0191 932.932 71.5048 927.085 77.3554L895.323 109.136C889.475 114.987 879.995 114.986 874.148 109.136L842.385 77.3554C836.538 71.5048 836.538 62.0191 842.385 56.1684L874.148 24.388ZM876.75 63.1988C876.73 63.2426 876.707 63.2933 876.614 63.3014V61.616C876.614 61.3585 876.614 61.3538 876.356 61.3538H873.469C873.207 61.3538 873.203 61.3538 873.203 61.6113V71.9673C873.203 72.206 873.207 72.2107 873.45 72.2107H876.702C876.946 72.2107 876.946 72.206 876.95 71.9675V67.5337C876.95 67.1217 876.983 66.7144 877.058 66.3071C877.147 65.8061 877.301 65.3286 877.61 64.9119C878.078 64.2846 878.836 64.1254 879.463 64.2612C879.968 64.3688 880.254 64.734 880.422 65.1975C880.567 65.5955 880.6 66.0168 880.6 66.4382V71.8549C880.6 71.8767 880.601 71.8986 880.601 71.9204C880.602 71.9641 880.603 72.0078 880.6 72.0515C880.591 72.1779 880.656 72.2154 880.769 72.206C880.8 72.2029 880.831 72.2039 880.862 72.205C880.878 72.2055 880.893 72.206 880.909 72.206H884.217C884.311 72.2107 884.353 72.1639 884.348 72.0703C884.345 72.0266 884.346 71.9829 884.347 71.9392C884.347 71.9173 884.348 71.8955 884.348 71.8736C884.348 71.4146 884.348 70.9562 884.349 70.4979C884.35 69.5822 884.351 68.6661 884.348 67.749C884.348 67.3464 884.357 66.9438 884.413 66.5458C884.479 66.0683 884.591 65.6095 884.825 65.1835C885.05 64.7808 885.359 64.4625 885.812 64.322C886.837 64.0084 887.628 64.3595 887.89 65.441C887.96 65.7359 887.993 66.0309 887.993 66.3305V72.0843C887.993 72.1592 888.021 72.206 888.105 72.206H891.441L891.492 72.2061C891.62 72.2066 891.682 72.2068 891.713 72.1755C891.742 72.1452 891.742 72.0857 891.741 71.9686L891.741 71.897C891.741 71.2758 891.74 70.655 891.74 70.0344C891.739 68.7941 891.738 67.5534 891.741 66.3118C891.741 65.8061 891.727 65.3052 891.699 64.7996C891.675 64.322 891.6 63.8492 891.469 63.3904C891.128 62.1731 890.337 61.4381 889.097 61.1993C888.451 61.0776 887.801 61.0448 887.146 61.1432C886.187 61.2883 885.345 61.6722 884.657 62.3791C884.484 62.5554 884.338 62.7529 884.192 62.9497C884.145 63.0141 884.097 63.0788 884.048 63.1422C883.986 63.0945 883.958 63.0322 883.931 62.9714C883.924 62.9548 883.916 62.9383 883.908 62.9222C883.515 62.1357 882.902 61.6066 882.079 61.3211C881.232 61.0261 880.371 61.0214 879.505 61.1993C878.303 61.4475 877.353 62.0701 876.759 63.1797L876.75 63.1988ZM861.51 71.3961C861.425 70.5861 861.411 69.7715 861.416 68.9616V65.5674C861.416 65.2396 861.402 64.9119 861.341 64.5889C861.131 63.4138 860.56 62.4821 859.516 61.8594C858.786 61.4241 857.986 61.2274 857.153 61.1338C856.433 61.0542 855.717 61.0776 855.001 61.1385C854.018 61.2227 853.059 61.4194 852.137 61.7752L852.133 61.7771C851.922 61.8595 851.918 61.8613 851.922 62.0982C851.936 62.773 851.954 63.4433 851.972 64.1178L851.974 64.1722C851.974 64.1841 851.972 64.1969 851.971 64.21C851.965 64.2589 851.959 64.3132 852.025 64.3501C852.102 64.3159 852.178 64.2798 852.254 64.2435C852.345 64.2003 852.436 64.1567 852.531 64.116C853.668 63.6432 854.861 63.5215 856.077 63.6104C856.386 63.6338 856.686 63.7134 856.966 63.8445C857.56 64.116 857.851 64.5936 857.916 65.2303C857.939 65.4597 857.921 65.4737 857.696 65.441C856.587 65.2771 855.478 65.2911 854.374 65.455C853.611 65.5674 852.872 65.7687 852.198 66.1573C851.342 66.6488 850.79 67.3698 850.621 68.3577C850.62 68.3661 850.619 68.3746 850.618 68.3832C850.617 68.389 850.616 68.3947 850.616 68.4005C850.606 68.4778 850.597 68.5577 850.514 68.6011V69.4438C850.589 69.5 850.603 69.5843 850.617 69.6685C850.795 70.75 851.398 71.5038 852.371 71.9813C853.055 72.3184 853.789 72.4448 854.538 72.4635C855.053 72.4776 855.563 72.412 856.054 72.2341C856.845 71.9532 857.425 71.4195 857.897 70.7453L857.908 70.73L857.914 70.7201L857.931 70.6912C857.971 70.6236 858.014 70.5516 858.131 70.5112C858.131 70.5556 858.131 70.5964 858.13 70.6351C858.129 70.7065 858.128 70.7705 858.131 70.8343C858.139 70.9962 858.148 71.1574 858.157 71.3184C858.17 71.5578 858.184 71.7968 858.192 72.0375C858.197 72.1545 858.234 72.2154 858.356 72.2013C858.381 72.1982 858.406 72.1992 858.431 72.2003L858.45 72.201L858.468 72.2013H861.355C861.372 72.2013 861.389 72.2021 861.406 72.2028C861.473 72.2058 861.54 72.2088 861.608 72.1639C861.594 72.0404 861.577 71.9159 861.56 71.7907C861.542 71.6596 861.524 71.5278 861.51 71.3961ZM855.015 69.8839C854.585 69.7809 854.248 69.5374 854.107 69.0927C853.948 68.5917 854.145 68.0393 854.585 67.735C854.898 67.5149 855.258 67.4166 855.633 67.3698C855.909 67.3324 856.19 67.2996 856.47 67.3136C856.69 67.323 856.909 67.3335 857.128 67.3441C857.346 67.3546 857.565 67.3651 857.785 67.3745C857.897 67.3792 857.93 67.426 857.925 67.529C857.869 68.8539 856.774 70.3146 855.015 69.8839ZM898.568 65.2256C898.816 65.2256 898.816 65.2303 898.82 65.4641V67.735C898.82 67.9644 898.816 67.9691 898.591 67.9691H893.407C893.173 67.9691 893.168 67.9644 893.168 67.7397V65.441C893.168 65.2303 893.173 65.2256 893.383 65.2256H898.568ZM871.153 64.219C871.284 64.2752 871.406 64.3361 871.537 64.4016C871.591 64.2893 871.597 64.1801 871.603 64.0768L871.604 64.0511L871.607 64.013C871.672 63.3347 871.738 62.6549 871.808 61.9765L871.811 61.9504C871.837 61.7002 871.837 61.6966 871.579 61.5879C870.9 61.3023 870.189 61.1712 869.455 61.1197C868.233 61.0355 867.045 61.1806 865.913 61.6488C864.429 62.2621 863.367 63.3014 862.843 64.837C862.553 65.6985 862.473 66.5833 862.572 67.4915C862.675 68.3998 862.951 69.2425 863.475 69.9963C864.233 71.0824 865.286 71.7566 866.54 72.1358C867.644 72.4682 868.776 72.5384 869.922 72.4073C870.526 72.3371 871.12 72.2248 871.705 72.0515C871.86 72.0047 871.911 71.9345 871.906 71.7753C871.888 71.2296 871.873 70.686 871.858 70.1417L871.858 70.1385C871.851 69.8719 871.844 69.6034 871.836 69.3361C871.835 69.3301 871.835 69.3238 871.835 69.3174C871.834 69.2887 871.833 69.2578 871.775 69.2425C871.735 69.2577 871.692 69.2755 871.648 69.2939C871.61 69.3096 871.571 69.3257 871.532 69.3408C870.699 69.6639 869.838 69.809 868.949 69.6685C867.887 69.4953 867.073 68.9522 866.624 67.9457C866.385 67.412 866.366 66.8455 866.446 66.2696C866.605 65.1039 867.382 64.205 868.528 63.9335C869.431 63.7228 870.311 63.8445 871.153 64.219ZM905.085 69.177C905.165 69.063 905.183 68.9675 905.2 68.8805C905.204 68.8603 905.207 68.8406 905.212 68.8212C905.783 66.4428 906.354 64.0599 906.92 61.6769L906.929 61.6397C906.944 61.5784 906.959 61.5192 906.971 61.4568C906.99 61.3726 907.046 61.3304 907.135 61.3351C907.166 61.3382 907.197 61.3372 907.228 61.3361C907.244 61.3356 907.26 61.3351 907.275 61.3351H911.229C911.505 61.3351 911.505 61.3351 911.571 61.616L913.297 68.9569C913.298 68.9626 913.3 68.9684 913.301 68.9742C913.302 68.9782 913.302 68.9822 913.303 68.9862C913.313 69.0397 913.324 69.0983 913.395 69.1536L913.426 69.0147C913.518 68.6019 913.606 68.2057 913.69 67.8099C913.826 67.1897 913.961 66.57 914.096 65.9504L914.105 65.9136L914.105 65.9108C914.419 64.4722 914.733 63.0326 915.052 61.5926C915.056 61.5731 915.06 61.555 915.064 61.5384C915.067 61.5224 915.07 61.5076 915.072 61.4941C915.086 61.4241 915.094 61.3857 915.117 61.3647C915.145 61.3393 915.197 61.3394 915.31 61.3397L915.351 61.3398H918.491C918.502 61.3398 918.512 61.3393 918.523 61.3386L918.537 61.3377C918.587 61.3343 918.636 61.331 918.683 61.3632C918.704 61.4382 918.679 61.5023 918.654 61.5679L918.645 61.5897C918.64 61.603 918.636 61.6164 918.631 61.6301L918.627 61.6439C917.58 65.0803 916.534 68.5168 915.482 71.9532L915.463 72.0159C915.433 72.1166 915.419 72.1641 915.387 72.1859C915.359 72.2053 915.317 72.2044 915.237 72.2026C915.223 72.2023 915.208 72.202 915.191 72.2017C915.175 72.2015 915.159 72.2013 915.141 72.2013H911.299C911.051 72.2013 911.051 72.2013 910.995 71.9532C910.415 69.4766 909.839 67.0047 909.264 64.528C909.261 64.517 909.259 64.5055 909.256 64.4937C909.248 64.4504 909.239 64.4026 909.184 64.3548L909.171 64.3903C909.148 64.4521 909.125 64.5111 909.109 64.5702C908.468 67.0187 907.827 69.4672 907.182 71.9204C907.177 71.9399 907.171 71.9588 907.165 71.9776C907.154 72.0128 907.143 72.0477 907.14 72.0843C907.126 72.1779 907.069 72.206 906.98 72.2013H902.999L902.958 72.2014C902.849 72.2017 902.797 72.2019 902.764 72.1766C902.734 72.1534 902.721 72.1089 902.696 72.0236L902.676 71.9579L902.063 69.9582C901.205 67.159 900.346 64.3579 899.485 61.5598C899.481 61.5474 899.476 61.535 899.472 61.5225C899.455 61.4737 899.437 61.4238 899.452 61.3679C899.509 61.3285 899.575 61.3329 899.638 61.3372C899.649 61.338 899.66 61.3387 899.672 61.3392C899.68 61.3396 899.687 61.3398 899.695 61.3398H903.059C903.321 61.3398 903.321 61.3398 903.382 61.6066C903.624 62.6884 903.867 63.7701 904.11 64.8522C904.407 66.1774 904.705 67.5033 905.001 68.8305C905.025 68.9284 905.048 69.0278 905.085 69.177ZM858.284 78.6113L860.253 83.8548H860.987L862.956 78.6113H862.29L860.62 83.1881L858.966 78.6113H858.284ZM863.674 78.6113V83.8548H864.303V78.6113H863.674ZM866.642 79.1281V83.8548H867.271V79.1281H868.836V78.6113H865.078V79.1281H866.642ZM872.551 83.6076C872.925 83.8323 873.369 83.9447 873.883 83.9447C874.482 83.9447 874.969 83.8024 875.343 83.5177C875.722 83.2331 875.965 82.8385 876.069 82.3342H875.373C875.293 82.6538 875.129 82.911 874.879 83.1057C874.634 83.2955 874.303 83.3904 873.883 83.3904C873.509 83.3904 873.182 83.3055 872.903 83.1357C872.623 82.9609 872.406 82.7137 872.251 82.3941C872.102 82.0695 872.027 81.6825 872.027 81.233C872.027 80.7836 872.102 80.3991 872.251 80.0795C872.406 79.7549 872.623 79.5077 872.903 79.3379C873.182 79.1631 873.509 79.0757 873.883 79.0757C874.303 79.0757 874.634 79.1756 874.879 79.3753C875.129 79.5701 875.293 79.8298 875.373 80.1544H876.069C875.965 79.64 875.722 79.2405 875.343 78.9559C874.969 78.6662 874.482 78.5214 873.883 78.5214C873.369 78.5214 872.925 78.6362 872.551 78.866C872.181 79.0957 871.894 79.4153 871.69 79.8248C871.485 80.2293 871.383 80.6987 871.383 81.233C871.383 81.7724 871.485 82.2468 871.69 82.6563C871.894 83.0608 872.181 83.3779 872.551 83.6076ZM877.684 83.705C877.964 83.8648 878.278 83.9447 878.628 83.9447C878.977 83.9447 879.291 83.8648 879.571 83.705C879.855 83.5452 880.08 83.3205 880.245 83.0308C880.409 82.7362 880.492 82.3916 880.492 81.9971C880.492 81.6026 880.409 81.2605 880.245 80.9709C880.085 80.6762 879.865 80.449 879.586 80.2892C879.306 80.1294 878.992 80.0495 878.643 80.0495C878.293 80.0495 877.976 80.1294 877.692 80.2892C877.412 80.449 877.19 80.6762 877.026 80.9709C876.861 81.2605 876.778 81.6026 876.778 81.9971C876.778 82.3916 876.858 82.7362 877.018 83.0308C877.183 83.3205 877.405 83.5452 877.684 83.705ZM879.227 83.248C879.042 83.3529 878.842 83.4053 878.628 83.4053C878.418 83.4053 878.221 83.3529 878.036 83.248C877.857 83.1432 877.709 82.9859 877.595 82.7761C877.48 82.5664 877.422 82.3067 877.422 81.9971C877.422 81.6875 877.48 81.4278 877.595 81.2181C877.709 81.0083 877.859 80.851 878.044 80.7461C878.228 80.6413 878.428 80.5888 878.643 80.5888C878.852 80.5888 879.049 80.6413 879.234 80.7461C879.419 80.851 879.566 81.0083 879.676 81.2181C879.791 81.4278 879.848 81.6875 879.848 81.9971C879.848 82.3067 879.791 82.5664 879.676 82.7761C879.561 82.9859 879.411 83.1432 879.227 83.248ZM881.366 80.1394V83.8548H881.995V81.9297C881.995 81.5002 882.092 81.1706 882.287 80.9409C882.487 80.7062 882.734 80.5888 883.028 80.5888C883.318 80.5888 883.54 80.6862 883.694 80.881C883.849 81.0757 883.927 81.3654 883.927 81.7499V83.8548H884.555V81.9297C884.555 81.5002 884.653 81.1706 884.847 80.9409C885.047 80.7062 885.297 80.5888 885.596 80.5888C885.885 80.5888 886.108 80.6862 886.262 80.881C886.417 81.0757 886.494 81.3654 886.494 81.7499V83.8548H887.116V81.6825C887.116 81.1282 886.984 80.7187 886.719 80.454C886.454 80.1843 886.1 80.0495 885.656 80.0495C885.391 80.0495 885.144 80.1144 884.915 80.2443C884.69 80.3741 884.513 80.5514 884.383 80.7761C884.268 80.5314 884.104 80.3491 883.889 80.2293C883.679 80.1094 883.427 80.0495 883.133 80.0495C882.883 80.0495 882.659 80.1044 882.459 80.2143C882.26 80.3242 882.1 80.479 881.98 80.6787L881.935 80.1394H881.366ZM888.063 80.1394V83.8548H888.692V81.9297C888.692 81.5002 888.789 81.1706 888.984 80.9409C889.184 80.7062 889.431 80.5888 889.725 80.5888C890.015 80.5888 890.237 80.6862 890.391 80.881C890.546 81.0757 890.623 81.3654 890.623 81.7499V83.8548H891.252V81.9297C891.252 81.5002 891.35 81.1706 891.544 80.9409C891.744 80.7062 891.993 80.5888 892.293 80.5888C892.582 80.5888 892.804 80.6862 892.959 80.881C893.114 81.0757 893.191 81.3654 893.191 81.7499V83.8548H893.813V81.6825C893.813 81.1282 893.68 80.7187 893.416 80.454C893.151 80.1843 892.797 80.0495 892.353 80.0495C892.088 80.0495 891.841 80.1144 891.612 80.2443C891.387 80.3741 891.21 80.5514 891.08 80.7761C890.965 80.5314 890.801 80.3491 890.586 80.2293C890.376 80.1094 890.124 80.0495 889.83 80.0495C889.58 80.0495 889.356 80.1044 889.156 80.2143C888.956 80.3242 888.797 80.479 888.677 80.6787L888.632 80.1394H888.063ZM895.067 83.5477C895.326 83.8123 895.676 83.9447 896.115 83.9447C896.399 83.9447 896.654 83.8773 896.879 83.7424C897.108 83.6076 897.28 83.4228 897.395 83.1881L897.44 83.8548H898.009V80.1394H897.38V82.0645C897.38 82.494 897.273 82.8261 897.058 83.0608C896.849 83.2905 896.582 83.4053 896.257 83.4053C895.623 83.4053 895.306 83.0183 895.306 82.2443V80.1394H894.678V82.3117C894.678 82.866 894.807 83.278 895.067 83.5477ZM899.044 80.1394V83.8548H899.673V81.9297C899.673 81.5002 899.778 81.1706 899.987 80.9409C900.202 80.7062 900.469 80.5888 900.788 80.5888C901.427 80.5888 901.747 80.9759 901.747 81.7499V83.8548H902.376V81.6825C902.376 81.1282 902.243 80.7187 901.979 80.454C901.719 80.1843 901.37 80.0495 900.931 80.0495C900.646 80.0495 900.392 80.1169 900.167 80.2517C899.943 80.3866 899.77 80.5714 899.651 80.8061L899.613 80.1394H899.044ZM903.396 79.1956C903.481 79.2755 903.585 79.3154 903.71 79.3154C903.83 79.3154 903.932 79.2755 904.017 79.1956C904.102 79.1107 904.144 79.0058 904.144 78.8809C904.144 78.7611 904.102 78.6612 904.017 78.5813C903.932 78.5014 903.83 78.4615 903.71 78.4615C903.585 78.4615 903.481 78.5014 903.396 78.5813C903.316 78.6612 903.276 78.7611 903.276 78.8809C903.276 79.0058 903.316 79.1107 903.396 79.1956ZM903.396 80.1394V83.8548H904.025V80.1394H903.396ZM905.786 83.6076C905.981 83.7724 906.248 83.8548 906.587 83.8548H907.156V83.3155H906.767C906.527 83.3155 906.36 83.2755 906.265 83.1956C906.17 83.1107 906.123 82.9509 906.123 82.7162V80.6712H907.216V80.1394H906.123V79.248H905.576L905.494 80.1394H904.85V80.6712H905.494V82.7162C905.494 83.1457 905.591 83.4428 905.786 83.6076ZM909.34 83.4952L908.419 85.5027H909.078L911.511 80.1394H910.86L909.557 83.0308L908.329 80.1394H907.648L909.123 83.4952H909.34Z" fill="#EFEFEF"/>
<path d="M896.112 111.283C902.456 113.127 909.582 111.546 914.583 106.543L941.052 80.0589C948.361 72.7456 948.361 60.8885 941.052 53.5752L914.583 27.0915C909.546 22.0513 902.352 20.4847 895.974 22.3917C896.916 22.9819 897.807 23.6871 898.627 24.5073L930.389 56.2877C936.236 62.1384 936.236 71.6241 930.389 77.4747L898.627 109.255C897.847 110.035 897.003 110.711 896.112 111.283Z" fill="#EFEFEF"/>
</g>
<defs>
<filter id="filter0_n_1_66" x="3.18747" y="10.3758" width="3401.12" height="96.6867" filterUnits="userSpaceOnUse" color-interpolation-filters="sRGB">
<feFlood flood-opacity="0" result="BackgroundImageFix"/>
<feBlend mode="normal" in="SourceGraphic" in2="BackgroundImageFix" result="shape"/>
<feTurbulence type="fractalNoise" baseFrequency="1.1512616872787476 1.1512616872787476" stitchTiles="stitch" numOctaves="3" result="noise" seed="1840" />
<feColorMatrix in="noise" type="luminanceToAlpha" result="alphaNoise" />
<feComponentTransfer in="alphaNoise" result="coloredNoise1">
<feFuncA type="discrete" tableValues="1 1 1 1 1 1 1 1 1 1 1 1 1 1 1 1 1 1 1 1 1 1 1 1 1 1 1 1 1 1 1 1 1 1 1 1 1 1 1 1 1 1 1 1 1 1 1 1 1 1 1 0 0 0 0 0 0 0 0 0 0 0 0 0 0 0 0 0 0 0 0 0 0 0 0 0 0 0 0 0 0 0 0 0 0 0 0 0 0 0 0 0 0 0 0 0 0 0 0 0 "/>
</feComponentTransfer>
<feComposite operator="in" in2="shape" in="coloredNoise1" result="noise1Clipped" />
<feComponentTransfer in="alphaNoise" result="coloredNoise2">
<feFuncA type="discrete" tableValues="0 0 0 0 0 0 0 0 0 0 0 0 0 0 0 0 0 0 0 0 0 0 0 0 0 0 0 0 0 0 0 0 0 0 0 0 0 0 0 0 0 0 0 0 0 0 0 0 0 1 1 1 1 1 1 1 1 1 1 1 1 1 1 1 1 1 1 1 1 1 1 1 1 1 1 1 1 1 1 1 1 1 1 1 1 1 1 1 1 1 1 1 1 1 1 1 1 1 1 1 "/>
</feComponentTransfer>
<feComposite operator="in" in2="shape" in="coloredNoise2" result="noise2Clipped" />
<feFlood flood-color="rgba(0, 0, 0, 0.25)" result="color1Flood" />
<feComposite operator="in" in2="noise1Clipped" in="color1Flood" result="color1" />
<feFlood flood-color="rgba(255, 255, 255, 0.25)" result="color2Flood" />
<feComposite operator="in" in2="noise2Clipped" in="color2Flood" result="color2" />
<feMerge result="effect1_noise_1_66">
<feMergeNode in="shape" />
<feMergeNode in="color1" />
<feMergeNode in="color2" />
</feMerge>
</filter>
<filter id="filter1_n_1_66" x="838" y="20" width="108.534" height="93.5239" filterUnits="userSpaceOnUse" color-interpolation-filters="sRGB">
<feFlood flood-opacity="0" result="BackgroundImageFix"/>
<feBlend mode="normal" in="SourceGraphic" in2="BackgroundImageFix" result="shape"/>
<feTurbulence type="fractalNoise" baseFrequency="1.7221547365188599 1.7221547365188599" stitchTiles="stitch" numOctaves="3" result="noise" seed="1840" />
<feColorMatrix in="noise" type="luminanceToAlpha" result="alphaNoise" />
<feComponentTransfer in="alphaNoise" result="coloredNoise1">
<feFuncA type="discrete" tableValues="1 1 1 1 1 1 1 1 1 1 1 1 1 1 1 1 1 1 1 1 1 1 1 1 1 1 1 1 1 1 1 1 1 1 1 1 1 1 1 1 1 1 1 1 1 1 1 1 1 1 1 0 0 0 0 0 0 0 0 0 0 0 0 0 0 0 0 0 0 0 0 0 0 0 0 0 0 0 0 0 0 0 0 0 0 0 0 0 0 0 0 0 0 0 0 0 0 0 0 0 "/>
</feComponentTransfer>
<feComposite operator="in" in2="shape" in="coloredNoise1" result="noise1Clipped" />
<feComponentTransfer in="alphaNoise" result="coloredNoise2">
<feFuncA type="discrete" tableValues="0 0 0 0 0 0 0 0 0 0 0 0 0 0 0 0 0 0 0 0 0 0 0 0 0 0 0 0 0 0 0 0 0 0 0 0 0 0 0 0 0 0 0 0 0 0 0 0 0 1 1 1 1 1 1 1 1 1 1 1 1 1 1 1 1 1 1 1 1 1 1 1 1 1 1 1 1 1 1 1 1 1 1 1 1 1 1 1 1 1 1 1 1 1 1 1 1 1 1 1 "/>
</feComponentTransfer>
<feComposite operator="in" in2="shape" in="coloredNoise2" result="noise2Clipped" />
<feFlood flood-color="rgba(0, 0, 0, 0.25)" result="color1Flood" />
<feComposite operator="in" in2="noise1Clipped" in="color1Flood" result="color1" />
<feFlood flood-color="rgba(255, 255, 255, 0.25)" result="color2Flood" />
<feComposite operator="in" in2="noise2Clipped" in="color2Flood" result="color2" />
<feMerge result="effect1_noise_1_66">
<feMergeNode in="shape" />
<feMergeNode in="color1" />
<feMergeNode in="color2" />
</feMerge>
</filter>
<linearGradient id="paint0_linear_1_66" x1="1705" y1="0" x2="1705" y2="134" gradientUnits="userSpaceOnUse">
<stop stop-color="white"/>
<stop offset="1" stop-color="#FF007A"/>
</linearGradient>
</defs>
</svg>
