<svg width="294" height="182" viewBox="0 0 294 182" fill="none" xmlns="http://www.w3.org/2000/svg">
<path d="M26.3651 158.117C31.405 158.117 35.4909 162.203 35.4911 167.243C35.4911 172.283 31.4052 176.369 26.3651 176.369C21.3252 176.369 17.2391 172.283 17.2391 167.243C17.2393 162.203 21.3253 158.117 26.3651 158.117ZM26.3651 163.402C24.2433 163.403 22.5236 165.122 22.5233 167.244C22.5233 169.366 24.2431 171.087 26.3651 171.087C28.4872 171.087 30.2079 169.366 30.2079 167.244C30.2076 165.122 28.4871 163.402 26.3651 163.402Z" fill="white"/>
<path d="M267.63 158.117C272.67 158.117 276.756 162.203 276.756 167.243C276.756 172.283 272.67 176.369 267.63 176.369C262.59 176.369 258.504 172.283 258.504 167.243C258.505 162.203 262.59 158.117 267.63 158.117ZM267.63 163.402C265.508 163.402 263.788 165.122 263.788 167.244C263.788 169.366 265.508 171.087 267.63 171.087C269.752 171.087 271.473 169.366 271.473 167.244C271.473 165.122 269.752 163.402 267.63 163.402Z" fill="white"/>
<path d="M62.4077 139.154H233.865C237.84 139.154 241.309 141.849 242.292 145.701L251.394 181.361H42.9165L54.1001 145.277C55.2286 141.636 58.596 139.154 62.4077 139.154Z" stroke="white" stroke-width="0.855544"/>
<circle cx="74.2766" cy="168.385" r="7.5573" stroke="white" stroke-width="0.855544"/>
<circle cx="220.005" cy="168.385" r="7.5573" stroke="white" stroke-width="0.855544"/>
<rect x="98.6602" y="160.828" width="9.98134" height="9.98134" rx="1.28332" stroke="white" stroke-width="0.855544"/>
<path d="M141.579 171.236C141.579 170.291 142.345 169.525 143.29 169.525H150.705C151.65 169.525 152.416 170.291 152.416 171.236V176.37H141.579V171.236Z" fill="white"/>
<rect x="185.64" y="160.828" width="9.98134" height="9.98134" rx="1.28332" stroke="white" stroke-width="0.855544"/>
<g clip-path="url(#clip0_285_236238)">
<path d="M146.997 142.434C149.831 142.434 152.13 144.732 152.13 147.566C152.13 150.401 149.832 152.7 146.997 152.7C144.162 152.7 141.864 150.401 141.864 147.566C141.864 144.732 144.162 142.434 146.997 142.434ZM147.417 144.495C147.324 144.038 146.671 144.038 146.578 144.495L146.186 146.422C146.152 146.59 146.02 146.722 145.852 146.756L143.925 147.147C143.469 147.24 143.469 147.893 143.925 147.986L145.852 148.378C146.02 148.412 146.152 148.544 146.186 148.712L146.578 150.639C146.671 151.095 147.324 151.095 147.417 150.639L147.808 148.712C147.842 148.544 147.974 148.412 148.142 148.378L150.069 147.986C150.526 147.893 150.526 147.24 150.069 147.147L148.142 146.756C147.974 146.722 147.842 146.59 147.808 146.422L147.417 144.495Z" fill="white"/>
</g>
<g clip-path="url(#clip1_285_236238)">
<path d="M5.83301 0.699219C8.66788 0.699219 10.9666 2.99722 10.9668 5.83203C10.9668 8.66705 8.66803 10.9658 5.83301 10.9658C2.99819 10.9656 0.700195 8.6669 0.700195 5.83203C0.700439 2.99737 2.99834 0.699462 5.83301 0.699219ZM6.25293 2.76074C6.16005 2.30405 5.50694 2.30405 5.41406 2.76074L5.02246 4.6875C4.98824 4.85572 4.8567 4.98726 4.68848 5.02148L2.76172 5.41309C2.30502 5.50596 2.30502 6.15908 2.76172 6.25195L4.68848 6.64355C4.8567 6.67778 4.98825 6.80931 5.02246 6.97754L5.41406 8.9043C5.50694 9.36099 6.16005 9.36099 6.25293 8.9043L6.64453 6.97754C6.67875 6.8093 6.81027 6.67777 6.97852 6.64355L8.90527 6.25195C9.36197 6.15908 9.36197 5.50596 8.90527 5.41309L6.97852 5.02148C6.81029 4.98727 6.67876 4.85572 6.64453 4.6875L6.25293 2.76074Z" fill="white"/>
</g>
<g clip-path="url(#clip2_285_236238)">
<path d="M5.83301 163.822C8.66788 163.822 10.9666 166.12 10.9668 168.955C10.9668 171.79 8.66803 174.089 5.83301 174.089C2.99819 174.089 0.700195 171.79 0.700195 168.955C0.700439 166.12 2.99834 163.823 5.83301 163.822ZM6.25293 165.884C6.16005 165.427 5.50694 165.427 5.41406 165.884L5.02246 167.811C4.98824 167.979 4.8567 168.11 4.68848 168.145L2.76172 168.536C2.30502 168.629 2.30502 169.282 2.76172 169.375L4.68848 169.767C4.8567 169.801 4.98825 169.932 5.02246 170.101L5.41406 172.027C5.50694 172.484 6.16005 172.484 6.25293 172.027L6.64453 170.101C6.67875 169.932 6.81027 169.801 6.97852 169.767L8.90527 169.375C9.36197 169.282 9.36197 168.629 8.90527 168.536L6.97852 168.145C6.81029 168.11 6.67876 167.979 6.64453 167.811L6.25293 165.884Z" fill="white"/>
</g>
<g clip-path="url(#clip3_285_236238)">
<path d="M288.163 0.699219C290.998 0.699219 293.297 2.99722 293.297 5.83203C293.297 8.66705 290.998 10.9658 288.163 10.9658C285.328 10.9656 283.03 8.6669 283.03 5.83203C283.031 2.99737 285.328 0.699462 288.163 0.699219ZM288.583 2.76074C288.49 2.30405 287.837 2.30405 287.744 2.76074L287.353 4.6875C287.318 4.85572 287.187 4.98726 287.019 5.02148L285.092 5.41309C284.635 5.50596 284.635 6.15908 285.092 6.25195L287.019 6.64355C287.187 6.67778 287.318 6.80931 287.353 6.97754L287.744 8.9043C287.837 9.36099 288.49 9.36099 288.583 8.9043L288.975 6.97754C289.009 6.8093 289.14 6.67777 289.309 6.64355L291.235 6.25195C291.692 6.15908 291.692 5.50596 291.235 5.41309L289.309 5.02148C289.14 4.98727 289.009 4.85572 288.975 4.6875L288.583 2.76074Z" fill="white"/>
</g>
<g clip-path="url(#clip4_285_236238)">
<path d="M288.163 163.822C290.998 163.822 293.297 166.12 293.297 168.955C293.297 171.79 290.998 174.089 288.163 174.089C285.328 174.089 283.03 171.79 283.03 168.955C283.031 166.12 285.328 163.823 288.163 163.822ZM288.583 165.884C288.49 165.427 287.837 165.427 287.744 165.884L287.353 167.811C287.318 167.979 287.187 168.11 287.019 168.145L285.092 168.536C284.635 168.629 284.635 169.282 285.092 169.375L287.019 169.767C287.187 169.801 287.318 169.932 287.353 170.101L287.744 172.027C287.837 172.484 288.49 172.484 288.583 172.027L288.975 170.101C289.009 169.932 289.14 169.801 289.309 169.767L291.235 169.375C291.692 169.282 291.692 168.629 291.235 168.536L289.309 168.145C289.14 168.11 289.009 167.979 288.975 167.811L288.583 165.884Z" fill="url(#paint0_linear_285_236238)"/>
</g>
<defs>
<linearGradient id="paint0_linear_285_236238" x1="288.164" y1="163.822" x2="288.164" y2="174.089" gradientUnits="userSpaceOnUse">
<stop stop-color="white"/>
<stop stop-color="#8710DB"/>
<stop offset="1" stop-color="#EB5757"/>
</linearGradient>
<clipPath id="clip0_285_236238">
<rect width="10.2665" height="10.2665" fill="white" transform="translate(141.864 142.434)"/>
</clipPath>
<clipPath id="clip1_285_236238">
<rect width="10.2665" height="10.2665" fill="white" transform="translate(0.700195 0.699219)"/>
</clipPath>
<clipPath id="clip2_285_236238">
<rect width="10.2665" height="10.2665" fill="white" transform="translate(0.700195 163.822)"/>
</clipPath>
<clipPath id="clip3_285_236238">
<rect width="10.2665" height="10.2665" fill="white" transform="translate(283.03 0.699219)"/>
</clipPath>
<clipPath id="clip4_285_236238">
<rect width="10.2665" height="10.2665" fill="white" transform="translate(283.03 163.822)"/>
</clipPath>
</defs>
</svg>
