<svg width="294" height="182" viewBox="0 0 294 182" fill="none" xmlns="http://www.w3.org/2000/svg">
<path d="M26.3613 158.117C31.4013 158.117 35.4871 162.203 35.4873 167.243C35.4873 172.283 31.4014 176.369 26.3613 176.369C21.3214 176.369 17.2354 172.283 17.2354 167.243C17.2355 162.203 21.3215 158.117 26.3613 158.117ZM26.3613 163.402C24.2395 163.403 22.5198 165.122 22.5195 167.244C22.5195 169.366 24.2393 171.087 26.3613 171.087C28.4834 171.087 30.2041 169.366 30.2041 167.244C30.2039 165.122 28.4833 163.402 26.3613 163.402Z" fill="#FFFFFF"/>
<path d="M267.626 158.117C272.666 158.117 276.752 162.203 276.752 167.243C276.752 172.283 272.666 176.369 267.626 176.369C262.586 176.369 258.5 172.283 258.5 167.243C258.501 162.203 262.587 158.117 267.626 158.117ZM267.626 163.402C265.504 163.402 263.784 165.122 263.784 167.244C263.784 169.366 265.504 171.087 267.626 171.087C269.749 171.087 271.469 169.366 271.469 167.244C271.469 165.122 269.748 163.402 267.626 163.402Z" fill="#FFFFFF"/>
<path d="M62.4038 139.154H233.861C237.836 139.154 241.305 141.849 242.289 145.701L251.39 181.361H42.9126L54.0962 145.277C55.2247 141.636 58.5921 139.154 62.4038 139.154Z" stroke="#FFFFFF" stroke-width="0.855544"/>
<circle cx="74.2728" cy="168.384" r="7.5573" stroke="#FFFFFF" stroke-width="0.855544"/>
<circle cx="220.001" cy="168.384" r="7.5573" stroke="#FFFFFF" stroke-width="0.855544"/>
<rect x="98.6564" y="160.827" width="9.98134" height="9.98134" rx="1.28332" stroke="#FFFFFF" stroke-width="0.855544"/>
<path d="M141.575 171.236C141.575 170.291 142.342 169.525 143.287 169.525H150.701C151.646 169.525 152.412 170.291 152.412 171.236V176.369H141.575V171.236Z" fill="#FFFFFF"/>
<rect x="185.636" y="160.827" width="9.98134" height="9.98134" rx="1.28332" stroke="#FFFFFF" stroke-width="0.855544"/>
<g clip-path="url(#clip0_1_57)">
<path d="M146.993 142.434C149.828 142.434 152.126 144.732 152.126 147.566C152.126 150.401 149.828 152.7 146.993 152.7C144.158 152.7 141.86 150.401 141.86 147.566C141.86 144.732 144.158 142.434 146.993 142.434ZM147.413 144.495C147.32 144.038 146.667 144.038 146.574 144.495L146.182 146.422C146.148 146.59 146.016 146.722 145.848 146.756L143.921 147.147C143.465 147.24 143.465 147.893 143.921 147.986L145.848 148.378C146.016 148.412 146.148 148.544 146.182 148.712L146.574 150.639C146.667 151.095 147.32 151.095 147.413 150.639L147.804 148.712C147.838 148.544 147.97 148.412 148.138 148.378L150.065 147.986C150.522 147.893 150.522 147.24 150.065 147.147L148.138 146.756C147.97 146.722 147.838 146.59 147.804 146.422L147.413 144.495Z" fill="#FFFFFF"/>
</g>
<g clip-path="url(#clip1_1_57)">
<path d="M5.8291 0.699219C8.66397 0.699219 10.9626 2.99722 10.9629 5.83203C10.9629 8.66705 8.66412 10.9658 5.8291 10.9658C2.99429 10.9656 0.696289 8.6669 0.696289 5.83203C0.696533 2.99737 2.99444 0.699462 5.8291 0.699219ZM6.24902 2.76074C6.15615 2.30405 5.50303 2.30405 5.41016 2.76074L5.01855 4.6875C4.98433 4.85572 4.8528 4.98726 4.68457 5.02148L2.75781 5.41309C2.30112 5.50596 2.30112 6.15908 2.75781 6.25195L4.68457 6.64355C4.85279 6.67778 4.98434 6.80931 5.01855 6.97754L5.41016 8.9043C5.50303 9.36099 6.15615 9.36099 6.24902 8.9043L6.64062 6.97754C6.67484 6.8093 6.80637 6.67777 6.97461 6.64355L8.90137 6.25195C9.35806 6.15908 9.35806 5.50596 8.90137 5.41309L6.97461 5.02148C6.80638 4.98727 6.67485 4.85572 6.64062 4.6875L6.24902 2.76074Z" fill="#FFFFFF"/>
</g>
<g clip-path="url(#clip2_1_57)">
<path d="M5.8291 163.822C8.66397 163.822 10.9626 166.12 10.9629 168.955C10.9629 171.79 8.66412 174.089 5.8291 174.089C2.99429 174.089 0.696289 171.79 0.696289 168.955C0.696533 166.12 2.99444 163.823 5.8291 163.822ZM6.24902 165.884C6.15615 165.427 5.50303 165.427 5.41016 165.884L5.01855 167.811C4.98433 167.979 4.8528 168.11 4.68457 168.145L2.75781 168.536C2.30112 168.629 2.30112 169.282 2.75781 169.375L4.68457 169.767C4.85279 169.801 4.98434 169.932 5.01855 170.101L5.41016 172.027C5.50303 172.484 6.15615 172.484 6.24902 172.027L6.64062 170.101C6.67484 169.932 6.80637 169.801 6.97461 169.767L8.90137 169.375C9.35806 169.282 9.35806 168.629 8.90137 168.536L6.97461 168.145C6.80638 168.11 6.67485 167.979 6.64062 167.811L6.24902 165.884Z" fill="#FFFFFF"/>
</g>
<g clip-path="url(#clip3_1_57)">
<path d="M288.159 0.699219C290.994 0.699219 293.293 2.99722 293.293 5.83203C293.293 8.66705 290.994 10.9658 288.159 10.9658C285.324 10.9656 283.026 8.6669 283.026 5.83203C283.027 2.99737 285.325 0.699462 288.159 0.699219ZM288.579 2.76074C288.486 2.30405 287.833 2.30405 287.74 2.76074L287.349 4.6875C287.314 4.85572 287.183 4.98726 287.015 5.02148L285.088 5.41309C284.631 5.50596 284.631 6.15908 285.088 6.25195L287.015 6.64355C287.183 6.67778 287.314 6.80931 287.349 6.97754L287.74 8.9043C287.833 9.36099 288.486 9.36099 288.579 8.9043L288.971 6.97754C289.005 6.8093 289.136 6.67777 289.305 6.64355L291.231 6.25195C291.688 6.15908 291.688 5.50596 291.231 5.41309L289.305 5.02148C289.136 4.98727 289.005 4.85572 288.971 4.6875L288.579 2.76074Z" fill="#FFFFFF"/>
</g>
<g clip-path="url(#clip4_1_57)">
<path d="M288.159 163.822C290.994 163.822 293.293 166.12 293.293 168.955C293.293 171.79 290.994 174.089 288.159 174.089C285.324 174.089 283.026 171.79 283.026 168.955C283.027 166.12 285.325 163.823 288.159 163.822ZM288.579 165.884C288.486 165.427 287.833 165.427 287.74 165.884L287.349 167.811C287.314 167.979 287.183 168.11 287.015 168.145L285.088 168.536C284.631 168.629 284.631 169.282 285.088 169.375L287.015 169.767C287.183 169.801 287.314 169.932 287.349 170.101L287.74 172.027C287.833 172.484 288.486 172.484 288.579 172.027L288.971 170.101C289.005 169.932 289.136 169.801 289.305 169.767L291.231 169.375C291.688 169.282 291.688 168.629 291.231 168.536L289.305 168.145C289.136 168.11 289.005 167.979 288.971 167.811L288.579 165.884Z" fill="#FFFFFF"/>
</g>
<defs>
<clipPath id="clip0_1_57">
<rect width="10.2665" height="10.2665" fill="white" transform="translate(141.86 142.434)"/>
</clipPath>
<clipPath id="clip1_1_57">
<rect width="10.2665" height="10.2665" fill="white" transform="translate(0.696289 0.699219)"/>
</clipPath>
<clipPath id="clip2_1_57">
<rect width="10.2665" height="10.2665" fill="white" transform="translate(0.696289 163.822)"/>
</clipPath>
<clipPath id="clip3_1_57">
<rect width="10.2665" height="10.2665" fill="white" transform="translate(283.026 0.699219)"/>
</clipPath>
<clipPath id="clip4_1_57">
<rect width="10.2665" height="10.2665" fill="white" transform="translate(283.026 163.822)"/>
</clipPath>
</defs>
</svg>
