<svg width="308" height="189" viewBox="0 0 308 189" fill="none" xmlns="http://www.w3.org/2000/svg">
<g opacity="0.8">
<mask id="path-1-outside-1_2057_32309" maskUnits="userSpaceOnUse" x="-0.144531" y="-0.144409" width="309" height="189" fill="black">
<rect fill="white" x="-0.144531" y="-0.144409" width="309" height="189"/>
<path d="M294.597 0.855591C301.527 0.855707 307.144 6.47354 307.145 13.4034V175.389C307.145 182.319 301.527 187.938 294.597 187.938H13.4043C6.47415 187.938 0.855469 182.319 0.855469 175.389V13.4034C0.855672 6.47346 6.47427 0.855591 13.4043 0.855591H294.597ZM81.2783 167.52C76.8682 167.52 73.293 171.095 73.293 175.505C73.293 179.915 76.8682 183.49 81.2783 183.49C85.6882 183.49 89.2627 179.915 89.2627 175.505C89.2627 171.095 85.6882 167.52 81.2783 167.52ZM226.826 167.52C222.416 167.52 218.841 171.095 218.841 175.505C218.841 179.915 222.416 183.49 226.826 183.49C231.236 183.49 234.812 179.915 234.812 175.505C234.811 171.095 231.236 167.52 226.826 167.52ZM106.944 167.52C105.999 167.52 105.234 168.286 105.233 169.231V176.646C105.233 177.591 105.999 178.357 106.944 178.357H114.359C115.304 178.356 116.07 177.59 116.07 176.646V169.231C116.07 168.286 115.304 167.52 114.359 167.52H106.944ZM193.744 167.52C192.799 167.52 192.033 168.286 192.033 169.231V176.646C192.033 177.59 192.799 178.356 193.744 178.357H201.159C202.104 178.357 202.87 177.591 202.87 176.646V169.231C202.87 168.286 202.104 167.52 201.159 167.52H193.744ZM91.8291 69.0148C82.5365 69.0149 75.0029 76.5483 75.0029 85.8409C75.003 95.1335 82.5365 102.667 91.8291 102.667C101.122 102.667 108.655 95.1336 108.655 85.8409C108.655 76.5482 101.122 69.0148 91.8291 69.0148ZM216.17 69.0148C206.877 69.0149 199.345 76.5483 199.345 85.8409C199.345 95.1335 206.877 102.667 216.17 102.667C225.463 102.667 232.996 95.1336 232.996 85.8409C232.996 76.5482 225.463 69.0148 216.17 69.0148Z"/>
</mask>
<path d="M294.597 0.855591C301.527 0.855707 307.144 6.47354 307.145 13.4034V175.389C307.145 182.319 301.527 187.938 294.597 187.938H13.4043C6.47415 187.938 0.855469 182.319 0.855469 175.389V13.4034C0.855672 6.47346 6.47427 0.855591 13.4043 0.855591H294.597ZM81.2783 167.52C76.8682 167.52 73.293 171.095 73.293 175.505C73.293 179.915 76.8682 183.49 81.2783 183.49C85.6882 183.49 89.2627 179.915 89.2627 175.505C89.2627 171.095 85.6882 167.52 81.2783 167.52ZM226.826 167.52C222.416 167.52 218.841 171.095 218.841 175.505C218.841 179.915 222.416 183.49 226.826 183.49C231.236 183.49 234.812 179.915 234.812 175.505C234.811 171.095 231.236 167.52 226.826 167.52ZM106.944 167.52C105.999 167.52 105.234 168.286 105.233 169.231V176.646C105.233 177.591 105.999 178.357 106.944 178.357H114.359C115.304 178.356 116.07 177.59 116.07 176.646V169.231C116.07 168.286 115.304 167.52 114.359 167.52H106.944ZM193.744 167.52C192.799 167.52 192.033 168.286 192.033 169.231V176.646C192.033 177.59 192.799 178.356 193.744 178.357H201.159C202.104 178.357 202.87 177.591 202.87 176.646V169.231C202.87 168.286 202.104 167.52 201.159 167.52H193.744ZM91.8291 69.0148C82.5365 69.0149 75.0029 76.5483 75.0029 85.8409C75.003 95.1335 82.5365 102.667 91.8291 102.667C101.122 102.667 108.655 95.1336 108.655 85.8409C108.655 76.5482 101.122 69.0148 91.8291 69.0148ZM216.17 69.0148C206.877 69.0149 199.345 76.5483 199.345 85.8409C199.345 95.1335 206.877 102.667 216.17 102.667C225.463 102.667 232.996 95.1336 232.996 85.8409C232.996 76.5482 225.463 69.0148 216.17 69.0148Z" fill="#E2E2E2"/>
<path d="M294.597 0.855591V3.51667e-05V0.855591ZM307.145 13.4034H308V13.4034L307.145 13.4034ZM294.597 187.938V188.793V187.938ZM0.855469 13.4034L-8.69036e-05 13.4034V13.4034H0.855469ZM81.2783 167.52L81.2784 166.664H81.2783V167.52ZM73.293 175.505H72.4374H73.293ZM81.2783 183.49V184.346H81.2784L81.2783 183.49ZM89.2627 175.505H90.1182H89.2627ZM226.826 167.52L226.826 166.664H226.826V167.52ZM218.841 175.505H217.985H218.841ZM226.826 183.49V184.346H226.826L226.826 183.49ZM234.812 175.505H235.667H234.812ZM105.233 169.231L104.378 169.23V169.231H105.233ZM114.359 178.357V179.212H114.36L114.359 178.357ZM116.07 169.231H116.926V169.23L116.07 169.231ZM114.359 167.52L114.36 166.664H114.359V167.52ZM193.744 167.52V166.664H193.744L193.744 167.52ZM192.033 169.231L191.178 169.23V169.231H192.033ZM193.744 178.357L193.744 179.212H193.744V178.357ZM202.87 169.231H203.726V169.23L202.87 169.231ZM91.8291 69.0148V68.1592H91.8291L91.8291 69.0148ZM75.0029 85.8409H74.1474V85.841L75.0029 85.8409ZM91.8291 102.667L91.8291 103.523H91.8291V102.667ZM108.655 85.8409L109.511 85.841V85.8409H108.655ZM216.17 69.0148V68.1592H216.17L216.17 69.0148ZM199.345 85.8409H198.489V85.841L199.345 85.8409ZM216.17 102.667L216.17 103.523H216.17V102.667ZM232.996 85.8409L233.852 85.841V85.8409H232.996ZM294.597 0.855591V1.71115C301.054 1.71125 306.289 6.94605 306.289 13.4035L307.145 13.4034L308 13.4034C308 6.00104 301.999 0.000159502 294.597 3.51667e-05V0.855591ZM307.145 13.4034H306.289V175.389H307.145H308V13.4034H307.145ZM307.145 175.389H306.289C306.289 181.846 301.054 187.082 294.597 187.082V187.938V188.793C301.999 188.793 308 182.791 308 175.389H307.145ZM294.597 187.938V187.082H13.4043V187.938V188.793H294.597V187.938ZM13.4043 187.938V187.082C6.94666 187.082 1.71102 181.846 1.71102 175.389H0.855469H-8.69036e-05C-8.69036e-05 182.791 6.00164 188.793 13.4043 188.793V187.938ZM0.855469 175.389H1.71102V13.4034H0.855469H-8.69036e-05V175.389H0.855469ZM0.855469 13.4034L1.71102 13.4035C1.71121 6.94604 6.94672 1.71115 13.4043 1.71115V0.855591V3.51667e-05C6.00182 3.51667e-05 0.0001297 6.00089 -8.69036e-05 13.4034L0.855469 13.4034ZM13.4043 0.855591V1.71115H294.597V0.855591V3.51667e-05H13.4043V0.855591ZM81.2783 167.52V166.664C76.3957 166.664 72.4375 170.622 72.4374 175.505H73.293H74.1485C74.1486 171.567 77.3408 168.375 81.2783 168.375V167.52ZM73.293 175.505H72.4374C72.4374 180.388 76.3957 184.346 81.2783 184.346V183.49V182.635C77.3407 182.635 74.1485 179.443 74.1485 175.505H73.293ZM81.2783 183.49L81.2784 184.346C86.1608 184.346 90.1182 180.387 90.1182 175.505H89.2627H88.4071C88.4071 179.443 85.2156 182.635 81.2783 182.635L81.2783 183.49ZM89.2627 175.505H90.1182C90.1182 170.623 86.1608 166.664 81.2784 166.664L81.2783 167.52L81.2783 168.375C85.2156 168.375 88.4071 171.567 88.4071 175.505H89.2627ZM226.826 167.52V166.664C221.944 166.664 217.985 170.622 217.985 175.505H218.841H219.696C219.696 171.567 222.889 168.375 226.826 168.375V167.52ZM218.841 175.505H217.985C217.985 180.388 221.944 184.346 226.826 184.346V183.49V182.635C222.889 182.635 219.696 179.443 219.696 175.505H218.841ZM226.826 183.49L226.826 184.346C231.709 184.346 235.667 180.388 235.667 175.505H234.812H233.956C233.956 179.442 230.764 182.635 226.826 182.635L226.826 183.49ZM234.812 175.505H235.667C235.667 170.622 231.709 166.664 226.826 166.664L226.826 167.52L226.826 168.375C230.764 168.375 233.956 171.568 233.956 175.505H234.812ZM106.944 167.52V166.664C105.527 166.664 104.378 167.813 104.378 169.23L105.233 169.231L106.089 169.231C106.089 168.758 106.472 168.375 106.944 168.375V167.52ZM105.233 169.231H104.378V176.646H105.233H106.089V169.231H105.233ZM105.233 176.646H104.378C104.378 178.063 105.527 179.212 106.944 179.212V178.357V177.501C106.472 177.501 106.089 177.118 106.089 176.646H105.233ZM106.944 178.357V179.212H114.359V178.357V177.501H106.944V178.357ZM114.359 178.357L114.36 179.212C115.777 179.212 116.926 178.063 116.926 176.646H116.07H115.215C115.215 177.118 114.832 177.501 114.359 177.501L114.359 178.357ZM116.07 176.646H116.926V169.231H116.07H115.215V176.646H116.07ZM116.07 169.231L116.926 169.23C116.926 167.813 115.777 166.664 114.36 166.664L114.359 167.52L114.359 168.375C114.832 168.375 115.215 168.758 115.215 169.231L116.07 169.231ZM114.359 167.52V166.664H106.944V167.52V168.375H114.359V167.52ZM193.744 167.52L193.744 166.664C192.327 166.664 191.178 167.813 191.178 169.23L192.033 169.231L192.889 169.231C192.889 168.758 193.272 168.375 193.744 168.375L193.744 167.52ZM192.033 169.231H191.178V176.646H192.033H192.889V169.231H192.033ZM192.033 176.646H191.178C191.178 178.063 192.327 179.212 193.744 179.212L193.744 178.357L193.744 177.501C193.272 177.501 192.889 177.118 192.889 176.646H192.033ZM193.744 178.357V179.212H201.159V178.357V177.501H193.744V178.357ZM201.159 178.357V179.212C202.577 179.212 203.726 178.063 203.726 176.646H202.87H202.015C202.015 177.118 201.632 177.501 201.159 177.501V178.357ZM202.87 176.646H203.726V169.231H202.87H202.015V176.646H202.87ZM202.87 169.231L203.726 169.23C203.725 167.813 202.577 166.664 201.159 166.664V167.52V168.375C201.631 168.375 202.014 168.758 202.015 169.231L202.87 169.231ZM201.159 167.52V166.664H193.744V167.52V168.375H201.159V167.52ZM91.8291 69.0148L91.8291 68.1592C82.064 68.1593 74.1474 76.0758 74.1474 85.8409H75.0029H75.8585C75.8585 77.0208 83.009 69.8704 91.8291 69.8703L91.8291 69.0148ZM75.0029 85.8409L74.1474 85.841C74.1474 95.606 82.064 103.523 91.8291 103.523L91.8291 102.667L91.8291 101.812C83.009 101.811 75.8586 94.661 75.8585 85.8409L75.0029 85.8409ZM91.8291 102.667V103.523C101.594 103.523 109.511 95.6061 109.511 85.841L108.655 85.8409L107.8 85.8409C107.8 94.6611 100.649 101.812 91.8291 101.812V102.667ZM108.655 85.8409H109.511C109.511 76.0757 101.594 68.1592 91.8291 68.1592V69.0148V69.8703C100.649 69.8703 107.8 77.0208 107.8 85.8409H108.655ZM216.17 69.0148L216.17 68.1592C206.405 68.1594 198.489 76.0759 198.489 85.8409H199.345H200.2C200.2 77.0208 207.35 69.8705 216.17 69.8703L216.17 69.0148ZM199.345 85.8409L198.489 85.841C198.489 95.606 206.405 103.523 216.17 103.523L216.17 102.667L216.17 101.812C207.35 101.811 200.2 94.661 200.2 85.8409L199.345 85.8409ZM216.17 102.667V103.523C225.935 103.523 233.852 95.6061 233.852 85.841L232.996 85.8409L232.141 85.8409C232.14 94.6611 224.99 101.812 216.17 101.812V102.667ZM232.996 85.8409H233.852C233.852 76.0757 225.935 68.1592 216.17 68.1592V69.0148V69.8703C224.99 69.8703 232.141 77.0208 232.141 85.8409H232.996Z" fill="#202020" mask="url(#path-1-outside-1_2057_32309)"/>
</g>
<path d="M91.543 34.2224C120.051 34.2226 143.161 57.3327 143.161 85.8406C143.161 114.349 120.051 137.46 91.543 137.46C63.0348 137.46 39.9238 114.349 39.9238 85.8406C39.924 57.3326 63.0349 34.2224 91.543 34.2224ZM91.8281 68.1599C82.063 68.1599 74.1467 76.0755 74.1465 85.8406C74.1465 95.6058 82.0629 103.522 91.8281 103.522C101.593 103.522 109.51 95.6058 109.51 85.8406C109.51 76.0755 101.593 68.1599 91.8281 68.1599Z" fill="#202020"/>
<path d="M215.885 64.452C227.697 64.4522 237.273 74.0281 237.273 85.8407C237.273 97.6534 227.697 107.229 215.885 107.229C204.072 107.229 194.496 97.6535 194.496 85.8407C194.496 74.028 204.072 64.452 215.885 64.452ZM216.17 68.1591C206.405 68.1591 198.488 76.0756 198.488 85.8407C198.488 95.6059 206.405 103.522 216.17 103.522C225.935 103.522 233.852 95.6059 233.852 85.8407C233.851 76.0756 225.935 68.1591 216.17 68.1591Z" fill="#202020"/>
<path d="M36.0748 77.8556C33.0977 101.456 21.5126 157.668 24.5247 175.817M33.3656 183.232C53.1859 183.517 272.493 183.232 274.632 183.232M233.423 73.863C243.52 88.8261 276.008 148.659 283.316 171.967" stroke="#202020" stroke-width="0.285185"/>
<path d="M33.1826 165.254C38.2227 165.254 42.3086 169.34 42.3086 174.38C42.3085 179.42 38.2227 183.506 33.1826 183.506C28.1427 183.506 24.0567 179.42 24.0566 174.38C24.0566 169.34 28.1426 165.254 33.1826 165.254ZM33.1826 170.538C31.0607 170.538 29.3409 172.259 29.3408 174.381C29.3408 176.503 31.0606 178.224 33.1826 178.224C35.3048 178.224 37.0254 176.503 37.0254 174.381C37.0253 172.259 35.3047 170.538 33.1826 170.538Z" fill="#202020"/>
<path d="M274.45 165.254C279.49 165.254 283.576 169.34 283.576 174.38C283.576 179.42 279.49 183.506 274.45 183.506C269.41 183.506 265.324 179.42 265.324 174.38C265.324 169.34 269.41 165.254 274.45 165.254ZM274.45 170.538C272.328 170.538 270.609 172.259 270.608 174.381C270.608 176.503 272.328 178.224 274.45 178.224C276.572 178.224 278.293 176.503 278.293 174.381C278.293 172.259 276.572 170.538 274.45 170.538Z" fill="#202020"/>
<path d="M69.4082 146.158H240.867C244.842 146.158 248.312 148.853 249.295 152.704L258.396 188.365H49.916L61.0996 152.281C62.2281 148.64 65.5963 146.158 69.4082 146.158Z" stroke="#202020" stroke-width="0.855556"/>
<circle cx="81.2762" cy="175.521" r="7.55741" stroke="#202020" stroke-width="0.855556"/>
<circle cx="226.825" cy="175.521" r="7.55741" stroke="#202020" stroke-width="0.855556"/>
<rect x="105.66" y="167.963" width="9.98148" height="9.98148" rx="1.28333" stroke="#202020" stroke-width="0.855556"/>
<path d="M148.58 178.373C148.58 177.428 149.346 176.661 150.291 176.661H157.706C158.651 176.661 159.417 177.428 159.417 178.373V183.506H148.58V178.373Z" fill="#202020"/>
<rect x="192.461" y="167.963" width="9.98148" height="9.98148" rx="1.28333" stroke="#202020" stroke-width="0.855556"/>
<g clip-path="url(#clip0_2057_32309)">
<path d="M153.908 149.569C156.743 149.569 159.042 151.868 159.042 154.703C159.042 157.537 156.743 159.835 153.908 159.835C151.073 159.835 148.776 157.537 148.775 154.703C148.775 151.868 151.073 149.569 153.908 149.569ZM154.327 151.63C154.234 151.174 153.582 151.174 153.489 151.63L153.098 153.557C153.063 153.725 152.932 153.857 152.764 153.891L150.836 154.283C150.38 154.376 150.38 155.029 150.836 155.122L152.764 155.513C152.932 155.548 153.063 155.679 153.098 155.847L153.489 157.774C153.582 158.231 154.234 158.231 154.327 157.774L154.72 155.847C154.754 155.679 154.885 155.547 155.054 155.513L156.98 155.122C157.437 155.029 157.437 154.376 156.98 154.283L155.054 153.891C154.885 153.857 154.754 153.725 154.72 153.557L154.327 151.63Z" fill="#202020"/>
</g>
<g clip-path="url(#clip1_2057_32309)">
<path d="M12.833 7.7002C15.668 7.70027 17.9658 9.99897 17.9658 12.834C17.9656 15.6688 15.6678 17.9667 12.833 17.9668C9.99811 17.9668 7.69948 15.6688 7.69922 12.834C7.69922 9.99892 9.99795 7.7002 12.833 7.7002ZM13.252 9.76172C13.1591 9.30502 12.5069 9.30502 12.4141 9.76172L12.0215 11.6885C11.9872 11.8567 11.8557 11.9882 11.6875 12.0225L9.76074 12.4141C9.30406 12.507 9.30406 13.16 9.76074 13.2529L11.6875 13.6445C11.8557 13.6787 11.9872 13.8103 12.0215 13.9785L12.4141 15.9053C12.5069 16.362 13.1591 16.362 13.252 15.9053L13.6436 13.9785C13.6777 13.8104 13.8095 13.6789 13.9775 13.6445L15.9053 13.2529C16.3616 13.1598 16.3616 12.5071 15.9053 12.4141L13.9775 12.0225C13.8095 11.9881 13.6777 11.8566 13.6436 11.6885L13.252 9.76172Z" fill="#202020"/>
</g>
<g clip-path="url(#clip2_2057_32309)">
<path d="M12.833 170.958C15.668 170.958 17.9658 173.257 17.9658 176.092C17.9656 178.926 15.6678 181.224 12.833 181.224C9.99811 181.224 7.69948 178.927 7.69922 176.092C7.69922 173.257 9.99795 170.958 12.833 170.958ZM13.252 173.019C13.1591 172.563 12.5069 172.563 12.4141 173.019L12.0215 174.946C11.9872 175.114 11.8557 175.246 11.6875 175.28L9.76074 175.672C9.30406 175.765 9.30406 176.418 9.76074 176.511L11.6875 176.902C11.8557 176.936 11.9872 177.068 12.0215 177.236L12.4141 179.163C12.5069 179.62 13.1591 179.62 13.252 179.163L13.6436 177.236C13.6777 177.068 13.8095 176.937 13.9775 176.902L15.9053 176.511C16.3616 176.418 16.3616 175.765 15.9053 175.672L13.9775 175.28C13.8095 175.246 13.6777 175.114 13.6436 174.946L13.252 173.019Z" fill="#202020"/>
</g>
<g clip-path="url(#clip3_2057_32309)">
<path d="M294.985 7.7002C297.82 7.70044 300.118 9.99907 300.118 12.834C300.118 15.6687 297.82 17.9666 294.985 17.9668C292.15 17.9668 289.852 15.6688 289.852 12.834C289.852 9.99892 292.15 7.7002 294.985 7.7002ZM295.404 9.76172C295.311 9.30502 294.658 9.30502 294.565 9.76172L294.174 11.6885C294.14 11.8567 294.008 11.9882 293.84 12.0225L291.913 12.4141C291.456 12.5069 291.456 13.1601 291.913 13.2529L293.84 13.6445C294.008 13.6787 294.14 13.8103 294.174 13.9785L294.565 15.9053C294.658 16.362 295.311 16.362 295.404 15.9053L295.796 13.9785C295.83 13.8103 295.962 13.6788 296.13 13.6445L298.057 13.2529C298.513 13.1601 298.513 12.5069 298.057 12.4141L296.13 12.0225C295.962 11.9882 295.83 11.8567 295.796 11.6885L295.404 9.76172Z" fill="#202020"/>
</g>
<g clip-path="url(#clip4_2057_32309)">
<path d="M294.985 170.958C297.82 170.958 300.118 173.257 300.118 176.092C300.118 178.926 297.82 181.224 294.985 181.224C292.15 181.224 289.852 178.927 289.852 176.092C289.852 173.257 292.15 170.958 294.985 170.958ZM295.404 173.019C295.311 172.563 294.658 172.563 294.565 173.019L294.174 174.946C294.14 175.114 294.008 175.246 293.84 175.28L291.913 175.672C291.456 175.765 291.456 176.418 291.913 176.511L293.84 176.902C294.008 176.936 294.14 177.068 294.174 177.236L294.565 179.163C294.658 179.62 295.311 179.62 295.404 179.163L295.796 177.236C295.83 177.068 295.962 176.936 296.13 176.902L298.057 176.511C298.513 176.418 298.513 175.765 298.057 175.672L296.13 175.28C295.962 175.246 295.83 175.114 295.796 174.946L295.404 173.019Z" fill="#202020"/>
</g>
<mask id="mask0_2057_32309" style="mask-type:alpha" maskUnits="userSpaceOnUse" x="17" y="15" width="274" height="123">
<path d="M34.0469 16.3982H274.523C276.824 16.3982 279.03 17.3096 280.66 18.9324L287.899 26.1394C289.539 27.7717 290.461 29.9898 290.461 32.3035V128.334C290.461 133.137 286.566 137.032 281.763 137.032H26.8076C22.0039 137.032 18.1095 133.137 18.1094 128.334V32.3035C18.1094 29.9899 19.0313 27.7717 20.6709 26.1394L27.9102 18.9324C29.5402 17.3097 31.7469 16.3983 34.0469 16.3982ZM88.6924 60.032C74.5961 60.0322 63.1691 71.4591 63.1689 85.5554V86.1257C63.1689 100.222 74.596 111.65 88.6924 111.65H219.308C233.404 111.65 244.832 100.222 244.832 86.1257V85.5554C244.832 71.459 233.404 60.032 219.308 60.032H88.6924Z" fill="#EDA35F" stroke="#202020" stroke-width="0.855556"/>
</mask>
<g mask="url(#mask0_2057_32309)">
<g clip-path="url(#clip5_2057_32309)">
<rect width="273.207" height="121.489" transform="translate(17.6816 15.9705)" fill="#FCF7F2"/>
<g clip-path="url(#clip6_2057_32309)">
<rect width="273.493" height="13.6826" transform="matrix(1 0 0 -1 17.8242 137.567)" fill="#9B51E0"/>
<rect width="273.493" height="9.40679" transform="matrix(1 0 0 -1 17.8242 120.463)" fill="#9B51E0"/>
<rect width="273.493" height="1.71033" transform="matrix(1 0 0 -1 17.8242 70.0088)" fill="#9B51E0"/>
<rect width="273.493" height="0.855164" transform="matrix(1 0 0 -1 17.8242 61.4572)" fill="#9B51E0"/>
<rect width="273.493" height="6.8413" transform="matrix(1 0 0 -1 17.8242 107.636)" fill="#9B51E0"/>
<rect width="273.493" height="3.42065" transform="matrix(1 0 0 -1 17.8242 87.1121)" fill="#9B51E0"/>
<rect width="273.493" height="5.13098" transform="matrix(1 0 0 -1 17.8242 96.5188)" fill="#9B51E0"/>
<rect width="273.493" height="2.56549" transform="matrix(1 0 0 -1 17.8242 78.5604)" fill="#9B51E0"/>
</g>
</g>
</g>
<path d="M274.348 15.9705H34.0405C31.6263 15.9705 29.3104 16.9271 27.5999 18.631L20.367 25.8362C18.6479 27.5487 17.6816 29.8752 17.6816 32.3016V128.333C17.6816 133.374 21.7675 137.459 26.8076 137.459H281.581C286.622 137.459 290.707 133.374 290.707 128.333V32.3016C290.707 29.8752 289.741 27.5487 288.022 25.8362L280.789 18.631C279.079 16.9271 276.763 15.9705 274.348 15.9705Z" stroke="#202020" stroke-width="0.855556"/>
<g clip-path="url(#clip7_2057_32309)">
<path d="M88.6924 60.8871H219.307C232.931 60.8871 243.976 71.932 243.976 85.556V86.1263C243.975 99.7502 232.931 110.794 219.307 110.794H88.6924C75.0684 110.794 64.0236 99.7502 64.0234 86.1263V85.556C64.0234 71.932 75.0683 60.8871 88.6924 60.8871Z" stroke="#202020" stroke-width="0.855556"/>
<path d="M216.207 68.7802C225.5 68.7803 233.032 76.3137 233.032 85.6063C233.032 94.8988 225.5 102.431 216.207 102.432C206.914 102.432 199.381 94.8989 199.381 85.6063C199.381 76.3136 206.914 68.7802 216.207 68.7802ZM216.111 73.0575C214.387 73.0575 212.744 73.4048 211.248 74.0341L212.761 76.6542L210.04 78.2245L208.529 75.6073C205.906 77.5998 204.09 80.6009 203.661 84.0331H206.687V87.1737H203.66C204.088 90.6051 205.902 93.605 208.523 95.5985L210.035 92.9803L212.756 94.5516L211.241 97.1737C212.739 97.8048 214.384 98.1542 216.111 98.1542C217.835 98.1541 219.477 97.8047 220.973 97.1757L219.462 94.5575L222.183 92.9872L223.692 95.6024C226.317 93.6089 228.134 90.6077 228.562 87.1737H225.535V84.0331H228.562C228.132 80.6021 226.317 77.6028 223.695 75.6102L222.187 78.2264L219.466 76.6561L220.978 74.036C219.481 73.4059 217.837 73.0575 216.111 73.0575Z" fill="#202020"/>
<path d="M91.8301 68.7802C101.123 68.7802 108.656 76.3136 108.656 85.6063C108.656 94.8989 101.123 102.432 91.8301 102.432C82.5376 102.431 75.0041 94.8988 75.0039 85.6063C75.0039 76.3137 82.5375 68.7803 91.8301 68.7802ZM91.7344 73.0575C90.0105 73.0575 88.3673 73.4051 86.8721 74.0341L88.3857 76.6542L85.665 78.2245L84.1543 75.6063C81.53 77.5988 79.7135 80.6003 79.2842 84.0331H82.3115V87.1737H79.2832C79.711 90.6058 81.5263 93.606 84.1484 95.5995L85.6602 92.9803L88.3809 94.5516L86.8652 97.1737C88.3624 97.8047 90.0077 98.1541 91.7344 98.1542C93.4587 98.1541 95.1021 97.805 96.5977 97.1757L95.0859 94.5575L97.8066 92.9872L99.3164 95.6014C101.94 93.608 103.758 90.6073 104.186 87.1737H101.16V84.0331H104.185C103.756 80.6028 101.941 77.6037 99.3203 75.6112L97.8115 78.2264L95.0908 76.6561L96.6016 74.037C95.105 73.4066 93.4602 73.0575 91.7344 73.0575Z" fill="#202020"/>
</g>
<path d="M144.12 34.246C144.054 34.2871 143.984 34.3118 143.91 34.32C143.836 34.3283 143.758 34.3406 143.676 34.357C143.602 34.3653 143.532 34.3817 143.466 34.4064C143.401 34.431 143.351 34.4763 143.318 34.542C143.236 34.4598 143.146 34.3899 143.047 34.3324C142.948 34.2748 142.85 34.2131 142.751 34.1474C142.669 34.172 142.587 34.2049 142.504 34.246C142.422 34.2871 142.34 34.3077 142.258 34.3077C142.2 34.3077 142.143 34.2871 142.085 34.246C142.019 34.2954 141.941 34.3365 141.851 34.3694C141.769 34.394 141.678 34.4187 141.579 34.4434C141.489 34.468 141.403 34.5009 141.32 34.542C141.246 34.5832 141.193 34.6448 141.16 34.727C141.144 34.6859 141.102 34.6736 141.037 34.69C140.979 34.7065 140.946 34.6859 140.938 34.6284C140.675 34.7188 140.408 34.7969 140.136 34.8627C139.865 34.9285 139.594 34.9984 139.322 35.0724C139.051 35.1464 138.784 35.2286 138.521 35.3191C138.257 35.4095 138.003 35.5205 137.756 35.6521C137.748 35.6603 137.744 35.6726 137.744 35.6891C137.744 35.7713 137.756 35.8494 137.781 35.9234C137.805 35.9974 137.826 36.0673 137.842 36.1331C137.694 36.6347 137.596 37.1445 137.546 37.6625C137.497 38.1805 137.431 38.6903 137.349 39.1919V39.2412C137.349 39.2823 137.365 39.3152 137.398 39.3399C137.431 39.3563 137.448 39.3892 137.448 39.4385L137.435 39.4632C137.394 39.4879 137.365 39.5249 137.349 39.5742C137.332 39.6153 137.324 39.6606 137.324 39.7099C137.324 39.7428 137.332 39.7921 137.349 39.8579C137.209 40.3266 137.115 40.8035 137.065 41.2886C137.024 41.7737 136.971 42.2589 136.905 42.744L136.794 43.558C136.777 43.6074 136.761 43.6567 136.745 43.706C136.736 43.7472 136.732 43.7924 136.732 43.8417C136.732 44.1048 136.749 44.3638 136.782 44.6187C136.823 44.8654 136.835 45.1203 136.819 45.3834C136.893 45.4985 136.93 45.6096 136.93 45.7164C136.93 45.7576 136.925 45.7987 136.917 45.8398C136.917 45.8809 136.913 45.922 136.905 45.9631C137.012 46.07 137.135 46.144 137.275 46.1851C137.423 46.2345 137.554 46.3085 137.67 46.4071V46.4565C137.67 46.5387 137.657 46.6168 137.633 46.6908C137.608 46.773 137.587 46.8553 137.571 46.9375C137.554 47.0033 137.534 47.0978 137.509 47.2212C137.493 47.3445 137.468 47.4267 137.435 47.4678C137.394 47.5254 137.332 47.5747 137.25 47.6158C137.176 47.6652 137.102 47.6899 137.028 47.6899C137.004 47.6899 136.967 47.6775 136.917 47.6528C136.876 47.6282 136.843 47.6076 136.819 47.5912C136.777 47.5912 136.724 47.6117 136.658 47.6528C136.592 47.694 136.527 47.7145 136.461 47.7145C136.428 47.7145 136.399 47.7104 136.375 47.7022C136.35 47.7022 136.321 47.694 136.288 47.6775C136.255 47.5953 136.206 47.5213 136.14 47.4555C136.083 47.398 136.013 47.3404 135.931 47.2828C135.939 47.1677 135.918 47.0814 135.869 47.0238C135.82 46.9663 135.77 46.8923 135.721 46.8018C135.704 46.6867 135.688 46.5551 135.672 46.4071C135.663 46.2591 135.602 46.1522 135.487 46.0865C135.528 46.0289 135.548 45.9508 135.548 45.8521C135.548 45.811 135.54 45.7658 135.524 45.7164C135.515 45.6671 135.491 45.6301 135.45 45.6054V45.5808C135.441 45.5397 135.454 45.5109 135.487 45.4944C135.528 45.4698 135.548 45.4369 135.548 45.3958V45.3464C135.491 45.0833 135.462 44.8079 135.462 44.5201C135.462 44.2487 135.47 43.9815 135.487 43.7184C135.503 43.447 135.503 43.1757 135.487 42.9043C135.536 42.8632 135.573 42.7974 135.598 42.707C135.63 42.6166 135.655 42.5179 135.672 42.411C135.688 42.3041 135.696 42.2013 135.696 42.1026C135.704 41.9958 135.713 41.9094 135.721 41.8436C135.762 41.375 135.828 40.9145 135.918 40.4623C136.009 40.0018 136.062 39.5331 136.079 39.0562C136.12 38.9904 136.144 38.9041 136.153 38.7972C136.161 38.6903 136.165 38.5793 136.165 38.4642C136.165 38.3408 136.173 38.2216 136.19 38.1065C136.206 37.9914 136.239 37.8927 136.288 37.8105C136.288 37.5803 136.309 37.35 136.35 37.1198C136.391 36.8813 136.412 36.6429 136.412 36.4044C136.412 36.2893 136.399 36.1701 136.375 36.0468C136.292 36.0139 136.218 35.9974 136.153 35.9974C136.062 35.9974 135.968 36.018 135.869 36.0591C135.778 36.092 135.713 36.1454 135.672 36.2194C135.491 36.2277 135.314 36.2564 135.141 36.3058C134.968 36.3551 134.796 36.3798 134.623 36.3798H134.5C134.467 36.3798 134.43 36.3757 134.389 36.3674C134.331 36.3921 134.27 36.4127 134.204 36.4291C134.146 36.4456 134.122 36.4949 134.13 36.5771C133.875 36.6018 133.624 36.6552 133.377 36.7375C133.139 36.8197 132.901 36.9101 132.662 37.0088C132.424 37.0992 132.185 37.1856 131.947 37.2678C131.7 37.35 131.449 37.4035 131.194 37.4281C131.104 37.4693 131.046 37.5556 131.022 37.6872C130.841 37.6707 130.689 37.6255 130.565 37.5515C130.442 37.4775 130.298 37.4076 130.134 37.3418C130.084 37.1691 130.06 37.0047 130.06 36.8485C130.06 36.6429 130.101 36.4456 130.183 36.2564C130.265 36.0673 130.397 35.9275 130.578 35.8371C130.619 35.8453 130.656 35.8535 130.689 35.8618C130.722 35.8618 130.759 35.8618 130.8 35.8618C130.931 35.8618 131.063 35.8371 131.194 35.7878C131.326 35.7384 131.462 35.7137 131.601 35.7137C131.642 35.7137 131.688 35.7261 131.737 35.7507C131.795 35.7179 131.869 35.6932 131.959 35.6767C132.041 35.6521 132.119 35.6315 132.193 35.6151C132.276 35.5904 132.35 35.5575 132.415 35.5164C132.481 35.4753 132.522 35.4177 132.539 35.3437C132.58 35.3766 132.625 35.3972 132.674 35.4054C132.724 35.4136 132.773 35.4177 132.822 35.4177C132.929 35.4177 133.04 35.3972 133.155 35.3561C133.271 35.315 133.361 35.2492 133.427 35.1587C133.484 35.2245 133.567 35.2574 133.673 35.2574C133.789 35.2574 133.9 35.2286 134.006 35.1711C134.122 35.1053 134.233 35.0724 134.339 35.0724C134.422 35.0724 134.483 35.1012 134.524 35.1587C134.615 35.0847 134.722 35.0272 134.845 34.9861C134.968 34.9449 135.092 34.9079 135.215 34.8751C135.347 34.8422 135.466 34.8052 135.573 34.764C135.688 34.7229 135.778 34.6654 135.844 34.5914C135.885 34.5996 135.951 34.6037 136.042 34.6037C136.181 34.6037 136.313 34.5873 136.436 34.5544C136.568 34.5133 136.699 34.4763 136.831 34.4434L137.09 34.4187C137.156 34.4105 137.213 34.3899 137.263 34.357C137.32 34.3241 137.378 34.2954 137.435 34.2707C137.493 34.246 137.55 34.2255 137.608 34.209C137.674 34.1926 137.752 34.1885 137.842 34.1967C138.04 34.0898 138.249 34.0076 138.471 33.95C138.693 33.8925 138.919 33.8431 139.15 33.802C139.38 33.7527 139.606 33.6992 139.828 33.6417C140.05 33.5759 140.26 33.4813 140.457 33.358H140.494C140.658 33.358 140.819 33.3292 140.975 33.2717C141.139 33.2141 141.292 33.136 141.431 33.0373C141.456 33.0455 141.481 33.0497 141.505 33.0497H141.592C141.822 33.0497 142.044 33.0168 142.258 32.951C142.48 32.8852 142.71 32.8523 142.948 32.8523C143.088 32.8523 143.199 32.8729 143.281 32.914C143.364 32.9469 143.438 32.9921 143.503 33.0497C143.569 33.099 143.639 33.1483 143.713 33.1977C143.787 33.247 143.882 33.284 143.997 33.3087C144.071 33.4484 144.108 33.6006 144.108 33.765C144.108 33.9212 144.112 34.0816 144.12 34.246ZM153.778 32.5193C153.778 32.5933 153.773 32.6673 153.765 32.7413C153.765 32.8153 153.761 32.8852 153.753 32.951C153.728 32.9921 153.679 33.0085 153.605 33.0003C153.539 32.9921 153.486 32.988 153.444 32.988C153.403 32.988 153.366 32.9962 153.333 33.0126C153.309 33.0209 153.296 33.0455 153.296 33.0867C153.296 33.136 153.301 33.1689 153.309 33.1853C153.243 33.1771 153.173 33.1689 153.099 33.1607C153.025 33.1524 152.959 33.1278 152.902 33.0867C152.787 33.1113 152.676 33.1442 152.569 33.1853C152.47 33.2264 152.371 33.2717 152.273 33.321C152.174 33.3703 152.071 33.4156 151.964 33.4567C151.858 33.4978 151.747 33.5224 151.631 33.5307C151.557 33.6129 151.463 33.6746 151.348 33.7157C151.233 33.7568 151.113 33.7938 150.99 33.8267C150.867 33.8596 150.752 33.9007 150.645 33.95C150.538 33.9911 150.451 34.0569 150.386 34.1474C150.205 34.1638 150.032 34.209 149.868 34.283C149.703 34.357 149.539 34.4351 149.374 34.5174C149.218 34.5996 149.058 34.6777 148.893 34.7517C148.729 34.8257 148.552 34.8751 148.363 34.8997C148.314 34.9491 148.252 34.9902 148.178 35.0231C148.112 35.0559 148.042 35.0888 147.968 35.1217C147.894 35.1464 147.824 35.1752 147.759 35.2081C147.693 35.241 147.639 35.2862 147.598 35.3437H147.574C147.541 35.3437 147.516 35.3355 147.5 35.3191C147.483 35.3026 147.459 35.2944 147.426 35.2944C147.401 35.2944 147.384 35.2985 147.376 35.3067C147.179 35.3972 146.982 35.4917 146.784 35.5904C146.587 35.6891 146.381 35.7836 146.168 35.8741C145.748 36.0468 145.325 36.2153 144.897 36.3798C144.47 36.5442 144.058 36.7457 143.664 36.9841C143.573 37.313 143.499 37.6502 143.442 37.9955C143.384 38.3326 143.281 38.6574 143.133 38.9699V39.5496C143.051 39.7058 142.998 39.8785 142.973 40.0676C142.948 40.2567 142.936 40.4376 142.936 40.6103C142.936 40.676 142.936 40.7377 142.936 40.7953C142.944 40.8446 142.948 40.898 142.948 40.9556C143.187 40.8898 143.417 40.8158 143.639 40.7336C143.869 40.6514 144.1 40.5774 144.33 40.5116C144.445 40.4705 144.56 40.4417 144.675 40.4253C144.799 40.4088 144.918 40.38 145.033 40.3389C145.123 40.3142 145.218 40.2814 145.317 40.2402C145.415 40.1909 145.51 40.1457 145.6 40.1046C145.847 39.9977 146.098 39.9031 146.353 39.8209C146.616 39.7387 146.883 39.677 147.154 39.6359C147.236 39.5701 147.327 39.5084 147.426 39.4509C147.524 39.3933 147.623 39.3645 147.722 39.3645C147.796 39.3645 147.857 39.3769 147.907 39.4015C148.046 39.3193 148.211 39.2453 148.4 39.1795C148.589 39.1138 148.766 39.0891 148.93 39.1055C148.971 39.048 149.021 39.011 149.078 38.9945C149.136 38.9699 149.198 38.9575 149.263 38.9575C149.296 38.9575 149.325 38.9616 149.35 38.9699C149.383 38.9699 149.42 38.9699 149.461 38.9699C149.543 38.9123 149.633 38.8712 149.732 38.8465C149.831 38.8219 149.929 38.8013 150.028 38.7849C150.127 38.7684 150.221 38.7479 150.312 38.7232C150.41 38.6903 150.497 38.641 150.571 38.5752C150.686 38.5834 150.776 38.6163 150.842 38.6739C150.916 38.7314 150.978 38.8013 151.027 38.8835C151.076 38.9658 151.118 39.0521 151.15 39.1425C151.183 39.233 151.224 39.3193 151.274 39.4015C151.257 39.4673 151.233 39.5208 151.2 39.5619C151.167 39.5948 151.13 39.6277 151.089 39.6606C151.048 39.6934 151.011 39.7263 150.978 39.7592C150.945 39.7921 150.924 39.8373 150.916 39.8949C150.628 39.8949 150.349 39.936 150.077 40.0182C149.814 40.1005 149.551 40.195 149.288 40.3019C149.033 40.4088 148.77 40.5116 148.499 40.6103C148.236 40.7007 147.964 40.7583 147.685 40.7829C147.644 40.824 147.59 40.8569 147.524 40.8816L147.339 40.9433C147.282 40.9597 147.228 40.9844 147.179 41.0173C147.13 41.0419 147.093 41.0831 147.068 41.1406C147.019 41.1159 146.965 41.1036 146.908 41.1036C146.768 41.1036 146.632 41.1406 146.501 41.2146C146.369 41.2886 146.221 41.3256 146.057 41.3256C145.991 41.3256 145.946 41.3215 145.921 41.3133C145.88 41.3873 145.818 41.4407 145.736 41.4736C145.662 41.5065 145.58 41.5353 145.489 41.56C145.407 41.5764 145.325 41.6011 145.243 41.634C145.169 41.6669 145.111 41.7244 145.07 41.8066C145.045 41.7984 145.016 41.7943 144.984 41.7943H144.91C144.778 41.7943 144.626 41.819 144.453 41.8683C144.289 41.9094 144.169 41.9916 144.095 42.115C144.03 42.0985 143.972 42.0903 143.923 42.0903C143.808 42.0903 143.705 42.115 143.614 42.1643C143.524 42.2054 143.434 42.2548 143.343 42.3123L143.072 42.485C142.981 42.5426 142.883 42.5837 142.776 42.6083C142.562 42.9126 142.414 43.262 142.332 43.6567C142.25 44.0514 142.188 44.4625 142.147 44.8901C142.114 45.3177 142.081 45.7411 142.048 46.1605C142.015 46.588 141.949 46.9786 141.851 47.3322C141.9 47.4637 141.937 47.6035 141.962 47.7515C141.986 47.8995 142.007 48.0475 142.023 48.1955C142.04 48.3518 142.056 48.508 142.073 48.6642C142.089 48.8204 142.118 48.9685 142.159 49.1082C142.2 49.2809 142.278 49.433 142.393 49.5646C142.517 49.7044 142.603 49.8606 142.652 50.0333C142.694 50.0415 142.735 50.0456 142.776 50.0456C142.825 50.0538 142.874 50.0579 142.924 50.0579C143.22 50.0579 143.479 50.0004 143.701 49.8853C143.931 49.7701 144.145 49.6263 144.342 49.4536C144.54 49.2891 144.729 49.1082 144.91 48.9109C145.099 48.7218 145.3 48.5532 145.514 48.4052H145.748C145.806 48.3394 145.855 48.2695 145.896 48.1955C145.937 48.1215 145.983 48.0516 146.032 47.9859C146.081 47.9201 146.139 47.8625 146.205 47.8132C146.27 47.7721 146.353 47.7433 146.451 47.7269C146.476 47.6035 146.533 47.509 146.624 47.4432C146.714 47.3774 146.776 47.2787 146.809 47.1472C146.825 47.1554 146.846 47.1595 146.871 47.1595C146.936 47.1595 146.986 47.1431 147.019 47.1102L147.204 46.9375C147.269 46.8717 147.339 46.8059 147.413 46.7401C147.496 46.6826 147.574 46.625 147.648 46.5675C147.886 46.3948 148.125 46.2221 148.363 46.0495C148.601 45.885 148.819 45.6918 149.017 45.4698C149.025 45.478 149.037 45.4821 149.054 45.4821C149.119 45.4821 149.165 45.4615 149.189 45.4204C149.214 45.3793 149.272 45.367 149.362 45.3834C149.411 45.3094 149.457 45.2354 149.498 45.1614C149.539 45.0792 149.572 44.9929 149.596 44.9024L149.991 44.9518C150.123 44.9682 150.254 44.9764 150.386 44.9764C150.427 44.9764 150.464 44.9764 150.497 44.9764C150.538 44.9682 150.575 44.9559 150.608 44.9394C150.706 45.0956 150.76 45.2642 150.768 45.4451C150.776 45.6178 150.797 45.7904 150.83 45.9631C150.813 45.9631 150.801 45.9631 150.793 45.9631C150.793 45.9549 150.785 45.9508 150.768 45.9508C150.727 45.9508 150.686 45.9672 150.645 46.0001C150.612 46.0248 150.575 46.0577 150.534 46.0988L150.41 46.2221C150.369 46.2632 150.332 46.2961 150.299 46.3208C150.209 46.3784 150.114 46.4277 150.016 46.4688C149.917 46.5181 149.822 46.5675 149.732 46.6168C149.642 46.6661 149.555 46.7237 149.473 46.7895C149.391 46.8635 149.325 46.9539 149.276 47.0608C149.111 47.1266 148.951 47.1965 148.795 47.2705C148.647 47.3445 148.503 47.4226 148.363 47.5048C148.322 47.546 148.285 47.5871 148.252 47.6282C148.219 47.6693 148.194 47.7145 148.178 47.7639C147.956 47.8379 147.771 47.9489 147.623 48.0969C147.483 48.2449 147.339 48.4052 147.191 48.5779L147.179 48.5655C147.121 48.5655 147.084 48.5861 147.068 48.6272C147.06 48.6683 147.014 48.6807 146.932 48.6642C146.776 48.8369 146.612 48.9972 146.439 49.1452C146.266 49.2932 146.089 49.4412 145.909 49.5893C145.728 49.7373 145.547 49.8853 145.366 50.0333C145.185 50.1895 145.016 50.3539 144.86 50.5266C144.753 50.5595 144.651 50.6006 144.552 50.65C144.453 50.6993 144.379 50.7733 144.33 50.872H144.293C144.202 50.872 144.137 50.8925 144.095 50.9336C144.063 50.9747 144.021 51.0282 143.972 51.094C143.799 51.1351 143.623 51.1803 143.442 51.2296C143.261 51.279 143.076 51.3036 142.887 51.3036C142.755 51.3036 142.628 51.279 142.504 51.2296C142.389 51.1803 142.274 51.1145 142.159 51.0323C142.052 50.9583 141.949 50.8761 141.851 50.7856C141.76 50.6952 141.674 50.6088 141.592 50.5266C141.542 50.3622 141.477 50.1895 141.394 50.0086C141.32 49.8359 141.283 49.6674 141.283 49.5029C141.283 49.4618 141.287 49.4207 141.296 49.3796C141.312 49.3467 141.32 49.3138 141.32 49.2809C141.32 49.2234 141.3 49.1987 141.259 49.2069C141.226 49.2151 141.201 49.1946 141.185 49.1452C141.168 49.063 141.156 48.9685 141.148 48.8616C141.148 48.7629 141.139 48.6683 141.123 48.5779C141.098 48.3888 141.065 48.1955 141.024 47.9982C140.991 47.8009 140.954 47.6076 140.913 47.4185C140.946 47.4021 140.971 47.3733 140.987 47.3322C141.012 47.2993 141.037 47.2664 141.061 47.2335C141.037 47.1677 141.012 47.0937 140.987 47.0115C140.971 46.9375 140.963 46.8594 140.963 46.7772C140.963 46.6127 141.024 46.4894 141.148 46.4071C141.148 46.3496 141.131 46.3044 141.098 46.2715C141.074 46.2468 141.061 46.2016 141.061 46.1358C141.061 46.1193 141.065 46.0741 141.074 46.0001C141.09 45.9179 141.107 45.8274 141.123 45.7288C141.148 45.6301 141.168 45.5355 141.185 45.4451C141.201 45.3547 141.213 45.293 141.222 45.2601C141.279 44.8819 141.329 44.5118 141.37 44.1501C141.411 43.78 141.468 43.41 141.542 43.04C141.46 42.9742 141.353 42.9249 141.222 42.892C141.098 42.8509 141.012 42.7974 140.963 42.7317C140.922 42.6741 140.889 42.6001 140.864 42.5097C140.839 42.4192 140.827 42.3411 140.827 42.2753C140.827 42.0369 140.922 41.8477 141.111 41.708C141.3 41.56 141.501 41.4736 141.715 41.449C141.822 41.1612 141.9 40.8693 141.949 40.5733C142.007 40.269 142.052 39.9648 142.085 39.6606L142.184 38.7355C142.217 38.4231 142.266 38.1147 142.332 37.8105H142.258C142.093 37.8105 141.933 37.8352 141.777 37.8845C141.621 37.9338 141.46 37.9585 141.296 37.9585H141.271C141.033 37.7694 140.913 37.5433 140.913 37.2801C140.913 37.1239 140.946 36.9677 141.012 36.8115C141.144 36.7621 141.263 36.6963 141.37 36.6141C141.477 36.5319 141.584 36.4497 141.69 36.3674C141.806 36.277 141.921 36.1989 142.036 36.1331C142.151 36.0673 142.278 36.0262 142.418 36.0098C142.435 35.7713 142.476 35.5329 142.541 35.2944C142.607 35.0559 142.64 34.8175 142.64 34.579C142.64 34.5297 142.636 34.4804 142.628 34.431C142.628 34.3817 142.62 34.3324 142.603 34.283C142.661 34.209 142.698 34.1309 142.714 34.0487C142.739 33.9665 142.751 33.8801 142.751 33.7897C142.751 33.691 142.743 33.5964 142.726 33.506C142.718 33.4073 142.706 33.3128 142.689 33.2223C142.763 33.1894 142.821 33.1565 142.862 33.1237C142.903 33.0825 142.94 33.0455 142.973 33.0126C143.014 32.9798 143.064 32.951 143.121 32.9263C143.179 32.9016 143.261 32.8893 143.368 32.8893C143.524 32.8893 143.656 32.9222 143.762 32.988C143.878 33.0455 143.976 33.1237 144.058 33.2223C144.141 33.321 144.211 33.432 144.268 33.5553C144.334 33.6787 144.396 33.802 144.453 33.9253C144.437 34.0158 144.4 34.0816 144.342 34.1227C144.285 34.1638 144.235 34.2172 144.194 34.283C144.211 34.4146 144.227 34.542 144.243 34.6654C144.26 34.7805 144.26 34.9038 144.243 35.0354C144.326 35.0765 144.404 35.0971 144.478 35.0971C144.601 35.0971 144.712 35.0642 144.811 34.9984C144.918 34.9326 144.992 34.8422 145.033 34.727H145.058C145.082 34.727 145.103 34.7353 145.119 34.7517C145.144 34.7682 145.173 34.7764 145.206 34.7764H145.255C145.345 34.6942 145.444 34.6325 145.551 34.5914C145.658 34.542 145.769 34.4968 145.884 34.4557C145.999 34.4146 146.11 34.3735 146.217 34.3324C146.332 34.283 146.439 34.2214 146.538 34.1474C146.587 34.172 146.64 34.1844 146.698 34.1844C146.78 34.1844 146.858 34.1679 146.932 34.135C147.014 34.1021 147.093 34.0692 147.167 34.0364C147.241 33.9952 147.319 33.9582 147.401 33.9253C147.491 33.8925 147.586 33.876 147.685 33.876C147.701 33.876 147.722 33.8801 147.746 33.8883C147.771 33.8883 147.792 33.8883 147.808 33.8883C147.866 33.8883 147.898 33.8678 147.907 33.8267C147.915 33.7856 147.915 33.7486 147.907 33.7157C148.17 33.6499 148.396 33.5759 148.585 33.4937C148.782 33.4032 149 33.3004 149.239 33.1853C149.239 33.1771 149.247 33.173 149.263 33.173C149.288 33.173 149.304 33.1853 149.313 33.21C149.321 33.2347 149.325 33.2552 149.325 33.2717C149.374 33.247 149.399 33.2059 149.399 33.1483C149.407 33.0908 149.428 33.0414 149.461 33.0003C149.494 33.0085 149.539 33.0126 149.596 33.0126C149.67 33.0126 149.744 32.9962 149.818 32.9633C149.901 32.9304 149.979 32.8934 150.053 32.8523C150.127 32.8112 150.201 32.7742 150.275 32.7413C150.349 32.7084 150.423 32.692 150.497 32.692C150.563 32.692 150.616 32.7084 150.657 32.7413C150.706 32.7166 150.756 32.6837 150.805 32.6426C150.854 32.5933 150.908 32.5686 150.965 32.5686C150.982 32.5686 150.994 32.5727 151.002 32.581C151.019 32.5892 151.035 32.5974 151.052 32.6056C151.093 32.5645 151.13 32.5316 151.163 32.507C151.204 32.4823 151.224 32.4412 151.224 32.3836C151.529 32.3507 151.808 32.285 152.063 32.1863C152.326 32.0794 152.577 31.9396 152.815 31.7669C152.906 31.7834 152.992 31.8039 153.074 31.8286C153.165 31.8451 153.255 31.8533 153.346 31.8533C153.395 31.9437 153.44 32.0342 153.481 32.1246C153.523 32.2151 153.613 32.2562 153.753 32.248C153.761 32.2891 153.765 32.3343 153.765 32.3836C153.773 32.433 153.778 32.4782 153.778 32.5193ZM165.532 45.2971C165.532 45.3629 165.507 45.4081 165.458 45.4328C165.416 45.4574 165.408 45.515 165.433 45.6054C165.367 45.6137 165.31 45.6466 165.26 45.7041C165.211 45.7617 165.153 45.7904 165.088 45.7904C165.046 45.7904 165.014 45.7699 164.989 45.7288C164.972 45.7863 164.94 45.8274 164.89 45.8521C164.849 45.8768 164.804 45.8973 164.755 45.9138C164.705 45.9302 164.656 45.9508 164.607 45.9755C164.557 46.0001 164.524 46.0371 164.508 46.0865H164.446C164.348 46.0865 164.269 46.1276 164.212 46.2098C164.163 46.292 164.101 46.3331 164.027 46.3331C164.002 46.3331 163.986 46.329 163.978 46.3208C163.936 46.329 163.92 46.3537 163.928 46.3948C163.936 46.4441 163.924 46.477 163.891 46.4935H163.83C163.616 46.4935 163.398 46.5387 163.176 46.6291C162.954 46.7196 162.728 46.8224 162.497 46.9375C162.275 47.0526 162.045 47.1595 161.807 47.2582C161.577 47.3651 161.342 47.435 161.104 47.4678C161.054 47.5172 160.993 47.5542 160.919 47.5788C160.853 47.6117 160.779 47.6364 160.697 47.6528C160.615 47.6693 160.532 47.6857 160.45 47.7022C160.376 47.7269 160.31 47.7639 160.253 47.8132C160.047 47.8296 159.842 47.8666 159.636 47.9242C159.43 47.9817 159.225 48.0352 159.019 48.0845C158.822 48.1421 158.616 48.1873 158.403 48.2202C158.197 48.2613 157.987 48.2736 157.774 48.2572C157.708 48.3065 157.634 48.3435 157.552 48.3682C157.478 48.4011 157.408 48.4422 157.342 48.4915C157.005 48.4422 156.668 48.4052 156.331 48.3805C156.002 48.3559 155.677 48.2983 155.356 48.2079C155.356 48.1832 155.348 48.1668 155.332 48.1585C155.315 48.1503 155.295 48.1421 155.27 48.1339C155.253 48.1339 155.237 48.1256 155.221 48.1092C155.204 48.101 155.204 48.0804 155.221 48.0475C155.147 48.0722 155.081 48.0845 155.023 48.0845C154.941 48.0845 154.859 48.064 154.777 48.0229C154.703 47.9817 154.62 47.9365 154.53 47.8872C154.448 47.8379 154.361 47.7885 154.271 47.7392C154.18 47.6981 154.082 47.6775 153.975 47.6775C153.909 47.6117 153.847 47.546 153.79 47.4802C153.741 47.4144 153.704 47.3322 153.679 47.2335C153.646 47.2253 153.609 47.2253 153.568 47.2335C153.535 47.2417 153.506 47.2458 153.481 47.2458C153.432 47.2458 153.407 47.2294 153.407 47.1965C153.235 47.0732 153.111 46.9416 153.037 46.8018C152.963 46.662 152.881 46.5017 152.791 46.3208C152.766 46.2632 152.733 46.2139 152.692 46.1728C152.659 46.1399 152.635 46.0988 152.618 46.0495C152.585 45.9672 152.565 45.8809 152.556 45.7904C152.548 45.7 152.54 45.6137 152.532 45.5314C152.532 45.441 152.519 45.3547 152.495 45.2724C152.478 45.182 152.441 45.0998 152.384 45.0258C152.4 44.7133 152.433 44.4008 152.482 44.0884C152.54 43.7759 152.61 43.4635 152.692 43.151C152.725 43.0112 152.762 42.8756 152.803 42.744C152.844 42.6124 152.881 42.4768 152.914 42.337C152.922 42.2877 152.935 42.2548 152.951 42.2383C152.976 42.2137 152.996 42.1972 153.013 42.189L153.062 42.152C153.079 42.1355 153.091 42.1109 153.099 42.078L153.198 41.6586C153.264 41.3873 153.35 41.1242 153.457 40.8693C153.564 40.6144 153.708 40.38 153.889 40.1662C153.905 39.9607 153.95 39.7675 154.024 39.5866C154.106 39.3974 154.197 39.2165 154.296 39.0439C154.394 38.863 154.493 38.6862 154.592 38.5135C154.69 38.3408 154.768 38.1558 154.826 37.9585L154.814 37.9338C154.814 37.9009 154.83 37.8845 154.863 37.8845C154.904 37.8763 154.933 37.8722 154.949 37.8722C154.957 37.7406 154.986 37.6296 155.036 37.5391C155.093 37.4405 155.151 37.35 155.208 37.2678C155.274 37.1856 155.332 37.0992 155.381 37.0088C155.438 36.9101 155.471 36.795 155.48 36.6634C155.636 36.573 155.767 36.462 155.874 36.3304C155.989 36.1907 156.096 36.0509 156.195 35.9111C156.302 35.7631 156.413 35.6233 156.528 35.4917C156.643 35.352 156.783 35.241 156.947 35.1587C156.988 35.1094 157.001 35.0395 156.984 34.9491C157.239 34.7599 157.502 34.5914 157.774 34.4434C158.045 34.2954 158.3 34.1227 158.538 33.9253H158.982C159.089 33.8431 159.208 33.802 159.34 33.802C159.439 33.802 159.533 33.8226 159.624 33.8637C159.722 33.9048 159.813 33.9541 159.895 34.0117C159.986 34.061 160.076 34.1145 160.166 34.172C160.257 34.2214 160.347 34.2584 160.438 34.283C160.528 34.4064 160.59 34.5503 160.623 34.7147C160.664 34.8709 160.705 35.0189 160.746 35.1587C160.672 35.3807 160.627 35.611 160.61 35.8494C160.594 36.0796 160.565 36.3099 160.524 36.5401C160.467 36.6059 160.417 36.6799 160.376 36.7621C160.335 36.8361 160.29 36.9142 160.24 36.9965C160.199 37.0705 160.154 37.1445 160.105 37.2185C160.055 37.2842 159.99 37.3377 159.907 37.3788C159.842 37.6173 159.739 37.8064 159.599 37.9462C159.459 38.0859 159.324 38.2504 159.192 38.4395C159.069 38.5217 158.937 38.5629 158.797 38.5629C158.682 38.5629 158.579 38.5382 158.489 38.4888C158.399 38.4313 158.316 38.3614 158.242 38.2792C158.168 38.1887 158.107 38.0942 158.057 37.9955C158.016 37.8886 157.983 37.7858 157.959 37.6872C158.016 37.5145 158.107 37.3665 158.23 37.2431C158.362 37.1198 158.493 36.9965 158.625 36.8731C158.756 36.7498 158.871 36.6182 158.97 36.4784C159.069 36.3387 159.118 36.1701 159.118 35.9728C159.118 35.9563 159.114 35.9399 159.106 35.9234C159.106 35.907 159.106 35.8905 159.106 35.8741C159.106 35.8412 159.118 35.8124 159.143 35.7878C159.167 35.7631 159.192 35.7425 159.217 35.7261L159.291 35.6644C159.315 35.6397 159.328 35.611 159.328 35.5781C159.328 35.5452 159.311 35.5123 159.278 35.4794C158.966 35.5041 158.727 35.5575 158.563 35.6397C158.407 35.722 158.283 35.8124 158.193 35.9111C158.103 36.0098 158.02 36.1084 157.946 36.2071C157.881 36.2975 157.782 36.3633 157.65 36.4044C157.626 36.4702 157.589 36.5278 157.539 36.5771C157.498 36.6182 157.453 36.6634 157.404 36.7128C157.354 36.7539 157.309 36.8032 157.268 36.8608C157.235 36.9183 157.215 36.9882 157.206 37.0705H156.984C156.951 37.1445 156.902 37.2185 156.836 37.2925C156.779 37.3583 156.717 37.424 156.651 37.4898C156.594 37.5556 156.54 37.6296 156.491 37.7118C156.45 37.7858 156.437 37.868 156.454 37.9585C156.363 37.9914 156.294 38.0448 156.244 38.1188C156.203 38.1928 156.141 38.2545 156.059 38.3038V38.3778C156.059 38.4436 156.047 38.5053 156.022 38.5629C155.998 38.6204 155.993 38.6821 156.01 38.7479C155.911 38.8383 155.837 38.9534 155.788 39.0932C155.747 39.2248 155.702 39.3481 155.652 39.4632C155.537 39.5208 155.459 39.5989 155.418 39.6976C155.377 39.7962 155.356 39.9113 155.356 40.0429C155.233 40.1662 155.122 40.3101 155.023 40.4746C154.925 40.639 154.834 40.8076 154.752 40.9803C154.678 41.1529 154.608 41.3297 154.542 41.5106C154.476 41.6915 154.407 41.8601 154.333 42.0163V42.374C154.217 42.5056 154.135 42.6618 154.086 42.8427C154.045 43.0153 153.979 43.1716 153.889 43.3114C153.872 43.4018 153.864 43.4923 153.864 43.5827C153.872 43.6731 153.876 43.7636 153.876 43.854C153.876 43.9527 153.868 44.0555 153.852 44.1624C153.835 44.2693 153.806 44.368 153.765 44.4584C153.798 44.5817 153.823 44.7297 153.839 44.9024C153.856 45.0669 153.884 45.2354 153.926 45.4081C153.967 45.5726 154.024 45.7247 154.098 45.8645C154.172 45.996 154.279 46.0865 154.419 46.1358C154.452 46.3167 154.53 46.4524 154.653 46.5428C154.785 46.6415 154.933 46.7196 155.097 46.7772C155.262 46.8347 155.43 46.884 155.603 46.9252C155.776 46.9745 155.928 47.0362 156.059 47.1102C156.109 47.0855 156.166 47.0732 156.232 47.0732C156.298 47.0732 156.355 47.0814 156.405 47.0978C156.462 47.1143 156.524 47.1307 156.59 47.1472C156.705 47.1307 156.845 47.1225 157.009 47.1225C157.182 47.1225 157.354 47.1143 157.527 47.0978C157.7 47.0896 157.86 47.069 158.008 47.0362C158.156 47.0033 158.275 46.9416 158.366 46.8512C158.423 46.8512 158.46 46.8676 158.477 46.9005C158.501 46.9334 158.542 46.9498 158.6 46.9498C158.658 46.9498 158.744 46.9334 158.859 46.9005C158.974 46.8758 159.093 46.8429 159.217 46.8018C159.34 46.7689 159.455 46.7319 159.562 46.6908C159.677 46.6497 159.759 46.6127 159.809 46.5798C159.833 46.588 159.858 46.5921 159.883 46.5921H159.969C160.084 46.5921 160.191 46.5716 160.29 46.5305C160.388 46.4894 160.495 46.477 160.61 46.4935C160.989 46.3044 161.371 46.1399 161.757 46.0001C162.152 45.8686 162.551 45.7493 162.954 45.6424C163.003 45.5684 163.061 45.515 163.127 45.4821C163.201 45.4492 163.279 45.4245 163.361 45.4081C163.443 45.3834 163.525 45.367 163.608 45.3588C163.69 45.3423 163.768 45.3218 163.842 45.2971C163.891 45.2724 163.932 45.2437 163.965 45.2108C164.006 45.1696 164.056 45.1368 164.113 45.1121C164.171 45.0874 164.232 45.071 164.298 45.0628C164.372 45.0545 164.442 45.0463 164.508 45.0381C164.582 45.0216 164.648 45.0011 164.705 44.9764C164.771 44.9518 164.824 44.9106 164.866 44.8531C164.981 44.9024 165.096 44.9559 165.211 45.0134C165.334 45.071 165.437 45.1532 165.519 45.2601L165.532 45.2971ZM175.164 41.6463V41.7326C175.164 41.7573 175.16 41.782 175.152 41.8066C175.062 41.9793 174.951 42.1109 174.819 42.2013C174.687 42.2918 174.523 42.337 174.326 42.337C174.194 42.337 174.095 42.3247 174.03 42.3C173.972 42.2753 173.894 42.2301 173.795 42.1643C173.647 42.1808 173.479 42.1972 173.29 42.2137C173.1 42.2219 172.911 42.2424 172.722 42.2753C172.533 42.3 172.352 42.337 172.18 42.3863C172.015 42.4357 171.875 42.5097 171.76 42.6083C171.686 43.1757 171.645 43.743 171.637 44.3104C171.637 44.8695 171.629 45.4328 171.612 46.0001C171.678 46.1728 171.723 46.3619 171.748 46.5675C171.772 46.7813 171.789 46.9745 171.797 47.1472C171.855 47.2458 171.9 47.3445 171.933 47.4432C171.966 47.5501 171.999 47.657 172.032 47.7639C172.064 47.8707 172.101 47.9735 172.143 48.0722C172.192 48.1709 172.254 48.2613 172.328 48.3435C172.393 48.3435 172.451 48.3477 172.5 48.3559C172.558 48.3723 172.615 48.3888 172.673 48.4052V48.4792C172.673 48.6026 172.71 48.693 172.784 48.7506C172.858 48.8081 172.94 48.8698 173.031 48.9356C173.055 49.026 173.068 49.1123 173.068 49.1946C173.068 49.3344 173.035 49.4659 172.969 49.5893C172.911 49.7126 172.813 49.7989 172.673 49.8483C172.591 49.8483 172.513 49.8359 172.439 49.8113C172.365 49.7948 172.286 49.7866 172.204 49.7866C172.147 49.7866 172.085 49.7948 172.019 49.8113C171.978 49.7948 171.941 49.7701 171.908 49.7373C171.884 49.7126 171.855 49.6879 171.822 49.6633C171.789 49.6386 171.752 49.618 171.711 49.6016C171.678 49.5851 171.633 49.581 171.575 49.5893C171.534 49.4741 171.468 49.3672 171.378 49.2686C171.287 49.1699 171.176 49.1288 171.045 49.1452C171.053 49.1123 171.057 49.063 171.057 48.9972C171.057 48.8821 171.032 48.7752 170.983 48.6766C170.942 48.5779 170.876 48.4998 170.786 48.4422C170.745 48.2531 170.708 48.0434 170.675 47.8132C170.642 47.5912 170.572 47.398 170.465 47.2335C170.465 46.995 170.44 46.7648 170.391 46.5428C170.342 46.329 170.297 46.107 170.255 45.8768C170.288 45.7452 170.305 45.5972 170.305 45.4328C170.305 45.3177 170.301 45.2066 170.292 45.0998C170.284 44.9846 170.28 44.8736 170.28 44.7667C170.28 44.6516 170.288 44.5406 170.305 44.4337C170.321 44.3186 170.362 44.2076 170.428 44.1007C170.379 44.0185 170.346 43.9363 170.329 43.854C170.313 43.7636 170.305 43.6731 170.305 43.5827C170.305 43.4429 170.313 43.3072 170.329 43.1757L170.379 42.781C170.362 42.7728 170.334 42.7687 170.292 42.7687C170.21 42.7687 170.14 42.7851 170.083 42.818L169.898 42.9043C169.857 42.8961 169.82 42.892 169.787 42.892H169.676C169.552 42.892 169.429 42.9126 169.306 42.9537C169.191 42.9866 169.088 43.0482 168.997 43.1387C168.718 43.1387 168.438 43.1675 168.159 43.225C167.879 43.2744 167.6 43.336 167.32 43.41C167.049 43.484 166.777 43.5663 166.506 43.6567C166.235 43.7389 165.963 43.8129 165.692 43.8787C165.626 44.1994 165.577 44.5242 165.544 44.8531C165.511 45.1738 165.495 45.5027 165.495 45.8398V46.1358C165.495 46.2427 165.503 46.3455 165.519 46.4441C165.527 46.5099 165.548 46.5675 165.581 46.6168C165.622 46.6744 165.643 46.736 165.643 46.8018C165.643 46.8594 165.63 46.9046 165.606 46.9375C165.663 47.0362 165.75 47.1225 165.865 47.1965C165.988 47.1554 166.095 47.1348 166.185 47.1348C166.333 47.1348 166.473 47.1677 166.605 47.2335C166.736 47.3075 166.876 47.3568 167.024 47.3815C166.991 47.4966 166.942 47.6076 166.876 47.7145C166.81 47.8296 166.769 47.953 166.753 48.0845C166.72 48.101 166.687 48.1092 166.654 48.1092C166.629 48.1092 166.605 48.1092 166.58 48.1092C166.555 48.1174 166.535 48.1339 166.518 48.1585C166.51 48.1832 166.514 48.2325 166.531 48.3065C166.416 48.3641 166.3 48.4011 166.185 48.4175C166.07 48.4422 165.951 48.4587 165.828 48.4669C165.712 48.4751 165.593 48.4792 165.47 48.4792C165.355 48.4792 165.236 48.4833 165.112 48.4915C165.112 48.4422 165.1 48.4011 165.075 48.3682C165.059 48.3435 165.034 48.323 165.001 48.3065C164.968 48.2983 164.931 48.286 164.89 48.2695C164.857 48.2531 164.829 48.2325 164.804 48.2079C164.738 48.1503 164.685 48.0722 164.644 47.9735C164.611 47.8831 164.574 47.7844 164.533 47.6775C164.5 47.5788 164.463 47.4802 164.422 47.3815C164.38 47.2828 164.331 47.1924 164.274 47.1102C164.257 46.9293 164.245 46.7525 164.237 46.5798C164.228 46.4071 164.224 46.2304 164.224 46.0495C164.224 45.7123 164.237 45.3834 164.261 45.0628C164.286 44.7339 164.306 44.3967 164.323 44.0514C164.249 43.9774 164.163 43.9445 164.064 43.9527C163.973 43.9609 163.883 43.9527 163.793 43.928C163.694 43.8047 163.612 43.669 163.546 43.521C163.48 43.3648 163.447 43.2045 163.447 43.04C163.447 42.9578 163.46 42.8715 163.484 42.781C163.558 42.7563 163.64 42.7317 163.731 42.707C163.821 42.6823 163.871 42.6166 163.879 42.5097C163.936 42.5426 164.006 42.559 164.089 42.559C164.171 42.559 164.253 42.5467 164.335 42.522C164.417 42.4973 164.5 42.4768 164.582 42.4603C164.615 42.3288 164.639 42.2013 164.656 42.078C164.681 41.9464 164.685 41.8107 164.668 41.671C164.783 41.4983 164.857 41.3092 164.89 41.1036C164.931 40.898 164.96 40.7007 164.977 40.5116V40.3389C164.977 40.2814 164.981 40.2238 164.989 40.1662C165.005 40.0758 165.03 39.973 165.063 39.8579C165.096 39.7428 165.125 39.6359 165.149 39.5372C165.19 39.381 165.215 39.233 165.223 39.0932C165.24 38.9534 165.248 38.8095 165.248 38.6615V38.6122C165.248 38.5711 165.231 38.5423 165.199 38.5258C165.166 38.5012 165.149 38.4683 165.149 38.4272L165.162 38.4025C165.194 38.1394 165.231 37.8804 165.273 37.6255C165.322 37.3624 165.388 37.1034 165.47 36.8485C165.404 36.6593 165.371 36.4456 165.371 36.2071C165.371 35.8946 165.421 35.5945 165.519 35.3067C165.47 35.1752 165.445 35.0477 165.445 34.9244C165.445 34.8257 165.449 34.727 165.458 34.6284C165.474 34.5297 165.478 34.431 165.47 34.3324C165.552 34.2913 165.618 34.2337 165.667 34.1597C165.725 34.0857 165.791 34.024 165.865 33.9747C166.111 33.9665 166.317 34.0487 166.481 34.2214C166.654 34.394 166.74 34.6037 166.74 34.8504C166.74 35.0395 166.687 35.2204 166.58 35.3931C166.613 35.5493 166.629 35.7302 166.629 35.9358C166.629 36.24 166.609 36.5442 166.568 36.8485C166.527 37.1527 166.514 37.461 166.531 37.7735C166.481 37.8886 166.457 38.0284 166.457 38.1928C166.465 38.3573 166.461 38.4971 166.444 38.6122C166.428 38.7273 166.403 38.8465 166.37 38.9699C166.337 39.085 166.317 39.2001 166.309 39.3152C166.3 39.5043 166.292 39.6934 166.284 39.8826C166.284 40.0717 166.263 40.2526 166.222 40.4253C166.206 40.491 166.181 40.5486 166.148 40.5979C166.124 40.639 166.103 40.6884 166.087 40.7459C166.054 40.9186 166.041 41.0954 166.05 41.2763C166.066 41.449 166.066 41.6257 166.05 41.8066C166.041 41.8642 166.025 41.9218 166 41.9793C165.984 42.0369 165.976 42.0985 165.976 42.1643C165.976 42.1972 165.984 42.2383 166 42.2877C166.749 42.2219 167.493 42.1109 168.233 41.9546C168.973 41.7984 169.717 41.6627 170.465 41.5476C170.523 41.4407 170.551 41.3297 170.551 41.2146C170.551 41.1488 170.539 41.0831 170.514 41.0173C170.597 40.7459 170.658 40.4746 170.699 40.2032C170.749 39.9237 170.79 39.6482 170.823 39.3769C170.856 39.1055 170.884 38.8342 170.909 38.5629C170.934 38.2833 170.967 38.0078 171.008 37.7365L171.082 37.3171C171.106 37.1774 171.139 37.0417 171.18 36.9101C171.197 36.8608 171.213 36.8115 171.23 36.7621C171.254 36.7128 171.267 36.6676 171.267 36.6264C171.267 36.5853 171.242 36.5566 171.193 36.5401C171.152 36.5237 171.131 36.5031 171.131 36.4784C171.131 36.462 171.135 36.4538 171.143 36.4538C171.16 36.4456 171.172 36.4456 171.18 36.4538C171.222 36.3798 171.246 36.3017 171.254 36.2194C171.263 36.1372 171.267 36.055 171.267 35.9728C171.275 35.8905 171.287 35.8124 171.304 35.7384C171.32 35.6562 171.353 35.5822 171.402 35.5164C171.394 35.4588 171.378 35.4054 171.353 35.3561C171.328 35.3067 171.316 35.2492 171.316 35.1834C171.308 35.1752 171.308 35.1669 171.316 35.1587C171.333 35.0847 171.341 35.0231 171.341 34.9737C171.349 34.9162 171.353 34.8504 171.353 34.7764C171.353 34.6777 171.398 34.5996 171.489 34.542C171.448 34.4023 171.419 34.2501 171.402 34.0857C171.386 33.9212 171.378 33.7609 171.378 33.6047C171.378 33.3909 171.427 33.2141 171.526 33.0743C171.633 32.9263 171.805 32.8523 172.044 32.8523C172.167 32.8523 172.282 32.877 172.389 32.9263C172.504 32.9756 172.599 33.0455 172.673 33.136C172.714 33.3251 172.735 33.5019 172.735 33.6663C172.735 33.7815 172.726 33.8925 172.71 33.9994C172.702 34.098 172.698 34.2049 172.698 34.32C172.698 34.4105 172.706 34.4968 172.722 34.579C172.739 34.653 172.755 34.7312 172.772 34.8134C172.698 34.9285 172.644 35.0559 172.611 35.1957C172.578 35.3355 172.554 35.4794 172.537 35.6274C172.529 35.7754 172.521 35.9275 172.513 36.0838C172.513 36.2318 172.508 36.3674 172.5 36.4908C172.476 36.7621 172.434 37.0294 172.377 37.2925C172.328 37.5556 172.27 37.8187 172.204 38.0818C172.229 38.1723 172.241 38.2545 172.241 38.3285C172.241 38.4765 172.221 38.6245 172.18 38.7725C172.138 38.9123 172.126 39.0521 172.143 39.1919C172.085 39.3399 172.048 39.492 172.032 39.6482C172.015 39.7962 172.003 39.9525 171.995 40.1169L171.97 40.5979C171.962 40.7542 171.933 40.9063 171.884 41.0543C171.9 41.0954 171.929 41.1201 171.97 41.1283C172.019 41.1283 172.036 41.1612 172.019 41.2269C172.208 41.1694 172.41 41.1447 172.624 41.1529C172.837 41.1529 173.039 41.1529 173.228 41.1529C173.351 41.1529 173.475 41.1529 173.598 41.1529C173.721 41.1447 173.845 41.1283 173.968 41.1036C174.091 41.0707 174.215 41.0337 174.338 40.9926C174.469 40.9433 174.597 40.9186 174.72 40.9186C174.893 40.9186 175.025 40.9803 175.115 41.1036C175.131 41.1941 175.144 41.2845 175.152 41.375C175.16 41.4654 175.164 41.5558 175.164 41.6463Z" fill="#202020"/>
<defs>
<clipPath id="clip0_2057_32309">
<rect width="10.2667" height="10.2667" fill="white" transform="translate(148.775 149.569)"/>
</clipPath>
<clipPath id="clip1_2057_32309">
<rect width="10.2667" height="10.2667" fill="white" transform="translate(7.69922 7.7002)"/>
</clipPath>
<clipPath id="clip2_2057_32309">
<rect width="10.2667" height="10.2667" fill="white" transform="translate(7.69922 170.958)"/>
</clipPath>
<clipPath id="clip3_2057_32309">
<rect width="10.2667" height="10.2667" fill="white" transform="translate(289.852 7.7002)"/>
</clipPath>
<clipPath id="clip4_2057_32309">
<rect width="10.2667" height="10.2667" fill="white" transform="translate(289.852 170.958)"/>
</clipPath>
<clipPath id="clip5_2057_32309">
<rect width="273.207" height="121.489" fill="white" transform="translate(17.6816 15.9705)"/>
</clipPath>
<clipPath id="clip6_2057_32309">
<rect width="273.404" height="76.9647" fill="white" transform="matrix(1 0 0 -1 17.8242 137.567)"/>
</clipPath>
<clipPath id="clip7_2057_32309">
<rect x="63.5957" y="60.4594" width="180.807" height="50.763" rx="25.0963" fill="white"/>
</clipPath>
</defs>
</svg>
