<svg width="308" height="190" viewBox="0 0 308 190" fill="none" xmlns="http://www.w3.org/2000/svg">
<g opacity="0.8">
<mask id="path-1-outside-1_285_63473" maskUnits="userSpaceOnUse" x="-0.152344" y="0.633301" width="309" height="189" fill="black">
<rect fill="white" x="-0.152344" y="0.633301" width="309" height="189"/>
<path d="M294.585 1.6333C301.515 1.63348 307.133 7.25131 307.133 14.1812V176.165C307.133 183.094 301.515 188.712 294.585 188.712H13.3955C6.46569 188.712 0.847774 183.094 0.847656 176.165V14.1812C0.847766 7.25131 6.46569 1.6335 13.3955 1.6333H294.585ZM81.2695 168.298C76.8596 168.298 73.2844 171.873 73.2842 176.283C73.2842 180.693 76.8595 184.268 81.2695 184.268C85.6794 184.268 89.2539 180.693 89.2539 176.283C89.2537 171.873 85.6793 168.299 81.2695 168.298ZM226.819 168.298C222.409 168.298 218.834 171.873 218.834 176.283C218.834 180.693 222.409 184.268 226.819 184.268C231.229 184.268 234.805 180.693 234.805 176.283C234.805 171.873 231.229 168.298 226.819 168.298ZM106.936 168.298C105.991 168.298 105.225 169.064 105.225 170.009V177.423C105.225 178.368 105.991 179.135 106.936 179.135H114.35C115.295 179.135 116.062 178.368 116.062 177.423V170.009C116.062 169.064 115.295 168.298 114.35 168.298H106.936ZM193.738 168.298C192.793 168.298 192.027 169.064 192.027 170.009V177.423C192.027 178.368 192.793 179.135 193.738 179.135H201.153C202.098 179.135 202.864 178.368 202.864 177.423V170.009C202.864 169.064 202.098 168.299 201.153 168.298H193.738ZM91.8203 69.7915C82.5279 69.7917 74.9951 77.3252 74.9951 86.6177C74.9952 95.91 82.528 103.443 91.8203 103.443C101.113 103.443 108.646 95.9102 108.646 86.6177C108.646 77.3251 101.113 69.7915 91.8203 69.7915ZM216.16 69.7915C206.868 69.7915 199.334 77.3251 199.334 86.6177C199.334 95.9102 206.868 103.443 216.16 103.443C225.452 103.443 232.985 95.91 232.985 86.6177C232.985 77.3252 225.453 69.7917 216.16 69.7915Z"/>
</mask>
<path d="M294.585 1.6333C301.515 1.63348 307.133 7.25131 307.133 14.1812V176.165C307.133 183.094 301.515 188.712 294.585 188.712H13.3955C6.46569 188.712 0.847774 183.094 0.847656 176.165V14.1812C0.847766 7.25131 6.46569 1.6335 13.3955 1.6333H294.585ZM81.2695 168.298C76.8596 168.298 73.2844 171.873 73.2842 176.283C73.2842 180.693 76.8595 184.268 81.2695 184.268C85.6794 184.268 89.2539 180.693 89.2539 176.283C89.2537 171.873 85.6793 168.299 81.2695 168.298ZM226.819 168.298C222.409 168.298 218.834 171.873 218.834 176.283C218.834 180.693 222.409 184.268 226.819 184.268C231.229 184.268 234.805 180.693 234.805 176.283C234.805 171.873 231.229 168.298 226.819 168.298ZM106.936 168.298C105.991 168.298 105.225 169.064 105.225 170.009V177.423C105.225 178.368 105.991 179.135 106.936 179.135H114.35C115.295 179.135 116.062 178.368 116.062 177.423V170.009C116.062 169.064 115.295 168.298 114.35 168.298H106.936ZM193.738 168.298C192.793 168.298 192.027 169.064 192.027 170.009V177.423C192.027 178.368 192.793 179.135 193.738 179.135H201.153C202.098 179.135 202.864 178.368 202.864 177.423V170.009C202.864 169.064 202.098 168.299 201.153 168.298H193.738ZM91.8203 69.7915C82.5279 69.7917 74.9951 77.3252 74.9951 86.6177C74.9952 95.91 82.528 103.443 91.8203 103.443C101.113 103.443 108.646 95.9102 108.646 86.6177C108.646 77.3251 101.113 69.7915 91.8203 69.7915ZM216.16 69.7915C206.868 69.7915 199.334 77.3251 199.334 86.6177C199.334 95.9102 206.868 103.443 216.16 103.443C225.452 103.443 232.985 95.91 232.985 86.6177C232.985 77.3252 225.453 69.7917 216.16 69.7915Z" fill="#E2E2E2"/>
<path d="M294.585 1.6333L294.585 0.777757H294.585V1.6333ZM307.133 14.1812H307.988V14.1811L307.133 14.1812ZM307.133 176.165L307.988 176.165V176.165H307.133ZM294.585 188.712V189.568H294.585L294.585 188.712ZM13.3955 188.712L13.3955 189.568H13.3955V188.712ZM0.847656 176.165H-0.00788766V176.165L0.847656 176.165ZM0.847656 14.1812L-0.00788766 14.1811V14.1812H0.847656ZM13.3955 1.6333V0.777757H13.3955L13.3955 1.6333ZM81.2695 168.298L81.2696 167.443H81.2695V168.298ZM73.2842 176.283L72.4286 176.283V176.283H73.2842ZM81.2695 184.268V185.124H81.2696L81.2695 184.268ZM89.2539 176.283H90.1095V176.283L89.2539 176.283ZM226.819 168.298V167.443V168.298ZM218.834 176.283L217.978 176.283V176.283H218.834ZM226.819 184.268V185.124V184.268ZM234.805 176.283H235.66V176.283L234.805 176.283ZM201.153 179.135V179.991H201.154L201.153 179.135ZM201.153 168.298L201.154 167.443H201.153V168.298ZM91.8203 69.7915V68.936H91.8203L91.8203 69.7915ZM74.9951 86.6177H74.1396V86.6177L74.9951 86.6177ZM91.8203 103.443L91.8203 104.298H91.8203V103.443ZM108.646 86.6177L109.502 86.6177V86.6177H108.646ZM216.16 69.7915L216.16 68.936H216.16V69.7915ZM199.334 86.6177H198.478V86.6177L199.334 86.6177ZM216.16 103.443V104.298H216.16L216.16 103.443ZM232.985 86.6177L233.841 86.6177V86.6177H232.985ZM294.585 1.6333L294.585 2.48884C301.042 2.48901 306.277 7.72382 306.277 14.1812L307.133 14.1812L307.988 14.1811C307.988 6.77879 301.987 0.777947 294.585 0.777757L294.585 1.6333ZM307.133 14.1812H306.277V176.165H307.133H307.988V14.1812H307.133ZM307.133 176.165L306.277 176.165C306.277 182.622 301.042 187.857 294.585 187.857L294.585 188.712L294.585 189.568C301.987 189.568 307.988 183.567 307.988 176.165L307.133 176.165ZM294.585 188.712V187.857H13.3955V188.712V189.568H294.585V188.712ZM13.3955 188.712L13.3955 187.857C6.93819 187.857 1.70331 182.622 1.7032 176.165L0.847656 176.165L-0.00788766 176.165C-0.00776196 183.567 5.99319 189.568 13.3955 189.568L13.3955 188.712ZM0.847656 176.165H1.7032V14.1812H0.847656H-0.00788766V176.165H0.847656ZM0.847656 14.1812L1.7032 14.1812C1.7033 7.72383 6.93819 2.48903 13.3955 2.48884L13.3955 1.6333L13.3955 0.777757C5.99319 0.777967 -0.0077703 6.77879 -0.00788766 14.1811L0.847656 14.1812ZM13.3955 1.6333V2.48884H294.585V1.6333V0.777757H13.3955V1.6333ZM81.2695 168.298V167.443C76.3872 167.443 72.4288 171.4 72.4286 176.283L73.2842 176.283L74.1397 176.283C74.1399 172.345 77.332 169.154 81.2695 169.154V168.298ZM73.2842 176.283H72.4286C72.4286 181.165 76.387 185.124 81.2695 185.124V184.268V183.413C77.332 183.413 74.1397 180.22 74.1397 176.283H73.2842ZM81.2695 184.268L81.2696 185.124C86.152 185.123 90.1095 181.165 90.1095 176.283H89.2539H88.3984C88.3984 180.22 85.2068 183.412 81.2695 183.413L81.2695 184.268ZM89.2539 176.283L90.1095 176.283C90.1092 171.4 86.1518 167.443 81.2696 167.443L81.2695 168.298L81.2695 169.154C85.2068 169.154 88.3982 172.346 88.3984 176.283L89.2539 176.283ZM226.819 168.298V167.443C221.937 167.443 217.979 171.4 217.978 176.283L218.834 176.283L219.69 176.283C219.69 172.345 222.882 169.154 226.819 169.154V168.298ZM218.834 176.283H217.978C217.978 181.165 221.937 185.124 226.819 185.124V184.268V183.413C222.882 183.413 219.69 180.22 219.69 176.283H218.834ZM226.819 184.268V185.124C231.702 185.124 235.66 181.165 235.66 176.283H234.805H233.949C233.949 180.22 230.757 183.413 226.819 183.413V184.268ZM234.805 176.283L235.66 176.283C235.66 171.4 231.702 167.443 226.819 167.443V168.298V169.154C230.757 169.154 233.949 172.345 233.949 176.283L234.805 176.283ZM106.936 168.298V167.443C105.518 167.443 104.369 168.592 104.369 170.009H105.225H106.08C106.08 169.537 106.463 169.154 106.936 169.154V168.298ZM105.225 170.009H104.369V177.423H105.225H106.08V170.009H105.225ZM105.225 177.423H104.369C104.369 178.84 105.517 179.991 106.936 179.991V179.135V178.28C106.464 178.28 106.08 177.896 106.08 177.423H105.225ZM106.936 179.135V179.991H114.35V179.135V178.28H106.936V179.135ZM114.35 179.135V179.991C115.767 179.991 116.917 178.841 116.917 177.423H116.062H115.206C115.206 177.896 114.822 178.28 114.35 178.28V179.135ZM116.062 177.423H116.917V170.009H116.062H115.206V177.423H116.062ZM116.062 170.009H116.917C116.917 168.591 115.766 167.443 114.35 167.443V168.298V169.154C114.823 169.154 115.206 169.537 115.206 170.009H116.062ZM114.35 168.298V167.443H106.936V168.298V169.154H114.35V168.298ZM193.738 168.298V167.443C192.321 167.443 191.172 168.592 191.172 170.009H192.027H192.883C192.883 169.537 193.266 169.154 193.738 169.154V168.298ZM192.027 170.009H191.172V177.423H192.027H192.883V170.009H192.027ZM192.027 177.423H191.172C191.172 178.84 192.32 179.991 193.738 179.991V179.135V178.28C193.266 178.28 192.883 177.896 192.883 177.423H192.027ZM193.738 179.135V179.991H201.153V179.135V178.28H193.738V179.135ZM201.153 179.135L201.154 179.991C202.571 179.99 203.72 178.84 203.72 177.423H202.864H202.009C202.009 177.896 201.625 178.28 201.153 178.28L201.153 179.135ZM202.864 177.423H203.72V170.009H202.864H202.009V177.423H202.864ZM202.864 170.009H203.72C203.72 168.592 202.57 167.443 201.154 167.443L201.153 168.298L201.153 169.154C201.626 169.154 202.009 169.537 202.009 170.009H202.864ZM201.153 168.298V167.443H193.738V168.298V169.154H201.153V168.298ZM91.8203 69.7915L91.8203 68.936C82.0554 68.9362 74.1396 76.8528 74.1396 86.6177H74.9951H75.8507C75.8507 77.7977 83.0005 70.6473 91.8203 70.647L91.8203 69.7915ZM74.9951 86.6177L74.1396 86.6177C74.1397 96.3825 82.0555 104.298 91.8203 104.298L91.8203 103.443L91.8203 102.587C83.0005 102.587 75.8508 95.4375 75.8507 86.6177L74.9951 86.6177ZM91.8203 103.443V104.298C101.585 104.298 109.502 96.3827 109.502 86.6177L108.646 86.6177L107.791 86.6177C107.791 95.4376 100.64 102.587 91.8203 102.587V103.443ZM108.646 86.6177H109.502C109.502 76.8526 101.585 68.936 91.8203 68.936V69.7915V70.647C100.64 70.647 107.791 77.7976 107.791 86.6177H108.646ZM216.16 69.7915V68.936C206.395 68.936 198.478 76.8526 198.478 86.6177H199.334H200.19C200.19 77.7976 207.34 70.647 216.16 70.647V69.7915ZM199.334 86.6177L198.478 86.6177C198.479 96.3827 206.395 104.298 216.16 104.298V103.443V102.587C207.34 102.587 200.19 95.4376 200.19 86.6177L199.334 86.6177ZM216.16 103.443L216.16 104.298C225.925 104.298 233.841 96.3826 233.841 86.6177L232.985 86.6177L232.13 86.6177C232.13 95.4375 224.98 102.587 216.16 102.587L216.16 103.443ZM232.985 86.6177H233.841C233.841 76.8528 225.925 68.9362 216.16 68.936L216.16 69.7915L216.16 70.647C224.98 70.6472 232.13 77.7977 232.13 86.6177H232.985Z" fill="#202020" mask="url(#path-1-outside-1_285_63473)"/>
</g>
<path d="M91.5356 34.9995C120.043 34.9995 143.154 58.1099 143.154 86.6177C143.154 115.125 120.043 138.235 91.5356 138.235C63.028 138.235 39.9177 115.125 39.9175 86.6177C39.9175 58.11 63.0279 34.9995 91.5356 34.9995ZM91.8208 68.936C82.0557 68.936 74.1392 76.8526 74.1392 86.6177C74.1393 96.3826 82.0558 104.298 91.8208 104.298C101.586 104.298 109.501 96.3826 109.501 86.6177C109.501 76.8527 101.586 68.9361 91.8208 68.936Z" fill="#202020"/>
<path d="M215.874 65.229C227.687 65.229 237.263 74.8051 237.263 86.6177C237.263 98.4302 227.687 108.006 215.874 108.006C204.062 108.006 194.486 98.4302 194.486 86.6177C194.486 74.8052 204.062 65.2291 215.874 65.229ZM216.159 68.936C206.394 68.9361 198.478 76.8526 198.478 86.6177C198.478 96.3826 206.394 104.298 216.159 104.298C225.924 104.298 233.841 96.3826 233.841 86.6177C233.841 76.8526 225.925 68.936 216.159 68.936Z" fill="#202020"/>
<path d="M36.0675 78.6327C33.0905 102.233 21.5055 158.444 24.5176 176.592M33.3583 184.007C53.1784 184.292 272.483 184.007 274.622 184.007M233.413 74.6401C243.51 89.603 275.998 149.435 283.305 172.742" stroke="#202020" stroke-width="0.285181"/>
<path d="M33.1807 166.032C38.2206 166.032 42.3065 170.118 42.3066 175.158C42.3066 180.198 38.2207 184.284 33.1807 184.284C28.1406 184.284 24.0547 180.198 24.0547 175.158C24.0548 170.118 28.1407 166.032 33.1807 166.032ZM33.1807 171.317C31.0585 171.317 29.3379 173.038 29.3379 175.16C29.338 177.282 31.0586 179.001 33.1807 179.001C35.3026 179.001 37.0233 177.282 37.0234 175.16C37.0234 173.038 35.3027 171.317 33.1807 171.317Z" fill="#202020"/>
<path d="M274.444 166.032C279.484 166.032 283.57 170.118 283.57 175.158C283.57 180.198 279.484 184.284 274.444 184.284C269.404 184.284 265.318 180.198 265.318 175.158C265.318 170.118 269.404 166.032 274.444 166.032ZM274.444 171.317C272.322 171.317 270.602 173.038 270.602 175.16C270.602 177.282 272.322 179.001 274.444 179.001C276.566 179.001 278.287 177.282 278.287 175.16C278.287 173.038 276.566 171.317 274.444 171.317Z" fill="#202020"/>
<path d="M69.3997 146.933H240.857C244.832 146.933 248.301 149.628 249.284 153.48L258.386 189.14H49.9084L61.092 153.056C62.2205 149.415 65.5879 146.933 69.3997 146.933Z" stroke="#202020" stroke-width="0.855544"/>
<circle cx="81.269" cy="176.299" r="7.5573" stroke="#202020" stroke-width="0.855544"/>
<circle cx="226.819" cy="176.299" r="7.5573" stroke="#202020" stroke-width="0.855544"/>
<rect x="105.652" y="168.741" width="9.98134" height="9.98134" rx="1.28332" stroke="#202020" stroke-width="0.855544"/>
<path d="M148.572 179.151C148.572 178.206 149.338 177.439 150.283 177.439H157.698C158.643 177.439 159.409 178.206 159.409 179.151V184.284H148.572V179.151Z" fill="#202020"/>
<rect x="192.455" y="168.741" width="9.98134" height="9.98134" rx="1.28332" stroke="#202020" stroke-width="0.855544"/>
<g clip-path="url(#clip0_285_63473)">
<path d="M153.901 150.347C156.736 150.347 159.034 152.645 159.034 155.48C159.034 158.315 156.736 160.614 153.901 160.614C151.066 160.614 148.768 158.315 148.768 155.48C148.768 152.645 151.066 150.347 153.901 150.347ZM154.321 152.409C154.228 151.952 153.575 151.952 153.482 152.409L153.09 154.335C153.056 154.504 152.924 154.635 152.756 154.669L150.829 155.061C150.373 155.154 150.373 155.807 150.829 155.9L152.756 156.292C152.924 156.326 153.056 156.457 153.09 156.625L153.482 158.552C153.575 159.009 154.228 159.009 154.321 158.552L154.712 156.625C154.746 156.457 154.878 156.326 155.046 156.292L156.973 155.9C157.43 155.807 157.43 155.154 156.973 155.061L155.046 154.669C154.878 154.635 154.746 154.504 154.712 154.335L154.321 152.409Z" fill="#202020"/>
</g>
<g clip-path="url(#clip1_285_63473)">
<path d="M12.8245 8.47754C15.6593 8.47754 17.958 10.7755 17.9583 13.6104C17.9583 16.4454 15.6595 18.7441 12.8245 18.7441C9.98965 18.7439 7.69165 16.4452 7.69165 13.6104C7.69189 10.7757 9.9898 8.47778 12.8245 8.47754ZM13.2444 10.5391C13.1515 10.0824 12.4984 10.0824 12.4055 10.5391L12.0139 12.4658C11.9797 12.634 11.8482 12.7656 11.6799 12.7998L9.75317 13.1914C9.29648 13.2843 9.29648 13.9374 9.75317 14.0303L11.6799 14.4219C11.8482 14.4561 11.9797 14.5876 12.0139 14.7559L12.4055 16.6826C12.4984 17.1393 13.1515 17.1393 13.2444 16.6826L13.636 14.7559C13.6702 14.5876 13.8017 14.4561 13.97 14.4219L15.8967 14.0303C16.3534 13.9374 16.3534 13.2843 15.8967 13.1914L13.97 12.7998C13.8017 12.7656 13.6702 12.634 13.636 12.4658L13.2444 10.5391Z" fill="#202020"/>
</g>
<g clip-path="url(#clip2_285_63473)">
<path d="M12.8245 171.736C15.6593 171.736 17.958 174.034 17.9583 176.869C17.9583 179.704 15.6595 182.002 12.8245 182.002C9.98965 182.002 7.69165 179.704 7.69165 176.869C7.69189 174.034 9.9898 171.736 12.8245 171.736ZM13.2444 173.797C13.1515 173.341 12.4984 173.341 12.4055 173.797L12.0139 175.724C11.9797 175.892 11.8482 176.024 11.6799 176.058L9.75317 176.45C9.29648 176.543 9.29648 177.196 9.75317 177.289L11.6799 177.68C11.8482 177.714 11.9797 177.846 12.0139 178.014L12.4055 179.941C12.4984 180.398 13.1515 180.398 13.2444 179.941L13.636 178.014C13.6702 177.846 13.8017 177.714 13.97 177.68L15.8967 177.289C16.3534 177.196 16.3534 176.543 15.8967 176.45L13.97 176.058C13.8017 176.024 13.6702 175.892 13.636 175.724L13.2444 173.797Z" fill="#202020"/>
</g>
<g clip-path="url(#clip3_285_63473)">
<path d="M294.977 8.47754C297.811 8.47754 300.11 10.7755 300.11 13.6104C300.11 16.4454 297.812 18.7441 294.977 18.7441C292.142 18.7439 289.844 16.4452 289.844 13.6104C289.844 10.7757 292.142 8.47778 294.977 8.47754ZM295.396 10.5391C295.304 10.0824 294.65 10.0824 294.558 10.5391L294.166 12.4658C294.132 12.634 294 12.7656 293.832 12.7998L291.905 13.1914C291.449 13.2843 291.449 13.9374 291.905 14.0303L293.832 14.4219C294 14.4561 294.132 14.5876 294.166 14.7559L294.558 16.6826C294.65 17.1393 295.304 17.1393 295.396 16.6826L295.788 14.7559C295.822 14.5876 295.954 14.4561 296.122 14.4219L298.049 14.0303C298.506 13.9374 298.506 13.2843 298.049 13.1914L296.122 12.7998C295.954 12.7656 295.822 12.634 295.788 12.4658L295.396 10.5391Z" fill="#202020"/>
</g>
<g clip-path="url(#clip4_285_63473)">
<path d="M294.977 171.736C297.811 171.736 300.11 174.034 300.11 176.869C300.11 179.704 297.812 182.002 294.977 182.002C292.142 182.002 289.844 179.704 289.844 176.869C289.844 174.034 292.142 171.736 294.977 171.736ZM295.396 173.797C295.304 173.341 294.65 173.341 294.558 173.797L294.166 175.724C294.132 175.892 294 176.024 293.832 176.058L291.905 176.45C291.449 176.543 291.449 177.196 291.905 177.289L293.832 177.68C294 177.714 294.132 177.846 294.166 178.014L294.558 179.941C294.65 180.398 295.304 180.398 295.396 179.941L295.788 178.014C295.822 177.846 295.954 177.714 296.122 177.68L298.049 177.289C298.506 177.196 298.506 176.543 298.049 176.45L296.122 176.058C295.954 176.024 295.822 175.892 295.788 175.724L295.396 173.797Z" fill="#202020"/>
</g>
<mask id="mask0_285_63473" style="mask-type:alpha" maskUnits="userSpaceOnUse" x="17" y="16" width="274" height="123">
<path d="M34.0386 17.1758H274.512C276.812 17.1759 279.018 18.0874 280.648 19.71L287.888 26.916C289.528 28.5483 290.449 30.7674 290.449 33.0811V129.109C290.449 133.913 286.555 137.807 281.751 137.808H26.7993C21.9955 137.808 18.1011 133.913 18.1011 129.109V33.0811C18.1011 30.7674 19.0229 28.5483 20.6626 26.916L27.9019 19.71C29.5319 18.0872 31.7385 17.1758 34.0386 17.1758ZM88.6831 60.8086C74.587 60.8088 63.1598 72.2359 63.1597 86.332V86.9023C63.1597 100.999 74.5869 112.427 88.6831 112.427H219.296C233.393 112.427 244.82 100.999 244.82 86.9023V86.332C244.82 72.2358 233.393 60.8086 219.296 60.8086H88.6831Z" fill="#EDA35F" stroke="#202020" stroke-width="0.855544"/>
</mask>
<g mask="url(#mask0_285_63473)">
<g clip-path="url(#clip5_285_63473)">
<rect width="273.204" height="121.487" transform="translate(17.6733 16.748)" fill="#FCF7F2"/>
<g clip-path="url(#clip6_285_63473)">
<rect width="273.489" height="13.6824" transform="matrix(1 0 0 -1 17.8159 138.343)" fill="#B4E35B"/>
<rect width="273.489" height="9.40666" transform="matrix(1 0 0 -1 17.8159 121.24)" fill="#B4E35B"/>
<rect width="273.489" height="1.7103" transform="matrix(1 0 0 -1 17.8159 70.7856)" fill="#B4E35B"/>
<rect width="273.489" height="0.855152" transform="matrix(1 0 0 -1 17.8159 62.2339)" fill="#B4E35B"/>
<rect width="273.489" height="6.84121" transform="matrix(1 0 0 -1 17.8159 108.412)" fill="#B4E35B"/>
<rect width="273.489" height="3.4206" transform="matrix(1 0 0 -1 17.8159 87.8887)" fill="#B4E35B"/>
<rect width="273.489" height="5.13091" transform="matrix(1 0 0 -1 17.8159 97.2954)" fill="#B4E35B"/>
<rect width="273.489" height="2.56545" transform="matrix(1 0 0 -1 17.8159 79.3374)" fill="#B4E35B"/>
</g>
<path d="M146.844 39.6533C146.827 39.6944 146.794 39.7684 146.745 39.8753C146.696 39.9822 146.671 40.0521 146.671 40.085C146.671 40.1507 146.667 40.2371 146.659 40.344C146.659 40.4426 146.692 40.5043 146.757 40.529C146.667 40.7181 146.609 40.9113 146.585 41.1087C146.568 41.2978 146.56 41.4951 146.56 41.7007C146.56 41.898 146.556 42.0995 146.548 42.305C146.54 42.5024 146.507 42.6956 146.449 42.8847C146.482 42.9341 146.49 42.9957 146.474 43.0697C146.466 43.1355 146.486 43.189 146.535 43.2301C146.494 43.2958 146.47 43.3616 146.461 43.4274C146.453 43.485 146.449 43.5466 146.449 43.6124C146.449 43.744 146.461 43.8714 146.486 43.9948C146.396 44.1263 146.35 44.2743 146.35 44.4388C146.359 44.595 146.363 44.7553 146.363 44.9198C146.363 45.0596 146.342 45.1953 146.301 45.3268C146.268 45.4584 146.252 45.594 146.252 45.7338C146.252 45.7749 146.256 45.8119 146.264 45.8448C146.272 45.8777 146.276 45.9147 146.276 45.9558C146.276 45.9969 146.26 46.0257 146.227 46.0422C146.202 46.0504 146.19 46.0874 146.19 46.1532C146.19 46.4574 146.17 46.7534 146.128 47.0412C146.087 47.3208 146.034 47.6003 145.968 47.8799C145.911 48.1512 145.845 48.4267 145.771 48.7063C145.697 48.9858 145.631 49.2695 145.573 49.5573C145.483 49.656 145.413 49.767 145.364 49.8903C145.323 50.0136 145.245 50.1123 145.129 50.1863C145.022 50.4577 144.887 50.7043 144.722 50.9263C144.566 51.1484 144.389 51.358 144.192 51.5554C144.003 51.7527 143.806 51.9418 143.6 52.1227C143.394 52.3118 143.193 52.5051 142.996 52.7024C142.913 52.7024 142.831 52.7024 142.749 52.7024C142.675 52.7106 142.597 52.7147 142.515 52.7147C142.334 52.7147 142.153 52.7065 141.972 52.6901C141.791 52.6736 141.618 52.6449 141.454 52.6037C141.421 52.4886 141.355 52.4105 141.257 52.3694C141.166 52.3365 141.084 52.2831 141.01 52.2091C140.928 52.1351 140.866 52.0528 140.825 51.9624C140.784 51.8719 140.697 51.8103 140.566 51.7774C140.525 51.654 140.459 51.5101 140.369 51.3457C140.286 51.1812 140.204 51.0127 140.122 50.84C140.04 50.6673 139.966 50.5029 139.9 50.3467C139.842 50.1822 139.814 50.0424 139.814 49.9273C139.814 49.8862 139.818 49.8492 139.826 49.8163C139.842 49.7752 139.855 49.7341 139.863 49.693C139.814 49.6354 139.781 49.5614 139.764 49.471C139.748 49.3805 139.735 49.2901 139.727 49.1996C139.727 49.1009 139.719 49.0105 139.703 48.9283C139.686 48.8378 139.649 48.7679 139.592 48.7186C139.493 48.7844 139.415 48.8666 139.357 48.9653C139.3 49.0639 139.246 49.1708 139.197 49.286C139.156 49.4011 139.115 49.5162 139.073 49.6313C139.032 49.7464 138.983 49.8533 138.925 49.952C138.81 50.0424 138.708 50.1452 138.617 50.2603C138.535 50.3754 138.449 50.4906 138.358 50.6057C138.276 50.729 138.185 50.84 138.087 50.9387C137.988 51.0456 137.873 51.1319 137.741 51.1977C137.709 51.3457 137.647 51.469 137.556 51.5677C137.474 51.6746 137.384 51.7692 137.285 51.8514C137.186 51.9418 137.092 52.0323 137.001 52.1227C136.911 52.2214 136.845 52.3406 136.804 52.4804C136.664 52.5462 136.508 52.6407 136.335 52.7641C136.163 52.8956 135.986 53.0272 135.805 53.1588C135.632 53.2903 135.456 53.4013 135.275 53.4918C135.102 53.5904 134.95 53.6398 134.818 53.6398C134.711 53.6398 134.609 53.6274 134.51 53.6028C134.42 53.5863 134.325 53.5658 134.226 53.5411C134.128 53.5164 134.029 53.4918 133.93 53.4671C133.832 53.4507 133.729 53.4466 133.622 53.4548C133.466 53.2903 133.347 53.1012 133.264 52.8874C133.182 52.6819 133.079 52.4886 132.956 52.3077C132.915 52.0611 132.874 51.8103 132.833 51.5554C132.791 51.3087 132.771 51.062 132.771 50.8153C132.771 50.6756 132.787 50.544 132.82 50.4207C132.853 50.3055 132.87 50.1863 132.87 50.063C132.87 50.0219 132.861 49.9849 132.845 49.952C132.837 49.9109 132.828 49.8698 132.82 49.8286C132.878 49.7135 132.923 49.5943 132.956 49.471C132.989 49.3394 133.014 49.2078 133.03 49.0763C133.055 48.9447 133.079 48.8173 133.104 48.6939C133.129 48.5624 133.166 48.439 133.215 48.3239C133.231 48.2253 133.203 48.1512 133.129 48.1019C133.186 48.0444 133.223 47.9827 133.24 47.9169C133.256 47.8511 133.264 47.7853 133.264 47.7196C133.273 47.6538 133.277 47.5839 133.277 47.5099C133.277 47.4359 133.285 47.366 133.301 47.3002C133.31 47.2673 133.33 47.218 133.363 47.1522L133.474 46.9425C133.515 46.8685 133.548 46.8028 133.573 46.7452C133.606 46.6794 133.622 46.6301 133.622 46.5972C133.622 46.5396 133.606 46.478 133.573 46.4122C133.606 46.2477 133.659 46.0874 133.733 45.9312C133.815 45.7749 133.877 45.6146 133.918 45.4501C133.959 45.2857 133.984 45.1418 133.992 45.0185C134 44.8869 134.037 44.7348 134.103 44.5621C134.111 44.5457 134.115 44.5251 134.115 44.5004C134.115 44.4676 134.103 44.447 134.078 44.4388C134.054 44.4306 134.033 44.4141 134.017 44.3894C134.115 44.2003 134.189 43.9989 134.239 43.7851C134.296 43.5631 134.341 43.337 134.374 43.1067C134.415 42.8765 134.452 42.6504 134.485 42.4284C134.518 42.1981 134.568 41.9802 134.633 41.7747C134.609 41.6102 134.588 41.4417 134.572 41.269C134.555 41.0881 134.547 40.9154 134.547 40.751C134.547 40.5619 134.563 40.3686 134.596 40.1713C134.637 39.9739 134.724 39.8013 134.855 39.6533C134.921 39.6533 134.991 39.6492 135.065 39.6409C135.147 39.6327 135.221 39.6286 135.287 39.6286C135.386 39.6286 135.493 39.6533 135.608 39.7026C135.665 39.9657 135.739 40.2247 135.83 40.4796C135.92 40.7345 135.965 41.0059 135.965 41.2937C135.965 41.4334 135.949 41.5732 135.916 41.713L135.83 42.12C135.805 42.2516 135.784 42.3873 135.768 42.527C135.752 42.6586 135.756 42.7902 135.78 42.9217C135.69 43.0451 135.636 43.189 135.62 43.3534C135.612 43.5096 135.608 43.6576 135.608 43.7974C135.525 43.9125 135.464 44.0277 135.423 44.1428C135.382 44.2579 135.349 44.3771 135.324 44.5004C135.308 44.6156 135.291 44.7348 135.275 44.8581C135.258 44.9815 135.238 45.1048 135.213 45.2281C135.197 45.2693 135.168 45.3186 135.127 45.3761C135.094 45.4337 135.077 45.4748 135.077 45.4995C135.077 45.557 135.094 45.6146 135.127 45.6722C135.11 45.6968 135.094 45.7174 135.077 45.7338C135.061 45.742 135.049 45.7626 135.04 45.7955C135.016 45.8859 134.995 45.9846 134.979 46.0915C134.97 46.1902 134.954 46.2847 134.929 46.3752C134.888 46.5807 134.831 46.7822 134.757 46.9795C134.691 47.1769 134.621 47.3742 134.547 47.5716C134.547 47.736 134.539 47.8676 134.522 47.9662C134.514 48.0649 134.498 48.1554 134.473 48.2376C134.457 48.3116 134.432 48.3938 134.399 48.4843C134.374 48.5665 134.35 48.6734 134.325 48.8049C134.3 48.9283 134.276 49.0804 134.251 49.2613C134.235 49.4422 134.214 49.6313 134.189 49.8286C134.173 50.0178 134.161 50.2069 134.152 50.396C134.144 50.5769 134.14 50.7331 134.14 50.8647C134.14 51.1031 134.161 51.3334 134.202 51.5554C134.251 51.7856 134.333 52.0035 134.448 52.2091H134.658C134.707 52.2091 134.761 52.2091 134.818 52.2091C134.876 52.2173 134.929 52.2337 134.979 52.2584C135.036 52.242 135.065 52.2173 135.065 52.1844V52.0857C135.065 52.0611 135.086 52.0282 135.127 51.9871L135.213 51.9994C135.295 51.9994 135.369 51.9871 135.435 51.9624C135.509 51.9377 135.583 51.9048 135.657 51.8637C135.813 51.6499 135.994 51.469 136.2 51.321C136.414 51.173 136.603 51.0004 136.767 50.803C136.808 50.7372 136.821 50.6591 136.804 50.5687C136.903 50.5522 136.977 50.5152 137.026 50.4577C137.084 50.4001 137.137 50.3384 137.186 50.2727C137.236 50.2069 137.285 50.1452 137.334 50.0877C137.392 50.0219 137.466 49.9766 137.556 49.952C137.598 49.878 137.635 49.7999 137.667 49.7176C137.7 49.6272 137.733 49.5409 137.766 49.4586C137.807 49.3764 137.852 49.3024 137.902 49.2366C137.959 49.1626 138.033 49.1051 138.124 49.0639C138.264 48.7515 138.383 48.4308 138.481 48.1019C138.58 47.7648 138.728 47.4564 138.925 47.1769C138.925 47.07 138.93 46.9713 138.938 46.8809C138.946 46.7904 138.942 46.6959 138.925 46.5972C139.131 46.3176 139.263 46.0257 139.32 45.7215C139.378 45.4173 139.407 45.0966 139.407 44.7595C139.407 44.4799 139.497 44.2867 139.678 44.1798C139.867 44.0729 140.089 44.0194 140.344 44.0194H140.467C140.517 44.0194 140.562 44.0235 140.603 44.0318C140.619 44.0893 140.648 44.1345 140.689 44.1674C140.739 44.1921 140.788 44.2209 140.837 44.2538V44.3278C140.837 44.4429 140.821 44.5498 140.788 44.6485C140.763 44.7389 140.751 44.8376 140.751 44.9445C140.751 44.9938 140.759 45.0596 140.776 45.1418C140.858 45.3803 140.919 45.5982 140.961 45.7955C141.01 45.9928 141.035 46.2231 141.035 46.4862C141.035 46.7082 141.022 46.9343 140.998 47.1645C140.981 47.3866 140.956 47.6086 140.924 47.8306C140.973 47.921 140.998 48.0156 140.998 48.1142C140.998 48.18 140.989 48.2499 140.973 48.3239C140.965 48.3897 140.961 48.4555 140.961 48.5213C140.961 48.661 140.981 48.8008 141.022 48.9406C141.072 49.0722 141.121 49.2037 141.17 49.3353C141.228 49.4669 141.277 49.5984 141.318 49.73C141.359 49.8615 141.376 49.9931 141.368 50.1247C141.507 50.2973 141.631 50.4741 141.738 50.655C141.853 50.8441 141.992 51.0086 142.157 51.1484C142.223 51.1648 142.276 51.173 142.317 51.173C142.367 51.173 142.408 51.1648 142.441 51.1484C142.474 51.1401 142.502 51.1278 142.527 51.1114C142.56 51.1031 142.593 51.0949 142.626 51.0867C142.659 51.0867 142.708 51.0908 142.774 51.099C142.922 50.9921 143.057 50.8688 143.181 50.729C143.304 50.5974 143.419 50.4618 143.526 50.322C143.641 50.1822 143.756 50.0383 143.871 49.8903C143.986 49.7423 144.106 49.6025 144.229 49.471C144.467 48.8789 144.661 48.2869 144.809 47.6949C144.957 47.1029 145.047 46.4862 145.08 45.8448C145.08 45.7544 145.101 45.7092 145.142 45.7092C145.183 45.7092 145.22 45.6804 145.253 45.6228V45.2775C145.253 45.0144 145.265 44.7512 145.29 44.4881C145.323 44.225 145.384 43.966 145.475 43.7111C145.45 43.6124 145.438 43.5137 145.438 43.4151C145.438 43.2013 145.454 42.9957 145.487 42.7984C145.528 42.5928 145.549 42.3873 145.549 42.1817C145.549 42.0748 145.536 41.9679 145.512 41.861C145.495 41.7459 145.454 41.6431 145.388 41.5527L145.376 41.4787C145.376 41.4293 145.393 41.3882 145.425 41.3553C145.467 41.3224 145.495 41.2854 145.512 41.2443C145.471 41.1374 145.454 41.0264 145.462 40.9113C145.479 40.7962 145.487 40.6811 145.487 40.566C145.487 40.5002 145.479 40.4303 145.462 40.3563C145.446 40.2823 145.405 40.2247 145.339 40.1836C145.413 40.1014 145.467 39.9945 145.499 39.8629C145.532 39.7314 145.553 39.5916 145.561 39.4436C145.578 39.2956 145.586 39.1517 145.586 39.0119C145.586 38.8639 145.594 38.7406 145.61 38.6419C145.684 38.5597 145.767 38.4898 145.857 38.4322C145.956 38.3664 146.063 38.3336 146.178 38.3336C146.326 38.3336 146.433 38.387 146.498 38.4939C146.564 38.5926 146.614 38.7159 146.646 38.8639C146.679 39.0037 146.704 39.1476 146.72 39.2956C146.745 39.4436 146.786 39.5628 146.844 39.6533ZM160.929 36.9152C160.929 36.9892 160.925 37.0632 160.917 37.1372C160.917 37.2112 160.913 37.2811 160.904 37.3469C160.88 37.388 160.83 37.4044 160.756 37.3962C160.691 37.388 160.637 37.3839 160.596 37.3839C160.555 37.3839 160.518 37.3921 160.485 37.4085C160.46 37.4167 160.448 37.4414 160.448 37.4825C160.448 37.5319 160.452 37.5648 160.46 37.5812C160.394 37.573 160.325 37.5648 160.251 37.5565C160.177 37.5483 160.111 37.5236 160.053 37.4825C159.938 37.5072 159.827 37.5401 159.72 37.5812C159.622 37.6223 159.523 37.6675 159.424 37.7169C159.326 37.7662 159.223 37.8114 159.116 37.8525C159.009 37.8937 158.898 37.9183 158.783 37.9265C158.709 38.0088 158.614 38.0704 158.499 38.1115C158.384 38.1527 158.265 38.1897 158.142 38.2226C158.018 38.2554 157.903 38.2966 157.796 38.3459C157.689 38.387 157.603 38.4528 157.537 38.5432C157.356 38.5597 157.184 38.6049 157.019 38.6789C156.855 38.7529 156.69 38.831 156.526 38.9132C156.37 38.9955 156.209 39.0736 156.045 39.1476C155.88 39.2216 155.704 39.2709 155.514 39.2956C155.465 39.3449 155.403 39.386 155.329 39.4189C155.264 39.4518 155.194 39.4847 155.12 39.5176C155.046 39.5423 154.976 39.571 154.91 39.6039C154.844 39.6368 154.791 39.6821 154.75 39.7396H154.725C154.692 39.7396 154.668 39.7314 154.651 39.7149C154.635 39.6985 154.61 39.6903 154.577 39.6903C154.552 39.6903 154.536 39.6944 154.528 39.7026C154.33 39.7931 154.133 39.8876 153.936 39.9863C153.738 40.085 153.533 40.1795 153.319 40.27C152.9 40.4426 152.476 40.6112 152.049 40.7756C151.621 40.9401 151.21 41.1415 150.815 41.38C150.725 41.7089 150.651 42.046 150.593 42.3914C150.536 42.7285 150.433 43.0533 150.285 43.3657V43.9454C150.203 44.1017 150.149 44.2743 150.125 44.4634C150.1 44.6526 150.088 44.8335 150.088 45.0061C150.088 45.0719 150.088 45.1336 150.088 45.1911C150.096 45.2405 150.1 45.2939 150.1 45.3515C150.338 45.2857 150.569 45.2117 150.791 45.1295C151.021 45.0472 151.251 44.9732 151.481 44.9075C151.596 44.8664 151.712 44.8376 151.827 44.8211C151.95 44.8047 152.069 44.7759 152.184 44.7348C152.275 44.7101 152.369 44.6772 152.468 44.6361C152.567 44.5868 152.661 44.5416 152.752 44.5004C152.998 44.3936 153.249 44.299 153.504 44.2168C153.767 44.1345 154.034 44.0729 154.306 44.0318C154.388 43.966 154.478 43.9043 154.577 43.8468C154.676 43.7892 154.774 43.7604 154.873 43.7604C154.947 43.7604 155.009 43.7728 155.058 43.7974C155.198 43.7152 155.362 43.6412 155.551 43.5754C155.741 43.5096 155.917 43.485 156.082 43.5014C156.123 43.4439 156.172 43.4069 156.23 43.3904C156.287 43.3657 156.349 43.3534 156.415 43.3534C156.448 43.3534 156.476 43.3575 156.501 43.3657C156.534 43.3657 156.571 43.3657 156.612 43.3657C156.694 43.3082 156.785 43.2671 156.883 43.2424C156.982 43.2177 157.081 43.1972 157.179 43.1807C157.278 43.1643 157.373 43.1437 157.463 43.1191C157.562 43.0862 157.648 43.0368 157.722 42.9711C157.837 42.9793 157.928 43.0122 157.994 43.0697C158.068 43.1273 158.129 43.1972 158.179 43.2794C158.228 43.3616 158.269 43.448 158.302 43.5384C158.335 43.6289 158.376 43.7152 158.425 43.7974C158.409 43.8632 158.384 43.9166 158.351 43.9578C158.318 43.9907 158.281 44.0235 158.24 44.0564C158.199 44.0893 158.162 44.1222 158.129 44.1551C158.096 44.188 158.076 44.2332 158.068 44.2908C157.78 44.2908 157.5 44.3319 157.229 44.4141C156.966 44.4963 156.703 44.5909 156.439 44.6978C156.185 44.8047 155.921 44.9075 155.65 45.0061C155.387 45.0966 155.116 45.1541 154.836 45.1788C154.795 45.2199 154.742 45.2528 154.676 45.2775L154.491 45.3391C154.433 45.3556 154.38 45.3803 154.33 45.4131C154.281 45.4378 154.244 45.4789 154.219 45.5365C154.17 45.5118 154.117 45.4995 154.059 45.4995C153.919 45.4995 153.784 45.5365 153.652 45.6105C153.52 45.6845 153.372 45.7215 153.208 45.7215C153.142 45.7215 153.097 45.7174 153.072 45.7092C153.031 45.7832 152.97 45.8366 152.887 45.8695C152.813 45.9024 152.731 45.9312 152.641 45.9558C152.558 45.9723 152.476 45.9969 152.394 46.0298C152.32 46.0627 152.262 46.1203 152.221 46.2025C152.197 46.1943 152.168 46.1902 152.135 46.1902H152.061C151.929 46.1902 151.777 46.2148 151.605 46.2642C151.44 46.3053 151.321 46.3875 151.247 46.5109C151.181 46.4944 151.124 46.4862 151.074 46.4862C150.959 46.4862 150.856 46.5109 150.766 46.5602C150.675 46.6013 150.585 46.6506 150.495 46.7082L150.223 46.8809C150.133 46.9384 150.034 46.9795 149.927 47.0042C149.713 47.3084 149.565 47.6579 149.483 48.0526C149.401 48.4473 149.339 48.8584 149.298 49.286C149.265 49.7135 149.232 50.137 149.2 50.5563C149.167 50.9839 149.101 51.3745 149.002 51.728C149.052 51.8596 149.089 51.9994 149.113 52.1474C149.138 52.2954 149.158 52.4434 149.175 52.5914C149.191 52.7476 149.208 52.9039 149.224 53.0601C149.241 53.2163 149.269 53.3643 149.311 53.5041C149.352 53.6768 149.43 53.8289 149.545 53.9605C149.668 54.1002 149.755 54.2565 149.804 54.4291C149.845 54.4374 149.886 54.4415 149.927 54.4415C149.977 54.4497 150.026 54.4538 150.075 54.4538C150.371 54.4538 150.63 54.3963 150.852 54.2811C151.082 54.166 151.296 54.0221 151.494 53.8495C151.691 53.685 151.88 53.5041 152.061 53.3068C152.25 53.1177 152.452 52.9491 152.665 52.8011H152.9C152.957 52.7353 153.007 52.6654 153.048 52.5914C153.089 52.5174 153.134 52.4475 153.183 52.3817C153.233 52.316 153.29 52.2584 153.356 52.2091C153.422 52.1679 153.504 52.1392 153.603 52.1227C153.627 51.9994 153.685 51.9048 153.775 51.839C153.866 51.7733 153.927 51.6746 153.96 51.543C153.977 51.5513 153.997 51.5554 154.022 51.5554C154.088 51.5554 154.137 51.5389 154.17 51.506L154.355 51.3334C154.421 51.2676 154.491 51.2018 154.565 51.136C154.647 51.0785 154.725 51.0209 154.799 50.9634C155.038 50.7907 155.276 50.618 155.514 50.4453C155.753 50.2809 155.971 50.0877 156.168 49.8656C156.176 49.8739 156.189 49.878 156.205 49.878C156.271 49.878 156.316 49.8574 156.341 49.8163C156.365 49.7752 156.423 49.7629 156.513 49.7793C156.563 49.7053 156.608 49.6313 156.649 49.5573C156.69 49.4751 156.723 49.3887 156.748 49.2983L157.142 49.3476C157.274 49.3641 157.406 49.3723 157.537 49.3723C157.578 49.3723 157.615 49.3723 157.648 49.3723C157.689 49.3641 157.726 49.3517 157.759 49.3353C157.858 49.4915 157.911 49.6601 157.92 49.841C157.928 50.0136 157.948 50.1863 157.981 50.359C157.965 50.359 157.952 50.359 157.944 50.359C157.944 50.3508 157.936 50.3467 157.92 50.3467C157.878 50.3467 157.837 50.3631 157.796 50.396C157.763 50.4207 157.726 50.4536 157.685 50.4947L157.562 50.618C157.521 50.6591 157.484 50.692 157.451 50.7167C157.36 50.7742 157.266 50.8236 157.167 50.8647C157.068 50.914 156.974 50.9634 156.883 51.0127C156.793 51.062 156.707 51.1196 156.624 51.1854C156.542 51.2594 156.476 51.3498 156.427 51.4567C156.263 51.5225 156.102 51.5924 155.946 51.6664C155.798 51.7404 155.654 51.8185 155.514 51.9007C155.473 51.9418 155.436 51.9829 155.403 52.0241C155.371 52.0652 155.346 52.1104 155.329 52.1597C155.107 52.2337 154.922 52.3447 154.774 52.4927C154.635 52.6407 154.491 52.8011 154.343 52.9738L154.33 52.9614C154.273 52.9614 154.236 52.982 154.219 53.0231C154.211 53.0642 154.166 53.0765 154.084 53.0601C153.927 53.2328 153.763 53.3931 153.59 53.5411C153.418 53.6891 153.241 53.8371 153.06 53.9851C152.879 54.1331 152.698 54.2811 152.517 54.4291C152.336 54.5854 152.168 54.7498 152.012 54.9225C151.905 54.9554 151.802 54.9965 151.703 55.0458C151.605 55.0952 151.531 55.1692 151.481 55.2678H151.444C151.354 55.2678 151.288 55.2884 151.247 55.3295C151.214 55.3706 151.173 55.4241 151.124 55.4898C150.951 55.531 150.774 55.5762 150.593 55.6255C150.412 55.6749 150.227 55.6995 150.038 55.6995C149.907 55.6995 149.779 55.6749 149.656 55.6255C149.541 55.5762 149.426 55.5104 149.311 55.4282C149.204 55.3542 149.101 55.272 149.002 55.1815C148.912 55.0911 148.825 55.0047 148.743 54.9225C148.694 54.758 148.628 54.5854 148.546 54.4045C148.472 54.2318 148.435 54.0632 148.435 53.8988C148.435 53.8577 148.439 53.8166 148.447 53.7755C148.464 53.7426 148.472 53.7097 148.472 53.6768C148.472 53.6192 148.451 53.5946 148.41 53.6028C148.377 53.611 148.353 53.5904 148.336 53.5411C148.32 53.4589 148.307 53.3643 148.299 53.2574C148.299 53.1588 148.291 53.0642 148.275 52.9738C148.25 52.7846 148.217 52.5914 148.176 52.3941C148.143 52.1967 148.106 52.0035 148.065 51.8144C148.098 51.7979 148.122 51.7692 148.139 51.728C148.163 51.6952 148.188 51.6623 148.213 51.6294C148.188 51.5636 148.163 51.4896 148.139 51.4074C148.122 51.3334 148.114 51.2552 148.114 51.173C148.114 51.0086 148.176 50.8852 148.299 50.803C148.299 50.7455 148.283 50.7002 148.25 50.6673C148.225 50.6427 148.213 50.5974 148.213 50.5317C148.213 50.5152 148.217 50.47 148.225 50.396C148.242 50.3138 148.258 50.2233 148.275 50.1247C148.299 50.026 148.32 49.9314 148.336 49.841C148.353 49.7505 148.365 49.6889 148.373 49.656C148.431 49.2777 148.48 48.9077 148.521 48.5459C148.562 48.1759 148.62 47.8059 148.694 47.4359C148.612 47.3701 148.505 47.3208 148.373 47.2879C148.25 47.2468 148.163 47.1933 148.114 47.1275C148.073 47.07 148.04 46.996 148.015 46.9055C147.991 46.8151 147.978 46.737 147.978 46.6712C147.978 46.4327 148.073 46.2436 148.262 46.1038C148.451 45.9558 148.653 45.8695 148.867 45.8448C148.973 45.557 149.052 45.2651 149.101 44.9691C149.158 44.6649 149.204 44.3607 149.237 44.0564L149.335 43.1314C149.368 42.8189 149.417 42.5106 149.483 42.2064H149.409C149.245 42.2064 149.084 42.231 148.928 42.2804C148.772 42.3297 148.612 42.3544 148.447 42.3544H148.423C148.184 42.1653 148.065 41.9391 148.065 41.676C148.065 41.5198 148.098 41.3636 148.163 41.2073C148.295 41.158 148.414 41.0922 148.521 41.01C148.628 40.9278 148.735 40.8455 148.842 40.7633C148.957 40.6729 149.072 40.5948 149.187 40.529C149.302 40.4632 149.43 40.4221 149.57 40.4056C149.586 40.1672 149.627 39.9287 149.693 39.6903C149.759 39.4518 149.792 39.2134 149.792 38.9749C149.792 38.9256 149.787 38.8762 149.779 38.8269C149.779 38.7776 149.771 38.7282 149.755 38.6789C149.812 38.6049 149.849 38.5268 149.866 38.4446C149.89 38.3623 149.903 38.276 149.903 38.1856C149.903 38.0869 149.894 37.9923 149.878 37.9019C149.87 37.8032 149.857 37.7086 149.841 37.6182C149.915 37.5853 149.972 37.5524 150.014 37.5195C150.055 37.4784 150.092 37.4414 150.125 37.4085C150.166 37.3756 150.215 37.3469 150.273 37.3222C150.33 37.2975 150.412 37.2852 150.519 37.2852C150.675 37.2852 150.807 37.3181 150.914 37.3839C151.029 37.4414 151.128 37.5195 151.21 37.6182C151.292 37.7169 151.362 37.8279 151.42 37.9512C151.485 38.0745 151.547 38.1979 151.605 38.3212C151.588 38.4117 151.551 38.4775 151.494 38.5186C151.436 38.5597 151.387 38.6131 151.346 38.6789C151.362 38.8105 151.379 38.9379 151.395 39.0613C151.411 39.1764 151.411 39.2997 151.395 39.4313C151.477 39.4724 151.555 39.4929 151.629 39.4929C151.753 39.4929 151.864 39.46 151.962 39.3943C152.069 39.3285 152.143 39.238 152.184 39.1229H152.209C152.234 39.1229 152.254 39.1311 152.271 39.1476C152.295 39.164 152.324 39.1723 152.357 39.1723H152.406C152.497 39.09 152.595 39.0284 152.702 38.9872C152.809 38.9379 152.92 38.8927 153.035 38.8516C153.15 38.8105 153.261 38.7694 153.368 38.7282C153.483 38.6789 153.59 38.6172 153.689 38.5432C153.738 38.5679 153.792 38.5802 153.849 38.5802C153.932 38.5802 154.01 38.5638 154.084 38.5309C154.166 38.498 154.244 38.4651 154.318 38.4322C154.392 38.3911 154.47 38.3541 154.552 38.3212C154.643 38.2883 154.737 38.2719 154.836 38.2719C154.853 38.2719 154.873 38.276 154.898 38.2842C154.922 38.2842 154.943 38.2842 154.959 38.2842C155.017 38.2842 155.05 38.2637 155.058 38.2226C155.066 38.1814 155.066 38.1444 155.058 38.1115C155.321 38.0458 155.547 37.9718 155.736 37.8895C155.934 37.7991 156.152 37.6963 156.39 37.5812C156.39 37.573 156.398 37.5689 156.415 37.5689C156.439 37.5689 156.456 37.5812 156.464 37.6059C156.472 37.6305 156.476 37.6511 156.476 37.6675C156.526 37.6429 156.55 37.6018 156.55 37.5442C156.559 37.4866 156.579 37.4373 156.612 37.3962C156.645 37.4044 156.69 37.4085 156.748 37.4085C156.822 37.4085 156.896 37.3921 156.97 37.3592C157.052 37.3263 157.13 37.2893 157.204 37.2482C157.278 37.2071 157.352 37.1701 157.426 37.1372C157.5 37.1043 157.574 37.0878 157.648 37.0878C157.714 37.0878 157.767 37.1043 157.809 37.1372C157.858 37.1125 157.907 37.0796 157.957 37.0385C158.006 36.9892 158.059 36.9645 158.117 36.9645C158.133 36.9645 158.146 36.9686 158.154 36.9768C158.17 36.9851 158.187 36.9933 158.203 37.0015C158.244 36.9604 158.281 36.9275 158.314 36.9028C158.355 36.8782 158.376 36.8371 158.376 36.7795C158.68 36.7466 158.96 36.6808 159.215 36.5822C159.478 36.4753 159.728 36.3355 159.967 36.1628C160.057 36.1793 160.144 36.1998 160.226 36.2245C160.316 36.2409 160.407 36.2491 160.497 36.2491C160.547 36.3396 160.592 36.43 160.633 36.5205C160.674 36.6109 160.765 36.6521 160.904 36.6438C160.913 36.6849 160.917 36.7302 160.917 36.7795C160.925 36.8288 160.929 36.8741 160.929 36.9152ZM173.879 48.2993C173.879 48.4061 173.851 48.5048 173.793 48.5953C173.736 48.6775 173.719 48.7762 173.744 48.8913C173.711 48.9488 173.666 48.9941 173.608 49.0269C173.559 49.0598 173.542 49.1215 173.559 49.212C173.386 49.3024 173.226 49.4175 173.078 49.5573C172.938 49.6889 172.786 49.8163 172.621 49.9396C172.523 50.0136 172.436 50.0671 172.362 50.1C172.297 50.1247 172.214 50.1658 172.116 50.2233L171.807 50.4207C171.668 50.4947 171.524 50.5687 171.376 50.6427C171.236 50.7167 171.108 50.8112 170.993 50.9263C170.821 50.9346 170.644 50.9798 170.463 51.062C170.282 51.1525 170.109 51.2306 169.945 51.2964C169.879 51.321 169.813 51.3375 169.748 51.3457C169.682 51.3621 169.616 51.3868 169.55 51.4197L169.353 51.506C169.238 51.5636 169.102 51.6212 168.946 51.6787C168.79 51.7445 168.65 51.7774 168.527 51.7774C168.453 51.8103 168.391 51.8678 168.342 51.9501C168.07 52.0405 167.791 52.1104 167.503 52.1597C167.215 52.2091 166.936 52.2872 166.664 52.3941C166.574 52.4352 166.479 52.4886 166.38 52.5544C166.29 52.6284 166.191 52.6613 166.084 52.6531C166.06 52.6942 166.043 52.7435 166.035 52.8011C166.027 52.8586 166.015 52.9162 165.998 52.9738H165.961C165.928 52.9738 165.912 52.9573 165.912 52.9244C165.92 52.8915 165.908 52.8751 165.875 52.8751C165.85 52.8751 165.834 52.8792 165.825 52.8874C165.719 52.9121 165.616 52.9326 165.517 52.9491C165.427 52.9655 165.324 52.9738 165.209 52.9738C165.143 52.9738 165.036 52.9655 164.888 52.9491C164.748 52.9326 164.646 52.9121 164.58 52.8874C164.53 52.8628 164.489 52.8175 164.456 52.7517C164.424 52.686 164.391 52.6161 164.358 52.5421C164.333 52.4681 164.308 52.39 164.284 52.3077C164.267 52.2337 164.251 52.1721 164.234 52.1227C164.259 52.0323 164.3 51.9583 164.358 51.9007C164.415 51.8432 164.461 51.7692 164.493 51.6787C164.567 51.6705 164.641 51.6582 164.715 51.6417C164.789 51.6253 164.863 51.6212 164.937 51.6294C165.192 51.5554 165.447 51.4814 165.702 51.4074C165.965 51.3416 166.224 51.2717 166.479 51.1977C166.734 51.1237 166.985 51.0415 167.232 50.951C167.478 50.8606 167.717 50.7496 167.947 50.618H168.206C168.354 50.5358 168.518 50.4659 168.699 50.4083C168.88 50.3508 169.028 50.2562 169.143 50.1247C169.415 50.0671 169.698 49.989 169.994 49.8903C170.29 49.7916 170.537 49.6354 170.734 49.4216C170.858 49.4052 170.965 49.3764 171.055 49.3353C171.145 49.286 171.232 49.2366 171.314 49.1873L171.561 49.0269C171.643 48.9694 171.737 48.9242 171.844 48.8913C171.91 48.8255 171.972 48.7556 172.029 48.6816C172.087 48.6076 172.157 48.5459 172.239 48.4966C172.214 48.365 172.149 48.2664 172.042 48.2006C171.935 48.1348 171.84 48.0567 171.758 47.9662H171.487C171.273 47.8347 171.043 47.736 170.796 47.6702C170.558 47.5962 170.319 47.5181 170.081 47.4359C170.064 47.4277 170.044 47.4236 170.019 47.4236C169.961 47.4236 169.924 47.4441 169.908 47.4852C169.9 47.5263 169.867 47.5428 169.809 47.5346C169.735 47.4852 169.657 47.4564 169.575 47.4482C169.493 47.4318 169.406 47.4236 169.316 47.4236C169.201 47.4236 169.086 47.4318 168.971 47.4482C168.864 47.4564 168.753 47.4606 168.638 47.4606C168.58 47.4606 168.522 47.4564 168.465 47.4482C168.407 47.44 168.35 47.4194 168.292 47.3866H168.132C167.959 47.3866 167.787 47.3948 167.614 47.4112C167.449 47.4194 167.285 47.4236 167.121 47.4236C167.03 47.4236 166.944 47.4236 166.862 47.4236C166.779 47.4153 166.697 47.403 166.615 47.3866C166.442 47.4688 166.257 47.5263 166.06 47.5592C165.862 47.5921 165.657 47.6168 165.443 47.6332C165.238 47.6497 165.032 47.6661 164.826 47.6826C164.621 47.6908 164.424 47.7113 164.234 47.7442C164.185 47.736 164.136 47.7319 164.086 47.7319C164.045 47.7237 164.004 47.7196 163.963 47.7196C163.922 47.7196 163.877 47.7237 163.827 47.7319C163.786 47.7319 163.745 47.736 163.704 47.7442C163.597 47.6291 163.466 47.5469 163.309 47.4976C163.161 47.44 163.013 47.403 162.865 47.3866C162.75 47.2468 162.664 47.107 162.606 46.9672C162.557 46.8192 162.524 46.6547 162.508 46.4739H162.557C162.615 46.4739 162.639 46.4451 162.631 46.3875C162.631 46.33 162.652 46.2806 162.693 46.2395C162.734 46.1902 162.787 46.1573 162.853 46.1408C162.927 46.1162 162.997 46.0915 163.063 46.0668C163.128 46.0422 163.19 46.0134 163.248 45.9805C163.313 45.9394 163.363 45.8777 163.396 45.7955H163.556C163.589 45.7955 163.622 45.7996 163.655 45.8078C163.696 45.8078 163.729 45.8202 163.753 45.8448C163.786 45.8119 163.827 45.7832 163.877 45.7585C163.926 45.7338 163.971 45.7092 164.012 45.6845C164.062 45.6598 164.103 45.631 164.136 45.5982C164.169 45.5653 164.189 45.5159 164.197 45.4501C164.206 45.4748 164.226 45.4872 164.259 45.4872C164.292 45.4872 164.321 45.4789 164.345 45.4625C164.378 45.446 164.415 45.4419 164.456 45.4501C164.498 45.335 164.567 45.2734 164.666 45.2651C164.765 45.2569 164.855 45.2281 164.937 45.1788C164.995 45.1459 165.048 45.1089 165.098 45.0678C165.147 45.0185 165.201 44.9732 165.258 44.9321L165.998 44.3648L167.133 43.5014C167.511 43.2136 167.898 42.9464 168.292 42.6997C168.309 42.6504 168.333 42.6134 168.366 42.5887C168.399 42.564 168.432 42.5394 168.465 42.5147C168.498 42.4818 168.522 42.4489 168.539 42.416C168.564 42.3831 168.572 42.3338 168.564 42.268C168.679 42.2434 168.765 42.1981 168.823 42.1324C168.888 42.0666 168.946 41.9967 168.995 41.9227C169.045 41.8405 169.094 41.7623 169.143 41.6883C169.201 41.6061 169.275 41.5445 169.365 41.5033C169.357 41.4787 169.353 41.4417 169.353 41.3923C169.353 41.3266 169.357 41.2608 169.365 41.195C169.382 41.1292 169.415 41.0717 169.464 41.0223C169.39 40.8496 169.262 40.7263 169.082 40.6523C168.901 40.5701 168.728 40.5002 168.564 40.4426H168.527C168.485 40.4426 168.461 40.4632 168.453 40.5043C168.453 40.5372 168.432 40.5619 168.391 40.5783C168.259 40.5454 168.111 40.529 167.947 40.529C167.782 40.529 167.618 40.5413 167.454 40.566C167.297 40.5906 167.137 40.5948 166.973 40.5783C166.948 40.6112 166.919 40.6441 166.886 40.677C166.862 40.7099 166.829 40.7386 166.788 40.7633C166.615 40.7715 166.442 40.7962 166.269 40.8373L165.751 40.9607L165.468 41.0223C165.427 41.0388 165.398 41.0675 165.381 41.1087C165.365 41.1498 165.353 41.195 165.344 41.2443C165.295 41.2361 165.262 41.2156 165.246 41.1827C165.238 41.1498 165.209 41.1251 165.159 41.1087C164.97 41.2238 164.765 41.3183 164.543 41.3923C164.329 41.4663 164.136 41.5815 163.963 41.7377C163.906 41.6719 163.823 41.639 163.716 41.639C163.626 41.639 163.527 41.6678 163.42 41.7253C163.313 41.7829 163.248 41.8569 163.223 41.9474C163.141 41.9309 163.079 41.9227 163.038 41.9227C162.948 41.9227 162.869 41.9474 162.804 41.9967C162.746 42.046 162.689 42.1036 162.631 42.1694C162.573 42.2269 162.512 42.2845 162.446 42.342C162.38 42.3996 162.298 42.4325 162.199 42.4407C162.199 42.4818 162.199 42.527 162.199 42.5764C162.208 42.6175 162.212 42.6627 162.212 42.712C162.212 43.0821 162.191 43.4521 162.15 43.8221C162.109 44.1839 162.088 44.5498 162.088 44.9198C162.088 45.002 162.092 45.0842 162.101 45.1665C162.109 45.2405 162.113 45.3227 162.113 45.4131C162.113 45.4378 162.092 45.4913 162.051 45.5735C162.018 45.6557 161.994 45.7174 161.977 45.7585C162.01 45.8489 162.023 45.9394 162.014 46.0298C162.014 46.1203 162.035 46.2066 162.076 46.2888C162.002 46.3546 161.965 46.4451 161.965 46.5602C161.965 46.6095 161.965 46.6589 161.965 46.7082C161.973 46.7575 161.977 46.8069 161.977 46.8562V47.0042C161.953 47.1687 161.936 47.3372 161.928 47.5099C161.92 47.6743 161.916 47.8388 161.916 48.0032C161.916 48.0772 161.916 48.2047 161.916 48.3856C161.924 48.5583 161.936 48.7556 161.953 48.9776C161.969 49.1914 161.994 49.4134 162.027 49.6436C162.06 49.8739 162.101 50.0877 162.15 50.285C162.208 50.4741 162.277 50.6303 162.36 50.7537C162.442 50.877 162.541 50.9387 162.656 50.9387C162.68 50.9387 162.709 50.9346 162.742 50.9263C162.783 50.9181 162.804 50.8976 162.804 50.8647C162.804 50.8318 162.795 50.803 162.779 50.7783C162.771 50.7537 162.767 50.7249 162.767 50.692L162.779 50.6673C162.845 50.7002 162.915 50.7208 162.989 50.729C163.071 50.7372 163.153 50.7455 163.235 50.7537C163.318 50.7619 163.396 50.7742 163.47 50.7907C163.544 50.8153 163.61 50.8606 163.667 50.9263C163.634 50.9921 163.618 51.062 163.618 51.136C163.618 51.2347 163.642 51.3251 163.692 51.4074C163.741 51.4978 163.774 51.5883 163.79 51.6787C163.634 51.728 163.49 51.7815 163.359 51.839C163.235 51.9048 163.112 51.9624 162.989 52.0117C162.865 52.0693 162.734 52.1186 162.594 52.1597C162.454 52.2091 162.294 52.242 162.113 52.2584C161.998 52.1844 161.899 52.1186 161.817 52.0611C161.735 52.0035 161.624 51.9665 161.484 51.9501C161.27 51.6623 161.093 51.3375 160.954 50.9757C160.814 50.6221 160.703 50.2521 160.621 49.8656C160.547 49.4792 160.493 49.0927 160.46 48.7063C160.436 48.3116 160.423 47.9416 160.423 47.5962C160.423 47.218 160.436 46.8439 160.46 46.4739C160.493 46.0956 160.534 45.7174 160.584 45.3391C160.6 45.224 160.617 45.1089 160.633 44.9938C160.649 44.8705 160.666 44.7512 160.682 44.6361C160.699 44.595 160.711 44.5498 160.719 44.5004C160.736 44.4429 160.744 44.3936 160.744 44.3524C160.744 44.2127 160.74 44.0729 160.732 43.9331C160.723 43.7933 160.719 43.6576 160.719 43.5261C160.719 43.3205 160.732 43.1108 160.756 42.8971C160.765 42.8559 160.777 42.8025 160.793 42.7367C160.818 42.6709 160.83 42.6134 160.83 42.564C160.83 42.4983 160.814 42.453 160.781 42.4284C160.748 42.4037 160.719 42.3626 160.695 42.305C160.719 42.2228 160.74 42.1447 160.756 42.0707C160.773 41.9885 160.781 41.9062 160.781 41.824C160.781 41.6678 160.752 41.5321 160.695 41.417C160.736 41.2032 160.797 40.9935 160.88 40.788C160.962 40.5824 161.106 40.4262 161.311 40.3193C161.476 40.3275 161.64 40.344 161.805 40.3686C161.977 40.3933 162.125 40.4632 162.249 40.5783C162.306 40.5454 162.372 40.5249 162.446 40.5166L162.68 40.492C162.763 40.4837 162.837 40.4714 162.902 40.455C162.968 40.4303 163.026 40.3851 163.075 40.3193C163.239 40.2864 163.416 40.2412 163.605 40.1836C163.795 40.1178 163.959 40.0438 164.099 39.9616H164.37C164.428 39.9205 164.493 39.8917 164.567 39.8753L164.802 39.8136C164.884 39.7889 164.958 39.7643 165.024 39.7396C165.098 39.7149 165.155 39.6738 165.196 39.6163H165.246C165.435 39.6163 165.62 39.5752 165.801 39.4929C165.982 39.4107 166.158 39.3367 166.331 39.2709C166.372 39.2545 166.434 39.2257 166.516 39.1846C166.607 39.1435 166.668 39.1229 166.701 39.1229C166.816 39.1065 166.931 39.0983 167.047 39.0983C167.162 39.09 167.277 39.0736 167.392 39.0489C167.655 39.0078 167.914 38.9626 168.169 38.9132C168.432 38.8557 168.695 38.8269 168.958 38.8269C169.049 38.8269 169.131 38.831 169.205 38.8392C169.287 38.8392 169.373 38.8434 169.464 38.8516C169.472 38.8845 169.493 38.9132 169.526 38.9379C169.558 38.9544 169.587 38.9708 169.612 38.9872C169.645 39.0037 169.674 39.0284 169.698 39.0613C169.723 39.0859 169.731 39.1229 169.723 39.1723C169.739 39.1887 169.756 39.1969 169.772 39.1969C169.797 39.1969 169.818 39.1846 169.834 39.1599C169.859 39.1353 169.892 39.1229 169.933 39.1229H169.994C170.101 39.238 170.204 39.349 170.303 39.4559C170.41 39.5546 170.541 39.6368 170.697 39.7026C170.763 39.9493 170.841 40.1918 170.932 40.4303C171.022 40.6688 171.067 40.9237 171.067 41.195C171.067 41.3594 171.043 41.5198 170.993 41.676C170.878 41.7336 170.796 41.824 170.747 41.9474C170.697 42.0707 170.652 42.1899 170.611 42.305C170.381 42.4202 170.188 42.5723 170.031 42.7614C169.875 42.9505 169.715 43.1396 169.55 43.3287H169.353C169.32 43.3287 169.295 43.3411 169.279 43.3657L169.168 43.4891C169.094 43.5549 169.012 43.6206 168.921 43.6864C168.839 43.7522 168.777 43.8385 168.736 43.9454C168.481 44.0852 168.235 44.2414 167.996 44.4141C167.766 44.5868 167.544 44.7677 167.33 44.9568C167.24 45.0308 167.149 45.1171 167.059 45.2158C166.968 45.3063 166.878 45.3844 166.788 45.4501C166.738 45.4913 166.681 45.5283 166.615 45.5612C166.557 45.5858 166.504 45.6187 166.454 45.6598C166.348 45.742 166.249 45.8284 166.158 45.9188C166.068 46.0011 165.973 46.0792 165.875 46.1532C166.245 46.1367 166.619 46.1285 166.997 46.1285C167.375 46.1203 167.75 46.1121 168.12 46.1038C168.309 46.1038 168.494 46.0997 168.675 46.0915C168.855 46.0751 169.04 46.0668 169.23 46.0668C169.262 46.0668 169.291 46.0751 169.316 46.0915C169.341 46.0997 169.369 46.108 169.402 46.1162C169.542 46.1408 169.665 46.1696 169.772 46.2025C170.167 46.2765 170.562 46.3423 170.956 46.3999C171.351 46.4574 171.737 46.552 172.116 46.6835C172.223 46.7246 172.301 46.7699 172.35 46.8192C172.408 46.8685 172.506 46.8809 172.646 46.8562C172.761 46.9713 172.885 47.0618 173.016 47.1275C173.156 47.1933 173.296 47.2509 173.435 47.3002C173.542 47.4647 173.641 47.6209 173.731 47.7689C173.83 47.9169 173.879 48.0937 173.879 48.2993Z" fill="#202020"/>
</g>
</g>
<path d="M274.341 16.748H34.0322C31.618 16.748 29.3021 17.7047 27.5917 19.4085L20.3587 26.6137C18.6396 28.3261 17.6733 30.6526 17.6733 33.079V129.109C17.6733 134.15 21.7591 138.235 26.7991 138.235H281.574C286.614 138.235 290.7 134.15 290.7 129.109V33.079C290.7 30.6526 289.733 28.3261 288.014 26.6137L280.781 19.4085C279.071 17.7047 276.755 16.748 274.341 16.748Z" stroke="#202020" stroke-width="0.855544"/>
<g clip-path="url(#clip7_285_63473)">
<path d="M88.6831 61.6641H219.296C232.92 61.6641 243.964 72.7083 243.964 86.332V86.9023C243.964 100.526 232.92 111.571 219.296 111.571H88.6831C75.0593 111.571 64.0151 100.526 64.0151 86.9023V86.332C64.0153 72.7084 75.0594 61.6642 88.6831 61.6641Z" stroke="#202020" stroke-width="0.855544"/>
<path d="M216.196 69.5571C225.488 69.5574 233.021 77.0909 233.021 86.3833C233.02 95.6755 225.488 103.208 216.196 103.208C206.903 103.208 199.37 95.6757 199.369 86.3833C199.369 77.0907 206.903 69.5571 216.196 69.5571ZM216.098 73.8345C214.374 73.8345 212.731 74.182 211.236 74.811L212.748 77.4312L210.028 79.0015L208.516 76.3853C205.893 78.3778 204.077 81.3781 203.648 84.8101H206.674V87.9507H203.647C204.075 91.3823 205.889 94.382 208.511 96.3755L210.023 93.7573L212.743 95.3276L211.228 97.9507C212.725 98.5818 214.371 98.9302 216.098 98.9302C217.822 98.9301 219.465 98.5818 220.96 97.9526L219.448 95.3345L222.169 93.7642L223.679 96.3794C226.303 94.386 228.121 91.3846 228.549 87.9507H225.523V84.8101H228.548C228.119 81.3795 226.304 78.3808 223.683 76.3882L222.173 79.0034L219.453 77.4331L220.964 74.814C219.468 74.1838 217.823 73.8345 216.098 73.8345Z" fill="#202020"/>
<path d="M91.821 69.5571C101.113 69.5573 108.646 77.09 108.646 86.3823C108.646 95.6748 101.113 103.208 91.821 103.208C82.5285 103.208 74.9949 95.6749 74.9949 86.3823C74.995 77.0899 82.5286 69.5571 91.821 69.5571ZM91.7234 73.8345C89.9993 73.8345 88.3555 74.1818 86.8601 74.811L88.3728 77.4312L85.6531 79.0015L84.1414 76.3843C81.5179 78.3768 79.7023 81.3779 79.2732 84.8101H82.2986V87.9507H79.2722C79.7 91.382 81.5143 94.3821 84.1355 96.3755L85.6482 93.7573L88.3679 95.3276L86.8533 97.9507C88.3505 98.5817 89.9966 98.9301 91.7234 98.9302C93.4472 98.9301 95.0896 98.5816 96.5847 97.9526L95.074 95.3345L97.7947 93.7642L99.3044 96.3794C101.929 94.386 103.746 91.3847 104.175 87.9507H101.147V84.8101H104.174C103.745 81.3796 101.93 78.3808 99.3083 76.3882L97.7986 79.0034L95.0779 77.4331L96.5896 74.813C95.0933 74.1829 93.4488 73.8345 91.7234 73.8345Z" fill="#202020"/>
</g>
<defs>
<clipPath id="clip0_285_63473">
<rect width="10.2665" height="10.2665" fill="white" transform="translate(148.768 150.347)"/>
</clipPath>
<clipPath id="clip1_285_63473">
<rect width="10.2665" height="10.2665" fill="white" transform="translate(7.69165 8.47754)"/>
</clipPath>
<clipPath id="clip2_285_63473">
<rect width="10.2665" height="10.2665" fill="white" transform="translate(7.69165 171.736)"/>
</clipPath>
<clipPath id="clip3_285_63473">
<rect width="10.2665" height="10.2665" fill="white" transform="translate(289.844 8.47754)"/>
</clipPath>
<clipPath id="clip4_285_63473">
<rect width="10.2665" height="10.2665" fill="white" transform="translate(289.844 171.736)"/>
</clipPath>
<clipPath id="clip5_285_63473">
<rect width="273.204" height="121.487" fill="white" transform="translate(17.6733 16.748)"/>
</clipPath>
<clipPath id="clip6_285_63473">
<rect width="273.401" height="76.9636" fill="white" transform="matrix(1 0 0 -1 17.8159 138.343)"/>
</clipPath>
<clipPath id="clip7_285_63473">
<rect x="63.5874" y="61.2363" width="180.805" height="50.7623" rx="25.096" fill="white"/>
</clipPath>
</defs>
</svg>
