<svg width="308" height="189" viewBox="0 0 308 189" fill="none" xmlns="http://www.w3.org/2000/svg">
<g opacity="0.8">
<mask id="path-1-outside-1_285_63475" maskUnits="userSpaceOnUse" x="-0.144531" y="-0.144531" width="309" height="189" fill="black">
<rect fill="white" x="-0.144531" y="-0.144531" width="309" height="189"/>
<path d="M294.597 0.855469C301.527 0.855585 307.144 6.47342 307.145 13.4033V175.389C307.145 182.319 301.527 187.937 294.597 187.938H13.4043C6.47415 187.938 0.855469 182.319 0.855469 175.389V13.4033C0.855672 6.47334 6.47427 0.855469 13.4043 0.855469H294.597ZM81.2783 167.52C76.8683 167.52 73.293 171.095 73.293 175.505C73.293 179.915 76.8682 183.49 81.2783 183.49C85.6883 183.49 89.2637 179.915 89.2637 175.505C89.2636 171.095 85.6883 167.52 81.2783 167.52ZM226.826 167.52C222.416 167.52 218.841 171.095 218.841 175.505C218.841 179.915 222.416 183.49 226.826 183.49C231.236 183.49 234.812 179.915 234.812 175.505C234.811 171.095 231.236 167.52 226.826 167.52ZM106.944 167.52C106 167.52 105.234 168.286 105.233 169.23V176.646C105.233 177.59 106 178.356 106.944 178.356H114.359C115.304 178.356 116.07 177.591 116.07 176.646V169.23C116.07 168.286 115.304 167.52 114.359 167.52H106.944ZM193.744 167.52C192.799 167.52 192.033 168.286 192.033 169.23V176.646C192.033 177.59 192.799 178.356 193.744 178.356H201.159C202.104 178.356 202.87 177.591 202.87 176.646V169.23C202.87 168.286 202.104 167.52 201.159 167.52H193.744ZM91.8301 69.0146C82.5374 69.0146 75.0039 76.5481 75.0039 85.8408C75.0039 95.1335 82.5374 102.667 91.8301 102.667C101.123 102.667 108.656 95.1335 108.656 85.8408C108.656 76.5482 101.123 69.0147 91.8301 69.0146ZM216.171 69.0146C206.878 69.0146 199.345 76.5481 199.345 85.8408C199.345 95.1335 206.878 102.667 216.171 102.667C225.464 102.667 232.997 95.1335 232.997 85.8408C232.997 76.5482 225.464 69.0148 216.171 69.0146Z"/>
</mask>
<path d="M294.597 0.855469C301.527 0.855585 307.144 6.47342 307.145 13.4033V175.389C307.145 182.319 301.527 187.937 294.597 187.938H13.4043C6.47415 187.938 0.855469 182.319 0.855469 175.389V13.4033C0.855672 6.47334 6.47427 0.855469 13.4043 0.855469H294.597ZM81.2783 167.52C76.8683 167.52 73.293 171.095 73.293 175.505C73.293 179.915 76.8682 183.49 81.2783 183.49C85.6883 183.49 89.2637 179.915 89.2637 175.505C89.2636 171.095 85.6883 167.52 81.2783 167.52ZM226.826 167.52C222.416 167.52 218.841 171.095 218.841 175.505C218.841 179.915 222.416 183.49 226.826 183.49C231.236 183.49 234.812 179.915 234.812 175.505C234.811 171.095 231.236 167.52 226.826 167.52ZM106.944 167.52C106 167.52 105.234 168.286 105.233 169.23V176.646C105.233 177.59 106 178.356 106.944 178.356H114.359C115.304 178.356 116.07 177.591 116.07 176.646V169.23C116.07 168.286 115.304 167.52 114.359 167.52H106.944ZM193.744 167.52C192.799 167.52 192.033 168.286 192.033 169.23V176.646C192.033 177.59 192.799 178.356 193.744 178.356H201.159C202.104 178.356 202.87 177.591 202.87 176.646V169.23C202.87 168.286 202.104 167.52 201.159 167.52H193.744ZM91.8301 69.0146C82.5374 69.0146 75.0039 76.5481 75.0039 85.8408C75.0039 95.1335 82.5374 102.667 91.8301 102.667C101.123 102.667 108.656 95.1335 108.656 85.8408C108.656 76.5482 101.123 69.0147 91.8301 69.0146ZM216.171 69.0146C206.878 69.0146 199.345 76.5481 199.345 85.8408C199.345 95.1335 206.878 102.667 216.171 102.667C225.464 102.667 232.997 95.1335 232.997 85.8408C232.997 76.5482 225.464 69.0148 216.171 69.0146Z" fill="#E2E2E2"/>
<path d="M294.597 0.855469V-8.69036e-05V0.855469ZM307.145 13.4033H308V13.4033L307.145 13.4033ZM294.597 187.938V188.793V187.938ZM0.855469 13.4033L-8.69036e-05 13.4033V13.4033H0.855469ZM81.2783 167.52L81.2783 166.664H81.2783V167.52ZM73.293 175.505L72.4374 175.505V175.505H73.293ZM81.2783 183.49V184.346H81.2783L81.2783 183.49ZM89.2637 175.505H90.1192V175.505L89.2637 175.505ZM226.826 167.52L226.826 166.664H226.826V167.52ZM218.841 175.505L217.985 175.505V175.505H218.841ZM226.826 183.49V184.346H226.826L226.826 183.49ZM234.812 175.505H235.667V175.505L234.812 175.505ZM106.944 167.52V166.664H106.944L106.944 167.52ZM105.233 169.23L104.378 169.23V169.23H105.233ZM106.944 178.356L106.944 179.212H106.944V178.356ZM116.07 169.23H116.926V169.23L116.07 169.23ZM193.744 167.52V166.664H193.744L193.744 167.52ZM192.033 169.23L191.178 169.23V169.23H192.033ZM193.744 178.356L193.744 179.212H193.744V178.356ZM202.87 169.23H203.726V169.23L202.87 169.23ZM91.8301 69.0146L91.8301 68.1591H91.8301V69.0146ZM75.0039 85.8408H74.1484H75.0039ZM91.8301 102.667V103.523H91.8301L91.8301 102.667ZM108.656 85.8408H109.512H108.656ZM216.171 69.0146L216.171 68.1591H216.171V69.0146ZM199.345 85.8408H198.489H199.345ZM216.171 102.667V103.523H216.171L216.171 102.667ZM232.997 85.8408H233.853H232.997ZM294.597 0.855469V1.71102C301.054 1.71113 306.289 6.94592 306.289 13.4033L307.145 13.4033L308 13.4033C308 6.00091 301.999 3.74317e-05 294.597 -8.69036e-05V0.855469ZM307.145 13.4033H306.289V175.389H307.145H308V13.4033H307.145ZM307.145 175.389H306.289C306.289 181.846 301.054 187.082 294.597 187.082V187.938V188.793C301.999 188.793 308 182.791 308 175.389H307.145ZM294.597 187.938V187.082H13.4043V187.938V188.793H294.597V187.938ZM13.4043 187.938V187.082C6.94666 187.082 1.71102 181.846 1.71102 175.389H0.855469H-8.69036e-05C-8.69036e-05 182.791 6.00164 188.793 13.4043 188.793V187.938ZM0.855469 175.389H1.71102V13.4033H0.855469H-8.69036e-05V175.389H0.855469ZM0.855469 13.4033L1.71102 13.4033C1.71121 6.94592 6.94672 1.71102 13.4043 1.71102V0.855469V-8.69036e-05C6.00182 -8.69036e-05 0.0001297 6.00076 -8.69036e-05 13.4033L0.855469 13.4033ZM13.4043 0.855469V1.71102H294.597V0.855469V-8.69036e-05H13.4043V0.855469ZM81.2783 167.52V166.664C76.3957 166.664 72.4375 170.622 72.4374 175.505L73.293 175.505L74.1485 175.505C74.1486 171.567 77.3408 168.375 81.2783 168.375V167.52ZM73.293 175.505H72.4374C72.4374 180.387 76.3957 184.346 81.2783 184.346V183.49V182.635C77.3407 182.635 74.1485 179.442 74.1485 175.505H73.293ZM81.2783 183.49L81.2783 184.346C86.1608 184.346 90.1192 180.387 90.1192 175.505H89.2637H88.4081C88.4081 179.442 85.2158 182.635 81.2783 182.635L81.2783 183.49ZM89.2637 175.505L90.1192 175.505C90.1191 170.622 86.1608 166.664 81.2783 166.664L81.2783 167.52L81.2783 168.375C85.2158 168.375 88.4081 171.567 88.4081 175.505L89.2637 175.505ZM226.826 167.52V166.664C221.944 166.664 217.985 170.622 217.985 175.505L218.841 175.505L219.696 175.505C219.696 171.567 222.889 168.375 226.826 168.375V167.52ZM218.841 175.505H217.985C217.985 180.387 221.944 184.346 226.826 184.346V183.49V182.635C222.889 182.635 219.696 179.442 219.696 175.505H218.841ZM226.826 183.49L226.826 184.346C231.709 184.346 235.667 180.387 235.667 175.505H234.812H233.956C233.956 179.442 230.764 182.635 226.826 182.635L226.826 183.49ZM234.812 175.505L235.667 175.505C235.667 170.622 231.709 166.664 226.826 166.664L226.826 167.52L226.826 168.375C230.764 168.375 233.956 171.567 233.956 175.505L234.812 175.505ZM106.944 167.52L106.944 166.664C105.527 166.664 104.378 167.813 104.378 169.23L105.233 169.23L106.089 169.231C106.089 168.758 106.472 168.375 106.945 168.375L106.944 167.52ZM105.233 169.23H104.378V176.646H105.233H106.089V169.23H105.233ZM105.233 176.646H104.378C104.378 178.063 105.527 179.212 106.944 179.212L106.944 178.356L106.945 177.501C106.472 177.501 106.089 177.118 106.089 176.646H105.233ZM106.944 178.356V179.212H114.359V178.356V177.501H106.944V178.356ZM114.359 178.356V179.212C115.777 179.212 116.926 178.063 116.926 176.646H116.07H115.215C115.215 177.118 114.832 177.501 114.359 177.501V178.356ZM116.07 176.646H116.926V169.23H116.07H115.215V176.646H116.07ZM116.07 169.23L116.926 169.23C116.925 167.813 115.777 166.664 114.359 166.664V167.52V168.375C114.831 168.375 115.215 168.758 115.215 169.231L116.07 169.23ZM114.359 167.52V166.664H106.944V167.52V168.375H114.359V167.52ZM193.744 167.52L193.744 166.664C192.327 166.664 191.178 167.813 191.178 169.23L192.033 169.23L192.889 169.231C192.889 168.758 193.272 168.375 193.744 168.375L193.744 167.52ZM192.033 169.23H191.178V176.646H192.033H192.889V169.23H192.033ZM192.033 176.646H191.178C191.178 178.063 192.327 179.212 193.744 179.212L193.744 178.356L193.744 177.501C193.272 177.501 192.889 177.118 192.889 176.646H192.033ZM193.744 178.356V179.212H201.159V178.356V177.501H193.744V178.356ZM201.159 178.356V179.212C202.577 179.212 203.726 178.063 203.726 176.646H202.87H202.015C202.015 177.118 201.632 177.501 201.159 177.501V178.356ZM202.87 176.646H203.726V169.23H202.87H202.015V176.646H202.87ZM202.87 169.23L203.726 169.23C203.725 167.813 202.577 166.664 201.159 166.664V167.52V168.375C201.631 168.375 202.014 168.758 202.015 169.231L202.87 169.23ZM201.159 167.52V166.664H193.744V167.52V168.375H201.159V167.52ZM91.8301 69.0146V68.1591C82.0649 68.1591 74.1484 76.0756 74.1484 85.8408H75.0039H75.8595C75.8595 77.0206 83.0099 69.8702 91.8301 69.8702V69.0146ZM75.0039 85.8408H74.1484C74.1484 95.606 82.0649 103.523 91.8301 103.523V102.667V101.811C83.0099 101.811 75.8595 94.661 75.8595 85.8408H75.0039ZM91.8301 102.667L91.8301 103.523C101.595 103.522 109.512 95.606 109.512 85.8408H108.656H107.801C107.801 94.661 100.65 101.811 91.8301 101.811L91.8301 102.667ZM108.656 85.8408H109.512C109.512 76.0756 101.595 68.1592 91.8301 68.1591L91.8301 69.0146L91.8301 69.8702C100.65 69.8703 107.801 77.0207 107.801 85.8408H108.656ZM216.171 69.0146V68.1591C206.406 68.1591 198.489 76.0756 198.489 85.8408H199.345H200.2C200.2 77.0206 207.351 69.8702 216.171 69.8702V69.0146ZM199.345 85.8408H198.489C198.489 95.606 206.406 103.523 216.171 103.523V102.667V101.811C207.351 101.811 200.2 94.661 200.2 85.8408H199.345ZM216.171 102.667L216.171 103.523C225.936 103.522 233.853 95.606 233.853 85.8408H232.997H232.142C232.142 94.6609 224.991 101.811 216.171 101.811L216.171 102.667ZM232.997 85.8408H233.853C233.853 76.0757 225.936 68.1592 216.171 68.1591L216.171 69.0146L216.171 69.8702C224.991 69.8703 232.142 77.0207 232.142 85.8408H232.997Z" fill="#202020" mask="url(#path-1-outside-1_285_63475)"/>
</g>
<path d="M91.5449 34.2222C120.053 34.2223 143.163 57.3325 143.163 85.8403C143.163 114.348 120.053 137.459 91.5449 137.459C63.0368 137.459 39.9258 114.348 39.9258 85.8403C39.926 57.3324 63.0369 34.2222 91.5449 34.2222ZM91.8301 68.1597C82.065 68.1597 74.1487 76.0753 74.1484 85.8403C74.1484 95.6055 82.0649 103.522 91.8301 103.522C101.595 103.522 109.511 95.6054 109.511 85.8403C109.51 76.0754 101.595 68.1599 91.8301 68.1597Z" fill="#202020"/>
<path d="M215.886 64.4521C227.698 64.4524 237.274 74.0283 237.274 85.8408C237.274 97.6534 227.698 107.229 215.886 107.229C204.073 107.229 194.496 97.6536 194.496 85.8408C194.496 74.0282 204.073 64.4521 215.886 64.4521ZM216.17 68.1592C206.405 68.1594 198.489 76.0757 198.489 85.8408C198.489 95.6059 206.405 103.522 216.17 103.522C225.935 103.522 233.852 95.606 233.852 85.8408C233.852 76.0756 225.935 68.1592 216.17 68.1592Z" fill="#202020"/>
<path d="M36.0757 77.8559C33.0987 101.457 21.5136 157.668 24.5257 175.817M33.3665 183.232C53.1869 183.517 272.494 183.232 274.633 183.232M233.424 73.8633C243.521 88.8263 276.009 148.66 283.317 171.967" stroke="#202020" stroke-width="0.285185"/>
<path d="M33.1849 165.254C38.225 165.254 42.3109 169.34 42.3109 174.38C42.3107 179.42 38.2248 183.506 33.1849 183.506C28.145 183.506 24.0592 179.42 24.059 174.38C24.059 169.34 28.1448 165.254 33.1849 165.254ZM33.1849 170.539C31.0628 170.539 29.3422 172.259 29.3422 174.381C29.3422 176.503 31.0628 178.224 33.1849 178.224C35.307 178.224 37.0277 176.503 37.0277 174.381C37.0277 172.259 35.307 170.539 33.1849 170.539Z" fill="#202020"/>
<path d="M274.452 165.254C279.492 165.254 283.578 169.34 283.578 174.38C283.577 179.42 279.492 183.506 274.452 183.506C269.412 183.506 265.326 179.42 265.326 174.38C265.326 169.34 269.412 165.254 274.452 165.254ZM274.452 170.539C272.33 170.539 270.609 172.259 270.609 174.381C270.609 176.503 272.33 178.224 274.452 178.224C276.574 178.224 278.294 176.503 278.294 174.381C278.294 172.259 276.574 170.539 274.452 170.539Z" fill="#202020"/>
<path d="M69.4091 146.158H240.868C244.843 146.158 248.313 148.853 249.296 152.705L258.396 188.365H49.9169L61.1005 152.281C62.229 148.64 65.5971 146.158 69.4091 146.158Z" stroke="#202020" stroke-width="0.855556"/>
<circle cx="81.2779" cy="175.521" r="7.55741" stroke="#202020" stroke-width="0.855556"/>
<circle cx="226.826" cy="175.521" r="7.55741" stroke="#202020" stroke-width="0.855556"/>
<rect x="105.661" y="167.963" width="9.98148" height="9.98148" rx="1.28333" stroke="#202020" stroke-width="0.855556"/>
<path d="M148.582 178.373C148.582 177.428 149.348 176.662 150.293 176.662H157.708C158.653 176.662 159.419 177.428 159.419 178.373V183.506H148.582V178.373Z" fill="#202020"/>
<rect x="192.461" y="167.963" width="9.98148" height="9.98148" rx="1.28333" stroke="#202020" stroke-width="0.855556"/>
<g clip-path="url(#clip0_285_63475)">
<path d="M153.909 149.569C156.744 149.569 159.042 151.868 159.042 154.703C159.042 157.537 156.744 159.835 153.909 159.835C151.074 159.835 148.776 157.537 148.776 154.703C148.776 151.868 151.074 149.569 153.909 149.569ZM154.328 151.63C154.235 151.174 153.582 151.174 153.489 151.63L153.098 153.557C153.064 153.725 152.932 153.857 152.764 153.891L150.837 154.283C150.38 154.376 150.38 155.029 150.837 155.122L152.764 155.513C152.932 155.547 153.064 155.679 153.098 155.847L153.489 157.774C153.582 158.231 154.235 158.231 154.328 157.774L154.72 155.847C154.754 155.679 154.886 155.547 155.054 155.513L156.981 155.122C157.437 155.029 157.437 154.376 156.981 154.283L155.054 153.891C154.886 153.857 154.754 153.725 154.72 153.557L154.328 151.63Z" fill="#202020"/>
</g>
<g clip-path="url(#clip1_285_63475)">
<path d="M12.8335 7.7002C15.6683 7.70044 17.9663 9.99907 17.9663 12.834C17.9661 15.6687 15.6682 17.9666 12.8335 17.9668C9.99859 17.9668 7.69995 15.6688 7.69971 12.834C7.69971 9.99892 9.99843 7.7002 12.8335 7.7002ZM13.2524 9.76172C13.1596 9.30502 12.5065 9.30502 12.4136 9.76172L12.022 11.6885C11.9878 11.8567 11.8562 11.9882 11.688 12.0225L9.76123 12.4141C9.30453 12.5069 9.30453 13.1601 9.76123 13.2529L11.688 13.6445C11.8562 13.6787 11.9877 13.8103 12.022 13.9785L12.4136 15.9053C12.5065 16.362 13.1596 16.362 13.2524 15.9053L13.644 13.9785C13.6783 13.8103 13.8098 13.6788 13.978 13.6445L15.9048 13.2529C16.3615 13.1601 16.3615 12.5069 15.9048 12.4141L13.978 12.0225C13.8098 11.9882 13.6783 11.8567 13.644 11.6885L13.2524 9.76172Z" fill="#202020"/>
</g>
<g clip-path="url(#clip2_285_63475)">
<path d="M12.8335 170.958C15.6683 170.958 17.9663 173.256 17.9663 176.091C17.9661 178.926 15.6682 181.224 12.8335 181.224C9.99859 181.224 7.69995 178.926 7.69971 176.091C7.69971 173.256 9.99843 170.958 12.8335 170.958ZM13.2524 173.019C13.1596 172.562 12.5065 172.562 12.4136 173.019L12.022 174.946C11.9878 175.114 11.8562 175.246 11.688 175.28L9.76123 175.671C9.30453 175.764 9.30453 176.417 9.76123 176.51L11.688 176.902C11.8562 176.936 11.9877 177.068 12.022 177.236L12.4136 179.163C12.5065 179.619 13.1596 179.619 13.2524 179.163L13.644 177.236C13.6783 177.068 13.8098 176.936 13.978 176.902L15.9048 176.51C16.3615 176.417 16.3615 175.764 15.9048 175.671L13.978 175.28C13.8098 175.246 13.6783 175.114 13.644 174.946L13.2524 173.019Z" fill="#202020"/>
</g>
<g clip-path="url(#clip3_285_63475)">
<path d="M294.985 7.7002C297.82 7.70044 300.118 9.99907 300.118 12.834C300.118 15.6687 297.82 17.9666 294.985 17.9668C292.15 17.9668 289.852 15.6688 289.851 12.834C289.851 9.99892 292.15 7.7002 294.985 7.7002ZM295.404 9.76172C295.311 9.30502 294.658 9.30502 294.565 9.76172L294.174 11.6885C294.139 11.8567 294.008 11.9882 293.84 12.0225L291.913 12.4141C291.456 12.5069 291.456 13.1601 291.913 13.2529L293.84 13.6445C294.008 13.6787 294.139 13.8103 294.174 13.9785L294.565 15.9053C294.658 16.362 295.311 16.362 295.404 15.9053L295.796 13.9785C295.83 13.8103 295.961 13.6788 296.13 13.6445L298.056 13.2529C298.513 13.1601 298.513 12.5069 298.056 12.4141L296.13 12.0225C295.961 11.9882 295.83 11.8567 295.796 11.6885L295.404 9.76172Z" fill="#202020"/>
</g>
<g clip-path="url(#clip4_285_63475)">
<path d="M294.985 170.958C297.82 170.958 300.118 173.256 300.118 176.091C300.118 178.926 297.82 181.224 294.985 181.224C292.15 181.224 289.852 178.926 289.851 176.091C289.851 173.256 292.15 170.958 294.985 170.958ZM295.404 173.019C295.311 172.562 294.658 172.562 294.565 173.019L294.174 174.946C294.139 175.114 294.008 175.246 293.84 175.28L291.913 175.671C291.456 175.764 291.456 176.417 291.913 176.51L293.84 176.902C294.008 176.936 294.139 177.068 294.174 177.236L294.565 179.163C294.658 179.619 295.311 179.619 295.404 179.163L295.796 177.236C295.83 177.068 295.961 176.936 296.13 176.902L298.056 176.51C298.513 176.417 298.513 175.764 298.056 175.671L296.13 175.28C295.961 175.246 295.83 175.114 295.796 174.946L295.404 173.019Z" fill="#202020"/>
</g>
<mask id="mask0_285_63475" style="mask-type:alpha" maskUnits="userSpaceOnUse" x="17" y="15" width="274" height="123">
<path d="M34.0466 16.3979H274.523C276.823 16.3979 279.03 17.3094 280.66 18.9321L287.899 26.1392C289.539 27.7715 290.461 29.9895 290.461 32.3032V128.333C290.461 133.137 286.566 137.032 281.762 137.032H26.8074C22.0036 137.032 18.1093 133.137 18.1091 128.333V32.3032C18.1091 29.9896 19.0311 27.7715 20.6707 26.1392L27.9099 18.9321C29.5399 17.3094 31.7466 16.398 34.0466 16.3979ZM88.6921 60.0317C74.5958 60.0319 63.1688 71.4588 63.1687 85.5552V86.1255C63.1687 100.222 74.5958 111.65 88.6921 111.65H219.307C233.404 111.65 244.832 100.222 244.832 86.1255V85.5552C244.832 71.4587 233.404 60.0318 219.307 60.0317H88.6921Z" fill="#EDA35F" stroke="#202020" stroke-width="0.855556"/>
</mask>
<g mask="url(#mask0_285_63475)">
<g clip-path="url(#clip5_285_63475)">
<rect width="273.207" height="121.489" transform="translate(17.6814 15.9702)" fill="#FCF7F2"/>
<g clip-path="url(#clip6_285_63475)">
<rect width="273.493" height="13.6826" transform="matrix(1 0 0 -1 17.824 137.566)" fill="#9B51E0"/>
<rect width="273.493" height="9.40679" transform="matrix(1 0 0 -1 17.824 120.463)" fill="#9B51E0"/>
<rect width="273.493" height="1.71033" transform="matrix(1 0 0 -1 17.824 70.0088)" fill="#9B51E0"/>
<rect width="273.493" height="0.855164" transform="matrix(1 0 0 -1 17.824 61.457)" fill="#9B51E0"/>
<rect width="273.493" height="6.8413" transform="matrix(1 0 0 -1 17.824 107.636)" fill="#9B51E0"/>
<rect width="273.493" height="3.42065" transform="matrix(1 0 0 -1 17.824 87.1118)" fill="#9B51E0"/>
<rect width="273.493" height="5.13098" transform="matrix(1 0 0 -1 17.824 96.519)" fill="#9B51E0"/>
<rect width="273.493" height="2.56549" transform="matrix(1 0 0 -1 17.824 78.5605)" fill="#9B51E0"/>
</g>
<path d="M148.284 48.7183C148.259 48.8334 148.205 48.928 148.123 49.002C148.049 49.0677 147.959 49.1212 147.852 49.1623C147.745 49.2034 147.634 49.2322 147.519 49.2486C147.412 49.2569 147.313 49.261 147.223 49.261C147.182 49.261 147.141 49.261 147.099 49.261C147.067 49.2528 147.03 49.2486 146.988 49.2486C146.947 49.2486 146.927 49.2692 146.927 49.3103C146.927 49.3514 146.906 49.3802 146.865 49.3966C146.824 49.3802 146.783 49.3679 146.742 49.3596C146.701 49.3514 146.66 49.3473 146.618 49.3473C146.561 49.3473 146.503 49.3514 146.446 49.3596C146.396 49.3679 146.347 49.372 146.298 49.372C146.232 49.372 146.183 49.3638 146.15 49.3473C146.125 49.3309 146.1 49.3144 146.076 49.298C146.059 49.2733 146.039 49.2486 146.014 49.224C145.998 49.1993 145.969 49.1787 145.928 49.1623C145.87 49.1376 145.821 49.1335 145.78 49.15C145.747 49.1664 145.693 49.1417 145.619 49.076C145.521 48.9937 145.434 48.8951 145.36 48.78C145.295 48.6566 145.229 48.5292 145.163 48.3976C145.097 48.266 145.027 48.1345 144.953 48.0029C144.879 47.8714 144.793 47.7563 144.694 47.6576H144.596C144.448 47.6576 144.345 47.7192 144.287 47.8426C144.246 47.8179 144.205 47.7891 144.164 47.7563C144.123 47.7151 144.078 47.6822 144.028 47.6576C143.839 47.7151 143.642 47.7645 143.436 47.8056C143.231 47.8467 143.025 47.8673 142.82 47.8673H142.647C142.598 47.8673 142.544 47.859 142.487 47.8426C142.404 47.8755 142.33 47.9166 142.265 47.9659C142.199 48.007 142.125 48.0276 142.043 48.0276C141.993 48.0276 141.936 48.0111 141.87 47.9783C141.821 47.9783 141.796 47.9988 141.796 48.0399C141.804 48.081 141.78 48.1016 141.722 48.1016H141.611C141.496 48.1016 141.381 48.1057 141.266 48.1139C141.159 48.1222 141.048 48.1263 140.933 48.1263C140.776 48.1263 140.616 48.1057 140.452 48.0646C140.41 48.0893 140.365 48.1016 140.316 48.1016C140.283 48.118 140.258 48.1468 140.242 48.1879C140.225 48.2208 140.209 48.2537 140.193 48.2866C140.176 48.3113 140.151 48.3359 140.119 48.3606C140.094 48.3771 140.057 48.3812 140.008 48.3729C139.991 48.4716 139.95 48.5497 139.884 48.6073C139.818 48.6648 139.786 48.7512 139.786 48.8663C139.695 48.9156 139.621 48.9773 139.564 49.0513C139.506 49.1253 139.448 49.2034 139.391 49.2856C139.333 49.3679 139.272 49.446 139.206 49.52C139.148 49.594 139.074 49.6515 138.984 49.6927C138.943 49.742 138.93 49.8201 138.947 49.927C138.856 50.001 138.745 50.0668 138.614 50.1243C138.482 50.1819 138.359 50.2107 138.244 50.2107C138.005 50.2107 137.841 50.0832 137.75 49.8283C137.75 49.7461 137.759 49.6598 137.775 49.5693C137.783 49.4706 137.8 49.3802 137.824 49.298C137.849 49.2075 137.886 49.1294 137.935 49.0636C137.985 48.9896 138.055 48.9362 138.145 48.9033C138.145 48.8293 138.12 48.78 138.071 48.7553C138.022 48.7224 138.001 48.669 138.009 48.5949C138.232 48.4881 138.425 48.3483 138.589 48.1756C138.754 48.0029 138.902 47.822 139.033 47.6329C139.173 47.4356 139.313 47.2382 139.453 47.0409C139.592 46.8436 139.749 46.6668 139.921 46.5105V46.2515C140.168 45.9884 140.328 45.6924 140.402 45.3635C140.493 45.3471 140.55 45.3059 140.575 45.2402C140.608 45.1744 140.624 45.0963 140.624 45.0058C140.665 45.0058 140.69 44.9894 140.698 44.9565C140.715 44.9154 140.752 44.903 140.809 44.9195C140.883 44.7221 140.965 44.5412 141.056 44.3768C141.146 44.2123 141.237 44.0479 141.327 43.8834C141.418 43.7108 141.496 43.534 141.562 43.3531C141.636 43.1722 141.689 42.9707 141.722 42.7487C141.837 42.7405 141.899 42.6871 141.907 42.5884C141.923 42.4815 141.94 42.3869 141.956 42.3047C142.08 42.1896 142.17 42.0539 142.228 41.8977C142.293 41.7415 142.351 41.5811 142.4 41.4167C142.45 41.244 142.503 41.0755 142.561 40.911C142.626 40.7383 142.717 40.5862 142.832 40.4547V40.4177C142.832 40.3765 142.816 40.3519 142.783 40.3436C142.75 40.3272 142.733 40.2984 142.733 40.2573C142.742 40.2491 142.746 40.2409 142.746 40.2326C142.844 40.1915 142.918 40.1258 142.968 40.0353C143.017 39.9366 143.091 39.8667 143.19 39.8256C143.362 39.9654 143.514 40.0517 143.646 40.0846C143.778 40.1093 143.95 40.1299 144.164 40.1463C144.271 40.2614 144.329 40.4012 144.337 40.5657C144.353 40.7219 144.382 40.8781 144.423 41.0343C144.489 41.2975 144.559 41.5565 144.633 41.8114C144.715 42.058 144.777 42.3129 144.818 42.5761C144.842 42.7323 144.888 42.8803 144.953 43.0201C145.019 43.1599 145.064 43.3038 145.089 43.4518C145.106 43.5669 145.106 43.6984 145.089 43.8464C145.073 43.9862 145.089 44.1096 145.138 44.2165L145.225 44.4138C145.266 44.5042 145.299 44.5988 145.323 44.6975C145.356 44.7961 145.385 44.8948 145.41 44.9935C145.476 45.2402 145.533 45.5074 145.582 45.7952C145.64 46.0747 145.726 46.3296 145.841 46.5599C145.883 46.6421 145.944 46.6997 146.026 46.7325C146.117 46.7654 146.216 46.7901 146.322 46.8065C146.429 46.8148 146.532 46.8189 146.631 46.8189C146.738 46.8107 146.828 46.8065 146.902 46.8065H147.025C147.075 46.8065 147.124 46.8148 147.173 46.8312C147.206 46.897 147.223 46.9546 147.223 47.0039C147.223 47.1026 147.19 47.1807 147.124 47.2382C147.058 47.2958 147.025 47.3616 147.025 47.4356C147.025 47.4767 147.042 47.5219 147.075 47.5712C147.042 47.563 146.993 47.5589 146.927 47.5589C146.738 47.5589 146.553 47.5918 146.372 47.6576C146.438 47.7974 146.524 47.9166 146.631 48.0153C146.746 48.1057 146.865 48.192 146.988 48.2743C147.071 48.2085 147.157 48.1756 147.247 48.1756C147.346 48.1756 147.437 48.2003 147.519 48.2496C147.609 48.2907 147.704 48.3113 147.803 48.3113C147.877 48.3113 147.93 48.2989 147.963 48.2743C148.029 48.3483 148.082 48.4264 148.123 48.5086C148.164 48.5826 148.218 48.6525 148.284 48.7183ZM144.423 46.7449C144.407 46.6051 144.378 46.5064 144.337 46.4489C144.304 46.3831 144.275 46.305 144.25 46.2145C144.217 46.0994 144.193 45.9761 144.176 45.8445C144.168 45.713 144.152 45.5855 144.127 45.4622C144.069 45.1826 144.004 44.903 143.93 44.6235C143.864 44.3439 143.778 44.0726 143.671 43.8094C143.704 43.7601 143.72 43.7149 143.72 43.6738V43.6368C143.646 43.5545 143.593 43.4559 143.56 43.3408C143.527 43.2174 143.494 43.0982 143.461 42.9831C143.436 42.8597 143.399 42.7487 143.35 42.6501C143.309 42.5432 143.239 42.4568 143.14 42.3911C143.116 42.4404 143.103 42.4979 143.103 42.5637C143.103 42.6213 143.107 42.6747 143.116 42.7241C143.132 42.7734 143.14 42.8268 143.14 42.8844C143.058 42.9255 142.996 42.9913 142.955 43.0817C142.922 43.164 142.865 43.2298 142.783 43.2791C142.717 43.5422 142.622 43.793 142.499 44.0314C142.376 44.2617 142.244 44.4919 142.104 44.7221C141.973 44.9524 141.845 45.1867 141.722 45.4252C141.599 45.6554 141.5 45.898 141.426 46.1529C141.319 46.2269 141.245 46.3214 141.204 46.4365C141.171 46.5517 141.155 46.6668 141.155 46.7819C141.229 46.823 141.311 46.8477 141.401 46.8559C141.5 46.8559 141.595 46.8559 141.685 46.8559C141.775 46.8559 141.862 46.8641 141.944 46.8806C142.026 46.897 142.1 46.9381 142.166 47.0039C142.273 46.971 142.388 46.9504 142.511 46.9422C142.643 46.9258 142.75 46.8888 142.832 46.8312C142.996 46.8888 143.173 46.9176 143.362 46.9176C143.461 46.9176 143.556 46.9093 143.646 46.8929C143.745 46.8764 143.839 46.8559 143.93 46.8312C144.004 46.8477 144.061 46.8764 144.102 46.9176C144.143 46.9504 144.205 46.9628 144.287 46.9546C144.329 46.9217 144.353 46.8888 144.361 46.8559C144.37 46.8148 144.39 46.7778 144.423 46.7449ZM157.818 42.7611C157.818 42.8762 157.813 42.9913 157.805 43.1064C157.797 43.2215 157.785 43.3366 157.768 43.4518C157.711 43.534 157.653 43.608 157.596 43.6738C157.546 43.7313 157.513 43.8053 157.497 43.8958C157.406 43.9616 157.304 44.052 157.189 44.1671C157.082 44.2822 157.036 44.3974 157.053 44.5125H156.88C156.782 44.6605 156.666 44.7879 156.535 44.8948C156.403 45.0017 156.263 45.1045 156.115 45.2032L155.684 45.4868C155.544 45.5773 155.412 45.6842 155.289 45.8075C155.223 45.8157 155.17 45.8281 155.129 45.8445C155.088 45.861 155.034 45.8651 154.968 45.8568C154.714 46.0213 154.446 46.1652 154.167 46.2885C153.895 46.4119 153.62 46.5352 153.34 46.6585C153.069 46.7737 152.798 46.897 152.526 47.0286C152.255 47.1601 151.996 47.3122 151.749 47.4849C151.725 47.4767 151.692 47.4726 151.651 47.4726C151.577 47.4726 151.503 47.4849 151.429 47.5096C151.355 47.526 151.281 47.5342 151.207 47.5342C151.174 47.5342 151.129 47.5301 151.071 47.5219C151.022 47.5137 150.985 47.5014 150.96 47.4849C150.919 47.4602 150.882 47.4232 150.849 47.3739C150.816 47.3246 150.791 47.2711 150.775 47.2136C150.759 47.1478 150.746 47.0861 150.738 47.0286C150.73 46.971 150.726 46.9217 150.726 46.8806C150.726 46.8312 150.73 46.7778 150.738 46.7202C150.746 46.6627 150.759 46.6092 150.775 46.5599C151.013 46.5434 151.252 46.4818 151.49 46.3749C151.737 46.268 151.971 46.1652 152.193 46.0665C152.251 46.0419 152.296 46.0131 152.329 45.9802C152.37 45.9391 152.411 45.9062 152.452 45.8815C152.493 45.8486 152.539 45.8198 152.588 45.7952C152.637 45.7705 152.699 45.7582 152.773 45.7582H152.81C153.328 45.5197 153.834 45.2607 154.327 44.9812C154.829 44.7016 155.326 44.4179 155.819 44.1301C155.844 44.0561 155.881 43.9821 155.93 43.9081C155.988 43.8341 156.041 43.7642 156.091 43.6984C156.14 43.6244 156.185 43.5504 156.226 43.4764C156.268 43.4024 156.288 43.3284 156.288 43.2544C156.288 43.1064 156.218 42.9831 156.078 42.8844H156.029C155.93 42.8844 155.844 42.8721 155.77 42.8474C155.696 42.8145 155.626 42.7857 155.56 42.7611C155.495 42.7282 155.421 42.7035 155.338 42.6871C155.256 42.6624 155.162 42.6542 155.055 42.6624C155.014 42.6295 154.948 42.6007 154.857 42.5761C154.767 42.5514 154.693 42.5391 154.635 42.5391C154.339 42.5391 154.048 42.5596 153.76 42.6007C153.472 42.6336 153.184 42.6542 152.896 42.6624C152.822 42.7035 152.752 42.7405 152.687 42.7734C152.621 42.8063 152.543 42.8227 152.452 42.8227C152.411 42.8227 152.374 42.8227 152.341 42.8227C152.308 42.8145 152.271 42.8063 152.23 42.7981C152.074 42.8639 151.897 42.9214 151.7 42.9707C151.503 43.0119 151.305 43.0653 151.108 43.1311C150.919 43.1886 150.742 43.2626 150.578 43.3531C150.413 43.4435 150.286 43.5669 150.195 43.7231C150.195 43.7642 150.203 43.8012 150.22 43.8341C150.236 43.8588 150.245 43.8917 150.245 43.9328V43.9821C150.195 44.0314 150.162 44.089 150.146 44.1548C150.129 44.2123 150.117 44.274 150.109 44.3398C150.101 44.3974 150.088 44.459 150.072 44.5248C150.064 44.5824 150.035 44.6399 149.986 44.6975C150.018 44.8208 150.035 44.9565 150.035 45.1045C150.035 45.2689 150.023 45.4334 149.998 45.5978C149.981 45.7623 149.973 45.9267 149.973 46.0912C149.973 46.2474 149.99 46.3872 150.023 46.5105C149.973 46.5599 149.953 46.6339 149.961 46.7325C149.969 46.8312 149.949 46.9052 149.899 46.9546C149.899 47.0203 149.916 47.0656 149.949 47.0902C149.99 47.1149 150.014 47.156 150.023 47.2136C149.99 47.3533 149.973 47.5055 149.973 47.6699C149.973 47.9084 149.998 48.1509 150.047 48.3976C150.105 48.6443 150.171 48.8868 150.245 49.1253C150.376 49.0842 150.516 49.0513 150.664 49.0266C150.82 48.9937 150.968 48.9773 151.108 48.9773C151.133 48.9773 151.157 48.9814 151.182 48.9896C151.207 48.9896 151.231 48.9896 151.256 48.9896C151.272 49.0801 151.305 49.1623 151.355 49.2363C151.404 49.3103 151.449 49.3925 151.49 49.483C151.449 49.5405 151.412 49.5858 151.379 49.6187C151.355 49.6598 151.342 49.7132 151.342 49.779C151.227 49.7872 151.133 49.816 151.059 49.8653C150.985 49.9229 150.902 49.9846 150.812 50.0503H150.763C150.623 50.0503 150.508 50.075 150.417 50.1243C150.327 50.1819 150.224 50.2436 150.109 50.3093C150.01 50.2682 149.912 50.2477 149.813 50.2477C149.706 50.2477 149.599 50.2682 149.492 50.3093C149.361 50.2518 149.254 50.1613 149.172 50.038C149.089 49.9229 149.019 49.7913 148.962 49.6433C148.904 49.5035 148.851 49.3596 148.802 49.2116C148.76 49.0636 148.711 48.928 148.654 48.8046V48.6073C148.654 48.4182 148.637 48.2373 148.604 48.0646C148.58 47.8837 148.567 47.6987 148.567 47.5096C148.567 47.4356 148.571 47.3575 148.58 47.2752C148.596 47.193 148.621 47.1149 148.654 47.0409C148.637 46.9669 148.629 46.897 148.629 46.8312V46.5969C148.629 46.3502 148.637 46.1035 148.654 45.8568C148.678 45.6102 148.691 45.3635 148.691 45.1168C148.691 44.9359 148.678 44.7509 148.654 44.5618C148.612 44.5782 148.575 44.5947 148.543 44.6111C148.51 44.6276 148.473 44.6358 148.432 44.6358C148.39 44.6358 148.349 44.6317 148.308 44.6235C148.275 44.6152 148.242 44.607 148.21 44.5988C148.127 44.5248 148.07 44.4344 148.037 44.3275C148.004 44.2206 147.959 44.1219 147.901 44.0314C147.901 43.8752 147.926 43.7478 147.975 43.6491C148.016 43.5422 148.07 43.4476 148.136 43.3654C148.201 43.275 148.267 43.1886 148.333 43.1064C148.407 43.0242 148.469 42.9214 148.518 42.7981H148.567C148.699 42.7981 148.83 42.757 148.962 42.6747C149.093 42.5843 149.241 42.5391 149.406 42.5391C149.463 42.4651 149.542 42.4034 149.64 42.3541C149.739 42.2965 149.842 42.2513 149.949 42.2184C150.064 42.1855 150.175 42.1649 150.282 42.1567C150.397 42.1403 150.504 42.132 150.602 42.132C150.635 42.0745 150.685 42.0375 150.75 42.021C150.816 41.9964 150.882 41.9758 150.948 41.9594C151.022 41.9347 151.087 41.9141 151.145 41.8977C151.211 41.873 151.264 41.8319 151.305 41.7744C151.371 41.7908 151.433 41.799 151.49 41.799C151.597 41.799 151.7 41.7867 151.799 41.762C151.897 41.7291 151.996 41.6963 152.095 41.6634C152.193 41.6223 152.292 41.5852 152.391 41.5524C152.498 41.5195 152.609 41.503 152.724 41.503C152.765 41.503 152.806 41.5071 152.847 41.5154C152.888 41.5154 152.929 41.5154 152.97 41.5154C153.036 41.5154 153.073 41.4907 153.081 41.4414C153.098 41.392 153.127 41.355 153.168 41.3304C153.192 41.3386 153.238 41.3427 153.303 41.3427C153.468 41.3427 153.628 41.3304 153.784 41.3057C153.941 41.2728 154.101 41.2563 154.265 41.2563C154.339 41.2563 154.413 41.2605 154.487 41.2687C154.561 41.2769 154.635 41.2975 154.709 41.3304C154.726 41.3057 154.742 41.2851 154.759 41.2687C154.775 41.2522 154.788 41.2317 154.796 41.207C155.199 41.2317 155.577 41.3139 155.93 41.4537C156.292 41.5935 156.666 41.7168 157.053 41.8237C157.102 41.8977 157.16 41.9635 157.226 42.021L157.435 42.1937C157.509 42.2513 157.579 42.3088 157.645 42.3664C157.711 42.4239 157.768 42.4938 157.818 42.5761V42.7611ZM167.857 42.7611C167.857 42.8762 167.853 42.9913 167.845 43.1064C167.837 43.2215 167.824 43.3366 167.808 43.4518C167.75 43.534 167.693 43.608 167.635 43.6738C167.586 43.7313 167.553 43.8053 167.537 43.8958C167.446 43.9616 167.343 44.052 167.228 44.1671C167.121 44.2822 167.076 44.3974 167.093 44.5125H166.92C166.821 44.6605 166.706 44.7879 166.575 44.8948C166.443 45.0017 166.303 45.1045 166.155 45.2032L165.724 45.4868C165.584 45.5773 165.452 45.6842 165.329 45.8075C165.263 45.8157 165.21 45.8281 165.168 45.8445C165.127 45.861 165.074 45.8651 165.008 45.8568C164.753 46.0213 164.486 46.1652 164.206 46.2885C163.935 46.4119 163.66 46.5352 163.38 46.6585C163.109 46.7737 162.837 46.897 162.566 47.0286C162.295 47.1601 162.036 47.3122 161.789 47.4849C161.764 47.4767 161.731 47.4726 161.69 47.4726C161.616 47.4726 161.542 47.4849 161.468 47.5096C161.394 47.526 161.32 47.5342 161.246 47.5342C161.213 47.5342 161.168 47.5301 161.111 47.5219C161.061 47.5137 161.024 47.5014 161 47.4849C160.959 47.4602 160.922 47.4232 160.889 47.3739C160.856 47.3246 160.831 47.2711 160.815 47.2136C160.798 47.1478 160.786 47.0861 160.778 47.0286C160.769 46.971 160.765 46.9217 160.765 46.8806C160.765 46.8312 160.769 46.7778 160.778 46.7202C160.786 46.6627 160.798 46.6092 160.815 46.5599C161.053 46.5434 161.292 46.4818 161.53 46.3749C161.777 46.268 162.011 46.1652 162.233 46.0665C162.291 46.0419 162.336 46.0131 162.369 45.9802C162.41 45.9391 162.451 45.9062 162.492 45.8815C162.533 45.8486 162.578 45.8198 162.628 45.7952C162.677 45.7705 162.739 45.7582 162.813 45.7582H162.85C163.368 45.5197 163.873 45.2607 164.367 44.9812C164.868 44.7016 165.366 44.4179 165.859 44.1301C165.884 44.0561 165.921 43.9821 165.97 43.9081C166.028 43.8341 166.081 43.7642 166.131 43.6984C166.18 43.6244 166.225 43.5504 166.266 43.4764C166.307 43.4024 166.328 43.3284 166.328 43.2544C166.328 43.1064 166.258 42.9831 166.118 42.8844H166.069C165.97 42.8844 165.884 42.8721 165.81 42.8474C165.736 42.8145 165.666 42.7857 165.6 42.7611C165.534 42.7282 165.46 42.7035 165.378 42.6871C165.296 42.6624 165.201 42.6542 165.094 42.6624C165.053 42.6295 164.988 42.6007 164.897 42.5761C164.807 42.5514 164.733 42.5391 164.675 42.5391C164.379 42.5391 164.087 42.5596 163.799 42.6007C163.512 42.6336 163.224 42.6542 162.936 42.6624C162.862 42.7035 162.792 42.7405 162.726 42.7734C162.661 42.8063 162.582 42.8227 162.492 42.8227C162.451 42.8227 162.414 42.8227 162.381 42.8227C162.348 42.8145 162.311 42.8063 162.27 42.7981C162.114 42.8639 161.937 42.9214 161.74 42.9707C161.542 43.0119 161.345 43.0653 161.148 43.1311C160.959 43.1886 160.782 43.2626 160.617 43.3531C160.453 43.4435 160.325 43.5669 160.235 43.7231C160.235 43.7642 160.243 43.8012 160.26 43.8341C160.276 43.8588 160.284 43.8917 160.284 43.9328V43.9821C160.235 44.0314 160.202 44.089 160.186 44.1548C160.169 44.2123 160.157 44.274 160.149 44.3398C160.14 44.3974 160.128 44.459 160.112 44.5248C160.103 44.5824 160.075 44.6399 160.025 44.6975C160.058 44.8208 160.075 44.9565 160.075 45.1045C160.075 45.2689 160.062 45.4334 160.038 45.5978C160.021 45.7623 160.013 45.9267 160.013 46.0912C160.013 46.2474 160.029 46.3872 160.062 46.5105C160.013 46.5599 159.992 46.6339 160.001 46.7325C160.009 46.8312 159.988 46.9052 159.939 46.9546C159.939 47.0203 159.955 47.0656 159.988 47.0902C160.029 47.1149 160.054 47.156 160.062 47.2136C160.029 47.3533 160.013 47.5055 160.013 47.6699C160.013 47.9084 160.038 48.1509 160.087 48.3976C160.145 48.6443 160.21 48.8868 160.284 49.1253C160.416 49.0842 160.556 49.0513 160.704 49.0266C160.86 48.9937 161.008 48.9773 161.148 48.9773C161.172 48.9773 161.197 48.9814 161.222 48.9896C161.246 48.9896 161.271 48.9896 161.296 48.9896C161.312 49.0801 161.345 49.1623 161.394 49.2363C161.444 49.3103 161.489 49.3925 161.53 49.483C161.489 49.5405 161.452 49.5858 161.419 49.6187C161.394 49.6598 161.382 49.7132 161.382 49.779C161.267 49.7872 161.172 49.816 161.098 49.8653C161.024 49.9229 160.942 49.9846 160.852 50.0503H160.802C160.663 50.0503 160.547 50.075 160.457 50.1243C160.367 50.1819 160.264 50.2436 160.149 50.3093C160.05 50.2682 159.951 50.2477 159.853 50.2477C159.746 50.2477 159.639 50.2682 159.532 50.3093C159.4 50.2518 159.293 50.1613 159.211 50.038C159.129 49.9229 159.059 49.7913 159.002 49.6433C158.944 49.5035 158.891 49.3596 158.841 49.2116C158.8 49.0636 158.751 48.928 158.693 48.8046V48.6073C158.693 48.4182 158.677 48.2373 158.644 48.0646C158.619 47.8837 158.607 47.6987 158.607 47.5096C158.607 47.4356 158.611 47.3575 158.619 47.2752C158.636 47.193 158.66 47.1149 158.693 47.0409C158.677 46.9669 158.669 46.897 158.669 46.8312V46.5969C158.669 46.3502 158.677 46.1035 158.693 45.8568C158.718 45.6102 158.73 45.3635 158.73 45.1168C158.73 44.9359 158.718 44.7509 158.693 44.5618C158.652 44.5782 158.615 44.5947 158.582 44.6111C158.549 44.6276 158.512 44.6358 158.471 44.6358C158.43 44.6358 158.389 44.6317 158.348 44.6235C158.315 44.6152 158.282 44.607 158.249 44.5988C158.167 44.5248 158.109 44.4344 158.077 44.3275C158.044 44.2206 157.998 44.1219 157.941 44.0314C157.941 43.8752 157.966 43.7478 158.015 43.6491C158.056 43.5422 158.109 43.4476 158.175 43.3654C158.241 43.275 158.307 43.1886 158.373 43.1064C158.447 43.0242 158.508 42.9214 158.558 42.7981H158.607C158.738 42.7981 158.87 42.757 159.002 42.6747C159.133 42.5843 159.281 42.5391 159.446 42.5391C159.503 42.4651 159.581 42.4034 159.68 42.3541C159.779 42.2965 159.881 42.2513 159.988 42.2184C160.103 42.1855 160.214 42.1649 160.321 42.1567C160.436 42.1403 160.543 42.132 160.642 42.132C160.675 42.0745 160.724 42.0375 160.79 42.021C160.856 41.9964 160.922 41.9758 160.987 41.9594C161.061 41.9347 161.127 41.9141 161.185 41.8977C161.25 41.873 161.304 41.8319 161.345 41.7744C161.411 41.7908 161.472 41.799 161.53 41.799C161.637 41.799 161.74 41.7867 161.838 41.762C161.937 41.7291 162.036 41.6963 162.134 41.6634C162.233 41.6223 162.332 41.5852 162.43 41.5524C162.537 41.5195 162.648 41.503 162.763 41.503C162.805 41.503 162.846 41.5071 162.887 41.5154C162.928 41.5154 162.969 41.5154 163.01 41.5154C163.076 41.5154 163.113 41.4907 163.121 41.4414C163.138 41.392 163.166 41.355 163.207 41.3304C163.232 41.3386 163.277 41.3427 163.343 41.3427C163.508 41.3427 163.668 41.3304 163.824 41.3057C163.98 41.2728 164.141 41.2563 164.305 41.2563C164.379 41.2563 164.453 41.2605 164.527 41.2687C164.601 41.2769 164.675 41.2975 164.749 41.3304C164.766 41.3057 164.782 41.2851 164.798 41.2687C164.815 41.2522 164.827 41.2317 164.835 41.207C165.238 41.2317 165.617 41.3139 165.97 41.4537C166.332 41.5935 166.706 41.7168 167.093 41.8237C167.142 41.8977 167.199 41.9635 167.265 42.021L167.475 42.1937C167.549 42.2513 167.619 42.3088 167.685 42.3664C167.75 42.4239 167.808 42.4938 167.857 42.5761V42.7611Z" fill="#202020"/>
</g>
</g>
<path d="M274.348 15.9702H34.0403C31.626 15.9702 29.3101 16.9269 27.5997 18.6307L20.3667 25.836C18.6477 27.5484 17.6814 29.8749 17.6814 32.3014V128.333C17.6814 133.373 21.7672 137.459 26.8073 137.459H281.581C286.621 137.459 290.707 133.373 290.707 128.333V32.3014C290.707 29.8749 289.741 27.5484 288.022 25.836L280.789 18.6307C279.078 16.9269 276.763 15.9702 274.348 15.9702Z" stroke="#202020" stroke-width="0.855556"/>
<g clip-path="url(#clip7_285_63475)">
<path d="M88.6929 60.8872H219.307C232.931 60.8872 243.976 71.9321 243.976 85.5562V86.1265C243.976 99.7504 232.931 110.794 219.307 110.794H88.6929C75.0689 110.794 64.0241 99.7504 64.0239 86.1265V85.5562C64.0239 71.9321 75.0688 60.8872 88.6929 60.8872Z" stroke="#202020" stroke-width="0.855556"/>
<path d="M216.206 68.7803C225.499 68.7804 233.031 76.3138 233.031 85.6064C233.031 94.899 225.499 102.432 216.206 102.432C206.914 102.432 199.38 94.899 199.38 85.6064C199.38 76.3137 206.914 68.7803 216.206 68.7803ZM216.109 73.0576C214.385 73.0577 212.742 73.4052 211.246 74.0342L212.759 76.6543L210.038 78.2246L208.528 75.6074C205.904 77.6 204.088 80.6008 203.658 84.0332H206.685V87.1748H203.658C204.086 90.606 205.9 93.6053 208.522 95.5986L210.033 92.9805L212.754 94.5518L211.24 97.1738C212.737 97.8047 214.382 98.1543 216.109 98.1543C217.833 98.1542 219.476 97.8049 220.971 97.1758L219.46 94.5576L222.18 92.9873L223.69 95.6025C226.314 93.6093 228.131 90.6084 228.559 87.1748H225.533V84.0332H228.559C228.13 80.6026 226.315 77.6039 223.694 75.6113L222.185 78.2266L219.464 76.6562L220.976 74.0361C219.479 73.4059 217.834 73.0577 216.109 73.0576Z" fill="#202020"/>
<path d="M91.8298 68.7803C101.123 68.7803 108.656 76.3137 108.656 85.6064C108.656 94.899 101.122 102.432 91.8298 102.432C82.5373 102.432 75.0039 94.8989 75.0037 85.6064C75.0037 76.3138 82.5372 68.7804 91.8298 68.7803ZM91.7322 73.0576C90.008 73.0577 88.3643 73.4049 86.8689 74.0342L88.3826 76.6543L85.6619 78.2246L84.1501 75.6084C81.527 77.601 79.7111 80.6013 79.282 84.0332H82.3083V87.1748H79.282C79.7099 90.6056 81.5235 93.6053 84.1443 95.5986L85.657 92.9805L88.3777 94.5518L86.863 97.1738C88.3601 97.8048 90.0056 98.1542 91.7322 98.1543C93.4563 98.1543 95.0991 97.8049 96.5945 97.1758L95.0828 94.5576L97.8035 92.9873L99.3132 95.6025C101.938 93.6093 103.754 90.6085 104.182 87.1748H101.157V84.0332H104.182C103.753 80.6026 101.939 77.6039 99.3171 75.6113L97.8074 78.2266L95.0876 76.6562L96.5994 74.0361C95.1029 73.4059 93.4579 73.0576 91.7322 73.0576Z" fill="#202020"/>
</g>
<defs>
<clipPath id="clip0_285_63475">
<rect width="10.2667" height="10.2667" fill="white" transform="translate(148.776 149.569)"/>
</clipPath>
<clipPath id="clip1_285_63475">
<rect width="10.2667" height="10.2667" fill="white" transform="translate(7.69971 7.7002)"/>
</clipPath>
<clipPath id="clip2_285_63475">
<rect width="10.2667" height="10.2667" fill="white" transform="translate(7.69971 170.958)"/>
</clipPath>
<clipPath id="clip3_285_63475">
<rect width="10.2667" height="10.2667" fill="white" transform="translate(289.851 7.7002)"/>
</clipPath>
<clipPath id="clip4_285_63475">
<rect width="10.2667" height="10.2667" fill="white" transform="translate(289.851 170.958)"/>
</clipPath>
<clipPath id="clip5_285_63475">
<rect width="273.207" height="121.489" fill="white" transform="translate(17.6814 15.9702)"/>
</clipPath>
<clipPath id="clip6_285_63475">
<rect width="273.404" height="76.9647" fill="white" transform="matrix(1 0 0 -1 17.824 137.566)"/>
</clipPath>
<clipPath id="clip7_285_63475">
<rect x="63.5962" y="60.4595" width="180.807" height="50.763" rx="25.0963" fill="white"/>
</clipPath>
</defs>
</svg>
