<svg width="308" height="189" viewBox="0 0 308 189" fill="none" xmlns="http://www.w3.org/2000/svg">
<g opacity="0.8">
<mask id="path-1-outside-1_285_63472" maskUnits="userSpaceOnUse" x="-0.148438" y="-0.149414" width="309" height="189" fill="black">
<rect fill="white" x="-0.148438" y="-0.149414" width="309" height="189"/>
<path d="M294.589 0.850586C301.519 0.850764 307.137 6.46859 307.137 13.3984V175.382C307.137 182.312 301.519 187.93 294.589 187.93H13.3994C6.46959 187.93 0.85168 182.312 0.851562 175.382V13.3984C0.851672 6.4686 6.46959 0.850783 13.3994 0.850586H294.589ZM81.2734 167.516C76.8635 167.516 73.2883 171.09 73.2881 175.5C73.2881 179.91 76.8634 183.485 81.2734 183.485C85.6833 183.485 89.2578 179.91 89.2578 175.5C89.2576 171.09 85.6832 167.516 81.2734 167.516ZM226.823 167.516C222.413 167.516 218.838 171.09 218.838 175.5C218.838 179.91 222.413 183.485 226.823 183.485C231.233 183.485 234.809 179.91 234.809 175.5C234.808 171.09 231.233 167.516 226.823 167.516ZM106.939 167.516C105.994 167.516 105.229 168.282 105.229 169.227V176.641C105.229 177.586 105.994 178.353 106.939 178.353H114.354C115.299 178.353 116.065 177.586 116.065 176.641V169.227C116.065 168.282 115.299 167.516 114.354 167.516H106.939ZM193.742 167.516C192.797 167.516 192.031 168.282 192.031 169.227V176.641C192.031 177.586 192.797 178.353 193.742 178.353H201.157C202.102 178.352 202.868 177.585 202.868 176.641V169.227C202.868 168.282 202.102 167.516 201.157 167.516H193.742ZM91.8242 69.0088C82.5318 69.009 74.999 76.5425 74.999 85.835C74.9991 95.1273 82.5319 102.66 91.8242 102.66C101.117 102.66 108.65 95.1274 108.65 85.835C108.65 76.5424 101.117 69.0088 91.8242 69.0088ZM216.164 69.0088C206.871 69.0088 199.338 76.5424 199.338 85.835C199.338 95.1274 206.872 102.66 216.164 102.66C225.456 102.66 232.989 95.1273 232.989 85.835C232.989 76.5425 225.456 69.009 216.164 69.0088Z"/>
</mask>
<path d="M294.589 0.850586C301.519 0.850764 307.137 6.46859 307.137 13.3984V175.382C307.137 182.312 301.519 187.93 294.589 187.93H13.3994C6.46959 187.93 0.85168 182.312 0.851562 175.382V13.3984C0.851672 6.4686 6.46959 0.850783 13.3994 0.850586H294.589ZM81.2734 167.516C76.8635 167.516 73.2883 171.09 73.2881 175.5C73.2881 179.91 76.8634 183.485 81.2734 183.485C85.6833 183.485 89.2578 179.91 89.2578 175.5C89.2576 171.09 85.6832 167.516 81.2734 167.516ZM226.823 167.516C222.413 167.516 218.838 171.09 218.838 175.5C218.838 179.91 222.413 183.485 226.823 183.485C231.233 183.485 234.809 179.91 234.809 175.5C234.808 171.09 231.233 167.516 226.823 167.516ZM106.939 167.516C105.994 167.516 105.229 168.282 105.229 169.227V176.641C105.229 177.586 105.994 178.353 106.939 178.353H114.354C115.299 178.353 116.065 177.586 116.065 176.641V169.227C116.065 168.282 115.299 167.516 114.354 167.516H106.939ZM193.742 167.516C192.797 167.516 192.031 168.282 192.031 169.227V176.641C192.031 177.586 192.797 178.353 193.742 178.353H201.157C202.102 178.352 202.868 177.585 202.868 176.641V169.227C202.868 168.282 202.102 167.516 201.157 167.516H193.742ZM91.8242 69.0088C82.5318 69.009 74.999 76.5425 74.999 85.835C74.9991 95.1273 82.5319 102.66 91.8242 102.66C101.117 102.66 108.65 95.1274 108.65 85.835C108.65 76.5424 101.117 69.0088 91.8242 69.0088ZM216.164 69.0088C206.871 69.0088 199.338 76.5424 199.338 85.835C199.338 95.1274 206.872 102.66 216.164 102.66C225.456 102.66 232.989 95.1273 232.989 85.835C232.989 76.5425 225.456 69.009 216.164 69.0088Z" fill="#E2E2E2"/>
<path d="M294.589 0.850586L294.589 -0.00495797H294.589V0.850586ZM307.137 13.3984H307.992V13.3984L307.137 13.3984ZM307.137 175.382L307.992 175.382V175.382H307.137ZM294.589 187.93V188.785H294.589L294.589 187.93ZM13.3994 187.93L13.3994 188.785H13.3994V187.93ZM0.851562 175.382H-0.00398141V175.382L0.851562 175.382ZM0.851562 13.3984L-0.00398141 13.3984V13.3984H0.851562ZM13.3994 0.850586V-0.00495797H13.3994L13.3994 0.850586ZM81.2734 167.516L81.2735 166.66H81.2734V167.516ZM73.2881 175.5L72.4325 175.5V175.5H73.2881ZM81.2734 183.485V184.341H81.2735L81.2734 183.485ZM89.2578 175.5H90.1134V175.5L89.2578 175.5ZM226.823 167.516V166.66V167.516ZM218.838 175.5L217.982 175.5V175.5H218.838ZM226.823 183.485V184.341V183.485ZM234.809 175.5H235.664V175.5L234.809 175.5ZM201.157 178.353V179.208H201.157L201.157 178.353ZM201.157 167.516L201.157 166.66H201.157V167.516ZM91.8242 69.0088V68.1532H91.8242L91.8242 69.0088ZM74.999 85.835H74.1435V85.835L74.999 85.835ZM91.8242 102.66L91.8242 103.516H91.8242V102.66ZM108.65 85.835L109.506 85.835V85.835H108.65ZM216.164 69.0088L216.164 68.1532H216.164V69.0088ZM199.338 85.835H198.482V85.835L199.338 85.835ZM216.164 102.66V103.516H216.164L216.164 102.66ZM232.989 85.835L233.845 85.835V85.835H232.989ZM294.589 0.850586L294.589 1.70613C301.046 1.7063 306.281 6.94111 306.281 13.3985L307.137 13.3984L307.992 13.3984C307.992 5.99608 301.991 -0.0047676 294.589 -0.00495797L294.589 0.850586ZM307.137 13.3984H306.281V175.382H307.137H307.992V13.3984H307.137ZM307.137 175.382L306.281 175.382C306.281 181.839 301.046 187.074 294.589 187.074L294.589 187.93L294.589 188.785C301.991 188.785 307.992 182.784 307.992 175.382L307.137 175.382ZM294.589 187.93V187.074H13.3994V187.93V188.785H294.589V187.93ZM13.3994 187.93L13.3994 187.074C6.94209 187.074 1.70722 181.839 1.70711 175.382L0.851562 175.382L-0.00398141 175.382C-0.00385571 182.784 5.99709 188.785 13.3994 188.785L13.3994 187.93ZM0.851562 175.382H1.70711V13.3984H0.851562H-0.00398141V175.382H0.851562ZM0.851562 13.3984L1.70711 13.3985C1.70721 6.94111 6.94209 1.70631 13.3994 1.70613L13.3994 0.850586L13.3994 -0.00495797C5.9971 -0.00474739 -0.00386405 5.99608 -0.00398141 13.3984L0.851562 13.3984ZM13.3994 0.850586V1.70613H294.589V0.850586V-0.00495797H13.3994V0.850586ZM81.2734 167.516V166.66C76.3911 166.66 72.4327 170.618 72.4325 175.5L73.2881 175.5L74.1436 175.5C74.1438 171.563 77.3359 168.371 81.2734 168.371V167.516ZM73.2881 175.5H72.4325C72.4325 180.383 76.3909 184.341 81.2734 184.341V183.485V182.63C77.3359 182.63 74.1436 179.438 74.1436 175.5H73.2881ZM81.2734 183.485L81.2735 184.341C86.1559 184.341 90.1134 180.382 90.1134 175.5H89.2578H88.4023C88.4023 179.437 85.2107 182.63 81.2734 182.63L81.2734 183.485ZM89.2578 175.5L90.1134 175.5C90.1132 170.618 86.1557 166.66 81.2735 166.66L81.2734 167.516L81.2734 168.371C85.2107 168.371 88.4021 171.563 88.4023 175.5L89.2578 175.5ZM226.823 167.516V166.66C221.941 166.66 217.983 170.618 217.982 175.5L218.838 175.5L219.693 175.5C219.694 171.563 222.886 168.371 226.823 168.371V167.516ZM218.838 175.5H217.982C217.982 180.383 221.941 184.341 226.823 184.341V183.485V182.63C222.886 182.63 219.693 179.438 219.693 175.5H218.838ZM226.823 183.485V184.341C231.706 184.341 235.664 180.383 235.664 175.5H234.809H233.953C233.953 179.438 230.761 182.63 226.823 182.63V183.485ZM234.809 175.5L235.664 175.5C235.664 170.618 231.706 166.66 226.823 166.66V167.516V168.371C230.761 168.371 233.953 171.563 233.953 175.5L234.809 175.5ZM106.939 167.516V166.66C105.522 166.66 104.373 167.809 104.373 169.227H105.229H106.084C106.084 168.754 106.467 168.371 106.939 168.371V167.516ZM105.229 169.227H104.373V176.641H105.229H106.084V169.227H105.229ZM105.229 176.641H104.373C104.373 178.057 105.521 179.208 106.939 179.208V178.353V177.497C106.468 177.497 106.084 177.114 106.084 176.641H105.229ZM106.939 178.353V179.208H114.354V178.353V177.497H106.939V178.353ZM114.354 178.353V179.208C115.771 179.208 116.921 178.058 116.921 176.641H116.065H115.21C115.21 177.113 114.826 177.497 114.354 177.497V178.353ZM116.065 176.641H116.921V169.227H116.065H115.21V176.641H116.065ZM116.065 169.227H116.921C116.921 167.808 115.77 166.66 114.354 166.66V167.516V168.371C114.827 168.371 115.21 168.755 115.21 169.227H116.065ZM114.354 167.516V166.66H106.939V167.516V168.371H114.354V167.516ZM193.742 167.516V166.66C192.325 166.66 191.176 167.809 191.176 169.227H192.031H192.887C192.887 168.754 193.27 168.371 193.742 168.371V167.516ZM192.031 169.227H191.176V176.641H192.031H192.887V169.227H192.031ZM192.031 176.641H191.176C191.176 178.057 192.324 179.208 193.742 179.208V178.353V177.497C193.27 177.497 192.887 177.114 192.887 176.641H192.031ZM193.742 178.353V179.208H201.157V178.353V177.497H193.742V178.353ZM201.157 178.353L201.157 179.208C202.575 179.208 203.724 178.058 203.724 176.641H202.868H202.013C202.013 177.113 201.629 177.497 201.157 177.497L201.157 178.353ZM202.868 176.641H203.724V169.227H202.868H202.013V176.641H202.868ZM202.868 169.227H203.724C203.724 167.809 202.574 166.66 201.157 166.66L201.157 167.516L201.157 168.371C201.63 168.371 202.013 168.754 202.013 169.227H202.868ZM201.157 167.516V166.66H193.742V167.516V168.371H201.157V167.516ZM91.8242 69.0088L91.8242 68.1532C82.0593 68.1535 74.1435 76.0701 74.1435 85.835H74.999H75.8546C75.8546 77.015 83.0044 69.8646 91.8242 69.8643L91.8242 69.0088ZM74.999 85.835L74.1435 85.835C74.1436 95.5998 82.0594 103.515 91.8242 103.516L91.8242 102.66L91.8242 101.805C83.0044 101.804 75.8547 94.6548 75.8546 85.835L74.999 85.835ZM91.8242 102.66V103.516C101.589 103.516 109.506 95.6 109.506 85.835L108.65 85.835L107.795 85.835C107.795 94.6549 100.644 101.805 91.8242 101.805V102.66ZM108.65 85.835H109.506C109.506 76.0699 101.589 68.1532 91.8242 68.1532V69.0088V69.8643C100.644 69.8643 107.795 77.0149 107.795 85.835H108.65ZM216.164 69.0088V68.1532C206.399 68.1532 198.482 76.0699 198.482 85.835H199.338H200.193C200.193 77.0149 207.344 69.8643 216.164 69.8643V69.0088ZM199.338 85.835L198.482 85.835C198.482 95.6 206.399 103.516 216.164 103.516V102.66V101.805C207.344 101.805 200.194 94.6549 200.193 85.835L199.338 85.835ZM216.164 102.66L216.164 103.516C225.929 103.516 233.845 95.5998 233.845 85.835L232.989 85.835L232.134 85.835C232.134 94.6548 224.984 101.804 216.164 101.805L216.164 102.66ZM232.989 85.835H233.845C233.845 76.07 225.929 68.1534 216.164 68.1532L216.164 69.0088L216.164 69.8643C224.984 69.8645 232.134 77.015 232.134 85.835H232.989Z" fill="#202020" mask="url(#path-1-outside-1_285_63472)"/>
</g>
<path d="M91.5396 34.2168C120.047 34.2168 143.158 57.3272 143.158 85.835C143.158 114.343 120.047 137.452 91.5396 137.452C63.0319 137.452 39.9216 114.343 39.9214 85.835C39.9214 57.3272 63.0318 34.2168 91.5396 34.2168ZM91.8247 68.1533C82.0596 68.1533 74.1431 76.0699 74.1431 85.835C74.1432 95.5999 82.0597 103.516 91.8247 103.516C101.59 103.516 109.505 95.5999 109.505 85.835C109.505 76.07 101.59 68.1534 91.8247 68.1533Z" fill="#202020"/>
<path d="M215.878 64.4463C227.691 64.4463 237.267 74.0224 237.267 85.835C237.267 97.6475 227.691 107.224 215.878 107.224C204.066 107.224 194.49 97.6474 194.49 85.835C194.49 74.0224 204.066 64.4464 215.878 64.4463ZM216.163 68.1533C206.398 68.1534 198.482 76.0699 198.482 85.835C198.482 95.5999 206.398 103.516 216.163 103.516C225.928 103.516 233.845 95.5999 233.845 85.835C233.845 76.0699 225.928 68.1533 216.163 68.1533Z" fill="#202020"/>
<path d="M36.0714 77.85C33.0944 101.45 21.5095 157.661 24.5215 175.81M33.3622 183.224C53.1823 183.51 272.487 183.224 274.626 183.224M233.417 73.8574C243.514 88.8203 276.002 148.653 283.309 171.96" stroke="#202020" stroke-width="0.285181"/>
<path d="M33.1846 165.249C38.2245 165.249 42.3104 169.335 42.3105 174.375C42.3105 179.415 38.2246 183.501 33.1846 183.501C28.1445 183.501 24.0586 179.415 24.0586 174.375C24.0587 169.335 28.1446 165.249 33.1846 165.249ZM33.1846 170.534C31.0624 170.534 29.3418 172.255 29.3418 174.377C29.342 176.499 31.0625 178.219 33.1846 178.219C35.3066 178.219 37.0272 176.499 37.0273 174.377C37.0273 172.255 35.3067 170.534 33.1846 170.534Z" fill="#202020"/>
<path d="M274.448 165.249C279.488 165.249 283.574 169.335 283.574 174.375C283.574 179.415 279.488 183.501 274.448 183.501C269.408 183.501 265.322 179.415 265.322 174.375C265.322 169.335 269.408 165.249 274.448 165.249ZM274.448 170.534C272.326 170.534 270.606 172.255 270.606 174.377C270.606 176.499 272.326 178.219 274.448 178.219C276.57 178.219 278.291 176.499 278.291 174.377C278.291 172.255 276.57 170.534 274.448 170.534Z" fill="#202020"/>
<path d="M69.4036 146.151H240.861C244.836 146.151 248.305 148.846 249.288 152.698L258.39 188.358H49.9124L61.0959 152.274C62.2244 148.633 65.5918 146.151 69.4036 146.151Z" stroke="#202020" stroke-width="0.855544"/>
<circle cx="81.2729" cy="175.516" r="7.5573" stroke="#202020" stroke-width="0.855544"/>
<circle cx="226.823" cy="175.516" r="7.5573" stroke="#202020" stroke-width="0.855544"/>
<rect x="105.656" y="167.959" width="9.98134" height="9.98134" rx="1.28332" stroke="#202020" stroke-width="0.855544"/>
<path d="M148.576 178.368C148.576 177.423 149.342 176.657 150.287 176.657H157.701C158.646 176.657 159.413 177.423 159.413 178.368V183.501H148.576V178.368Z" fill="#202020"/>
<rect x="192.459" y="167.959" width="9.98134" height="9.98134" rx="1.28332" stroke="#202020" stroke-width="0.855544"/>
<g clip-path="url(#clip0_285_63472)">
<path d="M153.905 149.564C156.739 149.564 159.038 151.862 159.038 154.697C159.038 157.532 156.74 159.831 153.905 159.831C151.07 159.831 148.772 157.532 148.772 154.697C148.772 151.863 151.07 149.565 153.905 149.564ZM154.324 151.626C154.232 151.169 153.578 151.169 153.486 151.626L153.094 153.553C153.06 153.721 152.928 153.852 152.76 153.887L150.833 154.278C150.377 154.371 150.377 155.024 150.833 155.117L152.76 155.509C152.928 155.543 153.06 155.675 153.094 155.843L153.486 157.77C153.578 158.226 154.232 158.226 154.324 157.77L154.716 155.843C154.75 155.675 154.882 155.543 155.05 155.509L156.977 155.117C157.434 155.024 157.434 154.371 156.977 154.278L155.05 153.887C154.882 153.853 154.75 153.721 154.716 153.553L154.324 151.626Z" fill="#202020"/>
</g>
<g clip-path="url(#clip1_285_63472)">
<path d="M12.8284 7.69482C15.6632 7.69482 17.9619 9.99282 17.9622 12.8276C17.9622 15.6627 15.6634 17.9614 12.8284 17.9614C9.99355 17.9612 7.69556 15.6625 7.69556 12.8276C7.6958 9.99297 9.9937 7.69507 12.8284 7.69482ZM13.2483 9.75635C13.1554 9.29965 12.5023 9.29965 12.4094 9.75635L12.0178 11.6831C11.9836 11.8513 11.8521 11.9829 11.6838 12.0171L9.75708 12.4087C9.30038 12.5016 9.30038 13.1547 9.75708 13.2476L11.6838 13.6392C11.8521 13.6734 11.9836 13.8049 12.0178 13.9731L12.4094 15.8999C12.5023 16.3566 13.1554 16.3566 13.2483 15.8999L13.6399 13.9731C13.6741 13.8049 13.8056 13.6734 13.9739 13.6392L15.9006 13.2476C16.3573 13.1547 16.3573 12.5016 15.9006 12.4087L13.9739 12.0171C13.8056 11.9829 13.6741 11.8513 13.6399 11.6831L13.2483 9.75635Z" fill="#202020"/>
</g>
<g clip-path="url(#clip2_285_63472)">
<path d="M12.8284 170.953C15.6632 170.953 17.9619 173.251 17.9622 176.086C17.9622 178.921 15.6634 181.22 12.8284 181.22C9.99355 181.219 7.69556 178.921 7.69556 176.086C7.6958 173.251 9.9937 170.953 12.8284 170.953ZM13.2483 173.015C13.1554 172.558 12.5023 172.558 12.4094 173.015L12.0178 174.941C11.9836 175.11 11.8521 175.241 11.6838 175.275L9.75708 175.667C9.30038 175.76 9.30038 176.413 9.75708 176.506L11.6838 176.897C11.8521 176.932 11.9836 177.063 12.0178 177.231L12.4094 179.158C12.5023 179.615 13.1554 179.615 13.2483 179.158L13.6399 177.231C13.6741 177.063 13.8056 176.932 13.9739 176.897L15.9006 176.506C16.3573 176.413 16.3573 175.76 15.9006 175.667L13.9739 175.275C13.8056 175.241 13.6741 175.11 13.6399 174.941L13.2483 173.015Z" fill="#202020"/>
</g>
<g clip-path="url(#clip3_285_63472)">
<path d="M294.98 7.69482C297.815 7.69482 300.114 9.99282 300.114 12.8276C300.114 15.6627 297.815 17.9614 294.98 17.9614C292.146 17.9612 289.848 15.6625 289.848 12.8276C289.848 9.99297 292.146 7.69507 294.98 7.69482ZM295.4 9.75635C295.308 9.29965 294.654 9.29965 294.562 9.75635L294.17 11.6831C294.136 11.8513 294.004 11.9829 293.836 12.0171L291.909 12.4087C291.452 12.5016 291.452 13.1547 291.909 13.2476L293.836 13.6392C294.004 13.6734 294.136 13.8049 294.17 13.9731L294.562 15.8999C294.654 16.3566 295.308 16.3566 295.4 15.8999L295.792 13.9731C295.826 13.8049 295.958 13.6734 296.126 13.6392L298.053 13.2476C298.509 13.1547 298.509 12.5016 298.053 12.4087L296.126 12.0171C295.958 11.9829 295.826 11.8513 295.792 11.6831L295.4 9.75635Z" fill="#202020"/>
</g>
<g clip-path="url(#clip4_285_63472)">
<path d="M294.98 170.953C297.815 170.953 300.114 173.251 300.114 176.086C300.114 178.921 297.815 181.22 294.98 181.22C292.146 181.219 289.848 178.921 289.848 176.086C289.848 173.251 292.146 170.953 294.98 170.953ZM295.4 173.015C295.308 172.558 294.654 172.558 294.562 173.015L294.17 174.941C294.136 175.11 294.004 175.241 293.836 175.275L291.909 175.667C291.452 175.76 291.452 176.413 291.909 176.506L293.836 176.897C294.004 176.932 294.136 177.063 294.17 177.231L294.562 179.158C294.654 179.615 295.308 179.615 295.4 179.158L295.792 177.231C295.826 177.063 295.958 176.932 296.126 176.897L298.053 176.506C298.509 176.413 298.509 175.76 298.053 175.667L296.126 175.275C295.958 175.241 295.826 175.11 295.792 174.941L295.4 173.015Z" fill="#202020"/>
</g>
<mask id="mask0_285_63472" style="mask-type:alpha" maskUnits="userSpaceOnUse" x="17" y="15" width="274" height="123">
<path d="M34.0425 16.3931H274.516C276.816 16.3932 279.022 17.3046 280.652 18.9272L287.892 26.1333C289.532 27.7656 290.453 29.9847 290.453 32.2983V128.327C290.453 133.13 286.559 137.025 281.755 137.025H26.8032C21.9994 137.025 18.105 133.13 18.105 128.327V32.2983C18.105 29.9847 19.0268 27.7656 20.6665 26.1333L27.9058 18.9272C29.5358 17.3045 31.7424 16.3931 34.0425 16.3931ZM88.687 60.0259C74.5909 60.0261 63.1637 71.4532 63.1636 85.5493V86.1196C63.1636 100.216 74.5908 111.644 88.687 111.644H219.3C233.397 111.644 244.824 100.216 244.824 86.1196V85.5493C244.824 71.4531 233.397 60.0259 219.3 60.0259H88.687Z" fill="#EDA35F" stroke="#202020" stroke-width="0.855544"/>
</mask>
<g mask="url(#mask0_285_63472)">
<g clip-path="url(#clip5_285_63472)">
<rect width="273.204" height="121.487" transform="translate(17.6772 15.9653)" fill="#FCF7F2"/>
<g clip-path="url(#clip6_285_63472)">
<rect width="273.489" height="13.6824" transform="matrix(1 0 0 -1 17.8198 137.56)" fill="#FF0054"/>
<rect width="273.489" height="9.40666" transform="matrix(1 0 0 -1 17.8198 120.457)" fill="#FF0054"/>
<rect width="273.489" height="1.7103" transform="matrix(1 0 0 -1 17.8198 70.0029)" fill="#FF0054"/>
<rect width="273.489" height="0.855152" transform="matrix(1 0 0 -1 17.8198 61.4517)" fill="#FF0054"/>
<rect width="273.489" height="6.84121" transform="matrix(1 0 0 -1 17.8198 107.629)" fill="#FF0054"/>
<rect width="273.489" height="3.4206" transform="matrix(1 0 0 -1 17.8198 87.106)" fill="#FF0054"/>
<rect width="273.489" height="5.13091" transform="matrix(1 0 0 -1 17.8198 96.5127)" fill="#FF0054"/>
<rect width="273.489" height="2.56545" transform="matrix(1 0 0 -1 17.8198 78.5547)" fill="#FF0054"/>
</g>
<path d="M133.496 41.0043C133.496 41.473 133.435 41.9047 133.311 42.2993C133.188 42.694 133.028 43.0723 132.83 43.4341C132.641 43.7958 132.436 44.1535 132.214 44.5071C131.992 44.8607 131.782 45.2348 131.585 45.6295C131.535 45.6295 131.498 45.6418 131.474 45.6665C131.457 45.6911 131.441 45.724 131.424 45.7651C131.416 45.798 131.4 45.8309 131.375 45.8638C131.359 45.8885 131.326 45.9008 131.276 45.9008C131.202 46.0817 131.108 46.2544 130.993 46.4188C130.877 46.5751 130.754 46.7313 130.623 46.8875C130.499 47.0355 130.376 47.1876 130.253 47.3439C130.137 47.5001 130.035 47.6687 129.944 47.8496H129.821C129.377 48.4909 128.875 49.0665 128.316 49.5763C127.765 50.0861 127.161 50.5424 126.503 50.9453C126.487 50.9947 126.462 51.0358 126.429 51.0687C126.396 51.1016 126.388 51.1468 126.404 51.2043C126.314 51.2537 126.236 51.3153 126.17 51.3893C126.113 51.4716 126.055 51.5538 125.997 51.636C125.94 51.7182 125.878 51.7964 125.812 51.8704C125.755 51.9526 125.677 52.0143 125.578 52.0554C125.455 52.0307 125.336 52.0101 125.22 51.9937C125.114 51.9773 125.003 51.9649 124.887 51.9567C124.838 51.9567 124.789 51.9567 124.739 51.9567C124.69 51.9649 124.645 51.9649 124.604 51.9567C124.513 51.9403 124.435 51.9033 124.369 51.8457C124.312 51.7964 124.225 51.7717 124.11 51.7717C124.053 51.7717 124.008 51.7758 123.975 51.784C123.909 51.6689 123.831 51.5497 123.74 51.4263C123.658 51.3112 123.617 51.1838 123.617 51.044C123.617 50.9371 123.629 50.8384 123.654 50.748C123.687 50.6575 123.703 50.563 123.703 50.4643C123.703 50.267 123.666 50.0737 123.592 49.8846C123.527 49.6955 123.494 49.5023 123.494 49.3049C123.494 49.2392 123.502 49.1775 123.518 49.1199C123.535 49.0541 123.543 48.9884 123.543 48.9226C123.543 48.8486 123.51 48.7828 123.444 48.7252C123.453 48.6841 123.469 48.643 123.494 48.6019C123.518 48.5608 123.531 48.5156 123.531 48.4662C123.547 48.4005 123.551 48.3306 123.543 48.2566C123.535 48.1743 123.531 48.1003 123.531 48.0346C123.531 47.8619 123.539 47.6892 123.555 47.5165C123.572 47.3439 123.609 47.1753 123.666 47.0109C123.658 46.9615 123.646 46.9163 123.629 46.8752L123.58 46.7518C123.638 46.5792 123.675 46.3859 123.691 46.1722C123.707 45.9584 123.716 45.7446 123.716 45.5308V44.8771C123.716 44.6633 123.728 44.4619 123.753 44.2728C123.769 44.1905 123.786 44.1124 123.802 44.0384C123.827 43.9562 123.839 43.8781 123.839 43.8041C123.839 43.7383 123.827 43.6807 123.802 43.6314C123.777 43.5738 123.744 43.5204 123.703 43.4711C123.761 43.4546 123.794 43.4217 123.802 43.3724C123.81 43.3148 123.814 43.2655 123.814 43.2244C123.814 43.1093 123.794 42.9818 123.753 42.842C123.786 42.7023 123.806 42.5625 123.814 42.4227C123.823 42.2747 123.827 42.1308 123.827 41.991C123.827 41.4977 123.794 41.0125 123.728 40.5356C123.67 40.0587 123.633 39.5777 123.617 39.0926H123.58C123.522 39.0926 123.477 39.1049 123.444 39.1296C123.411 39.1542 123.379 39.183 123.346 39.2159C123.313 39.2406 123.276 39.2652 123.235 39.2899C123.194 39.3064 123.144 39.3105 123.087 39.3022C122.988 39.4174 122.873 39.516 122.741 39.5982C122.618 39.6805 122.486 39.7545 122.347 39.8203C122.207 39.886 122.063 39.9477 121.915 40.0053C121.767 40.0546 121.627 40.1039 121.496 40.1533C121.38 40.1122 121.282 40.0464 121.2 39.9559C121.117 39.8573 121.039 39.7586 120.965 39.6599C120.957 39.627 120.953 39.5941 120.953 39.5612V39.4626C120.953 39.2323 121.006 39.0597 121.113 38.9446C121.22 38.8212 121.335 38.6773 121.459 38.5129H121.52C121.561 38.5129 121.598 38.5211 121.631 38.5375C121.656 38.554 121.689 38.5622 121.73 38.5622H121.767C122.005 38.3649 122.256 38.2086 122.519 38.0935C122.791 37.9702 123.07 37.8756 123.358 37.8099C123.481 37.6865 123.605 37.592 123.728 37.5262C123.86 37.4604 124.012 37.4275 124.184 37.4275C124.225 37.4275 124.271 37.4316 124.32 37.4398C124.378 37.4398 124.427 37.4439 124.468 37.4522C124.805 37.2959 125.122 37.1644 125.418 37.0575C125.722 36.9424 126.071 36.8848 126.466 36.8848C126.515 36.8848 126.548 36.8725 126.565 36.8478C126.589 36.8231 126.61 36.7985 126.626 36.7738C126.643 36.7409 126.659 36.7121 126.676 36.6875C126.692 36.6628 126.721 36.6505 126.762 36.6505C126.762 36.6669 126.766 36.6916 126.774 36.7245C126.783 36.7574 126.803 36.7738 126.836 36.7738C126.869 36.7738 126.898 36.7656 126.922 36.7491C126.955 36.7245 126.992 36.7121 127.033 36.7121C127.075 36.7121 127.103 36.7409 127.12 36.7985C127.21 36.7409 127.297 36.6875 127.379 36.6381C127.461 36.5888 127.551 36.5518 127.65 36.5271C127.773 36.5518 127.897 36.5724 128.02 36.5888C128.152 36.6053 128.283 36.6135 128.415 36.6135C128.514 36.6135 128.612 36.6094 128.711 36.6011C128.81 36.5847 128.896 36.5436 128.97 36.4778C129.003 36.4696 129.019 36.486 129.019 36.5271C129.093 36.5929 129.171 36.6381 129.254 36.6628C129.336 36.6793 129.422 36.6916 129.513 36.6998C129.603 36.6998 129.693 36.7039 129.784 36.7121C129.874 36.7204 129.957 36.7491 130.031 36.7985C130.096 36.8149 130.15 36.8437 130.191 36.8848C130.232 36.9177 130.285 36.9465 130.351 36.9712C130.401 36.9876 130.466 36.9999 130.549 37.0082C130.639 37.0164 130.705 37.0328 130.746 37.0575C130.787 37.0739 130.808 37.1027 130.808 37.1438C130.816 37.1767 130.84 37.2055 130.882 37.2302C130.956 37.2877 131.054 37.3247 131.178 37.3412C131.301 37.3494 131.408 37.3864 131.498 37.4522C131.531 37.6331 131.622 37.7523 131.77 37.8099C131.918 37.8674 132.062 37.925 132.201 37.9825C132.251 38.0319 132.267 38.0894 132.251 38.1552C132.349 38.2292 132.436 38.3114 132.51 38.4019C132.592 38.4923 132.666 38.591 132.732 38.6979C132.806 38.7966 132.876 38.8952 132.941 38.9939C133.007 39.0926 133.085 39.183 133.176 39.2652C133.167 39.3392 133.176 39.3968 133.2 39.4379C133.233 39.479 133.241 39.5407 133.225 39.6229C133.324 39.7134 133.414 39.8326 133.496 39.9806C133.447 40.0546 133.422 40.1368 133.422 40.2273C133.422 40.3095 133.435 40.3917 133.459 40.4739C133.484 40.5562 133.496 40.6384 133.496 40.7206V41.0043ZM132.349 40.733C132.349 40.4945 132.304 40.2643 132.214 40.0423C132.123 39.812 132.045 39.5859 131.979 39.3639C131.872 39.3639 131.803 39.3269 131.77 39.2529C131.745 39.1707 131.696 39.1008 131.622 39.0432C131.465 39.0103 131.367 38.8911 131.326 38.6856C131.161 38.6198 130.993 38.5458 130.82 38.4635C130.647 38.3813 130.503 38.2662 130.388 38.1182C130.092 38.0277 129.792 37.9373 129.488 37.8469C129.192 37.7482 128.888 37.6988 128.575 37.6988C128.518 37.6988 128.464 37.703 128.415 37.7112C128.374 37.7112 128.333 37.7112 128.292 37.7112C128.226 37.7112 128.156 37.7235 128.082 37.7482C128.008 37.7729 127.938 37.7852 127.872 37.7852C127.798 37.7852 127.724 37.7605 127.65 37.7112C127.486 37.8016 127.305 37.8715 127.107 37.9209C126.918 37.9702 126.725 38.0154 126.528 38.0565C126.33 38.0894 126.137 38.1346 125.948 38.1922C125.759 38.2415 125.59 38.3196 125.442 38.4265C125.393 38.4101 125.344 38.3978 125.294 38.3895C125.253 38.3813 125.212 38.3772 125.171 38.3772C125.097 38.3772 125.04 38.3937 124.998 38.4265C124.974 38.443 124.957 38.4635 124.949 38.4882C124.949 38.5129 124.945 38.5417 124.937 38.5745C124.937 38.5992 124.929 38.6198 124.912 38.6362C124.896 38.6527 124.863 38.6568 124.813 38.6485C124.813 38.6897 124.809 38.7267 124.801 38.7596C124.801 38.7924 124.801 38.8294 124.801 38.8706C124.801 39.0843 124.822 39.2981 124.863 39.5119C124.912 39.7175 124.937 39.9272 124.937 40.1409C124.937 40.2149 124.933 40.2931 124.924 40.3753C124.916 40.4493 124.9 40.5233 124.875 40.5973C124.916 40.696 124.937 40.8028 124.937 40.918C124.945 41.0331 124.949 41.1482 124.949 41.2633C124.949 41.3784 124.953 41.4935 124.961 41.6087C124.97 41.7155 124.998 41.8183 125.048 41.917C125.023 42.0403 125.007 42.1637 124.998 42.287C124.99 42.4104 124.986 42.5337 124.986 42.657C124.986 42.9448 124.998 43.2285 125.023 43.5081C125.056 43.7876 125.072 44.0713 125.072 44.3591C125.072 44.4331 125.068 44.5112 125.06 44.5934C125.06 44.6757 125.056 44.7579 125.048 44.8401C125.031 44.947 125.003 45.0498 124.961 45.1485C124.92 45.2471 124.9 45.354 124.9 45.4691C124.9 45.5431 124.904 45.6212 124.912 45.7035C124.92 45.7775 124.924 45.8556 124.924 45.9378C124.924 45.9707 124.92 46.0036 124.912 46.0365C124.912 46.0612 124.912 46.0899 124.912 46.1228C124.871 46.4106 124.838 46.7025 124.813 46.9985C124.789 47.2945 124.776 47.5864 124.776 47.8742C124.776 48.1456 124.785 48.4169 124.801 48.6882C124.817 48.9514 124.842 49.2186 124.875 49.4899C124.842 49.5475 124.826 49.6133 124.826 49.6873C124.826 49.8024 124.854 49.9175 124.912 50.0326C124.97 50.156 125.056 50.2382 125.171 50.2793C125.434 50.1806 125.677 50.0491 125.899 49.8846C126.129 49.7284 126.359 49.5681 126.589 49.4036C126.647 49.3625 126.733 49.309 126.848 49.2433C126.964 49.1693 127.042 49.1158 127.083 49.0829C127.124 49.05 127.157 49.0171 127.181 48.9843C127.214 48.9431 127.251 48.902 127.292 48.8609L127.835 48.2812C128.148 47.9606 128.456 47.6358 128.76 47.3069C129.073 46.978 129.36 46.6285 129.624 46.2585C129.698 46.1434 129.772 46.0324 129.846 45.9255C129.92 45.8104 129.989 45.6911 130.055 45.5678C130.088 45.5267 130.113 45.4815 130.129 45.4321C130.146 45.3746 130.174 45.3252 130.216 45.2841C130.24 45.2512 130.269 45.2183 130.302 45.1855C130.343 45.1526 130.376 45.1197 130.401 45.0868C130.466 45.0128 130.528 44.9388 130.586 44.8648C130.651 44.7825 130.717 44.6962 130.783 44.6058C130.964 44.3426 131.132 44.0795 131.289 43.8164C131.445 43.5451 131.618 43.2778 131.807 43.0147C131.823 42.8503 131.856 42.6981 131.905 42.5584C131.955 42.4104 132.004 42.2706 132.053 42.139C132.103 41.9992 132.144 41.8553 132.177 41.7073C132.21 41.5593 132.218 41.3949 132.201 41.214C132.242 41.1564 132.275 41.1153 132.3 41.0906C132.333 41.066 132.349 41.0166 132.349 40.9426V40.733ZM147.014 36.1325C147.014 36.2065 147.01 36.2805 147.002 36.3545C147.002 36.4285 146.998 36.4984 146.99 36.5641C146.965 36.6053 146.916 36.6217 146.842 36.6135C146.776 36.6053 146.722 36.6011 146.681 36.6011C146.64 36.6011 146.603 36.6094 146.57 36.6258C146.546 36.634 146.533 36.6587 146.533 36.6998C146.533 36.7491 146.537 36.782 146.546 36.7985C146.48 36.7903 146.41 36.782 146.336 36.7738C146.262 36.7656 146.196 36.7409 146.138 36.6998C146.023 36.7245 145.912 36.7574 145.805 36.7985C145.707 36.8396 145.608 36.8848 145.509 36.9342C145.411 36.9835 145.308 37.0287 145.201 37.0698C145.094 37.1109 144.983 37.1356 144.868 37.1438C144.794 37.2261 144.7 37.2877 144.584 37.3288C144.469 37.3699 144.35 37.4069 144.227 37.4398C144.103 37.4727 143.988 37.5138 143.881 37.5632C143.775 37.6043 143.688 37.6701 143.622 37.7605C143.442 37.777 143.269 37.8222 143.104 37.8962C142.94 37.9702 142.775 38.0483 142.611 38.1305C142.455 38.2128 142.294 38.2909 142.13 38.3649C141.966 38.4389 141.789 38.4882 141.6 38.5129C141.55 38.5622 141.489 38.6033 141.415 38.6362C141.349 38.6691 141.279 38.702 141.205 38.7349C141.131 38.7596 141.061 38.7883 140.995 38.8212C140.93 38.8541 140.876 38.8993 140.835 38.9569H140.81C140.777 38.9569 140.753 38.9487 140.736 38.9322C140.72 38.9158 140.695 38.9076 140.662 38.9076C140.638 38.9076 140.621 38.9117 140.613 38.9199C140.416 39.0103 140.218 39.1049 140.021 39.2036C139.824 39.3022 139.618 39.3968 139.404 39.4872C138.985 39.6599 138.561 39.8285 138.134 39.9929C137.706 40.1574 137.295 40.3588 136.9 40.5973C136.81 40.9262 136.736 41.2633 136.678 41.6087C136.621 41.9458 136.518 42.2706 136.37 42.583V43.1627C136.288 43.3189 136.234 43.4916 136.21 43.6807C136.185 43.8698 136.173 44.0507 136.173 44.2234C136.173 44.2892 136.173 44.3509 136.173 44.4084C136.181 44.4578 136.185 44.5112 136.185 44.5688C136.424 44.503 136.654 44.429 136.876 44.3468C137.106 44.2645 137.336 44.1905 137.567 44.1247C137.682 44.0836 137.797 44.0549 137.912 44.0384C138.035 44.022 138.154 43.9932 138.27 43.9521C138.36 43.9274 138.455 43.8945 138.553 43.8534C138.652 43.8041 138.746 43.7588 138.837 43.7177C139.084 43.6108 139.334 43.5163 139.589 43.4341C139.852 43.3518 140.12 43.2902 140.391 43.249C140.473 43.1833 140.564 43.1216 140.662 43.064C140.761 43.0065 140.86 42.9777 140.958 42.9777C141.032 42.9777 141.094 42.99 141.143 43.0147C141.283 42.9325 141.448 42.8585 141.637 42.7927C141.826 42.7269 142.003 42.7023 142.167 42.7187C142.208 42.6611 142.257 42.6241 142.315 42.6077C142.373 42.583 142.434 42.5707 142.5 42.5707C142.533 42.5707 142.562 42.5748 142.586 42.583C142.619 42.583 142.656 42.583 142.697 42.583C142.78 42.5255 142.87 42.4844 142.969 42.4597C143.067 42.435 143.166 42.4145 143.265 42.398C143.363 42.3816 143.458 42.361 143.548 42.3363C143.647 42.3035 143.733 42.2541 143.807 42.1883C143.923 42.1966 144.013 42.2295 144.079 42.287C144.153 42.3446 144.214 42.4145 144.264 42.4967C144.313 42.5789 144.354 42.6653 144.387 42.7557C144.42 42.8461 144.461 42.9325 144.51 43.0147C144.494 43.0805 144.469 43.1339 144.436 43.175C144.404 43.2079 144.367 43.2408 144.325 43.2737C144.284 43.3066 144.247 43.3395 144.214 43.3724C144.182 43.4053 144.161 43.4505 144.153 43.5081C143.865 43.5081 143.585 43.5492 143.314 43.6314C143.051 43.7136 142.788 43.8082 142.525 43.9151C142.27 44.022 142.007 44.1247 141.735 44.2234C141.472 44.3139 141.201 44.3714 140.921 44.3961C140.88 44.4372 140.827 44.4701 140.761 44.4948L140.576 44.5564C140.518 44.5729 140.465 44.5975 140.416 44.6304C140.366 44.6551 140.329 44.6962 140.305 44.7538C140.255 44.7291 140.202 44.7168 140.144 44.7168C140.004 44.7168 139.869 44.7538 139.737 44.8278C139.606 44.9018 139.458 44.9388 139.293 44.9388C139.227 44.9388 139.182 44.9347 139.158 44.9264C139.116 45.0004 139.055 45.0539 138.973 45.0868C138.899 45.1197 138.816 45.1485 138.726 45.1731C138.644 45.1896 138.561 45.2142 138.479 45.2471C138.405 45.28 138.348 45.3376 138.307 45.4198C138.282 45.4116 138.253 45.4075 138.22 45.4075H138.146C138.015 45.4075 137.863 45.4321 137.69 45.4815C137.525 45.5226 137.406 45.6048 137.332 45.7281C137.266 45.7117 137.209 45.7035 137.16 45.7035C137.044 45.7035 136.942 45.7281 136.851 45.7775C136.761 45.8186 136.67 45.8679 136.58 45.9255L136.308 46.0982C136.218 46.1557 136.119 46.1968 136.012 46.2215C135.799 46.5257 135.651 46.8752 135.568 47.2699C135.486 47.6645 135.425 48.0757 135.383 48.5032C135.351 48.9308 135.318 49.3543 135.285 49.7736C135.252 50.2012 135.186 50.5918 135.087 50.9453C135.137 51.0769 135.174 51.2167 135.198 51.3647C135.223 51.5127 135.244 51.6607 135.26 51.8087C135.277 51.9649 135.293 52.1212 135.309 52.2774C135.326 52.4336 135.355 52.5816 135.396 52.7214C135.437 52.8941 135.515 53.0462 135.63 53.1777C135.753 53.3175 135.84 53.4738 135.889 53.6464C135.93 53.6547 135.971 53.6588 136.012 53.6588C136.062 53.667 136.111 53.6711 136.16 53.6711C136.456 53.6711 136.715 53.6135 136.937 53.4984C137.168 53.3833 137.382 53.2394 137.579 53.0667C137.776 52.9023 137.965 52.7214 138.146 52.5241C138.335 52.3349 138.537 52.1664 138.751 52.0184H138.985C139.042 51.9526 139.092 51.8827 139.133 51.8087C139.174 51.7347 139.219 51.6648 139.269 51.599C139.318 51.5332 139.375 51.4757 139.441 51.4263C139.507 51.3852 139.589 51.3565 139.688 51.34C139.713 51.2167 139.77 51.1221 139.861 51.0563C139.951 50.9906 140.013 50.8919 140.046 50.7603C140.062 50.7685 140.083 50.7727 140.107 50.7727C140.173 50.7727 140.222 50.7562 140.255 50.7233L140.44 50.5506C140.506 50.4849 140.576 50.4191 140.65 50.3533C140.732 50.2958 140.81 50.2382 140.884 50.1806C141.123 50.008 141.361 49.8353 141.6 49.6626C141.838 49.4982 142.056 49.3049 142.253 49.0829C142.262 49.0912 142.274 49.0953 142.29 49.0953C142.356 49.0953 142.401 49.0747 142.426 49.0336C142.451 48.9925 142.508 48.9801 142.599 48.9966C142.648 48.9226 142.693 48.8486 142.734 48.7746C142.775 48.6924 142.808 48.606 142.833 48.5156L143.228 48.5649C143.359 48.5814 143.491 48.5896 143.622 48.5896C143.664 48.5896 143.701 48.5896 143.733 48.5896C143.775 48.5814 143.812 48.569 143.844 48.5526C143.943 48.7088 143.997 48.8774 144.005 49.0583C144.013 49.2309 144.034 49.4036 144.066 49.5763C144.05 49.5763 144.038 49.5763 144.029 49.5763C144.029 49.5681 144.021 49.5639 144.005 49.5639C143.964 49.5639 143.923 49.5804 143.881 49.6133C143.849 49.6379 143.812 49.6708 143.77 49.712L143.647 49.8353C143.606 49.8764 143.569 49.9093 143.536 49.934C143.446 49.9915 143.351 50.0409 143.252 50.082C143.154 50.1313 143.059 50.1806 142.969 50.23C142.878 50.2793 142.792 50.3369 142.71 50.4026C142.627 50.4766 142.562 50.5671 142.512 50.674C142.348 50.7398 142.188 50.8097 142.031 50.8837C141.883 50.9577 141.739 51.0358 141.6 51.118C141.559 51.1591 141.522 51.2002 141.489 51.2413C141.456 51.2825 141.431 51.3277 141.415 51.377C141.193 51.451 141.008 51.562 140.86 51.71C140.72 51.858 140.576 52.0184 140.428 52.191L140.416 52.1787C140.358 52.1787 140.321 52.1993 140.305 52.2404C140.296 52.2815 140.251 52.2938 140.169 52.2774C140.013 52.4501 139.848 52.6104 139.676 52.7584C139.503 52.9064 139.326 53.0544 139.145 53.2024C138.964 53.3504 138.783 53.4984 138.603 53.6464C138.422 53.8027 138.253 53.9671 138.097 54.1398C137.99 54.1727 137.887 54.2138 137.789 54.2631C137.69 54.3125 137.616 54.3865 137.567 54.4851H137.53C137.439 54.4851 137.373 54.5057 137.332 54.5468C137.299 54.5879 137.258 54.6414 137.209 54.7071C137.036 54.7482 136.859 54.7935 136.678 54.8428C136.498 54.8921 136.313 54.9168 136.123 54.9168C135.992 54.9168 135.864 54.8921 135.741 54.8428C135.626 54.7935 135.511 54.7277 135.396 54.6455C135.289 54.5715 135.186 54.4892 135.087 54.3988C134.997 54.3083 134.911 54.222 134.828 54.1398C134.779 53.9753 134.713 53.8027 134.631 53.6218C134.557 53.4491 134.52 53.2805 134.52 53.1161C134.52 53.075 134.524 53.0339 134.532 52.9927C134.549 52.9598 134.557 52.927 134.557 52.8941C134.557 52.8365 134.537 52.8118 134.495 52.8201C134.463 52.8283 134.438 52.8077 134.421 52.7584C134.405 52.6762 134.393 52.5816 134.384 52.4747C134.384 52.376 134.376 52.2815 134.36 52.191C134.335 52.0019 134.302 51.8087 134.261 51.6114C134.228 51.414 134.191 51.2208 134.15 51.0317C134.183 51.0152 134.208 50.9864 134.224 50.9453C134.249 50.9124 134.273 50.8795 134.298 50.8467C134.273 50.7809 134.249 50.7069 134.224 50.6247C134.208 50.5506 134.199 50.4725 134.199 50.3903C134.199 50.2259 134.261 50.1025 134.384 50.0203C134.384 49.9627 134.368 49.9175 134.335 49.8846C134.31 49.86 134.298 49.8147 134.298 49.749C134.298 49.7325 134.302 49.6873 134.31 49.6133C134.327 49.5311 134.343 49.4406 134.36 49.3419C134.384 49.2433 134.405 49.1487 134.421 49.0583C134.438 48.9678 134.45 48.9061 134.458 48.8733C134.516 48.495 134.565 48.125 134.606 47.7632C134.648 47.3932 134.705 47.0232 134.779 46.6532C134.697 46.5874 134.59 46.5381 134.458 46.5052C134.335 46.4641 134.249 46.4106 134.199 46.3448C134.158 46.2873 134.125 46.2133 134.101 46.1228C134.076 46.0324 134.064 45.9543 134.064 45.8885C134.064 45.65 134.158 45.4609 134.347 45.3211C134.537 45.1731 134.738 45.0868 134.952 45.0621C135.059 44.7743 135.137 44.4824 135.186 44.1864C135.244 43.8822 135.289 43.578 135.322 43.2737L135.42 42.3487C135.453 42.0362 135.503 41.7279 135.568 41.4236H135.494C135.33 41.4236 135.17 41.4483 135.013 41.4977C134.857 41.547 134.697 41.5717 134.532 41.5717H134.508C134.269 41.3825 134.15 41.1564 134.15 40.8933C134.15 40.7371 134.183 40.5808 134.249 40.4246C134.38 40.3753 134.5 40.3095 134.606 40.2273C134.713 40.145 134.82 40.0628 134.927 39.9806C135.042 39.8901 135.157 39.812 135.272 39.7463C135.388 39.6805 135.515 39.6394 135.655 39.6229C135.671 39.3845 135.712 39.146 135.778 38.9076C135.844 38.6691 135.877 38.4307 135.877 38.1922C135.877 38.1429 135.873 38.0935 135.864 38.0442C135.864 37.9949 135.856 37.9455 135.84 37.8962C135.897 37.8222 135.934 37.7441 135.951 37.6618C135.975 37.5796 135.988 37.4933 135.988 37.4028C135.988 37.3042 135.98 37.2096 135.963 37.1192C135.955 37.0205 135.943 36.9259 135.926 36.8355C136 36.8026 136.058 36.7697 136.099 36.7368C136.14 36.6957 136.177 36.6587 136.21 36.6258C136.251 36.5929 136.3 36.5641 136.358 36.5395C136.415 36.5148 136.498 36.5025 136.604 36.5025C136.761 36.5025 136.892 36.5354 136.999 36.6011C137.114 36.6587 137.213 36.7368 137.295 36.8355C137.377 36.9342 137.447 37.0452 137.505 37.1685C137.571 37.2918 137.632 37.4152 137.69 37.5385C137.673 37.629 137.636 37.6947 137.579 37.7358C137.521 37.777 137.472 37.8304 137.431 37.8962C137.447 38.0277 137.464 38.1552 137.48 38.2785C137.497 38.3937 137.497 38.517 137.48 38.6485C137.562 38.6897 137.641 38.7102 137.715 38.7102C137.838 38.7102 137.949 38.6773 138.048 38.6115C138.154 38.5458 138.228 38.4553 138.27 38.3402H138.294C138.319 38.3402 138.339 38.3484 138.356 38.3649C138.381 38.3813 138.409 38.3895 138.442 38.3895H138.492C138.582 38.3073 138.681 38.2456 138.788 38.2045C138.894 38.1552 139.005 38.11 139.121 38.0689C139.236 38.0277 139.347 37.9866 139.454 37.9455C139.569 37.8962 139.676 37.8345 139.774 37.7605C139.824 37.7852 139.877 37.7975 139.935 37.7975C140.017 37.7975 140.095 37.7811 140.169 37.7482C140.251 37.7153 140.329 37.6824 140.403 37.6495C140.477 37.6084 140.555 37.5714 140.638 37.5385C140.728 37.5056 140.823 37.4892 140.921 37.4892C140.938 37.4892 140.958 37.4933 140.983 37.5015C141.008 37.5015 141.028 37.5015 141.045 37.5015C141.102 37.5015 141.135 37.481 141.143 37.4398C141.152 37.3987 141.152 37.3617 141.143 37.3288C141.406 37.2631 141.633 37.1891 141.822 37.1068C142.019 37.0164 142.237 36.9136 142.475 36.7985C142.475 36.7903 142.484 36.7861 142.5 36.7861C142.525 36.7861 142.541 36.7985 142.549 36.8231C142.558 36.8478 142.562 36.8684 142.562 36.8848C142.611 36.8602 142.636 36.819 142.636 36.7615C142.644 36.7039 142.664 36.6546 142.697 36.6135C142.73 36.6217 142.775 36.6258 142.833 36.6258C142.907 36.6258 142.981 36.6094 143.055 36.5765C143.137 36.5436 143.215 36.5066 143.289 36.4655C143.363 36.4244 143.437 36.3874 143.511 36.3545C143.585 36.3216 143.659 36.3051 143.733 36.3051C143.799 36.3051 143.853 36.3216 143.894 36.3545C143.943 36.3298 143.992 36.2969 144.042 36.2558C144.091 36.2065 144.145 36.1818 144.202 36.1818C144.219 36.1818 144.231 36.1859 144.239 36.1941C144.256 36.2023 144.272 36.2106 144.288 36.2188C144.33 36.1777 144.367 36.1448 144.399 36.1201C144.441 36.0955 144.461 36.0543 144.461 35.9968C144.765 35.9639 145.045 35.8981 145.3 35.7994C145.563 35.6926 145.814 35.5528 146.052 35.3801C146.143 35.3965 146.229 35.4171 146.311 35.4418C146.402 35.4582 146.492 35.4664 146.583 35.4664C146.632 35.5569 146.677 35.6473 146.718 35.7378C146.759 35.8282 146.85 35.8693 146.99 35.8611C146.998 35.9022 147.002 35.9475 147.002 35.9968C147.01 36.0461 147.014 36.0913 147.014 36.1325ZM155.623 49.1569C155.623 49.2392 155.619 49.3008 155.611 49.3419C155.57 49.3584 155.537 49.3831 155.512 49.4159C155.488 49.4406 155.446 49.4488 155.389 49.4406C155.372 49.5639 155.331 49.6667 155.265 49.749C155.2 49.8312 155.13 49.9052 155.056 49.971C154.99 50.045 154.924 50.119 154.858 50.193C154.793 50.2752 154.752 50.378 154.735 50.5013C154.612 50.5671 154.488 50.6534 154.365 50.7603C154.25 50.8754 154.147 50.9536 154.057 50.9947C153.991 51.0276 153.921 51.0522 153.847 51.0687C153.773 51.0933 153.699 51.1221 153.625 51.155C153.387 51.2619 153.14 51.3729 152.885 51.488C152.638 51.6031 152.379 51.6607 152.108 51.6607H152.022C151.989 51.6936 151.948 51.7141 151.898 51.7224C151.849 51.7388 151.8 51.7511 151.75 51.7594C151.701 51.7676 151.652 51.7799 151.602 51.7964C151.553 51.8128 151.516 51.8375 151.491 51.8704C151.401 51.8375 151.302 51.821 151.195 51.821H151.109C150.969 51.8539 150.838 51.8786 150.714 51.895C150.591 51.9115 150.459 51.9197 150.32 51.9197C150.073 51.9197 149.826 51.9033 149.58 51.8704C149.333 51.8375 149.086 51.8087 148.84 51.784C148.683 51.6607 148.556 51.5045 148.457 51.3153C148.359 51.1344 148.309 50.9412 148.309 50.7357C148.309 50.5794 148.342 50.4314 148.408 50.2916C148.474 50.1601 148.56 50.0409 148.667 49.934H148.704C148.778 49.934 148.852 49.9175 148.926 49.8846C149.008 49.8517 149.086 49.8353 149.16 49.8353C149.242 49.8353 149.308 49.8682 149.358 49.934C149.415 49.9997 149.456 50.0779 149.481 50.1683C149.514 50.2587 149.534 50.3492 149.543 50.4396C149.551 50.5383 149.555 50.6164 149.555 50.674C149.645 50.7151 149.74 50.7398 149.839 50.748C149.946 50.7562 150.052 50.7603 150.159 50.7603C150.266 50.7603 150.385 50.7521 150.517 50.7357C150.649 50.7274 150.78 50.7069 150.912 50.674C151.051 50.6493 151.183 50.6164 151.306 50.5753C151.438 50.5342 151.549 50.4808 151.639 50.415C152.092 50.3739 152.49 50.2711 152.836 50.1066C153.181 49.9422 153.547 49.749 153.933 49.5269C153.95 49.4365 153.983 49.3666 154.032 49.3173C154.09 49.2597 154.118 49.1775 154.118 49.0706C154.118 49.0541 154.114 49.0377 154.106 49.0213C154.106 48.9966 154.106 48.976 154.106 48.9596C153.942 48.754 153.769 48.5731 153.588 48.4169C153.415 48.2607 153.189 48.1579 152.91 48.1086C152.877 48.0346 152.823 47.9811 152.749 47.9482C152.675 47.9071 152.597 47.8701 152.515 47.8372C152.433 47.8043 152.355 47.7714 152.281 47.7385C152.207 47.6974 152.153 47.6317 152.12 47.5412C151.898 47.5001 151.668 47.4508 151.43 47.3932C151.199 47.3274 151.002 47.2123 150.838 47.0479C150.706 47.0396 150.579 47.015 150.455 46.9739C150.34 46.9245 150.225 46.8793 150.11 46.8382C149.995 46.7888 149.876 46.7477 149.752 46.7148C149.629 46.6737 149.502 46.6532 149.37 46.6532C149.337 46.5956 149.292 46.5504 149.234 46.5175C149.177 46.4846 149.111 46.4558 149.037 46.4312C148.971 46.4065 148.905 46.3818 148.84 46.3572C148.782 46.3243 148.737 46.279 148.704 46.2215C148.671 46.2297 148.646 46.2462 148.63 46.2708C148.613 46.2955 148.585 46.3078 148.544 46.3078H148.494C148.478 46.2585 148.445 46.2256 148.396 46.2092C148.346 46.1845 148.317 46.1393 148.309 46.0735C148.161 46.0653 148.026 46.0365 147.902 45.9871C147.787 45.9378 147.676 45.8844 147.569 45.8268C147.471 45.761 147.368 45.6994 147.261 45.6418C147.154 45.5842 147.035 45.539 146.903 45.5061C146.821 45.4404 146.743 45.3705 146.669 45.2965C146.603 45.2142 146.517 45.1731 146.41 45.1731C146.385 45.1731 146.34 45.1813 146.274 45.1978C146.258 45.0498 146.196 44.947 146.089 44.8894C145.982 44.8237 145.867 44.7661 145.744 44.7168C145.662 44.503 145.551 44.3139 145.411 44.1494C145.271 43.985 145.119 43.8328 144.954 43.6931C144.971 43.6437 144.979 43.6067 144.979 43.5821C144.979 43.4998 144.959 43.4299 144.917 43.3724C144.876 43.3066 144.831 43.2532 144.782 43.212C144.667 42.842 144.609 42.4802 144.609 42.1267C144.609 41.6333 144.72 41.177 144.942 40.7576C145.156 40.3301 145.497 40.0094 145.966 39.7956C145.974 39.7298 145.995 39.6723 146.027 39.6229C146.069 39.5736 146.093 39.516 146.101 39.4502C146.175 39.4502 146.233 39.4338 146.274 39.4009C146.315 39.368 146.352 39.3351 146.385 39.3022C146.426 39.2611 146.467 39.2241 146.509 39.1912C146.55 39.1583 146.603 39.1378 146.669 39.1296C146.981 38.8582 147.314 38.6403 147.668 38.4759C148.021 38.3032 148.383 38.1264 148.753 37.9455C148.827 37.9126 148.889 37.851 148.938 37.7605H149.012C149.094 37.7605 149.156 37.7441 149.197 37.7112C149.247 37.6701 149.316 37.6577 149.407 37.6742C149.44 37.6248 149.481 37.592 149.53 37.5755C149.588 37.5591 149.641 37.5467 149.691 37.5385C149.748 37.5221 149.802 37.5015 149.851 37.4768C149.9 37.4522 149.933 37.4152 149.95 37.3658H150.036C150.176 37.3658 150.311 37.3453 150.443 37.3042C150.575 37.2548 150.706 37.2014 150.838 37.1438H150.924C151.088 37.1438 151.241 37.115 151.38 37.0575C151.528 36.9917 151.685 36.9465 151.849 36.9218C151.915 36.9054 151.981 36.9013 152.046 36.9095C152.112 36.9177 152.178 36.9218 152.244 36.9218C152.285 36.9218 152.334 36.9177 152.392 36.9095C152.449 36.9013 152.49 36.8766 152.515 36.8355H152.54C152.589 36.8355 152.618 36.8519 152.626 36.8848C152.634 36.9177 152.659 36.9342 152.7 36.9342C152.758 36.9342 152.815 36.9259 152.873 36.9095C152.93 36.893 152.988 36.8848 153.045 36.8848C153.292 36.8848 153.535 36.9095 153.773 36.9588C154.02 37.0082 154.262 37.0534 154.501 37.0945C154.517 37.1932 154.558 37.2631 154.624 37.3042C154.698 37.3453 154.776 37.3823 154.858 37.4152V37.4645C154.858 37.5303 154.875 37.5837 154.908 37.6248C154.875 37.74 154.817 37.8263 154.735 37.8839C154.653 37.9414 154.562 37.9907 154.464 38.0319C154.505 38.0647 154.53 38.11 154.538 38.1675C154.546 38.2251 154.55 38.2785 154.55 38.3279V38.4759L154.488 38.4635C154.357 38.4635 154.291 38.5252 154.291 38.6485C154.184 38.5828 154.065 38.5417 153.933 38.5252C153.81 38.5088 153.687 38.5005 153.563 38.5005C153.399 38.5005 153.226 38.5088 153.045 38.5252C152.865 38.5334 152.688 38.5293 152.515 38.5129C152.449 38.5951 152.367 38.6568 152.268 38.6979C152.17 38.7308 152.071 38.7472 151.972 38.7472C151.865 38.7472 151.763 38.7267 151.664 38.6856C151.565 38.6362 151.495 38.5663 151.454 38.4759C151.413 38.4594 151.376 38.4512 151.343 38.4512H151.232C151.101 38.4512 150.969 38.4677 150.838 38.5005C150.714 38.5252 150.587 38.5581 150.455 38.5992C150.324 38.6321 150.192 38.6691 150.061 38.7102C149.937 38.7431 149.81 38.7637 149.678 38.7719C149.629 38.8377 149.563 38.8829 149.481 38.9076C149.399 38.9322 149.333 38.9774 149.284 39.0432C149.111 39.0761 148.955 39.1337 148.815 39.2159C148.675 39.2899 148.539 39.3721 148.408 39.4626L148.026 39.7216C147.902 39.8038 147.762 39.8737 147.606 39.9313C147.491 40.0546 147.384 40.1533 147.286 40.2273C147.187 40.3013 147.059 40.3671 146.903 40.4246C146.805 40.4575 146.747 40.5068 146.731 40.5726C146.722 40.6384 146.689 40.7042 146.632 40.77C146.583 40.8275 146.521 40.8727 146.447 40.9056C146.381 40.9303 146.324 40.9755 146.274 41.0413C146.233 41.0989 146.2 41.1688 146.175 41.251C146.159 41.325 146.138 41.399 146.114 41.473C146.089 41.547 146.06 41.621 146.027 41.695C145.995 41.7608 145.945 41.8183 145.879 41.8677C145.879 41.9006 145.875 41.9334 145.867 41.9663C145.867 41.9992 145.867 42.028 145.867 42.0527C145.867 42.1678 145.879 42.287 145.904 42.4104C145.937 42.5255 145.958 42.6406 145.966 42.7557C146.13 43.0435 146.324 43.3066 146.546 43.5451C146.768 43.7753 147.006 43.9891 147.261 44.1864C147.516 44.3838 147.779 44.5688 148.05 44.7414C148.33 44.9141 148.605 45.0827 148.877 45.2471C148.975 45.2389 149.066 45.2512 149.148 45.2841C149.23 45.3088 149.316 45.3252 149.407 45.3335C149.506 45.4075 149.621 45.465 149.752 45.5061L150.147 45.6295C150.279 45.6706 150.406 45.7199 150.529 45.7775C150.653 45.8268 150.755 45.8967 150.838 45.9871C150.879 45.9954 150.916 46.0077 150.949 46.0242C150.982 46.0324 151.019 46.0365 151.06 46.0365C151.109 46.0365 151.138 46.02 151.146 45.9871C151.516 46.1269 151.878 46.2832 152.231 46.4558C152.585 46.6203 152.959 46.7477 153.354 46.8382C153.51 46.9697 153.683 47.0849 153.872 47.1835C154.061 47.2822 154.25 47.385 154.439 47.4919C154.628 47.5905 154.809 47.7015 154.982 47.8249C155.154 47.94 155.307 48.0798 155.438 48.2442C155.455 48.4005 155.488 48.5526 155.537 48.7006C155.594 48.8404 155.623 48.9925 155.623 49.1569ZM159.841 50.23C159.841 50.3615 159.796 50.4808 159.706 50.5877C159.615 50.6945 159.537 50.7973 159.471 50.896C159.356 50.9536 159.245 50.9864 159.138 50.9947C159.04 51.0111 158.933 51.0399 158.818 51.081C158.777 51.0892 158.731 51.118 158.682 51.1673C158.616 51.1591 158.55 51.1303 158.485 51.081C158.419 51.0399 158.353 51.0111 158.287 50.9947C158.197 50.9618 158.078 50.9412 157.93 50.933C157.79 50.9248 157.687 50.8837 157.621 50.8097C157.506 50.6945 157.407 50.5424 157.325 50.3533C157.251 50.1642 157.19 49.9627 157.14 49.749C157.099 49.5352 157.066 49.3255 157.042 49.1199C157.025 48.9061 157.017 48.7211 157.017 48.5649C157.017 48.3018 157.033 48.0387 157.066 47.7755C157.099 47.5124 157.148 47.2575 157.214 47.0109V46.9492C157.214 46.9081 157.214 46.8752 157.214 46.8505C157.222 46.8176 157.227 46.7806 157.227 46.7395C157.227 46.7148 157.222 46.6902 157.214 46.6655C157.214 46.6408 157.202 46.6203 157.177 46.6038C157.284 46.3325 157.362 46.0529 157.412 45.7651C157.461 45.4774 157.498 45.1896 157.523 44.9018C157.555 44.6058 157.588 44.3139 157.621 44.0261C157.662 43.7301 157.72 43.4423 157.794 43.1627C157.786 43.1134 157.777 43.0599 157.769 43.0024C157.769 42.9448 157.769 42.8914 157.769 42.842C157.769 42.694 157.786 42.5501 157.819 42.4104C157.851 42.2623 157.872 42.1102 157.88 41.954C157.888 41.9047 157.888 41.8553 157.88 41.806C157.872 41.7484 157.868 41.6909 157.868 41.6333C157.868 41.2715 157.884 40.918 157.917 40.5726C157.958 40.2273 157.979 39.8778 157.979 39.5242C157.979 39.3351 157.962 39.1542 157.93 38.9816C157.905 38.8007 157.893 38.6198 157.893 38.4389C157.893 38.3566 157.897 38.2785 157.905 38.2045C157.913 38.1223 157.938 38.0483 157.979 37.9825C158.16 37.8592 158.374 37.7975 158.62 37.7975C158.801 37.7975 158.957 37.8469 159.089 37.9455C159.081 37.962 159.077 37.9866 159.077 38.0195C159.077 38.0606 159.081 38.0976 159.089 38.1305C159.097 38.1634 159.101 38.2004 159.101 38.2415V38.2909C159.101 38.3073 159.097 38.3238 159.089 38.3402C159.147 38.4389 159.184 38.5458 159.2 38.6609C159.225 38.7678 159.237 38.8788 159.237 38.9939C159.237 39.1008 159.233 39.2077 159.225 39.3146C159.216 39.4132 159.212 39.516 159.212 39.6229C159.212 39.7709 159.212 39.9189 159.212 40.0669C159.221 40.2149 159.225 40.3629 159.225 40.5109C159.225 40.9056 159.204 41.2962 159.163 41.6827C159.13 42.0609 159.105 42.4474 159.089 42.842C159.073 43.1792 159.027 43.5081 158.953 43.8287C158.888 44.1494 158.842 44.4742 158.818 44.8031C158.809 44.8689 158.805 44.9347 158.805 45.0004C158.814 45.058 158.818 45.1238 158.818 45.1978C158.818 45.3869 158.781 45.576 158.707 45.7651C158.633 45.946 158.596 46.1393 158.596 46.3448C158.596 46.4435 158.612 46.5298 158.645 46.6038C158.596 46.7354 158.55 46.8916 158.509 47.0725C158.476 47.2534 158.444 47.4425 158.411 47.6399C158.386 47.829 158.365 48.0181 158.349 48.2072C158.332 48.3881 158.324 48.5485 158.324 48.6882C158.324 48.8856 158.349 49.087 158.398 49.2926C158.448 49.4899 158.53 49.6708 158.645 49.8353C158.727 49.86 158.826 49.8723 158.941 49.8723C159.056 49.8723 159.171 49.8764 159.286 49.8846C159.401 49.8928 159.508 49.9134 159.607 49.9463C159.706 49.9792 159.78 50.045 159.829 50.1436C159.837 50.1601 159.841 50.1765 159.841 50.193V50.23ZM178.712 43.8657C178.696 43.9644 178.667 44.0754 178.626 44.1988C178.593 44.3221 178.543 44.4372 178.478 44.5441C178.42 44.6428 178.346 44.7291 178.256 44.8031C178.165 44.8689 178.058 44.9018 177.935 44.9018C177.845 44.9018 177.754 44.8936 177.664 44.8771C177.573 44.8524 177.479 44.8401 177.38 44.8401C177.339 44.8401 177.294 44.8566 177.244 44.8894C177.203 44.9141 177.162 44.9264 177.121 44.9264C177.08 44.9264 177.043 44.9223 177.01 44.9141C176.985 44.8977 176.952 44.8894 176.911 44.8894C176.887 44.8894 176.841 44.8977 176.776 44.9141C176.71 44.9306 176.64 44.947 176.566 44.9634C176.492 44.9799 176.422 45.0004 176.356 45.0251C176.29 45.0416 176.245 45.0539 176.221 45.0621C175.999 45.1361 175.777 45.2019 175.555 45.2595C175.333 45.317 175.102 45.354 174.864 45.3705C174.815 45.354 174.741 45.3376 174.642 45.3211C174.543 45.2965 174.469 45.2841 174.42 45.2841C174.321 45.2841 174.255 45.3252 174.223 45.4075C174.198 45.4897 174.144 45.5514 174.062 45.5925C173.964 45.65 173.84 45.6829 173.692 45.6911C173.544 45.6994 173.396 45.7117 173.248 45.7281C173.1 45.7446 172.96 45.7775 172.829 45.8268C172.705 45.8679 172.615 45.9501 172.557 46.0735C172.516 46.0653 172.471 46.0612 172.422 46.0612C172.381 46.0529 172.335 46.0488 172.286 46.0488C172.023 46.0488 171.776 46.1023 171.546 46.2092C171.316 46.3078 171.082 46.3983 170.843 46.4805C170.884 46.5545 170.913 46.645 170.929 46.7518C170.946 46.8587 170.962 46.9656 170.979 47.0725C170.995 47.1712 171.016 47.2699 171.04 47.3685C171.073 47.459 171.127 47.5289 171.201 47.5782C171.201 47.6275 171.188 47.6687 171.164 47.7015C171.147 47.7344 171.127 47.7632 171.102 47.7879L171.016 47.8742C170.991 47.8989 170.975 47.9359 170.966 47.9852C170.942 48.0839 170.929 48.1867 170.929 48.2936C170.929 48.3922 170.872 48.4662 170.757 48.5156C170.765 48.5402 170.769 48.5855 170.769 48.6512C170.769 48.7335 170.757 48.8116 170.732 48.8856C170.707 48.9596 170.699 49.0418 170.707 49.1323C170.568 49.2885 170.448 49.4488 170.35 49.6133C170.259 49.7777 170.189 49.9545 170.14 50.1436C169.836 50.4479 169.523 50.7521 169.203 51.0563C168.89 51.3688 168.565 51.6689 168.228 51.9567C167.899 52.2445 167.558 52.5158 167.205 52.7707C166.851 53.0339 166.485 53.2641 166.107 53.4614H166.021C165.831 53.4614 165.683 53.4943 165.577 53.5601C165.47 53.6259 165.334 53.6834 165.17 53.7328C165.046 53.6999 164.898 53.6834 164.726 53.6834C164.627 53.6834 164.524 53.6875 164.417 53.6958C164.318 53.704 164.216 53.7081 164.109 53.7081C163.969 53.7081 163.842 53.6917 163.726 53.6588C163.62 53.6259 163.513 53.5889 163.406 53.5478C163.307 53.5066 163.204 53.4655 163.097 53.4244C162.991 53.3833 162.875 53.3545 162.752 53.3381C162.242 52.8283 161.839 52.2322 161.543 51.5497C161.247 50.8754 161.099 50.1806 161.099 49.4653C161.099 49.1364 161.145 48.8157 161.235 48.5032C161.325 48.1826 161.371 47.8619 161.371 47.5412C161.519 47.2452 161.646 46.941 161.753 46.6285C161.868 46.3161 161.983 46.0036 162.098 45.6911C162.214 45.3787 162.337 45.0744 162.468 44.7784C162.608 44.4742 162.773 44.1864 162.962 43.9151C163.003 43.7013 163.069 43.5163 163.159 43.3601C163.25 43.2038 163.348 43.0312 163.455 42.842C163.455 42.6611 163.492 42.4967 163.566 42.3487C163.648 42.1925 163.698 42.0198 163.714 41.8307C163.846 41.7073 163.953 41.5675 164.035 41.4113C164.117 41.2551 164.195 41.0947 164.269 40.9303C164.343 40.7658 164.425 40.6096 164.516 40.4616C164.615 40.3054 164.746 40.1738 164.911 40.0669C164.927 40.0094 164.935 39.9477 164.935 39.8819C164.943 39.8079 164.964 39.7504 164.997 39.7093L165.256 39.4256C165.338 39.3187 165.412 39.2118 165.478 39.1049C165.552 38.9898 165.63 38.887 165.712 38.7966C165.762 38.7472 165.815 38.7061 165.873 38.6732C165.93 38.6403 165.979 38.6033 166.021 38.5622C166.062 38.5211 166.074 38.4677 166.058 38.4019C166.049 38.3361 166.066 38.2826 166.107 38.2415C166.123 38.2251 166.148 38.2086 166.181 38.1922C166.214 38.1758 166.243 38.1593 166.267 38.1429C166.374 38.0689 166.465 37.9949 166.539 37.9209C166.613 37.8469 166.715 37.7934 166.847 37.7605C166.962 37.6701 167.065 37.5796 167.155 37.4892C167.254 37.3987 167.353 37.3165 167.451 37.2425C167.55 37.1685 167.657 37.1109 167.772 37.0698C167.887 37.0205 168.031 36.9958 168.204 36.9958C168.237 36.9958 168.269 36.9999 168.302 37.0082C168.335 37.0082 168.368 37.0082 168.401 37.0082C168.738 37.3206 168.948 37.703 169.03 38.1552C168.94 38.2703 168.866 38.3937 168.808 38.5252C168.759 38.6568 168.701 38.7883 168.635 38.9199C168.496 38.9692 168.364 39.0432 168.241 39.1419C168.117 39.2323 167.994 39.3269 167.871 39.4256C167.756 39.5242 167.632 39.6106 167.501 39.6846C167.377 39.7586 167.237 39.7956 167.081 39.7956C167.015 39.8531 166.909 39.9477 166.761 40.0793C166.621 40.2026 166.473 40.3342 166.317 40.4739C166.169 40.6137 166.029 40.7453 165.897 40.8686C165.774 40.992 165.696 41.0783 165.663 41.1276C165.638 41.1688 165.618 41.2058 165.601 41.2386C165.585 41.2715 165.568 41.3085 165.552 41.3496L165.231 41.8923C165.05 42.2048 164.865 42.5131 164.676 42.8174C164.487 43.1134 164.323 43.4258 164.183 43.7547C164.117 43.9027 164.064 44.0507 164.022 44.1988C163.981 44.3468 163.94 44.503 163.899 44.6674C163.883 44.7168 163.862 44.7661 163.837 44.8154C163.813 44.8648 163.792 44.91 163.776 44.9511C163.685 45.1238 163.611 45.2841 163.554 45.4321C163.496 45.5801 163.463 45.7528 163.455 45.9501C163.25 46.4106 163.056 46.8752 162.875 47.3439C162.703 47.8043 162.571 48.2812 162.481 48.7746C162.53 48.939 162.551 49.1076 162.542 49.2803C162.542 49.4447 162.542 49.6092 162.542 49.7736C162.542 49.9792 162.555 50.1477 162.579 50.2793C162.612 50.4191 162.653 50.5424 162.703 50.6493C162.76 50.7644 162.822 50.8795 162.888 50.9947C162.954 51.118 163.023 51.2619 163.097 51.4263C163.221 51.525 163.332 51.6278 163.43 51.7347C163.529 51.8498 163.624 51.9731 163.714 52.1047C164.027 52.2609 164.343 52.339 164.664 52.339C164.894 52.339 165.128 52.302 165.367 52.228C165.605 52.154 165.836 52.0595 166.058 51.9444C166.288 51.8375 166.51 51.7182 166.724 51.5867C166.937 51.4551 167.143 51.3277 167.34 51.2043C167.686 50.9988 167.986 50.7768 168.241 50.5383C168.496 50.2999 168.726 50.0491 168.931 49.786C169.145 49.5228 169.342 49.2433 169.523 48.9473C169.704 48.643 169.893 48.3223 170.091 47.9852C170.099 47.9441 170.115 47.8948 170.14 47.8372L170.214 47.6522C170.239 47.5864 170.259 47.5289 170.276 47.4795C170.3 47.422 170.313 47.385 170.313 47.3685C170.313 47.3028 170.296 47.2575 170.263 47.2329C170.239 47.2 170.226 47.1671 170.226 47.1342C170.226 47.0684 170.243 47.0232 170.276 46.9985C170.309 46.9739 170.346 46.9492 170.387 46.9245C170.436 46.8998 170.477 46.8711 170.51 46.8382C170.551 46.8053 170.572 46.7436 170.572 46.6532C170.555 46.645 170.526 46.6408 170.485 46.6408C170.444 46.6408 170.403 46.645 170.362 46.6532C170.321 46.6614 170.28 46.6655 170.239 46.6655C170.14 46.6655 170.058 46.6326 169.992 46.5668C169.951 46.5833 169.91 46.6121 169.869 46.6532C169.828 46.6861 169.786 46.7231 169.745 46.7642C169.712 46.8053 169.68 46.8423 169.647 46.8752C169.614 46.9081 169.585 46.9245 169.56 46.9245C169.519 46.9245 169.486 46.9163 169.462 46.8998C169.445 46.8834 169.421 46.8752 169.388 46.8752C169.248 46.8752 169.125 46.9081 169.018 46.9739C168.911 47.0396 168.796 47.0931 168.672 47.1342C168.648 47.1342 168.623 47.1342 168.598 47.1342C168.574 47.126 168.549 47.1219 168.524 47.1219C168.434 47.1219 168.343 47.1383 168.253 47.1712C168.171 47.1959 168.089 47.2246 168.006 47.2575C167.932 47.2904 167.854 47.3192 167.772 47.3439C167.69 47.3685 167.608 47.3768 167.525 47.3685C167.344 47.4343 167.176 47.5042 167.02 47.5782C166.872 47.6522 166.699 47.681 166.502 47.6645C166.444 47.6892 166.382 47.718 166.317 47.7509C166.259 47.7755 166.201 47.8084 166.144 47.8496C166.095 47.866 166.058 47.8742 166.033 47.8742C165.992 47.8742 165.959 47.8537 165.934 47.8125C165.868 47.8866 165.782 47.94 165.675 47.9729C165.568 47.9976 165.457 48.0222 165.342 48.0469C165.227 48.0633 165.116 48.088 165.009 48.1209C164.911 48.1456 164.832 48.199 164.775 48.2812C164.684 48.2072 164.578 48.1702 164.454 48.1702C164.331 48.1702 164.212 48.1949 164.096 48.2442C163.981 48.2853 163.858 48.3059 163.726 48.3059C163.677 48.3059 163.644 48.2977 163.628 48.2812C163.595 48.1908 163.558 48.1003 163.517 48.0099C163.476 47.9194 163.41 47.8537 163.319 47.8125C163.303 47.7221 163.287 47.6358 163.27 47.5535C163.262 47.4631 163.258 47.3768 163.258 47.2945C163.258 47.0725 163.324 46.8711 163.455 46.6902C163.57 46.6491 163.685 46.6162 163.8 46.5915C163.924 46.5586 164.043 46.5216 164.158 46.4805C164.249 46.4969 164.339 46.5093 164.429 46.5175C164.52 46.5257 164.61 46.5298 164.701 46.5298C165.038 46.5298 165.367 46.4887 165.688 46.4065C166.008 46.3161 166.325 46.2215 166.637 46.1228C166.933 46.0324 167.233 45.9501 167.538 45.8761C167.842 45.8021 168.146 45.7199 168.45 45.6295C168.738 45.5555 169.022 45.4732 169.301 45.3828C169.581 45.2841 169.873 45.2225 170.177 45.1978C170.374 45.058 170.613 44.9634 170.892 44.9141C171.18 44.8648 171.443 44.8113 171.682 44.7538C172.06 44.6633 172.434 44.5729 172.804 44.4824C173.174 44.3838 173.552 44.2974 173.939 44.2234C174.366 44.133 174.782 44.022 175.185 43.8904C175.596 43.7588 176.007 43.6191 176.418 43.4711H176.541C176.681 43.4711 176.825 43.4546 176.973 43.4217C177.121 43.3888 177.269 43.3724 177.417 43.3724C177.458 43.3724 177.491 43.3765 177.516 43.3847C177.549 43.3847 177.581 43.3847 177.614 43.3847C177.639 43.3847 177.701 43.3683 177.799 43.3354C177.898 43.2943 177.968 43.2655 178.009 43.249C178.116 43.3642 178.235 43.4669 178.367 43.5574C178.498 43.6478 178.613 43.7506 178.712 43.8657ZM184.201 38.2045C184.151 38.2868 184.114 38.3731 184.09 38.4635C184.073 38.554 184.061 38.6444 184.053 38.7349H183.966C183.9 38.7349 183.843 38.7267 183.794 38.7102C183.744 38.6856 183.687 38.665 183.621 38.6485C183.654 38.961 183.674 39.2776 183.683 39.5982C183.691 39.9189 183.695 40.2355 183.695 40.548C183.695 40.9426 183.691 41.3373 183.683 41.732C183.674 42.1185 183.67 42.509 183.67 42.9037C183.67 43.0928 183.658 43.2819 183.633 43.4711C183.617 43.652 183.567 43.8287 183.485 44.0014C183.502 44.1412 183.514 44.2769 183.522 44.4084C183.53 44.5318 183.535 44.6633 183.535 44.8031C183.535 45.1896 183.51 45.576 183.461 45.9625C183.419 46.3407 183.366 46.719 183.3 47.0972C183.276 47.2452 183.251 47.3973 183.226 47.5535C183.21 47.7015 183.181 47.8454 183.14 47.9852C183.123 48.0263 183.099 48.0674 183.066 48.1086C183.041 48.1497 183.021 48.1908 183.004 48.2319C182.905 48.4457 182.794 48.6595 182.671 48.8733C182.556 49.0788 182.416 49.2679 182.252 49.4406C182.128 49.4488 182.009 49.4817 181.894 49.5393C181.779 49.5968 181.672 49.6256 181.573 49.6256C181.483 49.6256 181.409 49.5804 181.351 49.4899L181.228 49.5393C181.187 49.5557 181.142 49.5681 181.092 49.5763C180.813 49.4612 180.546 49.3214 180.291 49.1569C180.044 48.9925 179.838 48.7787 179.674 48.5156H179.625C179.551 48.5156 179.497 48.4991 179.464 48.4662C179.423 48.4251 179.378 48.3758 179.329 48.3182C179.288 48.2525 179.251 48.1949 179.218 48.1456C179.119 47.9893 179.012 47.8331 178.897 47.6769C178.782 47.5206 178.646 47.3891 178.49 47.2822C178.424 47.0355 178.326 46.8258 178.194 46.6532C178.062 46.4723 177.927 46.279 177.787 46.0735C177.68 45.6624 177.483 45.28 177.195 44.9264C177.236 44.8853 177.257 44.8566 177.257 44.8401C177.257 44.799 177.24 44.7661 177.207 44.7414C177.183 44.7085 177.17 44.6757 177.17 44.6428C177.17 44.6099 177.179 44.5852 177.195 44.5688C177.088 44.4536 176.998 44.3262 176.924 44.1864C176.858 44.0384 176.792 43.8904 176.726 43.7424C176.669 43.5944 176.603 43.4464 176.529 43.2984C176.463 43.1504 176.381 43.0147 176.282 42.8914C176.192 42.9489 176.134 43.0188 176.11 43.101C176.093 43.1833 176.085 43.2696 176.085 43.3601C176.085 43.4258 176.085 43.4916 176.085 43.5574C176.093 43.6232 176.097 43.689 176.097 43.7547C176.097 43.9192 176.077 44.0795 176.036 44.2358C176.003 44.392 175.978 44.5523 175.962 44.7168C175.953 44.8319 175.949 44.9593 175.949 45.0991C175.957 45.2389 175.953 45.3787 175.937 45.5185C175.929 45.6582 175.908 45.7939 175.875 45.9255C175.842 46.057 175.785 46.168 175.703 46.2585C175.653 46.7272 175.592 47.1959 175.518 47.6645C175.444 48.1332 175.374 48.6019 175.308 49.0706C175.291 49.1528 175.275 49.2556 175.259 49.3789C175.242 49.5023 175.222 49.6256 175.197 49.749C175.18 49.8805 175.164 50.0039 175.148 50.119C175.139 50.2423 175.135 50.341 175.135 50.415C175.135 50.4972 175.156 50.5753 175.197 50.6493C175.238 50.7315 175.259 50.8097 175.259 50.8837C175.259 50.9412 175.238 50.9741 175.197 50.9823C175.164 50.9988 175.143 51.0317 175.135 51.081C175.193 51.2619 175.222 51.4675 175.222 51.6977C175.222 51.7635 175.217 51.8293 175.209 51.895C175.201 51.969 175.189 52.0389 175.172 52.1047C175.156 52.1458 175.127 52.1828 175.086 52.2157C175.045 52.2568 175.024 52.2938 175.024 52.3267C175.024 52.3596 175.041 52.3843 175.074 52.4007C175.024 52.4501 174.963 52.4829 174.889 52.4994C174.815 52.5158 174.761 52.5611 174.728 52.6351C174.646 52.5693 174.564 52.5076 174.482 52.4501C174.399 52.4007 174.321 52.3432 174.247 52.2774L174.21 52.265C174.153 52.265 174.103 52.2815 174.062 52.3144C174.029 52.3555 173.984 52.376 173.927 52.376C173.91 52.376 173.894 52.3719 173.877 52.3637C173.869 52.3637 173.857 52.3637 173.84 52.3637L173.766 52.043C173.741 51.9361 173.709 51.8375 173.667 51.747C173.733 51.5744 173.774 51.377 173.791 51.155C173.816 50.9412 173.84 50.7233 173.865 50.5013C173.89 50.2793 173.927 50.0655 173.976 49.86C174.025 49.6626 174.116 49.4899 174.247 49.3419C174.247 49.2762 174.223 49.2309 174.173 49.2063C174.132 49.1816 174.112 49.1282 174.112 49.0459C174.112 49.0295 174.116 49.0007 174.124 48.9596C174.14 48.9185 174.153 48.8733 174.161 48.8239C174.177 48.7746 174.19 48.7294 174.198 48.6882C174.214 48.6389 174.227 48.6019 174.235 48.5772C174.301 48.2566 174.35 47.9277 174.383 47.5905C174.424 47.2534 174.527 46.941 174.691 46.6532C174.683 46.6203 174.679 46.5709 174.679 46.5052C174.679 46.3654 174.691 46.2297 174.716 46.0982C174.749 45.9666 174.765 45.8309 174.765 45.6911C174.765 45.576 174.753 45.4691 174.728 45.3705C174.753 45.28 174.786 45.1937 174.827 45.1115C174.876 45.021 174.901 44.9306 174.901 44.8401C174.901 44.7579 174.872 44.7003 174.815 44.6674C174.856 44.6345 174.88 44.5975 174.889 44.5564C174.905 44.5153 174.913 44.4742 174.913 44.4331C174.921 44.392 174.93 44.355 174.938 44.3221C174.954 44.281 174.987 44.2481 175.037 44.2234C175.028 44.1412 175.02 44.0631 175.012 43.9891C175.012 43.9151 175.012 43.837 175.012 43.7547C175.012 43.4505 175.028 43.1504 175.061 42.8544C175.094 42.5501 175.111 42.2418 175.111 41.9293C175.111 41.6251 175.086 41.3291 175.037 41.0413L175.172 40.77C175.09 40.7042 175.037 40.5973 175.012 40.4493C174.987 40.3013 174.971 40.1409 174.963 39.9683C174.954 39.7956 174.938 39.627 174.913 39.4626C174.897 39.2899 174.852 39.1501 174.778 39.0432V38.9322C174.778 38.8007 174.769 38.6732 174.753 38.5499C174.736 38.4265 174.728 38.3032 174.728 38.1799V38.0689C174.769 38.0524 174.798 38.0236 174.815 37.9825C174.839 37.9414 174.856 37.9003 174.864 37.8592H174.913C175.012 37.8592 175.111 37.851 175.209 37.8345C175.308 37.8181 175.407 37.8099 175.505 37.8099H175.666C175.764 37.8839 175.851 37.9702 175.925 38.0689C175.999 38.1675 176.089 38.258 176.196 38.3402V38.5622C176.27 38.6609 176.327 38.7678 176.369 38.8829C176.41 38.998 176.451 39.1172 176.492 39.2406C176.541 39.3639 176.591 39.4831 176.64 39.5982C176.689 39.7134 176.759 39.812 176.85 39.8943C176.833 39.9765 176.825 40.0423 176.825 40.0916C176.825 40.1985 176.833 40.3054 176.85 40.4123C176.874 40.5192 176.891 40.622 176.899 40.7206C176.932 40.7617 176.961 40.8152 176.985 40.881C177.01 40.9385 177.051 40.9755 177.109 40.992C177.15 41.3126 177.232 41.6169 177.355 41.9047C177.487 42.1925 177.581 42.4926 177.639 42.805C177.705 42.8708 177.754 42.953 177.787 43.0517C177.82 43.1422 177.853 43.2326 177.886 43.3231C177.927 43.4135 177.968 43.4998 178.009 43.5821C178.058 43.6561 178.128 43.7095 178.219 43.7424C178.268 43.9397 178.33 44.1371 178.404 44.3344C178.478 44.5318 178.593 44.7003 178.749 44.8401C178.749 45.0046 178.774 45.1485 178.823 45.2718C178.881 45.3869 178.942 45.4979 179.008 45.6048C179.082 45.7035 179.148 45.8021 179.205 45.9008C179.263 45.9995 179.3 46.1064 179.316 46.2215C179.431 46.3942 179.563 46.5545 179.711 46.7025C179.867 46.8505 180.024 46.9944 180.18 47.1342C180.344 47.2658 180.505 47.4014 180.661 47.5412C180.817 47.681 180.961 47.829 181.092 47.9852C181.183 47.9934 181.257 48.014 181.314 48.0469C181.38 48.0716 181.454 48.0921 181.536 48.1086C181.594 48.0674 181.639 48.0181 181.672 47.9606C181.713 47.8948 181.75 47.829 181.783 47.7632C181.816 47.6974 181.849 47.6358 181.882 47.5782C181.923 47.5124 181.972 47.4549 182.03 47.4055C182.03 47.3891 182.026 47.3768 182.017 47.3685C182.017 47.3521 182.017 47.3356 182.017 47.3192C182.017 47.2287 182.03 47.1589 182.054 47.1095C182.087 47.052 182.124 46.9903 182.165 46.9245V46.6038C182.231 46.4805 182.276 46.3489 182.301 46.2092C182.326 46.0694 182.338 45.9296 182.338 45.7898C182.338 45.6747 182.334 45.5596 182.326 45.4445C182.318 45.3211 182.313 45.1978 182.313 45.0744C182.313 45.0004 182.318 44.9264 182.326 44.8524C182.334 44.7702 182.35 44.6962 182.375 44.6304C182.392 44.614 182.42 44.5893 182.461 44.5564C182.503 44.5153 182.523 44.4907 182.523 44.4824C182.523 44.4413 182.511 44.4002 182.486 44.3591C182.461 44.318 182.449 44.2769 182.449 44.2358C182.449 44.1782 182.474 44.133 182.523 44.1001V44.0261C182.523 43.985 182.515 43.948 182.498 43.9151C182.49 43.874 182.466 43.8452 182.424 43.8287C182.466 43.7794 182.494 43.7218 182.511 43.6561C182.527 43.5821 182.535 43.5081 182.535 43.4341C182.544 43.3518 182.544 43.2737 182.535 43.1997C182.535 43.1257 182.535 43.0558 182.535 42.99C182.535 42.916 182.54 42.8379 182.548 42.7557C182.556 42.6735 182.589 42.6036 182.646 42.546C182.622 42.4474 182.605 42.3528 182.597 42.2623C182.589 42.1637 182.585 42.065 182.585 41.9663C182.585 41.7937 182.593 41.621 182.609 41.4483C182.626 41.2756 182.634 41.0989 182.634 40.918C182.634 40.8522 182.63 40.7864 182.622 40.7206C182.614 40.6466 182.609 40.5767 182.609 40.5109C182.609 40.4452 182.622 40.4164 182.646 40.4246C182.679 40.4246 182.696 40.4041 182.696 40.3629C182.696 40.3054 182.688 40.2478 182.671 40.1903C182.663 40.1327 182.655 40.0752 182.646 40.0176C182.63 39.8778 182.618 39.738 182.609 39.5982C182.601 39.4502 182.597 39.3022 182.597 39.1542C182.597 39.0638 182.597 38.9733 182.597 38.8829C182.605 38.7842 182.622 38.6897 182.646 38.5992C182.597 38.5252 182.564 38.4553 182.548 38.3895C182.54 38.3155 182.531 38.2498 182.523 38.1922L182.498 38.0072C182.49 37.9414 182.466 37.8756 182.424 37.8099C182.416 37.8016 182.412 37.777 182.412 37.7358C182.412 37.6701 182.429 37.6207 182.461 37.5878C182.42 37.4481 182.363 37.3124 182.289 37.1808C182.223 37.0493 182.182 36.9054 182.165 36.7491C182.075 36.6998 182.005 36.6217 181.956 36.5148C181.915 36.3997 181.894 36.2969 181.894 36.2065C181.894 36.0996 181.923 35.9968 181.98 35.8981C182.038 35.7912 182.128 35.7378 182.252 35.7378C182.301 35.7378 182.346 35.7542 182.387 35.7871C182.437 35.8118 182.482 35.8447 182.523 35.8858C182.572 35.9187 182.618 35.9516 182.659 35.9845C182.708 36.0091 182.757 36.0215 182.807 36.0215C182.84 36.0215 182.889 36.0132 182.955 35.9968C183.045 36.1201 183.136 36.2352 183.226 36.3421C183.325 36.4408 183.424 36.5436 183.522 36.6505C183.522 36.7903 183.547 36.9177 183.596 37.0328C183.646 37.1479 183.699 37.2589 183.757 37.3658C183.814 37.4645 183.863 37.5632 183.905 37.6618C183.954 37.7605 183.974 37.8674 183.966 37.9825C183.983 38.0401 184.016 38.0812 184.065 38.1059C184.114 38.1305 184.159 38.1634 184.201 38.2045Z" fill="#202020"/>
</g>
</g>
<path d="M274.345 15.9653H34.0361C31.6219 15.9653 29.306 16.922 27.5956 18.6258L20.3626 25.8309C18.6436 27.5434 17.6772 29.8699 17.6772 32.2963V128.327C17.6772 133.367 21.763 137.453 26.803 137.453H281.578C286.618 137.453 290.703 133.367 290.703 128.327V32.2963C290.703 29.8699 289.737 27.5434 288.018 25.8309L280.785 18.6258C279.075 16.922 276.759 15.9653 274.345 15.9653Z" stroke="#202020" stroke-width="0.855544"/>
<g clip-path="url(#clip7_285_63472)">
<path d="M88.687 60.8813H219.3C232.924 60.8813 243.968 71.9256 243.968 85.5493V86.1196C243.968 99.7435 232.924 110.789 219.3 110.789H88.687C75.0632 110.788 64.019 99.7434 64.019 86.1196V85.5493C64.0192 71.9256 75.0633 60.8815 88.687 60.8813Z" stroke="#202020" stroke-width="0.855544"/>
<path d="M216.199 68.7744C225.492 68.7747 233.025 76.3082 233.025 85.6006C233.024 94.8928 225.492 102.426 216.199 102.426C206.907 102.426 199.374 94.8929 199.373 85.6006C199.373 76.308 206.907 68.7744 216.199 68.7744ZM216.102 73.0518C214.378 73.0518 212.735 73.3993 211.24 74.0283L212.752 76.6484L210.031 78.2188L208.52 75.6025C205.897 77.5951 204.081 80.5954 203.652 84.0273H206.678V87.168H203.651C204.078 90.5996 205.893 93.5993 208.515 95.5928L210.027 92.9746L212.747 94.5449L211.232 97.168C212.729 97.7991 214.375 98.1475 216.102 98.1475C217.826 98.1474 219.469 97.7991 220.964 97.1699L219.452 94.5518L222.173 92.9814L223.683 95.5967C226.307 93.6033 228.125 90.6019 228.553 87.168H225.527V84.0273H228.552C228.123 80.5968 226.308 77.598 223.687 75.6055L222.177 78.2207L219.457 76.6504L220.968 74.0312C219.472 73.401 217.827 73.0518 216.102 73.0518Z" fill="#202020"/>
<path d="M91.825 68.7744C101.117 68.7746 108.65 76.3073 108.65 85.5996C108.65 94.8921 101.117 102.426 91.825 102.426C82.5324 102.426 74.9988 94.8922 74.9988 85.5996C74.9989 76.3072 82.5325 68.7744 91.825 68.7744ZM91.7273 73.0518C90.0032 73.0518 88.3594 73.3991 86.864 74.0283L88.3767 76.6484L85.657 78.2188L84.1453 75.6016C81.5218 77.5941 79.7062 80.5951 79.2771 84.0273H82.3025V87.168H79.2761C79.7039 90.5992 81.5182 93.5993 84.1394 95.5928L85.6521 92.9746L88.3718 94.5449L86.8572 97.168C88.3544 97.799 90.0005 98.1474 91.7273 98.1475C93.4511 98.1474 95.0935 97.7989 96.5886 97.1699L95.0779 94.5518L97.7986 92.9814L99.3083 95.5967C101.933 93.6032 103.75 90.602 104.178 87.168H101.151V84.0273H104.177C103.749 80.5968 101.934 77.598 99.3123 75.6055L97.8025 78.2207L95.0818 76.6504L96.5935 74.0303C95.0972 73.4002 93.4527 73.0518 91.7273 73.0518Z" fill="#202020"/>
</g>
<defs>
<clipPath id="clip0_285_63472">
<rect width="10.2665" height="10.2665" fill="white" transform="translate(148.772 149.564)"/>
</clipPath>
<clipPath id="clip1_285_63472">
<rect width="10.2665" height="10.2665" fill="white" transform="translate(7.69556 7.69482)"/>
</clipPath>
<clipPath id="clip2_285_63472">
<rect width="10.2665" height="10.2665" fill="white" transform="translate(7.69556 170.953)"/>
</clipPath>
<clipPath id="clip3_285_63472">
<rect width="10.2665" height="10.2665" fill="white" transform="translate(289.848 7.69482)"/>
</clipPath>
<clipPath id="clip4_285_63472">
<rect width="10.2665" height="10.2665" fill="white" transform="translate(289.848 170.953)"/>
</clipPath>
<clipPath id="clip5_285_63472">
<rect width="273.204" height="121.487" fill="white" transform="translate(17.6772 15.9653)"/>
</clipPath>
<clipPath id="clip6_285_63472">
<rect width="273.401" height="76.9636" fill="white" transform="matrix(1 0 0 -1 17.8198 137.56)"/>
</clipPath>
<clipPath id="clip7_285_63472">
<rect x="63.5913" y="60.4536" width="180.805" height="50.7623" rx="25.096" fill="white"/>
</clipPath>
</defs>
</svg>
