<svg width="618" height="205" viewBox="0 0 618 205" fill="none" xmlns="http://www.w3.org/2000/svg">
<g filter="url(#filter0_n_285_128851)">
<path d="M264.831 66.5108L273.252 43.5771H277.989L286.409 66.5108H281.936L280.094 61.2033H271.114L269.239 66.5108H264.831ZM272.265 57.9271H278.942L275.587 48.3932L272.265 57.9271Z" fill="url(#paint0_linear_285_128851)"/>
<path d="M296.02 66.904C294.573 66.904 293.301 66.6746 292.204 66.2159C291.108 65.7354 290.231 65.0802 289.573 64.2502C288.915 63.4202 288.52 62.4592 288.389 61.3671H292.632C292.764 62.0005 293.114 62.5466 293.685 63.0052C294.277 63.4421 295.033 63.6605 295.954 63.6605C296.875 63.6605 297.544 63.4748 297.961 63.1035C298.399 62.7322 298.619 62.3063 298.619 61.8258C298.619 61.1268 298.312 60.6573 297.698 60.417C297.084 60.1549 296.228 59.9037 295.132 59.6635C294.43 59.5106 293.717 59.3249 292.994 59.1065C292.27 58.8881 291.601 58.6151 290.987 58.2874C290.395 57.938 289.913 57.5011 289.54 56.9769C289.167 56.4309 288.981 55.7647 288.981 54.9784C288.981 53.5369 289.551 52.3247 290.691 51.3418C291.853 50.3589 293.476 49.8675 295.559 49.8675C297.489 49.8675 299.024 50.3153 300.165 51.2108C301.327 52.1063 302.018 53.3403 302.237 54.9129H298.257C298.016 53.7116 297.105 53.111 295.527 53.111C294.737 53.111 294.123 53.2639 293.685 53.5697C293.268 53.8754 293.06 54.2577 293.06 54.7163C293.06 55.1969 293.378 55.5791 294.013 55.863C294.649 56.147 295.494 56.4091 296.546 56.6493C297.687 56.9114 298.728 57.2063 299.671 57.5339C300.636 57.8397 301.404 58.3093 301.974 58.9427C302.544 59.5543 302.829 60.4388 302.829 61.5964C302.851 62.6012 302.588 63.5076 302.04 64.3157C301.491 65.1239 300.702 65.7573 299.671 66.2159C298.641 66.6746 297.423 66.904 296.02 66.904Z" fill="url(#paint1_linear_285_128851)"/>
<path d="M313.302 66.904C311.855 66.904 310.583 66.6746 309.486 66.2159C308.39 65.7354 307.513 65.0802 306.855 64.2502C306.197 63.4202 305.802 62.4592 305.671 61.3671H309.914C310.046 62.0005 310.396 62.5466 310.967 63.0052C311.559 63.4421 312.315 63.6605 313.236 63.6605C314.157 63.6605 314.826 63.4748 315.243 63.1035C315.681 62.7322 315.901 62.3063 315.901 61.8258C315.901 61.1268 315.594 60.6573 314.98 60.417C314.366 60.1549 313.51 59.9037 312.414 59.6635C311.712 59.5106 310.999 59.3249 310.276 59.1065C309.552 58.8881 308.883 58.6151 308.269 58.2874C307.677 57.938 307.195 57.5011 306.822 56.9769C306.449 56.4309 306.263 55.7647 306.263 54.9784C306.263 53.5369 306.833 52.3247 307.973 51.3418C309.136 50.3589 310.758 49.8675 312.842 49.8675C314.771 49.8675 316.306 50.3153 317.447 51.2108C318.609 52.1063 319.3 53.3403 319.519 54.9129H315.539C315.298 53.7116 314.388 53.111 312.809 53.111C312.019 53.111 311.405 53.2639 310.967 53.5697C310.55 53.8754 310.342 54.2577 310.342 54.7163C310.342 55.1969 310.66 55.5791 311.296 55.863C311.932 56.147 312.776 56.4091 313.828 56.6493C314.969 56.9114 316.01 57.2063 316.953 57.5339C317.918 57.8397 318.686 58.3093 319.256 58.9427C319.826 59.5543 320.111 60.4388 320.111 61.5964C320.133 62.6012 319.87 63.5076 319.322 64.3157C318.773 65.1239 317.984 65.7573 316.953 66.2159C315.923 66.6746 314.706 66.904 313.302 66.904Z" fill="url(#paint2_linear_285_128851)"/>
<path d="M331.67 66.904C330.091 66.904 328.665 66.5436 327.393 65.8228C326.144 65.102 325.146 64.1082 324.4 62.8414C323.676 61.5528 323.315 60.0675 323.315 58.3857C323.315 56.7039 323.687 55.2296 324.433 53.9628C325.179 52.6741 326.176 51.6694 327.426 50.9487C328.698 50.2279 330.124 49.8675 331.703 49.8675C333.26 49.8675 334.663 50.2279 335.913 50.9487C337.185 51.6694 338.183 52.6741 338.906 53.9628C339.652 55.2296 340.025 56.7039 340.025 58.3857C340.025 60.0675 339.652 61.5528 338.906 62.8414C338.183 64.1082 337.185 65.102 335.913 65.8228C334.641 66.5436 333.227 66.904 331.67 66.904ZM331.67 63.2673C332.766 63.2673 333.72 62.8633 334.531 62.0551C335.343 61.2251 335.748 60.002 335.748 58.3857C335.748 56.7694 335.343 55.5572 334.531 54.7491C333.72 53.9191 332.777 53.5041 331.703 53.5041C330.584 53.5041 329.619 53.9191 328.808 54.7491C328.018 55.5572 327.624 56.7694 327.624 58.3857C327.624 60.002 328.018 61.2251 328.808 62.0551C329.619 62.8633 330.573 63.2673 331.67 63.2673Z" fill="url(#paint3_linear_285_128851)"/>
<path d="M351.782 66.904C350.116 66.904 348.647 66.5436 347.375 65.8228C346.103 65.102 345.094 64.0973 344.348 62.8086C343.625 61.52 343.263 60.0457 343.263 58.3857C343.263 56.7258 343.625 55.2515 344.348 53.9628C345.094 52.6741 346.103 51.6694 347.375 50.9487C348.647 50.2279 350.116 49.8675 351.782 49.8675C353.866 49.8675 355.62 50.4135 357.045 51.5056C358.471 52.5759 359.381 54.0611 359.776 55.9613H355.335C355.116 55.175 354.677 54.5635 354.019 54.1266C353.383 53.6679 352.627 53.4386 351.75 53.4386C350.587 53.4386 349.601 53.8754 348.789 54.7491C347.978 55.6228 347.572 56.835 347.572 58.3857C347.572 59.9365 347.978 61.1487 348.789 62.0224C349.601 62.896 350.587 63.3329 351.75 63.3329C352.627 63.3329 353.383 63.1144 354.019 62.6776C354.677 62.2408 355.116 61.6183 355.335 60.8101H359.776C359.381 62.6448 358.471 64.1191 357.045 65.2331C355.62 66.347 353.866 66.904 351.782 66.904Z" fill="url(#paint4_linear_285_128851)"/>
<path d="M365.782 47.738C365.015 47.738 364.379 47.5086 363.875 47.0499C363.392 46.5913 363.151 46.0125 363.151 45.3135C363.151 44.6146 363.392 44.0467 363.875 43.6099C364.379 43.1512 365.015 42.9219 365.782 42.9219C366.55 42.9219 367.175 43.1512 367.657 43.6099C368.162 44.0467 368.414 44.6146 368.414 45.3135C368.414 46.0125 368.162 46.5913 367.657 47.0499C367.175 47.5086 366.55 47.738 365.782 47.738ZM363.677 66.5108V50.2607H367.888V66.5108H363.677Z" fill="url(#paint5_linear_285_128851)"/>
<path d="M377.907 66.904C376.504 66.904 375.352 66.6855 374.453 66.2487C373.554 65.79 372.885 65.1894 372.447 64.4468C372.008 63.7042 371.789 62.8851 371.789 61.9896C371.789 60.4825 372.381 59.2594 373.565 58.3202C374.749 57.381 376.526 56.9114 378.894 56.9114H383.039V56.5183C383.039 55.4044 382.721 54.5853 382.085 54.0611C381.449 53.5369 380.659 53.2748 379.716 53.2748C378.861 53.2748 378.115 53.4823 377.479 53.8973C376.843 54.2904 376.449 54.8802 376.295 55.6664H372.184C372.293 54.487 372.688 53.4605 373.368 52.5868C374.069 51.7131 374.969 51.0469 376.065 50.5883C377.161 50.1078 378.389 49.8675 379.749 49.8675C382.074 49.8675 383.905 50.4463 385.242 51.6039C386.58 52.7615 387.249 54.3996 387.249 56.5183V66.5108H383.663L383.269 63.8898C382.786 64.7635 382.106 65.4842 381.229 66.0521C380.374 66.62 379.267 66.904 377.907 66.904ZM378.861 63.6277C380.067 63.6277 380.999 63.2346 381.657 62.4483C382.337 61.662 382.764 60.69 382.94 59.5324H379.354C378.236 59.5324 377.436 59.7399 376.953 60.1549C376.471 60.548 376.23 61.0395 376.23 61.6292C376.23 62.2626 376.471 62.754 376.953 63.1035C377.436 63.453 378.072 63.6277 378.861 63.6277Z" fill="url(#paint6_linear_285_128851)"/>
<path d="M398.312 66.5108C396.601 66.5108 395.23 66.0958 394.2 65.2658C393.169 64.4358 392.654 62.9615 392.654 60.8429V53.7662H389.858V50.2607H392.654L393.147 45.9033H396.864V50.2607H401.272V53.7662H396.864V60.8757C396.864 61.662 397.029 62.208 397.358 62.5138C397.708 62.7977 398.301 62.9397 399.134 62.9397H401.173V66.5108H398.312Z" fill="url(#paint7_linear_285_128851)"/>
<path d="M407.157 47.738C406.389 47.738 405.753 47.5086 405.249 47.0499C404.766 46.5913 404.525 46.0125 404.525 45.3135C404.525 44.6146 404.766 44.0467 405.249 43.6099C405.753 43.1512 406.389 42.9219 407.157 42.9219C407.924 42.9219 408.549 43.1512 409.032 43.6099C409.536 44.0467 409.788 44.6146 409.788 45.3135C409.788 46.0125 409.536 46.5913 409.032 47.0499C408.549 47.5086 407.924 47.738 407.157 47.738ZM405.051 66.5108V50.2607H409.262V66.5108H405.051Z" fill="url(#paint8_linear_285_128851)"/>
<path d="M421.485 66.904C419.906 66.904 418.481 66.5436 417.209 65.8228C415.959 65.102 414.961 64.1082 414.216 62.8414C413.492 61.5528 413.13 60.0675 413.13 58.3857C413.13 56.7039 413.503 55.2296 414.249 53.9628C414.994 52.6741 415.992 51.6694 417.242 50.9487C418.514 50.2279 419.939 49.8675 421.518 49.8675C423.075 49.8675 424.479 50.2279 425.729 50.9487C427 51.6694 427.998 52.6741 428.722 53.9628C429.467 55.2296 429.84 56.7039 429.84 58.3857C429.84 60.0675 429.467 61.5528 428.722 62.8414C427.998 64.1082 427 65.102 425.729 65.8228C424.457 66.5436 423.042 66.904 421.485 66.904ZM421.485 63.2673C422.582 63.2673 423.536 62.8633 424.347 62.0551C425.158 61.2251 425.564 60.002 425.564 58.3857C425.564 56.7694 425.158 55.5572 424.347 54.7491C423.536 53.9191 422.593 53.5041 421.518 53.5041C420.4 53.5041 419.435 53.9191 418.623 54.7491C417.834 55.5572 417.439 56.7694 417.439 58.3857C417.439 60.002 417.834 61.2251 418.623 62.0551C419.435 62.8633 420.389 63.2673 421.485 63.2673Z" fill="url(#paint9_linear_285_128851)"/>
<path d="M433.605 66.5108V50.2607H437.322L437.651 53.0127C438.155 52.0517 438.879 51.2872 439.822 50.7193C440.787 50.1514 441.916 49.8675 443.21 49.8675C445.227 49.8675 446.795 50.5009 447.914 51.7677C449.032 53.0345 449.591 54.8911 449.591 57.3373V66.5108H445.381V57.7305C445.381 56.3326 445.096 55.2624 444.526 54.5198C443.955 53.7771 443.067 53.4058 441.861 53.4058C440.677 53.4058 439.701 53.8208 438.934 54.6508C438.188 55.4808 437.815 56.6384 437.815 58.1236V66.5108H433.605Z" fill="url(#paint10_linear_285_128851)"/>
<path d="M462.212 66.5108V53.7662H459.975V50.2607H462.212V48.3604C462.212 46.3947 462.705 44.9968 463.692 44.1668C464.701 43.3369 466.06 42.9219 467.771 42.9219H469.58V46.493H468.429C467.705 46.493 467.19 46.6349 466.883 46.9189C466.576 47.2028 466.422 47.6833 466.422 48.3604V50.2607H469.942V53.7662H466.422V66.5108H462.212Z" fill="url(#paint11_linear_285_128851)"/>
<path d="M480.463 66.904C478.884 66.904 477.458 66.5436 476.187 65.8228C474.937 65.102 473.939 64.1082 473.193 62.8414C472.47 61.5528 472.108 60.0675 472.108 58.3857C472.108 56.7039 472.481 55.2296 473.226 53.9628C473.972 52.6741 474.969 51.6694 476.219 50.9487C477.491 50.2279 478.917 49.8675 480.496 49.8675C482.053 49.8675 483.456 50.2279 484.706 50.9487C485.978 51.6694 486.976 52.6741 487.699 53.9628C488.445 55.2296 488.818 56.7039 488.818 58.3857C488.818 60.0675 488.445 61.5528 487.699 62.8414C486.976 64.1082 485.978 65.102 484.706 65.8228C483.434 66.5436 482.02 66.904 480.463 66.904ZM480.463 63.2673C481.559 63.2673 482.513 62.8633 483.325 62.0551C484.136 61.2251 484.542 60.002 484.542 58.3857C484.542 56.7694 484.136 55.5572 483.325 54.7491C482.513 53.9191 481.57 53.5041 480.496 53.5041C479.377 53.5041 478.412 53.9191 477.601 54.7491C476.812 55.5572 476.417 56.7694 476.417 58.3857C476.417 60.002 476.812 61.2251 477.601 62.0551C478.412 62.8633 479.366 63.2673 480.463 63.2673Z" fill="url(#paint12_linear_285_128851)"/>
<path d="M492.582 66.5108V50.2607H496.332L496.727 53.3076C497.319 52.2592 498.119 51.4292 499.128 50.8176C500.159 50.1842 501.365 49.8675 502.747 49.8675V54.2904H501.562C500.641 54.2904 499.819 54.4324 499.095 54.7163C498.372 55.0003 497.802 55.4917 497.385 56.1906C496.99 56.8896 496.793 57.8615 496.793 59.1065V66.5108H492.582Z" fill="url(#paint13_linear_285_128851)"/>
<path d="M276.739 109.905C274.414 109.905 272.419 109.413 270.752 108.43C269.085 107.426 267.802 106.039 266.903 104.269C266.004 102.478 265.555 100.414 265.555 98.0774C265.555 95.7403 266.004 93.6763 266.903 91.8853C267.802 90.0943 269.085 88.6964 270.752 87.6917C272.419 86.687 274.414 86.1846 276.739 86.1846C279.502 86.1846 281.76 86.8726 283.515 88.2487C285.291 89.6028 286.398 91.514 286.837 93.9821H282.199C281.914 92.7371 281.3 91.7652 280.357 91.0662C279.436 90.3454 278.208 89.9851 276.673 89.9851C274.546 89.9851 272.879 90.7058 271.673 92.1474C270.467 93.5889 269.864 95.5656 269.864 98.0774C269.864 100.589 270.467 102.566 271.673 104.007C272.879 105.427 274.546 106.137 276.673 106.137C278.208 106.137 279.436 105.809 280.357 105.154C281.3 104.477 281.914 103.549 282.199 102.369H286.837C286.398 104.728 285.291 106.574 283.515 107.906C281.76 109.238 279.502 109.905 276.739 109.905Z" fill="url(#paint14_linear_285_128851)"/>
<path d="M298.294 109.905C296.715 109.905 295.29 109.544 294.018 108.823C292.768 108.103 291.77 107.109 291.024 105.842C290.301 104.553 289.939 103.068 289.939 101.386C289.939 99.7046 290.312 98.2303 291.057 96.9634C291.803 95.6748 292.801 94.6701 294.051 93.9493C295.323 93.2285 296.748 92.8682 298.327 92.8682C299.884 92.8682 301.287 93.2285 302.537 93.9493C303.809 94.6701 304.807 95.6748 305.531 96.9634C306.276 98.2303 306.649 99.7046 306.649 101.386C306.649 103.068 306.276 104.553 305.531 105.842C304.807 107.109 303.809 108.103 302.537 108.823C301.265 109.544 299.851 109.905 298.294 109.905ZM298.294 106.268C299.39 106.268 300.344 105.864 301.156 105.056C301.967 104.226 302.373 103.003 302.373 101.386C302.373 99.7701 301.967 98.5579 301.156 97.7498C300.344 96.9198 299.401 96.5048 298.327 96.5048C297.209 96.5048 296.244 96.9198 295.432 97.7498C294.643 98.5579 294.248 99.7701 294.248 101.386C294.248 103.003 294.643 104.226 295.432 105.056C296.244 105.864 297.198 106.268 298.294 106.268Z" fill="url(#paint15_linear_285_128851)"/>
<path d="M310.414 109.511V93.2613H314.131L314.492 95.4564C315.019 94.6701 315.71 94.0476 316.565 93.5889C317.442 93.1084 318.451 92.8682 319.591 92.8682C322.113 92.8682 323.9 93.8401 324.953 95.784C325.545 94.8885 326.334 94.1786 327.321 93.6544C328.33 93.1303 329.426 92.8682 330.61 92.8682C332.738 92.8682 334.371 93.5016 335.512 94.7684C336.652 96.0352 337.222 97.8917 337.222 100.338V109.511H333.012V100.731C333.012 99.3333 332.738 98.263 332.189 97.5204C331.663 96.7778 330.841 96.4065 329.722 96.4065C328.582 96.4065 327.661 96.8215 326.959 97.6515C326.279 98.4814 325.939 99.639 325.939 101.124V109.511H321.729V100.731C321.729 99.3333 321.455 98.263 320.907 97.5204C320.359 96.7778 319.514 96.4065 318.374 96.4065C317.256 96.4065 316.345 96.8215 315.644 97.6515C314.964 98.4814 314.624 99.639 314.624 101.124V109.511H310.414Z" fill="url(#paint16_linear_285_128851)"/>
<path d="M341.219 116.719V93.2613H344.969L345.43 95.5874C345.956 94.8666 346.647 94.2332 347.502 93.6872C348.379 93.1412 349.509 92.8682 350.89 92.8682C352.425 92.8682 353.796 93.2395 355.002 93.9821C356.208 94.7247 357.162 95.7403 357.864 97.029C358.565 98.3176 358.916 99.781 358.916 101.419C358.916 103.057 358.565 104.521 357.864 105.809C357.162 107.076 356.208 108.081 355.002 108.823C353.796 109.544 352.425 109.905 350.89 109.905C349.662 109.905 348.588 109.675 347.667 109.217C346.746 108.758 346 108.114 345.43 107.284V116.719H341.219ZM350.002 106.235C351.34 106.235 352.447 105.787 353.324 104.892C354.201 103.996 354.64 102.839 354.64 101.419C354.64 99.9994 354.201 98.8309 353.324 97.9136C352.447 96.9962 351.34 96.5375 350.002 96.5375C348.642 96.5375 347.524 96.9962 346.647 97.9136C345.792 98.8091 345.364 99.9667 345.364 101.386C345.364 102.806 345.792 103.975 346.647 104.892C347.524 105.787 348.642 106.235 350.002 106.235Z" fill="url(#paint17_linear_285_128851)"/>
<path d="M368.796 109.905C366.756 109.905 365.177 109.271 364.059 108.004C362.963 106.738 362.414 104.881 362.414 102.435V93.2613H366.592V102.042C366.592 103.439 366.877 104.51 367.447 105.252C368.017 105.995 368.916 106.366 370.144 106.366C371.307 106.366 372.261 105.951 373.006 105.121C373.774 104.291 374.157 103.134 374.157 101.648V93.2613H378.368V109.511H374.651L374.322 106.759C373.818 107.72 373.083 108.485 372.118 109.053C371.175 109.621 370.068 109.905 368.796 109.905Z" fill="url(#paint18_linear_285_128851)"/>
<path d="M389.96 109.511C388.249 109.511 386.879 109.096 385.848 108.266C384.817 107.436 384.302 105.962 384.302 103.844V96.7669H381.506V93.2613H384.302L384.795 88.9039H388.512V93.2613H392.92V96.7669H388.512V103.876C388.512 104.663 388.677 105.209 389.006 105.514C389.356 105.798 389.949 105.94 390.782 105.94H392.821V109.511H389.96Z" fill="url(#paint19_linear_285_128851)"/>
<path d="M398.805 90.7386C398.037 90.7386 397.401 90.5093 396.897 90.0506C396.414 89.5919 396.173 89.0131 396.173 88.3142C396.173 87.6152 396.414 87.0474 396.897 86.6105C397.401 86.1519 398.037 85.9225 398.805 85.9225C399.572 85.9225 400.197 86.1519 400.68 86.6105C401.184 87.0474 401.436 87.6152 401.436 88.3142C401.436 89.0131 401.184 89.5919 400.68 90.0506C400.197 90.5093 399.572 90.7386 398.805 90.7386ZM396.699 109.511V93.2613H400.91V109.511H396.699Z" fill="url(#paint20_linear_285_128851)"/>
<path d="M405.305 109.511V93.2613H409.021L409.35 96.0133C409.855 95.0523 410.579 94.2878 411.521 93.72C412.486 93.1521 413.616 92.8682 414.91 92.8682C416.927 92.8682 418.495 93.5016 419.613 94.7684C420.732 96.0352 421.291 97.8917 421.291 100.338V109.511H417.081V100.731C417.081 99.3333 416.795 98.263 416.225 97.5204C415.655 96.7778 414.767 96.4065 413.561 96.4065C412.377 96.4065 411.401 96.8215 410.633 97.6515C409.888 98.4814 409.515 99.639 409.515 101.124V109.511H405.305Z" fill="url(#paint21_linear_285_128851)"/>
<path d="M432.225 104.663C431.435 104.663 430.701 104.575 430.021 104.401L428.804 105.613C429.177 105.809 429.681 105.973 430.317 106.104C430.953 106.235 431.984 106.366 433.409 106.497C435.58 106.694 437.159 107.207 438.146 108.037C439.132 108.867 439.626 110.014 439.626 111.477C439.626 112.438 439.363 113.345 438.836 114.196C438.31 115.07 437.499 115.769 436.402 116.293C435.306 116.839 433.902 117.112 432.192 117.112C429.867 117.112 427.992 116.675 426.567 115.802C425.142 114.95 424.429 113.661 424.429 111.936C424.429 110.472 425.142 109.206 426.567 108.135C426.128 107.939 425.745 107.731 425.416 107.513C425.109 107.295 424.835 107.065 424.593 106.825V106.071L427.455 103.057C426.183 101.943 425.547 100.513 425.547 98.7654C425.547 97.6733 425.81 96.6795 426.337 95.784C426.885 94.8885 427.653 94.1786 428.639 93.6544C429.626 93.1303 430.821 92.8682 432.225 92.8682C433.146 92.8682 434.001 92.9992 434.79 93.2613H440.975V95.8168L438.179 96.0133C438.617 96.8433 438.836 97.7607 438.836 98.7654C438.836 99.8575 438.573 100.851 438.047 101.747C437.521 102.642 436.753 103.352 435.744 103.876C434.758 104.401 433.584 104.663 432.225 104.663ZM432.225 101.452C433.08 101.452 433.782 101.223 434.33 100.764C434.9 100.305 435.185 99.65 435.185 98.7981C435.185 97.9463 434.9 97.2911 434.33 96.8324C433.782 96.3737 433.08 96.1444 432.225 96.1444C431.326 96.1444 430.602 96.3737 430.054 96.8324C429.506 97.2911 429.231 97.9463 429.231 98.7981C429.231 99.65 429.506 100.305 430.054 100.764C430.602 101.223 431.326 101.452 432.225 101.452ZM428.278 111.51C428.278 112.318 428.65 112.919 429.396 113.312C430.163 113.727 431.095 113.934 432.192 113.934C433.244 113.934 434.1 113.716 434.758 113.279C435.415 112.864 435.744 112.296 435.744 111.575C435.744 110.986 435.525 110.494 435.087 110.101C434.67 109.708 433.826 109.468 432.554 109.38C431.655 109.315 430.821 109.217 430.054 109.086C429.418 109.435 428.957 109.817 428.672 110.232C428.409 110.647 428.278 111.073 428.278 111.51Z" fill="url(#paint22_linear_285_128851)"/>
<path d="M451.981 109.511V86.5778H456.981L464.317 101.124L471.553 86.5778H476.553V109.511H472.343V93.6872L465.928 106.235H462.606L456.192 93.6872V109.511H451.981Z" fill="url(#paint23_linear_285_128851)"/>
<path d="M486.547 109.905C485.143 109.905 483.992 109.686 483.093 109.249C482.194 108.791 481.525 108.19 481.086 107.447C480.648 106.705 480.428 105.886 480.428 104.99C480.428 103.483 481.02 102.26 482.205 101.321C483.389 100.382 485.165 99.9121 487.533 99.9121H491.678V99.5189C491.678 98.405 491.36 97.5859 490.724 97.0617C490.088 96.5375 489.299 96.2754 488.356 96.2754C487.501 96.2754 486.755 96.4829 486.119 96.8979C485.483 97.2911 485.088 97.8808 484.935 98.6671H480.823C480.933 97.4876 481.327 96.4611 482.007 95.5874C482.709 94.7138 483.608 94.0476 484.705 93.5889C485.801 93.1084 487.029 92.8682 488.389 92.8682C490.713 92.8682 492.544 93.447 493.882 94.6046C495.22 95.7622 495.888 97.4003 495.888 99.5189V109.511H492.303L491.908 106.89C491.426 107.764 490.746 108.485 489.869 109.053C489.014 109.621 487.906 109.905 486.547 109.905ZM487.501 106.628C488.707 106.628 489.639 106.235 490.296 105.449C490.976 104.663 491.404 103.691 491.579 102.533H487.994C486.876 102.533 486.075 102.741 485.593 103.156C485.11 103.549 484.869 104.04 484.869 104.63C484.869 105.263 485.11 105.755 485.593 106.104C486.075 106.454 486.711 106.628 487.501 106.628Z" fill="url(#paint24_linear_285_128851)"/>
<path d="M507.9 109.905C506.233 109.905 504.764 109.544 503.492 108.823C502.22 108.103 501.211 107.098 500.466 105.809C499.742 104.521 499.38 103.046 499.38 101.386C499.38 99.7264 499.742 98.2521 500.466 96.9634C501.211 95.6748 502.22 94.6701 503.492 93.9493C504.764 93.2285 506.233 92.8682 507.9 92.8682C509.983 92.8682 511.737 93.4142 513.163 94.5063C514.588 95.5765 515.498 97.0617 515.893 98.962H511.452C511.233 98.1757 510.794 97.5641 510.136 97.1273C509.5 96.6686 508.744 96.4393 507.867 96.4393C506.704 96.4393 505.718 96.8761 504.906 97.7498C504.095 98.6234 503.689 99.8356 503.689 101.386C503.689 102.937 504.095 104.149 504.906 105.023C505.718 105.897 506.704 106.333 507.867 106.333C508.744 106.333 509.5 106.115 510.136 105.678C510.794 105.241 511.233 104.619 511.452 103.811H515.893C515.498 105.645 514.588 107.12 513.163 108.234C511.737 109.348 509.983 109.905 507.9 109.905Z" fill="url(#paint25_linear_285_128851)"/>
<path d="M519.63 109.511V85.9225H523.84V95.7512C524.388 94.8557 525.123 94.1568 526.044 93.6544C526.987 93.1303 528.062 92.8682 529.268 92.8682C531.285 92.8682 532.842 93.5016 533.939 94.7684C535.057 96.0352 535.616 97.8917 535.616 100.338V109.511H531.439V100.731C531.439 99.3333 531.154 98.263 530.583 97.5204C530.035 96.7778 529.158 96.4065 527.952 96.4065C526.768 96.4065 525.781 96.8215 524.991 97.6515C524.224 98.4814 523.84 99.639 523.84 101.124V109.511H519.63Z" fill="url(#paint26_linear_285_128851)"/>
<path d="M541.912 90.7386C541.145 90.7386 540.509 90.5093 540.004 90.0506C539.522 89.5919 539.281 89.0131 539.281 88.3142C539.281 87.6152 539.522 87.0474 540.004 86.6105C540.509 86.1519 541.145 85.9225 541.912 85.9225C542.68 85.9225 543.305 86.1519 543.787 86.6105C544.291 87.0474 544.544 87.6152 544.544 88.3142C544.544 89.0131 544.291 89.5919 543.787 90.0506C543.305 90.5093 542.68 90.7386 541.912 90.7386ZM539.807 109.511V93.2613H544.017V109.511H539.807Z" fill="url(#paint27_linear_285_128851)"/>
<path d="M548.412 109.511V93.2613H552.129L552.458 96.0133C552.962 95.0523 553.686 94.2878 554.629 93.72C555.594 93.1521 556.723 92.8682 558.017 92.8682C560.034 92.8682 561.602 93.5016 562.721 94.7684C563.839 96.0352 564.398 97.8917 564.398 100.338V109.511H560.188V100.731C560.188 99.3333 559.903 98.263 559.333 97.5204C558.763 96.7778 557.874 96.4065 556.668 96.4065C555.484 96.4065 554.508 96.8215 553.741 97.6515C552.995 98.4814 552.622 99.639 552.622 101.124V109.511H548.412Z" fill="url(#paint28_linear_285_128851)"/>
<path d="M576.352 109.905C574.707 109.905 573.249 109.555 571.977 108.856C570.705 108.157 569.707 107.174 568.984 105.908C568.26 104.641 567.898 103.177 567.898 101.517C567.898 99.8356 568.249 98.3395 568.951 97.029C569.674 95.7185 570.661 94.7029 571.911 93.9821C573.183 93.2395 574.674 92.8682 576.385 92.8682C577.986 92.8682 579.4 93.2176 580.628 93.9165C581.856 94.6155 582.81 95.5765 583.49 96.7996C584.192 98.0009 584.542 99.3442 584.542 100.829C584.542 101.07 584.531 101.321 584.51 101.583C584.51 101.845 584.499 102.118 584.477 102.402H572.076C572.163 103.669 572.602 104.663 573.391 105.383C574.203 106.104 575.179 106.465 576.319 106.465C577.174 106.465 577.887 106.279 578.457 105.908C579.049 105.514 579.488 105.012 579.773 104.401H584.049C583.742 105.427 583.227 106.366 582.503 107.218C581.801 108.048 580.924 108.703 579.871 109.184C578.841 109.664 577.668 109.905 576.352 109.905ZM576.385 96.2754C575.354 96.2754 574.444 96.5703 573.655 97.16C572.865 97.7279 572.361 98.6016 572.141 99.781H580.266C580.2 98.7108 579.806 97.859 579.082 97.2255C578.358 96.5921 577.459 96.2754 576.385 96.2754Z" fill="url(#paint29_linear_285_128851)"/>
<path d="M588.084 109.511V93.2613H591.834L592.228 96.3082C592.82 95.2598 593.621 94.4298 594.629 93.8183C595.66 93.1848 596.866 92.8682 598.248 92.8682V97.2911H597.064C596.143 97.2911 595.32 97.4331 594.597 97.717C593.873 98.0009 593.303 98.4924 592.886 99.1913C592.491 99.8902 592.294 100.862 592.294 102.107V109.511H588.084Z" fill="url(#paint30_linear_285_128851)"/>
<path d="M603.165 116.719L606.948 108.43H605.961L599.612 93.2613H604.185L608.757 104.695L613.526 93.2613H618L607.638 116.719H603.165Z" fill="url(#paint31_linear_285_128851)"/>
<path d="M271.105 160.703L264.617 143.502H266.862L272.314 158.516L277.816 143.502H280.011L273.523 160.703H271.105Z" fill="url(#paint32_linear_285_128851)"/>
<path d="M282.379 160.703V143.502H284.451V160.703H282.379Z" fill="url(#paint33_linear_285_128851)"/>
<path d="M292.159 160.703V145.198H287.003V143.502H299.387V145.198H294.231V160.703H292.159Z" fill="url(#paint34_linear_285_128851)"/>
<path d="M313.948 160.998C312.682 160.998 311.58 160.768 310.642 160.31C309.705 159.851 308.981 159.212 308.471 158.393C307.962 157.574 307.707 156.624 307.707 155.543H309.878C309.878 156.214 310.034 156.837 310.346 157.41C310.659 157.967 311.111 158.418 311.703 158.762C312.312 159.089 313.06 159.253 313.948 159.253C315.116 159.253 316.021 158.974 316.662 158.418C317.303 157.861 317.624 157.164 317.624 156.329C317.624 155.641 317.476 155.092 317.18 154.683C316.884 154.257 316.481 153.913 315.971 153.651C315.478 153.388 314.902 153.159 314.244 152.963C313.603 152.766 312.929 152.545 312.221 152.299C310.889 151.84 309.902 151.275 309.261 150.604C308.619 149.916 308.299 149.023 308.299 147.925C308.282 147.008 308.496 146.197 308.94 145.493C309.384 144.772 310.009 144.215 310.815 143.822C311.637 143.412 312.608 143.208 313.726 143.208C314.828 143.208 315.782 143.412 316.588 143.822C317.41 144.231 318.044 144.797 318.488 145.517C318.948 146.238 319.187 147.057 319.203 147.974H317.032C317.032 147.499 316.909 147.033 316.662 146.574C316.415 146.099 316.037 145.714 315.527 145.419C315.034 145.124 314.409 144.977 313.652 144.977C312.715 144.96 311.942 145.198 311.333 145.689C310.741 146.181 310.445 146.861 310.445 147.729C310.445 148.466 310.651 149.031 311.062 149.424C311.489 149.817 312.082 150.145 312.838 150.407C313.595 150.653 314.466 150.939 315.453 151.267C316.276 151.562 317.016 151.906 317.673 152.299C318.331 152.692 318.841 153.2 319.203 153.823C319.581 154.445 319.77 155.24 319.77 156.206C319.77 157.025 319.557 157.803 319.129 158.54C318.701 159.261 318.052 159.851 317.18 160.31C316.325 160.768 315.248 160.998 313.948 160.998Z" fill="url(#paint35_linear_285_128851)"/>
<path d="M327.421 160.703C326.303 160.703 325.423 160.432 324.782 159.892C324.14 159.351 323.819 158.377 323.819 156.968V150.26H321.698V148.515H323.819L324.091 145.591H325.892V148.515H329.494V150.26H325.892V156.968C325.892 157.738 326.048 158.262 326.361 158.54C326.673 158.802 327.224 158.934 328.013 158.934H329.296V160.703H327.421Z" fill="url(#paint36_linear_285_128851)"/>
<path d="M336.592 160.998C335.144 160.998 333.993 160.563 333.138 159.695C332.283 158.811 331.855 157.459 331.855 155.641V148.515H333.927V155.42C333.927 157.959 334.972 159.228 337.061 159.228C338.13 159.228 339.009 158.852 339.7 158.098C340.407 157.328 340.761 156.239 340.761 154.83V148.515H342.833V160.703H340.958L340.81 158.516C340.432 159.286 339.865 159.892 339.108 160.334C338.368 160.776 337.529 160.998 336.592 160.998Z" fill="url(#paint37_linear_285_128851)"/>
<path d="M351.795 160.998C350.578 160.998 349.509 160.719 348.588 160.162C347.684 159.605 346.976 158.843 346.467 157.877C345.973 156.91 345.726 155.813 345.726 154.584C345.726 153.356 345.981 152.266 346.491 151.316C347.001 150.35 347.708 149.596 348.613 149.056C349.517 148.499 350.586 148.22 351.82 148.22C352.823 148.22 353.711 148.425 354.484 148.835C355.257 149.244 355.858 149.817 356.285 150.555V143.011H358.358V160.703H356.483L356.285 158.688C355.891 159.278 355.323 159.81 354.583 160.285C353.843 160.76 352.914 160.998 351.795 160.998ZM352.017 159.204C352.84 159.204 353.563 159.015 354.188 158.639C354.83 158.245 355.323 157.705 355.669 157.017C356.03 156.329 356.211 155.526 356.211 154.609C356.211 153.692 356.03 152.889 355.669 152.201C355.323 151.513 354.83 150.98 354.188 150.604C353.563 150.211 352.84 150.014 352.017 150.014C351.211 150.014 350.488 150.211 349.846 150.604C349.221 150.98 348.728 151.513 348.366 152.201C348.021 152.889 347.848 153.692 347.848 154.609C347.848 155.526 348.021 156.329 348.366 157.017C348.728 157.705 349.221 158.245 349.846 158.639C350.488 159.015 351.211 159.204 352.017 159.204Z" fill="url(#paint38_linear_285_128851)"/>
<path d="M367.237 160.998C366.069 160.998 365.033 160.735 364.129 160.211C363.224 159.671 362.509 158.925 361.982 157.975C361.473 157.025 361.218 155.903 361.218 154.609C361.218 153.331 361.473 152.217 361.982 151.267C362.492 150.301 363.199 149.555 364.104 149.031C365.025 148.491 366.086 148.22 367.287 148.22C368.471 148.22 369.49 148.491 370.346 149.031C371.217 149.555 371.883 150.251 372.344 151.12C372.805 151.988 373.035 152.922 373.035 153.921C373.035 154.101 373.026 154.281 373.01 154.461C373.01 154.642 373.01 154.846 373.01 155.076H363.265C363.315 156.009 363.528 156.788 363.907 157.41C364.301 158.016 364.787 158.475 365.362 158.786C365.954 159.097 366.579 159.253 367.237 159.253C368.092 159.253 368.808 159.056 369.384 158.663C369.959 158.27 370.379 157.738 370.642 157.066H372.689C372.36 158.196 371.727 159.138 370.79 159.892C369.869 160.629 368.685 160.998 367.237 160.998ZM367.237 149.965C366.25 149.965 365.37 150.268 364.597 150.874C363.841 151.464 363.405 152.332 363.29 153.479H370.987C370.938 152.381 370.559 151.521 369.852 150.899C369.145 150.276 368.273 149.965 367.237 149.965Z" fill="url(#paint39_linear_285_128851)"/>
<path d="M375.781 160.703V148.515H377.656L377.78 150.702C378.174 149.932 378.742 149.326 379.482 148.884C380.222 148.441 381.061 148.22 381.998 148.22C383.446 148.22 384.597 148.662 385.452 149.547C386.324 150.415 386.76 151.759 386.76 153.577V160.703H384.687V153.798C384.687 151.259 383.635 149.989 381.53 149.989C380.477 149.989 379.597 150.374 378.89 151.144C378.199 151.898 377.854 152.979 377.854 154.388V160.703H375.781Z" fill="url(#paint40_linear_285_128851)"/>
<path d="M394.735 160.703C393.616 160.703 392.737 160.432 392.095 159.892C391.454 159.351 391.133 158.377 391.133 156.968V150.26H389.011V148.515H391.133L391.404 145.591H393.205V148.515H396.807V150.26H393.205V156.968C393.205 157.738 393.362 158.262 393.674 158.54C393.986 158.802 394.537 158.934 395.327 158.934H396.61V160.703H394.735Z" fill="url(#paint41_linear_285_128851)"/>
<path d="M413.666 160.998C411.972 160.998 410.508 160.629 409.275 159.892C408.058 159.138 407.112 158.098 406.438 156.771C405.763 155.428 405.426 153.872 405.426 152.103C405.426 150.35 405.763 148.81 406.438 147.483C407.112 146.14 408.058 145.091 409.275 144.338C410.508 143.584 411.972 143.208 413.666 143.208C415.64 143.208 417.243 143.683 418.477 144.633C419.727 145.566 420.524 146.877 420.87 148.564H418.576C418.312 147.499 417.77 146.648 416.947 146.009C416.141 145.354 415.048 145.026 413.666 145.026C412.433 145.026 411.355 145.313 410.434 145.886C409.513 146.443 408.798 147.254 408.288 148.319C407.794 149.367 407.548 150.628 407.548 152.103C407.548 153.577 407.794 154.846 408.288 155.911C408.798 156.96 409.513 157.77 410.434 158.344C411.355 158.901 412.433 159.179 413.666 159.179C415.048 159.179 416.141 158.868 416.947 158.246C417.77 157.607 418.312 156.763 418.576 155.715H420.87C420.524 157.369 419.727 158.663 418.477 159.597C417.243 160.531 415.64 160.998 413.666 160.998Z" fill="url(#paint42_linear_285_128851)"/>
<path d="M423.725 160.703V143.011H425.797V150.604C426.208 149.85 426.792 149.269 427.549 148.859C428.305 148.433 429.128 148.22 430.016 148.22C431.43 148.22 432.565 148.662 433.42 149.547C434.276 150.415 434.703 151.759 434.703 153.577V160.703H432.655V153.798C432.655 151.259 431.628 149.989 429.572 149.989C428.503 149.989 427.606 150.374 426.883 151.144C426.159 151.898 425.797 152.979 425.797 154.388V160.703H423.725Z" fill="url(#paint43_linear_285_128851)"/>
<path d="M441.913 160.998C440.894 160.998 440.047 160.826 439.372 160.482C438.698 160.138 438.196 159.679 437.867 159.106C437.539 158.532 437.374 157.91 437.374 157.238C437.374 155.993 437.851 155.035 438.805 154.363C439.759 153.692 441.058 153.356 442.703 153.356H446.009V153.208C446.009 152.143 445.729 151.341 445.17 150.8C444.611 150.243 443.862 149.965 442.925 149.965C442.119 149.965 441.42 150.17 440.828 150.579C440.252 150.972 439.89 151.554 439.742 152.324H437.621C437.703 151.439 437.999 150.694 438.509 150.088C439.035 149.482 439.685 149.023 440.458 148.712C441.231 148.384 442.053 148.22 442.925 148.22C444.635 148.22 445.918 148.679 446.773 149.596C447.645 150.497 448.081 151.701 448.081 153.208V160.703H446.231L446.107 158.516C445.762 159.204 445.252 159.794 444.578 160.285C443.92 160.76 443.032 160.998 441.913 160.998ZM442.234 159.253C443.024 159.253 443.698 159.048 444.257 158.639C444.833 158.229 445.269 157.697 445.565 157.041C445.861 156.386 446.009 155.698 446.009 154.977V154.953H442.876C441.658 154.953 440.795 155.166 440.285 155.592C439.792 156.001 439.545 156.517 439.545 157.14C439.545 157.779 439.775 158.295 440.236 158.688C440.713 159.065 441.379 159.253 442.234 159.253Z" fill="url(#paint44_linear_285_128851)"/>
<path d="M451.19 166.108V148.515H453.065L453.262 150.53C453.657 149.94 454.216 149.408 454.94 148.933C455.68 148.458 456.617 148.22 457.752 148.22C458.969 148.22 460.03 148.499 460.935 149.056C461.839 149.613 462.538 150.374 463.032 151.341C463.541 152.307 463.796 153.405 463.796 154.633C463.796 155.862 463.541 156.96 463.032 157.926C462.538 158.876 461.831 159.63 460.91 160.187C460.005 160.727 458.945 160.998 457.727 160.998C456.724 160.998 455.828 160.793 455.038 160.383C454.265 159.974 453.673 159.4 453.262 158.663V166.108H451.19ZM457.505 159.204C458.328 159.204 459.051 159.015 459.676 158.639C460.301 158.245 460.795 157.705 461.157 157.017C461.518 156.329 461.699 155.526 461.699 154.609C461.699 153.692 461.518 152.889 461.157 152.201C460.795 151.513 460.301 150.98 459.676 150.604C459.051 150.211 458.328 150.014 457.505 150.014C456.683 150.014 455.959 150.211 455.334 150.604C454.709 150.98 454.216 151.513 453.854 152.201C453.492 152.889 453.312 153.692 453.312 154.609C453.312 155.526 453.492 156.329 453.854 157.017C454.216 157.705 454.709 158.245 455.334 158.639C455.959 159.015 456.683 159.204 457.505 159.204Z" fill="url(#paint45_linear_285_128851)"/>
<path d="M471.035 160.703C469.916 160.703 469.036 160.432 468.395 159.892C467.753 159.351 467.433 158.377 467.433 156.968V150.26H465.311V148.515H467.433L467.704 145.591H469.505V148.515H473.107V150.26H469.505V156.968C469.505 157.738 469.661 158.262 469.974 158.54C470.286 158.802 470.837 158.934 471.627 158.934H472.91V160.703H471.035Z" fill="url(#paint46_linear_285_128851)"/>
<path d="M480.904 160.998C479.736 160.998 478.7 160.735 477.796 160.211C476.891 159.671 476.175 158.925 475.649 157.975C475.139 157.025 474.884 155.903 474.884 154.609C474.884 153.331 475.139 152.217 475.649 151.267C476.159 150.301 476.866 149.555 477.771 149.031C478.692 148.491 479.753 148.22 480.953 148.22C482.137 148.22 483.157 148.491 484.012 149.031C484.884 149.555 485.55 150.251 486.011 151.12C486.471 151.988 486.702 152.922 486.702 153.921C486.702 154.101 486.693 154.281 486.677 154.461C486.677 154.642 486.677 154.846 486.677 155.076H476.932C476.981 156.009 477.195 156.788 477.574 157.41C477.968 158.016 478.453 158.475 479.029 158.786C479.621 159.097 480.246 159.253 480.904 159.253C481.759 159.253 482.475 159.056 483.05 158.663C483.626 158.27 484.045 157.738 484.309 157.066H486.356C486.027 158.196 485.394 159.138 484.456 159.892C483.535 160.629 482.351 160.998 480.904 160.998ZM480.904 149.965C479.917 149.965 479.037 150.268 478.264 150.874C477.508 151.464 477.072 152.332 476.957 153.479H484.654C484.605 152.381 484.226 151.521 483.519 150.899C482.812 150.276 481.94 149.965 480.904 149.965Z" fill="url(#paint47_linear_285_128851)"/>
<path d="M489.448 160.703V148.515H491.323L491.496 150.849C491.874 150.047 492.45 149.408 493.223 148.933C493.996 148.458 494.95 148.22 496.085 148.22V150.383H495.517C494.793 150.383 494.127 150.514 493.519 150.776C492.91 151.021 492.425 151.447 492.063 152.053C491.701 152.66 491.521 153.495 491.521 154.56V160.703H489.448Z" fill="url(#paint48_linear_285_128851)"/>
<path fill-rule="evenodd" clip-rule="evenodd" d="M79.0503 9.59587C91.8375 -3.19863 112.57 -3.19862 125.357 9.59589L194.817 79.0954C207.604 91.8899 207.604 112.634 194.817 125.428L125.357 194.928C112.57 207.722 91.8375 207.722 79.0503 194.928L9.5904 125.428C-3.19681 112.634 -3.19679 91.8899 9.59042 79.0954L79.0503 9.59587ZM84.7402 94.4698C84.6971 94.5657 84.6472 94.6765 84.4425 94.6943V91.0085C84.4425 90.4454 84.4425 90.4352 83.8797 90.4352H77.5663C76.9933 90.4352 76.983 90.4352 76.983 90.9983V113.645C76.983 114.167 76.9933 114.178 77.5254 114.178H84.6369C85.1688 114.178 85.169 114.167 85.1792 113.646V103.95C85.1792 103.049 85.2508 102.158 85.4146 101.267C85.609 100.172 85.9466 99.1274 86.622 98.2162C87.6452 96.8443 89.3029 96.4962 90.674 96.7931C91.7791 97.0286 92.4033 97.8272 92.7717 98.8408C93.0889 99.711 93.1605 100.632 93.1605 101.554V113.4C93.1605 113.447 93.1616 113.495 93.1628 113.543C93.165 113.638 93.1673 113.734 93.1605 113.83C93.14 114.106 93.2833 114.188 93.5289 114.167C93.5971 114.161 93.6653 114.163 93.7335 114.165C93.7676 114.166 93.8017 114.167 93.8358 114.167H101.07C101.275 114.178 101.367 114.075 101.357 113.871C101.35 113.775 101.352 113.679 101.354 113.584C101.355 113.536 101.357 113.488 101.357 113.441C101.357 112.437 101.358 111.434 101.359 110.432C101.361 108.429 101.363 106.426 101.357 104.421C101.357 103.54 101.377 102.66 101.5 101.789C101.643 100.745 101.889 99.7417 102.4 98.8101C102.892 97.9296 103.567 97.2334 104.559 96.9262C106.8 96.2403 108.53 97.0081 109.103 99.3732C109.256 100.018 109.328 100.663 109.328 101.318V113.901C109.328 114.065 109.389 114.167 109.573 114.167H116.869L116.979 114.168C117.259 114.169 117.396 114.169 117.463 114.101C117.527 114.035 117.526 113.904 117.525 113.648L117.524 113.492C117.524 112.133 117.523 110.776 117.522 109.418C117.519 106.706 117.517 103.993 117.524 101.277C117.524 100.172 117.493 99.0762 117.432 97.9705C117.381 96.9262 117.217 95.8922 116.93 94.8888C116.183 92.2269 114.454 90.6195 111.743 90.0973C110.33 89.8311 108.908 89.7594 107.476 89.9744C105.378 90.2918 103.536 91.1314 102.032 92.6773C101.654 93.0628 101.335 93.4948 101.017 93.9251C100.912 94.0659 100.808 94.2074 100.702 94.3462C100.565 94.2417 100.504 94.1056 100.445 93.9727C100.429 93.9363 100.412 93.9002 100.395 93.865C99.5353 92.145 98.1948 90.988 96.3939 90.3635C94.5419 89.7185 92.6591 89.7083 90.7661 90.0973C88.1364 90.6399 86.0592 92.0016 84.7597 94.4281L84.7402 94.4698ZM51.4123 112.396C51.2281 110.625 51.1974 108.844 51.2076 107.072V99.6496C51.2076 98.9329 51.1769 98.2162 51.0439 97.5098C50.5834 94.94 49.3351 92.9026 47.0533 91.5409C45.457 90.5887 43.7073 90.1587 41.8859 89.9539C40.3101 89.7799 38.7446 89.8311 37.179 89.9642C35.0302 90.1485 32.9325 90.5785 30.9168 91.3566L30.9062 91.3607C30.4459 91.5409 30.4359 91.5448 30.4461 92.063C30.476 93.5386 30.5156 95.0045 30.5554 96.4795L30.5586 96.5986C30.5586 96.6246 30.5554 96.6525 30.5521 96.6812C30.5398 96.7881 30.526 96.9069 30.6712 96.9876C30.8392 96.9129 31.0051 96.8339 31.1718 96.7546C31.3704 96.66 31.5706 96.5647 31.7763 96.4757C34.2628 95.4417 36.872 95.1755 39.5324 95.37C40.2078 95.4212 40.8627 95.5952 41.4766 95.8819C42.7761 96.4757 43.4105 97.52 43.5538 98.9124C43.6049 99.4141 43.564 99.4448 43.0729 99.3731C40.6478 99.0148 38.2227 99.0455 35.8078 99.4039C34.14 99.6496 32.5233 100.09 31.0498 100.94C29.1773 102.015 27.9698 103.591 27.6015 105.752C27.5986 105.77 27.596 105.789 27.5936 105.808C27.592 105.82 27.5905 105.833 27.589 105.845C27.5684 106.014 27.5471 106.189 27.3661 106.284V108.127C27.5298 108.25 27.5605 108.434 27.5912 108.618C27.9801 110.983 29.3 112.632 31.4284 113.676C32.9223 114.413 34.5288 114.69 36.166 114.731C37.2915 114.761 38.4069 114.618 39.4813 114.229C41.2106 113.615 42.4794 112.447 43.5129 110.973L43.5354 110.94L43.5491 110.918L43.5871 110.855C43.6746 110.707 43.7678 110.549 44.0245 110.461C44.0245 110.558 44.0232 110.647 44.022 110.732C44.0198 110.888 44.0178 111.028 44.0245 111.168C44.0409 111.522 44.0607 111.874 44.0805 112.226C44.1098 112.75 44.1391 113.272 44.1575 113.799C44.1677 114.055 44.2496 114.188 44.5156 114.157C44.5702 114.15 44.6248 114.153 44.6793 114.155L44.7221 114.157L44.7612 114.157H51.0746C51.1114 114.157 51.1483 114.159 51.1851 114.16C51.3325 114.167 51.4798 114.174 51.6272 114.075C51.5972 113.805 51.5599 113.533 51.5224 113.259C51.4831 112.972 51.4437 112.684 51.4123 112.396ZM37.2097 109.089C36.2683 108.864 35.5316 108.332 35.2246 107.359C34.8767 106.263 35.3065 105.055 36.2683 104.39C36.9539 103.909 37.7418 103.694 38.5604 103.591C39.1641 103.509 39.778 103.438 40.392 103.468C40.8729 103.489 41.3513 103.512 41.8296 103.535C42.308 103.558 42.7864 103.581 43.2673 103.602C43.5129 103.612 43.5845 103.714 43.5742 103.939C43.4515 106.837 41.0571 110.031 37.2097 109.089ZM132.453 98.9022C132.995 98.9022 132.995 98.9124 133.006 99.4238V104.39C133.006 104.892 132.995 104.902 132.504 104.902H121.167C120.655 104.902 120.645 104.892 120.645 104.4V99.3732C120.645 98.9124 120.655 98.9022 121.116 98.9022H132.453ZM72.5012 96.701C72.7877 96.8238 73.0537 96.9569 73.3403 97.1003C73.4588 96.8545 73.4723 96.6158 73.485 96.3899L73.4882 96.3338L73.4938 96.2505C73.6369 94.767 73.7804 93.2803 73.9337 91.7969L73.9396 91.7398C73.9958 91.1925 73.9966 91.1848 73.4324 90.9471C71.9487 90.3225 70.3933 90.0359 68.7868 89.9233C66.1162 89.739 63.5172 90.0564 61.0409 91.0802C57.7972 92.4214 55.4745 94.6943 54.3284 98.0524C53.694 99.9363 53.5201 101.871 53.735 103.858C53.9601 105.844 54.5638 107.687 55.7098 109.335C57.3675 111.71 59.6698 113.185 62.412 114.014C64.8269 114.741 67.3031 114.894 69.8101 114.608C71.1301 114.454 72.4296 114.208 73.7086 113.83C74.0463 113.727 74.1589 113.574 74.1486 113.226C74.1075 112.032 74.0755 110.843 74.0436 109.653L74.0434 109.646C74.0277 109.063 74.0119 108.476 73.9951 107.891C73.9933 107.878 73.9928 107.864 73.9922 107.85C73.99 107.788 73.9875 107.72 73.8621 107.687C73.7738 107.72 73.6796 107.759 73.5826 107.799C73.4998 107.833 73.4149 107.869 73.33 107.902C71.5087 108.608 69.6259 108.925 67.6817 108.618C65.359 108.239 63.5785 107.052 62.5962 104.851C62.0744 103.683 62.0335 102.445 62.2074 101.185C62.5553 98.636 64.2539 96.6703 66.7608 96.0764C68.7357 95.6157 70.6594 95.8819 72.5012 96.701ZM146.707 107.543C146.881 107.294 146.921 107.085 146.957 106.895C146.965 106.851 146.973 106.808 146.983 106.765C148.231 101.564 149.48 96.3529 150.718 91.1416L150.738 91.0603C150.772 90.9263 150.805 90.7967 150.83 90.6604C150.871 90.4761 150.994 90.384 151.189 90.3942C151.257 90.401 151.325 90.3988 151.393 90.3965C151.427 90.3953 151.461 90.3942 151.496 90.3942H160.142C160.746 90.3942 160.746 90.3942 160.889 91.0085L164.665 107.062C164.667 107.075 164.67 107.087 164.673 107.1C164.674 107.109 164.676 107.117 164.678 107.126C164.7 107.243 164.724 107.371 164.88 107.492L164.947 107.189C165.148 106.286 165.34 105.419 165.524 104.554C165.821 103.198 166.117 101.842 166.413 100.487L166.43 100.407L166.432 100.401C167.118 97.2546 167.806 94.1065 168.502 90.9573C168.512 90.9146 168.52 90.8751 168.527 90.8387C168.535 90.8037 168.541 90.7715 168.547 90.7419C168.577 90.5888 168.594 90.5049 168.644 90.459C168.706 90.4034 168.818 90.4037 169.066 90.4043L169.157 90.4045H176.023C176.046 90.4045 176.069 90.4034 176.093 90.4019L176.124 90.3999C176.233 90.3925 176.341 90.3853 176.442 90.4556C176.489 90.6196 176.435 90.7598 176.379 90.9034L176.361 90.9509C176.35 90.98 176.339 91.0094 176.33 91.0392L176.32 91.0695C174.031 98.5845 171.742 106.1 169.443 113.615L169.402 113.752C169.336 113.972 169.305 114.076 169.235 114.123C169.174 114.166 169.081 114.164 168.907 114.16C168.876 114.159 168.842 114.159 168.806 114.158C168.772 114.158 168.735 114.157 168.696 114.157H160.295C159.753 114.157 159.753 114.157 159.63 113.615C158.361 108.199 157.103 102.793 155.844 97.3767C155.838 97.3525 155.833 97.3274 155.828 97.3015C155.81 97.2069 155.791 97.1024 155.67 96.9979L155.641 97.0754C155.59 97.2106 155.541 97.3397 155.507 97.4688C154.105 102.823 152.703 108.178 151.291 113.543C151.28 113.585 151.267 113.627 151.254 113.668C151.23 113.745 151.205 113.821 151.199 113.901C151.168 114.106 151.045 114.167 150.851 114.157H142.143L142.054 114.157C141.815 114.158 141.701 114.158 141.63 114.103C141.565 114.052 141.536 113.955 141.48 113.769L141.437 113.625L140.097 109.252C138.22 103.13 136.343 97.0046 134.459 90.8857C134.45 90.8585 134.441 90.8314 134.431 90.804C134.393 90.6974 134.354 90.5881 134.387 90.4659C134.512 90.3798 134.655 90.3894 134.793 90.3988C134.818 90.4004 134.843 90.4021 134.868 90.4032C134.885 90.404 134.902 90.4045 134.919 90.4045H142.276C142.849 90.4045 142.849 90.4044 142.982 90.988C143.511 93.3536 144.042 95.7192 144.573 98.0857C145.224 100.984 145.875 103.883 146.523 106.786C146.574 107 146.625 107.217 146.707 107.543ZM44.3593 128.175L48.6651 139.642H50.2695L54.5753 128.175H53.1182L49.4673 138.184L45.8491 128.175H44.3593ZM56.1465 128.175V139.642H57.5217V128.175H56.1465ZM62.6367 129.305V139.642H64.0119V129.305H67.4336V128.175H59.2149V129.305H62.6367ZM75.5576 139.101C76.3762 139.593 77.3476 139.838 78.4718 139.838C79.7816 139.838 80.8457 139.527 81.6643 138.905C82.4938 138.282 83.0232 137.419 83.2524 136.316H81.7298C81.5552 137.015 81.195 137.578 80.6493 138.004C80.1145 138.419 79.3886 138.626 78.4718 138.626C77.6532 138.626 76.9383 138.44 76.3271 138.069C75.7159 137.687 75.2411 137.146 74.9027 136.447C74.5753 135.737 74.4116 134.891 74.4116 133.908C74.4116 132.925 74.5753 132.084 74.9027 131.386C75.2411 130.676 75.7159 130.135 76.3271 129.764C76.9383 129.382 77.6532 129.19 78.4718 129.19C79.3886 129.19 80.1145 129.409 80.6493 129.846C81.195 130.272 81.5552 130.84 81.7298 131.549H83.2524C83.0232 130.425 82.4938 129.551 81.6643 128.928C80.8457 128.295 79.7816 127.978 78.4718 127.978C77.3476 127.978 76.3762 128.229 75.5576 128.732C74.7499 129.234 74.1224 129.933 73.6749 130.829C73.2274 131.713 73.0036 132.74 73.0036 133.908C73.0036 135.088 73.2274 136.125 73.6749 137.021C74.1224 137.905 74.7499 138.599 75.5576 139.101ZM86.7842 139.314C87.3955 139.664 88.0831 139.838 88.8471 139.838C89.6111 139.838 90.2987 139.664 90.9099 139.314C91.5321 138.965 92.0232 138.473 92.3834 137.84C92.7436 137.195 92.9237 136.442 92.9237 135.579C92.9237 134.716 92.7436 133.968 92.3834 133.335C92.0341 132.691 91.5539 132.194 90.9427 131.844C90.3315 131.495 89.6439 131.32 88.8798 131.32C88.1158 131.32 87.4227 131.495 86.8006 131.844C86.1894 132.194 85.7037 132.691 85.3435 133.335C84.9833 133.968 84.8032 134.716 84.8032 135.579C84.8032 136.442 84.9779 137.195 85.3271 137.84C85.6873 138.473 86.173 138.965 86.7842 139.314ZM90.1568 138.315C89.753 138.544 89.3164 138.659 88.8471 138.659C88.3887 138.659 87.9576 138.544 87.5537 138.315C87.1608 138.085 86.8388 137.741 86.5878 137.283C86.3367 136.824 86.2112 136.256 86.2112 135.579C86.2112 134.902 86.3367 134.334 86.5878 133.875C86.8388 133.417 87.1663 133.073 87.5701 132.843C87.9739 132.614 88.4105 132.499 88.8798 132.499C89.3382 132.499 89.7694 132.614 90.1732 132.843C90.5771 133.073 90.899 133.417 91.1392 133.875C91.3902 134.334 91.5157 134.902 91.5157 135.579C91.5157 136.256 91.3902 136.824 91.1392 137.283C90.8881 137.741 90.5607 138.085 90.1568 138.315ZM94.8359 131.517V139.642H96.2111V135.432C96.2111 134.493 96.4239 133.772 96.8496 133.269C97.2862 132.756 97.8265 132.499 98.4704 132.499C99.1035 132.499 99.5892 132.712 99.9275 133.138C100.266 133.564 100.435 134.198 100.435 135.039V139.642H101.81V135.432C101.81 134.493 102.023 133.772 102.449 133.269C102.885 132.756 103.431 132.499 104.086 132.499C104.719 132.499 105.205 132.712 105.543 133.138C105.881 133.564 106.051 134.198 106.051 135.039V139.642H107.409V134.891C107.409 133.679 107.12 132.783 106.542 132.205C105.963 131.615 105.188 131.32 104.217 131.32C103.638 131.32 103.098 131.462 102.596 131.746C102.105 132.03 101.717 132.418 101.434 132.909C101.183 132.374 100.823 131.975 100.353 131.713C99.8948 131.451 99.3436 131.32 98.6996 131.32C98.1539 131.32 97.6627 131.44 97.2262 131.68C96.7896 131.921 96.4403 132.259 96.1784 132.696L96.0801 131.517H94.8359ZM109.481 131.517V139.642H110.856V135.432C110.856 134.493 111.069 133.772 111.495 133.269C111.931 132.756 112.472 132.499 113.116 132.499C113.749 132.499 114.234 132.712 114.573 133.138C114.911 133.564 115.08 134.198 115.08 135.039V139.642H116.455V135.432C116.455 134.493 116.668 133.772 117.094 133.269C117.53 132.756 118.076 132.499 118.731 132.499C119.364 132.499 119.85 132.712 120.188 133.138C120.527 133.564 120.696 134.198 120.696 135.039V139.642H122.055V134.891C122.055 133.679 121.765 132.783 121.187 132.205C120.608 131.615 119.833 131.32 118.862 131.32C118.284 131.32 117.743 131.462 117.241 131.746C116.75 132.03 116.363 132.418 116.079 132.909C115.828 132.374 115.468 131.975 114.998 131.713C114.54 131.451 113.989 131.32 113.345 131.32C112.799 131.32 112.308 131.44 111.871 131.68C111.435 131.921 111.085 132.259 110.823 132.696L110.725 131.517H109.481ZM124.797 138.97C125.365 139.549 126.129 139.838 127.089 139.838C127.712 139.838 128.268 139.691 128.759 139.396C129.261 139.101 129.638 138.697 129.889 138.184L129.987 139.642H131.232V131.517H129.856V135.727C129.856 136.666 129.622 137.392 129.152 137.905C128.694 138.408 128.11 138.659 127.4 138.659C126.014 138.659 125.321 137.812 125.321 136.12V131.517H123.946V136.267C123.946 137.479 124.23 138.38 124.797 138.97ZM133.495 131.517V139.642H134.87V135.432C134.87 134.493 135.1 133.772 135.558 133.269C136.027 132.756 136.611 132.499 137.31 132.499C138.707 132.499 139.405 133.346 139.405 135.039V139.642H140.781V134.891C140.781 133.679 140.491 132.783 139.913 132.205C139.345 131.615 138.581 131.32 137.621 131.32C136.999 131.32 136.442 131.467 135.951 131.762C135.46 132.057 135.083 132.461 134.821 132.975L134.739 131.517H133.495ZM143.012 129.453C143.197 129.627 143.426 129.715 143.699 129.715C143.961 129.715 144.185 129.627 144.37 129.453C144.556 129.267 144.649 129.038 144.649 128.765C144.649 128.502 144.556 128.284 144.37 128.109C144.185 127.935 143.961 127.847 143.699 127.847C143.426 127.847 143.197 127.935 143.012 128.109C142.837 128.284 142.75 128.502 142.75 128.765C142.75 129.038 142.837 129.267 143.012 129.453ZM143.012 131.517V139.642H144.387V131.517H143.012ZM148.238 139.101C148.664 139.461 149.248 139.642 149.99 139.642H151.234V138.462H150.383C149.859 138.462 149.494 138.375 149.286 138.2C149.079 138.014 148.975 137.665 148.975 137.152V132.68H151.365V131.517H148.975V129.567H147.78L147.6 131.517H146.192V132.68H147.6V137.152C147.6 138.091 147.813 138.741 148.238 139.101ZM156.01 138.855L153.997 143.246H155.437L160.758 131.517H159.334L156.485 137.84L153.8 131.517H152.31L155.536 138.855H156.01Z" fill="url(#paint49_linear_285_128851)"/>
<path d="M127.083 199.624C140.955 203.655 156.541 200.2 167.477 189.257L225.361 131.341C241.345 115.347 241.345 89.4175 225.361 73.4244L167.477 15.5081C156.462 4.4859 140.729 1.05999 126.78 5.23037C128.841 6.52109 130.79 8.06323 132.583 9.85679L202.043 79.3563C214.83 92.1508 214.83 112.895 202.043 125.689L132.583 195.189C130.878 196.895 129.032 198.373 127.083 199.624Z" fill="url(#paint50_linear_285_128851)"/>
</g>
<defs>
<filter id="filter0_n_285_128851" x="0" y="0" width="618" height="204.523" filterUnits="userSpaceOnUse" color-interpolation-filters="sRGB">
<feFlood flood-opacity="0" result="BackgroundImageFix"/>
<feBlend mode="normal" in="SourceGraphic" in2="BackgroundImageFix" result="shape"/>
<feTurbulence type="fractalNoise" baseFrequency="0.78750002384185791 0.78750002384185791" stitchTiles="stitch" numOctaves="3" result="noise" seed="1840" />
<feColorMatrix in="noise" type="luminanceToAlpha" result="alphaNoise" />
<feComponentTransfer in="alphaNoise" result="coloredNoise1">
<feFuncA type="discrete" tableValues="1 1 1 1 1 1 1 1 1 1 1 1 1 1 1 1 1 1 1 1 1 1 1 1 1 1 1 1 1 1 1 1 1 1 1 1 1 1 1 1 1 1 1 1 1 1 1 1 1 1 1 0 0 0 0 0 0 0 0 0 0 0 0 0 0 0 0 0 0 0 0 0 0 0 0 0 0 0 0 0 0 0 0 0 0 0 0 0 0 0 0 0 0 0 0 0 0 0 0 0 "/>
</feComponentTransfer>
<feComposite operator="in" in2="shape" in="coloredNoise1" result="noise1Clipped" />
<feComponentTransfer in="alphaNoise" result="coloredNoise2">
<feFuncA type="discrete" tableValues="0 0 0 0 0 0 0 0 0 0 0 0 0 0 0 0 0 0 0 0 0 0 0 0 0 0 0 0 0 0 0 0 0 0 0 0 0 0 0 0 0 0 0 0 0 0 0 0 0 1 1 1 1 1 1 1 1 1 1 1 1 1 1 1 1 1 1 1 1 1 1 1 1 1 1 1 1 1 1 1 1 1 1 1 1 1 1 1 1 1 1 1 1 1 1 1 1 1 1 1 "/>
</feComponentTransfer>
<feComposite operator="in" in2="shape" in="coloredNoise2" result="noise2Clipped" />
<feFlood flood-color="rgba(0, 0, 0, 0.25)" result="color1Flood" />
<feComposite operator="in" in2="noise1Clipped" in="color1Flood" result="color1" />
<feFlood flood-color="rgba(255, 255, 255, 0.25)" result="color2Flood" />
<feComposite operator="in" in2="noise2Clipped" in="color2Flood" result="color2" />
<feMerge result="effect1_noise_285_128851">
<feMergeNode in="shape" />
<feMergeNode in="color1" />
<feMergeNode in="color2" />
</feMerge>
</filter>
<linearGradient id="paint0_linear_285_128851" x1="459.893" y1="216.387" x2="456.086" y2="-34.168" gradientUnits="userSpaceOnUse">
<stop stop-color="#EFEFEF"/>
<stop offset="1" stop-color="#FF007A"/>
</linearGradient>
<linearGradient id="paint1_linear_285_128851" x1="459.893" y1="216.387" x2="456.086" y2="-34.168" gradientUnits="userSpaceOnUse">
<stop stop-color="#EFEFEF"/>
<stop offset="1" stop-color="#FF007A"/>
</linearGradient>
<linearGradient id="paint2_linear_285_128851" x1="459.893" y1="216.387" x2="456.086" y2="-34.168" gradientUnits="userSpaceOnUse">
<stop stop-color="#EFEFEF"/>
<stop offset="1" stop-color="#FF007A"/>
</linearGradient>
<linearGradient id="paint3_linear_285_128851" x1="459.893" y1="216.387" x2="456.086" y2="-34.168" gradientUnits="userSpaceOnUse">
<stop stop-color="#EFEFEF"/>
<stop offset="1" stop-color="#FF007A"/>
</linearGradient>
<linearGradient id="paint4_linear_285_128851" x1="459.893" y1="216.387" x2="456.086" y2="-34.168" gradientUnits="userSpaceOnUse">
<stop stop-color="#EFEFEF"/>
<stop offset="1" stop-color="#FF007A"/>
</linearGradient>
<linearGradient id="paint5_linear_285_128851" x1="459.893" y1="216.387" x2="456.086" y2="-34.168" gradientUnits="userSpaceOnUse">
<stop stop-color="#EFEFEF"/>
<stop offset="1" stop-color="#FF007A"/>
</linearGradient>
<linearGradient id="paint6_linear_285_128851" x1="459.893" y1="216.387" x2="456.086" y2="-34.168" gradientUnits="userSpaceOnUse">
<stop stop-color="#EFEFEF"/>
<stop offset="1" stop-color="#FF007A"/>
</linearGradient>
<linearGradient id="paint7_linear_285_128851" x1="459.893" y1="216.387" x2="456.086" y2="-34.168" gradientUnits="userSpaceOnUse">
<stop stop-color="#EFEFEF"/>
<stop offset="1" stop-color="#FF007A"/>
</linearGradient>
<linearGradient id="paint8_linear_285_128851" x1="459.893" y1="216.387" x2="456.086" y2="-34.168" gradientUnits="userSpaceOnUse">
<stop stop-color="#EFEFEF"/>
<stop offset="1" stop-color="#FF007A"/>
</linearGradient>
<linearGradient id="paint9_linear_285_128851" x1="459.893" y1="216.387" x2="456.086" y2="-34.168" gradientUnits="userSpaceOnUse">
<stop stop-color="#EFEFEF"/>
<stop offset="1" stop-color="#FF007A"/>
</linearGradient>
<linearGradient id="paint10_linear_285_128851" x1="459.893" y1="216.387" x2="456.086" y2="-34.168" gradientUnits="userSpaceOnUse">
<stop stop-color="#EFEFEF"/>
<stop offset="1" stop-color="#FF007A"/>
</linearGradient>
<linearGradient id="paint11_linear_285_128851" x1="459.893" y1="216.387" x2="456.086" y2="-34.168" gradientUnits="userSpaceOnUse">
<stop stop-color="#EFEFEF"/>
<stop offset="1" stop-color="#FF007A"/>
</linearGradient>
<linearGradient id="paint12_linear_285_128851" x1="459.893" y1="216.387" x2="456.086" y2="-34.168" gradientUnits="userSpaceOnUse">
<stop stop-color="#EFEFEF"/>
<stop offset="1" stop-color="#FF007A"/>
</linearGradient>
<linearGradient id="paint13_linear_285_128851" x1="459.893" y1="216.387" x2="456.086" y2="-34.168" gradientUnits="userSpaceOnUse">
<stop stop-color="#EFEFEF"/>
<stop offset="1" stop-color="#FF007A"/>
</linearGradient>
<linearGradient id="paint14_linear_285_128851" x1="459.893" y1="216.387" x2="456.086" y2="-34.168" gradientUnits="userSpaceOnUse">
<stop stop-color="#EFEFEF"/>
<stop offset="1" stop-color="#FF007A"/>
</linearGradient>
<linearGradient id="paint15_linear_285_128851" x1="459.893" y1="216.387" x2="456.086" y2="-34.168" gradientUnits="userSpaceOnUse">
<stop stop-color="#EFEFEF"/>
<stop offset="1" stop-color="#FF007A"/>
</linearGradient>
<linearGradient id="paint16_linear_285_128851" x1="459.893" y1="216.387" x2="456.086" y2="-34.168" gradientUnits="userSpaceOnUse">
<stop stop-color="#EFEFEF"/>
<stop offset="1" stop-color="#FF007A"/>
</linearGradient>
<linearGradient id="paint17_linear_285_128851" x1="459.893" y1="216.387" x2="456.086" y2="-34.168" gradientUnits="userSpaceOnUse">
<stop stop-color="#EFEFEF"/>
<stop offset="1" stop-color="#FF007A"/>
</linearGradient>
<linearGradient id="paint18_linear_285_128851" x1="459.893" y1="216.387" x2="456.086" y2="-34.168" gradientUnits="userSpaceOnUse">
<stop stop-color="#EFEFEF"/>
<stop offset="1" stop-color="#FF007A"/>
</linearGradient>
<linearGradient id="paint19_linear_285_128851" x1="459.893" y1="216.387" x2="456.086" y2="-34.168" gradientUnits="userSpaceOnUse">
<stop stop-color="#EFEFEF"/>
<stop offset="1" stop-color="#FF007A"/>
</linearGradient>
<linearGradient id="paint20_linear_285_128851" x1="459.893" y1="216.387" x2="456.086" y2="-34.168" gradientUnits="userSpaceOnUse">
<stop stop-color="#EFEFEF"/>
<stop offset="1" stop-color="#FF007A"/>
</linearGradient>
<linearGradient id="paint21_linear_285_128851" x1="459.893" y1="216.387" x2="456.086" y2="-34.168" gradientUnits="userSpaceOnUse">
<stop stop-color="#EFEFEF"/>
<stop offset="1" stop-color="#FF007A"/>
</linearGradient>
<linearGradient id="paint22_linear_285_128851" x1="459.893" y1="216.387" x2="456.086" y2="-34.168" gradientUnits="userSpaceOnUse">
<stop stop-color="#EFEFEF"/>
<stop offset="1" stop-color="#FF007A"/>
</linearGradient>
<linearGradient id="paint23_linear_285_128851" x1="459.893" y1="216.387" x2="456.086" y2="-34.168" gradientUnits="userSpaceOnUse">
<stop stop-color="#EFEFEF"/>
<stop offset="1" stop-color="#FF007A"/>
</linearGradient>
<linearGradient id="paint24_linear_285_128851" x1="459.893" y1="216.387" x2="456.086" y2="-34.168" gradientUnits="userSpaceOnUse">
<stop stop-color="#EFEFEF"/>
<stop offset="1" stop-color="#FF007A"/>
</linearGradient>
<linearGradient id="paint25_linear_285_128851" x1="459.893" y1="216.387" x2="456.086" y2="-34.168" gradientUnits="userSpaceOnUse">
<stop stop-color="#EFEFEF"/>
<stop offset="1" stop-color="#FF007A"/>
</linearGradient>
<linearGradient id="paint26_linear_285_128851" x1="459.893" y1="216.387" x2="456.086" y2="-34.168" gradientUnits="userSpaceOnUse">
<stop stop-color="#EFEFEF"/>
<stop offset="1" stop-color="#FF007A"/>
</linearGradient>
<linearGradient id="paint27_linear_285_128851" x1="459.893" y1="216.387" x2="456.086" y2="-34.168" gradientUnits="userSpaceOnUse">
<stop stop-color="#EFEFEF"/>
<stop offset="1" stop-color="#FF007A"/>
</linearGradient>
<linearGradient id="paint28_linear_285_128851" x1="459.893" y1="216.387" x2="456.086" y2="-34.168" gradientUnits="userSpaceOnUse">
<stop stop-color="#EFEFEF"/>
<stop offset="1" stop-color="#FF007A"/>
</linearGradient>
<linearGradient id="paint29_linear_285_128851" x1="459.893" y1="216.387" x2="456.086" y2="-34.168" gradientUnits="userSpaceOnUse">
<stop stop-color="#EFEFEF"/>
<stop offset="1" stop-color="#FF007A"/>
</linearGradient>
<linearGradient id="paint30_linear_285_128851" x1="459.893" y1="216.387" x2="456.086" y2="-34.168" gradientUnits="userSpaceOnUse">
<stop stop-color="#EFEFEF"/>
<stop offset="1" stop-color="#FF007A"/>
</linearGradient>
<linearGradient id="paint31_linear_285_128851" x1="459.893" y1="216.387" x2="456.086" y2="-34.168" gradientUnits="userSpaceOnUse">
<stop stop-color="#EFEFEF"/>
<stop offset="1" stop-color="#FF007A"/>
</linearGradient>
<linearGradient id="paint32_linear_285_128851" x1="459.893" y1="216.387" x2="456.086" y2="-34.168" gradientUnits="userSpaceOnUse">
<stop stop-color="#EFEFEF"/>
<stop offset="1" stop-color="#FF007A"/>
</linearGradient>
<linearGradient id="paint33_linear_285_128851" x1="459.893" y1="216.387" x2="456.086" y2="-34.168" gradientUnits="userSpaceOnUse">
<stop stop-color="#EFEFEF"/>
<stop offset="1" stop-color="#FF007A"/>
</linearGradient>
<linearGradient id="paint34_linear_285_128851" x1="459.893" y1="216.387" x2="456.086" y2="-34.168" gradientUnits="userSpaceOnUse">
<stop stop-color="#EFEFEF"/>
<stop offset="1" stop-color="#FF007A"/>
</linearGradient>
<linearGradient id="paint35_linear_285_128851" x1="459.893" y1="216.387" x2="456.086" y2="-34.168" gradientUnits="userSpaceOnUse">
<stop stop-color="#EFEFEF"/>
<stop offset="1" stop-color="#FF007A"/>
</linearGradient>
<linearGradient id="paint36_linear_285_128851" x1="459.893" y1="216.387" x2="456.086" y2="-34.168" gradientUnits="userSpaceOnUse">
<stop stop-color="#EFEFEF"/>
<stop offset="1" stop-color="#FF007A"/>
</linearGradient>
<linearGradient id="paint37_linear_285_128851" x1="459.893" y1="216.387" x2="456.086" y2="-34.168" gradientUnits="userSpaceOnUse">
<stop stop-color="#EFEFEF"/>
<stop offset="1" stop-color="#FF007A"/>
</linearGradient>
<linearGradient id="paint38_linear_285_128851" x1="459.893" y1="216.387" x2="456.086" y2="-34.168" gradientUnits="userSpaceOnUse">
<stop stop-color="#EFEFEF"/>
<stop offset="1" stop-color="#FF007A"/>
</linearGradient>
<linearGradient id="paint39_linear_285_128851" x1="459.893" y1="216.387" x2="456.086" y2="-34.168" gradientUnits="userSpaceOnUse">
<stop stop-color="#EFEFEF"/>
<stop offset="1" stop-color="#FF007A"/>
</linearGradient>
<linearGradient id="paint40_linear_285_128851" x1="459.893" y1="216.387" x2="456.086" y2="-34.168" gradientUnits="userSpaceOnUse">
<stop stop-color="#EFEFEF"/>
<stop offset="1" stop-color="#FF007A"/>
</linearGradient>
<linearGradient id="paint41_linear_285_128851" x1="459.893" y1="216.387" x2="456.086" y2="-34.168" gradientUnits="userSpaceOnUse">
<stop stop-color="#EFEFEF"/>
<stop offset="1" stop-color="#FF007A"/>
</linearGradient>
<linearGradient id="paint42_linear_285_128851" x1="459.893" y1="216.387" x2="456.086" y2="-34.168" gradientUnits="userSpaceOnUse">
<stop stop-color="#EFEFEF"/>
<stop offset="1" stop-color="#FF007A"/>
</linearGradient>
<linearGradient id="paint43_linear_285_128851" x1="459.893" y1="216.387" x2="456.086" y2="-34.168" gradientUnits="userSpaceOnUse">
<stop stop-color="#EFEFEF"/>
<stop offset="1" stop-color="#FF007A"/>
</linearGradient>
<linearGradient id="paint44_linear_285_128851" x1="459.893" y1="216.387" x2="456.086" y2="-34.168" gradientUnits="userSpaceOnUse">
<stop stop-color="#EFEFEF"/>
<stop offset="1" stop-color="#FF007A"/>
</linearGradient>
<linearGradient id="paint45_linear_285_128851" x1="459.893" y1="216.387" x2="456.086" y2="-34.168" gradientUnits="userSpaceOnUse">
<stop stop-color="#EFEFEF"/>
<stop offset="1" stop-color="#FF007A"/>
</linearGradient>
<linearGradient id="paint46_linear_285_128851" x1="459.893" y1="216.387" x2="456.086" y2="-34.168" gradientUnits="userSpaceOnUse">
<stop stop-color="#EFEFEF"/>
<stop offset="1" stop-color="#FF007A"/>
</linearGradient>
<linearGradient id="paint47_linear_285_128851" x1="459.893" y1="216.387" x2="456.086" y2="-34.168" gradientUnits="userSpaceOnUse">
<stop stop-color="#EFEFEF"/>
<stop offset="1" stop-color="#FF007A"/>
</linearGradient>
<linearGradient id="paint48_linear_285_128851" x1="459.893" y1="216.387" x2="456.086" y2="-34.168" gradientUnits="userSpaceOnUse">
<stop stop-color="#EFEFEF"/>
<stop offset="1" stop-color="#FF007A"/>
</linearGradient>
<linearGradient id="paint49_linear_285_128851" x1="131.156" y1="288" x2="115.552" y2="-127.501" gradientUnits="userSpaceOnUse">
<stop stop-color="#EFEFEF"/>
<stop offset="1" stop-color="#FF007A"/>
</linearGradient>
<linearGradient id="paint50_linear_285_128851" x1="131.156" y1="288" x2="115.552" y2="-127.501" gradientUnits="userSpaceOnUse">
<stop stop-color="#EFEFEF"/>
<stop offset="1" stop-color="#FF007A"/>
</linearGradient>
</defs>
</svg>
