<svg width="24" height="24" viewBox="0 0 50 50" fill="none" xmlns="http://www.w3.org/2000/svg">
    <path d="M25.3794 10C21.7275 10.0001 18.1948 11.2998 15.4136 13.6662C12.6322 16.0327 10.7836 19.3117 10.1986 22.9165C9.61366 26.5211 10.3305 30.2164 12.2207 33.3411C14.1109 36.4655 17.0513 38.8156 20.5157 39.9706C21.2847 40.1052 21.5731 39.6438 21.5731 39.2401C21.5731 38.8748 21.5539 37.6637 21.5539 36.3757C17.6897 37.087 16.6901 35.4338 16.3825 34.5687C16.0412 33.7274 15.5001 32.9818 14.8061 32.3963C14.2678 32.108 13.4988 31.3967 14.7869 31.3774C15.2787 31.4308 15.7503 31.602 16.162 31.8763C16.5736 32.1507 16.9131 32.5204 17.1515 32.9538C17.3618 33.3317 17.6446 33.6644 17.9837 33.9327C18.3228 34.2011 18.7116 34.4 19.1278 34.5177C19.5439 34.6355 19.9792 34.6702 20.4086 34.6196C20.8381 34.5689 21.2535 34.4341 21.6306 34.2226C21.6972 33.4407 22.0457 32.7097 22.6112 32.1656C19.1893 31.7811 15.6135 30.4547 15.6135 24.572C15.5919 23.0436 16.1558 21.5647 17.1899 20.4389C16.7198 19.1104 16.7747 17.6525 17.3437 16.3633C17.3437 16.3633 18.6316 15.9596 21.5731 17.9397C24.0895 17.2476 26.7462 17.2476 29.2627 17.9397C32.2041 15.9403 33.4921 16.3633 33.4921 16.3633C34.0611 17.6525 34.1162 19.1104 33.6459 20.4389C34.6828 21.5628 35.2475 23.0431 35.2223 24.572C35.2223 30.4739 31.6273 31.7811 28.2054 32.1656C28.5723 32.5376 28.855 32.9843 29.0341 33.4751C29.2133 33.9662 29.2847 34.49 29.2435 35.0108C29.2435 37.068 29.2243 38.721 29.2243 39.2401C29.2243 39.6438 29.5126 40.1244 30.2816 39.9706C33.7399 38.8063 36.6718 36.4507 38.554 33.3246C40.4363 30.1983 41.1462 26.5049 40.5571 22.9036C39.9681 19.3025 38.1185 16.0278 35.3383 13.6643C32.5582 11.3006 29.0285 10.002 25.3794 10Z" fill="#FEFCD9"/>
</svg>
