<svg width="17" height="16" viewBox="0 0 17 16" fill="none" xmlns="http://www.w3.org/2000/svg">
<path d="M8.46167 0.755859C6.63574 0.755925 4.86938 1.40576 3.47875 2.58898C2.08805 3.7722 1.16377 5.4117 0.871288 7.21409C0.578802 9.01641 0.9372 10.864 1.88234 12.4264C2.82741 13.9886 4.29762 15.1637 6.02984 15.7412C6.41433 15.8085 6.55851 15.5778 6.55851 15.3759C6.55851 15.1933 6.5489 14.5877 6.5489 13.9437C4.61685 14.2993 4.11701 13.4728 3.96322 13.0402C3.79255 12.6196 3.52204 12.2468 3.17501 11.954C2.90587 11.8098 2.52138 11.4542 3.1654 11.4446C3.41133 11.4713 3.64712 11.5568 3.85297 11.694C4.05875 11.8312 4.2285 12.0161 4.3477 12.2328C4.45285 12.4217 4.59429 12.588 4.76384 12.7222C4.9334 12.8564 5.1278 12.9558 5.33587 13.0147C5.54393 13.0736 5.76155 13.0909 5.97629 13.0656C6.19103 13.0403 6.3987 12.9729 6.58729 12.8672C6.62057 12.4762 6.79483 12.1107 7.07757 11.8387C5.3666 11.6464 3.57873 10.9832 3.57873 8.04185C3.56794 7.27765 3.8499 6.53823 4.36693 5.97529C4.13186 5.31107 4.15932 4.58211 4.44383 3.9375C4.44383 3.9375 5.08778 3.73565 6.55851 4.7257C7.81673 4.37966 9.14505 4.37966 10.4033 4.7257C11.874 3.72603 12.518 3.9375 12.518 3.9375C12.8025 4.58211 12.8301 5.31107 12.5949 5.97529C13.1134 6.53725 13.3957 7.27739 13.3831 8.04185C13.3831 10.9928 11.5856 11.6464 9.87466 11.8387C10.0581 12.0246 10.1994 12.248 10.289 12.4934C10.3786 12.739 10.4143 13.0008 10.3937 13.2613C10.3937 14.2899 10.3841 15.1164 10.3841 15.3759C10.3841 15.5778 10.5283 15.8181 10.9128 15.7412C12.6419 15.159 14.1079 13.9812 15.049 12.4182C15.9901 10.855 16.3451 9.0083 16.0505 7.20768C15.756 5.40712 14.8312 3.76978 13.4411 2.588C12.0511 1.40616 10.2862 0.75684 8.46167 0.755859Z" fill="#F95F4A"/>
</svg>
