<svg width="16" height="16" viewBox="0 0 16 16" fill="none" xmlns="http://www.w3.org/2000/svg">
<g clip-path="url(#clip0_285_247191)">
<path d="M12.3885 9.49958C12.3885 9.49958 12.3885 9.5025 12.3914 9.5025C12.6606 10.0701 12.8127 10.7051 12.8127 11.3751C12.8098 13.789 10.8553 15.7465 8.44135 15.7465C6.02745 15.7465 4.07291 13.789 4.07291 11.378C4.07291 10.708 4.22506 10.0731 4.49425 9.50543C4.54399 9.40009 4.59958 9.29476 4.6581 9.19235C4.78684 8.96998 4.93314 8.76224 5.09699 8.56913C5.8987 7.61527 7.10127 7.0096 8.44428 7.0096C9.4274 7.0096 10.3344 7.33438 11.0659 7.88445C11.3322 8.08634 11.575 8.31457 11.7916 8.57205C11.9554 8.76516 12.1017 8.97583 12.2305 9.19528C12.289 9.29476 12.3416 9.40009 12.3914 9.5025L12.3885 9.49958ZM13.1609 8.9495C12.2802 7.24075 10.4983 6.07037 8.44135 6.07037C6.38441 6.07037 4.60251 7.24075 3.7218 8.9495L0.950928 6.69652L8.44135 0.765625L15.9318 6.69652L13.1609 8.95243V8.9495Z" fill="#F95F4A"/>
</g>
<defs>
<clipPath id="clip0_285_247191">
<rect width="14.9808" height="14.9808" fill="white" transform="translate(0.950439 0.765625)"/>
</clipPath>
</defs>
</svg>
