<svg width="16" height="16" viewBox="0 0 12 16" fill="none" xmlns="http://www.w3.org/2000/svg">
<path d="M3.23905 5.25885C3.99333 5.25885 4.6048 4.64738 4.6048 3.8931C4.6048 3.13881 3.99333 2.52734 3.23905 2.52734C2.48476 2.52734 1.87329 3.13881 1.87329 3.8931C1.87329 4.64738 2.48476 5.25885 3.23905 5.25885Z" fill="#FF007A"/>
<path d="M5.89415 6.29468V13.8719H8.24677V10.1248C8.24677 9.13605 8.43278 8.17852 9.65871 8.17852C10.8678 8.17852 10.8828 9.30895 10.8828 10.1872V13.8725H13.2366V9.71718C13.2366 7.67604 12.7972 6.10742 10.4115 6.10742C9.26609 6.10742 8.49832 6.73599 8.18435 7.33086H8.15251V6.29468H5.89415ZM2.0603 6.29468H4.41667V13.8719H2.0603V6.29468Z" fill="#FF007A"/>
</svg>
