<svg width="258" height="158" viewBox="0 0 258 158" fill="none" xmlns="http://www.w3.org/2000/svg">
<g filter="url(#filter0_n_1_24)">
<g clip-path="url(#clip0_1_24)">
<path d="M30.9249 64.9455C28.4413 84.6341 18.7766 131.528 21.2894 146.668M28.6648 152.854C45.1996 153.092 228.153 152.854 229.938 152.854M195.559 61.6147C203.983 74.0974 231.086 124.012 237.182 143.456" stroke="white" stroke-width="0.237911"/>
<path d="M28.6628 137.746C32.8674 137.746 36.2761 141.154 36.2761 145.359C36.2759 149.563 32.8673 152.972 28.6628 152.972C24.4583 152.972 21.0497 149.563 21.0495 145.359C21.0495 141.154 24.4582 137.746 28.6628 137.746ZM28.6628 142.155C26.8925 142.155 25.4578 143.59 25.4577 145.36C25.4577 147.13 26.8924 148.566 28.6628 148.566C30.4332 148.566 31.8679 147.13 31.8679 145.36C31.8678 143.59 30.4331 142.155 28.6628 142.155Z" fill="white"/>
<path d="M229.94 137.746C234.144 137.746 237.552 141.154 237.552 145.359C237.552 149.563 234.144 152.972 229.94 152.972C225.735 152.972 222.327 149.563 222.326 145.359C222.326 141.154 225.735 137.746 229.94 137.746ZM229.939 142.155C228.169 142.155 226.734 143.59 226.734 145.36C226.734 147.13 228.168 148.566 229.939 148.566C231.709 148.566 233.145 147.13 233.145 145.36C233.145 143.59 231.709 142.155 229.939 142.155Z" fill="white"/>
<path d="M58.7326 121.924H201.769C205.085 121.924 207.98 124.173 208.8 127.386L216.393 157.135H42.4719L51.801 127.033C52.7424 123.995 55.5526 121.924 58.7326 121.924Z" stroke="white" stroke-width="0.713734"/>
<circle cx="68.6329" cy="146.31" r="6.30465" stroke="white" stroke-width="0.713734"/>
<circle cx="190.206" cy="146.31" r="6.30465" stroke="white" stroke-width="0.713734"/>
<rect x="88.9752" y="140.005" width="8.32689" height="8.32689" rx="1.0706" stroke="white" stroke-width="0.713734"/>
<path d="M124.779 148.689C124.779 147.9 125.418 147.261 126.207 147.261H132.392C133.181 147.261 133.82 147.9 133.82 148.688V152.971H124.779V148.689Z" fill="white"/>
<rect x="161.538" y="140.005" width="8.32689" height="8.32689" rx="1.0706" stroke="white" stroke-width="0.713734"/>
<g clip-path="url(#clip1_1_24)">
<path d="M129.3 124.66C131.665 124.66 133.582 126.577 133.582 128.942C133.582 131.307 131.665 133.224 129.3 133.224C126.935 133.224 125.017 131.307 125.017 128.942C125.018 126.577 126.935 124.66 129.3 124.66ZM129.649 126.38C129.572 125.999 129.028 125.999 128.95 126.38L128.623 127.987C128.594 128.127 128.485 128.237 128.345 128.265L126.737 128.592C126.356 128.67 126.356 129.214 126.737 129.292L128.345 129.619C128.485 129.647 128.594 129.757 128.623 129.897L128.95 131.505C129.027 131.885 129.571 131.886 129.649 131.506L129.976 129.897C130.005 129.757 130.115 129.647 130.255 129.619L131.862 129.292C132.243 129.214 132.244 128.67 131.863 128.592L130.255 128.265C130.115 128.237 130.005 128.127 129.976 127.987L129.649 126.38Z" fill="white"/>
</g>
<g clip-path="url(#clip2_1_24)">
<path d="M11.5351 6.41928C13.9001 6.41928 15.8172 8.33648 15.8173 10.7015C15.8173 13.0666 13.9002 14.9837 11.5351 14.9837C9.17005 14.9836 7.25285 13.0666 7.25285 10.7015C7.25294 8.33654 9.17011 6.41937 11.5351 6.41928ZM11.8847 8.139C11.8072 7.75801 11.2629 7.75801 11.1855 8.139L10.8583 9.74643C10.8298 9.88676 10.7203 9.9962 10.58 10.0247L8.97258 10.3519C8.59158 10.4294 8.59158 10.9736 8.97258 11.0511L10.58 11.3783C10.7202 11.4068 10.8297 11.5164 10.8583 11.6566L11.1855 13.264C11.2629 13.6448 11.8068 13.6455 11.8847 13.265L12.2118 11.6566C12.2405 11.5165 12.35 11.4069 12.4902 11.3783L14.0976 11.0511C14.4784 10.9737 14.4791 10.4297 14.0986 10.3519L12.4902 10.0247C12.35 9.99609 12.2404 9.88666 12.2118 9.74643L11.8847 8.139Z" fill="white"/>
</g>
<g clip-path="url(#clip3_1_24)">
<path d="M11.5351 142.503C13.9001 142.503 15.8172 144.42 15.8173 146.785C15.8173 149.151 13.9002 151.068 11.5351 151.068C9.17005 151.068 7.25285 149.151 7.25285 146.785C7.25294 144.421 9.17011 142.503 11.5351 142.503ZM11.8847 144.223C11.8072 143.842 11.2629 143.842 11.1855 144.223L10.8583 145.83C10.8298 145.971 10.7203 146.08 10.58 146.109L8.97258 146.436C8.59158 146.513 8.59158 147.058 8.97258 147.135L10.58 147.462C10.7202 147.491 10.8297 147.6 10.8583 147.741L11.1855 149.348C11.2629 149.729 11.8068 149.729 11.8847 149.349L12.2118 147.741C12.2405 147.6 12.35 147.491 12.4902 147.462L14.0976 147.135C14.4784 147.058 14.4791 146.514 14.0986 146.436L12.4902 146.109C12.35 146.08 12.2404 145.971 12.2118 145.83L11.8847 144.223Z" fill="white"/>
</g>
<g clip-path="url(#clip4_1_24)">
<path d="M247.068 6.41928C249.433 6.41928 251.35 8.33648 251.351 10.7015C251.351 13.0666 249.433 14.9837 247.068 14.9837C244.703 14.9836 242.786 13.0666 242.786 10.7015C242.786 8.33654 244.703 6.41937 247.068 6.41928ZM247.418 8.139C247.34 7.75801 246.796 7.75801 246.719 8.139L246.392 9.74643C246.363 9.88676 246.254 9.9962 246.113 10.0247L244.506 10.3519C244.125 10.4294 244.125 10.9736 244.506 11.0511L246.113 11.3783C246.253 11.4068 246.363 11.5164 246.392 11.6566L246.719 13.264C246.796 13.6448 247.34 13.6455 247.418 13.265L247.745 11.6566C247.774 11.5165 247.883 11.4069 248.023 11.3783L249.631 11.0511C250.012 10.9737 250.012 10.4297 249.632 10.3519L248.023 10.0247C247.883 9.99609 247.774 9.88666 247.745 9.74643L247.418 8.139Z" fill="white"/>
</g>
<g clip-path="url(#clip5_1_24)">
<path d="M247.068 142.503C249.433 142.503 251.35 144.42 251.351 146.785C251.351 149.151 249.433 151.068 247.068 151.068C244.703 151.068 242.786 149.151 242.786 146.785C242.786 144.421 244.703 142.503 247.068 142.503ZM247.418 144.223C247.34 143.842 246.796 143.842 246.719 144.223L246.392 145.83C246.363 145.971 246.254 146.08 246.113 146.109L244.506 146.436C244.125 146.513 244.125 147.058 244.506 147.135L246.113 147.462C246.253 147.491 246.363 147.6 246.392 147.741L246.719 149.348C246.796 149.729 247.34 149.729 247.418 149.349L247.745 147.741C247.774 147.6 247.883 147.491 248.023 147.462L249.631 147.135C250.012 147.058 250.012 146.514 249.632 146.436L248.023 146.109C247.883 146.08 247.774 145.971 247.745 145.83L247.418 144.223Z" fill="url(#paint0_linear_1_24)"/>
</g>
</g>
<rect x="1.27642" y="0.442441" width="256.052" height="156.605" rx="10.266" stroke="url(#paint1_linear_1_24)" stroke-width="0.892694"/>
</g>
<defs>
<filter id="filter0_n_1_24" x="0.830078" y="-0.00390625" width="256.944" height="157.497" filterUnits="userSpaceOnUse" color-interpolation-filters="sRGB">
<feFlood flood-opacity="0" result="BackgroundImageFix"/>
<feBlend mode="normal" in="SourceGraphic" in2="BackgroundImageFix" result="shape"/>
<feTurbulence type="fractalNoise" baseFrequency="4.4808201789855957 4.4808201789855957" stitchTiles="stitch" numOctaves="3" result="noise" seed="8462" />
<feColorMatrix in="noise" type="luminanceToAlpha" result="alphaNoise" />
<feComponentTransfer in="alphaNoise" result="coloredNoise1">
<feFuncA type="discrete" tableValues="1 1 1 1 1 1 1 1 1 1 1 1 1 1 1 1 1 1 1 1 1 1 1 1 1 1 1 1 1 1 1 1 1 1 1 1 1 1 1 1 1 1 1 1 1 1 1 1 1 1 1 0 0 0 0 0 0 0 0 0 0 0 0 0 0 0 0 0 0 0 0 0 0 0 0 0 0 0 0 0 0 0 0 0 0 0 0 0 0 0 0 0 0 0 0 0 0 0 0 0 "/>
</feComponentTransfer>
<feComposite operator="in" in2="shape" in="coloredNoise1" result="noise1Clipped" />
<feFlood flood-color="rgba(0, 0, 0, 0.25)" result="color1Flood" />
<feComposite operator="in" in2="noise1Clipped" in="color1Flood" result="color1" />
<feMerge result="effect1_noise_1_24">
<feMergeNode in="shape" />
<feMergeNode in="color1" />
</feMerge>
</filter>
<linearGradient id="paint0_linear_1_24" x1="247.068" y1="142.503" x2="247.068" y2="151.068" gradientUnits="userSpaceOnUse">
<stop stop-color="white"/>
<stop stop-color="#EB5757"/>
<stop offset="1" stop-color="#EB5757"/>
</linearGradient>
<linearGradient id="paint1_linear_1_24" x1="9.0875" y1="-18.9737" x2="269.308" y2="170.947" gradientUnits="userSpaceOnUse">
<stop stop-color="white"/>
<stop offset="0.5" stop-color="#CCCCCC"/>
<stop offset="1" stop-color="#EB5757"/>
</linearGradient>
<clipPath id="clip0_1_24">
<rect x="0.830078" y="-0.00390625" width="256.944" height="157.497" rx="10.7123" fill="white"/>
</clipPath>
<clipPath id="clip1_1_24">
<rect width="8.56481" height="8.56481" fill="white" transform="translate(125.017 124.66)"/>
</clipPath>
<clipPath id="clip2_1_24">
<rect width="8.56481" height="8.56481" fill="white" transform="translate(7.25285 6.41928)"/>
</clipPath>
<clipPath id="clip3_1_24">
<rect width="8.56481" height="8.56481" fill="white" transform="translate(7.25285 142.503)"/>
</clipPath>
<clipPath id="clip4_1_24">
<rect width="8.56481" height="8.56481" fill="white" transform="translate(242.786 6.41928)"/>
</clipPath>
<clipPath id="clip5_1_24">
<rect width="8.56481" height="8.56481" fill="white" transform="translate(242.786 142.503)"/>
</clipPath>
</defs>
</svg>
