<svg width="124" height="124" viewBox="0 0 124 124" fill="none" xmlns="http://www.w3.org/2000/svg">
<circle cx="62" cy="62" r="57.5" stroke="#FEFCD9" stroke-width="3"/>
<path d="M61.6587 18C67.7106 18 73.4771 19.2231 78.7251 21.4336L73.4243 30.6182L82.9634 36.126L88.2593 26.9512C97.4509 33.9379 103.811 44.4557 105.315 56.4844H94.7056V67.5H105.317C103.815 79.5413 97.4478 90.0689 88.2446 97.0586L82.9478 87.8828L73.4087 93.3906L78.7095 102.572C73.4656 104.779 67.7047 106 61.6587 106C55.604 106 49.8353 104.776 44.5854 102.563L49.895 93.3672L40.356 87.8594L35.0532 97.0439C25.8608 90.0541 19.501 79.5326 18.0005 67.5H28.6128V56.4844H18.0024C19.5076 44.4491 25.874 33.9262 35.0737 26.9395L40.3726 36.1172L49.9126 30.6104L44.6099 21.4258C49.8532 19.2199 55.6134 18.0001 61.6587 18Z" fill="#FEFCD9"/>
</svg>
