<svg width="844" height="110" viewBox="0 0 844 110" fill="none" xmlns="http://www.w3.org/2000/svg">
<g filter="url(#filter0_n_4015_20772)">
<path d="M-0.00107248 19.8276V-1.80611e-06H99.137V19.8276H61.3406V109.052H37.7953V19.8276H-0.00107248ZM193.082 44.6121V-1.80611e-06H216.627V109.052H193.082V64.4397H133.599V109.052H110.054V-1.80611e-06H133.599V44.6121H193.082ZM321.622 -1.80611e-06V19.8276H255.943V45.2317H311.708V63.8201H255.943V89.2243H321.622V109.052H232.397V-1.80611e-06H321.622ZM370.623 19.8276V-1.80611e-06H469.761V19.8276H431.965V109.052H408.419V19.8276H370.623ZM569.902 -1.80611e-06V19.8276H504.223V45.2317H559.989V63.8201H504.223V89.2243H569.902V109.052H480.678V-1.80611e-06H569.902ZM698.424 109.052H671.78L662.951 84.887H609.974L601.144 109.052H574.501L617.874 -1.80611e-06H655.051L698.424 109.052ZM632.125 24.9394L616.945 66.2986H655.98L640.8 24.9394C639.251 20.6021 638.321 18.2786 638.321 12.857C638.321 11.9276 638.011 10.6883 636.462 10.6883C634.913 10.6883 634.604 11.9276 634.604 12.857C634.604 18.2786 633.674 20.6021 632.125 24.9394ZM727.883 109.052H704.338V-1.80611e-06H746.472L770.946 83.6477C771.721 86.436 771.876 90.4635 771.876 94.1812C771.876 95.4204 772.495 96.04 773.734 96.04C774.974 96.04 775.593 95.4204 775.593 94.1812C775.593 90.4635 775.748 86.436 776.523 83.6477L800.997 -1.80611e-06H843.131V109.052H819.586V26.1786C819.586 21.2217 820.825 17.3492 822.219 13.1668C822.684 11.7726 822.219 10.8432 820.825 10.5334C820.051 10.3785 819.276 10.8432 818.966 11.9276L789.69 109.052H757.779L728.503 11.9276C728.193 10.8432 727.418 10.3785 726.644 10.5334C725.25 10.8432 724.785 11.7726 725.25 13.1668C726.644 17.3492 727.883 21.2217 727.883 26.1786V109.052Z" fill="url(#paint0_linear_4015_20772)"/>
</g>
<defs>
<filter id="filter0_n_4015_20772" x="0" y="0" width="843.133" height="109.052" filterUnits="userSpaceOnUse" color-interpolation-filters="sRGB">
<feFlood flood-opacity="0" result="BackgroundImageFix"/>
<feBlend mode="normal" in="SourceGraphic" in2="BackgroundImageFix" result="shape"/>
<feTurbulence type="fractalNoise" baseFrequency="0.78750002384185791 0.78750002384185791" stitchTiles="stitch" numOctaves="3" result="noise" seed="1840" />
<feColorMatrix in="noise" type="luminanceToAlpha" result="alphaNoise" />
<feComponentTransfer in="alphaNoise" result="coloredNoise1">
<feFuncA type="discrete" tableValues="1 1 1 1 1 1 1 1 1 1 1 1 1 1 1 1 1 1 1 1 1 1 1 1 1 1 1 1 1 1 1 1 1 1 1 1 1 1 1 1 1 1 1 1 1 1 1 1 1 1 1 0 0 0 0 0 0 0 0 0 0 0 0 0 0 0 0 0 0 0 0 0 0 0 0 0 0 0 0 0 0 0 0 0 0 0 0 0 0 0 0 0 0 0 0 0 0 0 0 0 "/>
</feComponentTransfer>
<feComposite operator="in" in2="shape" in="coloredNoise1" result="noise1Clipped" />
<feComponentTransfer in="alphaNoise" result="coloredNoise2">
<feFuncA type="discrete" tableValues="0 0 0 0 0 0 0 0 0 0 0 0 0 0 0 0 0 0 0 0 0 0 0 0 0 0 0 0 0 0 0 0 0 0 0 0 0 0 0 0 0 0 0 0 0 0 0 0 0 1 1 1 1 1 1 1 1 1 1 1 1 1 1 1 1 1 1 1 1 1 1 1 1 1 1 1 1 1 1 1 1 1 1 1 1 1 1 1 1 1 1 1 1 1 1 1 1 1 1 1 "/>
</feComponentTransfer>
<feComposite operator="in" in2="shape" in="coloredNoise2" result="noise2Clipped" />
<feFlood flood-color="rgba(0, 0, 0, 0.25)" result="color1Flood" />
<feComposite operator="in" in2="noise1Clipped" in="color1Flood" result="color1" />
<feFlood flood-color="rgba(255, 255, 255, 0.25)" result="color2Flood" />
<feComposite operator="in" in2="noise2Clipped" in="color2Flood" result="color2" />
<feMerge result="effect1_noise_4015_20772">
<feMergeNode in="shape" />
<feMergeNode in="color1" />
<feMergeNode in="color2" />
</feMerge>
</filter>
<linearGradient id="paint0_linear_4015_20772" x1="-3.71875" y1="-48.9481" x2="770.488" y2="232.059" gradientUnits="userSpaceOnUse">
<stop stop-color="#F95F4A"/>
<stop offset="1" stop-color="#FEFCD9"/>
</linearGradient>
</defs>
</svg>
