<svg width="576" height="353" viewBox="0 0 576 353" fill="none" xmlns="http://www.w3.org/2000/svg">
<g filter="url(#filter0_n_285_161015)">
<g clip-path="url(#clip0_285_161015)">
<path d="M97.6067 23.0413L48.5696 141.533C49.9295 142.204 51.2894 142.876 52.6493 143.547L101.814 24.1117C100.593 23.8444 99.0999 23.4429 97.6067 23.0413Z" fill="#F95F4A"/>
<path d="M73.3468 21.4716L30.292 125.792C31.3853 127.004 32.3452 128.485 33.7105 129.831L78.6262 21.0565C76.5944 21.0606 74.8346 21.1989 73.3468 21.4716Z" fill="#F95F4A"/>
<path d="M85.9436 21.3121L38.9004 135.08C40.127 136.021 41.3536 136.963 42.5802 137.904L90.551 21.5725C88.9245 21.4409 87.2981 21.3094 85.9436 21.3121Z" fill="#F95F4A"/>
<path d="M59.2844 24.6007L22.3399 113.807C23.1665 115.558 24.2653 117.444 25.2253 118.925L64.9584 22.7015C63.3373 23.2441 61.3108 23.9224 59.2844 24.6007Z" fill="#F95F4A"/>
<path d="M43.5012 32.5884L16.9219 96.6926C17.3487 99.2538 18.0475 101.949 18.8796 104.375L50.2416 28.5297C47.9486 29.7478 45.5223 31.2359 43.5012 32.5884Z" fill="#F95F4A"/>
<path d="M31.6681 43.5336C22.8111 53.9344 17.362 67.0252 16.3871 80.6464L31.6681 43.5336Z" fill="#F95F4A"/>
<path d="M142.777 65.1562L110.221 144.105C112.514 142.887 114.674 141.939 116.695 140.586L144.868 72.5685C144.169 69.8731 143.609 67.5818 142.777 65.1562Z" fill="#F95F4A"/>
<path d="M136.164 51.1465L95.6315 148.99C97.5246 148.581 99.4176 148.173 101.172 147.36L138.911 55.8605C137.951 54.3792 137.124 52.6279 136.164 51.1465Z" fill="#F95F4A"/>
<path d="M146.337 86.7246L128.134 131.125C133.642 125.45 137.791 119.104 140.985 111.951L141.912 109.387C144.834 102.1 146.263 94.4109 146.337 86.7246Z" fill="#F95F4A"/>
<path d="M118.543 32.708L70.3052 149.58C71.7984 149.981 73.4249 150.113 75.0514 150.244L122.494 35.6667C121.268 34.7252 119.769 33.6495 118.543 32.708Z" fill="#F95F4A"/>
<path d="M108.475 27.0645L59.1764 146.77C60.6696 147.171 62.0295 147.843 63.5227 148.244L112.693 29.4832C111.195 28.4074 109.835 27.736 108.475 27.0645Z" fill="#F95F4A"/>
<path d="M127.818 40.6455L82.369 150.5C84.1288 150.361 85.7553 150.493 87.5151 150.355L131.37 44.4141C130.276 43.2027 128.911 41.8569 127.818 40.6455Z" fill="#F95F4A"/>
<path d="M102.951 69.2508C90.576 52.2186 94.2786 28.3079 111.288 15.9499C128.297 3.59194 152.151 7.41695 164.556 24.4916C176.962 41.5663 173.228 65.4346 156.219 77.7926C139.21 90.1505 115.325 86.283 102.951 69.2508ZM163.752 25.0757C151.686 8.46826 128.387 4.69463 111.801 16.7452C95.2148 28.7957 91.573 52.0783 103.67 68.7282C115.767 85.3782 139.035 89.1093 155.621 77.0588C172.208 65.0082 175.818 41.6832 163.752 25.0757Z" fill="white" stroke="white" stroke-width="1.17152"/>
<path d="M103.001 166.846L123.538 103.36H143.444L164.06 166.846H143.997L141.548 158.956H125.355L122.906 166.846H103.001ZM128.515 144.445H138.546L133.649 127.032H133.333L128.515 144.445ZM192.596 168.207C175.06 168.207 163.291 154.784 163.291 135.103C163.291 115.513 175.218 102 192.438 102C208.315 102 219.611 112.611 222.139 129.843H203.418C201.996 125.036 198.047 121.953 193.307 121.953C186.909 121.953 182.564 127.213 182.564 135.103C182.564 142.903 186.909 148.254 193.149 148.254C198.126 148.254 201.996 145.08 203.576 140.092H222.376C220.401 157.142 208.552 168.207 192.596 168.207ZM229.312 166.846V103.36H244.794L262.014 130.025L279.313 103.36H294.716V166.846H276.074V152.245L276.232 139.185H275.995L267.306 152.88H256.721L248.032 139.094L247.795 139.185L247.953 152.245V166.846H229.312Z" fill="white"/>
<path d="M326.497 230C307.692 230 294.716 217.218 294.716 199.104C294.716 180.989 307.692 168.207 326.497 168.207C345.385 168.207 358.361 180.989 358.361 199.104C358.361 217.218 345.385 230 326.497 230ZM314.754 199.104C314.754 206.383 319.599 211.378 326.497 211.378C333.396 211.378 338.323 206.383 338.323 199.104C338.323 191.824 333.396 186.83 326.497 186.83C319.599 186.83 314.754 191.824 314.754 199.104ZM365.68 228.73V169.477H381.776L400.171 195.04H400.499L400.335 187.507V169.477H419.798V228.73H403.702L385.225 202.913H384.979L385.143 210.7V228.73H365.68ZM430.078 228.73V169.477H471.467V184.629H449.377V191.485H469.332V206.214H449.377V213.324H472.289V228.73H430.078Z" fill="white"/>
<path d="M280.572 179.977H165.857V207.931H280.572V179.977Z" fill="#FEFDF8"/>
<path d="M425.146 124.069H307.288V152.023H425.146V124.069Z" fill="#FEFDF8"/>
<path d="M67.4265 145.514C61.8623 189.624 40.2094 294.686 45.8392 328.606M62.3629 342.465C99.4077 342.998 509.299 342.465 513.297 342.465M436.275 138.052C455.147 166.018 515.869 277.848 529.527 321.41" stroke="white" stroke-width="0.533019"/>
<path d="M62.3629 308.618C71.783 308.618 79.4195 316.255 79.4196 325.675C79.4196 335.095 71.783 342.731 62.3629 342.731C52.9428 342.731 45.3063 335.095 45.3063 325.675C45.3063 316.255 52.9428 308.618 62.3629 308.618ZM62.3629 318.496C58.3966 318.496 55.1813 321.711 55.1813 325.678C55.1815 329.644 58.3967 332.859 62.3629 332.859C66.3291 332.859 69.5443 329.644 69.5446 325.678C69.5446 321.711 66.3292 318.496 62.3629 318.496Z" fill="white"/>
<path d="M513.297 308.618C522.717 308.618 530.354 316.255 530.354 325.675C530.353 335.095 522.717 342.731 513.297 342.731C503.877 342.731 496.24 335.095 496.24 325.675C496.24 316.255 503.877 308.618 513.297 308.618ZM513.297 318.496C509.331 318.496 506.115 321.711 506.115 325.678C506.115 329.644 509.331 332.859 513.297 332.859C517.263 332.859 520.478 329.644 520.479 325.678C520.479 321.711 517.263 318.496 513.297 318.496Z" fill="white"/>
<path d="M129.727 273.173H450.188C457.619 273.173 464.103 278.21 465.94 285.409L482.951 352.06H93.2969L114.198 284.617C116.307 277.812 122.602 273.173 129.727 273.173Z" stroke="white" stroke-width="1.59906"/>
<circle cx="151.911" cy="327.807" r="14.125" stroke="white" stroke-width="1.59906"/>
<circle cx="424.283" cy="327.807" r="14.125" stroke="white" stroke-width="1.59906"/>
<rect x="197.484" y="313.682" width="18.6557" height="18.6557" rx="2.39859" stroke="white" stroke-width="1.59906"/>
<path d="M277.703 333.138C277.703 331.371 279.135 329.939 280.901 329.939H294.76C296.526 329.939 297.958 331.371 297.958 333.138V342.732H277.703V333.138Z" fill="white"/>
<rect x="360.054" y="313.682" width="18.6557" height="18.6557" rx="2.39859" stroke="white" stroke-width="1.59906"/>
<g clip-path="url(#clip1_285_161015)">
<path d="M287.83 279.303C293.129 279.303 297.424 283.599 297.424 288.897C297.424 294.196 293.129 298.491 287.83 298.491C282.531 298.491 278.236 294.196 278.235 288.897C278.235 283.599 282.531 279.303 287.83 279.303ZM288.613 283.155C288.44 282.302 287.219 282.302 287.046 283.155L286.313 286.757C286.25 287.071 286.004 287.317 285.689 287.381L282.088 288.113C281.234 288.287 281.234 289.507 282.088 289.681L285.689 290.413C286.004 290.477 286.249 290.723 286.313 291.037L287.046 294.639C287.219 295.492 288.44 295.492 288.613 294.639L289.346 291.037C289.41 290.723 289.655 290.477 289.97 290.413L293.571 289.681C294.425 289.507 294.425 288.287 293.571 288.113L289.97 287.381C289.655 287.317 289.41 287.071 289.346 286.757L288.613 283.155Z" fill="white"/>
</g>
<g clip-path="url(#clip2_285_161015)">
<path d="M23.9858 14.3916C29.2845 14.3918 33.5796 18.6876 33.5796 23.9863C33.5794 29.2848 29.2843 33.5799 23.9858 33.5801C18.6872 33.5801 14.3913 29.285 14.3911 23.9863C14.3911 18.6875 18.687 14.3916 23.9858 14.3916ZM24.769 18.2441C24.5954 17.3906 23.3753 17.3906 23.2017 18.2441L22.4692 21.8457C22.4053 22.1602 22.1597 22.4058 21.8452 22.4697L18.2437 23.2021C17.3901 23.3757 17.3901 24.5959 18.2437 24.7695L21.8452 25.502C22.1596 25.5659 22.4053 25.8116 22.4692 26.126L23.2017 29.7275C23.3753 30.5811 24.5955 30.5811 24.769 29.7275L25.5015 26.126C25.5654 25.8116 25.8111 25.5659 26.1255 25.502L29.7271 24.7695C30.5806 24.5959 30.5806 23.3757 29.7271 23.2021L26.1255 22.4697C25.8111 22.4057 25.5654 22.1601 25.5015 21.8457L24.769 18.2441Z" fill="white"/>
</g>
<g clip-path="url(#clip3_285_161015)">
<path d="M23.9856 319.278C29.2842 319.279 33.5793 323.574 33.5793 328.873C33.5791 334.172 29.2841 338.467 23.9856 338.467C18.6869 338.467 14.3911 334.172 14.3909 328.873C14.3909 323.574 18.6868 319.278 23.9856 319.278ZM24.7688 323.131C24.5952 322.277 23.375 322.277 23.2014 323.131L22.469 326.732C22.405 327.047 22.1594 327.292 21.845 327.356L18.2434 328.089C17.3898 328.262 17.3898 329.483 18.2434 329.656L21.845 330.389C22.1594 330.453 22.405 330.698 22.469 331.013L23.2014 334.614C23.375 335.468 24.5952 335.468 24.7688 334.614L25.5012 331.013C25.5652 330.698 25.8109 330.453 26.1252 330.389L29.7268 329.656C30.5804 329.483 30.5804 328.262 29.7268 328.089L26.1252 327.356C25.8108 327.292 25.5652 327.047 25.5012 326.732L24.7688 323.131Z" fill="white"/>
</g>
<g clip-path="url(#clip4_285_161015)">
<path d="M551.673 14.3916C556.972 14.3918 561.267 18.6876 561.267 23.9863C561.267 29.2848 556.972 33.5799 551.673 33.5801C546.375 33.5801 542.079 29.285 542.079 23.9863C542.079 18.6875 546.375 14.3916 551.673 14.3916ZM552.457 18.2441C552.283 17.3906 551.063 17.3906 550.889 18.2441L550.157 21.8457C550.093 22.1602 549.847 22.4058 549.533 22.4697L545.931 23.2021C545.078 23.3757 545.078 24.5959 545.931 24.7695L549.533 25.502C549.847 25.5659 550.093 25.8116 550.157 26.126L550.889 29.7275C551.063 30.5811 552.283 30.5811 552.457 29.7275L553.189 26.126C553.253 25.8116 553.499 25.5659 553.813 25.502L557.415 24.7695C558.268 24.5959 558.268 23.3757 557.415 23.2021L553.813 22.4697C553.499 22.4057 553.253 22.1601 553.189 21.8457L552.457 18.2441Z" fill="white"/>
</g>
<g clip-path="url(#clip5_285_161015)">
<path d="M551.673 319.278C556.972 319.279 561.267 323.574 561.267 328.873C561.267 334.172 556.972 338.467 551.673 338.467C546.375 338.467 542.079 334.172 542.079 328.873C542.079 323.574 546.375 319.278 551.673 319.278ZM552.457 323.131C552.283 322.277 551.063 322.277 550.889 323.131L550.157 326.732C550.093 327.047 549.847 327.292 549.533 327.356L545.931 328.089C545.078 328.262 545.078 329.483 545.931 329.656L549.533 330.389C549.847 330.453 550.093 330.698 550.157 331.013L550.889 334.614C551.063 335.468 552.283 335.468 552.457 334.614L553.189 331.013C553.253 330.698 553.499 330.453 553.813 330.389L557.415 329.656C558.268 329.483 558.268 328.262 557.415 328.089L553.813 327.356C553.499 327.292 553.253 327.047 553.189 326.732L552.457 323.131Z" fill="url(#paint0_linear_285_161015)"/>
</g>
</g>
<rect x="1" y="1" width="573.66" height="350.858" rx="23" stroke="url(#paint1_linear_285_161015)" stroke-width="2"/>
</g>
<defs>
<filter id="filter0_n_285_161015" x="0" y="0" width="575.66" height="352.858" filterUnits="userSpaceOnUse" color-interpolation-filters="sRGB">
<feFlood flood-opacity="0" result="BackgroundImageFix"/>
<feBlend mode="normal" in="SourceGraphic" in2="BackgroundImageFix" result="shape"/>
<feTurbulence type="fractalNoise" baseFrequency="2 2" stitchTiles="stitch" numOctaves="3" result="noise" seed="8462" />
<feColorMatrix in="noise" type="luminanceToAlpha" result="alphaNoise" />
<feComponentTransfer in="alphaNoise" result="coloredNoise1">
<feFuncA type="discrete" tableValues="1 1 1 1 1 1 1 1 1 1 1 1 1 1 1 1 1 1 1 1 1 1 1 1 1 1 1 1 1 1 1 1 1 1 1 1 1 1 1 1 1 1 1 1 1 1 1 1 1 1 1 0 0 0 0 0 0 0 0 0 0 0 0 0 0 0 0 0 0 0 0 0 0 0 0 0 0 0 0 0 0 0 0 0 0 0 0 0 0 0 0 0 0 0 0 0 0 0 0 0 "/>
</feComponentTransfer>
<feComposite operator="in" in2="shape" in="coloredNoise1" result="noise1Clipped" />
<feFlood flood-color="rgba(0, 0, 0, 0.25)" result="color1Flood" />
<feComposite operator="in" in2="noise1Clipped" in="color1Flood" result="color1" />
<feMerge result="effect1_noise_285_161015">
<feMergeNode in="shape" />
<feMergeNode in="color1" />
</feMerge>
</filter>
<linearGradient id="paint0_linear_285_161015" x1="551.673" y1="319.278" x2="551.673" y2="338.467" gradientUnits="userSpaceOnUse">
<stop stop-color="white"/>
<stop offset="1" stop-color="#F95F4A"/>
</linearGradient>
<linearGradient id="paint1_linear_285_161015" x1="18.5" y1="-42.5" x2="601.5" y2="383" gradientUnits="userSpaceOnUse">
<stop stop-color="white"/>
<stop offset="0.5" stop-color="#CCCCCC"/>
<stop offset="1" stop-color="#F95F4A"/>
</linearGradient>
<clipPath id="clip0_285_161015">
<rect width="575.66" height="352.858" rx="24" fill="white"/>
</clipPath>
<clipPath id="clip1_285_161015">
<rect width="19.1887" height="19.1887" fill="white" transform="translate(278.235 279.303)"/>
</clipPath>
<clipPath id="clip2_285_161015">
<rect width="19.1887" height="19.1887" fill="white" transform="translate(14.3911 14.3916)"/>
</clipPath>
<clipPath id="clip3_285_161015">
<rect width="19.1887" height="19.1887" fill="white" transform="translate(14.3909 319.278)"/>
</clipPath>
<clipPath id="clip4_285_161015">
<rect width="19.1887" height="19.1887" fill="white" transform="translate(542.079 14.3916)"/>
</clipPath>
<clipPath id="clip5_285_161015">
<rect width="19.1887" height="19.1887" fill="white" transform="translate(542.079 319.278)"/>
</clipPath>
</defs>
</svg>
