<svg width="49" height="50" viewBox="0 0 49 50" fill="none" xmlns="http://www.w3.org/2000/svg">
<g clip-path="url(#clip0_1153_20295)">
<mask id="mask0_1153_20295" style="mask-type:luminance" maskUnits="userSpaceOnUse" x="0" y="0" width="49" height="50">
<path d="M48.5758 0.980988H0.539062V49.0177H48.5758V0.980988Z" fill="white"/>
</mask>
<g mask="url(#mask0_1153_20295)">
<path d="M38.4883 23.2219L37.5276 22.8376C32.82 33.3577 14.2297 26.9688 13.0768 30.0912C12.8847 32.2048 23.2606 30.4755 30.6583 30.8598C32.916 30.9558 34.0689 32.6852 33.1082 35.4713H34.9816C37.1433 28.6981 44.1086 32.1567 44.3968 29.899C43.9164 28.4099 36.4227 29.899 38.4883 23.2219Z" fill="white"/>
<path d="M33.6364 34.2705C33.9246 33.2617 33.8285 32.301 33.3482 31.6765C32.8678 31.1001 32.1472 30.6677 31.2346 30.5717L13.8933 30.3795C13.7972 30.3795 13.7011 30.2835 13.6051 30.2835C13.509 30.1874 13.509 30.0913 13.6051 29.9952C13.7011 29.8031 13.7972 29.707 13.9894 29.707L31.4267 29.5149C33.5403 29.4188 35.702 27.7375 36.5186 25.72L37.5274 23.126C37.5274 23.0299 37.6234 22.9338 37.5274 22.8378C36.4225 17.7459 31.811 13.951 26.4309 13.951C21.4351 13.951 17.1598 17.1214 15.6706 21.6368C14.6619 20.9163 13.4609 20.532 12.0679 20.6281C9.66605 20.8202 7.79261 22.8378 7.50439 25.1916C7.40832 25.768 7.50439 26.3925 7.60047 26.9689C3.70949 27.113 0.539062 30.2835 0.539062 34.2705C0.539062 34.6548 0.539062 34.9911 0.635136 35.3754C0.635136 35.5675 0.827283 35.6636 0.923357 35.6636H32.9158C33.108 35.6636 33.3001 35.5675 33.3001 35.3754L33.6364 34.2705Z" fill="#999999"/>
<path d="M39.1141 23.1258H38.6337C38.5376 23.1258 38.4415 23.2218 38.3455 23.3179L37.6249 25.7197C37.3367 26.7285 37.4328 27.6893 37.9131 28.3137C38.3935 28.8902 39.1141 29.3225 40.0268 29.4186L43.7256 29.6107C43.8217 29.6107 43.9177 29.7068 44.0138 29.7068C44.1099 29.8029 44.1099 29.8989 44.0138 29.995C43.8697 30.1872 43.7736 30.2832 43.5815 30.2832L39.7866 30.4754C37.673 30.5715 35.5113 32.2527 34.6947 34.2703L34.5025 35.183C34.4065 35.2791 34.5025 35.4712 34.6947 35.4712H47.8568C48.0489 35.4712 48.145 35.3751 48.145 35.183C48.3371 34.3664 48.5293 33.5017 48.5293 32.589C48.5773 27.401 44.302 23.1258 39.1141 23.1258Z" fill="#B8B8B8"/>
</g>
</g>
<defs>
<clipPath id="clip0_1153_20295">
<rect width="48.0368" height="48.0368" fill="white" transform="translate(0.539062 0.981628)"/>
</clipPath>
</defs>
</svg>
