<svg width="46" height="46" viewBox="0 0 46 46" fill="none" xmlns="http://www.w3.org/2000/svg">
<g clip-path="url(#clip0_1153_20291)">
<path d="M27.7311 13.4745C26.1262 13.8478 24.4837 14.0349 22.836 14.0324C21.1884 14.0341 19.546 13.8469 17.941 13.4745C19.2532 11.3937 20.9083 9.55001 22.836 8.02162C24.7623 9.55157 26.4171 11.395 27.7311 13.4745ZM42.486 1.48092C40.4789 0.951257 38.4116 0.684055 36.3358 0.685998C31.5306 0.681386 26.8321 2.10354 22.836 4.77219C18.8407 2.102 14.1417 0.679706 9.33624 0.685998C7.24643 0.680426 5.16483 0.947658 3.14419 1.48092C2.29771 1.69288 1.4642 1.95364 0.647845 2.2619C0.633089 2.27949 0.625 2.30171 0.625 2.32466C0.625 2.34761 0.633089 2.36983 0.647845 2.38742C0.99599 3.13657 1.38234 3.86738 1.80537 4.57695C1.82174 4.58835 1.84121 4.59446 1.86115 4.59446C1.8811 4.59446 1.90057 4.58835 1.91694 4.57695C2.74317 4.2776 3.58598 4.02616 4.44117 3.82386C9.96508 2.56698 15.7613 3.50717 20.6047 6.44572C18.5091 8.21751 16.7269 10.3297 15.333 12.6936C15.0541 13.1398 14.817 13.6 14.566 14.0882C14.315 14.5763 14.2592 14.7157 14.1058 15.0504C13.9524 15.3851 13.6735 16.0546 13.4922 16.5566C11.8343 21.013 11.5174 25.8572 12.5806 30.4916C13.6437 35.1259 16.0405 39.3476 19.475 42.6357C19.8376 42.9844 20.2142 43.3191 20.6047 43.6538C20.9951 43.9885 21.2183 44.1698 21.539 44.4069C21.8598 44.644 22.3619 45.0205 22.7802 45.2994C22.7966 45.3108 22.8161 45.3169 22.836 45.3169C22.856 45.3169 22.8754 45.3108 22.8918 45.2994C23.3102 45.0066 23.7286 44.7137 24.133 44.4069C24.5374 44.1001 24.7606 43.9188 25.0674 43.6538C25.3742 43.3888 25.8344 42.9844 26.197 42.6357C28.5702 40.3628 30.4584 37.6329 31.7479 34.6105C33.0374 31.588 33.7015 28.3358 33.7 25.0498C33.705 22.1506 33.1902 19.274 32.1799 16.5566C31.9846 16.0406 31.7754 15.5385 31.5523 15.0365C31.3292 14.5344 31.2455 14.381 31.0921 14.0742C30.9387 13.7674 30.604 13.1538 30.3251 12.6796C28.9292 10.3171 27.1473 8.20526 25.0534 6.43177C29.9083 3.50864 35.7097 2.58841 41.2309 3.8657C42.0863 4.06721 42.9291 4.31867 43.7551 4.61879C43.7715 4.63018 43.7909 4.63629 43.8109 4.63629C43.8308 4.63629 43.8503 4.63018 43.8667 4.61879C44.2758 3.91219 44.6569 3.18699 45.0103 2.4432C45.025 2.42562 45.0331 2.4034 45.0331 2.38044C45.0331 2.35749 45.025 2.33527 45.0103 2.31769C44.1853 1.99145 43.3425 1.71209 42.486 1.48092Z" fill="#454545"/>
<path d="M31.0797 25.0509C31.0881 30.5964 28.9663 35.9333 25.1526 39.9592C24.489 37.8471 24.1504 35.6463 24.1485 33.4324C24.1386 27.8867 26.2606 22.5493 30.0755 18.5241C30.74 20.636 31.0786 22.8369 31.0797 25.0509Z" fill="#5D5D5D"/>
<path d="M21.5694 33.4324C21.5698 35.6465 21.2312 37.8476 20.5653 39.9592C17.9068 37.1505 16.0484 33.6817 15.1827 29.9125C14.3171 26.1434 14.4758 22.2113 15.6423 18.5241C19.4572 22.5493 21.5792 27.8867 21.5694 33.4324Z" fill="#F8F8F8"/>
</g>
<defs>
<clipPath id="clip0_1153_20291">
<rect width="44.3775" height="44.6274" fill="white" transform="translate(0.648438 0.68631)"/>
</clipPath>
</defs>
</svg>
