<svg width="49" height="50" viewBox="0 0 49 50" fill="none" xmlns="http://www.w3.org/2000/svg">
<g clip-path="url(#clip0_1153_20231)">
<path d="M48.0558 20.7248C47.9117 20.6288 46.7107 19.7161 44.1648 19.7161C43.4923 19.7161 42.8198 19.7641 42.1472 19.9082C41.6669 16.4976 38.8327 14.8643 38.6886 14.7683L38.0161 14.384L37.5838 15.0565C37.0073 15.9211 36.623 16.8819 36.3828 17.9387C35.9025 19.8602 36.1907 21.6856 37.1995 23.2708C35.9985 23.9433 34.0771 24.0874 33.6928 24.1354H1.98851C1.17189 24.0394 0.499374 24.7119 0.499374 25.5285C0.451337 28.2666 0.931704 31.0527 1.89244 33.6467C2.99729 36.5289 4.5825 38.5945 6.69612 39.8915C9.04992 41.3326 12.8929 42.1492 17.2642 42.1492C19.2337 42.1492 21.2032 41.9571 23.1247 41.6208C25.8147 41.1404 28.4087 40.1797 30.7625 38.8347C32.732 37.6818 34.5094 36.2407 35.9985 34.5594C38.4965 31.7252 39.9856 28.5548 41.0904 25.7687H41.5228C44.2609 25.7687 45.9421 24.6638 46.9029 23.7511C47.5274 23.1747 48.0077 22.4541 48.296 21.6375L48.4881 21.0611L48.0558 20.7248Z" fill="#7D7D7D"/>
<path d="M4.91554 23.0787H9.14278C9.33493 23.0787 9.52707 22.9346 9.52707 22.6944V18.8995C9.52707 18.7074 9.38296 18.5152 9.14278 18.5152H4.91554C4.7234 18.5152 4.53125 18.6593 4.53125 18.8995V22.6944C4.57929 22.9346 4.7234 23.0787 4.91554 23.0787Z" fill="#7D7D7D"/>
<path d="M10.7788 23.0787H15.0061C15.1982 23.0787 15.3904 22.9346 15.3904 22.6944V18.8995C15.3904 18.7074 15.2462 18.5152 15.0061 18.5152H10.7788C10.5867 18.5152 10.3945 18.6593 10.3945 18.8995V22.6944C10.3945 22.9346 10.5867 23.0787 10.7788 23.0787Z" fill="#7D7D7D"/>
<path d="M16.689 23.0787H20.9162C21.1084 23.0787 21.3005 22.9346 21.3005 22.6944V18.8995C21.3005 18.7074 21.1564 18.5152 20.9162 18.5152H16.689C16.4968 18.5152 16.3047 18.6593 16.3047 18.8995V22.6944C16.3527 22.9346 16.4968 23.0787 16.689 23.0787Z" fill="#7D7D7D"/>
<path d="M22.5952 23.0787H26.8225C27.0146 23.0787 27.2068 22.9346 27.2068 22.6944V18.8995C27.2068 18.7074 27.0627 18.5152 26.8225 18.5152H22.5952C22.4031 18.5152 22.2109 18.6593 22.2109 18.8995V22.6944C22.2109 22.9346 22.355 23.0787 22.5952 23.0787Z" fill="#7D7D7D"/>
<path d="M10.7788 17.6507H15.0061C15.1982 17.6507 15.3904 17.5066 15.3904 17.2664V13.4715C15.3904 13.2794 15.2462 13.0872 15.0061 13.0872H10.7788C10.5867 13.0872 10.3945 13.2314 10.3945 13.4715V17.2664C10.3945 17.5066 10.5867 17.6507 10.7788 17.6507Z" fill="#7D7D7D"/>
<path d="M16.689 17.6507H20.9162C21.1084 17.6507 21.3005 17.5066 21.3005 17.2664V13.4715C21.3005 13.2794 21.1564 13.0872 20.9162 13.0872H16.689C16.4968 13.0872 16.3047 13.2314 16.3047 13.4715V17.2664C16.3527 17.5066 16.4968 17.6507 16.689 17.6507Z" fill="#7D7D7D"/>
<path d="M22.5952 17.6507H26.8225C27.0146 17.6507 27.2068 17.5066 27.2068 17.2664V13.4715C27.2068 13.2794 27.0627 13.0872 26.8225 13.0872H22.5952C22.4031 13.0872 22.2109 13.2314 22.2109 13.4715V17.2664C22.2109 17.5066 22.355 17.6507 22.5952 17.6507Z" fill="#7D7D7D"/>
<path d="M22.5952 12.2227H26.8225C27.0146 12.2227 27.2068 12.0786 27.2068 11.8384V8.04353C27.2068 7.85139 27.0627 7.65924 26.8225 7.65924H22.5952C22.4031 7.65924 22.2109 7.80335 22.2109 8.04353V11.8384C22.2109 12.0786 22.355 12.2227 22.5952 12.2227Z" fill="#7D7D7D"/>
<path d="M28.5054 23.0787H32.7326C32.9248 23.0787 33.1169 22.9346 33.1169 22.6944V18.8995C33.1169 18.7074 32.9728 18.5152 32.7326 18.5152H28.5054C28.3132 18.5152 28.1211 18.6593 28.1211 18.8995V22.6944C28.1211 22.9346 28.2652 23.0787 28.5054 23.0787Z" fill="#7D7D7D"/>
</g>
<defs>
<clipPath id="clip0_1153_20231">
<rect width="48.0368" height="48.0368" fill="white" transform="translate(0.5 0.981628)"/>
</clipPath>
</defs>
</svg>
