<svg width="51" height="50" viewBox="0 0 51 50" fill="none" xmlns="http://www.w3.org/2000/svg">
<path fill-rule="evenodd" clip-rule="evenodd" d="M9.67002 26.7964C9.73252 28.0871 11.0216 27.4902 11.606 27.0871C12.1606 26.7043 12.3231 27.023 12.3716 26.2668C12.4219 25.771 12.4422 25.2727 12.4325 24.7746C11.5717 24.6882 10.7081 24.9096 9.99502 25.3996C9.64034 25.6574 8.97784 26.4777 9.67002 26.8058" fill="#F6D2A2"/>
<path d="M10.3414 27.7064C10.214 27.7087 10.0877 27.6814 9.97266 27.6267C9.84115 27.5507 9.73257 27.4406 9.65834 27.3081C9.5841 27.1755 9.54694 27.0254 9.55078 26.8736C9.46552 26.8324 9.39212 26.7702 9.33746 26.6928C9.2828 26.6155 9.24868 26.5255 9.23828 26.4314C9.2616 26.2044 9.33406 25.9852 9.45062 25.7891C9.56719 25.5929 9.72506 25.4245 9.91328 25.2955C10.6495 24.7865 11.5434 24.5576 12.4336 24.6501L12.5398 24.6595V24.7658C12.5536 25.1552 12.5416 25.5451 12.5039 25.933C12.4945 26.047 12.4867 26.1595 12.4789 26.2736C12.4445 26.8095 12.3445 26.8908 12.068 26.9861C11.9227 27.0325 11.7852 27.1004 11.6602 27.1876C11.2725 27.471 10.8183 27.6497 10.3414 27.7064ZM12.0758 24.8814C11.3581 24.8718 10.6555 25.0871 10.0664 25.497C9.81328 25.6814 9.46172 26.1126 9.49141 26.4095C9.50027 26.4724 9.52644 26.5316 9.567 26.5804C9.60757 26.6292 9.66092 26.6658 9.72109 26.6861L9.78828 26.7173V26.7908C9.80391 27.1126 9.90078 27.3189 10.0773 27.4064C10.418 27.5751 11.0523 27.3158 11.532 26.9861C11.6759 26.8861 11.8339 26.8082 12.0008 26.7548C12.182 26.6923 12.2195 26.6783 12.2461 26.258C12.2461 26.1439 12.2617 26.0298 12.2711 25.9142C12.303 25.5725 12.3166 25.2293 12.3117 24.8861C12.2315 24.883 12.1518 24.8814 12.0758 24.8814Z" fill="black"/>
<path fill-rule="evenodd" clip-rule="evenodd" d="M9.66797 26.7964C9.86414 26.7531 10.043 26.6525 10.182 26.5074L9.66797 26.7964Z" fill="#C6B198"/>
<path d="M9.66944 26.9204C9.64129 26.9194 9.61436 26.9087 9.59312 26.8902C9.57188 26.8716 9.55761 26.8464 9.55268 26.8187C9.54776 26.7909 9.55247 26.7624 9.56603 26.7377C9.5796 26.713 9.6012 26.6937 9.62726 26.6829L9.71007 26.6533C9.85452 26.6202 9.98572 26.5446 10.0866 26.4361C10.0955 26.4213 10.1074 26.4085 10.1215 26.3986C10.1356 26.3887 10.1517 26.3818 10.1686 26.3785C10.1855 26.3751 10.203 26.3754 10.2198 26.3792C10.2366 26.383 10.2525 26.3903 10.2663 26.4006C10.2801 26.4109 10.2916 26.4241 10.3001 26.4391C10.3085 26.4541 10.3138 26.4708 10.3154 26.488C10.317 26.5051 10.315 26.5225 10.3095 26.5388C10.304 26.5552 10.2952 26.5702 10.2835 26.5829C10.1546 26.7313 9.98341 26.8365 9.79288 26.8845L9.71319 26.9126C9.69921 26.9179 9.68438 26.9205 9.66944 26.9204Z" fill="black"/>
<path fill-rule="evenodd" clip-rule="evenodd" d="M12.6496 11.4211C7.7074 10.032 11.3824 3.75077 15.3496 6.33202L12.6496 11.4211Z" fill="#969696"/>
<path d="M12.7113 11.5622L12.616 11.5356C12.0212 11.4344 11.4705 11.1569 11.0353 10.739C10.6001 10.3211 10.3005 9.78207 10.1754 9.19184C10.1167 8.5854 10.2285 7.97463 10.4982 7.42831C10.7679 6.88198 11.1848 6.42182 11.7019 6.09965C12.2626 5.74579 12.9166 5.56864 13.5792 5.59121C14.2418 5.61378 14.8823 5.83502 15.4176 6.22622L15.5113 6.28715L12.7113 11.5622ZM13.4129 5.83403C12.8525 5.83419 12.3043 5.99704 11.8347 6.30278C11.3569 6.59868 10.9711 7.02205 10.7207 7.52527C10.4703 8.02849 10.3653 8.59159 10.4176 9.15122C10.5298 9.67936 10.7955 10.1626 11.1814 10.5404C11.5672 10.9181 12.0559 11.1735 12.5863 11.2747L15.1879 6.37309C14.6575 6.033 14.0428 5.84741 13.4129 5.83715V5.83403Z" fill="black"/>
<path fill-rule="evenodd" clip-rule="evenodd" d="M34.6016 5.85877C38.5078 3.11189 42.0469 9.31033 37.5016 10.8697L34.6016 5.85877Z" fill="#969696"/>
<path d="M37.4492 11.019L34.4414 5.82371L34.5336 5.75965C35.0339 5.35911 35.642 5.11654 36.2806 5.06284C36.9193 5.00914 37.5594 5.14673 38.1195 5.45808C38.649 5.76869 39.0819 6.22019 39.3699 6.76228C39.6579 7.30437 39.7897 7.91578 39.7508 8.5284C39.6715 9.11216 39.4186 9.65862 39.0249 10.0969C38.6312 10.5352 38.1149 10.845 37.543 10.9862L37.4492 11.019ZM34.768 5.89558L37.5602 10.719C38.0661 10.5812 38.5204 10.2977 38.8665 9.90378C39.2127 9.50985 39.4354 9.02288 39.507 8.5034C39.5421 7.93741 39.4195 7.37278 39.1527 6.87236C38.886 6.37195 38.4856 5.95538 37.9961 5.66902C37.4964 5.38191 36.9224 5.25013 36.3475 5.29048C35.7726 5.33084 35.2227 5.54149 34.768 5.89558Z" fill="black"/>
<path fill-rule="evenodd" clip-rule="evenodd" d="M35.4453 42.6822C36.4391 43.2963 38.2578 45.1557 36.7641 46.0572C35.3328 47.3682 34.5312 44.6182 33.2734 44.2369C33.5151 43.8474 33.8314 43.5095 34.2041 43.2427C34.5769 42.9759 34.9987 42.7854 35.4453 42.6822Z" fill="#F6D2A2"/>
<path d="M36.0078 46.5326H35.9484C35.3844 46.4982 34.9156 45.9482 34.4625 45.4154C34.1515 44.9631 33.729 44.5987 33.2359 44.3576L33.0703 44.3076L33.1734 44.1669C33.6832 43.3565 34.4924 42.7803 35.425 42.5638H35.4703L35.5094 42.5873C36.1453 42.981 37.4578 44.131 37.4516 45.1716C37.4483 45.3772 37.3895 45.5781 37.2814 45.7531C37.1733 45.928 37.0199 46.0705 36.8375 46.1654C36.6175 46.3885 36.3209 46.5198 36.0078 46.5326ZM33.4687 44.1888C33.9321 44.4617 34.3342 44.8271 34.65 45.2623C35.0891 45.7779 35.5047 46.2654 35.9641 46.2935C36.0981 46.2931 36.2307 46.2652 36.3536 46.2114C36.4764 46.1577 36.5869 46.0793 36.6781 45.981L36.6969 45.9669C36.8456 45.8942 36.9715 45.782 37.0608 45.6426C37.1501 45.5031 37.1993 45.3418 37.2031 45.1763C37.2031 44.3451 36.1531 43.3013 35.4156 42.8326C34.6186 43.0176 33.9222 43.4999 33.4687 44.181V44.1888Z" fill="black"/>
<path d="M36.765 46.1804C36.7424 46.1803 36.7202 46.174 36.7009 46.1622C36.6816 46.1503 36.666 46.1334 36.6557 46.1132C36.583 45.9607 36.5188 45.8042 36.4635 45.6445C36.3782 45.3441 36.2254 45.0673 36.0166 44.8351C35.9973 44.8117 35.9872 44.782 35.9884 44.7517C35.9895 44.7214 36.0018 44.6926 36.0229 44.6707C36.0439 44.6489 36.0723 44.6356 36.1026 44.6333C36.1328 44.6311 36.1628 44.6401 36.1869 44.6585C36.4236 44.9158 36.5974 45.2244 36.6947 45.5601C36.7472 45.7091 36.8077 45.8551 36.876 45.9976C36.8907 46.0268 36.8931 46.0607 36.8829 46.0917C36.8726 46.1228 36.8505 46.1485 36.8213 46.1632C36.8042 46.1735 36.7849 46.1794 36.765 46.1804Z" fill="black"/>
<path fill-rule="evenodd" clip-rule="evenodd" d="M17.6979 44.7839C16.5323 44.9636 15.8761 46.0167 14.9042 46.551C13.9886 47.0979 13.637 46.376 13.5557 46.2292C13.412 46.1635 13.4245 46.2901 13.2026 46.0729C12.3479 44.726 14.0854 43.7495 14.9886 43.0807C16.2464 42.8261 17.0354 43.9167 17.6979 44.7839Z" fill="#F6D2A2"/>
<path d="M14.2796 46.8749C14.2052 46.8753 14.1311 46.8659 14.0593 46.8468C13.9309 46.8048 13.8122 46.7376 13.7102 46.649C13.6082 46.5605 13.525 46.4524 13.4655 46.3311H13.4374C13.3343 46.3311 13.2577 46.3093 13.1046 46.1546L13.0874 46.1342C12.2702 44.8436 13.6608 43.8639 14.5827 43.2155C14.6983 43.1343 14.8077 43.0593 14.9061 42.9843L14.928 42.9686H14.9546C16.2499 42.7061 17.0686 43.778 17.7249 44.6389L17.9108 44.8811L17.7061 44.9124C17.0476 45.0704 16.4484 45.4143 15.9796 45.903C15.6642 46.1914 15.3202 46.4469 14.953 46.6655C14.7512 46.7941 14.5187 46.8664 14.2796 46.8749ZM13.4561 46.0843C13.5059 46.0843 13.555 46.0955 13.5999 46.1171L13.6358 46.1342L13.6671 46.1889C13.7111 46.286 13.7742 46.3732 13.8525 46.4454C13.9309 46.5176 14.023 46.5733 14.1233 46.6093C14.2465 46.6321 14.373 46.6301 14.4954 46.6033C14.6178 46.5764 14.7335 46.5253 14.8358 46.453C15.1895 46.2417 15.5209 45.9951 15.8249 45.7171C16.287 45.2552 16.8527 44.9102 17.4749 44.7108C16.8499 43.8889 16.128 43.0014 15.0343 43.2061C14.939 43.2749 14.8358 43.3483 14.7218 43.4233C13.7843 44.0858 12.6093 44.9108 13.2858 45.9983C13.3827 46.0952 13.4061 46.0936 13.4265 46.0936L13.4561 46.0843Z" fill="black"/>
<path d="M13.5535 46.3515H13.5426C13.5101 46.3487 13.48 46.3332 13.4589 46.3083C13.4379 46.2834 13.4275 46.2512 13.4301 46.2187C13.4805 45.891 13.6169 45.5826 13.8254 45.3249C13.9237 45.1889 14.0099 45.0446 14.0832 44.8937C14.0979 44.8662 14.1225 44.8453 14.152 44.8351C14.1815 44.825 14.2137 44.8264 14.2422 44.8391C14.2707 44.8517 14.2933 44.8747 14.3056 44.9034C14.3178 44.9321 14.3188 44.9643 14.3082 44.9937C14.2294 45.1577 14.1363 45.3146 14.0301 45.4624C13.8462 45.6875 13.7244 45.9569 13.677 46.2437C13.6731 46.2736 13.6585 46.3011 13.6357 46.321C13.613 46.3409 13.5837 46.3517 13.5535 46.3515Z" fill="black"/>
<path fill-rule="evenodd" clip-rule="evenodd" d="M12.8572 9.68737C12.2056 9.34206 11.7275 8.87487 12.1259 8.12487C12.4947 7.42643 13.1806 7.49987 13.8322 7.84674L12.8572 9.68737Z" fill="black"/>
<path fill-rule="evenodd" clip-rule="evenodd" d="M36.475 9.02761C37.1266 8.6823 37.6047 8.21511 37.2062 7.46511C36.8375 6.76667 36.1516 6.84011 35.5 7.18698L36.475 9.02761Z" fill="black"/>
<path fill-rule="evenodd" clip-rule="evenodd" d="M40.9602 26.6345C40.8977 27.9252 39.6086 27.3283 39.0242 26.9252C38.4695 26.5424 38.307 26.8611 38.2586 26.1049C38.2083 25.6091 38.188 25.1108 38.1977 24.6127C39.0585 24.5263 39.9221 24.7478 40.6352 25.2377C40.9898 25.4955 41.6523 26.3158 40.9602 26.6439" fill="#F6D2A2"/>
<path d="M40.2898 27.5415C39.8077 27.4879 39.3478 27.3096 38.9555 27.0243C38.8304 26.9371 38.6929 26.8691 38.5477 26.8228C38.2711 26.7259 38.1711 26.6446 38.1367 26.1103C38.1367 25.9962 38.1211 25.8837 38.1117 25.7696C38.0741 25.3818 38.0621 24.9919 38.0758 24.6024V24.4962L38.182 24.4868C39.0722 24.3943 39.9662 24.6232 40.7023 25.1321C40.8906 25.2611 41.0484 25.4296 41.165 25.6257C41.2816 25.8219 41.354 26.0411 41.3773 26.2681C41.3669 26.3622 41.3328 26.4521 41.2782 26.5295C41.2235 26.6068 41.1501 26.669 41.0648 26.7102C41.0687 26.8621 41.0315 27.0122 40.9573 27.1447C40.883 27.2773 40.7745 27.3873 40.643 27.4634C40.5325 27.5153 40.4119 27.542 40.2898 27.5415ZM38.3164 24.729C38.3116 25.0722 38.3251 25.4154 38.357 25.7571C38.3664 25.8712 38.3742 25.9853 38.382 26.1009C38.4086 26.5212 38.4461 26.5337 38.6273 26.5978C38.7942 26.6511 38.9522 26.729 39.0961 26.829C39.5742 27.1602 40.2102 27.4181 40.5508 27.2493C40.7273 27.1618 40.8242 26.9556 40.8398 26.6337V26.5603L40.907 26.529C40.9672 26.5087 41.0206 26.4722 41.0611 26.4233C41.1017 26.3745 41.1279 26.3153 41.1367 26.2524C41.1648 25.9556 40.8148 25.5243 40.5617 25.3399C39.9059 24.8836 39.1133 24.6663 38.3164 24.7243V24.729Z" fill="black"/>
<path fill-rule="evenodd" clip-rule="evenodd" d="M40.9633 26.6345C40.7671 26.5911 40.5882 26.4905 40.4492 26.3455L40.9633 26.6345Z" fill="#C6B198"/>
<path d="M40.9613 26.7564C40.9474 26.7589 40.9331 26.7589 40.9191 26.7564L40.8394 26.7283C40.6489 26.6804 40.4776 26.5751 40.3488 26.4267C40.3372 26.414 40.3283 26.399 40.3228 26.3826C40.3173 26.3663 40.3153 26.3489 40.317 26.3317C40.3186 26.3146 40.3238 26.2979 40.3322 26.2829C40.3407 26.2678 40.3522 26.2547 40.366 26.2444C40.3799 26.2341 40.3957 26.2268 40.4125 26.223C40.4294 26.2192 40.4468 26.2189 40.4637 26.2222C40.4807 26.2256 40.4967 26.2324 40.5108 26.2424C40.5249 26.2523 40.5368 26.2651 40.5457 26.2799C40.6466 26.3884 40.7778 26.464 40.9223 26.497L41.0051 26.5267C41.0311 26.5374 41.0527 26.5568 41.0663 26.5814C41.0799 26.6061 41.0846 26.6347 41.0796 26.6625C41.0747 26.6902 41.0604 26.7154 41.0392 26.7339C41.018 26.7524 40.991 26.7631 40.9629 26.7642L40.9613 26.7564Z" fill="black"/>
<path fill-rule="evenodd" clip-rule="evenodd" d="M24.8215 3.24832C29.7684 3.24832 34.4059 3.95613 36.8231 8.70926C38.9934 14.0358 38.2215 19.7811 38.5528 25.4108C38.8371 30.2452 39.4668 35.8296 37.2246 40.3108C34.8653 45.0233 28.9699 46.2093 24.1121 46.0358C20.2965 45.8999 15.6887 44.6546 13.5356 41.1686C11.009 37.0796 12.2059 30.9983 12.3887 26.4483C12.6059 21.0593 10.9293 15.6514 12.7012 10.378C14.5387 4.90926 19.4918 3.6702 24.8231 3.24832" fill="#969696"/>
<path d="M24.9545 46.1718C24.642 46.1718 24.3608 46.1718 24.1061 46.1562C21.7623 46.0718 16.0186 45.4234 13.4295 41.2312C11.3873 37.9249 11.7514 33.3546 12.0717 29.3218C12.153 28.3078 12.228 27.3484 12.2655 26.4421C12.3019 24.5295 12.22 22.6165 12.0201 20.714C11.4887 17.2534 11.6802 13.7203 12.5826 10.3374C12.9565 9.1319 13.5775 8.01753 14.4061 7.06543C15.2348 6.11333 16.2527 5.34442 17.3951 4.80775C19.738 3.78333 22.2537 3.21231 24.8092 3.12494H24.8186C29.6483 3.12494 34.4592 3.79525 36.9295 8.65306V8.66244C38.247 12.5629 38.8008 16.6806 38.5608 20.7906C38.5686 22.3046 38.578 23.8718 38.667 25.4031C38.6936 25.8718 38.7248 26.3406 38.7561 26.8093C39.0436 31.2484 39.3686 36.2812 37.3264 40.3609C34.7811 45.4562 28.3561 46.1718 24.9545 46.1718ZM24.8233 3.37025C19.6764 3.77806 14.667 4.914 12.8123 10.4156C11.9221 13.767 11.7343 17.2663 12.2608 20.6937C12.4599 22.6067 12.5403 24.5301 12.5014 26.4531C12.4639 27.3656 12.3889 28.3281 12.3076 29.3437C11.9951 33.339 11.6295 37.8671 13.6295 41.1046C16.1576 45.1968 21.7983 45.8312 24.1061 45.9124C27.1092 46.0203 34.3858 45.6828 37.103 40.2546C39.1155 36.2343 38.792 31.2374 38.5092 26.8296C38.478 26.3609 38.4483 25.8828 38.4201 25.4234C38.3295 23.8859 38.3217 22.3156 38.3139 20.7984C38.5522 16.7218 38.0053 12.6374 36.703 8.76713C34.2983 4.02494 29.5717 3.37181 24.8233 3.37025Z" fill="black"/>
<path fill-rule="evenodd" clip-rule="evenodd" d="M25.6923 9.88885C26.5798 15.0451 35.0204 13.6873 33.8079 8.4826C32.7142 3.81385 25.397 5.10604 25.6923 9.88885Z" fill="white"/>
<path d="M29.7038 13.2584C29.1787 13.2603 28.657 13.1748 28.1601 13.0052C27.4835 12.7815 26.883 12.3728 26.4265 11.8255C25.9701 11.2782 25.6759 10.6142 25.5772 9.90837V9.89587C25.515 8.81689 25.8736 7.75581 26.5776 6.9358C27.2817 6.11579 28.2763 5.60075 29.3522 5.49899C30.3499 5.29198 31.3889 5.48588 32.2447 6.03878C33.1005 6.59168 33.7043 7.45915 33.9257 8.45368C34.1088 9.10128 34.1074 9.78716 33.9216 10.434C33.7358 11.0808 33.373 11.6629 32.8741 12.1146C31.9903 12.8665 30.8641 13.2729 29.7038 13.2584ZM25.8132 9.87556C25.907 10.5376 26.1837 11.1604 26.6121 11.6738C27.0405 12.1872 27.6036 12.571 28.2382 12.7818C28.9943 13.0353 29.8027 13.0909 30.5864 12.9432C31.3701 12.7955 32.1028 12.4494 32.7147 11.9381C33.1827 11.5137 33.5225 10.9668 33.6957 10.3593C33.8688 9.75173 33.8684 9.10786 33.6944 8.50056C33.4832 7.56477 32.9118 6.74984 32.1041 6.23222C31.2964 5.7146 30.3173 5.53595 29.3788 5.73493C28.3648 5.83108 27.4273 6.31582 26.7627 7.08765C26.098 7.85947 25.7578 8.85851 25.8132 9.87556Z" fill="black"/>
<path fill-rule="evenodd" clip-rule="evenodd" d="M15.6118 10.7237C16.7618 15.219 23.9586 14.0628 23.6868 9.55963C23.3618 4.15963 14.5102 5.20182 15.6102 10.7237" fill="white"/>
<path d="M19.4463 13.6887C18.7143 13.6958 17.9922 13.5207 17.3447 13.1794C16.8825 12.9284 16.4787 12.5824 16.1598 12.1642C15.841 11.746 15.6143 11.265 15.4947 10.7528C15.3171 10.053 15.3443 9.3169 15.5731 8.63213C15.8019 7.94735 16.2227 7.34275 16.7853 6.8903C17.4642 6.37264 18.2675 6.04315 19.1144 5.93506C19.9612 5.82698 20.8216 5.94412 21.6088 6.27468C22.2494 6.55453 22.7962 7.01257 23.184 7.59429C23.5718 8.176 23.7843 8.8569 23.7963 9.55593C23.8326 10.5637 23.4823 11.5472 22.8171 12.3051C22.1519 13.063 21.2221 13.5379 20.2181 13.6325C19.9627 13.6712 19.7046 13.69 19.4463 13.6887ZM15.7197 10.6981C15.9674 11.6402 16.5719 12.449 17.4054 12.9533C18.2389 13.4575 19.2359 13.6176 20.1853 13.3997C21.1318 13.3125 22.0093 12.867 22.6381 12.1542C23.2669 11.4414 23.5996 10.5153 23.5681 9.56531C23.5582 8.90794 23.3593 8.26731 22.9952 7.71986C22.6312 7.17241 22.1174 6.74125 21.515 6.4778C20.7667 6.16323 19.9487 6.05161 19.1436 6.15421C18.3384 6.25682 17.5745 6.57001 16.9291 7.06218C16.4003 7.48868 16.0053 8.0581 15.7909 8.70269C15.5764 9.34728 15.5517 10.0399 15.7197 10.6981Z" fill="black"/>
<path fill-rule="evenodd" clip-rule="evenodd" d="M26.7114 16.0845C26.7854 16.7953 26.7938 17.5113 26.7364 18.2236C26.5646 18.547 26.2286 18.5814 25.9396 18.7126C25.7425 18.6817 25.5566 18.601 25.3994 18.4783C25.2422 18.3555 25.1189 18.1947 25.0411 18.0111C24.998 17.2039 25.0195 16.3945 25.1052 15.5908L26.7114 16.0845Z" fill="white"/>
<path d="M25.9585 18.8392H25.9225C25.7042 18.8046 25.4983 18.7146 25.3246 18.5779C25.1509 18.4411 25.0152 18.2621 24.9303 18.0579V18.0423V18.0251C24.8783 17.4725 24.883 16.9159 24.9444 16.3642C24.9647 16.1095 24.985 15.847 24.9928 15.5829V15.4267L26.8382 15.9923V16.0829C26.8382 16.3048 26.8569 16.5345 26.8757 16.7767C26.933 17.2643 26.9288 17.7573 26.8632 18.2439V18.2626L26.8538 18.2798C26.7827 18.3972 26.6888 18.4991 26.5777 18.5796C26.4666 18.6601 26.3406 18.7176 26.2069 18.7486C26.1335 18.7751 26.0647 18.7986 25.9975 18.8298L25.9585 18.8392ZM25.1632 17.9783C25.2317 18.1335 25.3369 18.2697 25.4697 18.3753C25.6025 18.4809 25.759 18.5527 25.9257 18.5845C25.9897 18.5579 26.0553 18.5345 26.1178 18.5111C26.3213 18.4688 26.5011 18.351 26.621 18.1814C26.6768 17.7211 26.6768 17.2557 26.621 16.7954C26.6053 16.5814 26.5897 16.3767 26.585 16.1704L25.2178 15.7517C25.2069 15.9642 25.1913 16.1751 25.1757 16.3767C25.1161 16.9086 25.1109 17.4453 25.16 17.9783H25.1632Z" fill="black"/>
<path d="M17.5945 11.3054C18.2659 11.3054 18.8102 10.7164 18.8102 9.98979C18.8102 9.26319 18.2659 8.67416 17.5945 8.67416C16.9232 8.67416 16.3789 9.26319 16.3789 9.98979C16.3789 10.7164 16.9232 11.3054 17.5945 11.3054Z" fill="black"/>
<path d="M18.1492 10.6218C18.3071 10.6218 18.4352 10.4721 18.4352 10.2874C18.4352 10.1028 18.3071 9.95306 18.1492 9.95306C17.9913 9.95306 17.8633 10.1028 17.8633 10.2874C17.8633 10.4721 17.9913 10.6218 18.1492 10.6218Z" fill="white"/>
<path d="M27.7773 10.9781C28.4375 10.9781 28.9727 10.389 28.9727 9.66243C28.9727 8.93583 28.4375 8.3468 27.7773 8.3468C27.1172 8.3468 26.582 8.93583 26.582 9.66243C26.582 10.389 27.1172 10.9781 27.7773 10.9781Z" fill="black"/>
<path d="M28.3203 10.2937C28.4756 10.2937 28.6016 10.144 28.6016 9.95934C28.6016 9.77467 28.4756 9.62497 28.3203 9.62497C28.165 9.62497 28.0391 9.77467 28.0391 9.95934C28.0391 10.144 28.165 10.2937 28.3203 10.2937Z" fill="white"/>
<path fill-rule="evenodd" clip-rule="evenodd" d="M23.2395 16.011C22.7098 17.2954 23.5348 19.8657 24.9739 17.9704C24.9308 17.1632 24.9522 16.3539 25.0379 15.5501L23.2395 16.011Z" fill="white"/>
<path d="M24.0116 18.7707C23.8874 18.7701 23.7655 18.7367 23.6584 18.6739C23.3137 18.3246 23.0793 17.8817 22.9845 17.4001C22.8898 16.9186 22.9389 16.4199 23.1256 15.9661L23.1491 15.9098L25.1584 15.3911V15.5473C25.1506 15.8129 25.1287 16.0786 25.1084 16.3286C25.0477 16.8636 25.0425 17.4034 25.0928 17.9395V17.9895L25.0631 18.0301C24.6491 18.5942 24.2912 18.7707 24.0116 18.7707ZM23.3303 16.1145C23.1813 16.5086 23.1444 16.9362 23.2238 17.35C23.3033 17.7638 23.4959 18.1474 23.7803 18.4582C24.1522 18.6707 24.5616 18.302 24.8444 17.9348C24.7993 17.3984 24.8061 16.8589 24.8647 16.3239C24.8803 16.1223 24.8959 15.9161 24.9069 15.7114L23.3303 16.1145Z" fill="black"/>
<path fill-rule="evenodd" clip-rule="evenodd" d="M23.4202 13.5356C23.1736 13.5587 22.936 13.6402 22.7271 13.7733C22.5182 13.9063 22.3439 14.0871 22.2186 14.3008C22.0933 14.5145 22.0206 14.7548 22.0064 15.0021C21.9923 15.2494 22.0372 15.4965 22.1374 15.7231C22.8171 16.9543 24.3358 15.6137 25.2827 15.7403C26.3764 15.7621 27.2639 16.8918 28.1374 15.9449C29.1092 14.8918 27.7186 13.8653 26.6311 13.4074L23.4202 13.5356Z" fill="#F6D2A2"/>
<path d="M27.3557 16.4468C27.0069 16.4194 26.6667 16.3244 26.3542 16.1671C26.0174 15.9998 25.6522 15.897 25.2776 15.864H25.2635C24.8801 15.8643 24.5011 15.9452 24.151 16.1015C23.3839 16.3671 22.5135 16.6671 22.026 15.789C21.9079 15.5679 21.8479 15.3204 21.8517 15.0698C21.8556 14.8191 21.9231 14.5736 22.0479 14.3562C22.1795 14.1001 22.3723 13.8806 22.6092 13.717C22.846 13.5535 23.1197 13.451 23.4057 13.4187L26.651 13.2812L26.676 13.2921C27.4838 13.6328 28.4042 14.2562 28.562 14.9843C28.5832 15.1601 28.5684 15.3384 28.5185 15.5084C28.4687 15.6783 28.3848 15.8363 28.2719 15.9728C28.1591 16.1093 28.0197 16.2214 27.8622 16.3024C27.7047 16.3833 27.5324 16.4314 27.3557 16.4437V16.4468ZM25.2885 15.6249C25.6924 15.6581 26.0863 15.7673 26.4495 15.9468C27.0635 16.2046 27.5432 16.4078 28.0448 15.8687C28.1567 15.7656 28.2408 15.636 28.2894 15.4918C28.338 15.3476 28.3495 15.1935 28.3229 15.0437C28.187 14.4187 27.3198 13.8421 26.6042 13.5374L23.4229 13.664C23.1787 13.6947 22.9456 13.7843 22.7437 13.925C22.5417 14.0657 22.377 14.2534 22.2635 14.4718C22.1584 14.6532 22.1011 14.8584 22.097 15.068C22.0929 15.2776 22.1422 15.4849 22.2401 15.6703C22.6276 16.3718 23.3339 16.1296 24.0682 15.8734C24.4522 15.7032 24.8686 15.6184 25.2885 15.6249Z" fill="#231F20"/>
<path fill-rule="evenodd" clip-rule="evenodd" d="M23.2981 13.4837C23.2247 11.7727 26.4887 11.5618 26.8793 12.9915C27.27 14.4212 23.4637 14.754 23.3028 13.4852L23.2981 13.4837Z" fill="black"/>
</svg>
