<svg width="49" height="50" viewBox="0 0 49 50" fill="none" xmlns="http://www.w3.org/2000/svg">
<g clip-path="url(#clip0_1153_20181)">
<path d="M24.2606 49.0184C37.5187 49.0184 48.2789 38.2581 48.2789 25C48.2789 11.7418 37.5187 0.981598 24.2606 0.981598C11.0024 0.981598 0.242188 11.7418 0.242188 25C0.242188 38.2581 11.0024 49.0184 24.2606 49.0184Z" fill="white"/>
<path d="M40.1638 43.0144L18.6913 15.3932H14.6562V34.6079H17.8747V19.4763L37.5698 44.9358C38.4825 44.3594 39.3471 43.7349 40.1638 43.0144Z" fill="url(#paint0_linear_1153_20181)"/>
<path d="M34.1599 15.3932H30.9414V34.6079H34.1599V15.3932Z" fill="url(#paint1_linear_1153_20181)"/>
</g>
<defs>
<linearGradient id="paint0_linear_1153_20181" x1="25.1255" y1="35.4681" x2="34.5995" y2="47.2104" gradientUnits="userSpaceOnUse">
<stop stop-color="#262626"/>
<stop offset="1" stop-color="white" stop-opacity="0"/>
</linearGradient>
<linearGradient id="paint1_linear_1153_20181" x1="32.5739" y1="15.3871" x2="32.5203" y2="29.498" gradientUnits="userSpaceOnUse">
<stop stop-color="#262626"/>
<stop offset="1" stop-color="white" stop-opacity="0"/>
</linearGradient>
<clipPath id="clip0_1153_20181">
<rect width="48.0368" height="48.0368" fill="white" transform="translate(0.242188 0.981628)"/>
</clipPath>
</defs>
</svg>
