<svg width="49" height="50" viewBox="0 0 49 50" fill="none" xmlns="http://www.w3.org/2000/svg">
<g clip-path="url(#clip0_1153_20223)">
<path d="M22.5931 1.51107C23.794 0.838555 25.3312 0.838555 26.5321 1.51107C32.5367 4.87364 38.4933 8.28425 44.4978 11.6468C45.6027 12.2713 46.3713 13.5203 46.3713 14.8173V35.1848C46.3713 36.5299 45.5547 37.8269 44.3537 38.4513C38.3972 41.8139 32.4406 45.1765 26.436 48.5391C25.2351 49.2116 23.6499 49.1635 22.449 48.443C20.6716 47.3862 18.8462 46.3774 17.0689 45.3206C16.6846 45.0804 16.3003 44.9363 16.0121 44.552C16.2522 44.2638 16.6365 44.2157 16.9728 44.0716C17.7414 43.8315 18.4139 43.4472 19.0864 43.0629C19.2786 42.9668 19.4707 42.9668 19.6148 43.1109C21.152 43.9756 22.6411 44.8883 24.1783 45.7529C24.5146 45.9451 24.8508 45.7049 25.139 45.5127C31.0956 42.2462 36.9561 38.9797 42.7685 35.6652C43.0087 35.5691 43.1048 35.3289 43.1048 35.0888C43.1048 28.3636 43.1048 21.6385 43.1048 14.9614C43.1528 14.6731 42.9607 14.433 42.7205 14.3369C36.7639 10.9743 30.8074 7.61174 24.8989 4.2972C24.8028 4.24916 24.6587 4.20113 24.5626 4.20113C24.4185 4.20113 24.3224 4.24916 24.2263 4.2972C18.2698 7.65977 12.3613 11.0223 6.4047 14.3369C6.11648 14.433 5.97237 14.6731 5.97237 14.9133C5.97237 21.6385 5.97237 28.3636 5.97237 35.0407C5.97237 35.1368 5.97237 35.2809 6.06844 35.377C6.11648 35.4731 6.21255 35.5691 6.30863 35.6172C7.89384 36.5299 9.47905 37.3945 11.0643 38.3072C11.977 38.7876 13.0338 39.0758 14.0425 38.6915C14.9072 38.4033 15.5317 37.4906 15.4836 36.5779C15.4836 29.9008 15.4836 23.2237 15.4836 16.5466C15.4836 16.2584 15.7238 16.0182 16.0121 16.0182C16.7806 16.0182 17.5492 16.0182 18.3178 16.0182C18.6541 16.0182 18.8462 16.3064 18.7982 16.6426C18.7982 23.3678 18.7982 30.0929 18.7982 36.8181C18.7982 38.5954 18.0776 40.565 16.3963 41.4296C14.3788 42.4864 11.8329 42.2462 9.81531 41.2375C8.08599 40.3728 6.4047 39.316 4.67538 38.4033C3.57053 37.8269 2.75391 36.5299 2.75391 35.1848V14.8173C2.75391 13.4722 3.52249 12.2233 4.67538 11.5988C10.6319 8.23622 16.6365 4.87364 22.5931 1.51107Z" fill="#A8A8A8"/>
<path d="M27.7823 15.5843C30.3763 15.4401 33.1624 15.4882 35.5162 16.7852C37.3416 17.7459 38.3504 19.8115 38.3504 21.829C38.3024 22.1173 38.0141 22.2614 37.774 22.2133C37.0054 22.2133 36.2848 22.2133 35.5162 22.2133C35.18 22.2133 34.9878 21.9251 34.9878 21.6369C34.7476 20.6761 34.2673 19.7154 33.3546 19.235C31.9615 18.5145 30.3283 18.5625 28.8391 18.6106C27.7343 18.6586 26.5334 18.7547 25.6207 19.4272C24.9001 19.9076 24.6599 20.9163 24.9481 21.733C25.1883 22.3094 25.8608 22.5015 26.3892 22.6457C29.5116 23.4623 32.8262 23.3662 35.9005 24.4711C37.1975 24.9034 38.3984 25.768 38.8788 27.1131C39.4552 28.8904 39.2151 31.0521 37.9181 32.4932C36.9093 33.6941 35.3721 34.3186 33.883 34.6548C31.8174 35.0872 29.7518 35.0872 27.7343 34.895C25.8128 34.6548 23.8433 34.1745 22.4022 32.8775C21.1532 31.7726 20.5288 30.0914 20.5768 28.4581C20.5768 28.1699 20.865 27.9777 21.1532 28.0258C21.9218 28.0258 22.6904 28.0258 23.411 28.0258C23.6992 28.0258 23.9394 28.266 23.9394 28.5542C24.0835 29.4669 24.4197 30.4276 25.2364 31.0041C26.7735 32.0128 28.743 31.9167 30.4724 31.9648C31.9615 31.9167 33.5948 31.8687 34.7957 30.908C35.4202 30.3315 35.6123 29.4188 35.4202 28.6503C35.228 27.9777 34.5555 27.6895 33.931 27.4493C30.8567 26.4886 27.4941 26.8249 24.4197 25.72C23.1708 25.2877 21.9699 24.4711 21.4895 23.1741C20.817 21.3487 21.1052 19.139 22.5463 17.7459C23.9394 16.3048 25.9089 15.7764 27.7823 15.5843Z" fill="#A8A8A8"/>
</g>
<defs>
<clipPath id="clip0_1153_20223">
<rect width="48.0368" height="48.0368" fill="white" transform="translate(0.355469 0.981628)"/>
</clipPath>
</defs>
</svg>
