<svg width="49" height="50" viewBox="0 0 49 50" fill="none" xmlns="http://www.w3.org/2000/svg">
<g clip-path="url(#clip0_1153_20269)">
<path d="M43.4673 10.3007C40.5851 6.55387 36.598 3.71971 32.1306 2.23057C27.6152 0.741427 22.7635 0.597317 18.2 1.79824C13.6365 3.04719 9.50531 5.64118 6.38292 9.1959C3.21249 12.7987 1.24299 17.218 0.618508 21.9256C-0.00596985 26.6332 0.810655 31.4369 2.92427 35.6642C5.03789 39.9394 8.35243 43.4461 12.4836 45.7999C16.6147 48.1537 21.3223 49.2586 26.078 48.9223C30.8336 48.586 35.3491 46.8567 39.0959 43.9745C49.616 35.9043 51.5375 20.8208 43.4673 10.3007Z" fill="#929292"/>
<path d="M32.5609 16.3049L22.4252 26.4887L19.543 23.5584C29.5346 13.5668 30.5434 14.4795 32.5609 16.3049Z" fill="white"/>
<path d="M22.4255 26.7768C22.3294 26.7768 22.2333 26.7287 22.1853 26.6807L19.3031 23.7985C19.2551 23.7505 19.207 23.6544 19.207 23.5583C19.207 23.4622 19.2551 23.3662 19.3031 23.3181C29.1026 13.4706 30.4476 13.9029 32.8014 16.0165C32.8495 16.0646 32.8495 16.0646 32.8975 16.1126C32.8975 16.1606 32.9455 16.2087 32.9455 16.2567C32.9455 16.3528 32.9455 16.4489 32.8495 16.4969L22.6657 26.6807C22.6176 26.7287 22.5216 26.7768 22.4255 26.7768ZM20.0717 23.5583L22.4255 25.9121L32.0328 16.3048C31.6966 15.8724 31.2162 15.6322 30.6878 15.5362C30.1594 15.4401 29.631 15.5362 29.1987 15.8244C27.4213 16.593 24.6352 18.9948 20.0717 23.5583Z" fill="#929292"/>
<path d="M25.3096 29.3228L22.5234 26.4886L32.6592 16.497C35.3973 19.139 31.3622 23.6064 25.3096 29.3228Z" fill="white"/>
<path d="M25.3096 29.6587C25.2135 29.6587 25.1175 29.6106 25.0694 29.5626L22.2352 26.8245C22.1872 26.7284 22.1872 26.5843 22.2352 26.4882C22.1872 26.3922 22.1872 26.2961 22.2352 26.2481L32.371 16.1123C32.419 16.0643 32.5151 16.0162 32.6112 16.0162C32.7073 16.0162 32.8033 16.0643 32.8514 16.1123C33.1876 16.4005 33.4278 16.7848 33.62 17.2172C33.8121 17.6495 33.8601 18.0818 33.8601 18.5141C33.8601 21.2042 30.7858 24.6148 25.5498 29.5626C25.5017 29.6106 25.4057 29.6587 25.3096 29.6587ZM23.0999 26.4882L25.3576 28.746C29.3447 24.9511 33.1876 21.0601 33.1876 18.4181C33.1876 17.8416 33.0435 17.3132 32.6592 16.8809L23.0999 26.4882Z" fill="#929292"/>
<path d="M19.6393 23.6071L21.6568 25.6247C21.6568 25.6247 21.6568 25.6727 21.7049 25.6727V25.7207V25.7688C21.7049 25.7688 21.7049 25.8168 21.6568 25.8168L17.4296 26.7295C17.3335 26.7295 17.2374 26.7295 17.1894 26.6815C17.0933 26.6334 17.0453 26.5854 16.9973 26.4893C16.9492 26.3932 16.9492 26.3452 16.9492 26.2491C16.9492 26.1531 16.9973 26.105 17.0453 26.009L19.4952 23.5591C19.4952 23.5591 19.5912 23.5591 19.6393 23.6071Z" fill="white"/>
<path d="M17.335 27.1134C17.1909 27.1134 17.0468 27.0654 16.9507 27.0173C16.8546 26.9693 16.7586 26.8732 16.6625 26.7291C16.5664 26.585 16.5664 26.4409 16.5664 26.2487C16.6144 26.1046 16.6625 25.9605 16.8066 25.8164L19.2565 23.3665C19.3525 23.2704 19.4486 23.2224 19.5927 23.2224C19.6888 23.2224 19.8329 23.2704 19.929 23.3665L21.9465 25.3841C22.0426 25.4801 22.0906 25.6723 22.0426 25.8164C21.9946 25.9605 21.8504 26.1046 21.7063 26.1527L17.4791 27.0654L17.335 27.1134ZM19.5447 24.039L17.287 26.2968L21.0338 25.4801L19.5447 24.039Z" fill="#929292"/>
<path d="M37.941 10.6368C36.4999 9.24377 34.1941 9.19573 32.705 10.4927C31.1678 11.7897 30.9276 14.0955 32.1285 15.6807C33.3294 17.3139 35.5391 17.7463 37.2685 16.7375L34.5304 13.9994L37.941 10.6368Z" fill="white"/>
<path d="M35.2039 17.6978C34.3872 17.6978 33.5706 17.4095 32.8501 16.9772C32.1775 16.4968 31.6491 15.8724 31.3129 15.0557C30.9766 14.2871 30.9286 13.4225 31.0727 12.6059C31.2168 11.7892 31.6491 11.0206 32.2256 10.4442C33.0422 9.67562 34.099 9.19525 35.2039 9.19525C36.3087 9.19525 37.4135 9.62758 38.1821 10.4442C38.2782 10.4922 38.2782 10.5883 38.2782 10.6844C38.2782 10.7324 38.2782 10.7805 38.2302 10.8285C38.2302 10.8765 38.1821 10.9246 38.1341 10.9246L35.0117 14.047L37.4616 16.4488C37.5096 16.4968 37.5096 16.5449 37.5577 16.5929C37.5577 16.6409 37.5577 16.689 37.5577 16.737C37.5577 16.7851 37.5577 16.8331 37.5096 16.8811C37.4616 16.9292 37.4616 16.9772 37.4135 16.9772C36.741 17.4576 36.0205 17.6978 35.2039 17.6978ZM35.2039 9.9158C33.7628 9.9158 32.5138 10.7805 31.9854 12.0775C31.457 13.3744 31.7452 14.9116 32.754 15.9204C33.2343 16.4008 33.9069 16.737 34.5794 16.8811C35.2519 17.0252 35.9724 16.9292 36.645 16.6409L34.2912 14.2871C34.2431 14.2391 34.2431 14.2391 34.1951 14.1911C34.1951 14.143 34.147 14.095 34.147 14.047C34.147 13.9989 34.147 13.9509 34.1951 13.9029C34.1951 13.8548 34.2431 13.8068 34.2912 13.8068L37.4135 10.6844C36.7891 10.204 36.0205 9.96384 35.2039 9.9158Z" fill="#929292"/>
<path d="M37.9926 10.7338L34.582 14.1444L37.3201 16.8825C37.6083 16.7384 37.8485 16.5462 38.0887 16.306C38.8093 15.5374 39.1936 14.5287 39.1936 13.5199C39.1455 12.4631 38.7132 11.4543 37.9926 10.7338Z" fill="white"/>
<path d="M37.224 17.122C37.1759 17.122 37.1279 17.122 37.0798 17.122C37.0318 17.122 36.9838 17.074 36.9838 17.026L34.2457 14.2879C34.1976 14.2398 34.1976 14.2398 34.1496 14.1918C34.1496 14.1438 34.1016 14.0957 34.1016 14.0477C34.1016 13.9996 34.1016 13.9516 34.1496 13.9036C34.1496 13.8555 34.1976 13.8075 34.2457 13.8075L37.6563 10.4449C37.7043 10.3969 37.7524 10.3488 37.8004 10.3488C37.8484 10.3008 37.8965 10.3008 37.9925 10.3008C38.0406 10.3008 38.0886 10.3008 38.1847 10.3488C38.2327 10.3969 38.2808 10.3969 38.3288 10.4449C38.7131 10.8292 39.0494 11.3096 39.2415 11.838C39.4817 12.3664 39.5778 12.8948 39.5778 13.4712C39.5778 14.0477 39.4817 14.5761 39.2415 15.1045C39.0013 15.6329 38.7131 16.0652 38.3288 16.4976C38.0886 16.7377 37.8004 16.9779 37.5122 17.122C37.4161 17.1701 37.32 17.1701 37.224 17.122ZM35.0143 14.0477L37.272 16.3054C37.4161 16.2093 37.5602 16.0652 37.7043 15.9211C38.3768 15.2486 38.7611 14.3359 38.7611 13.4232C38.7611 12.6066 38.4729 11.79 37.8965 11.1655L35.0143 14.0477Z" fill="#929292"/>
<path d="M32.9469 16.6894C32.6587 16.4492 32.3224 16.3051 31.9381 16.3051C31.5538 16.3051 31.2176 16.4492 30.9293 16.6894L21.8984 25.7684L23.3876 27.3055L32.9949 18.8991C33.139 18.755 33.2351 18.6109 33.3312 18.4187C33.4273 18.2266 33.4273 18.0344 33.4273 17.8423C33.4273 17.6501 33.3792 17.458 33.2831 17.2659C33.2351 17.0257 33.091 16.8335 32.9469 16.6894Z" fill="white"/>
<path d="M23.3422 27.6423C23.2461 27.6423 23.15 27.5943 23.102 27.5462L21.5648 26.0091C21.5168 25.961 21.4688 25.8649 21.4688 25.7689C21.4688 25.6728 21.5168 25.5767 21.5648 25.5287L30.6438 16.4978C30.884 16.2576 31.2202 16.0654 31.6045 15.9694C31.9888 15.9213 32.3251 15.9213 32.6613 16.0654C32.9976 16.2096 33.2858 16.4497 33.4779 16.786C33.6701 17.0742 33.7662 17.4585 33.7662 17.8428C33.7662 18.083 33.7181 18.3232 33.574 18.5634C33.4779 18.8035 33.3338 18.9957 33.1417 19.1398L23.5343 27.5462C23.4863 27.6423 23.3902 27.6423 23.3422 27.6423ZM22.2373 25.7689L23.2461 26.7776L32.6613 18.6114C32.9015 18.4192 33.0456 18.131 33.0456 17.7948C33.0456 17.5065 32.9495 17.1703 32.7094 16.9781C32.5172 16.786 32.229 16.6419 31.9408 16.6419C31.6525 16.6419 31.3643 16.738 31.1722 16.9781L22.2373 25.7689Z" fill="#929292"/>
<path d="M14.8853 36.0484C14.8372 36.0964 14.8372 36.1444 14.8372 36.1925C14.8372 36.2405 14.8372 36.2885 14.8853 36.2885L15.2696 38.0179C15.2696 38.1139 15.2696 38.21 15.2215 38.3061C15.1735 38.4022 15.1255 38.4982 15.0294 38.5463C14.9333 38.5943 14.8372 38.6423 14.7412 38.5943C14.6451 38.5943 14.549 38.5463 14.4529 38.4502L11.7148 35.8082L20.2654 27.2096H23.2437L25.2612 29.2271C22.0908 31.9652 18.6321 34.271 14.8853 36.0484Z" fill="white"/>
<path d="M14.6907 38.9778C14.4505 38.9778 14.2584 38.8818 14.1143 38.7377L11.4722 36.0956C11.4242 36.0476 11.4242 36.0476 11.3762 35.9996C11.3762 35.9515 11.3281 35.9035 11.3281 35.8554C11.3281 35.8074 11.3281 35.7594 11.3762 35.7113C11.3762 35.6633 11.4242 35.6153 11.4722 35.6153L20.0708 26.9686C20.1189 26.9206 20.1669 26.8726 20.263 26.8726H23.2412C23.3373 26.8245 23.3854 26.8245 23.4814 26.8726L25.499 28.8901C25.547 28.9382 25.547 28.9862 25.595 29.0342C25.595 29.0823 25.595 29.1303 25.595 29.1783C25.595 29.2264 25.595 29.2744 25.547 29.3224C25.547 29.3705 25.499 29.4185 25.4509 29.4185L25.3068 29.5626C22.1844 32.1566 18.7258 34.3663 15.027 36.1437L15.4112 37.7769C15.4593 37.921 15.4593 38.0171 15.4112 38.1612C15.3632 38.3053 15.3152 38.4014 15.2671 38.4975C15.1711 38.5935 15.075 38.6896 14.9789 38.7377C14.8828 38.7857 14.7387 38.8337 14.5946 38.8337L14.6907 38.9778ZM12.2408 35.8554L14.5946 38.2573C14.5946 38.2573 14.6427 38.3053 14.6907 38.3053C14.7387 38.3053 14.7387 38.3053 14.7868 38.2573V38.2093C14.7868 38.1612 14.7868 38.1612 14.7868 38.1612L14.3544 36.3358C14.3064 36.1917 14.3544 36.0956 14.4025 35.9515C14.4505 35.8555 14.5466 35.7594 14.6907 35.6633C18.2935 33.934 21.656 31.7723 24.6823 29.2264L23.0491 27.5931H20.359L12.2408 35.8554Z" fill="#929292"/>
<path d="M9.64918 37.9212L11.6667 35.9037L14.7411 38.978L9.84133 38.6418C9.74525 38.6418 9.69722 38.5937 9.60114 38.5457C9.55311 38.4976 9.50507 38.4016 9.45703 38.3535C9.45703 38.2575 9.45703 38.1614 9.45703 38.1134C9.50507 38.0173 9.60114 37.9692 9.64918 37.9212Z" fill="white"/>
<path d="M14.7871 39.3143L9.88736 38.9781C9.59914 38.93 9.35895 38.7379 9.26288 38.4977C9.16681 38.2095 9.21484 37.9212 9.40699 37.7291L11.4245 35.7116C11.4726 35.6635 11.5686 35.6155 11.6647 35.6155C11.7608 35.6155 11.8569 35.6635 11.9049 35.7116L14.9793 38.7859C15.0273 38.8339 15.0273 38.93 15.0273 38.9781C15.0273 39.0261 15.0273 39.1222 14.9793 39.1702C14.9312 39.2182 14.8832 39.2663 14.7871 39.3143ZM9.88736 38.1614L13.8744 38.4016L11.6647 36.336L9.88736 38.1614Z" fill="#929292"/>
<path d="M23.4843 27.4971L19.4492 28.1216L21.803 25.8159L23.4843 27.4971Z" fill="white"/>
<path d="M19.4468 28.5062C19.3988 28.5062 19.3027 28.5062 19.2546 28.4582C19.2066 28.4102 19.1586 28.3621 19.1105 28.3141C19.0625 28.2661 19.0625 28.17 19.0625 28.1219C19.0625 28.0739 19.0625 27.9778 19.1105 27.9298L21.4163 25.576C21.4643 25.528 21.5604 25.4799 21.6565 25.4799C21.7526 25.4799 21.8486 25.528 21.8967 25.576L23.578 27.2573C23.626 27.3053 23.626 27.3534 23.626 27.4494C23.626 27.4975 23.626 27.5935 23.578 27.6416C23.578 27.6896 23.5299 27.7857 23.4819 27.8337C23.5299 27.8337 23.4819 27.8818 23.3858 27.8818L19.3988 28.5062H19.4468ZM21.8006 26.2965L20.5036 27.5935L22.7613 27.2573L21.8006 26.2965Z" fill="#929292"/>
<path d="M23.4852 27.4976L20.6511 27.8819C20.555 27.8819 20.507 27.8819 20.4109 27.8819C20.3629 27.8339 20.2668 27.7859 20.2668 27.7378C20.2187 27.6898 20.2188 27.5937 20.2188 27.4976C20.2188 27.4016 20.2668 27.3535 20.3148 27.3055L21.7559 25.8644L23.4852 27.4976Z" fill="white"/>
<path d="M20.6006 28.2187C20.4565 28.2187 20.3604 28.1707 20.2163 28.1226C20.1203 28.0746 20.0242 27.9785 19.9281 27.8344C19.832 27.6903 19.832 27.5462 19.832 27.4021C19.832 27.258 19.9281 27.1139 20.0242 26.9698L21.4653 25.5287C21.5133 25.4806 21.6094 25.4326 21.7055 25.4326C21.8015 25.4326 21.8976 25.4806 21.9456 25.5287L23.6269 27.2099C23.675 27.258 23.723 27.306 23.723 27.4021C23.723 27.4501 23.723 27.5462 23.723 27.5942C23.723 27.6423 23.675 27.7383 23.5789 27.7383C23.5309 27.7864 23.4348 27.7864 23.3868 27.8344L20.6006 28.2187ZM20.6006 27.4982L22.7142 27.258L21.7535 26.2972L20.6006 27.4982ZM37.9899 13.0391C37.9419 12.9911 37.8939 12.943 37.8458 12.895C37.7978 12.895 37.7017 12.895 37.6537 12.895C37.6056 12.895 37.6056 12.943 37.5576 12.943C37.5576 12.9911 37.5096 12.9911 37.5096 13.0391C37.5096 13.0871 37.5096 13.1832 37.5096 13.2312C37.6537 13.5195 37.6056 13.8557 37.4135 14.1439C37.3654 14.192 37.3654 14.192 37.3654 14.24C37.3654 14.2881 37.3654 14.2881 37.3654 14.3361C37.3654 14.3841 37.4135 14.4802 37.4615 14.5282C37.5096 14.5282 37.5576 14.5282 37.6056 14.5282C37.6537 14.5282 37.7017 14.5282 37.7497 14.5282C37.7978 14.5282 37.8458 14.4802 37.8458 14.4322C37.9899 14.24 38.134 13.9998 38.134 13.7116C38.1821 13.5195 38.134 13.2793 37.9899 13.0391Z" fill="#929292"/>
</g>
<defs>
<clipPath id="clip0_1153_20269">
<rect width="48.0368" height="48.0368" fill="white" transform="translate(0.425781 0.981628)"/>
</clipPath>
</defs>
</svg>
