<svg width="49" height="50" viewBox="0 0 49 50" fill="none" xmlns="http://www.w3.org/2000/svg">
<g clip-path="url(#clip0_1153_20242)">
<path d="M47.8894 29.7559C47.6012 28.8913 46.8806 28.3148 45.9199 28.1707C45.4876 28.1227 44.9591 28.1227 44.3347 28.2668C43.2779 28.507 42.5093 28.555 41.9328 28.603C44.0945 24.9523 45.8238 20.8211 46.8326 16.8821C48.4658 10.5412 47.6012 7.65902 46.5924 6.36203C43.9023 2.90338 39.9633 1.02995 35.2557 0.981912C32.7098 0.933875 30.5001 1.46228 29.3472 1.79854C28.2904 1.60639 27.0895 1.51032 25.8886 1.46228C23.5828 1.46228 21.5653 1.94265 19.8359 2.99946C18.8752 2.6632 17.338 2.23087 15.6087 1.94265C11.4295 1.27013 8.11496 1.79854 5.66508 3.52786C2.68681 5.64148 1.34178 9.29227 1.58196 14.3842C1.67803 16.0174 2.5427 20.9172 3.9838 25.6248C4.80042 28.3148 5.66508 30.5245 6.57778 32.2538C7.87478 34.7037 9.21981 36.0968 10.757 36.6252C11.6216 36.9134 13.1588 37.1056 14.8401 35.7605C15.0323 36.0007 15.3205 36.2889 15.7048 36.4811C16.1851 36.7693 16.7616 37.0095 17.338 37.1536C19.4036 37.682 21.3251 37.5379 23.0064 36.8173C23.0064 37.1056 23.0064 37.3938 23.0544 37.634C23.0544 38.0183 23.0544 38.4025 23.1024 38.7868C23.1985 41.2367 23.3426 43.1101 23.871 44.4552C23.9191 44.5513 23.9191 44.6473 23.9671 44.7434C24.2073 45.512 24.6396 46.7609 25.6484 47.7217C26.7052 48.7305 28.0502 49.0667 29.2031 49.0667C29.7795 49.0667 30.356 48.9706 30.8844 48.8746C32.6617 48.4903 34.6793 47.9138 36.1684 45.8002C37.5615 43.8307 38.234 40.8524 38.3301 36.1448C38.3301 36.0007 38.3781 35.9046 38.3781 35.7605L38.4262 35.5203L38.7624 35.5684H38.8585C40.6839 35.6645 42.8936 35.2802 44.2866 34.6076C45.2474 34.0792 48.706 32.2538 47.8894 29.7559Z" fill="black"/>
<path d="M44.7704 30.2365C39.3423 31.3414 39.006 29.516 39.006 29.516C44.7224 21.0135 47.1242 10.2052 45.0587 7.56317C39.4384 0.357656 29.6869 3.76827 29.5428 3.86434H29.4948C28.4379 3.62416 27.237 3.52808 25.892 3.48005C23.4421 3.43201 21.5687 4.10452 20.1756 5.20937C20.1756 5.20937 2.83435 -1.94811 3.60294 14.2403C3.79509 17.6989 8.55072 40.3242 14.2191 33.455C16.2846 30.9571 18.3022 28.8435 18.3022 28.8435C19.311 29.516 20.4638 29.8522 21.7128 29.7081L21.8089 29.612C21.7608 29.9003 21.8089 30.2365 21.8569 30.5728C20.4158 32.206 20.8481 32.4942 17.9179 33.1187C14.9876 33.7432 16.717 34.8 17.8218 35.0882C19.2149 35.4245 22.3853 35.9049 24.4989 32.9266L24.4029 33.2628C24.9793 33.7432 25.3636 36.2411 25.3156 38.5469C25.2675 40.8526 25.2195 42.4379 25.6518 43.6388C26.0841 44.8877 26.5645 47.6258 30.4074 46.8092C33.6259 46.1367 35.2592 44.3113 35.4993 41.333C35.6435 39.2194 36.0278 39.5076 36.0758 37.6342L36.364 36.7215C36.7003 33.8393 36.412 32.9266 38.3815 33.3589L38.8619 33.4069C40.303 33.455 42.2245 33.1668 43.3293 32.6384C45.7312 31.6296 47.1242 29.7562 44.7704 30.2365Z" fill="#5C5C5C"/>
<path d="M21.1358 15.7768C20.6555 15.7287 20.2231 15.7768 19.9829 15.9209C19.8388 16.017 19.8388 16.113 19.7908 16.2091C19.7428 16.4013 19.8869 16.6414 19.9829 16.7375C20.2231 17.0738 20.6074 17.2659 20.9437 17.314C20.9917 17.314 21.0397 17.314 21.0878 17.314C21.6642 17.314 22.1926 16.8336 22.2407 16.4973C22.3848 16.1611 21.7603 15.8729 21.1358 15.7768ZM37.2762 15.8248C37.2281 15.4886 36.6517 15.3925 36.0753 15.4886C35.4988 15.5846 34.9704 15.8248 35.0184 16.1611C35.0665 16.4013 35.5468 16.8816 36.0753 16.8816C36.1233 16.8816 36.1713 16.8816 36.2194 16.8816C36.6037 16.8336 36.8438 16.5934 36.988 16.4493C37.2281 16.1611 37.3242 15.9689 37.2762 15.8248Z" fill="white"/>
<path d="M46.5471 30.091C46.3549 29.4665 45.6824 29.2744 44.5776 29.5146C41.3111 30.1871 40.1102 29.7067 39.7259 29.4185C42.2718 25.5275 44.3854 20.8199 45.4903 16.4486C46.0187 14.383 46.3069 12.4615 46.3549 10.8763C46.403 9.14699 46.0667 7.89803 45.4903 7.12944C43.0884 3.95902 39.4857 2.32577 35.1624 2.27773C32.1841 2.22969 29.6862 2.99828 29.1578 3.23846C28.149 2.99828 26.9961 2.80613 25.7952 2.80613C23.5375 2.7581 21.616 3.2865 20.0308 4.39135C19.3583 4.15116 17.5329 3.52668 15.3232 3.14239C11.5283 2.51791 8.50197 2.99828 6.34032 4.53546C3.8424 6.36085 2.64149 9.62735 2.88167 14.1908C2.97774 15.728 3.8424 20.5317 5.23547 25.0952C7.06087 31.0998 9.07841 34.5104 11.144 35.2309C11.3842 35.327 11.6724 35.3751 11.9606 35.3751C12.7292 35.3751 13.6419 35.0388 14.6507 33.8379C15.8516 32.3968 17.0525 31.0037 18.3495 29.6587C19.1661 30.091 20.0788 30.3312 20.9915 30.3792C20.9915 30.4273 20.9915 30.4273 20.9915 30.4753C20.8474 30.6675 20.6553 30.8596 20.5112 31.0517C19.8867 31.8684 19.7426 32.0605 17.677 32.4448C17.1005 32.5889 15.5153 32.8771 15.5153 33.982C15.4673 35.1829 17.3407 35.6633 17.5809 35.7113C18.3015 35.9035 19.022 35.9995 19.6945 35.9995C21.3278 35.9995 22.8169 35.4711 23.9698 34.4143C23.9218 38.6896 24.1139 42.8688 24.6423 44.1658C25.0747 45.2226 26.0834 47.7685 29.3019 47.7685C29.7823 47.7685 30.3107 47.7205 30.8871 47.5764C34.2497 46.8558 35.7388 45.3667 36.2672 42.0522C36.5554 40.2748 37.0838 36.0956 37.324 33.8379C37.8524 33.982 38.5249 34.0781 39.2455 34.0781C40.7346 34.0781 42.464 33.7418 43.5688 33.2614C44.7697 32.733 46.9794 31.34 46.5471 30.091ZM38.5249 14.8634C38.5249 15.5359 38.4289 16.1123 38.3328 16.7848C38.2367 17.4573 38.1406 18.1779 38.0926 18.9945C38.0446 19.8111 38.1887 20.6758 38.2848 21.5405C38.4769 23.2218 38.7171 24.9511 37.9005 26.6804C37.7564 26.4402 37.6603 26.2 37.5642 25.9599C37.4681 25.7197 37.228 25.3354 36.9397 24.807C35.7868 22.6933 33.0488 17.7936 34.4418 15.8241C34.8261 15.1516 35.8829 14.5271 38.5249 14.8634ZM35.3545 3.62276C39.2455 3.71883 42.3199 5.15993 44.4815 7.94607C46.1628 10.0597 44.2894 19.8111 39.0053 28.1695C38.9573 28.1215 38.9092 28.0254 38.8612 27.9774L38.7651 27.8813C40.1582 25.6236 39.87 23.3659 39.6298 21.3483C39.5337 20.5317 39.4376 19.7631 39.4857 19.0426C39.5337 18.274 39.6298 17.6015 39.7259 16.977C39.87 16.2084 39.966 15.3918 39.918 14.431C39.966 14.335 39.966 14.1908 39.918 14.0467C39.8219 13.134 38.7651 10.3479 36.6515 7.89803C35.4986 6.553 33.7693 5.01582 31.4635 3.95902C32.4243 3.76687 33.8173 3.57472 35.3545 3.62276ZM13.5939 32.9732C12.5371 34.2702 11.7685 34.03 11.5283 33.934C9.94307 33.4056 8.11768 30.043 6.48443 24.7109C5.09136 20.0994 4.27474 15.4398 4.17866 14.1428C3.98651 10.0116 4.94725 7.12944 7.15694 5.59227C10.7117 3.09435 16.4761 4.58349 18.8299 5.35208C18.7818 5.40012 18.7818 5.40012 18.7338 5.44815C14.8909 9.33913 14.9869 15.9682 14.9869 16.3525C14.9869 16.4966 14.9869 16.7368 15.035 17.025C15.083 18.1299 15.2271 20.1954 14.8909 22.5492C14.6026 24.7109 15.2752 26.8725 16.7163 28.4097C16.8604 28.5538 17.0045 28.6979 17.1966 28.8421C16.5721 29.6106 15.131 31.1478 13.5939 32.9732ZM17.725 27.497C16.5241 26.2481 15.9957 24.5187 16.2359 22.7414C16.5721 20.2435 16.4761 18.0818 16.38 16.9289C16.38 16.7848 16.38 16.6407 16.38 16.4966C16.9564 16.0162 19.5504 14.6232 21.3758 15.0555C22.2405 15.2477 22.7209 15.8241 22.961 16.8329C24.0659 21.9728 23.1051 24.0864 22.3366 25.8157C22.1924 26.152 22.0483 26.4883 21.9042 26.8726L21.8082 27.1608C21.568 27.8333 21.3278 28.4578 21.1837 29.0822C19.8867 29.0342 18.6377 28.5058 17.725 27.497ZM17.9172 34.4143C17.5329 34.3182 17.1966 34.1741 17.0045 34.03C17.1486 33.934 17.4368 33.8379 17.9652 33.7418C20.4151 33.2614 20.7513 32.8771 21.568 31.8684C21.7601 31.6282 21.9523 31.34 22.2405 31.0517C22.6728 30.5714 22.865 30.6194 23.2493 30.8116C23.5375 30.9557 23.8257 31.2919 23.9698 31.7243C24.0178 31.9164 24.0659 32.3007 23.8737 32.5889C22.1924 34.8947 19.6945 34.8947 17.9172 34.4143ZM30.5989 46.2794C27.6206 46.9039 26.5638 45.4147 25.8913 43.6854C25.4589 42.5806 25.2188 37.4887 25.3629 31.9164C25.3629 31.8203 25.3629 31.7723 25.3148 31.7243C25.3148 31.5802 25.2668 31.436 25.2188 31.34C24.9786 30.5233 24.4021 29.8508 23.7296 29.5626C23.4414 29.4665 22.961 29.2264 22.3846 29.4185C22.5287 28.8901 22.7209 28.3137 22.961 27.6411L23.0571 27.3529C23.1532 27.0647 23.2973 26.7284 23.4414 26.3922C24.258 24.6148 25.3629 22.1169 24.162 16.5927C23.7296 14.5271 22.1924 13.4703 19.9347 13.7105C18.5897 13.8546 17.3407 14.383 16.7163 14.7192C16.5721 14.7673 16.4761 14.8634 16.332 14.9114C16.5241 12.7978 17.1486 8.9068 19.5985 6.40889C21.2317 4.82368 23.2973 4.05509 25.7952 4.10313C30.743 4.1992 33.9134 6.74515 35.6908 8.85876C37.228 10.6842 38.0446 12.5096 38.3808 13.5183C35.8829 13.2781 34.1536 13.7585 33.337 15.0075C31.4635 17.6975 34.3457 22.9335 35.7388 25.4314C35.979 25.9118 36.2192 26.2961 36.2672 26.4402C36.6996 27.5451 37.324 28.2656 37.7564 28.8421C37.9005 28.9862 37.9965 29.1783 38.0926 29.3224C37.324 29.5626 35.979 30.043 36.0751 32.5889C35.979 33.8379 35.2584 39.7944 34.9222 41.9081C34.4899 44.6462 33.4811 45.6549 30.5989 46.2794ZM42.9924 32.0605C42.2238 32.4448 40.9268 32.685 39.6778 32.733C38.3328 32.7811 37.6122 32.5889 37.4681 32.4448C37.3721 30.8596 37.9965 30.7155 38.573 30.5233C38.6691 30.4753 38.7651 30.4753 38.8612 30.4273C38.9092 30.4753 38.9573 30.5233 39.0533 30.5714C40.1582 31.2919 42.0797 31.388 44.8658 30.8116H44.9138C44.5295 31.1478 43.9051 31.6282 42.9924 32.0605Z" fill="white"/>
</g>
<defs>
<clipPath id="clip0_1153_20242">
<rect width="48.0368" height="48.0368" fill="white" transform="translate(0.574219 0.981628)"/>
</clipPath>
</defs>
</svg>
