<svg width="49" height="50" viewBox="0 0 49 50" fill="none" xmlns="http://www.w3.org/2000/svg">
<g clip-path="url(#clip0_1153_20267)">
<path fill-rule="evenodd" clip-rule="evenodd" d="M5.02434 33.935C4.54397 33.1664 4.54397 32.2057 5.02434 31.389L22.9901 2.08661C23.9989 0.453356 26.4007 0.597466 27.2173 2.32679L43.5979 37.9701C44.2223 39.2671 43.5018 40.8523 42.1087 41.2846L16.5532 48.9225C15.5444 49.2107 14.4395 48.8264 13.8631 47.9137L5.02434 33.935ZM25.0076 10.6852C25.1998 9.82053 26.3527 9.67641 26.6889 10.493L38.0256 36.6731C38.2177 37.1534 37.9776 37.7299 37.4491 37.874L19.8197 43.158C19.1952 43.3502 18.5707 42.7737 18.6668 42.1012L25.0076 10.6852Z" fill="#EFEFEF"/>
</g>
<defs>
<clipPath id="clip0_1153_20267">
<rect width="48.0368" height="48.0368" fill="white" transform="translate(0.316406 0.981628)"/>
</clipPath>
</defs>
</svg>
