<svg width="49" height="50" viewBox="0 0 49 50" fill="none" xmlns="http://www.w3.org/2000/svg">
<g clip-path="url(#clip0_1153_20247)">
<path d="M46.7727 35.9524C44.2268 37.2974 30.9206 42.7256 28.0864 44.2147C25.2522 45.7039 23.667 45.6558 21.4573 44.599C19.2476 43.5422 5.07679 37.8258 2.53085 36.6249C1.28189 36.0004 0.609375 35.5201 0.609375 35.0397V30.1399C0.609375 30.1399 19.0075 26.1529 21.9857 25.048C24.964 23.9912 25.9728 23.9432 28.5187 24.8559C31.0647 25.7686 46.1482 28.5067 48.6461 29.4194V34.2231C48.6461 34.7515 48.0697 35.2799 46.7727 35.9524Z" fill="#464646"/>
<path d="M46.7716 31.0998C44.2256 32.4448 30.9194 37.873 28.0853 39.3621C25.2511 40.8513 23.6659 40.8032 21.4562 39.7464C19.2465 38.6896 5.07566 32.9732 2.52971 31.7723C-0.0162345 30.5714 -0.064271 29.7067 2.43364 28.746C4.93155 27.7853 19.0063 22.261 21.9366 21.2042C24.9148 20.1474 25.9236 20.0994 28.4696 21.0121C31.0155 21.9248 44.1776 27.2088 46.6755 28.1215C49.2214 29.0342 49.3175 29.7548 46.7716 31.0998Z" fill="#5C5C5C"/>
<path d="M46.7727 28.0741C44.2268 29.4191 30.9206 34.8472 28.0864 36.3364C25.2522 37.8255 23.667 37.7775 21.4573 36.7207C19.2476 35.6639 5.07679 29.9475 2.53085 28.7466C1.28189 28.1221 0.609375 27.6417 0.609375 27.1614V22.3097C0.609375 22.3097 19.0075 18.3226 21.9857 17.2178C24.964 16.1609 25.9728 16.1129 28.5187 17.0256C31.0647 17.9383 46.1482 20.6764 48.6461 21.5891V26.3928C48.6461 26.8731 48.0697 27.4015 46.7727 28.0741Z" fill="#464646"/>
<path d="M46.7716 23.2702C44.2256 24.6153 30.9194 30.0434 28.0853 31.5325C25.2511 33.0217 23.6659 32.9736 21.4562 31.9168C19.2465 30.86 5.07566 25.1437 2.52971 23.9427C-0.0162345 22.7418 -0.064271 21.8772 2.43364 20.9164C4.93155 19.9557 19.0063 14.4315 21.9366 13.3746C24.9148 12.3178 25.9236 12.2698 28.4696 13.1825C31.0155 14.0952 44.1776 19.3792 46.6755 20.2919C49.2214 21.1566 49.3175 21.9252 46.7716 23.2702Z" fill="#5C5C5C"/>
<path d="M46.7727 19.9085C44.2268 21.2536 30.9206 26.6817 28.0864 28.1709C25.2522 29.66 23.667 29.612 21.4573 28.5552C19.2476 27.5464 5.07679 21.83 2.53085 20.581C1.28189 19.9566 0.609375 19.4762 0.609375 18.9958V14.1441C0.609375 14.1441 19.0075 10.1571 21.9857 9.05223C24.964 7.99542 25.9728 7.94738 28.5187 8.86008C31.0647 9.77278 46.1482 12.5109 48.6461 13.4236V18.2273C48.6461 18.7076 48.0697 19.236 46.7727 19.9085Z" fill="#464646"/>
<path d="M46.7716 15.1042C44.2256 16.4493 30.9194 21.8774 28.0853 23.3666C25.2511 24.8557 23.6659 24.8077 21.4562 23.7509C19.2465 22.694 5.07566 16.9777 2.52971 15.7768C-0.0162345 14.5758 -0.064271 13.7112 2.43364 12.7504C4.93155 11.7417 19.0063 6.26547 21.9846 5.16063C24.9629 4.10382 25.9717 4.05578 28.5176 4.96848C31.0635 5.88118 44.2256 11.1652 46.7235 12.0779C49.2214 12.9906 49.3175 13.7592 46.7716 15.1042Z" fill="#5C5C5C"/>
<path d="M30.4907 10.3965L26.3595 10.8288L25.4468 13.0385L23.9577 10.5406L19.2021 10.1083L22.7568 8.8113L21.7 6.8418L25.0145 8.13879L28.1369 7.13002L27.2722 9.14756L30.4907 10.3965ZM25.2067 21.1568L17.5208 17.9383L28.5692 16.257L25.2067 21.1568ZM14.4945 11.5974C17.761 11.5974 20.403 12.6062 20.403 13.9032C20.403 15.1522 17.761 16.209 14.4945 16.209C11.228 16.209 8.58594 15.2002 8.58594 13.9032C8.58594 12.6542 11.276 11.5974 14.4945 11.5974Z" fill="white"/>
<path d="M35.3867 10.9738L41.9197 13.5678L35.3867 16.1618V10.9738Z" fill="#303030"/>
<path d="M28.1367 13.856L35.3903 10.9738V16.1137L34.6697 16.4019L28.1367 13.856Z" fill="#4B4B4B"/>
</g>
<defs>
<clipPath id="clip0_1153_20247">
<rect width="48.0368" height="48.0368" fill="white" transform="translate(0.609375 0.981628)"/>
</clipPath>
</defs>
</svg>
