<svg width="49" height="50" viewBox="0 0 49 50" fill="none" xmlns="http://www.w3.org/2000/svg">
<g clip-path="url(#clip0_1153_20257)">
<path d="M24.3035 10.589C17.9146 10.589 13.8796 13.8075 12.2943 20.1963C14.6962 16.9779 17.4823 15.777 20.7008 16.5936C22.5262 17.074 23.8232 18.3709 25.2643 19.8601C27.6181 22.2619 30.3562 25 36.3127 25C42.7016 25 46.7367 21.7816 48.3219 15.3927C45.9201 18.6111 43.1339 19.812 39.9155 18.9954C38.0901 18.5151 36.7931 17.2181 35.352 15.7289C32.9982 13.3751 30.2601 10.589 24.3035 10.589ZM12.2943 25C5.90546 25 1.87037 28.2185 0.285156 34.6074C2.68699 31.3889 5.47313 30.188 8.69159 31.0046C10.517 31.485 11.814 32.782 13.2551 34.2711C15.6089 36.673 18.347 39.411 24.3035 39.411C30.6924 39.411 34.7275 36.1926 36.3127 29.8037C33.9109 33.0222 31.1248 34.2231 27.9063 33.4064C26.0809 32.9741 24.7839 31.6291 23.3428 30.1399C20.989 27.7861 18.2509 25 12.2943 25Z" fill="#848484"/>
</g>
<defs>
<clipPath id="clip0_1153_20257">
<rect width="48.0368" height="48.0368" fill="white" transform="translate(0.28125 0.981628)"/>
</clipPath>
</defs>
</svg>
