<svg width="49" height="50" viewBox="0 0 49 50" fill="none" xmlns="http://www.w3.org/2000/svg">
<g clip-path="url(#clip0_1153_20228)">
<path d="M0.464844 0.981445H48.5016V49.0182H0.464844V0.981445Z" fill="#5F5F5F"/>
<path d="M23.5235 18.755H25.8292V22.7421H19.5845V40.4196L19.4403 40.4676C19.2002 40.5157 16.2699 40.5157 15.5974 40.4676L15.069 40.4196V22.7421H8.82422V18.755H10.7937C11.8505 18.755 14.6367 18.755 16.9424 18.755C19.3443 18.755 22.2745 18.755 23.5235 18.755ZM41.1049 38.5942C40.1922 39.5549 39.1835 40.0833 37.5502 40.5637C36.8296 40.7558 36.7336 40.7558 35.1003 40.7558C33.5151 40.7558 33.371 40.7558 32.6024 40.5637C30.5849 40.0353 28.9516 39.0265 27.8468 37.5854C27.5105 37.2011 27.0302 36.3365 27.0302 36.2404C27.0302 36.1924 27.1262 36.1443 27.2223 36.0963C27.3184 36.0482 27.5105 35.9041 27.7027 35.8081C27.8468 35.712 28.183 35.5198 28.3752 35.4238C28.5673 35.3277 29.1438 34.9914 29.6722 34.6552C30.2006 34.367 30.6329 34.0787 30.6809 34.0787C30.729 34.0787 30.8251 34.1748 30.9211 34.3189C31.3535 35.0875 32.4103 36.0482 33.1789 36.3845C33.6592 36.5766 34.668 36.8168 35.1484 36.8168C35.5807 36.8168 36.4454 36.6247 36.8777 36.4325C37.3581 36.1924 37.5982 36.0002 37.8865 35.5679C38.0786 35.2797 38.1266 35.1836 38.0786 34.6071C38.0786 34.0787 38.0306 33.9346 37.8865 33.6464C37.4541 32.9739 36.8777 32.5896 34.5719 31.5808C32.1701 30.524 31.1133 29.8995 30.2486 29.0349C29.6241 28.4104 29.48 28.2183 29.0477 27.4497C28.5193 26.4409 28.4713 26.1046 28.4713 24.6155C28.4713 23.5587 28.4713 23.2224 28.6154 22.8381C28.7595 22.3097 29.2879 21.2529 29.5281 21.0127C30.0084 20.4363 30.2006 20.2922 30.5368 20.004C31.5456 19.1393 33.1308 18.6109 34.668 18.5629C34.8601 18.5629 35.3885 18.6109 35.965 18.6109C37.5022 18.755 38.559 19.0913 39.5677 19.9079C40.3363 20.4843 41.4892 21.9254 41.3451 22.1176C41.249 22.2137 38.2708 24.2312 38.0786 24.2792C37.9825 24.3273 37.8865 24.2792 37.6943 24.0871C36.6855 22.8862 36.2532 22.598 35.2925 22.5499C34.5719 22.5019 34.2357 22.598 33.7553 22.8862C33.2749 23.2224 33.0347 23.7028 33.0347 24.4234C33.0347 25.4321 33.419 25.9125 34.8601 26.633C35.7728 27.1134 36.5895 27.4497 36.6375 27.4497C36.7336 27.4497 38.655 28.4104 39.1354 28.6986C41.4892 30.0917 42.45 31.4848 42.6901 33.9346C42.7382 35.712 42.2578 37.3933 41.1049 38.5942Z" fill="white"/>
</g>
<defs>
<clipPath id="clip0_1153_20228">
<rect width="48.0368" height="48.0368" fill="white" transform="translate(0.464844 0.981628)"/>
</clipPath>
</defs>
</svg>
