<svg width="50" height="50" viewBox="0 0 50 50" fill="none" xmlns="http://www.w3.org/2000/svg">
<g style="mix-blend-mode:luminosity">
<path d="M46.8737 16.876L41.6654 19.7406L36.457 24.6885V41.6676H43.7487C45.4747 41.6676 46.8737 40.2687 46.8737 38.5426V16.876Z" fill="#4CAF50"/>
<path d="M3.125 16.876L6.88958 18.6572L13.5417 24.6885V41.6676H6.25C4.52396 41.6676 3.125 40.2687 3.125 38.5426V16.876Z" fill="#1E88E5"/>
<path d="M36.4583 11.6672L25 20.261L13.5417 11.6672L12.5 17.7089L13.5417 24.6881L25 33.2818L36.4583 24.6881L37.5 17.7089L36.4583 11.6672Z" fill="#E53935"/>
<path d="M3.125 12.8107V16.8753L13.5417 24.6878V11.667L10.2875 9.22841C9.5125 8.64716 8.57083 8.33362 7.60208 8.33362C5.12917 8.33362 3.125 10.3378 3.125 12.8107Z" fill="#C62828"/>
<path d="M46.8737 12.8107V16.8753L36.457 24.6878V11.667L39.7112 9.22841C40.4862 8.64716 41.4279 8.33362 42.3966 8.33362C44.8695 8.33362 46.8737 10.3378 46.8737 12.8107Z" fill="#FBC02D"/>
</g>
</svg>
