<svg width="50" height="50" viewBox="0 0 50 50" fill="none" xmlns="http://www.w3.org/2000/svg">
<g style="mix-blend-mode:luminosity">
<path d="M40.882 10.6011C37.9612 9.26046 34.8278 8.27296 31.5528 7.70734C31.4935 7.69692 31.4341 7.724 31.4028 7.77817C30.9997 8.49484 30.5539 9.42921 30.2414 10.1646C26.7185 9.63755 23.2133 9.63755 19.7633 10.1646C19.4508 9.41359 18.9883 8.49484 18.583 7.77817C18.5518 7.72505 18.4924 7.69796 18.433 7.70734C15.1591 8.27088 12.0268 9.25838 9.10388 10.6011C9.07888 10.6115 9.05701 10.6303 9.04242 10.6542C3.10076 19.5313 1.47263 28.1907 2.27159 36.7417C2.27472 36.7834 2.29867 36.824 2.33097 36.849C6.25076 39.7282 10.0487 41.4761 13.7758 42.6344C13.8351 42.6521 13.8987 42.6313 13.9362 42.5813C14.8174 41.3771 15.6039 40.1084 16.2778 38.773C16.3174 38.6948 16.2799 38.6021 16.1987 38.5709C14.9518 38.098 13.7653 37.5219 12.6237 36.8667C12.533 36.8136 12.5258 36.6844 12.6091 36.623C12.8497 36.4428 13.0893 36.2553 13.3195 36.0667C13.3612 36.0323 13.4185 36.025 13.4674 36.0469C20.9685 39.4719 29.0893 39.4719 36.5018 36.0469C36.5508 36.023 36.608 36.0303 36.6518 36.0646C36.881 36.2542 37.1216 36.4428 37.3633 36.623C37.4466 36.6844 37.4414 36.8136 37.3508 36.8667C36.2091 37.5344 35.0216 38.098 33.7737 38.5688C33.6924 38.6 33.656 38.6938 33.6955 38.773C34.3841 40.1063 35.1695 41.375 36.0351 42.5792C36.0716 42.6303 36.1362 42.6521 36.1955 42.6334C39.9403 41.475 43.7383 39.7271 47.658 36.848C47.6924 36.823 47.7143 36.7844 47.7174 36.7428C48.6726 26.8563 46.1164 18.2688 40.9414 10.6553C40.9289 10.6303 40.907 10.6115 40.882 10.6011ZM17.3976 31.5344C15.1393 31.5344 13.2789 29.4615 13.2789 26.9146C13.2789 24.3678 15.1039 22.2948 17.3976 22.2948C19.7101 22.2948 21.5528 24.3865 21.5164 26.9146C21.5174 29.4605 19.6924 31.5344 17.3976 31.5344ZM32.6278 31.5344C30.3695 31.5344 28.5091 29.4615 28.5091 26.9146C28.5091 24.3678 30.3341 22.2948 32.6278 22.2948C34.9403 22.2948 36.783 24.3865 36.7466 26.9146C36.7466 29.4605 34.9403 31.5344 32.6278 31.5344Z" fill="white"/>
</g>
</svg>
