<svg width="50" height="50" viewBox="0 0 50 50" fill="none" xmlns="http://www.w3.org/2000/svg">
<path d="M32.8278 3.12486C32.3049 3.12339 31.6952 3.16037 30.9463 3.22404L6.55823 5.01085C4.59104 5.1796 3.90625 6.45662 3.90625 7.98631V34.5259C3.90625 35.7173 4.33307 36.7363 5.36041 38.098L11.0931 45.4985C12.0345 46.6891 12.8912 46.9448 14.6896 46.8596L43.013 45.1567C45.4083 44.9888 46.0937 43.8822 46.0937 42.0119V12.155C46.0937 11.1339 45.6646 10.8799 44.3802 9.94401L36.5951 4.49968C35.1836 3.48014 34.3963 3.12925 32.8278 3.12486ZM32.3227 5.45945C33.8658 5.48444 34.7456 6.07681 35.4279 6.60386L39.4974 9.53202C39.67 9.61796 40.1031 10.1332 39.5828 10.1332L15.0772 11.5981C12.478 11.7715 11.9579 11.8562 10.5743 10.7375L7.19757 8.06718C6.85226 7.72187 7.02548 7.29174 7.89032 7.20658L31.6193 5.48539C31.8681 5.46391 32.1022 5.45588 32.3227 5.45945ZM41.9311 13.2887C42.6424 13.3605 42.9687 13.9387 42.9687 14.9046V40.0816C42.9687 41.1879 42.7965 42.1251 41.2598 42.2087L14.7186 43.7407C13.1819 43.8243 12.5 43.3141 12.5 41.9524V16.6075C12.5 15.5021 12.8414 14.989 13.8657 14.9046L41.6031 13.2903C41.7206 13.2795 41.8295 13.2785 41.9311 13.2887ZM39.0625 17.578L33.5937 17.9686C32.3117 18.1217 31.6406 18.7499 31.6406 19.5311L33.9844 19.9217V31.6405L25 18.3592L18.9072 18.8963C17.7048 19.0463 17.2842 20.0846 17.4561 20.8495L19.5312 21.0936V37.4999L18.75 37.8905C17.1875 38.2811 17.5781 39.0624 17.5781 39.453L23.8281 39.0624C25.7812 38.6717 25.7812 37.4999 25.7812 37.4999L22.6562 36.7186V24.2186L31.1996 37.477C32.2223 38.7496 32.618 39.453 33.9844 39.453C35.1562 39.453 36.3281 39.0624 37.1094 38.2811V19.5311L38.1973 19.3221C39.0622 19.1408 39.4531 18.3592 39.0625 17.578Z" fill="white"/>
</svg>
