<svg width="50" height="50" viewBox="0 0 50 50" fill="none" xmlns="http://www.w3.org/2000/svg">
<g style="mix-blend-mode:luminosity">
<path d="M45.8385 15.6253H29.1719V25.0003H45.8385V15.6253Z" fill="#21A366"/>
<path d="M45.8372 25.0002H12.5039V41.6668C12.5039 42.8179 13.4362 43.7502 14.5872 43.7502H43.7539C44.9049 43.7502 45.8372 42.8179 45.8372 41.6668V25.0002Z" fill="#185C37"/>
<path d="M45.8385 25.0002H29.1719V34.3752H45.8385V25.0002Z" fill="#107C42"/>
<path d="M29.1706 15.6253H12.5039V25.0003H29.1706V15.6253Z" fill="#3FA071"/>
<path d="M43.7552 6.25037H29.1719V15.6254H45.8385V8.3337C45.8385 7.18266 44.9062 6.25037 43.7552 6.25037Z" fill="#33C481"/>
<path d="M14.5872 6.25037H29.1706V15.6254H12.5039V8.3337C12.5039 7.18266 13.4362 6.25037 14.5872 6.25037Z" fill="#21A366"/>
<path opacity="0.05" d="M23.2529 13.5401H12.5039V38.5401H23.2529C25.3706 38.5401 27.0872 36.8234 27.0872 34.7057V17.3744C27.0872 15.2567 25.3706 13.5401 23.2529 13.5401Z" fill="black"/>
<path opacity="0.07" d="M23.1424 37.4979H12.5039V13.8865H23.1424C24.9383 13.8865 26.3935 15.3417 26.3935 17.1375V34.2469C26.3924 36.0427 24.9372 37.4979 23.1424 37.4979Z" fill="black"/>
<path opacity="0.09" d="M23.031 36.4581H12.5039V14.2363H23.031C24.5039 14.2363 25.6977 15.43 25.6977 16.9029V33.7915C25.6987 35.2644 24.5039 36.4581 23.031 36.4581Z" fill="black"/>
<path d="M22.918 35.416H6.2513C5.10026 35.416 4.16797 34.4837 4.16797 33.3327V16.666C4.16797 15.515 5.10026 14.5827 6.2513 14.5827H22.918C24.069 14.5827 25.0013 15.515 25.0013 16.666V33.3327C25.0013 34.4837 24.069 35.416 22.918 35.416Z" fill="url(#paint0_linear_1153_20708)"/>
<path d="M10.2146 19.7906H12.7L14.7167 23.701L16.8479 19.7906H19.1698L15.9708 24.9989L19.2427 30.2073H16.7937L14.5958 26.1135L12.4073 30.2073H9.92188L13.2479 24.9802L10.2146 19.7906Z" fill="white"/>
</g>
<defs>
<linearGradient id="paint0_linear_1153_20708" x1="4.92318" y1="15.3379" x2="24.0169" y2="34.4316" gradientUnits="userSpaceOnUse">
<stop stop-color="#18884F"/>
<stop offset="1" stop-color="#0B6731"/>
</linearGradient>
</defs>
</svg>
