<svg width="50" height="50" viewBox="0 0 50 50" fill="none" xmlns="http://www.w3.org/2000/svg">
<g clip-path="url(#clip0_1153_20738)">
<path fill-rule="evenodd" clip-rule="evenodd" d="M18.3 9.15527e-05C15.55 9.15527e-05 13.3 2.25009 13.3 5.00009C13.3 7.75009 15.55 10.0001 18.3 10.0001H23.3V5.00009C23.3 2.25009 21.05 9.15527e-05 18.3 9.15527e-05ZM18.3 13.3501H5C2.25 13.3501 0 15.6001 0 18.3501C0 21.1001 2.25 23.3501 5 23.3501H18.3C21.05 23.3501 23.3 21.1001 23.3 18.3501C23.3 15.5501 21.05 13.3501 18.3 13.3501Z" fill="#9F9F9F"/>
<path fill-rule="evenodd" clip-rule="evenodd" d="M49.9016 18.3501C49.9016 15.6001 47.6516 13.3501 44.9016 13.3501C42.1516 13.3501 39.9016 15.6001 39.9016 18.3501V23.3501H44.9016C47.6516 23.3501 49.9016 21.1001 49.9016 18.3501ZM36.6016 18.3501V5.00009C36.6016 2.25009 34.3516 9.15527e-05 31.6016 9.15527e-05C28.8516 9.15527e-05 26.6016 2.25009 26.6016 5.00009V18.3501C26.6016 21.1001 28.8516 23.3501 31.6016 23.3501C34.3516 23.3501 36.6016 21.1001 36.6016 18.3501Z" fill="#878787"/>
<path fill-rule="evenodd" clip-rule="evenodd" d="M31.6016 50.0001C34.3516 50.0001 36.6016 47.7501 36.6016 45.0001C36.6016 42.2501 34.3516 40.0001 31.6016 40.0001H26.6016V45.0001C26.6016 47.7501 28.8516 50.0001 31.6016 50.0001ZM31.6016 36.6501H44.9016C47.6516 36.6501 49.9016 34.4001 49.9016 31.6501C49.9016 28.9001 47.6516 26.6501 44.9016 26.6501H31.6016C28.8516 26.6501 26.6016 28.9001 26.6016 31.6501C26.6016 34.4001 28.8516 36.6501 31.6016 36.6501Z" fill="#B5B5B5"/>
<path fill-rule="evenodd" clip-rule="evenodd" d="M0 31.6501C0 34.4001 2.25 36.6501 5 36.6501C7.75 36.6501 10 34.4001 10 31.6501V26.6501H5C2.25 26.6501 0 28.9001 0 31.6501ZM13.3 31.6501V45.0001C13.3 47.7501 15.55 50.0001 18.3 50.0001C21.05 50.0001 23.3 47.7501 23.3 45.0001V31.6501C23.3 28.9001 21.05 26.6501 18.3 26.6501C15.55 26.6501 13.3 28.9001 13.3 31.6501Z" fill="#5F5F5F"/>
</g>
<defs>
<clipPath id="clip0_1153_20738">
<rect width="50" height="50" fill="white"/>
</clipPath>
</defs>
</svg>
