<svg width="576" height="353" viewBox="0 0 576 353" fill="none" xmlns="http://www.w3.org/2000/svg">
<g opacity="0.8">
<mask id="path-1-outside-1_21_861" maskUnits="userSpaceOnUse" x="-0.401062" y="-0.401032" width="577" height="354" fill="black">
<rect fill="white" x="-0.401062" y="-0.401032" width="577" height="354"/>
<path d="M550.609 1.59897C563.561 1.599 574.062 12.0995 574.062 25.0521V327.807C574.062 340.759 563.561 351.259 550.609 351.259H25.0521C12.0995 351.259 1.59914 340.759 1.59894 327.807L1.59894 25.0521C1.59894 12.0995 12.0994 1.59897 25.0521 1.59897L550.609 1.59897ZM151.91 312.853C143.668 312.853 136.987 319.535 136.987 327.778C136.987 336.02 143.668 342.702 151.91 342.703C160.153 342.703 166.835 336.02 166.835 327.778C166.835 319.535 160.153 312.853 151.91 312.853ZM424.284 312.853C416.041 312.853 409.359 319.535 409.359 327.778C409.359 336.02 416.041 342.702 424.284 342.703C432.526 342.703 439.208 336.02 439.208 327.778C439.208 319.535 432.526 312.853 424.284 312.853ZM199.883 312.853C198.117 312.853 196.685 314.285 196.685 316.051L196.685 329.91C196.685 331.676 198.117 333.108 199.883 333.108H213.742C215.508 333.108 216.939 331.676 216.939 329.91L216.939 316.051C216.939 314.285 215.508 312.853 213.742 312.853H199.883ZM362.453 312.853C360.687 312.853 359.255 314.285 359.255 316.051V329.91C359.255 331.676 360.687 333.108 362.453 333.108H376.312C378.078 333.108 379.51 331.676 379.51 329.91V316.051C379.51 314.285 378.078 312.853 376.312 312.853H362.453ZM171.633 128.991C154.265 128.991 140.185 143.071 140.185 160.439C140.185 177.807 154.265 191.887 171.633 191.887C189.001 191.887 203.08 177.807 203.08 160.439C203.08 143.071 189.001 128.991 171.633 128.991ZM404.029 128.991C386.66 128.991 372.58 143.071 372.58 160.439C372.58 177.807 386.661 191.887 404.029 191.887C421.397 191.887 435.477 177.807 435.477 160.439C435.477 143.071 421.397 128.991 404.029 128.991Z"/>
</mask>
<path d="M550.609 1.59897C563.561 1.599 574.062 12.0995 574.062 25.0521V327.807C574.062 340.759 563.561 351.259 550.609 351.259H25.0521C12.0995 351.259 1.59914 340.759 1.59894 327.807L1.59894 25.0521C1.59894 12.0995 12.0994 1.59897 25.0521 1.59897L550.609 1.59897ZM151.91 312.853C143.668 312.853 136.987 319.535 136.987 327.778C136.987 336.02 143.668 342.702 151.91 342.703C160.153 342.703 166.835 336.02 166.835 327.778C166.835 319.535 160.153 312.853 151.91 312.853ZM424.284 312.853C416.041 312.853 409.359 319.535 409.359 327.778C409.359 336.02 416.041 342.702 424.284 342.703C432.526 342.703 439.208 336.02 439.208 327.778C439.208 319.535 432.526 312.853 424.284 312.853ZM199.883 312.853C198.117 312.853 196.685 314.285 196.685 316.051L196.685 329.91C196.685 331.676 198.117 333.108 199.883 333.108H213.742C215.508 333.108 216.939 331.676 216.939 329.91L216.939 316.051C216.939 314.285 215.508 312.853 213.742 312.853H199.883ZM362.453 312.853C360.687 312.853 359.255 314.285 359.255 316.051V329.91C359.255 331.676 360.687 333.108 362.453 333.108H376.312C378.078 333.108 379.51 331.676 379.51 329.91V316.051C379.51 314.285 378.078 312.853 376.312 312.853H362.453ZM171.633 128.991C154.265 128.991 140.185 143.071 140.185 160.439C140.185 177.807 154.265 191.887 171.633 191.887C189.001 191.887 203.08 177.807 203.08 160.439C203.08 143.071 189.001 128.991 171.633 128.991ZM404.029 128.991C386.66 128.991 372.58 143.071 372.58 160.439C372.58 177.807 386.661 191.887 404.029 191.887C421.397 191.887 435.477 177.807 435.477 160.439C435.477 143.071 421.397 128.991 404.029 128.991Z" fill="#E2E2E2"/>
<path d="M550.609 1.59897L550.609 -8.84055e-05H550.609V1.59897ZM574.062 327.807L575.661 327.807V327.807H574.062ZM550.609 351.259L550.609 352.858L550.609 352.858L550.609 351.259ZM1.59894 327.807L-0.000118923 327.807L-0.000118923 327.807L1.59894 327.807ZM1.59894 25.0521H-0.000118923H1.59894ZM151.91 312.853L151.91 311.254L151.91 311.254L151.91 312.853ZM136.987 327.778L135.388 327.778L135.388 327.778L136.987 327.778ZM151.91 342.703L151.91 344.302H151.91V342.703ZM166.835 327.778L168.434 327.778V327.778H166.835ZM424.284 312.853L424.284 311.254L424.284 311.254L424.284 312.853ZM409.359 327.778L407.76 327.778L407.76 327.778L409.359 327.778ZM424.284 342.703L424.284 344.302H424.284V342.703ZM439.208 327.778L440.807 327.778V327.778H439.208ZM196.685 316.051H198.284H196.685ZM196.685 329.91H195.086H196.685ZM213.742 333.108L213.742 334.707L213.742 334.707L213.742 333.108ZM216.939 329.91H218.538H216.939ZM216.939 316.051H215.34H216.939ZM213.742 312.853L213.742 311.254H213.742V312.853ZM171.633 128.991L171.633 127.392H171.633V128.991ZM140.185 160.439L138.586 160.439L138.586 160.439L140.185 160.439ZM171.633 191.887L171.633 193.486L171.633 193.486L171.633 191.887ZM203.08 160.439L204.679 160.439V160.439H203.08ZM404.029 128.991L404.029 127.392L404.029 127.392L404.029 128.991ZM372.58 160.439L370.981 160.439L370.981 160.439L372.58 160.439ZM404.029 191.887L404.029 193.486H404.029V191.887ZM435.477 160.439L437.076 160.439V160.439H435.477ZM550.609 1.59897L550.609 3.19803C562.678 3.19805 572.463 12.9826 572.463 25.0521H574.062H575.661C575.661 11.2163 564.445 -5.85993e-05 550.609 -8.84055e-05L550.609 1.59897ZM574.062 25.0521H572.463V327.807H574.062H575.661V25.0521H574.062ZM574.062 327.807L572.463 327.807C572.463 339.876 562.678 349.66 550.609 349.66L550.609 351.259L550.609 352.858C564.444 352.858 575.661 341.643 575.661 327.807L574.062 327.807ZM550.609 351.259V349.66H25.0521V351.259V352.858H550.609V351.259ZM25.0521 351.259V349.66C12.9826 349.66 3.19819 339.876 3.19799 327.807L1.59894 327.807L-0.000118923 327.807C9.9367e-05 341.643 11.2165 352.858 25.0521 352.858V351.259ZM1.59894 327.807H3.19799L3.19799 25.0521H1.59894H-0.000118923L-0.000118923 327.807H1.59894ZM1.59894 25.0521H3.19799C3.19799 12.9826 12.9826 3.19803 25.0521 3.19803V1.59897V-8.84055e-05C11.2163 -8.84055e-05 -0.000118923 11.2163 -0.000118923 25.0521H1.59894ZM25.0521 1.59897V3.19803L550.609 3.19803V1.59897V-8.84055e-05L25.0521 -8.84055e-05V1.59897ZM151.91 312.853L151.91 311.254C142.785 311.254 135.388 318.652 135.388 327.778H136.987H138.586C138.586 320.418 144.551 314.452 151.911 314.452L151.91 312.853ZM136.987 327.778L135.388 327.778C135.388 336.903 142.785 344.301 151.91 344.302L151.91 342.703L151.911 341.103C144.551 341.103 138.586 335.137 138.586 327.778L136.987 327.778ZM151.91 342.703V344.302C161.036 344.302 168.434 336.903 168.434 327.778L166.835 327.778L165.236 327.778C165.236 335.137 159.27 341.103 151.91 341.103V342.703ZM166.835 327.778H168.434C168.434 318.652 161.036 311.254 151.91 311.254V312.853V314.452C159.27 314.452 165.236 320.418 165.236 327.778H166.835ZM424.284 312.853L424.284 311.254C415.158 311.254 407.76 318.652 407.76 327.778H409.359H410.958C410.958 320.418 416.924 314.452 424.284 314.452L424.284 312.853ZM409.359 327.778L407.76 327.778C407.76 336.903 415.158 344.302 424.284 344.302L424.284 342.703L424.284 341.103C416.924 341.103 410.958 335.137 410.958 327.778L409.359 327.778ZM424.284 342.703V344.302C433.409 344.302 440.807 336.903 440.807 327.778L439.208 327.778L437.609 327.778C437.609 335.137 431.643 341.103 424.284 341.103V342.703ZM439.208 327.778H440.807C440.807 318.652 433.409 311.254 424.284 311.254V312.853V314.452C431.643 314.452 437.609 320.418 437.609 327.778H439.208ZM199.883 312.853V311.254C197.234 311.254 195.086 313.402 195.086 316.051H196.685H198.284C198.284 315.168 199 314.452 199.883 314.452V312.853ZM196.685 316.051H195.086L195.086 329.91H196.685H198.284L198.284 316.051H196.685ZM196.685 329.91H195.086C195.086 332.559 197.234 334.707 199.883 334.707V333.108V331.509C199 331.509 198.284 330.793 198.284 329.91H196.685ZM199.883 333.108V334.707H213.742V333.108V331.509H199.883V333.108ZM213.742 333.108L213.742 334.707C216.391 334.707 218.538 332.558 218.538 329.91H216.939H215.34C215.34 330.793 214.624 331.509 213.741 331.509L213.742 333.108ZM216.939 329.91H218.538L218.538 316.051H216.939H215.34L215.34 329.91H216.939ZM216.939 316.051H218.538C218.538 313.402 216.391 311.254 213.742 311.254L213.742 312.853L213.741 314.452C214.624 314.452 215.34 315.168 215.34 316.051H216.939ZM213.742 312.853V311.254H199.883V312.853V314.452H213.742V312.853ZM362.453 312.853V311.254C359.804 311.254 357.656 313.402 357.656 316.051H359.255H360.854C360.854 315.168 361.57 314.452 362.453 314.452V312.853ZM359.255 316.051H357.656V329.91H359.255H360.854V316.051H359.255ZM359.255 329.91H357.656C357.656 332.559 359.804 334.707 362.453 334.707V333.108V331.509C361.57 331.509 360.854 330.793 360.854 329.91H359.255ZM362.453 333.108V334.707H376.312V333.108V331.509H362.453V333.108ZM376.312 333.108V334.707C378.961 334.707 381.109 332.559 381.109 329.91H379.51H377.911C377.911 330.793 377.195 331.509 376.312 331.509V333.108ZM379.51 329.91H381.109V316.051H379.51H377.911V329.91H379.51ZM379.51 316.051H381.109C381.109 313.402 378.961 311.254 376.312 311.254V312.853V314.452C377.195 314.452 377.911 315.168 377.911 316.051H379.51ZM376.312 312.853V311.254H362.453V312.853V314.452H376.312V312.853ZM171.633 128.991V127.392C153.382 127.392 138.586 142.187 138.586 160.439H140.185H141.784C141.784 143.954 155.148 130.59 171.633 130.59V128.991ZM140.185 160.439L138.586 160.439C138.586 178.69 153.382 193.486 171.633 193.486V191.887V190.288C155.148 190.288 141.784 176.924 141.784 160.439L140.185 160.439ZM171.633 191.887L171.633 193.486C189.884 193.486 204.679 178.69 204.679 160.439L203.08 160.439L201.481 160.439C201.481 176.924 188.118 190.288 171.633 190.288L171.633 191.887ZM203.08 160.439H204.679C204.679 142.188 189.884 127.392 171.633 127.392L171.633 128.991L171.633 130.59C188.118 130.59 201.481 143.954 201.481 160.439H203.08ZM404.029 128.991L404.029 127.392C385.777 127.392 370.981 142.187 370.981 160.439H372.58H374.179C374.179 143.954 387.544 130.59 404.029 130.59L404.029 128.991ZM372.58 160.439L370.981 160.439C370.981 178.69 385.777 193.486 404.029 193.486L404.029 191.887L404.029 190.288C387.544 190.288 374.18 176.924 374.179 160.439L372.58 160.439ZM404.029 191.887V193.486C422.28 193.486 437.076 178.69 437.076 160.439L435.477 160.439L433.878 160.439C433.878 176.924 420.514 190.288 404.029 190.288V191.887ZM435.477 160.439H437.076C437.076 142.187 422.28 127.392 404.029 127.392V128.991V130.59C420.514 130.59 433.878 143.954 433.878 160.439H435.477Z" fill="#202020" mask="url(#path-1-outside-1_21_861)"/>
</g>
<path d="M171.099 63.9623C224.381 63.9623 267.576 107.156 267.576 160.439C267.575 213.721 224.381 256.915 171.099 256.915C117.817 256.915 74.6224 213.721 74.6224 160.439C74.6224 107.156 117.817 63.9624 171.099 63.9623ZM171.632 127.392C153.381 127.392 138.585 142.187 138.585 160.439C138.585 178.69 153.381 193.486 171.632 193.486C189.884 193.486 204.679 178.69 204.679 160.439C204.679 142.187 189.884 127.392 171.632 127.392Z" fill="#202020"/>
<path d="M403.495 120.462C425.574 120.462 443.472 138.36 443.472 160.439C443.472 182.517 425.574 200.415 403.495 200.415C381.417 200.415 363.519 182.517 363.519 160.439C363.519 138.36 381.417 120.462 403.495 120.462ZM404.029 127.392C385.777 127.392 370.982 142.187 370.982 160.439C370.982 178.69 385.777 193.486 404.029 193.486C422.28 193.486 437.075 178.69 437.076 160.439C437.076 142.187 422.28 127.392 404.029 127.392Z" fill="#202020"/>
<path d="M67.4266 145.514C61.8624 189.625 40.2095 294.686 45.8393 328.606M62.363 342.465C99.4079 342.998 509.299 342.465 513.297 342.465M436.276 138.052C455.147 166.018 515.869 277.848 529.527 321.41" stroke="#202020" stroke-width="0.533019"/>
<path d="M62.363 308.618C71.7831 308.618 79.4196 316.255 79.4196 325.675C79.4196 335.095 71.783 342.731 62.363 342.731C52.9429 342.731 45.3064 335.095 45.3063 325.675C45.3063 316.255 52.9429 308.618 62.363 308.618ZM62.363 318.495C58.3966 318.495 55.1813 321.711 55.1813 325.678C55.1816 329.644 58.3968 332.859 62.363 332.859C66.3291 332.859 69.5444 329.644 69.5446 325.678C69.5446 321.711 66.3293 318.495 62.363 318.495Z" fill="#202020"/>
<path d="M513.297 308.618C522.717 308.618 530.354 316.254 530.354 325.675C530.354 335.095 522.717 342.731 513.297 342.731C503.877 342.731 496.241 335.095 496.241 325.675C496.241 316.255 503.877 308.618 513.297 308.618ZM513.297 318.495C509.331 318.495 506.116 321.711 506.116 325.677C506.116 329.644 509.331 332.859 513.297 332.859C517.263 332.859 520.479 329.644 520.479 325.677C520.479 321.711 517.264 318.495 513.297 318.495Z" fill="#202020"/>
<path d="M129.727 273.173H450.189C457.619 273.173 464.103 278.21 465.941 285.409L482.951 352.059H93.297L114.198 284.617C116.307 277.812 122.602 273.173 129.727 273.173Z" stroke="#202020" stroke-width="1.59906"/>
<circle cx="151.911" cy="327.807" r="14.125" stroke="#202020" stroke-width="1.59906"/>
<circle cx="424.283" cy="327.807" r="14.125" stroke="#202020" stroke-width="1.59906"/>
<rect x="197.484" y="313.682" width="18.6557" height="18.6557" rx="2.39859" stroke="#202020" stroke-width="1.59906"/>
<path d="M277.703 333.137C277.703 331.371 279.135 329.939 280.901 329.939H294.76C296.526 329.939 297.958 331.371 297.958 333.137V342.731H277.703V333.137Z" fill="#202020"/>
<rect x="360.055" y="313.682" width="18.6557" height="18.6557" rx="2.39859" stroke="#202020" stroke-width="1.59906"/>
<g clip-path="url(#clip0_21_861)">
<path d="M287.83 279.302C293.129 279.302 297.424 283.598 297.424 288.897C297.424 294.195 293.129 298.49 287.83 298.49C282.531 298.49 278.236 294.195 278.235 288.897C278.235 283.598 282.531 279.302 287.83 279.302ZM288.613 283.154C288.44 282.301 287.22 282.301 287.046 283.154L286.314 286.756C286.25 287.07 286.004 287.316 285.69 287.38L282.088 288.112C281.234 288.286 281.234 289.506 282.088 289.68L285.69 290.412C286.004 290.476 286.25 290.722 286.314 291.036L287.046 294.638C287.22 295.491 288.44 295.491 288.613 294.638L289.346 291.036C289.41 290.722 289.655 290.476 289.97 290.412L293.571 289.68C294.425 289.506 294.425 288.286 293.571 288.112L289.97 287.38C289.655 287.316 289.41 287.07 289.346 286.756L288.613 283.154Z" fill="#202020"/>
</g>
<g clip-path="url(#clip1_21_861)">
<path d="M23.986 14.3915C29.2846 14.3917 33.5797 18.6876 33.5797 23.9863C33.5795 29.2848 29.2845 33.5798 23.986 33.58C18.6873 33.58 14.3914 29.2849 14.3912 23.9863C14.3912 18.6875 18.6872 14.3915 23.986 14.3915ZM24.7692 18.2441C24.5956 17.3905 23.3754 17.3905 23.2018 18.2441L22.4694 21.8456C22.4054 22.1601 22.1598 22.4057 21.8453 22.4697L18.2438 23.2021C17.3902 23.3757 17.3902 24.5959 18.2438 24.7695L21.8453 25.5019C22.1598 25.5658 22.4054 25.8115 22.4694 26.1259L23.2018 29.7275C23.3754 30.5811 24.5956 30.5811 24.7692 29.7275L25.5016 26.1259C25.5656 25.8115 25.8112 25.5659 26.1256 25.5019L29.7272 24.7695C30.5808 24.5959 30.5808 23.3757 29.7272 23.2021L26.1256 22.4697C25.8112 22.4057 25.5655 22.1601 25.5016 21.8456L24.7692 18.2441Z" fill="#202020"/>
</g>
<g clip-path="url(#clip2_21_861)">
<path d="M23.9858 319.278C29.2844 319.279 33.5795 323.574 33.5795 328.873C33.5793 334.172 29.2843 338.467 23.9858 338.467C18.6871 338.467 14.3913 334.172 14.3911 328.873C14.3911 323.574 18.687 319.278 23.9858 319.278ZM24.769 323.131C24.5954 322.277 23.3752 322.277 23.2016 323.131L22.4692 326.733C22.4052 327.047 22.1596 327.293 21.8452 327.357L18.2436 328.089C17.39 328.263 17.39 329.483 18.2436 329.656L21.8452 330.389C22.1596 330.453 22.4052 330.698 22.4692 331.013L23.2016 334.614C23.3752 335.468 24.5954 335.468 24.769 334.614L25.5014 331.013C25.5654 330.698 25.811 330.453 26.1254 330.389L29.727 329.656C30.5806 329.483 30.5806 328.263 29.727 328.089L26.1254 327.357C25.811 327.293 25.5653 327.047 25.5014 326.733L24.769 323.131Z" fill="#202020"/>
</g>
<g clip-path="url(#clip3_21_861)">
<path d="M551.675 14.3916C556.973 14.3918 561.268 18.6877 561.268 23.9864C561.268 29.2849 556.973 33.5799 551.675 33.5801C546.376 33.5801 542.08 29.285 542.08 23.9864C542.08 18.6876 546.376 14.3916 551.675 14.3916ZM552.458 18.2442C552.284 17.3906 551.064 17.3906 550.89 18.2442L550.158 21.8457C550.094 22.1602 549.848 22.4058 549.534 22.4698L545.932 23.2022C545.079 23.3758 545.079 24.5959 545.932 24.7696L549.534 25.502C549.848 25.5659 550.094 25.8116 550.158 26.126L550.89 29.7276C551.064 30.5812 552.284 30.5812 552.458 29.7276L553.19 26.126C553.254 25.8116 553.5 25.566 553.814 25.502L557.416 24.7696C558.269 24.596 558.269 23.3758 557.416 23.2022L553.814 22.4698C553.5 22.4058 553.254 22.1601 553.19 21.8457L552.458 18.2442Z" fill="#202020"/>
</g>
<g clip-path="url(#clip4_21_861)">
<path d="M551.675 319.278C556.973 319.279 561.268 323.574 561.268 328.873C561.268 334.172 556.973 338.467 551.675 338.467C546.376 338.467 542.08 334.172 542.08 328.873C542.08 323.574 546.376 319.278 551.675 319.278ZM552.458 323.131C552.284 322.277 551.064 322.277 550.89 323.131L550.158 326.733C550.094 327.047 549.848 327.293 549.534 327.357L545.932 328.089C545.079 328.263 545.079 329.483 545.932 329.656L549.534 330.389C549.848 330.453 550.094 330.698 550.158 331.013L550.89 334.614C551.064 335.468 552.284 335.468 552.458 334.614L553.19 331.013C553.254 330.698 553.5 330.453 553.814 330.389L557.416 329.656C558.269 329.483 558.269 328.263 557.416 328.089L553.814 327.357C553.5 327.293 553.254 327.047 553.19 326.733L552.458 323.131Z" fill="#202020"/>
</g>
<mask id="mask0_21_861" style="mask-type:alpha" maskUnits="userSpaceOnUse" x="33" y="29" width="511" height="228">
<path d="M63.6349 30.6487H513.092C517.391 30.6489 521.514 32.3514 524.561 35.3841L538.092 48.8538C541.157 51.9046 542.88 56.0511 542.88 60.3753V239.859C542.88 248.837 535.601 256.116 526.622 256.116H50.1036C41.1252 256.116 33.847 248.837 33.8468 239.859V60.3753C33.8469 56.0511 35.5693 51.9046 38.6339 48.8538L52.1652 35.3841C55.2118 32.3512 59.336 30.6487 63.6349 30.6487ZM165.769 112.201C139.422 112.201 118.064 133.559 118.064 159.906V160.972C118.064 187.319 139.422 208.677 165.769 208.677H409.892C436.238 208.677 457.597 187.319 457.597 160.972V159.906C457.597 133.559 436.238 112.201 409.892 112.201H165.769Z" fill="#EDA35F" stroke="#202020" stroke-width="1.59906"/>
</mask>
<g mask="url(#mask0_21_861)">
<g clip-path="url(#clip5_21_861)">
<rect width="510.632" height="227.066" transform="translate(33.0469 29.8489)" fill="#FCF7F2"/>
<g clip-path="url(#clip6_21_861)">
<rect width="511.165" height="25.5732" transform="matrix(1 0 0 -1 33.3134 257.115)" fill="#F95F4A"/>
<rect width="511.165" height="17.5816" transform="matrix(1 0 0 -1 33.3133 225.149)" fill="#F95F4A"/>
<rect width="511.165" height="3.19665" transform="matrix(1 0 0 -1 33.3133 130.848)" fill="#F95F4A"/>
<rect width="511.165" height="1.59832" transform="matrix(1 0 0 -1 33.3133 114.865)" fill="#F95F4A"/>
<rect width="511.165" height="12.7866" transform="matrix(1 0 0 -1 33.3133 201.174)" fill="#F95F4A"/>
<rect width="511.165" height="6.39329" transform="matrix(1 0 0 -1 33.3133 162.814)" fill="#F95F4A"/>
<rect width="511.165" height="9.58994" transform="matrix(1 0 0 -1 33.3133 180.396)" fill="#F95F4A"/>
<rect width="511.165" height="4.79497" transform="matrix(1 0 0 -1 33.3133 146.831)" fill="#F95F4A"/>
</g>
<path d="M218.861 100.665C218.814 100.926 218.707 101.111 218.538 101.218C218.384 101.341 218.238 101.51 218.1 101.726H218.008C217.854 101.726 217.7 101.741 217.547 101.772C217.408 101.802 217.262 101.841 217.109 101.887C217.032 101.856 216.939 101.833 216.832 101.818C216.724 101.802 216.655 101.749 216.624 101.656C216.501 101.718 216.332 101.749 216.117 101.749C215.764 101.749 215.426 101.649 215.103 101.449C214.796 101.249 214.473 101.096 214.135 100.988C214.043 100.804 213.927 100.635 213.789 100.481C213.666 100.343 213.535 100.204 213.397 100.066C213.274 99.9276 213.151 99.7816 213.028 99.6279C212.905 99.4742 212.805 99.2898 212.729 99.0746C212.698 98.9824 212.659 98.9286 212.613 98.9132C212.567 98.8979 212.498 98.8979 212.406 98.9132C212.421 98.7442 212.398 98.5982 212.337 98.4753C212.291 98.3523 212.175 98.2755 211.991 98.2447C211.991 98.0449 211.96 97.8759 211.899 97.7376C211.837 97.5993 211.76 97.4763 211.668 97.3687C211.591 97.2765 211.499 97.1766 211.392 97.069C211.299 96.9615 211.222 96.8308 211.161 96.6772C211.023 96.6464 210.884 96.6234 210.746 96.608C210.623 96.608 210.485 96.608 210.331 96.608C209.593 96.608 208.879 96.7463 208.187 97.0229C208.11 97.0537 208.026 97.0921 207.934 97.1382C207.857 97.1843 207.78 97.2227 207.703 97.2535C207.672 97.2535 207.642 97.2535 207.611 97.2535C207.596 97.2688 207.572 97.2765 207.542 97.2765C207.434 97.2765 207.334 97.2535 207.242 97.2074C207.15 97.1766 207.05 97.1613 206.942 97.1613C206.896 97.1613 206.842 97.1689 206.781 97.1843C206.735 97.215 206.689 97.2381 206.643 97.2535C206.412 97.3303 206.197 97.3764 205.997 97.3918C205.367 97.5147 204.699 97.6069 203.992 97.6684C203.3 97.7299 202.662 97.8913 202.078 98.1525C201.955 98.214 201.879 98.3062 201.848 98.4291C201.817 98.5675 201.809 98.6981 201.825 98.821C201.656 98.944 201.525 99.1054 201.433 99.3051C201.356 99.5049 201.279 99.7124 201.202 99.9276C201.141 100.158 201.072 100.381 200.995 100.596C200.918 100.811 200.81 100.996 200.672 101.149C200.718 101.242 200.741 101.341 200.741 101.449C200.741 101.68 200.664 101.91 200.511 102.141C200.357 102.371 200.242 102.594 200.165 102.809C200.088 103.024 200.027 103.232 199.981 103.432C199.934 103.647 199.865 103.839 199.773 104.008C199.681 104.177 199.558 104.315 199.404 104.423C199.235 104.53 199.005 104.584 198.713 104.584C198.436 104.584 198.198 104.53 197.998 104.423C197.798 104.315 197.637 104.177 197.514 104.008C197.391 103.839 197.291 103.639 197.214 103.408C197.137 103.178 197.076 102.947 197.03 102.717C197.199 102.379 197.36 102.087 197.514 101.841C197.668 101.595 197.783 101.28 197.86 100.896C198.136 100.696 198.344 100.45 198.482 100.158C198.605 99.8815 198.674 99.5741 198.69 99.236C198.859 99.1284 198.982 98.9824 199.058 98.798C199.12 98.6289 199.158 98.4445 199.174 98.2447C198.805 98.214 198.421 98.1833 198.021 98.1525C197.606 98.1218 197.222 98.0449 196.868 97.922C196.868 97.8913 196.876 97.8605 196.892 97.8298C196.892 97.799 196.892 97.7683 196.892 97.7376C196.892 97.5378 196.845 97.3534 196.753 97.1843C196.661 97.0306 196.615 96.8616 196.615 96.6772V96.4927C196.738 96.3698 196.853 96.2392 196.961 96.1008C197.053 95.9779 197.153 95.8626 197.26 95.7551C197.368 95.6475 197.491 95.5553 197.629 95.4784C197.767 95.417 197.944 95.3862 198.159 95.3862C198.451 95.3862 198.736 95.4016 199.012 95.4323C199.289 95.4784 199.573 95.5015 199.865 95.5015C200.065 95.5015 200.273 95.4784 200.488 95.4323C200.826 94.7407 201.125 94.0415 201.387 93.3345C201.648 92.6122 201.848 91.8822 201.986 91.1446C202.094 90.9909 202.194 90.8141 202.286 90.6144C202.378 90.3992 202.447 90.1764 202.493 89.9458C202.555 89.7153 202.593 89.4925 202.609 89.2773C202.639 89.0468 202.655 88.8393 202.655 88.6549C202.824 88.4551 202.939 88.2092 203 87.9172C203.077 87.6252 203.139 87.3255 203.185 87.0182C203.231 86.6954 203.277 86.3804 203.323 86.073C203.385 85.7656 203.492 85.4967 203.646 85.2662V85.0587C203.661 84.8282 203.638 84.6207 203.577 84.4363C203.654 84.4055 203.7 84.3364 203.715 84.2288C203.73 84.1212 203.761 84.029 203.807 83.9522C203.823 83.2452 203.899 82.5537 204.038 81.8775C204.176 81.1859 204.291 80.4943 204.384 79.8027V79.7336C204.384 79.6567 204.353 79.6183 204.291 79.6183C204.245 79.6029 204.222 79.5568 204.222 79.48C204.222 79.3417 204.238 79.1573 204.268 78.9267C204.314 78.6962 204.345 78.5041 204.361 78.3504C204.453 77.5205 204.499 76.6983 204.499 75.8838C204.499 75.1922 204.476 74.5083 204.43 73.8321C204.384 73.1559 204.337 72.472 204.291 71.7805L204.476 71.5038C204.537 71.4116 204.591 71.3194 204.637 71.2272C204.791 71.1657 204.914 71.1043 205.006 71.0428C205.114 70.9659 205.252 70.9275 205.421 70.9275C205.467 70.9275 205.505 70.9352 205.536 70.9506C205.567 70.9506 205.598 70.9506 205.628 70.9506C205.721 71.012 205.79 71.0966 205.836 71.2042C205.897 71.3117 205.951 71.4116 205.997 71.5038C206.059 71.596 206.136 71.6729 206.228 71.7344C206.32 71.7958 206.451 71.8112 206.62 71.7805C206.696 72.2108 206.912 72.4336 207.265 72.449C207.342 72.6641 207.434 72.8793 207.542 73.0945C207.665 73.3096 207.826 73.4787 208.026 73.6016C208.01 73.6631 208.003 73.7476 208.003 73.8552C208.003 74.0703 208.049 74.2778 208.141 74.4776C208.249 74.6774 208.379 74.8618 208.533 75.0309V75.077C208.533 75.246 208.472 75.3613 208.349 75.4228C208.487 75.5764 208.587 75.7609 208.648 75.976C208.71 76.1912 208.764 76.414 208.81 76.6445C208.856 76.8597 208.91 77.0672 208.971 77.267C209.048 77.4667 209.171 77.6204 209.34 77.728V77.7972C209.34 77.874 209.309 77.9201 209.248 77.9355C209.202 77.9508 209.178 77.997 209.178 78.0738C209.455 78.5809 209.647 79.1342 209.755 79.7336C209.862 80.3329 210.001 80.9093 210.17 81.4625C210.231 81.524 210.3 81.5624 210.377 81.5778C210.469 81.5931 210.539 81.6316 210.585 81.693C210.492 81.7545 210.446 81.8621 210.446 82.0158C210.446 82.1695 210.408 82.2847 210.331 82.3616C210.454 82.4691 210.508 82.6305 210.492 82.8457C210.492 83.0454 210.554 83.1914 210.677 83.2837V83.3759C210.677 83.4373 210.662 83.4911 210.631 83.5372C210.6 83.568 210.585 83.6141 210.585 83.6755V83.7678C210.708 84.3057 210.8 84.8435 210.861 85.3814C210.938 85.9193 211.015 86.4572 211.092 86.9951C211.169 87.533 211.253 88.0709 211.345 88.6088C211.438 89.1313 211.568 89.6461 211.737 90.1533C211.753 90.1687 211.76 90.1917 211.76 90.2225C211.76 90.2993 211.73 90.3454 211.668 90.3608C211.607 90.3608 211.576 90.3992 211.576 90.476C211.576 90.5529 211.599 90.6451 211.645 90.7527C211.707 90.8449 211.768 90.9217 211.83 90.9832C211.814 91.0447 211.806 91.1369 211.806 91.2598C211.806 91.4903 211.845 91.7132 211.922 91.9283C212.014 92.1435 212.106 92.3587 212.198 92.5738C212.306 92.7736 212.398 92.9888 212.475 93.2193C212.552 93.4498 212.583 93.6957 212.567 93.957C212.659 94.0953 212.775 94.2105 212.913 94.3027C213.067 94.395 213.22 94.4795 213.374 94.5563C213.528 94.6332 213.666 94.7254 213.789 94.833C213.927 94.9405 214.02 95.0865 214.066 95.271C213.943 95.3785 213.858 95.5092 213.812 95.6628C213.766 95.8319 213.681 95.9779 213.558 96.1008C213.666 96.3621 213.789 96.6003 213.927 96.8155C214.081 97.046 214.235 97.2688 214.388 97.484L214.872 98.1295C215.041 98.3446 215.187 98.5751 215.31 98.821C215.479 98.821 215.602 98.8671 215.679 98.9594C215.756 99.0516 215.879 99.09 216.048 99.0746C216.11 99.1976 216.133 99.3359 216.117 99.4896C216.425 99.382 216.732 99.3282 217.039 99.3282C217.208 99.3282 217.362 99.3359 217.5 99.3512C217.654 99.3666 217.808 99.3743 217.961 99.3743C218.146 99.3743 218.307 99.3512 218.446 99.3051C218.507 99.3974 218.553 99.4972 218.584 99.6048C218.615 99.7278 218.638 99.8507 218.653 99.9737L218.722 100.343C218.753 100.465 218.799 100.573 218.861 100.665ZM210.17 94.2797C209.955 93.2193 209.732 92.1666 209.501 91.1215C209.286 90.0611 209.094 88.993 208.925 87.9172C208.833 87.3486 208.764 86.78 208.717 86.2113C208.671 85.6427 208.61 85.0818 208.533 84.5285C208.472 83.9599 208.379 83.3989 208.256 82.8457C208.149 82.2924 207.987 81.7468 207.772 81.2089V81.1628C207.772 81.1167 207.788 81.0783 207.818 81.0476C207.849 81.0168 207.864 80.963 207.864 80.8862V80.794C207.665 80.6557 207.526 80.4636 207.45 80.2177C207.373 79.9564 207.304 79.6875 207.242 79.4108C207.196 79.1188 207.127 78.8422 207.035 78.5809C206.958 78.3043 206.819 78.0738 206.62 77.8894C206.543 78.7807 206.458 79.6721 206.366 80.5635C206.289 81.4395 206.235 82.3231 206.205 83.2145C206.051 83.3067 205.951 83.4604 205.905 83.6755C205.859 83.8907 205.836 84.0828 205.836 84.2519C205.836 84.3748 205.844 84.5054 205.859 84.6438C205.874 84.7667 205.905 84.8973 205.951 85.0356C205.675 85.7272 205.475 86.4418 205.352 87.1795C205.229 87.9018 205.091 88.6242 204.937 89.3465C204.921 89.3926 204.891 89.5001 204.845 89.6692C204.814 89.8229 204.775 89.9842 204.729 90.1533C204.683 90.3224 204.645 90.476 204.614 90.6144C204.583 90.7373 204.568 90.8065 204.568 90.8218C204.553 90.9294 204.545 91.037 204.545 91.1446C204.56 91.2521 204.568 91.3597 204.568 91.4673L204.222 91.8131C204.161 92.3971 204.045 92.9657 203.876 93.519C203.723 94.0569 203.561 94.6101 203.392 95.1787C203.5 95.1941 203.6 95.2018 203.692 95.2018C203.8 95.2172 203.907 95.2248 204.015 95.2248C204.507 95.2248 204.998 95.1941 205.49 95.1326C205.997 95.0558 206.497 94.9866 206.988 94.9252C207.158 94.8944 207.334 94.8714 207.519 94.856C207.703 94.8253 207.88 94.8099 208.049 94.8099C208.126 94.7945 208.218 94.7945 208.326 94.8099C208.433 94.8099 208.525 94.8022 208.602 94.7869C208.725 94.7561 208.802 94.71 208.833 94.6485C208.879 94.5717 208.963 94.5256 209.086 94.5102C209.178 94.5563 209.286 94.5794 209.409 94.5794C209.547 94.5794 209.678 94.5486 209.801 94.4872C209.924 94.4257 210.047 94.3565 210.17 94.2797ZM242.697 91.2598C242.697 91.4596 242.643 91.644 242.535 91.8131C242.428 91.9668 242.397 92.1512 242.443 92.3663C242.382 92.4739 242.297 92.5584 242.19 92.6199C242.097 92.6814 242.067 92.7967 242.097 92.9657C241.775 93.1348 241.475 93.3499 241.198 93.6112C240.937 93.8571 240.653 94.0953 240.345 94.3258C240.161 94.4641 240 94.564 239.861 94.6255C239.738 94.6716 239.585 94.7484 239.4 94.856L238.824 95.2248C238.563 95.3632 238.294 95.5015 238.017 95.6398C237.756 95.7781 237.518 95.9548 237.303 96.17C236.98 96.1854 236.649 96.2699 236.311 96.4236C235.973 96.5926 235.65 96.7386 235.343 96.8616C235.22 96.9077 235.097 96.9384 234.974 96.9538C234.851 96.9845 234.728 97.0306 234.605 97.0921L234.237 97.2535C234.021 97.361 233.768 97.4686 233.476 97.5762C233.184 97.6992 232.923 97.7606 232.692 97.7606C232.554 97.8221 232.438 97.9297 232.346 98.0834C231.839 98.2524 231.317 98.383 230.779 98.4753C230.241 98.5675 229.718 98.7135 229.211 98.9132C229.042 98.9901 228.865 99.09 228.681 99.2129C228.512 99.3512 228.327 99.4127 228.128 99.3974C228.082 99.4742 228.051 99.5664 228.035 99.674C228.02 99.7816 227.997 99.8891 227.966 99.9967H227.897C227.836 99.9967 227.805 99.966 227.805 99.9045C227.82 99.843 227.797 99.8123 227.736 99.8123C227.69 99.8123 227.659 99.82 227.644 99.8353C227.444 99.8815 227.252 99.9199 227.067 99.9506C226.898 99.9813 226.706 99.9967 226.491 99.9967C226.368 99.9967 226.168 99.9813 225.892 99.9506C225.63 99.9199 225.438 99.8815 225.315 99.8353C225.223 99.7892 225.146 99.7047 225.085 99.5818C225.023 99.4588 224.962 99.3282 224.9 99.1899C224.854 99.0516 224.808 98.9056 224.762 98.7519C224.731 98.6136 224.7 98.4983 224.67 98.4061C224.716 98.237 224.793 98.0987 224.9 97.9911C225.008 97.8836 225.092 97.7453 225.154 97.5762C225.292 97.5608 225.43 97.5378 225.569 97.507C225.707 97.4763 225.845 97.4686 225.984 97.484C226.46 97.3457 226.937 97.2074 227.413 97.069C227.905 96.9461 228.389 96.8155 228.865 96.6772C229.342 96.5388 229.81 96.3852 230.272 96.2161C230.733 96.0471 231.178 95.8396 231.609 95.5937H232.093C232.369 95.44 232.677 95.3094 233.015 95.2018C233.353 95.0942 233.629 94.9175 233.845 94.6716C234.352 94.564 234.882 94.418 235.435 94.2336C235.989 94.0492 236.45 93.7572 236.818 93.3576C237.049 93.3269 237.249 93.2731 237.418 93.1962C237.587 93.104 237.748 93.0118 237.902 92.9196L238.363 92.6199C238.517 92.5123 238.693 92.4278 238.893 92.3663C239.016 92.2434 239.131 92.1128 239.239 91.9744C239.347 91.8361 239.477 91.7209 239.631 91.6287C239.585 91.3828 239.462 91.1983 239.262 91.0754C239.062 90.9525 238.885 90.8065 238.732 90.6374H238.225C237.825 90.3915 237.395 90.2071 236.934 90.0841C236.488 89.9458 236.042 89.7998 235.597 89.6461C235.566 89.6308 235.527 89.6231 235.481 89.6231C235.374 89.6231 235.305 89.6615 235.274 89.7384C235.259 89.8152 235.197 89.8459 235.089 89.8306C234.951 89.7384 234.805 89.6846 234.651 89.6692C234.498 89.6385 234.336 89.6231 234.167 89.6231C233.952 89.6231 233.737 89.6385 233.522 89.6692C233.322 89.6846 233.115 89.6923 232.899 89.6923C232.792 89.6923 232.684 89.6846 232.577 89.6692C232.469 89.6538 232.362 89.6154 232.254 89.5539H231.954C231.632 89.5539 231.309 89.5693 230.986 89.6C230.679 89.6154 230.371 89.6231 230.064 89.6231C229.895 89.6231 229.734 89.6231 229.58 89.6231C229.426 89.6077 229.273 89.5847 229.119 89.5539C228.796 89.7076 228.45 89.8152 228.082 89.8767C227.713 89.9381 227.328 89.9842 226.929 90.015C226.545 90.0457 226.16 90.0765 225.776 90.1072C225.392 90.1226 225.023 90.161 224.67 90.2225C224.578 90.2071 224.485 90.1994 224.393 90.1994C224.316 90.184 224.239 90.1764 224.163 90.1764C224.086 90.1764 224.001 90.184 223.909 90.1994C223.832 90.1994 223.755 90.2071 223.679 90.2225C223.479 90.0073 223.233 89.8536 222.941 89.7614C222.664 89.6538 222.388 89.5847 222.111 89.5539C221.896 89.2927 221.734 89.0314 221.627 88.7702C221.535 88.4935 221.473 88.1862 221.442 87.8481H221.535C221.642 87.8481 221.688 87.7943 221.673 87.6867C221.673 87.5791 221.711 87.4869 221.788 87.4101C221.865 87.3178 221.965 87.2564 222.088 87.2256C222.226 87.1795 222.357 87.1334 222.48 87.0873C222.603 87.0412 222.718 86.9874 222.826 86.926C222.949 86.8491 223.041 86.7338 223.102 86.5802H223.402C223.463 86.5802 223.525 86.5878 223.586 86.6032C223.663 86.6032 223.725 86.6263 223.771 86.6724C223.832 86.6109 223.909 86.5571 224.001 86.511C224.093 86.4649 224.178 86.4188 224.255 86.3727C224.347 86.3266 224.424 86.2728 224.485 86.2113C224.547 86.1499 224.585 86.0576 224.601 85.9347C224.616 85.9808 224.654 86.0039 224.716 86.0039C224.777 86.0039 224.831 85.9885 224.877 85.9577C224.939 85.927 225.008 85.9193 225.085 85.9347C225.162 85.7195 225.292 85.6043 225.477 85.5889C225.661 85.5735 225.83 85.5197 225.984 85.4275C226.091 85.3661 226.191 85.2969 226.283 85.2201C226.376 85.1279 226.476 85.0433 226.583 84.9665L227.966 83.9061L230.087 82.2924C230.794 81.7545 231.516 81.255 232.254 80.794C232.285 80.7018 232.331 80.6326 232.392 80.5865C232.454 80.5404 232.515 80.4943 232.577 80.4482C232.638 80.3867 232.684 80.3253 232.715 80.2638C232.761 80.2023 232.777 80.1101 232.761 79.9872C232.976 79.941 233.138 79.8565 233.245 79.7336C233.368 79.6106 233.476 79.48 233.568 79.3417C233.66 79.188 233.752 79.042 233.845 78.9037C233.952 78.75 234.091 78.6347 234.26 78.5579C234.244 78.5118 234.237 78.4426 234.237 78.3504C234.237 78.2275 234.244 78.1045 234.26 77.9816C234.29 77.8586 234.352 77.7511 234.444 77.6588C234.306 77.3361 234.067 77.1056 233.729 76.9673C233.391 76.8136 233.069 76.683 232.761 76.5754H232.692C232.615 76.5754 232.569 76.6138 232.554 76.6906C232.554 76.7521 232.515 76.7982 232.438 76.829C232.193 76.7675 231.916 76.7367 231.609 76.7367C231.301 76.7367 230.994 76.7598 230.686 76.8059C230.394 76.852 230.095 76.8597 229.787 76.829C229.741 76.8904 229.688 76.9519 229.626 77.0134C229.58 77.0749 229.518 77.1286 229.442 77.1747C229.119 77.1901 228.796 77.2362 228.473 77.3131L227.505 77.5436L226.975 77.6588C226.898 77.6896 226.844 77.7434 226.814 77.8202C226.783 77.8971 226.76 77.9816 226.744 78.0738C226.652 78.0584 226.591 78.02 226.56 77.9585C226.545 77.8971 226.491 77.851 226.399 77.8202C226.045 78.0354 225.661 78.2121 225.246 78.3504C224.846 78.4887 224.485 78.7039 224.163 78.9959C224.055 78.8729 223.901 78.8115 223.702 78.8115C223.533 78.8115 223.348 78.8653 223.148 78.9728C222.949 79.0804 222.826 79.2187 222.779 79.3878C222.626 79.357 222.511 79.3417 222.434 79.3417C222.265 79.3417 222.119 79.3878 221.996 79.48C221.888 79.5722 221.781 79.6798 221.673 79.8027C221.565 79.9103 221.45 80.0179 221.327 80.1255C221.204 80.233 221.051 80.2945 220.866 80.3099C220.866 80.3867 220.866 80.4713 220.866 80.5635C220.881 80.6403 220.889 80.7248 220.889 80.817C220.889 81.5086 220.851 82.2002 220.774 82.8918C220.697 83.568 220.659 84.2519 220.659 84.9434C220.659 85.0971 220.666 85.2508 220.682 85.4045C220.697 85.5428 220.705 85.6965 220.705 85.8655C220.705 85.9116 220.666 86.0115 220.589 86.1652C220.528 86.3189 220.482 86.4342 220.451 86.511C220.513 86.6801 220.536 86.8491 220.52 87.0182C220.52 87.1872 220.559 87.3486 220.636 87.5023C220.497 87.6252 220.428 87.7943 220.428 88.0094C220.428 88.1016 220.428 88.1938 220.428 88.286C220.443 88.3783 220.451 88.4705 220.451 88.5627V88.8393C220.405 89.1467 220.374 89.4617 220.359 89.7845C220.344 90.0918 220.336 90.3992 220.336 90.7066C220.336 90.8449 220.336 91.0831 220.336 91.4212C220.351 91.7439 220.374 92.1128 220.405 92.5277C220.436 92.9273 220.482 93.3422 220.543 93.7725C220.605 94.2029 220.682 94.6024 220.774 94.9713C220.881 95.3247 221.012 95.6167 221.166 95.8473C221.319 96.0778 221.504 96.1931 221.719 96.1931C221.765 96.1931 221.819 96.1854 221.88 96.17C221.957 96.1546 221.996 96.1162 221.996 96.0547C221.996 95.9933 221.98 95.9395 221.95 95.8934C221.934 95.8473 221.927 95.7935 221.927 95.732L221.95 95.6859C222.073 95.7474 222.203 95.7858 222.341 95.8012C222.495 95.8165 222.649 95.8319 222.803 95.8473C222.956 95.8626 223.102 95.8857 223.241 95.9164C223.379 95.9625 223.502 96.0471 223.609 96.17C223.548 96.2929 223.517 96.4236 223.517 96.5619C223.517 96.7463 223.563 96.9154 223.655 97.069C223.748 97.2381 223.809 97.4072 223.84 97.5762C223.548 97.6684 223.279 97.7683 223.033 97.8759C222.803 97.9988 222.572 98.1064 222.341 98.1986C222.111 98.3062 221.865 98.3984 221.604 98.4753C221.343 98.5675 221.043 98.6289 220.705 98.6597C220.49 98.5214 220.305 98.3984 220.151 98.2908C219.998 98.1833 219.79 98.1141 219.529 98.0834C219.129 97.5455 218.799 96.9384 218.538 96.2622C218.277 95.6014 218.069 94.9098 217.915 94.1875C217.777 93.4652 217.677 92.7429 217.616 92.0206C217.57 91.2829 217.547 90.5913 217.547 89.9458C217.547 89.2389 217.57 88.5396 217.616 87.8481C217.677 87.1411 217.754 86.4342 217.846 85.7272C217.877 85.5121 217.908 85.2969 217.938 85.0818C217.969 84.8512 218 84.6284 218.031 84.4132C218.061 84.3364 218.084 84.2519 218.1 84.1597C218.131 84.0521 218.146 83.9599 218.146 83.883C218.146 83.6218 218.138 83.3605 218.123 83.0992C218.107 82.838 218.1 82.5844 218.1 82.3385C218.1 81.9543 218.123 81.5624 218.169 81.1628C218.184 81.086 218.207 80.9861 218.238 80.8631C218.284 80.7402 218.307 80.6326 218.307 80.5404C218.307 80.4175 218.277 80.3329 218.215 80.2868C218.154 80.2407 218.1 80.1639 218.054 80.0563C218.1 79.9026 218.138 79.7566 218.169 79.6183C218.2 79.4646 218.215 79.3109 218.215 79.1573C218.215 78.8653 218.161 78.6117 218.054 78.3965C218.131 77.997 218.246 77.6051 218.399 77.2209C218.553 76.8366 218.822 76.5446 219.206 76.3449C219.514 76.3602 219.821 76.391 220.128 76.4371C220.451 76.4832 220.728 76.6138 220.958 76.829C221.066 76.7675 221.189 76.7291 221.327 76.7137L221.765 76.6676C221.919 76.6522 222.057 76.6292 222.18 76.5984C222.303 76.5523 222.411 76.4678 222.503 76.3449C222.81 76.2834 223.141 76.1989 223.494 76.0913C223.848 75.9683 224.155 75.83 224.416 75.6763H224.923C225.031 75.5995 225.154 75.5457 225.292 75.515L225.73 75.3997C225.884 75.3536 226.022 75.3075 226.145 75.2614C226.283 75.2153 226.391 75.1384 226.468 75.0309H226.56C226.914 75.0309 227.259 74.954 227.597 74.8003C227.936 74.6467 228.266 74.5083 228.589 74.3854C228.666 74.3547 228.781 74.3009 228.934 74.224C229.104 74.1472 229.219 74.1088 229.28 74.1088C229.495 74.078 229.711 74.0627 229.926 74.0627C230.141 74.0473 230.356 74.0166 230.571 73.9704C231.063 73.8936 231.547 73.8091 232.024 73.7169C232.515 73.6093 233.007 73.5555 233.499 73.5555C233.668 73.5555 233.822 73.5632 233.96 73.5786C234.114 73.5786 234.275 73.5862 234.444 73.6016C234.459 73.6631 234.498 73.7169 234.559 73.763C234.621 73.7937 234.675 73.8245 234.721 73.8552C234.782 73.8859 234.836 73.932 234.882 73.9935C234.928 74.0396 234.943 74.1088 234.928 74.201C234.959 74.2317 234.99 74.2471 235.02 74.2471C235.066 74.2471 235.105 74.224 235.136 74.1779C235.182 74.1318 235.243 74.1088 235.32 74.1088H235.435C235.635 74.3239 235.827 74.5314 236.012 74.7312C236.211 74.9156 236.457 75.0693 236.749 75.1922C236.872 75.6533 237.018 76.1066 237.187 76.5523C237.356 76.998 237.441 77.4744 237.441 77.9816C237.441 78.289 237.395 78.5886 237.303 78.8806C237.087 78.9882 236.934 79.1573 236.841 79.3878C236.749 79.6183 236.665 79.8412 236.588 80.0563C236.158 80.2715 235.796 80.5558 235.504 80.9093C235.212 81.2627 234.913 81.6162 234.605 81.9697H234.237C234.175 81.9697 234.129 81.9927 234.098 82.0388L233.891 82.2693C233.752 82.3923 233.599 82.5152 233.43 82.6382C233.276 82.7611 233.161 82.9225 233.084 83.1223C232.607 83.3836 232.146 83.6755 231.701 83.9983C231.27 84.321 230.856 84.6591 230.456 85.0126C230.287 85.1509 230.118 85.3123 229.949 85.4967C229.78 85.6657 229.611 85.8117 229.442 85.9347C229.349 86.0115 229.242 86.0807 229.119 86.1422C229.011 86.1883 228.911 86.2497 228.819 86.3266C228.619 86.4803 228.435 86.6416 228.266 86.8107C228.097 86.9644 227.92 87.1104 227.736 87.2487C228.427 87.2179 229.127 87.2026 229.834 87.2026C230.54 87.1872 231.24 87.1718 231.931 87.1565C232.285 87.1565 232.631 87.1488 232.969 87.1334C233.307 87.1027 233.653 87.0873 234.006 87.0873C234.067 87.0873 234.121 87.1027 234.167 87.1334C234.213 87.1488 234.267 87.1642 234.329 87.1795C234.59 87.2256 234.821 87.2794 235.02 87.3409C235.758 87.4792 236.496 87.6022 237.233 87.7097C237.971 87.8173 238.693 87.9941 239.4 88.2399C239.6 88.3168 239.746 88.4013 239.838 88.4935C239.946 88.5857 240.13 88.6088 240.392 88.5627C240.607 88.7778 240.837 88.9469 241.083 89.0698C241.344 89.1928 241.606 89.3004 241.867 89.3926C242.067 89.6999 242.251 89.9919 242.42 90.2686C242.605 90.5452 242.697 90.8756 242.697 91.2598ZM267.755 82.2924C267.755 83.1684 267.693 84.0213 267.57 84.8512C267.463 85.6657 267.302 86.4956 267.086 87.3409C266.887 87.4946 266.764 87.6867 266.718 87.9172C266.671 88.1477 266.595 88.3629 266.487 88.5627C266.395 88.7317 266.272 88.9161 266.118 89.1159C265.964 89.3004 265.795 89.5001 265.611 89.7153C265.427 89.9151 265.242 90.1226 265.058 90.3377C264.873 90.5529 264.72 90.768 264.597 90.9832C264.136 91.1369 263.805 91.4673 263.605 91.9744C263.36 92.0667 263.106 92.1742 262.845 92.2972C262.583 92.4048 262.399 92.5969 262.291 92.8735C261.723 93.1655 261.185 93.5036 260.678 93.8878C260.186 94.2566 259.648 94.5794 259.064 94.856C258.987 94.9329 258.895 94.9943 258.787 95.0404C258.695 95.0712 258.595 95.1096 258.488 95.1557C258.396 95.2018 258.303 95.2556 258.211 95.3171C258.134 95.3939 258.088 95.4861 258.073 95.5937C258.011 95.5937 257.965 95.5783 257.935 95.5476C257.919 95.5322 257.873 95.5168 257.796 95.5015C257.627 95.5937 257.55 95.7397 257.566 95.9395C257.504 95.9087 257.42 95.8934 257.312 95.8934C257.128 95.8934 256.943 95.9472 256.759 96.0547C256.59 96.1777 256.444 96.3006 256.321 96.4236C256.136 96.5158 255.921 96.608 255.675 96.7002C255.445 96.7924 255.276 96.9461 255.168 97.1613C255.107 97.0998 255.015 97.069 254.892 97.069C254.753 97.069 254.607 97.1075 254.454 97.1843C254.3 97.2765 254.185 97.3764 254.108 97.484C253.893 97.484 253.685 97.5147 253.485 97.5762C253.301 97.653 253.109 97.7222 252.909 97.7837C252.709 97.8605 252.509 97.9297 252.31 97.9911C252.125 98.0526 251.925 98.0834 251.71 98.0834C251.587 98.0834 251.495 98.0526 251.434 97.9911C251.372 97.9297 251.295 97.8759 251.203 97.8298C251.126 97.8913 250.988 97.9604 250.788 98.0373C250.604 98.1141 250.465 98.1525 250.373 98.1525C250.204 98.1525 250.035 98.1295 249.866 98.0834C249.712 98.0373 249.551 97.9835 249.382 97.922L248.898 97.7606C248.744 97.7145 248.575 97.6838 248.391 97.6684C248.252 97.5455 248.083 97.4148 247.884 97.2765C247.699 97.1536 247.515 97.1152 247.33 97.1613C247.254 96.9307 247.138 96.7309 246.985 96.5619C246.831 96.3928 246.654 96.2392 246.454 96.1008C246.408 96.0701 246.354 96.0394 246.293 96.0086C246.247 95.9933 246.208 95.9702 246.178 95.9395C246.101 95.8934 246.032 95.8012 245.97 95.6628C245.909 95.5245 245.84 95.4554 245.763 95.4554C245.747 95.4554 245.724 95.4631 245.694 95.4784C245.678 95.4938 245.663 95.5015 245.648 95.5015C245.617 95.3632 245.571 95.2325 245.509 95.1096C245.448 94.9713 245.34 94.8867 245.186 94.856C245.064 94.4564 244.979 94.0569 244.933 93.6573C244.887 93.2577 244.825 92.8581 244.748 92.4585C244.718 92.3356 244.679 92.1896 244.633 92.0206C244.602 91.8361 244.587 91.6748 244.587 91.5365C244.587 91.3059 244.618 91.0293 244.679 90.7066C244.756 90.3838 244.818 90.0995 244.864 89.8536C245.048 88.9623 245.294 88.1016 245.601 87.2717C245.909 86.4265 246.239 85.5889 246.593 84.759C246.962 83.9291 247.338 83.1069 247.722 82.2924C248.106 81.4779 248.468 80.648 248.806 79.8027C248.867 79.8027 248.906 79.7874 248.921 79.7566L248.99 79.6414C249.021 79.5953 249.044 79.5568 249.059 79.5261C249.09 79.4954 249.144 79.48 249.221 79.48V79.4108C249.205 79.3186 249.221 79.2418 249.267 79.1803C249.328 79.1188 249.344 79.0189 249.313 78.8806C249.559 78.604 249.766 78.2966 249.935 77.9585C250.104 77.6051 250.273 77.2593 250.442 76.9212C250.627 76.5831 250.819 76.2526 251.019 75.9299C251.219 75.6072 251.472 75.3305 251.779 75.1V74.9387C251.764 74.8618 251.764 74.785 251.779 74.7081C251.81 74.6159 251.864 74.5544 251.941 74.5237C252.217 74.2471 252.448 73.9704 252.632 73.6938C252.817 73.4172 253.001 73.1482 253.186 72.887C253.385 72.6104 253.601 72.3568 253.831 72.1263C254.077 71.8804 254.384 71.6575 254.753 71.4577C254.922 71.3809 255.045 71.2656 255.122 71.1119C255.199 70.9583 255.299 70.8507 255.422 70.7892C255.483 70.7585 255.545 70.7431 255.606 70.7431C255.683 70.7277 255.752 70.7047 255.814 70.6739C256.075 70.5971 256.336 70.5049 256.597 70.3973C256.859 70.2744 257.135 70.2129 257.427 70.2129C257.796 70.2129 258.073 70.3205 258.257 70.5356C258.457 70.7354 258.611 70.9813 258.718 71.2733C258.841 71.5653 258.941 71.8727 259.018 72.1954C259.095 72.5181 259.218 72.7948 259.387 73.0253C259.848 73.056 260.317 73.1098 260.793 73.1867C261.269 73.2481 261.684 73.4402 262.038 73.763C262.069 73.7783 262.107 73.786 262.153 73.786C262.23 73.786 262.268 73.7553 262.268 73.6938C262.268 73.6323 262.307 73.6016 262.384 73.6016H262.453C262.914 73.8782 263.352 74.1856 263.767 74.5237C264.197 74.8464 264.62 75.1845 265.035 75.538C265.112 75.5995 265.188 75.661 265.265 75.7224C265.357 75.7685 265.434 75.83 265.496 75.9069C265.573 75.9991 265.642 76.1066 265.703 76.2296C265.78 76.3525 265.849 76.4601 265.911 76.5523C266.679 77.8894 267.194 79.3263 267.455 80.8631C267.486 81.0322 267.509 81.1936 267.524 81.3472C267.555 81.5009 267.57 81.6469 267.57 81.7852C267.57 81.9236 267.601 82.0158 267.663 82.0619C267.724 82.0926 267.755 82.1695 267.755 82.2924ZM265.98 83.4681C265.98 82.8533 265.903 82.2617 265.749 81.693C265.826 81.6623 265.872 81.6162 265.888 81.5547C265.918 81.4779 265.934 81.401 265.934 81.3242V81.2089L265.657 80.7018C265.642 80.4866 265.596 80.2868 265.519 80.1024C265.457 79.918 265.38 79.7336 265.288 79.5492C265.196 79.3647 265.104 79.1803 265.012 78.9959C264.935 78.8115 264.881 78.6117 264.85 78.3965C264.604 78.2121 264.382 78.0046 264.182 77.7741C263.997 77.5282 263.828 77.2746 263.675 77.0134C263.567 76.9673 263.467 76.9365 263.375 76.9212C263.283 76.9058 263.252 76.8213 263.283 76.6676C263.006 76.5907 262.752 76.4832 262.522 76.3449C262.307 76.1912 262.092 76.0221 261.876 75.8377C261.523 75.7609 261.17 75.6687 260.816 75.5611C260.478 75.4381 260.132 75.3767 259.779 75.3767C259.533 75.3767 259.295 75.4228 259.064 75.515C259.141 75.6379 259.179 75.7762 259.179 75.9299C259.179 76.0682 259.195 76.2065 259.225 76.3449C259.717 76.4678 260.017 76.7675 260.124 77.2439C260.048 77.29 259.978 77.3515 259.917 77.4283C259.856 77.4898 259.794 77.5513 259.733 77.6127C259.686 77.6588 259.625 77.705 259.548 77.7511C259.471 77.7972 259.379 77.8202 259.272 77.8202C259.056 77.8202 258.887 77.7818 258.764 77.705C258.657 77.6281 258.48 77.6127 258.234 77.6588C257.973 77.4283 257.719 77.1901 257.473 76.9442C257.228 76.683 256.951 76.4524 256.644 76.2526C256.597 76.099 256.521 75.9606 256.413 75.8377C256.321 75.7148 256.221 75.5995 256.113 75.4919C256.021 75.369 255.929 75.246 255.837 75.1231C255.76 74.9848 255.721 74.8311 255.721 74.662C255.721 74.5544 255.729 74.4776 255.745 74.4315C255.652 74.4008 255.583 74.3854 255.537 74.3854C255.414 74.3854 255.299 74.4315 255.191 74.5237C255.084 74.6006 254.961 74.6543 254.822 74.6851C254.699 75.0539 254.523 75.3767 254.292 75.6533C254.062 75.9299 253.823 76.1989 253.578 76.4601C253.332 76.7214 253.101 76.998 252.886 77.29C252.686 77.5666 252.54 77.9124 252.448 78.3274C251.956 78.9421 251.503 79.6414 251.088 80.4251C250.673 81.1936 250.358 81.9466 250.143 82.6843C249.789 83.0839 249.513 83.5065 249.313 83.9522C249.113 84.3979 248.998 84.8896 248.967 85.4275C248.89 85.4736 248.829 85.5351 248.783 85.612L248.552 86.073C248.521 86.1499 248.468 86.2113 248.391 86.2574V86.3727C248.391 86.4956 248.368 86.6109 248.322 86.7185C248.276 86.8107 248.222 86.9029 248.16 86.9951C248.114 87.0873 248.068 87.1795 248.022 87.2717C247.976 87.3486 247.953 87.4408 247.953 87.5484C247.953 87.6713 247.984 87.7943 248.045 87.9172C247.876 87.9479 247.761 88.0402 247.699 88.1938C247.653 88.3322 247.584 88.4551 247.492 88.5627C247.43 89.0545 247.369 89.5539 247.307 90.0611C247.246 90.5682 247.215 91.0677 247.215 91.5595C247.215 92.1281 247.277 92.7044 247.4 93.2884C247.538 93.4268 247.661 93.5804 247.768 93.7495C247.876 93.9185 247.984 94.0799 248.091 94.2336C248.214 94.3873 248.345 94.5256 248.483 94.6485C248.621 94.7561 248.806 94.8253 249.036 94.856C249.036 94.9636 249.059 95.0404 249.105 95.0865C249.152 95.1326 249.19 95.1941 249.221 95.271C249.543 95.3785 249.881 95.4631 250.235 95.5245C250.588 95.6014 250.942 95.6398 251.295 95.6398C251.541 95.6398 251.787 95.6091 252.033 95.5476C252.294 95.4861 252.509 95.3632 252.679 95.1787C253.462 95.148 254.238 94.9636 255.007 94.6255C255.791 94.2874 256.505 93.9185 257.151 93.519H257.635C257.804 93.2884 258.011 93.104 258.257 92.9657C258.503 92.812 258.757 92.6737 259.018 92.5508C259.064 92.52 259.126 92.4893 259.202 92.4585C259.279 92.4278 259.341 92.3971 259.387 92.3663C259.556 92.2434 259.725 92.1051 259.894 91.9514C260.078 91.7977 260.263 91.6517 260.447 91.5134C260.755 91.2829 261.07 91.06 261.392 90.8449C261.715 90.6297 262.022 90.3992 262.314 90.1533C262.622 89.9074 262.906 89.6461 263.167 89.3695C263.444 89.0775 263.675 88.7548 263.859 88.4013C263.951 88.4013 264.02 88.3783 264.066 88.3322C264.128 88.2707 264.174 88.2092 264.205 88.1477C264.251 88.0863 264.297 88.0325 264.343 87.9864C264.405 87.9403 264.489 87.9172 264.597 87.9172C264.597 87.7789 264.62 87.6636 264.666 87.5714C264.727 87.4638 264.789 87.3716 264.85 87.2948C264.927 87.2026 264.996 87.1181 265.058 87.0412C265.135 86.9644 265.204 86.8645 265.265 86.7415V86.0961C265.511 85.6965 265.688 85.2739 265.795 84.8282C265.918 84.3825 265.98 83.9291 265.98 83.4681ZM288.594 97.922C288.594 98.1064 288.541 98.2601 288.433 98.383C288.325 98.5214 288.195 98.6289 288.041 98.7058C287.887 98.798 287.726 98.8748 287.557 98.9363C287.388 99.0131 287.242 99.09 287.119 99.1668C286.765 99.09 286.397 99.0208 286.012 98.9594C285.628 98.9132 285.282 98.8134 284.975 98.6597C284.345 97.9681 283.899 97.1689 283.638 96.2622C283.392 95.3708 283.231 94.4795 283.154 93.5881C283.123 93.3269 283.108 93.0733 283.108 92.8274C283.108 92.5661 283.092 92.3049 283.062 92.0436C283.031 91.8131 282.893 91.6748 282.647 91.6287C282.831 91.5979 282.962 91.5057 283.039 91.352C283.116 91.183 283.162 90.9986 283.177 90.7988C283.192 90.5836 283.192 90.3761 283.177 90.1764C283.177 89.9612 283.192 89.7845 283.223 89.6461C283.1 89.6923 282.993 89.7998 282.9 89.9689C282.808 90.1226 282.724 90.2993 282.647 90.4991C282.57 90.6989 282.493 90.8987 282.416 91.0985C282.355 91.2829 282.293 91.4289 282.232 91.5365C281.586 92.643 280.833 93.6496 279.973 94.5563C279.127 95.4631 278.251 96.3621 277.345 97.2535C277.083 97.3457 276.838 97.4609 276.607 97.5993C276.377 97.7529 276.161 97.9143 275.962 98.0834C275.378 98.2524 274.824 98.3369 274.302 98.3369C273.825 98.3369 273.357 98.2678 272.896 98.1295C272.435 98.0065 272.02 97.7914 271.651 97.484L270.798 95.5476C270.752 95.4246 270.698 95.3017 270.636 95.1787C270.575 95.0404 270.529 94.9098 270.498 94.7869C270.467 94.6485 270.452 94.5025 270.452 94.3489C270.467 94.1798 270.475 94.0338 270.475 93.9109C270.475 93.373 270.49 92.8351 270.521 92.2972C270.567 91.7439 270.629 91.1983 270.706 90.6605C270.736 90.4453 270.782 90.2225 270.844 89.9919C270.905 89.7614 270.951 89.5386 270.982 89.3234V89.0698C270.982 88.993 270.975 88.9008 270.959 88.7932C270.944 88.6703 270.898 88.5934 270.821 88.5627C271.19 87.6713 271.374 86.7415 271.374 85.7733C271.374 85.6196 271.366 85.4736 271.351 85.3353C271.351 85.1816 271.343 85.028 271.328 84.8743C271.436 84.7667 271.505 84.6438 271.535 84.5054C271.566 84.3518 271.582 84.1981 271.582 84.0444C271.582 83.8753 271.582 83.714 271.582 83.5603C271.597 83.4066 271.643 83.2606 271.72 83.1223C271.705 82.9532 271.689 82.7919 271.674 82.6382C271.674 82.4691 271.674 82.3001 271.674 82.131C271.674 81.1014 271.751 80.087 271.904 79.0881C272.073 78.0738 272.158 77.0518 272.158 76.0221V75.0539C272.158 74.8388 272.158 74.6159 272.158 74.3854C272.173 74.1549 272.204 73.932 272.25 73.7169C272.312 73.5017 272.396 73.3019 272.504 73.1175C272.611 72.9177 272.765 72.7487 272.965 72.6104C272.995 72.6104 273.019 72.6104 273.034 72.6104C273.065 72.595 273.095 72.5873 273.126 72.5873C273.264 72.5873 273.372 72.6257 273.449 72.7026C273.526 72.764 273.641 72.7871 273.795 72.7717C274.071 73.1713 274.286 73.5939 274.44 74.0396C274.609 74.4853 274.694 74.954 274.694 75.4458C274.694 75.8146 274.64 76.1758 274.532 76.5293C274.425 76.8827 274.371 77.2516 274.371 77.6358C274.371 77.7895 274.379 77.9432 274.394 78.0968C274.409 78.2505 274.417 78.4042 274.417 78.5579C274.417 78.7116 274.394 78.8653 274.348 79.0189C274.317 79.1573 274.248 79.2802 274.14 79.3878C274.171 79.6952 274.194 80.0102 274.21 80.3329C274.225 80.6403 274.233 80.9477 274.233 81.255C274.233 82.131 274.179 83.007 274.071 83.883C273.964 84.759 273.841 85.635 273.702 86.511C273.564 87.387 273.441 88.263 273.334 89.139C273.226 90.015 273.172 90.8987 273.172 91.79V92.4585C273.172 92.6737 273.188 92.8965 273.218 93.1271C273.126 93.3422 273.08 93.5728 273.08 93.8186C273.08 94.1568 273.157 94.4872 273.311 94.8099C273.464 95.1326 273.649 95.4246 273.864 95.6859C273.941 95.7013 274.01 95.709 274.071 95.709C274.148 95.7243 274.225 95.732 274.302 95.732C274.701 95.732 275.055 95.6475 275.362 95.4784C275.685 95.3094 275.985 95.1019 276.261 94.856C276.553 94.6101 276.838 94.3565 277.114 94.0953C277.391 93.834 277.69 93.6189 278.013 93.4498C278.505 92.8197 278.966 92.1896 279.396 91.5595C279.827 90.914 280.242 90.2455 280.641 89.5539C280.672 89.1851 280.764 88.8163 280.918 88.4474C281.087 88.0632 281.256 87.6867 281.425 87.3178C281.609 86.949 281.771 86.5878 281.909 86.2344C282.063 85.8809 282.14 85.5428 282.14 85.2201C282.14 85.051 282.086 84.9358 281.978 84.8743C282.132 84.4747 282.247 84.0598 282.324 83.6294C282.401 83.1991 282.462 82.7688 282.508 82.3385C282.57 81.9082 282.631 81.4856 282.693 81.0706C282.754 80.6403 282.847 80.2177 282.97 79.8027C282.97 79.7105 282.962 79.6183 282.946 79.5261C282.946 79.4339 282.946 79.3417 282.946 79.2495C282.946 78.5425 283.016 77.851 283.154 77.1747C283.292 76.4832 283.361 75.7839 283.361 75.077C283.361 74.9079 283.346 74.7542 283.315 74.6159C283.3 74.4622 283.292 74.3162 283.292 74.1779C283.292 74.055 283.331 73.9781 283.408 73.9474C283.5 73.9167 283.546 73.8321 283.546 73.6938C283.546 73.5709 283.53 73.4402 283.5 73.3019C283.484 73.1636 283.477 73.0176 283.477 72.8639C283.477 72.3875 283.523 71.9188 283.615 71.4577C283.707 70.9967 283.753 70.5279 283.753 70.0515V69.7749C283.753 69.6673 283.738 69.5674 283.707 69.4752C283.815 69.3062 283.961 69.1986 284.145 69.1525C284.33 69.091 284.506 69.0603 284.675 69.0603C284.952 69.0603 285.183 69.091 285.367 69.1525C285.659 69.9363 285.905 70.7431 286.105 71.573C286.304 72.3875 286.466 73.2174 286.589 74.0627C286.619 74.2624 286.658 74.4776 286.704 74.7081C286.765 74.9233 286.796 75.1384 286.796 75.3536C286.796 75.3997 286.781 75.4535 286.75 75.515C286.735 75.5764 286.719 75.6379 286.704 75.6994C286.689 75.8223 286.673 75.9453 286.658 76.0682C286.658 76.1912 286.658 76.3141 286.658 76.4371C286.658 76.8059 286.681 77.1747 286.727 77.5436C286.773 77.9124 286.796 78.289 286.796 78.6732C286.796 79.1035 286.735 79.5184 286.612 79.918C286.504 80.3022 286.42 80.7095 286.358 81.1398C286.297 81.5855 286.274 82.0235 286.289 82.4538C286.304 82.8841 286.274 83.3221 286.197 83.7678C286.166 83.9522 286.12 84.1366 286.059 84.321C285.997 84.4901 285.966 84.6745 285.966 84.8743C285.966 85.0126 285.974 85.1509 285.989 85.2892C286.02 85.4275 286.035 85.5735 286.035 85.7272C286.035 85.9577 285.982 86.1345 285.874 86.2574C285.905 86.3804 285.928 86.4956 285.943 86.6032C285.959 86.6954 285.989 86.803 286.035 86.926C285.959 87.0182 285.905 87.1181 285.874 87.2256C285.843 87.3332 285.828 87.4485 285.828 87.5714C285.828 87.7251 285.836 87.8711 285.851 88.0094C285.866 88.1324 285.874 88.263 285.874 88.4013C285.874 88.724 285.82 89.0314 285.713 89.3234C285.621 89.6154 285.559 89.9151 285.528 90.2225C285.513 90.4376 285.505 90.6528 285.505 90.8679C285.521 91.0677 285.528 91.2752 285.528 91.4903C285.528 91.7209 285.513 91.9437 285.482 92.1589C285.467 92.374 285.405 92.5892 285.298 92.8043C285.329 92.8965 285.367 92.9888 285.413 93.081C285.459 93.1732 285.528 93.2423 285.621 93.2884C285.621 93.7649 285.682 94.249 285.805 94.7407C285.943 95.2172 286.128 95.6705 286.358 96.1008C286.404 96.1931 286.473 96.2622 286.566 96.3083C286.658 96.3544 286.742 96.4005 286.819 96.4466C286.896 96.5081 286.958 96.5773 287.004 96.6541C287.05 96.7309 287.057 96.8462 287.027 96.9999C287.057 97.0153 287.104 97.0229 287.165 97.0229C287.288 97.0229 287.388 96.9922 287.465 96.9307C287.557 96.8693 287.665 96.8385 287.787 96.8385H287.949C288.087 96.9768 288.225 97.1382 288.364 97.3226C288.517 97.507 288.594 97.7068 288.594 97.922ZM312.039 73.2097C311.916 73.2866 311.785 73.3327 311.647 73.348C311.508 73.3634 311.362 73.3865 311.209 73.4172C311.07 73.4326 310.94 73.4633 310.817 73.5094C310.694 73.5555 310.602 73.64 310.54 73.763C310.387 73.6093 310.218 73.4787 310.033 73.3711C309.849 73.2635 309.664 73.1482 309.48 73.0253C309.326 73.0714 309.173 73.1329 309.019 73.2097C308.865 73.2866 308.711 73.325 308.558 73.325C308.45 73.325 308.343 73.2866 308.235 73.2097C308.112 73.3019 307.966 73.3788 307.797 73.4402C307.643 73.4863 307.474 73.5325 307.29 73.5786C307.121 73.6247 306.959 73.6861 306.806 73.763C306.667 73.8398 306.568 73.9551 306.506 74.1088C306.475 74.0319 306.399 74.0089 306.276 74.0396C306.168 74.0703 306.107 74.0319 306.091 73.9243C305.599 74.0934 305.1 74.2394 304.593 74.3623C304.086 74.4853 303.578 74.6159 303.071 74.7542C302.564 74.8925 302.065 75.0462 301.573 75.2153C301.081 75.3843 300.605 75.5918 300.144 75.8377C300.128 75.8531 300.121 75.8761 300.121 75.9069C300.121 76.0605 300.144 76.2065 300.19 76.3449C300.236 76.4832 300.274 76.6138 300.305 76.7367C300.028 77.6742 299.844 78.6271 299.752 79.5953C299.66 80.5635 299.537 81.5163 299.383 82.4538V82.546C299.383 82.6228 299.414 82.6843 299.475 82.7304C299.537 82.7611 299.567 82.8226 299.567 82.9148L299.544 82.9609C299.467 83.007 299.414 83.0762 299.383 83.1684C299.352 83.2452 299.337 83.3298 299.337 83.422C299.337 83.4834 299.352 83.5757 299.383 83.6986C299.122 84.5746 298.945 85.466 298.853 86.3727C298.776 87.2794 298.676 88.1862 298.553 89.0929L298.346 90.6144C298.315 90.7066 298.284 90.7988 298.253 90.891C298.238 90.9678 298.23 91.0523 298.23 91.1446C298.23 91.6363 298.261 92.1204 298.322 92.5969C298.399 93.0579 298.422 93.5343 298.392 94.0261C298.53 94.2413 298.599 94.4487 298.599 94.6485C298.599 94.7254 298.591 94.8022 298.576 94.8791C298.576 94.9559 298.568 95.0327 298.553 95.1096C298.753 95.3094 298.983 95.4477 299.245 95.5245C299.521 95.6167 299.767 95.7551 299.982 95.9395V96.0317C299.982 96.1854 299.959 96.3314 299.913 96.4697C299.867 96.6234 299.829 96.7771 299.798 96.9307C299.767 97.0537 299.729 97.2304 299.683 97.4609C299.652 97.6915 299.606 97.8451 299.544 97.922C299.467 98.0296 299.352 98.1218 299.198 98.1986C299.06 98.2908 298.922 98.3369 298.784 98.3369C298.737 98.3369 298.668 98.3139 298.576 98.2678C298.499 98.2217 298.438 98.1833 298.392 98.1525C298.315 98.1525 298.215 98.1909 298.092 98.2678C297.969 98.3446 297.846 98.383 297.723 98.383C297.662 98.383 297.608 98.3754 297.562 98.36C297.516 98.36 297.462 98.3446 297.4 98.3139C297.339 98.1602 297.247 98.0219 297.124 97.8989C297.016 97.7914 296.886 97.6838 296.732 97.5762C296.747 97.361 296.709 97.1997 296.617 97.0921C296.524 96.9845 296.432 96.8462 296.34 96.6772C296.309 96.462 296.278 96.2161 296.248 95.9395C296.232 95.6628 296.117 95.4631 295.902 95.3401C295.979 95.2325 296.017 95.0865 296.017 94.9021C296.017 94.8253 296.002 94.7407 295.971 94.6485C295.956 94.5563 295.91 94.4872 295.833 94.4411V94.395C295.817 94.3181 295.84 94.2643 295.902 94.2336C295.979 94.1875 296.017 94.126 296.017 94.0492V93.957C295.91 93.4652 295.856 92.9503 295.856 92.4124C295.856 91.9053 295.871 91.4058 295.902 90.914C295.933 90.4069 295.933 89.8997 295.902 89.3926C295.994 89.3157 296.063 89.1928 296.109 89.0237C296.171 88.8547 296.217 88.6703 296.248 88.4705C296.278 88.2707 296.294 88.0786 296.294 87.8942C296.309 87.6944 296.325 87.533 296.34 87.4101C296.417 86.5341 296.54 85.6734 296.709 84.8282C296.878 83.9675 296.978 83.0916 297.008 82.2002C297.085 82.0772 297.131 81.9159 297.147 81.7161C297.162 81.5163 297.17 81.3088 297.17 81.0937C297.17 80.8631 297.185 80.6403 297.216 80.4251C297.247 80.21 297.308 80.0256 297.4 79.8719C297.4 79.4416 297.439 79.0113 297.516 78.5809C297.592 78.1353 297.631 77.6896 297.631 77.2439C297.631 77.0287 297.608 76.8059 297.562 76.5754C297.408 76.5139 297.27 76.4832 297.147 76.4832C296.978 76.4832 296.801 76.5216 296.617 76.5984C296.448 76.6599 296.325 76.7598 296.248 76.8981C295.91 76.9135 295.579 76.9673 295.256 77.0595C294.934 77.1517 294.611 77.1978 294.288 77.1978H294.058C293.996 77.1978 293.927 77.1901 293.85 77.1747C293.743 77.2209 293.627 77.2593 293.504 77.29C293.397 77.3207 293.351 77.413 293.366 77.5666C292.89 77.6127 292.421 77.7126 291.96 77.8663C291.514 78.02 291.069 78.1891 290.623 78.3735C290.177 78.5425 289.732 78.7039 289.286 78.8576C288.825 79.0113 288.356 79.1112 287.88 79.1573C287.711 79.2341 287.603 79.3955 287.557 79.6414C287.219 79.6106 286.935 79.5261 286.704 79.3878C286.473 79.2495 286.205 79.1188 285.897 78.9959C285.805 78.6732 285.759 78.3658 285.759 78.0738C285.759 77.6896 285.836 77.3207 285.989 76.9673C286.143 76.6138 286.389 76.3525 286.727 76.1835C286.804 76.1989 286.873 76.2142 286.935 76.2296C286.996 76.2296 287.065 76.2296 287.142 76.2296C287.388 76.2296 287.634 76.1835 287.88 76.0913C288.126 75.9991 288.379 75.953 288.64 75.953C288.717 75.953 288.802 75.976 288.894 76.0221C289.002 75.9606 289.14 75.9145 289.309 75.8838C289.463 75.8377 289.609 75.7993 289.747 75.7685C289.901 75.7224 290.039 75.661 290.162 75.5841C290.285 75.5073 290.362 75.3997 290.392 75.2614C290.469 75.3229 290.554 75.3613 290.646 75.3767C290.738 75.392 290.83 75.3997 290.923 75.3997C291.122 75.3997 291.33 75.3613 291.545 75.2844C291.76 75.2076 291.929 75.0847 292.052 74.9156C292.16 75.0385 292.313 75.1 292.513 75.1C292.728 75.1 292.936 75.0462 293.136 74.9387C293.351 74.8157 293.558 74.7542 293.758 74.7542C293.912 74.7542 294.027 74.808 294.104 74.9156C294.273 74.7773 294.473 74.6697 294.703 74.5929C294.934 74.516 295.164 74.4469 295.395 74.3854C295.641 74.3239 295.864 74.2548 296.063 74.1779C296.278 74.1011 296.448 73.9935 296.57 73.8552C296.647 73.8706 296.77 73.8782 296.939 73.8782C297.201 73.8782 297.446 73.8475 297.677 73.786C297.923 73.7092 298.169 73.64 298.415 73.5786L298.899 73.5325C299.022 73.5171 299.129 73.4787 299.222 73.4172C299.329 73.3557 299.437 73.3019 299.544 73.2558C299.652 73.2097 299.759 73.1713 299.867 73.1406C299.99 73.1098 300.136 73.1021 300.305 73.1175C300.674 72.9177 301.066 72.764 301.481 72.6565C301.896 72.5489 302.318 72.4567 302.749 72.3798C303.179 72.2876 303.601 72.1877 304.016 72.0801C304.431 71.9572 304.823 71.7805 305.192 71.5499H305.261C305.569 71.5499 305.868 71.4961 306.16 71.3886C306.468 71.281 306.752 71.135 307.013 70.9506C307.059 70.9659 307.105 70.9736 307.152 70.9736H307.313C307.743 70.9736 308.158 70.9122 308.558 70.7892C308.973 70.6663 309.403 70.6048 309.849 70.6048C310.11 70.6048 310.317 70.6432 310.471 70.72C310.625 70.7815 310.763 70.866 310.886 70.9736C311.009 71.0658 311.14 71.158 311.278 71.2503C311.416 71.3425 311.593 71.4116 311.808 71.4577C311.946 71.719 312.016 72.0033 312.016 72.3107C312.016 72.6027 312.023 72.9024 312.039 73.2097ZM333.224 100.665C333.178 100.926 333.07 101.111 332.901 101.218C332.748 101.341 332.602 101.51 332.463 101.726H332.371C332.217 101.726 332.064 101.741 331.91 101.772C331.772 101.802 331.626 101.841 331.472 101.887C331.395 101.856 331.303 101.833 331.195 101.818C331.088 101.802 331.019 101.749 330.988 101.656C330.865 101.718 330.696 101.749 330.481 101.749C330.127 101.749 329.789 101.649 329.466 101.449C329.159 101.249 328.836 101.096 328.498 100.988C328.406 100.804 328.291 100.635 328.152 100.481C328.029 100.343 327.899 100.204 327.761 100.066C327.638 99.9276 327.515 99.7816 327.392 99.6279C327.269 99.4742 327.169 99.2898 327.092 99.0746C327.061 98.9824 327.023 98.9286 326.977 98.9132C326.931 98.8979 326.861 98.8979 326.769 98.9132C326.785 98.7442 326.762 98.5982 326.7 98.4753C326.654 98.3523 326.539 98.2755 326.354 98.2447C326.354 98.0449 326.324 97.8759 326.262 97.7376C326.201 97.5993 326.124 97.4763 326.032 97.3687C325.955 97.2765 325.863 97.1766 325.755 97.069C325.663 96.9615 325.586 96.8308 325.524 96.6772C325.386 96.6464 325.248 96.6234 325.109 96.608C324.987 96.608 324.848 96.608 324.695 96.608C323.957 96.608 323.242 96.7463 322.551 97.0229C322.474 97.0537 322.389 97.0921 322.297 97.1382C322.22 97.1843 322.143 97.2227 322.067 97.2535C322.036 97.2535 322.005 97.2535 321.974 97.2535C321.959 97.2688 321.936 97.2765 321.905 97.2765C321.798 97.2765 321.698 97.2535 321.605 97.2074C321.513 97.1766 321.413 97.1613 321.306 97.1613C321.26 97.1613 321.206 97.1689 321.144 97.1843C321.098 97.215 321.052 97.2381 321.006 97.2535C320.776 97.3303 320.56 97.3764 320.361 97.3918C319.731 97.5147 319.062 97.6069 318.355 97.6684C317.664 97.7299 317.026 97.8913 316.442 98.1525C316.319 98.214 316.242 98.3062 316.211 98.4291C316.18 98.5675 316.173 98.6981 316.188 98.821C316.019 98.944 315.888 99.1054 315.796 99.3051C315.719 99.5049 315.643 99.7124 315.566 99.9276C315.504 100.158 315.435 100.381 315.358 100.596C315.281 100.811 315.174 100.996 315.036 101.149C315.082 101.242 315.105 101.341 315.105 101.449C315.105 101.68 315.028 101.91 314.874 102.141C314.72 102.371 314.605 102.594 314.528 102.809C314.452 103.024 314.39 103.232 314.344 103.432C314.298 103.647 314.229 103.839 314.136 104.008C314.044 104.177 313.921 104.315 313.768 104.423C313.599 104.53 313.368 104.584 313.076 104.584C312.799 104.584 312.561 104.53 312.361 104.423C312.162 104.315 312 104.177 311.877 104.008C311.754 103.839 311.654 103.639 311.578 103.408C311.501 103.178 311.439 102.947 311.393 102.717C311.562 102.379 311.724 102.087 311.877 101.841C312.031 101.595 312.146 101.28 312.223 100.896C312.5 100.696 312.707 100.45 312.846 100.158C312.968 99.8815 313.038 99.5741 313.053 99.236C313.222 99.1284 313.345 98.9824 313.422 98.798C313.483 98.6289 313.522 98.4445 313.537 98.2447C313.168 98.214 312.784 98.1833 312.384 98.1525C311.97 98.1218 311.585 98.0449 311.232 97.922C311.232 97.8913 311.24 97.8605 311.255 97.8298C311.255 97.799 311.255 97.7683 311.255 97.7376C311.255 97.5378 311.209 97.3534 311.117 97.1843C311.024 97.0306 310.978 96.8616 310.978 96.6772V96.4927C311.101 96.3698 311.216 96.2392 311.324 96.1008C311.416 95.9779 311.516 95.8626 311.624 95.7551C311.731 95.6475 311.854 95.5553 311.993 95.4784C312.131 95.417 312.308 95.3862 312.523 95.3862C312.815 95.3862 313.099 95.4016 313.376 95.4323C313.652 95.4784 313.937 95.5015 314.229 95.5015C314.428 95.5015 314.636 95.4784 314.851 95.4323C315.189 94.7407 315.489 94.0415 315.75 93.3345C316.011 92.6122 316.211 91.8822 316.35 91.1446C316.457 90.9909 316.557 90.8141 316.649 90.6144C316.741 90.3992 316.811 90.1764 316.857 89.9458C316.918 89.7153 316.957 89.4925 316.972 89.2773C317.003 89.0468 317.018 88.8393 317.018 88.6549C317.187 88.4551 317.302 88.2092 317.364 87.9172C317.441 87.6252 317.502 87.3255 317.548 87.0182C317.594 86.6954 317.64 86.3804 317.687 86.073C317.748 85.7656 317.856 85.4967 318.009 85.2662V85.0587C318.025 84.8282 318.002 84.6207 317.94 84.4363C318.017 84.4055 318.063 84.3364 318.078 84.2288C318.094 84.1212 318.125 84.029 318.171 83.9522C318.186 83.2452 318.263 82.5537 318.401 81.8775C318.54 81.1859 318.655 80.4943 318.747 79.8027V79.7336C318.747 79.6567 318.716 79.6183 318.655 79.6183C318.609 79.6029 318.586 79.5568 318.586 79.48C318.586 79.3417 318.601 79.1573 318.632 78.9267C318.678 78.6962 318.709 78.5041 318.724 78.3504C318.816 77.5205 318.862 76.6983 318.862 75.8838C318.862 75.1922 318.839 74.5083 318.793 73.8321C318.747 73.1559 318.701 72.472 318.655 71.7805L318.839 71.5038C318.901 71.4116 318.954 71.3194 319.001 71.2272C319.154 71.1657 319.277 71.1043 319.369 71.0428C319.477 70.9659 319.615 70.9275 319.784 70.9275C319.83 70.9275 319.869 70.9352 319.9 70.9506C319.93 70.9506 319.961 70.9506 319.992 70.9506C320.084 71.012 320.153 71.0966 320.199 71.2042C320.261 71.3117 320.315 71.4116 320.361 71.5038C320.422 71.596 320.499 71.6729 320.591 71.7344C320.683 71.7958 320.814 71.8112 320.983 71.7805C321.06 72.2108 321.275 72.4336 321.629 72.449C321.705 72.6641 321.798 72.8793 321.905 73.0945C322.028 73.3096 322.189 73.4787 322.389 73.6016C322.374 73.6631 322.366 73.7476 322.366 73.8552C322.366 74.0703 322.412 74.2778 322.505 74.4776C322.612 74.6774 322.743 74.8618 322.896 75.0309V75.077C322.896 75.246 322.835 75.3613 322.712 75.4228C322.85 75.5764 322.95 75.7609 323.012 75.976C323.073 76.1912 323.127 76.414 323.173 76.6445C323.219 76.8597 323.273 77.0672 323.334 77.267C323.411 77.4667 323.534 77.6204 323.703 77.728V77.7972C323.703 77.874 323.673 77.9201 323.611 77.9355C323.565 77.9508 323.542 77.997 323.542 78.0738C323.819 78.5809 324.011 79.1342 324.118 79.7336C324.226 80.3329 324.364 80.9093 324.533 81.4625C324.595 81.524 324.664 81.5624 324.741 81.5778C324.833 81.5931 324.902 81.6316 324.948 81.693C324.856 81.7545 324.81 81.8621 324.81 82.0158C324.81 82.1695 324.771 82.2847 324.695 82.3616C324.817 82.4691 324.871 82.6305 324.856 82.8457C324.856 83.0454 324.917 83.1914 325.04 83.2837V83.3759C325.04 83.4373 325.025 83.4911 324.994 83.5372C324.963 83.568 324.948 83.6141 324.948 83.6755V83.7678C325.071 84.3057 325.163 84.8435 325.225 85.3814C325.302 85.9193 325.378 86.4572 325.455 86.9951C325.532 87.533 325.617 88.0709 325.709 88.6088C325.801 89.1313 325.932 89.6461 326.101 90.1533C326.116 90.1687 326.124 90.1917 326.124 90.2225C326.124 90.2993 326.093 90.3454 326.032 90.3608C325.97 90.3608 325.939 90.3992 325.939 90.476C325.939 90.5529 325.962 90.6451 326.009 90.7527C326.07 90.8449 326.131 90.9217 326.193 90.9832C326.178 91.0447 326.17 91.1369 326.17 91.2598C326.17 91.4903 326.208 91.7132 326.285 91.9283C326.377 92.1435 326.47 92.3587 326.562 92.5738C326.669 92.7736 326.762 92.9888 326.838 93.2193C326.915 93.4498 326.946 93.6957 326.931 93.957C327.023 94.0953 327.138 94.2105 327.276 94.3027C327.43 94.395 327.584 94.4795 327.737 94.5563C327.891 94.6332 328.029 94.7254 328.152 94.833C328.291 94.9405 328.383 95.0865 328.429 95.271C328.306 95.3785 328.222 95.5092 328.175 95.6628C328.129 95.8319 328.045 95.9779 327.922 96.1008C328.029 96.3621 328.152 96.6003 328.291 96.8155C328.444 97.046 328.598 97.2688 328.752 97.484L329.236 98.1295C329.405 98.3446 329.551 98.5751 329.674 98.821C329.843 98.821 329.966 98.8671 330.043 98.9594C330.12 99.0516 330.242 99.09 330.412 99.0746C330.473 99.1976 330.496 99.3359 330.481 99.4896C330.788 99.382 331.095 99.3282 331.403 99.3282C331.572 99.3282 331.726 99.3359 331.864 99.3512C332.018 99.3666 332.171 99.3743 332.325 99.3743C332.509 99.3743 332.671 99.3512 332.809 99.3051C332.87 99.3974 332.917 99.4972 332.947 99.6048C332.978 99.7278 333.001 99.8507 333.016 99.9737L333.086 100.343C333.116 100.465 333.162 100.573 333.224 100.665ZM324.533 94.2797C324.318 93.2193 324.095 92.1666 323.865 91.1215C323.649 90.0611 323.457 88.993 323.288 87.9172C323.196 87.3486 323.127 86.78 323.081 86.2113C323.035 85.6427 322.973 85.0818 322.896 84.5285C322.835 83.9599 322.743 83.3989 322.62 82.8457C322.512 82.2924 322.351 81.7468 322.136 81.2089V81.1628C322.136 81.1167 322.151 81.0783 322.182 81.0476C322.213 81.0168 322.228 80.963 322.228 80.8862V80.794C322.028 80.6557 321.89 80.4636 321.813 80.2177C321.736 79.9564 321.667 79.6875 321.605 79.4108C321.559 79.1188 321.49 78.8422 321.398 78.5809C321.321 78.3043 321.183 78.0738 320.983 77.8894C320.906 78.7807 320.822 79.6721 320.729 80.5635C320.653 81.4395 320.599 82.3231 320.568 83.2145C320.414 83.3067 320.315 83.4604 320.268 83.6755C320.222 83.8907 320.199 84.0828 320.199 84.2519C320.199 84.3748 320.207 84.5054 320.222 84.6438C320.238 84.7667 320.268 84.8973 320.315 85.0356C320.038 85.7272 319.838 86.4418 319.715 87.1795C319.592 87.9018 319.454 88.6242 319.3 89.3465C319.285 89.3926 319.254 89.5001 319.208 89.6692C319.177 89.8229 319.139 89.9842 319.093 90.1533C319.047 90.3224 319.008 90.476 318.978 90.6144C318.947 90.7373 318.931 90.8065 318.931 90.8218C318.916 90.9294 318.908 91.037 318.908 91.1446C318.924 91.2521 318.931 91.3597 318.931 91.4673L318.586 91.8131C318.524 92.3971 318.409 92.9657 318.24 93.519C318.086 94.0569 317.925 94.6101 317.756 95.1787C317.863 95.1941 317.963 95.2018 318.055 95.2018C318.163 95.2172 318.271 95.2248 318.378 95.2248C318.87 95.2248 319.362 95.1941 319.853 95.1326C320.361 95.0558 320.86 94.9866 321.352 94.9252C321.521 94.8944 321.698 94.8714 321.882 94.856C322.067 94.8253 322.243 94.8099 322.412 94.8099C322.489 94.7945 322.581 94.7945 322.689 94.8099C322.797 94.8099 322.889 94.8022 322.966 94.7869C323.089 94.7561 323.165 94.71 323.196 94.6485C323.242 94.5717 323.327 94.5256 323.45 94.5102C323.542 94.5563 323.649 94.5794 323.772 94.5794C323.911 94.5794 324.041 94.5486 324.164 94.4872C324.287 94.4257 324.41 94.3565 324.533 94.2797ZM354.363 93.8648C354.363 93.9877 354.317 94.0722 354.225 94.1183C354.148 94.1644 354.133 94.272 354.179 94.4411C354.056 94.4564 353.948 94.5179 353.856 94.6255C353.764 94.7331 353.656 94.7869 353.533 94.7869C353.456 94.7869 353.395 94.7484 353.349 94.6716C353.318 94.7792 353.257 94.856 353.164 94.9021C353.088 94.9482 353.003 94.9866 352.911 95.0174C352.819 95.0481 352.726 95.0865 352.634 95.1326C352.542 95.1787 352.48 95.2479 352.45 95.3401H352.334C352.15 95.3401 352.004 95.417 351.896 95.5706C351.804 95.7243 351.689 95.8012 351.551 95.8012C351.505 95.8012 351.474 95.7935 351.458 95.7781C351.382 95.7935 351.351 95.8396 351.366 95.9164C351.382 96.0086 351.359 96.0701 351.297 96.1008H351.182C350.782 96.1008 350.375 96.1854 349.96 96.3544C349.545 96.5235 349.122 96.7156 348.692 96.9307C348.277 97.1459 347.847 97.3457 347.401 97.5301C346.971 97.7299 346.533 97.8605 346.087 97.922C345.995 98.0142 345.88 98.0834 345.741 98.1295C345.619 98.1909 345.48 98.237 345.327 98.2678C345.173 98.2985 345.019 98.3293 344.865 98.36C344.727 98.4061 344.604 98.4753 344.497 98.5675C344.112 98.5982 343.728 98.6674 343.344 98.7749C342.96 98.8825 342.576 98.9824 342.191 99.0746C341.823 99.1822 341.438 99.2667 341.039 99.3282C340.655 99.405 340.263 99.4281 339.863 99.3974C339.74 99.4896 339.602 99.5587 339.448 99.6048C339.31 99.6663 339.179 99.7431 339.056 99.8353C338.426 99.7431 337.796 99.674 337.166 99.6279C336.551 99.5818 335.944 99.4742 335.345 99.3051C335.345 99.259 335.329 99.2283 335.299 99.2129C335.268 99.1976 335.23 99.1822 335.183 99.1668C335.153 99.1668 335.122 99.1515 335.091 99.1207C335.06 99.1054 335.06 99.0669 335.091 99.0055C334.953 99.0516 334.83 99.0746 334.722 99.0746C334.569 99.0746 334.415 99.0362 334.261 98.9594C334.123 98.8825 333.969 98.798 333.8 98.7058C333.647 98.6136 333.485 98.5214 333.316 98.4291C333.147 98.3523 332.963 98.3139 332.763 98.3139C332.64 98.1909 332.525 98.068 332.417 97.945C332.325 97.8221 332.256 97.6684 332.21 97.484C332.148 97.4686 332.079 97.4686 332.002 97.484C331.941 97.4994 331.887 97.507 331.841 97.507C331.749 97.507 331.702 97.4763 331.702 97.4148C331.38 97.1843 331.149 96.9384 331.011 96.6772C330.873 96.4159 330.719 96.1162 330.55 95.7781C330.504 95.6705 330.442 95.5783 330.365 95.5015C330.304 95.44 330.258 95.3632 330.227 95.271C330.166 95.1173 330.127 94.9559 330.112 94.7869C330.097 94.6178 330.081 94.4564 330.066 94.3027C330.066 94.1337 330.043 93.9723 329.997 93.8186C329.966 93.6496 329.897 93.4959 329.789 93.3576C329.82 92.7736 329.881 92.1896 329.974 91.6056C330.081 91.0216 330.212 90.4376 330.365 89.8536C330.427 89.5924 330.496 89.3388 330.573 89.0929C330.65 88.847 330.719 88.5934 330.78 88.3322C330.796 88.2399 330.819 88.1785 330.85 88.1477C330.896 88.1016 330.934 88.0709 330.965 88.0555L331.057 87.9864C331.088 87.9556 331.111 87.9095 331.126 87.8481L331.311 87.0643C331.434 86.5571 331.595 86.0653 331.795 85.5889C331.994 85.1125 332.263 84.6745 332.602 84.2749C332.632 83.8907 332.717 83.5296 332.855 83.1914C333.009 82.838 333.178 82.4999 333.362 82.1771C333.547 81.839 333.731 81.5086 333.916 81.1859C334.1 80.8631 334.246 80.5174 334.354 80.1485L334.33 80.1024C334.33 80.0409 334.361 80.0102 334.423 80.0102C334.5 79.9948 334.553 79.9872 334.584 79.9872C334.599 79.7413 334.653 79.5338 334.745 79.3647C334.853 79.1803 334.961 79.0113 335.068 78.8576C335.191 78.7039 335.299 78.5425 335.391 78.3735C335.498 78.1891 335.56 77.9739 335.575 77.728C335.867 77.559 336.113 77.3515 336.313 77.1056C336.528 76.8443 336.728 76.5831 336.912 76.3218C337.112 76.0452 337.32 75.7839 337.535 75.538C337.75 75.2768 338.011 75.0693 338.319 74.9156C338.395 74.8234 338.418 74.6928 338.388 74.5237C338.864 74.1702 339.356 73.8552 339.863 73.5786C340.37 73.3019 340.847 72.9792 341.292 72.6104H342.122C342.322 72.4567 342.545 72.3798 342.791 72.3798C342.975 72.3798 343.152 72.4182 343.321 72.4951C343.505 72.5719 343.674 72.6641 343.828 72.7717C343.997 72.8639 344.166 72.9638 344.335 73.0714C344.504 73.1636 344.673 73.2328 344.842 73.2789C345.011 73.5094 345.127 73.7783 345.188 74.0857C345.265 74.3777 345.342 74.6543 345.419 74.9156C345.28 75.3305 345.196 75.7609 345.165 76.2065C345.134 76.6369 345.081 77.0672 345.004 77.4975C344.896 77.6204 344.804 77.7587 344.727 77.9124C344.65 78.0507 344.566 78.1967 344.474 78.3504C344.397 78.4887 344.312 78.6271 344.22 78.7654C344.128 78.8883 344.005 78.9882 343.851 79.0651C343.728 79.5107 343.536 79.8642 343.275 80.1255C343.014 80.3867 342.76 80.6941 342.514 81.0476C342.284 81.2012 342.038 81.2781 341.776 81.2781C341.561 81.2781 341.369 81.232 341.2 81.1398C341.031 81.0322 340.877 80.9016 340.739 80.7479C340.601 80.5788 340.485 80.4021 340.393 80.2177C340.316 80.0179 340.255 79.8258 340.209 79.6414C340.316 79.3186 340.485 79.042 340.716 78.8115C340.962 78.5809 341.208 78.3504 341.454 78.1199C341.7 77.8894 341.915 77.6435 342.099 77.3822C342.284 77.121 342.376 76.8059 342.376 76.4371C342.376 76.4063 342.368 76.3756 342.353 76.3449C342.353 76.3141 342.353 76.2834 342.353 76.2526C342.353 76.1912 342.376 76.1374 342.422 76.0913C342.468 76.0452 342.514 76.0068 342.56 75.976L342.699 75.8608C342.745 75.8146 342.768 75.7609 342.768 75.6994C342.768 75.6379 342.737 75.5764 342.675 75.515C342.091 75.5611 341.646 75.661 341.338 75.8146C341.046 75.9683 340.816 76.1374 340.647 76.3218C340.478 76.5062 340.324 76.6906 340.186 76.8751C340.063 77.0441 339.878 77.1671 339.633 77.2439C339.586 77.3669 339.517 77.4744 339.425 77.5666C339.348 77.6435 339.264 77.728 339.171 77.8202C339.079 77.8971 338.995 77.9893 338.918 78.0968C338.856 78.2044 338.818 78.3351 338.803 78.4887H338.388C338.326 78.6271 338.234 78.7654 338.111 78.9037C338.004 79.0266 337.888 79.1496 337.765 79.2725C337.658 79.3955 337.558 79.5338 337.466 79.6875C337.389 79.8258 337.366 79.9795 337.396 80.1485C337.227 80.21 337.097 80.3099 337.005 80.4482C336.928 80.5865 336.812 80.7018 336.659 80.794V80.9323C336.659 81.0552 336.636 81.1705 336.59 81.2781C336.544 81.3857 336.536 81.5009 336.567 81.6239C336.382 81.7929 336.244 82.0081 336.152 82.2693C336.075 82.5152 335.99 82.7458 335.898 82.9609C335.683 83.0685 335.537 83.2145 335.46 83.3989C335.383 83.5833 335.345 83.7985 335.345 84.0444C335.114 84.2749 334.907 84.5439 334.722 84.8512C334.538 85.1586 334.369 85.4736 334.215 85.7964C334.077 86.1191 333.946 86.4495 333.823 86.7876C333.7 87.1257 333.57 87.4408 333.431 87.7328V88.4013C333.216 88.6472 333.063 88.9392 332.97 89.2773C332.894 89.6 332.771 89.892 332.602 90.1533C332.571 90.3224 332.555 90.4914 332.555 90.6605C332.571 90.8295 332.578 90.9986 332.578 91.1676C332.578 91.352 332.563 91.5441 332.532 91.7439C332.502 91.9437 332.448 92.1281 332.371 92.2972C332.432 92.5277 332.479 92.8043 332.509 93.1271C332.54 93.4344 332.594 93.7495 332.671 94.0722C332.748 94.3796 332.855 94.6639 332.993 94.9252C333.132 95.1711 333.332 95.3401 333.593 95.4323C333.654 95.7704 333.8 96.024 334.031 96.1931C334.277 96.3775 334.553 96.5235 334.861 96.6311C335.168 96.7386 335.483 96.8308 335.806 96.9077C336.129 96.9999 336.413 97.1152 336.659 97.2535C336.751 97.2074 336.859 97.1843 336.982 97.1843C337.104 97.1843 337.212 97.1997 337.304 97.2304C337.412 97.2612 337.527 97.2919 337.65 97.3226C337.865 97.2919 338.126 97.2765 338.434 97.2765C338.757 97.2765 339.079 97.2612 339.402 97.2304C339.725 97.215 340.024 97.1766 340.301 97.1152C340.578 97.0537 340.801 96.9384 340.97 96.7694C341.077 96.7694 341.146 96.8001 341.177 96.8616C341.223 96.923 341.3 96.9538 341.408 96.9538C341.515 96.9538 341.677 96.923 341.892 96.8616C342.107 96.8155 342.33 96.754 342.56 96.6772C342.791 96.6157 343.006 96.5465 343.206 96.4697C343.421 96.3928 343.575 96.3237 343.667 96.2622C343.713 96.2776 343.759 96.2853 343.805 96.2853H343.966C344.182 96.2853 344.381 96.2468 344.566 96.17C344.75 96.0932 344.95 96.0701 345.165 96.1008C345.872 95.7474 346.587 95.44 347.309 95.1787C348.047 94.9329 348.792 94.71 349.545 94.5102C349.637 94.3719 349.745 94.272 349.868 94.2105C350.006 94.1491 350.152 94.103 350.306 94.0722C350.46 94.0261 350.613 93.9954 350.767 93.98C350.921 93.9493 351.067 93.9109 351.205 93.8648C351.297 93.8186 351.374 93.7649 351.435 93.7034C351.512 93.6265 351.604 93.5651 351.712 93.519C351.82 93.4729 351.935 93.4421 352.058 93.4268C352.196 93.4114 352.327 93.396 352.45 93.3806C352.588 93.3499 352.711 93.3115 352.819 93.2654C352.942 93.2193 353.041 93.1424 353.118 93.0349C353.333 93.1271 353.549 93.227 353.764 93.3345C353.994 93.4421 354.186 93.5958 354.34 93.7956L354.363 93.8648ZM375.203 101.149C375.203 101.288 375.149 101.411 375.041 101.518C374.949 101.626 374.834 101.71 374.695 101.772C374.557 101.849 374.411 101.918 374.257 101.979C374.119 102.041 373.996 102.094 373.889 102.141C373.719 102.048 373.543 101.987 373.358 101.956C373.189 101.925 373.036 101.849 372.897 101.726H372.736C372.49 101.726 372.298 101.756 372.16 101.818C371.944 101.741 371.768 101.626 371.629 101.472C371.491 101.334 371.36 101.18 371.238 101.011C371.115 100.857 370.992 100.704 370.869 100.55C370.746 100.396 370.592 100.266 370.408 100.158C370.131 99.3897 369.885 98.6136 369.67 97.8298C369.455 97.046 369.293 96.2468 369.186 95.4323C369.217 95.3555 369.24 95.271 369.255 95.1787C369.27 95.0865 369.278 95.002 369.278 94.9252C369.278 94.8637 369.263 94.8022 369.232 94.7407C369.217 94.6639 369.17 94.6178 369.094 94.6024C369.17 94.4795 369.217 94.3412 369.232 94.1875C369.263 94.0184 369.278 93.8648 369.278 93.7264C369.278 93.4191 369.247 93.1655 369.186 92.9657C369.278 92.8889 369.316 92.7659 369.301 92.5969C369.286 92.4124 369.324 92.2818 369.416 92.205C369.34 91.9437 369.301 91.6901 369.301 91.4442C369.301 91.1061 369.34 90.7757 369.416 90.453C369.509 90.1302 369.555 89.7998 369.555 89.4617C369.555 89.3849 369.547 89.308 369.532 89.2312C369.532 89.1544 369.524 89.0775 369.509 89.0007C369.585 88.7548 369.655 88.5089 369.716 88.263C369.793 88.0017 369.831 87.7405 369.831 87.4792C369.831 87.2948 369.801 87.1411 369.739 87.0182C369.939 86.3112 370.077 85.612 370.154 84.9204C370.246 84.2134 370.331 83.4988 370.408 82.7765C370.392 82.7458 370.377 82.7227 370.362 82.7073C370.346 82.692 370.338 82.6689 370.338 82.6382C370.338 82.5613 370.377 82.4999 370.454 82.4538C370.546 82.4077 370.584 82.3231 370.569 82.2002C370.385 82.3846 370.231 82.5998 370.108 82.8457C370 83.0916 369.893 83.3374 369.785 83.5833C369.693 83.8292 369.585 84.0751 369.462 84.321C369.355 84.5515 369.209 84.759 369.024 84.9434C369.009 85.1125 368.955 85.2739 368.863 85.4275C368.786 85.5812 368.748 85.7503 368.748 85.9347C368.732 85.9347 368.717 85.9347 368.702 85.9347C368.686 85.9193 368.663 85.9116 368.633 85.9116C368.571 85.9116 368.525 85.9501 368.494 86.0269C368.479 86.1037 368.433 86.1268 368.356 86.0961C368.002 86.7876 367.611 87.4638 367.18 88.1247C366.765 88.7855 366.22 89.3157 365.544 89.7153C365.421 89.6692 365.305 89.6461 365.198 89.6461C364.998 89.6461 364.798 89.7076 364.598 89.8306C364.414 89.9381 364.291 89.9919 364.23 89.9919C364.076 89.9919 363.884 89.9151 363.653 89.7614C363.438 89.5924 363.215 89.5001 362.985 89.4848C362.739 89.3157 362.531 89.1467 362.362 88.9776C362.209 88.7932 361.97 88.6856 361.648 88.6549C361.433 88.3322 361.217 88.0248 361.002 87.7328C360.802 87.4408 360.603 87.1565 360.403 86.8798C360.218 86.5878 360.049 86.2805 359.896 85.9577C359.757 85.635 359.65 85.2739 359.573 84.8743C359.588 84.8435 359.596 84.8128 359.596 84.7821C359.596 84.6899 359.55 84.6514 359.458 84.6668C359.381 84.6822 359.342 84.6361 359.342 84.5285V84.3671C359.342 84.2442 359.319 84.1366 359.273 84.0444C359.243 83.9368 359.235 83.8215 359.25 83.6986C359.143 83.5296 359.058 83.3528 358.997 83.1684C358.935 82.984 358.828 82.8226 358.674 82.6843V82.4768C358.674 82.3846 358.666 82.3001 358.651 82.2232C358.651 82.131 358.628 82.0542 358.582 81.9927C358.551 81.9159 358.497 81.8698 358.42 81.8544C358.405 81.3011 358.29 80.7402 358.075 80.1716C357.875 79.5876 357.69 79.0266 357.521 78.4887C357.398 78.8883 357.306 79.2956 357.245 79.7105C357.183 80.1101 357.152 80.5174 357.152 80.9323V81.3242C357.152 81.4471 357.168 81.5701 357.199 81.693C357.152 81.7699 357.083 81.8237 356.991 81.8544C356.914 81.8851 356.868 81.9466 356.853 82.0388C356.837 82.1157 356.83 82.1925 356.83 82.2693C356.845 82.3462 356.845 82.423 356.83 82.4999C356.799 82.8687 356.753 83.2222 356.691 83.5603C356.599 84.0674 356.492 84.5823 356.369 85.1048C356.246 85.612 356.184 86.1345 356.184 86.6724C356.184 86.7031 356.184 86.7492 356.184 86.8107C356.2 86.8568 356.207 86.8952 356.207 86.926C355.961 87.1411 355.831 87.4101 355.815 87.7328C355.8 88.0555 355.762 88.3629 355.7 88.6549C355.623 89.0852 355.531 89.5155 355.424 89.9458C355.316 90.3608 355.224 90.7911 355.147 91.2368C355.101 91.4827 355.062 91.7286 355.032 91.9744C355.001 92.205 354.97 92.4432 354.939 92.6891C354.924 92.8274 354.87 92.9427 354.778 93.0349C354.701 93.1271 354.647 93.2347 354.617 93.3576C354.601 93.4652 354.594 93.5881 354.594 93.7264C354.609 93.8494 354.617 93.9646 354.617 94.0722C354.617 94.2566 354.601 94.4334 354.571 94.6024C354.54 94.7561 354.448 94.8944 354.294 95.0174C354.325 95.417 354.394 95.7551 354.501 96.0317C354.609 96.3237 354.732 96.6464 354.87 96.9999H355.447V97.0921C355.447 97.2458 355.47 97.3841 355.516 97.507C355.577 97.63 355.692 97.6838 355.861 97.6684C355.846 97.7299 355.838 97.8067 355.838 97.8989C355.838 98.0373 355.861 98.1602 355.908 98.2678C355.969 98.3907 356.015 98.5214 356.046 98.6597C355.739 99.1668 355.408 99.5433 355.055 99.7892C354.701 100.035 354.217 100.158 353.602 100.158H353.234C353.157 99.9122 353.064 99.674 352.957 99.4435C352.849 99.2129 352.742 98.9824 352.634 98.7519C352.542 98.5214 352.457 98.2831 352.381 98.0373C352.319 97.8067 352.288 97.5608 352.288 97.2996C352.288 97.2381 352.296 97.1766 352.311 97.1152C352.327 97.069 352.334 97.0153 352.334 96.9538C352.334 96.8769 352.304 96.8308 352.242 96.8155C352.181 96.8001 352.15 96.7233 352.15 96.5849C352.15 96.4774 352.142 96.3775 352.127 96.2853C352.127 96.1931 352.127 96.0932 352.127 95.9856C352.127 95.4784 352.165 94.979 352.242 94.4872C352.319 93.98 352.373 93.4729 352.404 92.9657C352.48 92.8889 352.519 92.789 352.519 92.666C352.519 92.5431 352.557 92.4432 352.634 92.3663V92.205C352.634 91.9283 352.665 91.6517 352.726 91.3751C352.788 91.0985 352.857 90.8295 352.934 90.5682C353.011 90.307 353.08 90.038 353.141 89.7614C353.203 89.4848 353.234 89.2081 353.234 88.9315V88.5627C353.234 88.4551 353.28 88.409 353.372 88.4244C353.479 88.4244 353.541 88.3629 353.556 88.2399C353.587 88.0248 353.602 87.8173 353.602 87.6175C353.618 87.4024 353.641 87.1872 353.672 86.9721C353.748 86.5571 353.833 86.1422 353.925 85.7272C354.017 85.2969 354.063 84.8666 354.063 84.4363V84.3671C354.063 84.321 354.102 84.2288 354.179 84.0905C354.256 83.9368 354.294 83.7908 354.294 83.6525C354.294 83.5449 354.271 83.445 354.225 83.3528C354.24 83.3682 354.271 83.3759 354.317 83.3759C354.378 83.3759 354.417 83.3605 354.432 83.3298C354.463 83.2837 354.501 83.2452 354.548 83.2145C354.501 83.153 354.478 83.0916 354.478 83.0301C354.478 82.9532 354.486 82.8841 354.501 82.8226C354.532 82.7458 354.548 82.6689 354.548 82.5921C354.548 82.4845 354.494 82.4077 354.386 82.3616C354.571 82.0235 354.701 81.6623 354.778 81.2781C354.87 80.8939 354.932 80.502 354.962 80.1024C355.009 79.7028 355.047 79.3033 355.078 78.9037C355.108 78.4887 355.178 78.0968 355.285 77.728C355.254 77.6358 355.231 77.5359 355.216 77.4283C355.216 77.3207 355.216 77.2209 355.216 77.1286C355.216 77.0672 355.208 77.0057 355.193 76.9442C355.178 76.8674 355.185 76.7982 355.216 76.7367C355.216 76.706 355.224 76.6676 355.239 76.6215L355.285 76.4832C355.316 76.3756 355.331 76.268 355.331 76.1604C355.347 76.0375 355.362 75.9145 355.377 75.7916C355.408 75.4381 355.416 75.077 355.4 74.7081C355.4 74.3393 355.416 73.9704 355.447 73.6016C355.4 73.5401 355.354 73.494 355.308 73.4633C355.262 73.4172 355.231 73.3557 355.216 73.2789C355.339 73.0637 355.47 72.8639 355.608 72.6795C355.762 72.4797 355.961 72.326 356.207 72.2185C356.253 72.3875 356.376 72.472 356.576 72.472C356.668 72.472 356.784 72.449 356.922 72.4029C357.06 72.3568 357.152 72.2953 357.199 72.2185C357.46 72.3107 357.721 72.3568 357.982 72.3568C358.259 72.3414 358.513 72.4029 358.743 72.5412C358.789 72.7717 358.851 73.0099 358.927 73.2558C359.004 73.5017 359.112 73.7246 359.25 73.9243C359.281 74.1241 359.312 74.37 359.342 74.662C359.373 74.9387 359.404 75.2307 359.435 75.538C359.465 75.83 359.511 76.1143 359.573 76.391C359.634 76.6522 359.719 76.8597 359.827 77.0134C359.842 77.29 359.888 77.5666 359.965 77.8433C360.042 78.1199 360.126 78.3888 360.218 78.6501C360.311 78.896 360.387 79.1265 360.449 79.3417C360.526 79.5568 360.564 79.7336 360.564 79.8719C360.564 79.9948 360.541 80.0794 360.495 80.1255C360.464 80.1562 360.434 80.2177 360.403 80.3099C360.464 80.4789 360.549 80.6249 360.656 80.7479C360.764 80.8555 360.879 80.9861 361.002 81.1398C361.233 82.0158 361.532 82.8687 361.901 83.6986C362.27 84.5285 362.716 85.3276 363.238 86.0961C363.377 86.1114 363.484 86.1499 363.561 86.2113C363.653 86.2728 363.792 86.2882 363.976 86.2574V86.4188C363.976 86.5725 364.007 86.6801 364.068 86.7415C364.207 86.8337 364.368 86.8798 364.552 86.8798C364.752 86.8798 364.906 86.8261 365.013 86.7185C365.136 86.5955 365.252 86.4572 365.359 86.3035C365.467 86.1499 365.574 86.0039 365.682 85.8655C365.789 85.7272 365.935 85.635 366.12 85.5889V85.5428C366.12 85.4199 366.143 85.32 366.189 85.2431C366.25 85.1509 366.281 85.051 366.281 84.9434C366.45 84.8205 366.581 84.6668 366.673 84.4824C366.765 84.298 366.85 84.1135 366.927 83.9291C367.004 83.7293 367.088 83.5449 367.18 83.3759C367.288 83.2068 367.426 83.0685 367.595 82.9609C367.81 82.3001 368.072 81.6854 368.379 81.1167C368.686 80.5481 369.009 79.9718 369.347 79.3878C369.347 79.3417 369.34 79.2956 369.324 79.2495C369.309 79.188 369.301 79.1342 369.301 79.0881C369.301 79.0727 369.316 79.0036 369.347 78.8806C369.424 78.7269 369.493 78.5809 369.555 78.4426C369.616 78.3043 369.67 78.1506 369.716 77.9816C369.87 77.5052 370.008 77.0364 370.131 76.5754C370.269 76.1143 370.469 75.6763 370.73 75.2614V74.6851C371.007 74.1318 371.199 73.5478 371.307 72.9331C371.43 72.3184 371.576 71.719 371.745 71.135C371.775 70.9659 371.829 70.7969 371.906 70.6278C371.998 70.4434 372.106 70.3128 372.229 70.2359C372.183 70.1437 372.16 70.0515 372.16 69.9593C372.16 69.8364 372.175 69.7288 372.206 69.6366C372.252 69.529 372.29 69.4214 372.321 69.3138C372.275 69.2063 372.252 69.068 372.252 68.8989C372.252 68.6837 372.313 68.484 372.436 68.2995C372.559 68.0997 372.744 67.9691 372.99 67.9076C373.143 67.9537 373.274 68.0306 373.381 68.1382C373.489 68.2457 373.589 68.361 373.681 68.484C373.789 68.5915 373.896 68.6837 374.004 68.7606C374.127 68.8221 374.28 68.8374 374.465 68.8067C374.588 69.0372 374.672 69.2831 374.718 69.5444C374.765 69.7903 374.788 70.0438 374.788 70.3051C374.788 70.6586 374.757 71.0274 374.695 71.4116C374.634 71.7805 374.611 72.157 374.626 72.5412C374.503 72.7871 374.411 73.056 374.35 73.348C374.303 73.6247 374.257 73.909 374.211 74.201C374.165 74.493 374.111 74.7773 374.05 75.0539C373.988 75.3305 373.881 75.5918 373.727 75.8377C373.681 76.5293 373.627 77.2055 373.566 77.8663C373.52 78.5272 373.443 79.188 373.335 79.8488L373.128 81.1628C373.097 81.2704 373.066 81.3934 373.036 81.5317C373.005 81.6546 372.99 81.7622 372.99 81.8544C372.99 81.9466 372.997 82.0465 373.013 82.1541C373.028 82.2463 373.074 82.3155 373.151 82.3616C373.043 82.5152 372.966 82.6997 372.92 82.9148C372.874 83.13 372.828 83.3605 372.782 83.6064L372.667 84.321C372.636 84.5515 372.575 84.759 372.482 84.9434V85.197C372.482 85.8117 372.375 86.4418 372.16 87.0873V87.2026C372.16 87.2794 372.152 87.3486 372.137 87.4101C372.137 87.4562 372.137 87.5176 372.137 87.5945C372.137 87.7021 372.167 87.7866 372.229 87.8481C372.106 88.2476 371.991 88.6626 371.883 89.0929C371.775 89.5078 371.699 89.9381 371.652 90.3838C371.606 90.9832 371.599 91.5979 371.629 92.228C371.66 92.8428 371.583 93.4421 371.399 94.0261C371.491 94.3027 371.553 94.6024 371.583 94.9252L371.676 95.8934C371.706 96.2161 371.752 96.5235 371.814 96.8155C371.891 97.1228 372.029 97.3764 372.229 97.5762C372.244 97.6069 372.252 97.653 372.252 97.7145C372.252 97.8375 372.221 97.9297 372.16 97.9911C372.19 98.1448 372.244 98.2755 372.321 98.383C372.398 98.4906 372.475 98.5905 372.552 98.6827C372.628 98.7903 372.69 98.9056 372.736 99.0285C372.797 99.1515 372.828 99.3051 372.828 99.4896C372.951 99.6586 373.143 99.7892 373.404 99.8815C373.666 99.9737 373.927 100.066 374.188 100.158C374.465 100.25 374.703 100.366 374.903 100.504C375.103 100.658 375.203 100.873 375.203 101.149Z" fill="#202020"/>
</g>
</g>
<path d="M513.092 29.849H63.6346C59.1242 29.849 54.7975 31.6355 51.601 34.8176L38.07 48.2877C34.8547 51.4886 33.0471 55.8387 33.0471 60.3757V239.858C33.0471 249.279 40.6836 256.915 50.1037 256.915H526.623C536.043 256.915 543.679 249.279 543.679 239.858V60.3757C543.679 55.8387 541.872 51.4886 538.656 48.2877L525.125 34.8176C521.929 31.6355 517.602 29.849 513.092 29.849Z" stroke="#202020" stroke-width="1.59906"/>
<g clip-path="url(#clip7_21_861)">
<path d="M165.768 113.8H409.891C435.355 113.8 455.998 134.442 455.998 159.905V160.972C455.998 186.435 435.355 207.078 409.891 207.078H165.768C140.305 207.078 119.663 186.435 119.663 160.972V159.905C119.663 134.442 140.305 113.8 165.768 113.8Z" stroke="#202020" stroke-width="1.59906"/>
<path d="M404.095 128.552C421.463 128.552 435.543 142.632 435.543 160C435.543 177.368 421.463 191.448 404.095 191.448C386.727 191.448 372.647 177.368 372.647 160C372.647 142.632 386.727 128.552 404.095 128.552ZM403.913 136.547C400.691 136.547 397.619 137.196 394.824 138.372L397.652 143.268L392.567 146.204L389.742 141.311C384.839 145.035 381.446 150.645 380.644 157.06H386.299V162.932H380.643C381.443 169.345 384.832 174.952 389.732 178.678L392.558 173.783L397.643 176.719L394.813 181.62C397.611 182.799 400.686 183.452 403.913 183.452C407.136 183.452 410.206 182.802 413.001 181.626L410.176 176.731L415.261 173.796L418.084 178.686C422.989 174.961 426.382 169.349 427.183 162.932H421.528V157.06H427.182C426.38 150.648 422.99 145.041 418.091 141.317L415.269 146.208L410.184 143.272L413.01 138.376C410.213 137.198 407.139 136.547 403.913 136.547Z" fill="#202020"/>
<path d="M171.632 128.552C189 128.552 203.08 142.632 203.08 160C203.08 177.368 189 191.448 171.632 191.448C154.264 191.448 140.184 177.368 140.184 160C140.184 142.632 154.264 128.552 171.632 128.552ZM171.45 136.547C168.228 136.547 165.157 137.196 162.363 138.372L165.19 143.268L160.105 146.204L157.28 141.311C152.376 145.035 148.984 150.645 148.182 157.06H153.836L153.836 162.932L148.181 162.932C148.981 169.345 152.369 174.953 157.269 178.679L160.096 173.783L165.181 176.719L162.35 181.62C165.148 182.799 168.223 183.452 171.45 183.452C174.673 183.452 177.743 182.802 180.538 181.626L177.713 176.731L182.798 173.796L185.621 178.686C190.527 174.961 193.921 169.35 194.721 162.932L189.066 162.932L189.066 157.06H194.72C193.918 150.648 190.528 145.042 185.629 141.318L182.806 146.208L177.722 143.272L180.548 138.376C177.751 137.198 174.676 136.547 171.45 136.547Z" fill="#202020"/>
</g>
<defs>
<clipPath id="clip0_21_861">
<rect width="19.1887" height="19.1887" fill="white" transform="translate(278.235 279.302)"/>
</clipPath>
<clipPath id="clip1_21_861">
<rect width="19.1887" height="19.1887" fill="white" transform="translate(14.3912 14.3915)"/>
</clipPath>
<clipPath id="clip2_21_861">
<rect width="19.1887" height="19.1887" fill="white" transform="translate(14.3911 319.278)"/>
</clipPath>
<clipPath id="clip3_21_861">
<rect width="19.1887" height="19.1887" fill="white" transform="translate(542.08 14.3916)"/>
</clipPath>
<clipPath id="clip4_21_861">
<rect width="19.1887" height="19.1887" fill="white" transform="translate(542.08 319.278)"/>
</clipPath>
<clipPath id="clip5_21_861">
<rect width="510.632" height="227.066" fill="white" transform="translate(33.0469 29.8489)"/>
</clipPath>
<clipPath id="clip6_21_861">
<rect width="511" height="143.849" fill="white" transform="matrix(1 0 0 -1 33.3134 257.115)"/>
</clipPath>
<clipPath id="clip7_21_861">
<rect x="118.863" y="113" width="337.934" height="94.8774" rx="46.9057" fill="white"/>
</clipPath>
</defs>
</svg>
