<svg width="576" height="354" viewBox="0 0 576 354" fill="none" xmlns="http://www.w3.org/2000/svg">
<g clip-path="url(#clip0_182_589384)">
<g opacity="0.8">
<mask id="path-1-outside-1_182_589384" maskUnits="userSpaceOnUse" x="-0.291016" y="0.0297852" width="577" height="354" fill="black">
<rect fill="white" x="-0.291016" y="0.0297852" width="577" height="354"/>
<path d="M550.719 2.02979C563.671 2.02981 574.172 12.5303 574.172 25.4829V328.237C574.172 341.189 563.671 351.69 550.719 351.69L25.1621 351.69C12.2095 351.69 1.70898 341.189 1.70898 328.237L1.70898 25.4829C1.70898 12.5303 12.2095 2.02979 25.1621 2.02979L550.719 2.02979ZM152.021 313.284C143.778 313.284 137.097 319.966 137.097 328.208C137.097 336.451 143.778 343.132 152.021 343.132C160.263 343.132 166.945 336.451 166.945 328.208C166.945 319.966 160.263 313.284 152.021 313.284ZM424.394 313.284C416.151 313.284 409.469 319.966 409.469 328.208C409.469 336.451 416.151 343.132 424.394 343.132C432.636 343.132 439.318 336.451 439.318 328.208C439.318 319.966 432.636 313.284 424.394 313.284ZM199.993 313.284C198.227 313.284 196.795 314.716 196.795 316.482V330.34C196.795 332.107 198.227 333.539 199.993 333.539H213.852C215.618 333.538 217.049 332.106 217.049 330.34V316.482C217.049 314.716 215.618 313.284 213.852 313.284H199.993ZM362.563 313.284C360.797 313.284 359.365 314.716 359.365 316.482V330.34C359.365 332.107 360.797 333.539 362.563 333.539H376.422C378.188 333.539 379.62 332.107 379.62 330.34V316.482C379.62 314.716 378.188 313.284 376.422 313.284H362.563ZM171.743 129.421C154.375 129.421 140.295 143.501 140.295 160.87C140.295 178.238 154.375 192.318 171.743 192.318C189.111 192.318 203.19 178.238 203.19 160.87C203.19 143.501 189.111 129.422 171.743 129.421ZM404.139 129.421C386.77 129.422 372.69 143.501 372.69 160.87C372.691 178.238 386.771 192.318 404.139 192.318C421.507 192.318 435.587 178.238 435.587 160.87C435.587 143.501 421.507 129.421 404.139 129.421Z"/>
</mask>
<path d="M550.719 2.02979C563.671 2.02981 574.172 12.5303 574.172 25.4829V328.237C574.172 341.189 563.671 351.69 550.719 351.69L25.1621 351.69C12.2095 351.69 1.70898 341.189 1.70898 328.237L1.70898 25.4829C1.70898 12.5303 12.2095 2.02979 25.1621 2.02979L550.719 2.02979ZM152.021 313.284C143.778 313.284 137.097 319.966 137.097 328.208C137.097 336.451 143.778 343.132 152.021 343.132C160.263 343.132 166.945 336.451 166.945 328.208C166.945 319.966 160.263 313.284 152.021 313.284ZM424.394 313.284C416.151 313.284 409.469 319.966 409.469 328.208C409.469 336.451 416.151 343.132 424.394 343.132C432.636 343.132 439.318 336.451 439.318 328.208C439.318 319.966 432.636 313.284 424.394 313.284ZM199.993 313.284C198.227 313.284 196.795 314.716 196.795 316.482V330.34C196.795 332.107 198.227 333.539 199.993 333.539H213.852C215.618 333.538 217.049 332.106 217.049 330.34V316.482C217.049 314.716 215.618 313.284 213.852 313.284H199.993ZM362.563 313.284C360.797 313.284 359.365 314.716 359.365 316.482V330.34C359.365 332.107 360.797 333.539 362.563 333.539H376.422C378.188 333.539 379.62 332.107 379.62 330.34V316.482C379.62 314.716 378.188 313.284 376.422 313.284H362.563ZM171.743 129.421C154.375 129.421 140.295 143.501 140.295 160.87C140.295 178.238 154.375 192.318 171.743 192.318C189.111 192.318 203.19 178.238 203.19 160.87C203.19 143.501 189.111 129.422 171.743 129.421ZM404.139 129.421C386.77 129.422 372.69 143.501 372.69 160.87C372.691 178.238 386.771 192.318 404.139 192.318C421.507 192.318 435.587 178.238 435.587 160.87C435.587 143.501 421.507 129.421 404.139 129.421Z" fill="#E2E2E2"/>
<path d="M550.719 2.02979V0.430728V2.02979ZM550.719 351.69V353.289V351.69ZM152.021 313.284V311.685H152.02L152.021 313.284ZM137.097 328.208H135.498V328.209L137.097 328.208ZM152.021 343.132L152.02 344.731H152.021V343.132ZM166.945 328.208L168.544 328.209V328.208H166.945ZM424.394 313.284V311.685V313.284ZM409.469 328.208H407.87V328.209L409.469 328.208ZM424.394 343.132V344.731V343.132ZM439.318 328.208L440.917 328.209V328.208H439.318ZM196.795 330.34H195.196V330.34L196.795 330.34ZM213.852 333.539V335.138H213.852L213.852 333.539ZM217.049 330.34L218.648 330.34V330.34H217.049ZM213.852 313.284L213.852 311.685H213.852V313.284ZM359.365 330.34H357.766V330.34L359.365 330.34ZM379.62 330.34L381.219 330.34V330.34H379.62ZM171.743 129.421L171.743 127.822H171.743V129.421ZM140.295 160.87H138.696V160.87L140.295 160.87ZM171.743 192.318V193.917H171.743L171.743 192.318ZM203.19 160.87L204.789 160.87V160.87H203.19ZM404.139 129.421V127.822V129.421ZM372.69 160.87H371.091V160.87L372.69 160.87ZM404.139 192.318V193.917V192.318ZM435.587 160.87L437.186 160.87V160.87H435.587ZM550.719 2.02979V3.62884C562.788 3.62887 572.573 13.4134 572.573 25.4829H574.172H575.771C575.771 11.6472 564.555 0.430758 550.719 0.430728V2.02979ZM574.172 25.4829H572.573V328.237H574.172H575.771V25.4829H574.172ZM574.172 328.237H572.573C572.573 340.306 562.788 350.091 550.719 350.091V351.69V353.289C564.554 353.289 575.771 342.073 575.771 328.237H574.172ZM550.719 351.69V350.091L25.1621 350.091V351.69V353.289L550.719 353.289V351.69ZM25.1621 351.69V350.091C13.0926 350.091 3.30804 340.306 3.30804 328.237H1.70898H0.109928C0.109928 342.073 11.3263 353.289 25.1621 353.289V351.69ZM1.70898 328.237H3.30804L3.30804 25.4829H1.70898H0.109928L0.109928 328.237H1.70898ZM1.70898 25.4829H3.30804C3.30804 13.4134 13.0926 3.62884 25.1621 3.62884V2.02979V0.430728C11.3263 0.430728 0.109928 11.6471 0.109928 25.4829H1.70898ZM25.1621 2.02979V3.62884L550.719 3.62884V2.02979V0.430728L25.1621 0.430728V2.02979ZM152.021 313.284L152.02 311.685C142.895 311.685 135.498 319.083 135.498 328.208H137.097H138.696C138.696 320.849 144.661 314.883 152.021 314.883L152.021 313.284ZM137.097 328.208L135.498 328.209C135.498 337.334 142.895 344.731 152.02 344.731L152.021 343.132L152.021 341.533C144.661 341.533 138.696 335.568 138.696 328.208L137.097 328.208ZM152.021 343.132V344.731C161.146 344.731 168.544 337.334 168.544 328.209L166.945 328.208L165.346 328.208C165.346 335.568 159.38 341.533 152.021 341.533V343.132ZM166.945 328.208H168.544C168.544 319.083 161.146 311.685 152.021 311.685V313.284V314.883C159.38 314.883 165.346 320.849 165.346 328.208H166.945ZM424.394 313.284V311.685C415.268 311.685 407.87 319.083 407.87 328.208H409.469H411.068C411.068 320.849 417.034 314.883 424.394 314.883V313.284ZM409.469 328.208L407.87 328.209C407.87 337.334 415.268 344.731 424.394 344.731V343.132V341.533C417.034 341.533 411.068 335.568 411.068 328.208L409.469 328.208ZM424.394 343.132V344.731C433.519 344.731 440.917 337.334 440.917 328.209L439.318 328.208L437.719 328.208C437.719 335.568 431.753 341.533 424.394 341.533V343.132ZM439.318 328.208H440.917C440.917 319.083 433.519 311.685 424.394 311.685V313.284V314.883C431.753 314.883 437.719 320.849 437.719 328.208H439.318ZM199.993 313.284V311.685C197.344 311.685 195.196 313.832 195.196 316.482H196.795H198.394C198.394 315.599 199.11 314.883 199.993 314.883V313.284ZM196.795 316.482H195.196V330.34H196.795H198.394V316.482H196.795ZM196.795 330.34L195.196 330.34C195.196 332.99 197.344 335.138 199.993 335.138V333.539V331.94C199.11 331.94 198.394 331.223 198.394 330.34L196.795 330.34ZM199.993 333.539V335.138H213.852V333.539V331.94H199.993V333.539ZM213.852 333.539L213.852 335.138C216.501 335.137 218.648 332.989 218.648 330.34L217.049 330.34L215.45 330.34C215.45 331.224 214.734 331.939 213.851 331.94L213.852 333.539ZM217.049 330.34H218.648V316.482H217.049H215.45V330.34H217.049ZM217.049 316.482H218.648C218.648 313.833 216.501 311.685 213.852 311.685L213.852 313.284L213.851 314.883C214.734 314.883 215.45 315.598 215.45 316.482H217.049ZM213.852 313.284V311.685H199.993V313.284V314.883H213.852V313.284ZM362.563 313.284V311.685C359.914 311.685 357.766 313.832 357.766 316.482H359.365H360.964C360.964 315.599 361.68 314.883 362.563 314.883V313.284ZM359.365 316.482H357.766V330.34H359.365H360.964V316.482H359.365ZM359.365 330.34L357.766 330.34C357.766 332.99 359.914 335.138 362.563 335.138V333.539V331.94C361.68 331.94 360.964 331.223 360.964 330.34L359.365 330.34ZM362.563 333.539V335.138H376.422V333.539V331.94H362.563V333.539ZM376.422 333.539V335.138C379.071 335.138 381.219 332.99 381.219 330.34L379.62 330.34L378.021 330.34C378.021 331.223 377.305 331.94 376.422 331.94V333.539ZM379.62 330.34H381.219V316.482H379.62H378.021V330.34H379.62ZM379.62 316.482H381.219C381.219 313.832 379.071 311.685 376.422 311.685V313.284V314.883C377.305 314.883 378.021 315.599 378.021 316.482H379.62ZM376.422 313.284V311.685H362.563V313.284V314.883H376.422V313.284ZM171.743 129.421V127.822C153.492 127.822 138.696 142.618 138.696 160.87H140.295H141.894C141.894 144.384 155.258 131.02 171.743 131.02V129.421ZM140.295 160.87L138.696 160.87C138.696 179.121 153.492 193.917 171.743 193.917V192.318V190.719C155.258 190.719 141.894 177.355 141.894 160.87L140.295 160.87ZM171.743 192.318L171.743 193.917C189.994 193.917 204.789 179.121 204.789 160.87L203.19 160.87L201.591 160.87C201.591 177.355 188.228 190.719 171.743 190.719L171.743 192.318ZM203.19 160.87H204.789C204.789 142.618 189.994 127.823 171.743 127.822L171.743 129.421L171.743 131.02C188.228 131.021 201.591 144.385 201.591 160.87H203.19ZM404.139 129.421V127.822C385.887 127.822 371.091 142.618 371.091 160.87H372.69H374.289C374.289 144.385 387.654 131.021 404.139 131.02V129.421ZM372.69 160.87L371.091 160.87C371.092 179.121 385.887 193.917 404.139 193.917V192.318V190.719C387.654 190.719 374.29 177.355 374.289 160.87L372.69 160.87ZM404.139 192.318V193.917C422.39 193.917 437.186 179.121 437.186 160.87L435.587 160.87L433.988 160.87C433.988 177.355 420.624 190.719 404.139 190.719V192.318ZM435.587 160.87H437.186C437.186 142.618 422.39 127.822 404.139 127.822V129.421V131.02C420.624 131.02 433.988 144.384 433.988 160.87H435.587Z" fill="#202020" mask="url(#path-1-outside-1_182_589384)"/>
</g>
<path d="M171.208 55.8649C229.201 55.8649 276.213 102.877 276.213 160.87C276.213 218.862 229.2 265.875 171.208 265.875C113.216 265.874 66.2032 218.862 66.2031 160.87C66.2031 102.877 113.216 55.865 171.208 55.8649ZM171.741 127.823C153.49 127.823 138.694 142.618 138.694 160.87C138.694 179.121 153.49 193.917 171.741 193.917C189.993 193.917 204.788 179.121 204.788 160.87C204.788 142.618 189.993 127.823 171.741 127.823Z" fill="#202020"/>
<path d="M403.604 120.893C425.682 120.893 443.58 138.791 443.58 160.87C443.58 182.948 425.682 200.846 403.604 200.846C381.525 200.846 363.627 182.948 363.627 160.87C363.627 138.791 381.525 120.893 403.604 120.893ZM404.137 127.823C385.885 127.823 371.09 142.618 371.09 160.87C371.09 179.121 385.885 193.917 404.137 193.917C422.388 193.916 437.184 179.121 437.184 160.87C437.184 142.618 422.388 127.823 404.137 127.823Z" fill="#202020"/>
<path d="M67.5348 145.945C61.9706 190.055 40.3177 295.117 45.9474 329.037M62.4712 342.896C99.516 343.429 509.407 342.896 513.405 342.896M436.384 138.483C455.255 166.449 515.977 278.279 529.636 321.841" stroke="#202020" stroke-width="0.533019"/>
<path d="M62.4707 309.049C71.8908 309.049 79.5273 316.685 79.5273 326.105C79.5273 335.526 71.8908 343.162 62.4707 343.162C53.0506 343.162 45.4141 335.526 45.4141 326.105C45.4141 316.685 53.0506 309.049 62.4707 309.049ZM62.4707 318.927C58.5043 318.927 55.2891 322.142 55.2891 326.108C55.2893 330.075 58.5045 333.29 62.4707 333.29C66.4369 333.29 69.6521 330.075 69.6523 326.108C69.6523 322.142 66.437 318.927 62.4707 318.927Z" fill="#202020"/>
<path d="M513.406 309.049C522.826 309.049 530.463 316.685 530.463 326.105C530.463 335.526 522.826 343.162 513.406 343.162C503.986 343.162 496.35 335.525 496.35 326.105C496.35 316.685 503.986 309.049 513.406 309.049ZM513.406 318.927C509.44 318.927 506.225 322.142 506.225 326.108C506.225 330.075 509.44 333.29 513.406 333.29C517.372 333.29 520.588 330.075 520.588 326.108C520.588 322.142 517.373 318.927 513.406 318.927Z" fill="#202020"/>
<path d="M129.835 273.603H450.297C457.727 273.603 464.211 278.641 466.049 285.84L483.06 352.49H93.4053L114.307 285.048C116.416 278.242 122.71 273.603 129.835 273.603Z" stroke="#202020" stroke-width="1.59906"/>
<circle cx="152.018" cy="328.238" r="14.125" stroke="#202020" stroke-width="1.59906"/>
<circle cx="424.391" cy="328.238" r="14.125" stroke="#202020" stroke-width="1.59906"/>
<rect x="197.592" y="314.113" width="18.6557" height="18.6557" rx="2.39859" stroke="#202020" stroke-width="1.59906"/>
<path d="M277.811 333.568C277.811 331.801 279.242 330.37 281.009 330.37H294.867C296.633 330.37 298.065 331.801 298.065 333.568V343.162H277.811V333.568Z" fill="#202020"/>
<rect x="360.163" y="314.113" width="18.6557" height="18.6557" rx="2.39859" stroke="#202020" stroke-width="1.59906"/>
<g clip-path="url(#clip1_182_589384)">
<path d="M287.938 279.733C293.237 279.733 297.532 284.029 297.532 289.327C297.532 294.626 293.237 298.921 287.938 298.921C282.64 298.921 278.344 294.626 278.344 289.327C278.344 284.029 282.64 279.733 287.938 279.733ZM288.722 283.585C288.548 282.732 287.328 282.732 287.154 283.585L286.422 287.187C286.358 287.501 286.112 287.747 285.798 287.811L282.196 288.543C281.343 288.717 281.343 289.937 282.196 290.111L285.798 290.843C286.112 290.907 286.358 291.153 286.422 291.467L287.154 295.069C287.328 295.922 288.548 295.922 288.722 295.069L289.454 291.467C289.518 291.153 289.764 290.907 290.078 290.843L293.68 290.111C294.533 289.937 294.533 288.717 293.68 288.543L290.078 287.811C289.764 287.747 289.518 287.501 289.454 287.187L288.722 283.585Z" fill="#202020"/>
</g>
<g clip-path="url(#clip2_182_589384)">
<path d="M24.0947 14.8224C29.3934 14.8226 33.6885 19.1184 33.6885 24.4171C33.6883 29.7156 29.3932 34.0107 24.0947 34.0109C18.796 34.0109 14.5002 29.7157 14.5 24.4171C14.5 19.1183 18.7959 14.8224 24.0947 14.8224ZM24.8779 18.6749C24.7043 17.8214 23.4841 17.8213 23.3105 18.6749L22.5781 22.2765C22.5142 22.5909 22.2686 22.8366 21.9541 22.9005L18.3525 23.6329C17.499 23.8065 17.499 25.0267 18.3525 25.2003L21.9541 25.9327C22.2685 25.9967 22.5141 26.2424 22.5781 26.5568L23.3105 30.1583C23.4841 31.0119 24.7043 31.0119 24.8779 30.1583L25.6104 26.5568C25.6743 26.2424 25.92 25.9967 26.2344 25.9327L29.8359 25.2003C30.6895 25.0267 30.6895 23.8065 29.8359 23.6329L26.2344 22.9005C25.92 22.8365 25.6743 22.5909 25.6104 22.2765L24.8779 18.6749Z" fill="#202020"/>
</g>
<g clip-path="url(#clip3_182_589384)">
<path d="M24.0947 319.709C29.3934 319.709 33.6885 324.005 33.6885 329.304C33.6883 334.602 29.3932 338.897 24.0947 338.898C18.796 338.898 14.5002 334.603 14.5 329.304C14.5 324.005 18.7959 319.709 24.0947 319.709ZM24.8779 323.562C24.7043 322.708 23.4841 322.708 23.3105 323.562L22.5781 327.163C22.5142 327.478 22.2686 327.723 21.9541 327.787L18.3525 328.52C17.499 328.693 17.499 329.914 18.3525 330.087L21.9541 330.82C22.2685 330.884 22.5141 331.129 22.5781 331.444L23.3105 335.045C23.4841 335.899 24.7043 335.899 24.8779 335.045L25.6104 331.444C25.6743 331.129 25.92 330.884 26.2344 330.82L29.8359 330.087C30.6895 329.914 30.6895 328.693 29.8359 328.52L26.2344 327.787C25.92 327.723 25.6743 327.478 25.6104 327.163L24.8779 323.562Z" fill="#202020"/>
</g>
<g clip-path="url(#clip4_182_589384)">
<path d="M551.782 14.8225C557.081 14.8227 561.376 19.1186 561.376 24.4172C561.376 29.7157 557.081 34.0108 551.782 34.011C546.484 34.011 542.188 29.7159 542.188 24.4172C542.188 19.1184 546.483 14.8225 551.782 14.8225ZM552.565 18.675C552.392 17.8215 551.172 17.8215 550.998 18.675L550.266 22.2766C550.202 22.5911 549.956 22.8367 549.642 22.9006L546.04 23.6331C545.186 23.8066 545.186 25.0268 546.04 25.2004L549.642 25.9329C549.956 25.9968 550.202 26.2425 550.266 26.5569L550.998 30.1584C551.172 31.012 552.392 31.012 552.565 30.1584L553.298 26.5569C553.362 26.2425 553.607 25.9968 553.922 25.9329L557.523 25.2004C558.377 25.0268 558.377 23.8066 557.523 23.6331L553.922 22.9006C553.607 22.8366 553.362 22.591 553.298 22.2766L552.565 18.675Z" fill="#202020"/>
</g>
<g clip-path="url(#clip5_182_589384)">
<path d="M551.782 319.709C557.081 319.709 561.376 324.005 561.376 329.304C561.376 334.602 557.081 338.897 551.782 338.898C546.484 338.898 542.188 334.603 542.188 329.304C542.188 324.005 546.483 319.709 551.782 319.709ZM552.565 323.562C552.392 322.708 551.172 322.708 550.998 323.562L550.266 327.163C550.202 327.478 549.956 327.723 549.642 327.787L546.04 328.52C545.186 328.693 545.186 329.914 546.04 330.087L549.642 330.82C549.956 330.884 550.202 331.129 550.266 331.444L550.998 335.045C551.172 335.899 552.392 335.899 552.565 335.045L553.298 331.444C553.362 331.129 553.607 330.884 553.922 330.82L557.523 330.087C558.377 329.914 558.377 328.693 557.523 328.52L553.922 327.787C553.607 327.723 553.362 327.478 553.298 327.163L552.565 323.562Z" fill="#202020"/>
</g>
<g clip-path="url(#clip6_182_589384)">
<g clip-path="url(#clip7_182_589384)">
<path d="M251.739 240.662H251.851V241.205H251.739V240.662ZM252.017 240.662H252.158L252.352 241.069H252.354V240.662H252.459V241.205H252.319L252.124 240.799H252.123V241.205H252.017V240.662ZM252.74 240.758H252.594V240.662H252.998V240.758H252.852V241.205H252.74V240.758ZM253.132 240.662H253.468V240.753H253.24V240.885H253.437V240.967H253.24V241.113H253.476V241.205H253.132V240.662ZM253.979 241.219C253.955 241.219 253.935 241.212 253.92 241.199C253.904 241.185 253.893 241.167 253.887 241.144L253.86 241.044C253.855 241.028 253.847 241.015 253.836 241.005C253.825 240.995 253.813 240.99 253.8 240.99H253.729V241.205H253.618V240.662H253.845C253.883 240.662 253.917 240.669 253.947 240.683C253.977 240.696 254 240.716 254.017 240.741C254.033 240.766 254.041 240.795 254.041 240.828C254.041 240.863 254.03 240.893 254.008 240.919C253.987 240.945 253.957 240.962 253.92 240.971V240.972C253.945 240.983 253.961 241.005 253.968 241.036L253.988 241.113C253.993 241.131 254.002 241.141 254.014 241.141C254.025 241.141 254.037 241.133 254.048 241.117L254.08 241.173C254.068 241.187 254.053 241.198 254.035 241.206C254.017 241.215 253.999 241.219 253.979 241.219ZM253.837 240.907C253.864 240.907 253.887 240.9 253.904 240.886C253.922 240.871 253.93 240.852 253.93 240.829C253.93 240.805 253.922 240.786 253.904 240.771C253.887 240.757 253.865 240.749 253.837 240.749H253.729V240.907H253.837ZM254.206 240.662H254.346L254.541 241.069H254.542V240.662H254.648V241.205H254.508L254.313 240.799H254.311V241.205H254.206V240.662ZM254.954 240.662H255.092L255.269 241.205H255.155L255.121 241.091H254.926L254.891 241.205H254.778L254.954 240.662ZM255.101 241.007L255.025 240.756H255.024L254.946 241.007H255.101ZM255.451 240.758H255.305V240.662H255.709V240.758H255.563V241.205H255.451V240.758ZM255.844 240.662H255.955V241.205H255.844V240.662ZM256.374 241.222C256.32 241.222 256.273 241.21 256.232 241.186C256.191 241.163 256.16 241.129 256.137 241.086C256.115 241.042 256.104 240.991 256.104 240.933C256.104 240.876 256.115 240.825 256.137 240.782C256.16 240.738 256.191 240.705 256.232 240.681C256.273 240.657 256.32 240.645 256.374 240.645C256.428 240.645 256.475 240.657 256.516 240.681C256.556 240.705 256.588 240.738 256.61 240.782C256.633 240.825 256.644 240.876 256.644 240.933C256.644 240.991 256.633 241.041 256.61 241.085C256.588 241.128 256.556 241.162 256.516 241.186C256.475 241.21 256.428 241.222 256.374 241.222ZM256.374 241.126C256.406 241.126 256.434 241.118 256.458 241.102C256.482 241.086 256.501 241.063 256.513 241.034C256.527 241.005 256.533 240.972 256.533 240.933C256.533 240.895 256.527 240.862 256.513 240.833C256.501 240.803 256.482 240.781 256.458 240.765C256.434 240.749 256.406 240.741 256.374 240.741C256.343 240.741 256.315 240.749 256.29 240.765C256.266 240.781 256.248 240.803 256.234 240.833C256.222 240.862 256.215 240.895 256.215 240.933C256.215 240.972 256.222 241.005 256.234 241.034C256.248 241.063 256.266 241.086 256.29 241.102C256.315 241.118 256.343 241.126 256.374 241.126ZM256.792 240.662H256.933L257.127 241.069H257.129V240.662H257.234V241.205H257.094L256.899 240.799H256.898V241.205H256.792V240.662ZM257.541 240.662H257.679L257.856 241.205H257.742L257.707 241.091H257.512L257.478 241.205H257.365L257.541 240.662ZM257.687 241.007L257.612 240.756H257.61L257.532 241.007H257.687ZM257.985 240.662H258.097V241.109H258.3V241.205H257.985V240.662ZM258.915 241.222C258.861 241.222 258.814 241.21 258.774 241.186C258.735 241.163 258.704 241.13 258.683 241.086C258.661 241.043 258.651 240.992 258.651 240.933C258.651 240.875 258.66 240.824 258.68 240.781C258.701 240.737 258.73 240.703 258.767 240.68C258.805 240.657 258.849 240.645 258.9 240.645C258.959 240.645 259.008 240.663 259.048 240.699C259.088 240.734 259.114 240.783 259.124 240.846L259.02 240.866C259.013 240.826 258.999 240.796 258.978 240.774C258.957 240.752 258.931 240.741 258.899 240.741C258.857 240.741 258.823 240.758 258.799 240.793C258.774 240.827 258.762 240.874 258.762 240.933C258.762 240.993 258.776 241.039 258.803 241.073C258.83 241.107 258.868 241.125 258.915 241.125C258.953 241.125 258.985 241.112 259.011 241.086C259.037 241.059 259.054 241.023 259.06 240.978L259.164 240.997C259.158 241.043 259.144 241.083 259.121 241.117C259.1 241.151 259.071 241.177 259.035 241.195C259 241.213 258.96 241.222 258.915 241.222ZM259.302 240.662H259.637V240.753H259.41V240.885H259.607V240.967H259.41V241.113H259.645V241.205H259.302V240.662ZM260.149 241.219C260.125 241.219 260.105 241.212 260.089 241.199C260.073 241.185 260.062 241.167 260.056 241.144L260.029 241.044C260.025 241.028 260.017 241.015 260.006 241.005C259.994 240.995 259.982 240.99 259.969 240.99H259.899V241.205H259.787V240.662H260.014C260.053 240.662 260.087 240.669 260.117 240.683C260.147 240.696 260.17 240.716 260.186 240.741C260.202 240.766 260.211 240.795 260.211 240.828C260.211 240.863 260.2 240.893 260.178 240.919C260.156 240.945 260.127 240.962 260.09 240.971V240.972C260.115 240.983 260.131 241.005 260.138 241.036L260.158 241.113C260.163 241.131 260.171 241.141 260.183 241.141C260.195 241.141 260.206 241.133 260.217 241.117L260.25 241.173C260.237 241.187 260.222 241.198 260.204 241.206C260.187 241.215 260.168 241.219 260.149 241.219ZM260.006 240.907C260.034 240.907 260.056 240.9 260.074 240.886C260.091 240.871 260.1 240.852 260.1 240.829C260.1 240.805 260.091 240.786 260.074 240.771C260.057 240.757 260.034 240.749 260.006 240.749H259.899V240.907H260.006ZM260.472 240.758H260.326V240.662H260.73V240.758H260.584V241.205H260.472V240.758ZM260.864 240.662H260.976V241.205H260.864V240.662ZM261.142 240.662H261.462V240.758H261.253V240.901H261.417V240.988H261.253V241.205H261.142V240.662ZM261.602 240.662H261.713V241.205H261.602V240.662ZM261.879 240.662H262.215V240.753H261.987V240.885H262.184V240.967H261.987V241.113H262.223V241.205H261.879V240.662ZM262.365 240.662H262.562C262.648 240.662 262.714 240.686 262.761 240.732C262.807 240.779 262.83 240.846 262.83 240.933C262.83 241.021 262.807 241.088 262.761 241.135C262.714 241.181 262.648 241.205 262.562 241.205H262.365V240.662ZM262.561 241.113C262.612 241.113 262.651 241.098 262.678 241.067C262.705 241.036 262.719 240.992 262.719 240.933C262.719 240.875 262.705 240.831 262.678 240.8C262.651 240.769 262.612 240.753 262.561 240.753H262.474V241.113H262.561ZM253.807 242.297C253.822 242.297 253.834 242.292 253.845 242.284C253.857 242.275 253.865 242.264 253.869 242.251L253.917 242.311C253.909 242.331 253.895 242.347 253.872 242.359C253.85 242.372 253.824 242.378 253.794 242.378C253.755 242.378 253.722 242.367 253.696 242.345C253.671 242.322 253.659 242.293 253.659 242.258V242.218C253.614 242.211 253.575 242.195 253.542 242.17C253.509 242.145 253.483 242.112 253.465 242.072C253.447 242.031 253.438 241.985 253.438 241.933C253.438 241.876 253.449 241.825 253.472 241.782C253.494 241.738 253.526 241.705 253.566 241.681C253.607 241.657 253.655 241.645 253.709 241.645C253.763 241.645 253.81 241.657 253.85 241.681C253.891 241.705 253.922 241.738 253.945 241.782C253.967 241.825 253.979 241.876 253.979 241.933C253.979 241.985 253.969 242.031 253.951 242.072C253.933 242.112 253.907 242.145 253.874 242.17C253.84 242.196 253.801 242.212 253.756 242.219V242.242C253.756 242.259 253.761 242.272 253.77 242.281C253.779 242.291 253.791 242.297 253.807 242.297ZM253.55 241.933C253.55 241.972 253.556 242.005 253.569 242.034C253.582 242.063 253.601 242.086 253.625 242.102C253.649 242.118 253.677 242.126 253.709 242.126C253.74 242.126 253.768 242.118 253.792 242.102C253.816 242.086 253.835 242.063 253.848 242.034C253.861 242.005 253.868 241.972 253.868 241.933C253.868 241.895 253.861 241.862 253.848 241.833C253.835 241.803 253.816 241.781 253.792 241.765C253.768 241.749 253.74 241.741 253.709 241.741C253.677 241.741 253.649 241.749 253.625 241.765C253.601 241.781 253.582 241.803 253.569 241.833C253.556 241.862 253.55 241.895 253.55 241.933ZM254.337 242.222C254.293 242.222 254.254 242.213 254.221 242.197C254.189 242.18 254.165 242.157 254.147 242.126C254.13 242.095 254.121 242.059 254.121 242.017V241.662H254.232V242.012C254.232 242.046 254.242 242.073 254.26 242.095C254.28 242.116 254.305 242.126 254.337 242.126C254.369 242.126 254.394 242.116 254.413 242.096C254.431 242.075 254.441 242.047 254.441 242.011V241.662H254.553V242.017C254.553 242.059 254.544 242.095 254.527 242.126C254.509 242.157 254.484 242.18 254.452 242.197C254.419 242.213 254.381 242.222 254.337 242.222ZM254.83 241.662H254.969L255.145 242.205H255.031L254.997 242.091H254.802L254.768 242.205H254.654L254.83 241.662ZM254.977 242.007L254.901 241.756H254.9L254.822 242.007H254.977ZM255.275 241.662H255.386V242.109H255.59V242.205H255.275V241.662ZM255.724 241.662H255.836V242.205H255.724V241.662ZM256.117 241.758H255.971V241.662H256.375V241.758H256.229V242.205H256.117V241.758ZM256.646 242.014L256.474 241.662H256.591L256.702 241.911H256.703L256.808 241.662H256.928L256.758 242.014V242.205H256.646V242.014ZM257.291 241.662H257.626V241.753H257.399V241.885H257.596V241.967H257.399V242.113H257.634V242.205H257.291V241.662ZM257.971 242.222C257.929 242.222 257.891 242.214 257.859 242.199C257.826 242.183 257.8 242.162 257.781 242.134C257.762 242.105 257.752 242.072 257.75 242.034L257.854 242.016C257.855 242.051 257.867 242.08 257.889 242.102C257.912 242.123 257.941 242.134 257.975 242.134C258.003 242.134 258.026 242.127 258.043 242.113C258.06 242.099 258.069 242.081 258.069 242.06C258.069 242.042 258.063 242.028 258.05 242.017C258.037 242.005 258.017 241.995 257.989 241.987L257.914 241.966C257.864 241.952 257.827 241.933 257.804 241.909C257.782 241.884 257.771 241.851 257.771 241.811C257.771 241.779 257.778 241.75 257.793 241.725C257.808 241.7 257.83 241.68 257.859 241.667C257.887 241.652 257.921 241.645 257.959 241.645C257.994 241.645 258.025 241.652 258.053 241.665C258.081 241.678 258.103 241.697 258.119 241.722C258.136 241.746 258.146 241.773 258.148 241.805L258.046 241.826C258.045 241.798 258.036 241.776 258.019 241.758C258.003 241.741 257.982 241.732 257.957 241.732C257.933 241.732 257.914 241.739 257.899 241.752C257.885 241.765 257.878 241.781 257.878 241.801C257.878 241.819 257.884 241.834 257.895 241.846C257.908 241.857 257.927 241.866 257.953 241.873L258.028 241.894C258.079 241.907 258.117 241.926 258.141 241.951C258.165 241.976 258.177 242.009 258.177 242.05C258.177 242.083 258.168 242.113 258.151 242.139C258.135 242.165 258.111 242.185 258.08 242.2C258.049 242.215 258.013 242.222 257.971 242.222ZM258.404 241.758H258.258V241.662H258.662V241.758H258.516V242.205H258.404V241.758ZM258.771 242.214C258.753 242.214 258.738 242.208 258.726 242.197C258.715 242.185 258.709 242.171 258.709 242.153C258.709 242.136 258.715 242.121 258.726 242.11C258.738 242.098 258.753 242.092 258.771 242.092C258.789 242.092 258.804 242.098 258.816 242.109C258.828 242.12 258.833 242.135 258.833 242.153C258.833 242.171 258.828 242.185 258.816 242.197C258.804 242.208 258.789 242.214 258.771 242.214ZM259.209 242.154C259.209 242.103 259.218 242.062 259.237 242.031C259.256 241.999 259.288 241.971 259.334 241.947L259.402 241.908C259.426 241.895 259.443 241.881 259.453 241.868C259.463 241.853 259.467 241.836 259.467 241.814C259.467 241.791 259.462 241.772 259.45 241.758C259.438 241.744 259.423 241.737 259.403 241.737C259.381 241.737 259.363 241.747 259.349 241.768C259.336 241.788 259.329 241.817 259.328 241.855L259.219 241.835C259.22 241.798 259.228 241.765 259.244 241.736C259.26 241.708 259.282 241.686 259.31 241.67C259.338 241.655 259.37 241.647 259.406 241.647C259.44 241.647 259.47 241.654 259.496 241.668C259.522 241.682 259.543 241.702 259.557 241.727C259.571 241.753 259.578 241.782 259.578 241.815C259.578 241.852 259.57 241.882 259.553 241.907C259.536 241.931 259.508 241.954 259.467 241.975L259.393 242.017C259.367 242.032 259.349 242.047 259.339 242.063C259.329 242.078 259.324 242.097 259.324 242.119H259.578V242.205H259.209V242.154ZM259.943 242.22C259.899 242.22 259.861 242.209 259.828 242.186C259.795 242.162 259.77 242.129 259.752 242.086C259.735 242.042 259.726 241.992 259.726 241.933C259.726 241.875 259.735 241.824 259.752 241.781C259.77 241.738 259.795 241.705 259.828 241.682C259.861 241.658 259.899 241.647 259.943 241.647C259.987 241.647 260.025 241.658 260.057 241.682C260.09 241.705 260.115 241.738 260.133 241.781C260.151 241.825 260.16 241.875 260.16 241.933C260.16 241.992 260.151 242.042 260.133 242.086C260.115 242.129 260.09 242.162 260.057 242.186C260.025 242.209 259.987 242.22 259.943 242.22ZM259.943 242.126C259.977 242.126 260.004 242.109 260.023 242.075C260.042 242.041 260.052 241.994 260.052 241.933C260.052 241.873 260.042 241.826 260.023 241.792C260.004 241.757 259.977 241.74 259.943 241.74C259.909 241.74 259.882 241.757 259.862 241.792C259.843 241.826 259.833 241.873 259.833 241.933C259.833 241.993 259.843 242.04 259.862 242.075C259.882 242.109 259.909 242.126 259.943 242.126ZM260.309 242.154C260.309 242.103 260.318 242.062 260.337 242.031C260.356 241.999 260.388 241.971 260.433 241.947L260.502 241.908C260.526 241.895 260.543 241.881 260.552 241.868C260.562 241.853 260.567 241.836 260.567 241.814C260.567 241.791 260.561 241.772 260.549 241.758C260.538 241.744 260.522 241.737 260.503 241.737C260.48 241.737 260.462 241.747 260.448 241.768C260.435 241.788 260.428 241.817 260.428 241.855L260.319 241.835C260.32 241.798 260.328 241.765 260.344 241.736C260.36 241.708 260.381 241.686 260.409 241.67C260.438 241.655 260.47 241.647 260.506 241.647C260.54 241.647 260.57 241.654 260.596 241.668C260.622 241.682 260.642 241.702 260.656 241.727C260.671 241.753 260.678 241.782 260.678 241.815C260.678 241.852 260.669 241.882 260.653 241.907C260.636 241.931 260.607 241.954 260.567 241.975L260.493 242.017C260.467 242.032 260.449 242.047 260.439 242.063C260.428 242.078 260.423 242.097 260.423 242.119H260.678V242.205H260.309V242.154ZM260.812 242.115H260.926V241.8H260.925C260.911 241.824 260.886 241.843 260.85 241.857L260.815 241.765C260.845 241.756 260.87 241.743 260.89 241.726C260.911 241.708 260.925 241.687 260.934 241.662H261.035V242.115H261.127V242.205H260.812V242.115Z" fill="#202020"/>
<g clip-path="url(#clip8_182_589384)">
<path d="M299.077 225.784L299.258 225.784L299.258 225.784L299.077 225.784ZM304.384 225.784L304.565 225.784L304.565 225.784L304.384 225.784ZM309.69 225.784L309.871 225.784L309.871 225.784L309.69 225.784ZM315.881 225.784L316.062 225.784L316.062 225.784L315.881 225.784ZM295.54 234.628L295.54 234.809C296.094 234.809 296.604 234.527 297.048 234.057C297.492 233.588 297.884 232.918 298.209 232.105C298.86 230.478 299.258 228.243 299.258 225.784L299.077 225.784L298.896 225.784C298.896 228.209 298.503 230.396 297.873 231.97C297.558 232.758 297.188 233.383 296.785 233.809C296.384 234.234 295.963 234.447 295.54 234.447L295.54 234.628ZM299.077 225.784L299.258 225.784C299.258 223.325 298.86 221.09 298.209 219.464C297.884 218.651 297.493 217.981 297.048 217.511C296.604 217.041 296.094 216.76 295.54 216.76L295.54 216.94L295.54 217.121C295.963 217.121 296.384 217.335 296.785 217.76C297.188 218.185 297.558 218.81 297.873 219.598C298.503 221.172 298.896 223.359 298.896 225.784L299.077 225.784ZM295.54 216.94L295.54 217.121C300.324 217.121 304.203 221 304.203 225.784L304.384 225.784L304.565 225.784C304.565 220.8 300.524 216.76 295.54 216.76L295.54 216.94ZM304.384 225.784L304.203 225.784C304.203 230.568 300.324 234.447 295.54 234.447L295.54 234.628L295.54 234.809C300.524 234.809 304.565 230.768 304.565 225.784L304.384 225.784ZM295.54 234.628L295.54 234.809C299.476 234.809 303.048 233.812 305.642 232.191C308.233 230.572 309.871 228.311 309.871 225.784L309.69 225.784L309.51 225.784C309.509 228.141 307.98 230.303 305.45 231.884C302.922 233.464 299.419 234.447 295.54 234.447L295.54 234.628ZM309.69 225.784L309.871 225.784C309.871 223.257 308.233 220.997 305.642 219.377C303.048 217.756 299.476 216.76 295.54 216.76L295.54 216.94L295.54 217.121C299.419 217.121 302.922 218.104 305.45 219.684C307.98 221.265 309.51 223.427 309.51 225.784L309.69 225.784ZM295.54 216.94L295.54 217.121C301.138 217.121 306.198 218.108 309.851 219.697C311.678 220.491 313.145 221.432 314.153 222.468C315.16 223.503 315.7 224.623 315.7 225.784L315.881 225.784L316.062 225.784C316.062 224.503 315.464 223.297 314.412 222.216C313.361 221.135 311.849 220.171 309.995 219.365C306.287 217.752 301.176 216.76 295.54 216.76L295.54 216.94ZM315.881 225.784L315.7 225.784C315.7 226.945 315.159 228.065 314.153 229.1C313.145 230.136 311.678 231.077 309.851 231.872C306.198 233.46 301.138 234.447 295.54 234.447L295.54 234.628L295.54 234.809C301.176 234.809 306.286 233.816 309.995 232.204C311.849 231.397 313.361 230.433 314.412 229.353C315.464 228.272 316.062 227.065 316.062 225.784L315.881 225.784Z" fill="#202020"/>
</g>
<g clip-path="url(#clip9_182_589384)">
<path d="M278.014 225.784L277.833 225.784V225.784H278.014ZM272.708 225.784L272.527 225.784V225.784H272.708ZM267.401 225.784L267.22 225.784V225.784H267.401ZM261.211 225.784L261.03 225.784V225.784H261.211ZM281.552 234.628V234.809C280.998 234.809 280.488 234.527 280.043 234.057C279.599 233.588 279.207 232.918 278.882 232.105C278.231 230.478 277.833 228.243 277.833 225.784L278.014 225.784L278.195 225.784C278.195 228.209 278.588 230.396 279.218 231.97C279.533 232.758 279.904 233.383 280.306 233.809C280.708 234.234 281.129 234.447 281.552 234.447V234.628ZM278.014 225.784H277.833C277.833 223.325 278.231 221.09 278.882 219.464C279.207 218.651 279.599 217.981 280.043 217.511C280.488 217.041 280.998 216.76 281.552 216.76V216.94V217.121C281.129 217.121 280.708 217.335 280.306 217.76C279.904 218.185 279.533 218.81 279.218 219.598C278.588 221.172 278.195 223.359 278.195 225.784H278.014ZM281.552 216.94V217.121C276.767 217.121 272.889 221 272.889 225.784H272.708H272.527C272.527 220.8 276.568 216.76 281.552 216.76V216.94ZM272.708 225.784L272.889 225.784C272.889 230.568 276.767 234.447 281.552 234.447V234.628V234.809C276.568 234.809 272.527 230.768 272.527 225.784L272.708 225.784ZM281.552 234.628V234.809C277.616 234.809 274.044 233.812 271.45 232.191C268.859 230.572 267.221 228.311 267.22 225.784L267.401 225.784L267.582 225.784C267.582 228.141 269.112 230.303 271.642 231.884C274.17 233.464 277.673 234.447 281.552 234.447V234.628ZM267.401 225.784H267.22C267.22 223.257 268.859 220.997 271.45 219.377C274.044 217.756 277.616 216.76 281.552 216.76V216.94V217.121C277.673 217.121 274.17 218.104 271.642 219.684C269.112 221.265 267.582 223.427 267.582 225.784H267.401ZM281.552 216.94V217.121C275.954 217.121 270.894 218.108 267.241 219.697C265.414 220.491 263.947 221.432 262.939 222.468C261.932 223.503 261.392 224.623 261.392 225.784H261.211H261.03C261.03 224.503 261.628 223.297 262.68 222.216C263.731 221.135 265.242 220.171 267.097 219.365C270.805 217.752 275.916 216.76 281.552 216.76V216.94ZM261.211 225.784L261.392 225.784C261.392 226.945 261.932 228.065 262.939 229.1C263.947 230.136 265.414 231.077 267.241 231.872C270.894 233.46 275.954 234.447 281.552 234.447V234.628V234.809C275.916 234.809 270.805 233.816 267.097 232.203C265.243 231.397 263.731 230.433 262.68 229.353C261.628 228.272 261.03 227.065 261.03 225.784L261.211 225.784Z" fill="#202020"/>
</g>
<mask id="path-22-inside-2_182_589384" fill="white">
<path d="M295.343 234.849C294.091 234.848 293.077 230.79 293.077 225.784C293.077 220.778 294.091 216.719 295.343 216.719C296.594 216.719 297.609 220.778 297.609 225.784C297.609 230.791 296.594 234.849 295.343 234.849ZM290.811 234.849C289.559 234.848 288.545 230.79 288.545 225.784C288.545 220.778 289.559 216.719 290.811 216.719C292.062 216.719 293.077 220.778 293.077 225.784C293.077 230.791 292.062 234.849 290.811 234.849ZM286.278 234.849C285.027 234.849 284.012 230.791 284.012 225.784C284.012 220.778 285.027 216.719 286.278 216.719C287.53 216.72 288.544 220.778 288.544 225.784C288.544 230.79 287.53 234.848 286.278 234.849ZM281.746 234.849C280.495 234.849 279.48 230.791 279.479 225.784C279.479 220.778 280.494 216.719 281.746 216.719C282.998 216.72 284.012 220.778 284.012 225.784C284.012 230.79 282.998 234.848 281.746 234.849Z"/>
</mask>
<path d="M295.343 234.849L295.343 235.211L295.343 235.211L295.343 234.849ZM293.077 225.784L292.715 225.784L292.715 225.784L293.077 225.784ZM295.343 216.719L295.343 216.357L295.343 216.357L295.343 216.719ZM297.609 225.784L297.971 225.784L297.971 225.784L297.609 225.784ZM290.811 234.849L290.81 235.211L290.811 235.211L290.811 234.849ZM288.545 225.784L288.183 225.784L288.183 225.784L288.545 225.784ZM290.811 216.719L290.811 216.357L290.81 216.357L290.811 216.719ZM293.077 225.784L293.439 225.784L293.439 225.784L293.077 225.784ZM286.278 234.849L286.278 235.211L286.278 235.211L286.278 234.849ZM284.012 225.784L283.65 225.784L283.65 225.784L284.012 225.784ZM286.278 216.719L286.278 216.357L286.278 216.357L286.278 216.719ZM288.544 225.784L288.906 225.784L288.906 225.784L288.544 225.784ZM281.746 234.849L281.746 235.211L281.746 235.211L281.746 234.849ZM279.479 225.784L279.118 225.784L279.118 225.784L279.479 225.784ZM281.746 216.719L281.746 216.357L281.746 216.357L281.746 216.719ZM284.012 225.784L284.374 225.784L284.374 225.784L284.012 225.784ZM295.343 234.849L295.343 234.487C295.237 234.487 295.032 234.392 294.772 233.952C294.527 233.536 294.293 232.911 294.092 232.106C293.691 230.502 293.439 228.267 293.439 225.784L293.077 225.784L292.715 225.784C292.715 228.308 292.971 230.605 293.39 232.281C293.599 233.117 293.853 233.819 294.149 234.32C294.431 234.798 294.823 235.21 295.343 235.211L295.343 234.849ZM293.077 225.784L293.439 225.784C293.439 223.302 293.691 221.067 294.092 219.462C294.293 218.657 294.527 218.032 294.772 217.616C295.032 217.176 295.237 217.081 295.343 217.081L295.343 216.719L295.343 216.357C294.823 216.357 294.431 216.77 294.149 217.248C293.853 217.749 293.598 218.451 293.39 219.287C292.971 220.964 292.715 223.261 292.715 225.784L293.077 225.784ZM295.343 216.719L295.343 217.081C295.449 217.081 295.653 217.175 295.913 217.616C296.159 218.031 296.393 218.657 296.594 219.462C296.996 221.066 297.248 223.302 297.248 225.784L297.609 225.784L297.971 225.784C297.971 223.261 297.716 220.963 297.296 219.287C297.087 218.451 296.833 217.749 296.536 217.247C296.254 216.77 295.863 216.357 295.343 216.357L295.343 216.719ZM297.609 225.784L297.248 225.784C297.248 228.267 296.996 230.502 296.594 232.106C296.393 232.911 296.159 233.537 295.913 233.952C295.653 234.392 295.449 234.487 295.343 234.487L295.343 234.849L295.343 235.211C295.863 235.211 296.254 234.798 296.536 234.321C296.833 233.819 297.087 233.117 297.296 232.282C297.716 230.605 297.971 228.308 297.971 225.784L297.609 225.784ZM290.811 234.849L290.811 234.487C290.705 234.487 290.5 234.392 290.24 233.952C289.994 233.536 289.761 232.911 289.559 232.106C289.159 230.502 288.907 228.267 288.907 225.784L288.545 225.784L288.183 225.784C288.183 228.308 288.438 230.605 288.857 232.281C289.066 233.117 289.321 233.819 289.617 234.32C289.899 234.798 290.291 235.21 290.81 235.211L290.811 234.849ZM288.545 225.784L288.907 225.784C288.907 223.302 289.159 221.067 289.559 219.462C289.761 218.657 289.994 218.032 290.24 217.616C290.5 217.176 290.705 217.081 290.811 217.081L290.811 216.719L290.81 216.357C290.291 216.357 289.899 216.77 289.617 217.248C289.321 217.749 289.066 218.451 288.857 219.287C288.438 220.964 288.183 223.261 288.183 225.784L288.545 225.784ZM290.811 216.719L290.811 217.081C290.917 217.081 291.121 217.175 291.381 217.616C291.627 218.031 291.861 218.657 292.062 219.462C292.463 221.066 292.715 223.302 292.715 225.784L293.077 225.784L293.439 225.784C293.439 223.261 293.183 220.963 292.764 219.287C292.555 218.451 292.301 217.749 292.004 217.247C291.722 216.77 291.33 216.357 290.811 216.357L290.811 216.719ZM293.077 225.784L292.715 225.784C292.715 228.267 292.463 230.502 292.062 232.106C291.861 232.911 291.627 233.537 291.381 233.952C291.121 234.392 290.917 234.487 290.811 234.487L290.811 234.849L290.811 235.211C291.33 235.211 291.722 234.798 292.004 234.321C292.301 233.819 292.555 233.117 292.764 232.282C293.183 230.605 293.439 228.308 293.439 225.784L293.077 225.784ZM286.278 234.849L286.278 234.487C286.172 234.487 285.968 234.392 285.708 233.952C285.462 233.537 285.228 232.911 285.027 232.106C284.626 230.502 284.374 228.267 284.374 225.784L284.012 225.784L283.65 225.784C283.65 228.308 283.905 230.605 284.325 232.282C284.534 233.117 284.788 233.819 285.085 234.321C285.367 234.798 285.759 235.211 286.278 235.211L286.278 234.849ZM284.012 225.784L284.374 225.784C284.374 223.302 284.626 221.066 285.027 219.462C285.228 218.657 285.462 218.031 285.708 217.616C285.968 217.175 286.172 217.081 286.278 217.081L286.278 216.719L286.278 216.357C285.759 216.357 285.367 216.77 285.085 217.247C284.788 217.749 284.534 218.451 284.325 219.287C283.905 220.963 283.65 223.261 283.65 225.784L284.012 225.784ZM286.278 216.719L286.278 217.081C286.384 217.081 286.589 217.176 286.849 217.616C287.094 218.032 287.328 218.657 287.529 219.462C287.93 221.067 288.182 223.302 288.182 225.784L288.544 225.784L288.906 225.784C288.906 223.261 288.65 220.964 288.231 219.287C288.023 218.451 287.768 217.749 287.472 217.248C287.19 216.77 286.798 216.357 286.278 216.357L286.278 216.719ZM288.544 225.784L288.182 225.784C288.182 228.267 287.93 230.502 287.529 232.106C287.328 232.911 287.094 233.536 286.849 233.952C286.589 234.392 286.384 234.487 286.278 234.487L286.278 234.849L286.278 235.211C286.798 235.21 287.19 234.798 287.472 234.32C287.768 233.819 288.023 233.117 288.231 232.281C288.65 230.605 288.906 228.308 288.906 225.784L288.544 225.784ZM281.746 234.849L281.746 234.487C281.64 234.487 281.435 234.392 281.175 233.952C280.93 233.537 280.696 232.911 280.494 232.106C280.093 230.502 279.841 228.267 279.841 225.784L279.479 225.784L279.118 225.784C279.118 228.308 279.373 230.605 279.792 232.282C280.001 233.117 280.256 233.819 280.552 234.321C280.835 234.798 281.226 235.211 281.746 235.211L281.746 234.849ZM279.479 225.784L279.841 225.784C279.841 223.302 280.093 221.066 280.494 219.462C280.696 218.657 280.93 218.031 281.175 217.616C281.435 217.175 281.64 217.081 281.746 217.081L281.746 216.719L281.746 216.357C281.226 216.357 280.835 216.77 280.552 217.247C280.256 217.749 280.001 218.451 279.792 219.287C279.373 220.963 279.118 223.261 279.118 225.784L279.479 225.784ZM281.746 216.719L281.746 217.081C281.852 217.081 282.057 217.176 282.317 217.616C282.562 218.032 282.796 218.657 282.997 219.462C283.398 221.067 283.65 223.302 283.65 225.784L284.012 225.784L284.374 225.784C284.374 223.261 284.118 220.964 283.699 219.287C283.49 218.451 283.236 217.749 282.94 217.248C282.657 216.77 282.266 216.357 281.746 216.357L281.746 216.719ZM284.012 225.784L283.65 225.784C283.65 228.267 283.398 230.502 282.997 232.106C282.796 232.911 282.562 233.536 282.317 233.952C282.057 234.392 281.852 234.487 281.746 234.487L281.746 234.849L281.746 235.211C282.266 235.21 282.657 234.798 282.94 234.32C283.236 233.819 283.49 233.117 283.699 232.281C284.118 230.605 284.373 228.308 284.374 225.784L284.012 225.784Z" fill="#202020" mask="url(#path-22-inside-2_182_589384)"/>
</g>
<mask id="path-24-inside-3_182_589384" fill="white">
<path d="M433.781 223.257C437.59 219.447 442.222 217.903 444.127 219.807C446.032 221.712 444.488 226.344 440.678 230.154C439.906 230.926 439.098 231.604 438.287 232.18C440.748 230.958 443.011 230.799 444.204 231.992C446.109 233.897 444.565 238.53 440.755 242.34C436.946 246.149 432.313 247.693 430.408 245.788C428.504 243.883 430.048 239.251 433.858 235.441C434.631 234.668 435.438 233.988 436.249 233.412C433.788 234.635 431.525 234.797 430.331 233.603C428.427 231.698 429.971 227.066 433.781 223.257Z"/>
</mask>
<path d="M433.781 223.257L433.448 222.924L433.448 222.924L433.781 223.257ZM444.127 219.807L444.46 219.474L444.46 219.474L444.127 219.807ZM440.678 230.154L441.011 230.487L441.011 230.487L440.678 230.154ZM438.287 232.18L438.015 231.797L438.497 232.602L438.287 232.18ZM444.204 231.992L444.537 231.659L444.537 231.659L444.204 231.992ZM440.755 242.34L441.088 242.672L441.088 242.672L440.755 242.34ZM430.408 245.788L430.076 246.121L430.076 246.121L430.408 245.788ZM433.858 235.441L433.525 235.108L433.525 235.108L433.858 235.441ZM436.249 233.412L436.522 233.795L436.04 232.99L436.249 233.412ZM430.331 233.603L429.999 233.936L429.999 233.936L430.331 233.603ZM433.781 223.257L434.113 223.589C435.978 221.725 438.028 220.432 439.817 219.836C441.636 219.229 443.036 219.382 443.794 220.14L444.127 219.807L444.46 219.474C443.314 218.328 441.445 218.301 439.519 218.943C437.564 219.594 435.393 220.978 433.448 222.924L433.781 223.257ZM444.127 219.807L443.794 220.14C444.553 220.899 444.706 222.298 444.099 224.117C443.502 225.907 442.21 227.957 440.345 229.821L440.678 230.154L441.011 230.487C442.956 228.542 444.34 226.37 444.992 224.415C445.634 222.49 445.606 220.621 444.46 219.474L444.127 219.807ZM440.678 230.154L440.345 229.821C439.591 230.575 438.804 231.236 438.015 231.797L438.287 232.18L438.56 232.564C439.392 231.972 440.22 231.278 441.011 230.487L440.678 230.154ZM438.287 232.18L438.497 232.602C439.688 232.01 440.803 231.691 441.741 231.651C442.678 231.611 443.396 231.849 443.872 232.325L444.204 231.992L444.537 231.659C443.819 230.942 442.81 230.663 441.701 230.71C440.594 230.757 439.348 231.128 438.078 231.759L438.287 232.18ZM444.204 231.992L443.872 232.325C444.63 233.083 444.783 234.483 444.176 236.303C443.58 238.092 442.287 240.142 440.422 242.007L440.755 242.34L441.088 242.672C443.033 240.727 444.417 238.556 445.069 236.6C445.711 234.675 445.684 232.805 444.537 231.659L444.204 231.992ZM440.755 242.34L440.422 242.007C438.558 243.871 436.508 245.164 434.719 245.76C432.899 246.366 431.5 246.213 430.741 245.455L430.408 245.788L430.076 246.121C431.222 247.267 433.091 247.295 435.016 246.653C436.972 246.001 439.143 244.618 441.088 242.672L440.755 242.34ZM430.408 245.788L430.741 245.455C429.983 244.697 429.83 243.297 430.437 241.477C431.033 239.688 432.326 237.638 434.191 235.774L433.858 235.441L433.525 235.108C431.58 237.053 430.196 239.224 429.544 241.18C428.902 243.105 428.929 244.974 430.076 246.121L430.408 245.788ZM433.858 235.441L434.191 235.774C434.946 235.019 435.733 234.356 436.522 233.795L436.249 233.412L435.977 233.028C435.143 233.62 434.316 234.317 433.525 235.108L433.858 235.441ZM436.249 233.412L436.04 232.99C434.848 233.582 433.732 233.903 432.794 233.943C431.858 233.984 431.14 233.746 430.664 233.27L430.331 233.603L429.999 233.936C430.716 234.654 431.726 234.932 432.835 234.884C433.942 234.836 435.189 234.464 436.459 233.833L436.249 233.412ZM430.331 233.603L430.664 233.27C429.906 232.512 429.753 231.112 430.36 229.293C430.956 227.504 432.249 225.454 434.113 223.589L433.781 223.257L433.448 222.924C431.503 224.869 430.118 227.04 429.467 228.995C428.825 230.921 428.852 232.79 429.999 233.936L430.331 233.603Z" fill="#202020" mask="url(#path-24-inside-3_182_589384)"/>
<g clip-path="url(#clip10_182_589384)">
<path d="M453.688 226.004C453.461 226.004 453.259 225.963 453.084 225.881C452.908 225.799 452.768 225.682 452.664 225.531C452.562 225.378 452.507 225.199 452.499 224.996L453.059 224.898C453.064 225.087 453.127 225.24 453.248 225.358C453.372 225.474 453.525 225.531 453.709 225.531C453.863 225.531 453.985 225.494 454.075 225.42C454.168 225.343 454.215 225.247 454.215 225.132C454.215 225.039 454.181 224.962 454.112 224.902C454.044 224.839 453.934 224.785 453.783 224.741L453.38 224.626C453.111 224.555 452.915 224.453 452.791 224.321C452.671 224.187 452.61 224.012 452.61 223.795C452.61 223.619 452.65 223.464 452.73 223.33C452.812 223.195 452.93 223.091 453.084 223.017C453.237 222.94 453.417 222.902 453.623 222.902C453.812 222.902 453.981 222.938 454.129 223.009C454.279 223.08 454.399 223.182 454.487 223.313C454.577 223.442 454.628 223.592 454.639 223.762L454.092 223.877C454.086 223.726 454.038 223.604 453.948 223.511C453.86 223.418 453.749 223.371 453.614 223.371C453.485 223.371 453.381 223.407 453.302 223.478C453.225 223.547 453.186 223.634 453.186 223.741C453.186 223.837 453.218 223.917 453.281 223.98C453.347 224.04 453.451 224.09 453.594 224.128L453.993 224.239C454.27 224.311 454.473 224.413 454.602 224.548C454.731 224.682 454.795 224.859 454.795 225.079C454.795 225.26 454.75 225.42 454.659 225.56C454.572 225.7 454.444 225.81 454.277 225.889C454.109 225.966 453.913 226.004 453.688 226.004ZM455.445 223.507L454.659 223.507L454.659 222.992L456.831 222.992L456.831 223.507L456.045 223.507L456.045 225.914L455.445 225.914L455.445 223.507ZM456.979 222.992L458.785 222.992L458.785 223.482L457.559 223.482L457.559 224.194L458.621 224.194L458.621 224.634L457.559 224.634L457.559 225.42L458.827 225.42L458.827 225.914L456.979 225.914L456.979 222.992ZM459.015 222.992L460.237 222.992C460.445 222.992 460.629 223.03 460.788 223.104C460.95 223.178 461.075 223.282 461.162 223.416C461.25 223.551 461.294 223.707 461.294 223.885C461.294 224.061 461.242 224.219 461.138 224.359C461.036 224.496 460.9 224.59 460.73 224.642L461.306 225.914L460.665 225.914L460.167 224.758L459.615 224.758L459.615 225.914L459.015 225.914L459.015 222.992ZM460.195 224.313C460.344 224.313 460.464 224.275 460.558 224.198C460.651 224.119 460.697 224.017 460.697 223.894C460.697 223.762 460.651 223.658 460.558 223.581C460.467 223.501 460.346 223.462 460.195 223.462L459.615 223.462L459.615 224.313L460.195 224.313ZM461.524 222.992L463.33 222.992L463.33 223.482L462.104 223.482L462.104 224.194L463.166 224.194L463.166 224.634L462.104 224.634L462.104 225.42L463.372 225.42L463.372 225.914L461.524 225.914L461.524 222.992ZM464.849 226.004C464.558 226.004 464.303 225.941 464.084 225.815C463.864 225.686 463.694 225.505 463.574 225.272C463.453 225.036 463.393 224.763 463.393 224.453C463.393 224.143 463.453 223.872 463.574 223.638C463.694 223.403 463.864 223.222 464.084 223.095C464.303 222.966 464.558 222.902 464.849 222.902C465.14 222.902 465.394 222.966 465.61 223.095C465.83 223.222 466 223.403 466.121 223.638C466.241 223.872 466.302 224.143 466.302 224.453C466.302 224.76 466.241 225.032 466.121 225.268C466 225.501 465.83 225.682 465.61 225.811C465.391 225.94 465.137 226.004 464.849 226.004ZM464.849 225.49C465.019 225.49 465.169 225.448 465.298 225.362C465.429 225.275 465.529 225.153 465.598 224.996C465.669 224.84 465.705 224.659 465.705 224.453C465.705 224.247 465.669 224.066 465.598 223.91C465.529 223.754 465.429 223.633 465.298 223.548C465.169 223.46 465.019 223.416 464.849 223.416C464.679 223.416 464.528 223.46 464.397 223.548C464.268 223.633 464.168 223.754 464.096 223.91C464.028 224.066 463.993 224.247 463.993 224.453C463.993 224.659 464.028 224.84 464.096 224.996C464.168 225.153 464.268 225.275 464.397 225.362C464.528 225.448 464.679 225.49 464.849 225.49Z" fill="#202020"/>
</g>
<rect x="118.306" y="31.2125" width="340.7" height="80.7524" rx="8.12854" fill="#F9FAF1"/>
<rect x="118.306" y="31.2125" width="340.7" height="80.7524" rx="8.12854" stroke="#202020" stroke-width="0.799528"/>
<line x1="143.49" y1="71.4555" x2="433.986" y2="71.4555" stroke="black" stroke-width="0.799528"/>
<line x1="143.49" y1="98.6394" x2="433.986" y2="98.6394" stroke="black" stroke-width="0.799528"/>
<rect x="140" y="44" width="297" height="55" fill="#F9FAF1"/>
<text x="289" y="76" font-family="Arial, sans-serif" font-size="22" font-weight="bold" fill="#202020" text-anchor="middle" letter-spacing="4">CSI-VIT</text>
<path d="M531.176 49.8905C535.101 49.8906 538.282 53.0729 538.282 56.9979V87.202C538.282 91.1269 535.101 94.3084 531.176 94.3085H500.971C497.046 94.3085 493.863 91.1269 493.863 87.202L493.863 56.9979C493.863 53.0729 497.046 49.8905 500.971 49.8905H531.176ZM509.321 54.7557C509.262 54.9144 509.166 55.0521 509.034 55.1678C508.902 55.2802 508.74 55.3646 508.548 55.4208L508.771 56.0204C509.006 55.9278 509.169 55.8036 509.262 55.6483H509.268V57.6962H508.528V58.2772H510.571V57.6962H509.977V54.7557H509.321Z" fill="#261D1E"/>
<g clip-path="url(#clip11_182_589384)">
<rect width="143.381" height="32.579" transform="translate(41.6836 216.508)" fill="#202020"/>
<rect width="26.4465" height="26.4465" transform="translate(44.75 219.574)" fill="#EDA35F"/>
<path d="M46.4731 221.107C46.5788 221.107 46.6644 221.194 46.6661 221.299C46.7671 227.559 51.7909 232.602 57.9731 232.602C64.1553 232.602 69.1792 227.559 69.2802 221.299C69.2819 221.194 69.3674 221.107 69.4731 221.107C69.5788 221.107 69.6647 221.194 69.663 221.299C69.6203 224.038 68.6659 226.553 67.0948 228.542C66.0244 229.897 66.0245 235.698 67.0949 237.053C68.666 239.042 69.6203 241.556 69.663 244.295C69.6647 244.401 69.5788 244.487 69.4731 244.487C69.3674 244.487 69.2819 244.401 69.2802 244.295C69.1791 238.035 64.1553 232.992 57.9731 232.992C51.7909 232.992 46.7672 238.035 46.6661 244.295C46.6644 244.401 46.5788 244.487 46.4731 244.487C46.3674 244.487 46.2816 244.401 46.2832 244.295C46.326 241.556 47.2803 239.042 48.8515 237.052C49.9219 235.697 49.922 229.898 48.8516 228.543C47.2804 226.553 46.3259 224.039 46.2832 221.299C46.2816 221.194 46.3674 221.107 46.4731 221.107ZM57.9731 236.499C62.2497 236.499 65.7286 239.972 65.8293 244.295C65.8318 244.401 65.7456 244.487 65.6396 244.487C65.5337 244.487 65.448 244.401 65.4454 244.295C65.3448 240.187 62.038 236.889 57.9731 236.888C53.908 236.888 50.6002 240.187 50.4999 244.295C50.4973 244.401 50.4119 244.487 50.3061 244.487C50.2004 244.487 50.1145 244.401 50.117 244.295C50.2174 239.972 53.6963 236.499 57.9731 236.499ZM57.9731 240.396C60.1328 240.396 61.8947 242.125 61.9932 244.296C61.998 244.401 61.9118 244.487 61.8061 244.487C61.7004 244.487 61.6152 244.401 61.6099 244.296C61.5119 242.34 59.9211 240.786 57.9731 240.786C56.0253 240.786 54.4347 242.34 54.3364 244.295C54.331 244.401 54.2456 244.487 54.1397 244.487C54.0337 244.487 53.9473 244.401 53.9521 244.295C54.0509 242.125 55.8136 240.396 57.9731 240.396ZM50.3061 221.107C50.4119 221.107 50.4973 221.193 50.4999 221.299C50.6002 225.407 53.908 228.706 57.9731 228.706C62.0381 228.706 65.3449 225.407 65.4454 221.3C65.448 221.194 65.5337 221.107 65.6396 221.107C65.7456 221.107 65.8318 221.194 65.8293 221.3C65.7287 225.622 62.2498 229.095 57.9731 229.095C53.6963 229.095 50.2173 225.622 50.117 221.299C50.1145 221.193 50.2004 221.107 50.3061 221.107ZM54.1396 221.107C54.2456 221.107 54.331 221.193 54.3363 221.299C54.4346 223.254 56.0252 224.809 57.9731 224.809C59.9211 224.809 61.5119 223.254 61.61 221.299C61.6152 221.193 61.7004 221.107 61.8061 221.107C61.9119 221.107 61.998 221.193 61.9932 221.299C61.8948 223.469 60.1329 225.199 57.9731 225.199C55.8135 225.199 54.0508 223.47 53.9521 221.299C53.9473 221.193 54.0337 221.107 54.1396 221.107Z" fill="#FAFAFA"/>
<g clip-path="url(#clip12_182_589384)">
<path d="M74.6777 219.251H75.8832L77.04 222.563H77.0461L78.1969 219.251H79.4024V223.574H78.5683V220.402H78.5561L77.4297 223.574H76.6504L75.524 220.402H75.5118V223.574H74.6777L74.6777 219.251ZM81.5401 223.708C81.187 223.708 80.8805 223.643 80.6208 223.513C80.365 223.379 80.1682 223.19 80.0302 222.947C79.8922 222.699 79.8232 222.409 79.8232 222.076V219.251H80.706V222.04C80.706 222.308 80.7811 222.527 80.9313 222.697C81.0855 222.864 81.2885 222.947 81.5401 222.947C81.7959 222.947 81.9968 222.866 82.1429 222.703C82.2931 222.537 82.3682 222.314 82.3682 222.034V219.251H83.2571V222.076C83.2571 222.409 83.1881 222.699 83.0501 222.947C82.9121 223.19 82.7132 223.379 82.4534 223.513C82.1936 223.643 81.8892 223.708 81.5401 223.708ZM83.6745 219.251H85.2453C85.9313 219.251 86.4589 219.438 86.8283 219.811C87.1977 220.185 87.3824 220.718 87.3824 221.413C87.3824 222.107 87.1977 222.64 86.8283 223.014C86.4589 223.387 85.9313 223.574 85.2453 223.574H83.6745V219.251ZM85.2392 222.843C85.6451 222.843 85.9556 222.722 86.1707 222.478C86.3899 222.23 86.4995 221.875 86.4995 221.413C86.4995 220.95 86.3899 220.595 86.1707 220.347C85.9556 220.099 85.6451 219.976 85.2392 219.976H84.5451V222.843H85.2392ZM89.7184 223.708C89.2882 223.708 88.9107 223.615 88.5859 223.428C88.2612 223.237 88.0096 222.969 87.831 222.624C87.6524 222.275 87.5631 221.871 87.5631 221.413C87.5631 220.954 87.6524 220.552 87.831 220.207C88.0096 219.858 88.2612 219.59 88.5859 219.403C88.9107 219.213 89.2882 219.117 89.7184 219.117C90.1487 219.117 90.5241 219.213 90.8448 219.403C91.1695 219.59 91.4212 219.858 91.5998 220.207C91.7784 220.552 91.8677 220.954 91.8677 221.413C91.8677 221.867 91.7784 222.269 91.5998 222.618C91.4212 222.963 91.1695 223.231 90.8448 223.422C90.5201 223.613 90.1446 223.708 89.7184 223.708ZM89.7184 222.947C89.9701 222.947 90.1913 222.884 90.3821 222.758C90.5769 222.628 90.7251 222.448 90.8265 222.216C90.9321 221.985 90.9848 221.717 90.9848 221.413C90.9848 221.108 90.9321 220.84 90.8265 220.609C90.7251 220.377 90.5769 220.199 90.3821 220.073C90.1913 219.943 89.9701 219.878 89.7184 219.878C89.4668 219.878 89.2435 219.943 89.0487 220.073C88.8579 220.199 88.7097 220.377 88.6042 220.609C88.5027 220.84 88.452 221.108 88.452 221.413C88.452 221.717 88.5027 221.985 88.6042 222.216C88.7097 222.448 88.8579 222.628 89.0487 222.758C89.2435 222.884 89.4668 222.947 89.7184 222.947Z" fill="white"/>
</g>
</g>
</g>
<path d="M404.206 128.983C421.574 128.983 435.654 143.063 435.654 160.431C435.654 177.799 421.574 191.879 404.206 191.879C386.838 191.879 372.758 177.799 372.758 160.431C372.758 143.062 386.838 128.983 404.206 128.983ZM404.024 136.978C400.802 136.978 397.73 137.627 394.936 138.803L397.763 143.699L392.678 146.635L389.854 141.742C384.95 145.466 381.557 151.075 380.755 157.49H386.41V163.362H380.754C381.554 169.776 384.943 175.383 389.843 179.109L392.669 174.214L397.754 177.15L394.924 182.051C397.722 183.23 400.797 183.883 404.024 183.883C407.247 183.883 410.317 183.233 413.112 182.057L410.287 177.162L415.372 174.227L418.195 179.117C423.1 175.392 426.494 169.78 427.294 163.362H421.639V157.49H427.293C426.491 151.079 423.102 145.472 418.202 141.748L415.38 146.639L410.295 143.703L413.121 138.807C410.324 137.629 407.25 136.978 404.024 136.978Z" fill="#202020"/>
<path d="M171.743 128.983C189.111 128.983 203.191 143.062 203.191 160.431C203.191 177.799 189.111 191.879 171.743 191.879C154.375 191.879 140.295 177.799 140.295 160.431C140.295 143.063 154.375 128.983 171.743 128.983ZM171.562 136.978C168.339 136.978 165.268 137.627 162.474 138.803L165.301 143.699L160.216 146.635L157.391 141.742C152.487 145.466 149.095 151.076 148.293 157.49H153.947V163.362H148.292C149.092 169.776 152.481 175.384 157.38 179.109L160.207 174.214L165.292 177.15L162.461 182.051C165.259 183.23 168.334 183.883 171.562 183.883C174.784 183.883 177.855 183.233 180.649 182.057L177.824 177.162L182.909 174.227L185.732 179.117C190.638 175.392 194.032 169.78 194.832 163.362H189.177V157.49H194.831C194.029 151.079 190.639 145.473 185.74 141.749L182.917 146.639L177.833 143.703L180.659 138.807C177.862 137.628 174.787 136.978 171.562 136.978Z" fill="#202020"/>
</g>
<defs>
<clipPath id="clip0_182_589384">
<rect width="575.66" height="352.858" fill="white" transform="translate(0.109375 0.430786)"/>
</clipPath>
<clipPath id="clip1_182_589384">
<rect width="19.1887" height="19.1887" fill="white" transform="translate(278.344 279.733)"/>
</clipPath>
<clipPath id="clip2_182_589384">
<rect width="19.1887" height="19.1887" fill="white" transform="translate(14.5 14.8224)"/>
</clipPath>
<clipPath id="clip3_182_589384">
<rect width="19.1887" height="19.1887" fill="white" transform="translate(14.5 319.709)"/>
</clipPath>
<clipPath id="clip4_182_589384">
<rect width="19.1887" height="19.1887" fill="white" transform="translate(542.188 14.8225)"/>
</clipPath>
<clipPath id="clip5_182_589384">
<rect width="19.1887" height="19.1887" fill="white" transform="translate(542.188 319.709)"/>
</clipPath>
<clipPath id="clip6_182_589384">
<rect width="510.632" height="227.066" fill="white" transform="translate(33.1562 30.2798)"/>
</clipPath>
<clipPath id="clip7_182_589384">
<rect width="74.9906" height="36.172" fill="white" transform="translate(251.16 215.171)"/>
</clipPath>
<clipPath id="clip8_182_589384">
<rect width="21.2251" height="21.2251" fill="white" transform="translate(316.766 236.397) rotate(-180)"/>
</clipPath>
<clipPath id="clip9_182_589384">
<rect width="21.2251" height="21.2251" fill="white" transform="matrix(1 0 0 -1 260.326 236.397)"/>
</clipPath>
<clipPath id="clip10_182_589384">
<rect width="86.2894" height="24.7886" fill="white" transform="translate(452.359 220.404)"/>
</clipPath>
<clipPath id="clip11_182_589384">
<rect width="143.381" height="32.579" fill="white" transform="translate(41.6836 216.508)"/>
</clipPath>
<clipPath id="clip12_182_589384">
<rect width="109.269" height="32.579" fill="white" transform="translate(74.2637 216.508)"/>
</clipPath>
</defs>
</svg>
