<svg width="46" height="46" viewBox="0 0 46 46" fill="none" xmlns="http://www.w3.org/2000/svg">
<g style="mix-blend-mode:luminosity" clip-path="url(#clip0_1153_20609)">
<path d="M31.0659 19.1903C31.0659 19.1903 31.3155 17.0256 30.8825 15.4953C30.4496 13.965 30.2812 14.0131 30.2812 14.0131C30.2812 14.0131 30.9667 14.8579 31.3937 16.6197C31.7123 17.9276 31.4388 18.4898 31.4388 18.4898L31.0659 19.1903Z" fill="white"/>
<mask id="mask0_1153_20609" style="mask-type:luminance" maskUnits="userSpaceOnUse" x="1" y="1" width="44" height="44">
<path d="M22.8841 44.3358C34.7977 44.3358 44.4557 34.6779 44.4557 22.7642C44.4557 10.8506 34.7977 1.19266 22.8841 1.19266C10.9704 1.19266 1.3125 10.8506 1.3125 22.7642C1.3125 34.6779 10.9704 44.3358 22.8841 44.3358Z" fill="white"/>
</mask>
<g mask="url(#mask0_1153_20609)">
<path d="M28.825 69.0917C34.6155 69.0286 40.418 67.387 45.2104 64.11C47.6607 62.5736 49.9937 60.8028 51.9058 58.6562C52.8683 57.5824 53.7064 56.4034 54.4042 55.1416C54.7831 54.5403 55.1048 53.8759 55.4535 53.2445C55.8023 52.6131 56.0999 51.9487 56.4126 51.2993C57.6318 48.6784 58.5399 45.9237 59.1184 43.0916C59.6808 40.2653 59.7823 37.3667 59.4191 34.508L59.3529 33.9759C59.3289 33.7985 59.2868 33.6211 59.2537 33.4467L59.0433 32.3915C58.9861 32.0367 58.8659 31.697 58.7757 31.3482L58.475 30.314C58.2255 29.6435 57.997 28.9641 57.7234 28.3026C57.4498 27.6412 57.1221 26.9888 56.8004 26.3484C56.1716 25.0607 55.4173 23.8382 54.5486 22.6985C54.1125 22.1394 53.6351 21.6138 53.1205 21.1261C52.606 20.6466 52.0529 20.2102 51.4669 19.8213L51.067 19.5567L51.4248 19.2561C51.7137 18.9894 52.0803 18.8219 52.4711 18.7781C52.8464 18.7602 53.2201 18.8389 53.5564 19.0066C53.8571 19.1479 54.1397 19.3072 54.4042 19.4425C54.6408 19.5724 54.8965 19.6638 55.1619 19.7131L54.8282 20.3384C53.766 19.1551 52.4659 18.2094 51.0129 17.5634C49.5472 16.9241 47.9878 16.5261 46.3949 16.3849L45.4269 16.2887L46.1634 15.6543C46.6101 15.2854 47.1409 15.0324 47.7088 14.9177C48.2442 14.8058 48.7927 14.7694 49.3383 14.8095C49.8726 14.844 50.4022 14.9306 50.9197 15.0681C51.4367 15.1994 51.9401 15.3796 52.423 15.6062L51.8908 16.2646C51.8115 16.1569 51.723 16.0563 51.6262 15.964C51.5882 15.9291 51.5469 15.8979 51.503 15.8708H51.4849C51.5068 15.875 51.5292 15.875 51.5511 15.8708H51.6022C51.6247 15.8683 51.6469 15.8632 51.6683 15.8558C51.7018 15.8462 51.7333 15.831 51.7615 15.8107C51.8023 15.783 51.8379 15.7484 51.8668 15.7084C51.9016 15.6617 51.9248 15.6072 51.9342 15.5497C51.9436 15.4921 51.939 15.4331 51.9209 15.3777C51.916 15.357 51.9068 15.3375 51.8938 15.3206C51.9318 15.3516 51.972 15.3797 52.0141 15.4048C52.127 15.4691 52.2458 15.5225 52.3688 15.5641L51.9119 16.2947C50.2135 14.666 48.1664 13.4455 45.9259 12.726C43.6762 12.0003 41.3236 11.645 38.9599 11.6737H37.9257L38.5811 10.88C38.6592 10.7898 38.7344 10.6966 38.8306 10.6034L38.9148 10.5282L38.9569 10.4892L39.02 10.4471L39.0862 10.405C39.1279 10.3839 39.1711 10.3658 39.2154 10.3509C39.3089 10.3251 39.4076 10.3251 39.5011 10.3509C39.5352 10.3568 39.5686 10.3669 39.6003 10.3809C39.6513 10.4056 39.6988 10.4369 39.7416 10.4741C39.8108 10.5371 39.8609 10.6184 39.8859 10.7086C39.903 10.7672 39.9111 10.828 39.9099 10.889C39.9131 10.9089 39.9131 10.9292 39.9099 10.9492V10.9912C39.9003 11.038 39.8852 11.0834 39.8648 11.1265C39.8379 11.1842 39.8047 11.2387 39.7656 11.2889C39.7022 11.3687 39.6272 11.4386 39.5431 11.4963C39.3858 11.6036 39.2037 11.6688 39.014 11.6857L37.2943 11.8601L38.6803 10.8079C39.2363 10.3942 39.8689 10.0948 40.5413 9.92695C41.1958 9.7648 41.8697 9.69398 42.5436 9.71649C43.8508 9.77803 45.1407 10.0407 46.3679 10.4952L45.8929 11.3971L44.7624 10.5914L44.1942 10.2035L43.9116 10.0202L43.7793 9.94198L43.7282 9.91492H43.7462H43.7943H43.8454H43.9086C43.9356 9.91788 43.9628 9.91788 43.9898 9.91492C44.101 9.89379 44.2017 9.83548 44.2754 9.74957C44.326 9.69189 44.3631 9.62362 44.3839 9.54974C44.4047 9.47587 44.4087 9.39827 44.3956 9.32264V9.27755V9.25951V9.22343L44.3415 9.16931L44.3205 9.13624L44.3024 9.1152L44.3475 9.15729L44.4648 9.2565L44.7263 9.45794C44.9037 9.59323 45.0871 9.72251 45.2735 9.84878C45.6224 10.094 45.9939 10.3055 46.3829 10.4801L45.8598 11.3821C43.5286 9.54643 40.7324 8.39609 37.7843 8.05992C34.8507 7.68911 31.8738 8.2197 29.2489 9.5812L27.7457 10.3809L28.4281 8.83259C28.6974 8.25058 29.0867 7.73214 29.5706 7.3113C30.0269 6.90891 30.5319 6.56548 31.0739 6.28909C31.6021 6.01426 32.1559 5.79172 32.7274 5.62466C33.314 5.45044 33.9199 5.34946 34.5313 5.32401L34.3299 6.49955C32.9892 5.98243 31.5566 5.74605 30.1208 5.80505C28.6821 5.86422 27.2657 6.18091 25.9388 6.74007C23.255 7.85012 21.0081 9.8077 19.541 12.3141L19.2974 12.714L18.8434 12.6328C18.2812 12.5336 17.7912 12.3953 17.3161 12.3111C16.8929 12.2149 16.4553 12.1996 16.0264 12.266C15.8549 12.2979 15.6915 12.3633 15.5453 12.4584C15.3949 12.5575 15.2636 12.6827 15.1575 12.8282C14.9174 13.1733 14.7544 13.566 14.6795 13.9797C14.6795 14.0639 14.6253 14.2322 14.5953 14.3675L14.487 14.7764C14.4034 15.0538 14.303 15.3259 14.1864 15.5912L14 15.985C13.9338 16.1173 13.8497 16.2376 13.7745 16.3608C13.6267 16.6068 13.463 16.8428 13.2844 17.0674C12.5316 17.9147 11.6167 18.6027 10.5936 19.0907C9.6162 19.5636 8.59258 19.9344 7.53903 20.1971L7.16322 20.2873L6.97982 20.3324L6.84754 20.3775C6.64034 20.4518 6.43929 20.5423 6.24624 20.6481C5.86628 20.8562 5.52547 21.1288 5.23906 21.4538C5.10572 21.6108 4.98885 21.7811 4.89031 21.9619C4.84305 22.0461 4.80185 22.1335 4.76704 22.2235C4.72796 22.3227 4.69188 22.437 4.6558 22.5482C4.51376 22.9909 4.41902 23.4475 4.37319 23.9101C4.27076 24.77 4.49502 25.637 5.00155 26.3394L3.66366 26.6761C3.75984 25.9167 3.99097 25.1805 4.34614 24.5024C4.55641 24.1267 4.83473 23.7933 5.16691 23.5193C5.53969 23.2129 5.99254 23.0199 6.47173 22.9631L7.63524 22.8338L7.28648 23.9613C7.22652 24.1434 7.20103 24.335 7.21132 24.5265C7.22111 24.6718 7.27573 24.8104 7.36766 24.9233C7.66257 25.2099 8.04224 25.3934 8.45 25.4465L7.66831 26.6821C7.43736 26.3748 7.27069 26.0241 7.17825 25.6509C7.08934 25.2892 7.06391 24.9149 7.10309 24.5445C7.18296 23.8262 7.47498 23.148 7.9419 22.5963L8.84385 21.532L9.30384 22.8549C9.41694 23.1861 9.6263 23.4761 9.90514 23.6877C10.1492 23.8692 10.4546 23.948 10.756 23.9071L10.3982 25.3713C10.0617 25.148 9.80319 24.8254 9.65861 24.4483C9.541 24.0891 9.52231 23.7048 9.60449 23.3359C9.65954 23.079 9.72778 22.8251 9.80893 22.5753C9.87008 22.3859 9.92027 22.1932 9.95926 21.998L10.1847 20.7022L11.234 21.4959C11.5399 21.7374 11.8831 21.9273 12.2502 22.0581C12.3701 22.104 12.4992 22.1206 12.6268 22.1065C12.7544 22.0924 12.8768 22.048 12.9838 21.977C13.0821 21.9186 13.1647 21.8371 13.2243 21.7395C13.3097 21.5842 13.3773 21.4198 13.4257 21.2494C13.5062 20.9718 13.6119 20.7021 13.7414 20.4437C13.918 20.1164 14.1668 19.8336 14.469 19.6169L14.5171 19.5838L14.5682 19.5567C15.2303 19.2378 15.9559 19.0723 16.6908 19.0727C17.3673 19.0547 17.9836 19.1148 18.5458 19.1208L18.5909 20.7924C18.4736 20.7924 18.3534 20.7924 18.2271 20.7924H17.9265H17.8483H17.7761H17.704C17.6553 20.7814 17.608 20.7652 17.5627 20.7443L17.4905 20.7082C17.3601 20.6372 17.2503 20.5336 17.1718 20.4076C17.0813 20.2448 17.0454 20.0572 17.0696 19.8724C17.083 19.7775 17.1136 19.6858 17.1598 19.6018C17.1945 19.5319 17.2402 19.468 17.2951 19.4124C17.348 19.3559 17.4088 19.3073 17.4755 19.2681C17.5189 19.2428 17.5641 19.2207 17.6108 19.202L17.695 19.1749C17.7254 19.1662 17.7566 19.1602 17.7882 19.1569H17.8633H17.9415H18.2421H18.5939V20.8345C18.3157 20.8536 18.0415 20.9112 17.7791 21.0059C17.5807 21.0728 17.4048 21.1936 17.271 21.3546C17.0726 21.6252 17.0486 22.0461 17.271 22.6083C17.4935 23.1705 17.8904 23.7628 18.2361 24.5235C18.3268 24.7284 18.4032 24.9393 18.4646 25.1548C18.5223 25.3728 18.5625 25.595 18.5849 25.8193C18.6271 26.2258 18.6352 26.6351 18.6089 27.0429C18.5699 27.8216 18.4586 28.5462 18.4075 29.2286C18.3835 29.5593 18.3804 29.9322 18.3384 30.344C18.3035 30.8226 18.1716 31.2891 17.9505 31.715C17.8026 31.9805 17.5971 32.2096 17.3492 32.3855C17.2268 32.4768 17.0947 32.5545 16.9554 32.617L16.7539 32.6891C16.6929 32.7117 16.6307 32.7307 16.5675 32.7462C16.1597 32.847 15.7426 32.9054 15.3228 32.9206C14.5543 32.9392 13.7855 32.9 13.0229 32.8034L13.7474 31.4354C14.2765 32.0725 14.8905 32.634 15.5724 33.104C16.2095 33.5589 16.9396 33.8669 17.71 34.006L17.9746 34.0931C18.0019 34.1021 18.0282 34.1142 18.0527 34.1292C18.0605 34.1262 18.0691 34.1262 18.0768 34.1292C18.0768 34.1292 18.0046 34.1292 17.9866 34.1503C18.067 34.0608 18.1329 33.9594 18.182 33.8496C18.2842 33.6452 18.3804 33.3896 18.5127 33.089L18.8885 32.3043C19.3576 31.2911 19.8085 30.2478 20.2505 29.2046C20.6924 28.1613 21.1164 27.1 21.5373 26.0508L22.794 22.8549L23.0916 22.0972L23.8072 22.3979C24.1037 22.5222 24.4317 22.5506 24.7452 22.4791C25.1014 22.3909 25.4339 22.2257 25.7193 21.995C26.3598 21.4819 26.8612 20.8161 27.1774 20.0588C27.4999 19.2484 27.6917 18.3919 27.7457 17.5213C27.7908 16.6735 27.6525 15.8287 27.2376 15.2514L28.371 14.4036C28.6005 14.7167 28.7922 15.0558 28.9423 15.4138C29.0876 15.754 29.2032 16.106 29.288 16.4661C29.3755 16.8254 29.4328 17.1915 29.4594 17.5604C29.4887 17.948 29.4706 18.3378 29.4053 18.7209L28.6356 17.9182C30.169 17.6952 31.7326 17.8091 33.2175 18.2519C34.6717 18.6898 36.0469 19.3566 37.2913 20.2272C38.5171 21.0757 39.6525 22.0479 40.6796 23.1285L41.4342 23.9402L42.1558 24.776C42.3843 25.0767 42.6188 25.3382 42.8473 25.6329C43.0758 25.9275 43.3013 26.2342 43.5177 26.5348C45.2095 29.0295 46.1487 31.9578 46.2236 34.971C46.2953 37.9434 45.6994 40.8941 44.4798 43.6057L44.5069 43.5155L44.2754 44.7632V44.8173L44.2573 44.8564C43.5004 46.4564 42.5416 47.9528 41.4042 49.309C40.835 49.9859 40.2138 50.6171 39.5462 51.1971C38.8836 51.7807 38.1725 52.3067 37.4206 52.7695C35.918 53.6892 34.2807 54.3679 32.5681 54.7808C31.7276 55.0305 30.8678 55.2095 29.9975 55.316C29.1194 55.4141 28.2308 55.3561 27.3729 55.1446L27.4119 54.9853C28.2524 55.1624 29.1175 55.1899 29.9675 55.0664C30.8175 54.9361 31.6553 54.7349 32.4719 54.4651L33.7136 54.0713C34.1134 53.918 34.5193 53.7706 34.9162 53.5993C35.7028 53.2596 36.4575 52.8501 37.171 52.3756C37.8866 51.907 38.5614 51.379 39.1884 50.7972C39.8178 50.2195 40.4008 49.5932 40.9321 48.9242C41.9956 47.585 42.8828 46.1148 43.5718 44.5497L43.5418 44.6429L43.7492 43.3922V43.3501L43.7673 43.302C44.88 40.6899 45.3936 37.8617 45.2705 35.0252C45.1475 32.2181 44.222 29.5052 42.6038 27.2083C40.9051 24.9684 38.8937 22.8669 36.5908 21.3125C35.4506 20.5329 34.1944 19.9383 32.8687 19.5507C31.5656 19.1788 30.1973 19.0937 28.8581 19.3012L27.9231 19.4545L28.0674 18.4894C28.1861 17.3558 27.8984 16.2168 27.2556 15.2755L28.3891 14.4307C28.7231 14.8996 28.9556 15.4331 29.0715 15.9971C29.1805 16.5198 29.2229 17.0541 29.1978 17.5875C29.1478 18.6173 28.9326 19.6325 28.5604 20.594C28.3597 21.0963 28.096 21.5711 27.7757 22.007C27.455 22.4473 27.0769 22.8426 26.6513 23.1826C26.1956 23.5533 25.6639 23.8192 25.0939 23.9613C24.4725 24.105 23.8219 24.0546 23.2299 23.8169L24.2371 23.396L23.0345 26.5829C22.6046 27.6562 22.1927 28.7115 21.7567 29.7848C21.3208 30.8582 20.8818 31.9074 20.3888 32.9627L20.028 33.7263C19.9288 33.9458 19.8296 34.2254 19.6792 34.5321C19.5956 34.7069 19.4949 34.8731 19.3786 35.0282C19.2315 35.2384 19.042 35.4156 18.8224 35.5483C18.549 35.7047 18.234 35.7729 17.9204 35.7437C17.7868 35.7253 17.655 35.6951 17.5266 35.6535C17.4214 35.6114 17.3161 35.5663 17.226 35.5182L17.4905 35.6054C16.475 35.4313 15.5107 35.0339 14.6674 34.4419C13.8581 33.8867 13.1279 33.2242 12.4967 32.4726L11.1588 30.8972L13.2213 31.1047C13.9003 31.1894 14.5847 31.2236 15.2687 31.2069C15.5729 31.1954 15.8751 31.1531 16.1707 31.0806C16.1955 31.075 16.2196 31.067 16.2428 31.0566C16.2614 31.0492 16.2805 31.0432 16.2999 31.0385C16.321 31.0175 16.3571 31.0145 16.3721 30.9934C16.423 30.9555 16.4642 30.906 16.4924 30.8491C16.5963 30.6231 16.6555 30.3791 16.6667 30.1306C16.6998 29.8299 16.7028 29.4692 16.7299 29.0723C16.787 28.2966 16.8922 27.5961 16.9223 26.9196C16.9382 26.6027 16.9282 26.2849 16.8922 25.9696C16.8642 25.6936 16.79 25.4243 16.6728 25.1729C16.4202 24.6077 16.0053 23.9703 15.6866 23.1916C15.5039 22.7553 15.408 22.2876 15.404 21.8146C15.404 21.6823 15.404 21.5501 15.4371 21.4208C15.4702 21.2915 15.4912 21.1562 15.5303 21.0299C15.5694 20.9037 15.6265 20.7804 15.6806 20.6601C15.7475 20.531 15.826 20.4083 15.9151 20.2933C16.2383 19.883 16.6692 19.5707 17.1598 19.3914C17.5805 19.234 18.0223 19.1397 18.4706 19.1118V20.7894H18.17H17.9866H18.0197H18.0948L18.17 20.7654C18.2144 20.7471 18.2575 20.726 18.2993 20.7022C18.3653 20.662 18.426 20.6135 18.4797 20.5579C18.5329 20.5021 18.5784 20.4394 18.615 20.3715L18.657 20.2753C18.6781 20.2189 18.6932 20.1605 18.7021 20.1009C18.7253 19.934 18.6979 19.764 18.6234 19.6128C18.5489 19.4617 18.4308 19.3363 18.2842 19.2531C18.2631 19.2403 18.241 19.2292 18.2181 19.22C18.1756 19.2005 18.1313 19.1854 18.0858 19.1749H18.0317H18.0016H18.179C18.2692 19.1749 18.3654 19.1749 18.4616 19.1749L18.5067 20.8465C17.8513 20.8465 17.256 20.7774 16.7028 20.7924C16.215 20.7828 15.7315 20.8857 15.2898 21.0931L15.389 21.0329C15.2965 21.0982 15.2212 21.1848 15.1695 21.2855C15.0853 21.4597 15.0159 21.6408 14.9621 21.8266C14.874 22.12 14.7508 22.4016 14.5953 22.6655C14.3988 22.9762 14.1344 23.2384 13.8219 23.4321C13.5095 23.6258 13.1571 23.7461 12.7914 23.7839C12.4458 23.7901 12.1025 23.7277 11.7812 23.6005C11.2377 23.4143 10.7295 23.1378 10.2779 22.7827L11.5647 22.2686C11.5144 22.53 11.4481 22.788 11.3663 23.0413C11.2931 23.2371 11.2309 23.4368 11.1799 23.6396C11.1617 23.7258 11.1617 23.8149 11.1799 23.9011C11.2121 23.9591 11.2587 24.0078 11.3152 24.0424L12.9357 25.245L10.9544 25.4916C10.5994 25.538 10.2386 25.5134 9.89311 25.4194C9.55073 25.3286 9.22915 25.1724 8.94607 24.9594C8.41206 24.5517 8.01381 23.9921 7.8036 23.3539L9.16254 23.6155C8.89891 23.9206 8.73245 24.2975 8.6845 24.6978C8.63279 25.0609 8.72209 25.4299 8.93404 25.7291L10.1547 27.3826L8.14334 26.9828C7.78775 26.9129 7.44232 26.7988 7.11511 26.6431C6.74492 26.466 6.41766 26.2106 6.15604 25.8944C5.87578 25.5428 5.70627 25.1159 5.66899 24.6678C5.64109 24.2699 5.69218 23.8703 5.81932 23.4922L6.64009 24.5024C6.44881 24.5225 6.26778 24.5989 6.11997 24.7219C5.93774 24.877 5.78585 25.0646 5.672 25.2751C5.40225 25.7847 5.22223 26.3369 5.13985 26.9076L4.8392 28.7115L3.77189 27.2083C3.41529 26.7091 3.1562 26.147 3.00825 25.5517C2.86367 24.9619 2.82399 24.3513 2.89099 23.7478C2.94827 23.1801 3.06826 22.6205 3.24877 22.0792C3.29086 21.9469 3.33595 21.8146 3.39007 21.6703C3.45076 21.5211 3.52002 21.3756 3.59752 21.2344C3.74868 20.9618 3.92805 20.7058 4.13267 20.4707C4.54008 20.0307 5.02137 19.6654 5.55475 19.3914C5.81605 19.2475 6.08852 19.1248 6.3695 19.0246L6.60702 18.9494L6.79943 18.9043L7.17825 18.8141C8.1426 18.5863 9.08066 18.2588 9.9773 17.837C10.8314 17.4376 11.5963 16.8701 12.2262 16.1684C12.3717 15.9953 12.5053 15.8125 12.626 15.6212C12.6831 15.522 12.7523 15.4318 12.8034 15.3206L12.9507 15.0199C13.0443 14.8135 13.1256 14.6016 13.1942 14.3856L13.2724 14.0519C13.2995 13.9346 13.3235 13.8504 13.3566 13.6821C13.4811 13.0736 13.7377 12.4999 14.1082 12.0014C14.312 11.7329 14.5601 11.5011 14.8418 11.3159C15.1333 11.1331 15.4566 11.0066 15.7949 10.9431C16.394 10.8462 17.0061 10.8636 17.5988 10.9943C18.1429 11.0995 18.648 11.2468 19.102 11.328L18.3955 11.6557C20.0203 8.9071 22.5009 6.76654 25.4577 5.56152C26.9265 4.95753 28.4915 4.62151 30.0787 4.56938C31.6766 4.5183 33.2681 4.79243 34.7568 5.37512L37.5168 6.46347L34.5494 6.53863C34.0462 6.55874 33.5474 6.64052 33.0642 6.78216C32.5668 6.92291 32.0844 7.11223 31.624 7.34738C31.1729 7.57741 30.7518 7.86217 30.3703 8.19521C30.0129 8.50202 29.7231 8.87982 29.5195 9.30461L28.7077 8.56801C30.1204 7.82781 31.6432 7.32021 33.2175 7.06477C34.7784 6.80838 36.3679 6.777 37.9377 6.97157C41.0857 7.34993 44.0657 8.5994 46.5423 10.5794L49.4165 12.9004L46.0191 11.4843C45.5569 11.2788 45.1167 11.027 44.7053 10.7327C44.5069 10.5944 44.3114 10.4531 44.104 10.3088L43.8033 10.0803L43.656 9.951L43.5718 9.87584L43.5177 9.81571C43.5001 9.79998 43.4849 9.78175 43.4726 9.76159L43.4396 9.71349C43.4245 9.68643 43.4125 9.66238 43.4005 9.63532V9.59323V9.57218C43.3996 9.55716 43.3996 9.54211 43.4005 9.52709C43.3872 9.44958 43.3911 9.37011 43.4119 9.29427C43.4327 9.21844 43.4698 9.14807 43.5207 9.08814C43.6006 9.00161 43.7059 8.94265 43.8214 8.91977H43.9056H43.9507C43.9706 8.91662 43.9909 8.91662 44.0108 8.91977L44.083 8.93781H44.119L44.2002 8.97389L44.3024 9.03101L44.4678 9.13323L44.7684 9.33166L45.3517 9.73754L46.4912 10.5583L49.4495 12.6929L46.0161 11.4542C44.893 11.0276 43.7103 10.7781 42.5106 10.7147C41.338 10.6726 40.1595 10.9101 39.2635 11.5865L38.9298 10.7086C38.9499 10.7068 38.9694 10.7006 38.9869 10.6906C38.9869 10.6906 38.9869 10.6906 38.9719 10.7207C38.9626 10.7409 38.9555 10.762 38.9509 10.7838V10.8469C38.9477 10.8948 38.9539 10.9427 38.9689 10.9882C38.994 11.0655 39.0373 11.1356 39.0952 11.1927C39.1325 11.2258 39.1752 11.2522 39.2215 11.2709L39.3026 11.3009C39.3721 11.3148 39.4436 11.3148 39.5131 11.3009L39.5672 11.2769H39.5522L39.5161 11.3069C39.465 11.358 39.4079 11.4242 39.3477 11.4933L38.9689 10.7056C41.4371 10.6894 43.8915 11.0752 46.2356 11.8481C48.6029 12.6246 50.7622 13.9304 52.5492 15.6663L53.9683 17.0734L52.0923 16.3939C51.9156 16.3327 51.7454 16.2542 51.5842 16.1594C51.4912 16.1035 51.4036 16.0391 51.3226 15.967C51.2686 15.9164 51.2193 15.8611 51.1753 15.8016C51.1422 15.7508 51.1149 15.6963 51.0941 15.6393C51.0684 15.5656 51.0605 15.4869 51.0709 15.4096C51.0814 15.3323 51.1099 15.2585 51.1542 15.1943C51.1886 15.146 51.2313 15.1042 51.2805 15.0711C51.3185 15.0478 51.3588 15.0287 51.4008 15.0139C51.4313 15.0013 51.4639 14.9942 51.497 14.9929H51.5751C51.6375 14.995 51.6993 15.0061 51.7585 15.026C51.8267 15.0489 51.8922 15.0792 51.9539 15.1162C52.0454 15.173 52.1318 15.2373 52.2125 15.3086C52.3487 15.4346 52.4735 15.5724 52.5853 15.7205L53.6857 17.1455L52.0502 16.3849C51.1791 15.9749 50.2409 15.7263 49.2812 15.6513C48.8156 15.616 48.3475 15.6433 47.8892 15.7325C47.4567 15.816 47.0511 16.0038 46.7076 16.2797L46.4761 15.5491C48.1555 15.7088 49.7976 16.1414 51.3376 16.8299C52.886 17.5341 54.2673 18.5588 55.3904 19.8364L56.0668 20.594L55.0536 20.4437C54.7044 20.3834 54.368 20.2645 54.0585 20.0919C53.7578 19.9416 53.5023 19.7913 53.2437 19.665C53.0216 19.5478 52.7733 19.4888 52.5222 19.4936C52.2881 19.5254 52.0702 19.6307 51.8998 19.7943L51.8577 19.217C52.479 19.6347 53.0651 20.1023 53.6105 20.615C54.1447 21.134 54.6411 21.6907 55.0957 22.2806C55.9797 23.4633 56.7451 24.7301 57.3807 26.0628C57.7054 26.7212 58.006 27.3826 58.3007 28.0561C58.5953 28.7296 58.8088 29.4391 59.0583 30.1306L59.3589 31.1949C59.4491 31.5527 59.5694 31.9014 59.6265 32.2652L59.831 33.3505C59.864 33.5309 59.9061 33.7083 59.9302 33.8917L59.9903 34.4389C60.3426 37.3588 60.2187 40.3166 59.6235 43.1968C59.018 46.0617 58.0786 48.8457 56.8245 51.4917C56.5028 52.1471 56.1841 52.8055 55.8413 53.4489C55.4986 54.0923 55.1529 54.7357 54.768 55.3551C54.0485 56.6348 53.185 57.8281 52.1945 58.9117C50.2282 61.0914 47.8561 62.8502 45.3787 64.3745C44.7624 64.7594 44.1341 65.1292 43.5027 65.4899C42.8751 65.8642 42.2288 66.2064 41.5665 66.5152C40.2375 67.1192 38.8671 67.6276 37.4657 68.0364C36.0642 68.4355 34.6367 68.7369 33.1934 68.9384C31.7495 69.1346 30.2942 69.2351 28.837 69.239L28.825 69.0917Z" fill="#672F25"/>
<path d="M57.8428 27.7218C55.137 22.0275 51.7487 19.487 51.7487 19.487C51.7487 19.487 51.3608 19.1683 52.7709 19.2946C53.5995 19.3644 54.3995 19.6313 55.1039 20.0733C53.9073 18.7599 52.4517 17.7086 50.8287 16.9856C48.9586 16.2009 46.4332 15.9694 46.4332 15.9694C46.4332 15.9694 46.4963 15.308 48.4024 15.326C49.7082 15.3498 51.0023 15.5759 52.2387 15.9965C52.2387 15.9965 50.8136 13.9971 46.2408 12.3887C41.9355 10.8854 38.9771 11.1861 38.9771 11.1861C38.9771 11.1861 39.4641 10.4254 41.4995 10.2631C43.0973 10.1693 44.697 10.411 46.1957 10.9726C46.1957 10.9726 41.8062 7.70755 37.1762 7.41592C32.7777 7.13933 28.9775 9.0695 28.9775 9.0695C28.9775 9.0695 29.2451 8.24872 31.055 7.08521C32.0905 6.39705 33.2918 5.99939 34.5335 5.93372C34.5335 5.93372 30.9437 4.43048 26.0612 5.96078C22.1317 7.19946 19.7866 10.6509 19.026 11.9407C17.6761 11.7904 16.8072 11.6671 16.8072 11.6671C16.263 11.5559 15.0334 11.2071 14.3148 13.2636C13.5963 15.32 13.6444 16.3843 11.9547 17.8214C10.2651 19.2585 5.82146 19.4419 4.93154 20.6956C4.04162 21.9493 3.4794 23.9246 3.62973 24.8025C3.79377 25.4962 4.05064 26.1647 4.39338 26.7898C4.50754 26.0677 4.75095 25.3721 5.11193 24.7363C5.25535 24.4664 5.46057 24.2341 5.71085 24.0586C5.96112 23.883 6.24936 23.7691 6.55204 23.7262C6.55204 23.7262 6.2123 24.7003 6.62419 25.3436C7.03608 25.987 8.2958 26.2155 8.2958 26.2155C7.99834 25.7888 7.85518 25.2734 7.88993 24.7544C7.87923 24.4502 7.93198 24.1472 8.04482 23.8646C8.15766 23.582 8.32812 23.326 8.54534 23.1128C9.19174 24.9949 10.8423 24.7093 10.8423 24.7093C10.5094 24.3582 10.3215 23.8943 10.3162 23.4105C10.2711 22.7671 10.5146 22.5807 10.8002 22.1898C10.8002 22.1898 12.3305 23.179 13.2625 22.8663C14.1945 22.5536 14.0893 20.2927 15.6888 20.0823C16.3899 20.0003 17.0835 19.8636 17.7633 19.6734C17.2101 19.8899 16.0405 20.5333 16.3171 22.0786C16.6779 24.0839 17.7903 24.8446 17.7031 25.9269C17.6159 27.0092 17.643 30.6531 17.1409 31.4859C16.6388 32.3187 13.1122 31.9339 13.1122 31.9339C13.1122 31.9339 14.396 33.4973 15.773 34.1106C17.1499 34.7239 18.2503 35.214 18.7524 34.3812C19.2545 33.5484 23.5147 23.1068 23.5147 23.1068C23.5147 23.1068 24.4888 23.5999 26.2115 22.5837C27.9342 21.5675 28.316 18.7113 28.316 18.7113L28.3702 18.6903C28.4602 17.8554 28.4288 17.0118 28.277 16.1859C28.2034 15.8094 28.1029 15.4386 27.9763 15.0765C27.9313 14.9913 27.8811 14.9089 27.826 14.8299C27.826 14.8299 27.8741 14.8299 27.9763 15.0765C28.3311 15.7478 28.5767 16.4715 28.7039 17.2201C28.805 17.6712 28.8203 18.1373 28.749 18.5941C29.7862 18.3836 32.7176 18.2092 37.2934 21.2789L37.2513 21.1947C44.96 26.6845 47.8583 34.0715 43.9498 44.1974C42.176 48.8123 36.2893 56.0309 26.891 55.0207C27.3419 59.7379 27.7117 64.4581 28.1567 69.1753C34.0752 69.2511 39.8854 67.5845 44.8638 64.383C53.7149 58.7187 56.1502 52.1495 56.1502 52.1495C56.1502 52.1495 63.0501 38.7376 57.8428 27.7218Z" fill="#E1251B"/>
<path d="M5.54688 21.46L7.49508 20.6212L7.44998 21.2736L5.54688 21.46Z" fill="#672F25"/>
<path d="M28.1259 14.4313C28.1259 14.4313 29.557 15.5377 30.2304 16.5689C30.6474 17.2832 30.944 18.0613 31.1083 18.8719L28.0748 19.861C28.4073 18.8126 28.4958 17.7019 28.3333 16.614C28.168 15.5588 26.5625 13.4632 26.5625 13.4632L28.1259 14.4313Z" fill="#672F25"/>
<path d="M31.3256 6.9863C31.3256 6.9863 28.5536 8.75412 27.8862 9.39149C27.4306 9.85285 27.0273 10.363 26.6836 10.9128C26.6836 10.9128 28.0004 9.92965 28.7881 9.40953C29.5758 8.88941 32.1674 7.92132 32.1674 7.92132L30.4297 8.13778L31.3256 6.9863Z" fill="#672F25"/>
<path d="M44.8045 30.5909C46.0823 34.4362 46.0071 38.8978 44.0198 44.0509C42.24 48.6809 36.3292 55.9236 26.8828 54.8743C26.949 55.5959 27.0181 56.3174 27.0842 57.039C36.9666 58.5873 43.1449 51.0801 44.9699 46.3298C47.363 40.1365 47.0594 34.9322 44.8045 30.5909Z" fill="#F2B131"/>
<path d="M26.676 15.4039C26.676 15.4039 28.0169 17.3431 27.7463 18.9787C27.4757 20.6142 26.8444 21.8468 25.7831 22.1806C25.0629 22.3901 24.3198 22.5112 23.5703 22.5413C24.8521 21.9164 25.8522 20.8326 26.3724 19.5048C26.8803 18.1987 26.986 16.7706 26.676 15.4039Z" fill="#FF7F40"/>
<path d="M16.5437 22.969C16.2911 21.7123 16.0386 19.9926 17.3735 19.8814C18.2009 19.816 19.033 19.8453 19.8538 19.9685C19.1599 19.5861 18.3662 19.4236 17.5779 19.5025C16.7806 19.649 16.0102 19.9156 15.293 20.2932L15.9905 21.3485C15.9905 21.3485 16.6218 23.3448 16.5437 22.969Z" fill="#672F25"/>
<path d="M10.8047 22.1907C10.8047 22.1907 12.7108 22.7138 13.0475 22.5665C13.3843 22.4192 14.4696 20.9791 14.4696 20.9791L13.8893 23.267L12.3861 23.3843L10.8047 22.1907Z" fill="#672F25"/>
<path d="M16.2732 31.8297C16.2732 31.8297 14.4212 31.9199 14.2769 32.3468C14.1326 32.7737 15.9696 34.5475 15.9696 34.5475L12.3828 31.7004L16.2732 31.8297Z" fill="#672F25"/>
<path d="M15.2109 32.6206C15.2109 32.6206 15.3793 32.9844 16.5548 33.6518C17.7304 34.3193 18.1543 34.22 18.5 33.8202C18.8458 33.4203 22.6039 23.2463 22.6039 23.2463C22.6039 23.2463 18.9209 32.6747 17.6011 32.813C16.7992 32.8755 15.9925 32.8105 15.2109 32.6206Z" fill="#FF7F40"/>
<path d="M26.6562 10.9494C26.6562 10.9494 27.3808 8.39692 30.264 6.68622C31.7673 5.78427 34.5333 5.93761 34.5333 5.93761C34.5333 5.93761 32.104 6.73132 31.0337 7.55811L26.6562 10.9494Z" fill="#672F25"/>
<path d="M38.9805 11.1984C38.9805 11.1984 40.2432 9.35537 42.2636 9.43354C44.2839 9.51171 47.095 11.3878 47.095 11.3878C47.095 11.3878 44.4854 10.4678 42.7747 10.7233C41.064 10.9789 38.9805 11.1984 38.9805 11.1984Z" fill="#672F25"/>
<path d="M20.9062 9.47012C20.9062 9.47012 24.6644 5.42639 28.197 5.30613C31.7296 5.18587 33.5245 5.49854 33.5245 5.49854C33.5245 5.49854 29.3785 5.42037 26.333 6.46363C24.3783 7.17656 22.5472 8.191 20.9062 9.47012Z" fill="#FF7F40"/>
<path d="M26.6557 10.9492C26.6557 10.9492 31.6254 6.92047 36.6071 7.42556C39.571 7.70965 42.4405 8.62072 45.0253 10.0983C45.0253 10.0983 39.3431 7.71719 34.1148 8.556C28.8865 9.39481 26.6406 11.1296 26.6406 11.1296" fill="#FF7F40"/>
<path d="M38.9805 11.1989C38.9805 11.1989 42.5071 10.6787 46.8755 12.645C51.244 14.6112 51.9866 15.6515 51.9866 15.6515C50.0362 14.5125 47.9663 13.5919 45.8142 12.9066C42.3327 11.8392 38.9805 11.1989 38.9805 11.1989Z" fill="#FF7F40"/>
<path d="M7.23047 26.6647C7.23047 26.6647 8.53829 27.0675 9.07646 27.1788C9.44389 27.2426 9.81875 27.2517 10.1889 27.2058C10.1889 27.2058 8.83293 26.2798 8.68561 25.9281C8.53829 25.5763 8.08431 26.3069 8.08431 26.3069L7.23047 26.6647Z" fill="#672F25"/>
<path d="M10.5391 25.4072L12.2167 24.9381L11.2576 24.0753L10.5391 25.4072Z" fill="#672F25"/>
<path d="M14.3516 16.6498C14.8315 16.0796 15.2507 15.4609 15.6023 14.8038C15.9208 14.1293 16.2019 13.4378 16.4441 12.7323L16.5704 15.7388L14.3516 16.6498Z" fill="#672F25"/>
<path d="M13.8394 27.4012C13.7458 27.4059 13.6526 27.3862 13.5688 27.3441C13.4882 27.305 13.4166 27.2498 13.3584 27.1817C13.2976 27.1092 13.2516 27.0254 13.2231 26.9352C13.1906 26.8382 13.1734 26.7368 13.172 26.6345C13.1705 26.5325 13.1857 26.431 13.2171 26.3339C13.2449 26.2436 13.2886 26.1591 13.3463 26.0843C13.4026 26.0139 13.4733 25.9565 13.5538 25.916C13.6373 25.8723 13.7302 25.8496 13.8244 25.8498C13.9178 25.8476 14.0104 25.8672 14.095 25.907C14.1759 25.9454 14.2469 26.002 14.3024 26.0723C14.3624 26.1448 14.4092 26.2272 14.4407 26.3158C14.4687 26.4106 14.4839 26.5087 14.4858 26.6075C14.4859 26.7094 14.4707 26.8107 14.4407 26.9081C14.413 26.9984 14.3692 27.0829 14.3114 27.1577C14.2553 27.229 14.1846 27.2874 14.104 27.329C14.0228 27.3739 13.9321 27.3986 13.8394 27.4012ZM13.8394 27.1637C13.8954 27.1648 13.9506 27.1502 13.9988 27.1216C14.0457 27.0912 14.0856 27.0512 14.116 27.0043C14.1501 26.9506 14.1755 26.8917 14.1912 26.83C14.2102 26.7615 14.2184 26.6905 14.2152 26.6195C14.2162 26.5472 14.2061 26.4752 14.1852 26.406C14.168 26.3447 14.1406 26.2868 14.104 26.2347C14.0732 26.1878 14.0321 26.1487 13.9837 26.1204C13.9347 26.0913 13.8784 26.0767 13.8214 26.0783C13.7661 26.0787 13.712 26.0943 13.665 26.1234C13.6159 26.152 13.5746 26.1923 13.5448 26.2407C13.5103 26.2932 13.4849 26.3511 13.4696 26.4121C13.4537 26.4811 13.4456 26.5517 13.4456 26.6225C13.4476 26.6936 13.4576 26.7642 13.4756 26.833C13.4928 26.8943 13.5203 26.9522 13.5568 27.0043C13.5894 27.0515 13.6313 27.0914 13.6801 27.1216C13.7282 27.1502 13.7834 27.1648 13.8394 27.1637Z" fill="url(#paint0_linear_1153_20609)"/>
<path d="M8.34322 29.6978C8.25276 29.6995 8.16316 29.6799 8.08166 29.6406C8.00359 29.6044 7.93473 29.5509 7.88022 29.4843C7.82171 29.4141 7.77685 29.3335 7.74794 29.2468C7.71574 29.1498 7.69949 29.0483 7.69983 28.9461C7.69599 28.8442 7.71024 28.7424 7.74192 28.6455C7.77111 28.5598 7.81597 28.4803 7.87421 28.411C7.92759 28.3421 7.9953 28.2857 8.07264 28.2456C8.15317 28.203 8.2431 28.1813 8.3342 28.1825C8.4243 28.1812 8.51358 28.1997 8.59577 28.2366C8.67285 28.2758 8.74134 28.33 8.7972 28.396C8.85415 28.4673 8.89885 28.5475 8.92949 28.6335C8.962 28.7303 8.97826 28.8319 8.97759 28.9341C8.97966 29.0359 8.96546 29.1374 8.9355 29.2348C8.90749 29.3216 8.86478 29.4029 8.80923 29.4753C8.75524 29.5461 8.68566 29.6036 8.60589 29.6432C8.52612 29.6828 8.4383 29.7036 8.34924 29.7038L8.34322 29.6978ZM8.34322 29.4663C8.39718 29.4663 8.45015 29.4517 8.49655 29.4242C8.54312 29.3957 8.58228 29.3565 8.6108 29.3099C8.645 29.2598 8.66948 29.2037 8.68296 29.1446C8.70035 29.0779 8.70844 29.0091 8.70701 28.9401C8.70652 28.8709 8.69641 28.8021 8.67694 28.7357C8.66014 28.6767 8.63373 28.6208 8.59877 28.5703C8.56903 28.5245 8.52885 28.4864 8.48152 28.4591C8.43486 28.4289 8.38074 28.4123 8.32518 28.411C8.27197 28.4125 8.22009 28.428 8.17486 28.4561C8.12842 28.4835 8.08924 28.5216 8.06061 28.5673C8.02641 28.6174 8.00193 28.6735 7.98846 28.7327C7.97121 28.7994 7.96312 28.8682 7.9644 28.9371C7.96391 29.0062 7.97302 29.075 7.99146 29.1416C8.00827 29.2006 8.03468 29.2565 8.06963 29.3069C8.10127 29.3522 8.14229 29.3901 8.18989 29.4182C8.23569 29.4478 8.28869 29.4644 8.34322 29.4663Z" fill="url(#paint1_linear_1153_20609)"/>
<path d="M6.4405 31.6759C6.35004 31.6777 6.26044 31.6581 6.17894 31.6188C6.10139 31.5817 6.0327 31.5284 5.9775 31.4625C5.92007 31.3915 5.87532 31.3111 5.84522 31.225C5.81426 31.1277 5.79805 31.0264 5.79711 30.9243C5.79483 30.8225 5.80904 30.7209 5.8392 30.6237C5.86658 30.5366 5.90935 30.4551 5.96548 30.3831C6.0211 30.3153 6.08955 30.2591 6.16691 30.2178C6.2475 30.1782 6.33573 30.1567 6.42547 30.1546C6.51593 30.1529 6.60553 30.1725 6.68703 30.2118C6.7651 30.248 6.83396 30.3015 6.88847 30.3681C6.9459 30.4391 6.99065 30.5194 7.02075 30.6056C7.05424 30.7023 7.07151 30.8039 7.07186 30.9063C7.07261 31.008 7.05843 31.1093 7.02977 31.2069C7.00192 31.2944 6.95808 31.3759 6.90049 31.4474C6.8465 31.5183 6.77692 31.5757 6.69716 31.6153C6.61739 31.655 6.52957 31.6757 6.4405 31.6759ZM6.4405 31.4444C6.49446 31.4444 6.54743 31.4299 6.59383 31.4023C6.63975 31.373 6.67873 31.334 6.70808 31.2881C6.73981 31.2367 6.76411 31.181 6.78023 31.1227C6.79662 31.0559 6.8037 30.9871 6.80128 30.9183C6.80177 30.8492 6.79267 30.7804 6.77422 30.7139C6.75613 30.6553 6.72982 30.5996 6.69605 30.5485C6.66557 30.5033 6.62555 30.4653 6.5788 30.4373C6.5331 30.4109 6.48125 30.397 6.42848 30.397C6.3757 30.397 6.32386 30.4109 6.27815 30.4373C6.23146 30.4654 6.19145 30.5034 6.1609 30.5485C6.12863 30.6007 6.10432 30.6575 6.08874 30.7169C6.07262 30.7838 6.06455 30.8524 6.06469 30.9213C6.06666 30.9904 6.07675 31.059 6.09475 31.1257C6.11027 31.1853 6.13678 31.2413 6.17292 31.2911C6.2034 31.3363 6.24343 31.3743 6.29018 31.4023C6.33621 31.4308 6.38942 31.4454 6.44351 31.4444H6.4405Z" fill="url(#paint2_linear_1153_20609)"/>
<path d="M8.36666 31.6513C8.2762 31.653 8.1866 31.6334 8.1051 31.5941C8.02703 31.5579 7.95817 31.5044 7.90366 31.4378C7.84515 31.3676 7.80029 31.287 7.77137 31.2003C7.73897 31.1034 7.72272 31.0018 7.72327 30.8996C7.71942 30.7977 7.73367 30.6959 7.76536 30.599C7.79274 30.5119 7.83551 30.4305 7.89163 30.3585C7.94563 30.2876 8.0152 30.2302 8.09497 30.1906C8.17474 30.1509 8.26256 30.1302 8.35163 30.13C8.44209 30.1283 8.53169 30.1478 8.61319 30.1871C8.69074 30.2242 8.75943 30.2775 8.81463 30.3434C8.87205 30.4144 8.91681 30.4948 8.94691 30.581C8.97943 30.6778 8.99568 30.7794 8.99502 30.8816C8.99861 30.9835 8.98437 31.0853 8.95293 31.1823C8.92491 31.2691 8.8822 31.3504 8.82665 31.4228C8.77266 31.4936 8.70308 31.5511 8.62332 31.5907C8.54355 31.6303 8.45573 31.651 8.36666 31.6513ZM8.36666 31.4198C8.42062 31.4198 8.47358 31.4052 8.51999 31.3777C8.56656 31.3492 8.60571 31.31 8.63424 31.2634C8.66844 31.2133 8.69292 31.1572 8.70639 31.0981C8.72379 31.0314 8.73188 30.9626 8.73045 30.8936C8.72996 30.8244 8.71984 30.7556 8.70038 30.6892C8.68327 30.6308 8.65797 30.5751 8.62522 30.5238C8.59436 30.4779 8.55317 30.4398 8.50496 30.4126C8.45903 30.3842 8.40553 30.3706 8.35163 30.3735C8.29767 30.3735 8.2447 30.3881 8.1983 30.4156C8.15252 30.4439 8.11351 30.4818 8.08405 30.5268C8.0493 30.5778 8.02479 30.6349 8.01189 30.6952C7.99431 30.7619 7.98621 30.8307 7.98784 30.8996C7.98684 30.969 7.99699 31.038 8.01791 31.1041C8.03373 31.163 8.05912 31.2188 8.09307 31.2694C8.12464 31.3148 8.16567 31.3527 8.21333 31.3807C8.25959 31.408 8.31307 31.4206 8.36666 31.4168V31.4198Z" fill="url(#paint3_linear_1153_20609)"/>
<path d="M8.39367 33.6026C8.30332 33.6069 8.21336 33.5883 8.1321 33.5485C8.05511 33.5105 7.9866 33.4573 7.93067 33.3922C7.87216 33.3219 7.82729 33.2414 7.79838 33.1547C7.76619 33.0577 7.74994 32.9562 7.75028 32.854C7.74778 32.7522 7.762 32.6506 7.79237 32.5534C7.81972 32.4654 7.86247 32.3829 7.91864 32.3098C7.97235 32.2421 8.04003 32.1867 8.11707 32.1475C8.1976 32.1049 8.28754 32.0832 8.37864 32.0844C8.4671 32.0814 8.55504 32.0992 8.63542 32.1362C8.71581 32.1733 8.78642 32.2286 8.84164 32.2978C8.89969 32.3684 8.94451 32.4488 8.97392 32.5353C9.00688 32.6321 9.02314 32.7338 9.02203 32.836C9.02562 32.9379 9.01138 33.0396 8.97994 33.1366C8.95192 33.2234 8.90921 33.3048 8.85366 33.3771C8.79981 33.4455 8.73221 33.5019 8.65523 33.5425C8.57398 33.5828 8.48437 33.6034 8.39367 33.6026ZM8.39367 33.3741C8.44674 33.3745 8.49883 33.3599 8.54399 33.3321C8.59056 33.3035 8.62972 33.2644 8.65824 33.2178C8.69244 33.1677 8.71692 33.1116 8.7304 33.0525C8.74928 32.986 8.7574 32.917 8.75445 32.848C8.75545 32.7787 8.7453 32.7097 8.72438 32.6436C8.70785 32.585 8.6825 32.5292 8.64922 32.4782C8.61836 32.4323 8.57718 32.3942 8.52896 32.367C8.48326 32.3406 8.43141 32.3267 8.37864 32.3267C8.32586 32.3267 8.27402 32.3406 8.22831 32.367C8.18187 32.3944 8.14269 32.4325 8.11407 32.4782C8.07986 32.5283 8.05539 32.5844 8.04191 32.6436C8.02467 32.7103 8.01657 32.7791 8.01786 32.848C8.01834 32.9172 8.02846 32.986 8.04792 33.0525C8.06375 33.1113 8.08914 33.1672 8.12308 33.2178C8.1555 33.2624 8.19636 33.3002 8.24334 33.329C8.28945 33.3576 8.34243 33.3732 8.39668 33.3741H8.39367Z" fill="url(#paint4_linear_1153_20609)"/>
<path d="M10.2338 31.6283C10.1453 31.6313 10.0574 31.6135 9.97699 31.5764C9.89661 31.5394 9.82599 31.484 9.77078 31.4149C9.71166 31.345 9.66673 31.2644 9.63849 31.1773C9.60598 31.0805 9.58972 30.9789 9.59039 30.8767C9.58679 30.7748 9.60104 30.673 9.63248 30.5761C9.66049 30.4892 9.7032 30.4079 9.75875 30.3355C9.81275 30.2647 9.88232 30.2072 9.96209 30.1676C10.0419 30.128 10.1297 30.1073 10.2187 30.107C10.3092 30.1053 10.3988 30.1249 10.4803 30.1642C10.5579 30.2013 10.6265 30.2546 10.6817 30.3205C10.7381 30.3922 10.7827 30.4724 10.814 30.558C10.8464 30.6549 10.8627 30.7565 10.8621 30.8587C10.866 30.9606 10.8517 31.0624 10.82 31.1593C10.7934 31.2467 10.7505 31.3283 10.6938 31.3998C10.6398 31.4707 10.5702 31.5281 10.4904 31.5677C10.4107 31.6074 10.3228 31.6281 10.2338 31.6283ZM10.2338 31.3998C10.288 31.3989 10.341 31.3833 10.3871 31.3547C10.4329 31.3265 10.4719 31.2885 10.5014 31.2435C10.5355 31.1923 10.56 31.1352 10.5735 31.0751C10.5909 31.0094 10.599 30.9416 10.5976 30.8737C10.5971 30.8045 10.587 30.7357 10.5675 30.6693C10.5507 30.6102 10.5243 30.5544 10.4893 30.5039C10.4588 30.4587 10.4188 30.4208 10.3721 30.3927C10.3264 30.3663 10.2745 30.3524 10.2218 30.3524C10.169 30.3524 10.1171 30.3663 10.0714 30.3927C10.0256 30.4209 9.98664 30.4589 9.95718 30.5039C9.92301 30.5551 9.89855 30.6122 9.88502 30.6723C9.86763 30.739 9.85954 30.8078 9.86097 30.8767C9.86048 30.9458 9.86959 31.0146 9.88803 31.0811C9.90484 31.1402 9.93125 31.196 9.9662 31.2465C9.99706 31.2925 10.0382 31.3305 10.0865 31.3577C10.1311 31.3843 10.1819 31.3988 10.2338 31.3998Z" fill="url(#paint5_linear_1153_20609)"/>
<path d="M2.63172 33.6757C2.54142 33.6793 2.45161 33.6608 2.37015 33.6216C2.29316 33.5836 2.22465 33.5304 2.16872 33.4653C2.11116 33.3949 2.06731 33.3143 2.03944 33.2278C2.00627 33.131 1.98901 33.0294 1.98833 32.9271C1.98736 32.8254 2.00155 32.724 2.03042 32.6265C2.05777 32.5385 2.10052 32.456 2.15669 32.3829C2.21244 32.316 2.28091 32.2609 2.35813 32.2206C2.43865 32.178 2.52859 32.1563 2.61969 32.1575C2.70976 32.1564 2.79898 32.1749 2.88126 32.2116C2.95801 32.2499 3.02567 32.3043 3.07968 32.3709C3.1388 32.4407 3.18374 32.5214 3.21197 32.6084C3.24595 32.705 3.26323 32.8067 3.26308 32.9091C3.26357 33.0108 3.2494 33.1121 3.22099 33.2097C3.19298 33.2965 3.15027 33.3779 3.09472 33.4502C3.03909 33.5181 2.97064 33.5743 2.89328 33.6156C2.81203 33.6559 2.72242 33.6765 2.63172 33.6757ZM2.63172 33.4472C2.68568 33.4472 2.73864 33.4327 2.78505 33.4052C2.83096 33.3758 2.86995 33.3368 2.89929 33.2909C2.93103 33.2395 2.95532 33.1838 2.97145 33.1255C2.98724 33.0585 2.99531 32.9899 2.9955 32.9211C2.99354 32.852 2.98345 32.7834 2.96544 32.7167C2.94797 32.6579 2.9216 32.6021 2.88727 32.5513C2.85679 32.5061 2.81676 32.4681 2.77002 32.4401C2.72273 32.412 2.66866 32.3974 2.61368 32.398C2.56046 32.3994 2.50859 32.415 2.46335 32.4431C2.41603 32.4704 2.37585 32.5085 2.3461 32.5543C2.31437 32.6058 2.29007 32.6614 2.27394 32.7197C2.25815 32.7867 2.25008 32.8553 2.24989 32.9241C2.25186 32.9932 2.26195 33.0618 2.27996 33.1286C2.29676 33.1876 2.32317 33.2435 2.35813 33.2939C2.38948 33.3384 2.42933 33.3762 2.47538 33.4052C2.52354 33.4337 2.57873 33.4483 2.63472 33.4472H2.63172Z" fill="url(#paint6_linear_1153_20609)"/>
<path d="M2.65539 35.5243C2.56516 35.5271 2.47555 35.5086 2.39382 35.4702C2.31739 35.4366 2.24879 35.3875 2.19239 35.3259C2.13376 35.2557 2.08888 35.1752 2.0601 35.0884C2.02888 34.9912 2.01266 34.8898 2.012 34.7877C2.0095 34.6859 2.02372 34.5843 2.05409 34.4871C2.08144 34.3991 2.12419 34.3166 2.18036 34.2436C2.2335 34.1753 2.30131 34.1198 2.37879 34.0812C2.45932 34.0386 2.54926 34.0169 2.64036 34.0181C2.73071 34.0138 2.82067 34.0325 2.90192 34.0722C2.98018 34.1095 3.04903 34.164 3.10336 34.2315C3.16198 34.3017 3.20686 34.3823 3.23564 34.469C3.2686 34.5658 3.28486 34.6675 3.28374 34.7697C3.28779 34.8716 3.27353 34.9734 3.24165 35.0703C3.2168 35.1594 3.17381 35.2423 3.11538 35.3139C3.06224 35.3822 2.99443 35.4377 2.91695 35.4762C2.83509 35.5136 2.74521 35.5302 2.65539 35.5243ZM2.65539 35.2958C2.7085 35.2965 2.76069 35.2819 2.80571 35.2537C2.85163 35.2244 2.89061 35.1854 2.91996 35.1395C2.95416 35.0894 2.97864 35.0333 2.99212 34.9741C3.011 34.9077 3.01912 34.8387 3.01617 34.7697C3.01717 34.7014 3.00701 34.6333 2.9861 34.5683C2.97088 34.5092 2.94544 34.4532 2.91094 34.4029C2.88019 34.3561 2.83903 34.317 2.79068 34.2887C2.74398 34.2622 2.69103 34.2487 2.63735 34.2496C2.58339 34.2496 2.53042 34.2641 2.48402 34.2917C2.4381 34.321 2.39912 34.36 2.36977 34.4059C2.33754 34.4571 2.31321 34.5128 2.29762 34.5713C2.28022 34.638 2.27213 34.7068 2.27356 34.7757C2.27554 34.8438 2.28563 34.9114 2.30363 34.9771C2.31885 35.0362 2.34429 35.0922 2.37879 35.1425C2.41114 35.188 2.45197 35.2268 2.49905 35.2567C2.54751 35.2843 2.60268 35.2978 2.65839 35.2958H2.65539Z" fill="url(#paint7_linear_1153_20609)"/>
<path d="M0.792441 37.3012C0.702091 37.3055 0.612132 37.2869 0.530876 37.2471C0.45281 37.2109 0.383949 37.1574 0.329441 37.0908C0.270933 37.0206 0.226067 36.94 0.197156 36.8533C0.164959 36.7563 0.148713 36.6548 0.149052 36.5526C0.145204 36.4507 0.159455 36.3489 0.191143 36.252C0.218491 36.164 0.261245 36.0815 0.317416 36.0084C0.371118 35.9407 0.438799 35.8853 0.515844 35.8461C0.596372 35.8035 0.68631 35.7818 0.777409 35.783C0.867505 35.7817 0.95679 35.8001 1.03897 35.8371C1.11606 35.8763 1.18454 35.9304 1.24041 35.9964C1.29735 36.0677 1.34206 36.148 1.37269 36.2339C1.40521 36.3308 1.42146 36.4324 1.4208 36.5346C1.4244 36.6365 1.41015 36.7382 1.37871 36.8352C1.3507 36.922 1.30798 37.0034 1.25243 37.0758C1.19858 37.1441 1.13099 37.2005 1.05401 37.2411C0.972753 37.2814 0.883143 37.302 0.792441 37.3012ZM0.792441 37.0727C0.846403 37.0727 0.899366 37.0582 0.945773 37.0307C0.992343 37.0021 1.03149 36.963 1.06002 36.9164C1.09422 36.8663 1.1187 36.8102 1.13218 36.7511C1.14957 36.6843 1.15766 36.6155 1.15623 36.5466C1.15574 36.4774 1.14562 36.4086 1.12616 36.3422C1.10996 36.2829 1.0835 36.2269 1.04799 36.1768C1.01825 36.131 0.978064 36.0929 0.93074 36.0656C0.885036 36.0392 0.83319 36.0253 0.780415 36.0253C0.72764 36.0253 0.675795 36.0392 0.630091 36.0656C0.583652 36.093 0.544471 36.1311 0.515844 36.1768C0.481642 36.2269 0.457165 36.283 0.443688 36.3422C0.426444 36.4089 0.418353 36.4777 0.419636 36.5466C0.419142 36.6157 0.428249 36.6845 0.446695 36.7511C0.463499 36.8101 0.489909 36.866 0.524864 36.9164C0.556502 36.9617 0.597517 36.9996 0.645123 37.0277C0.689479 37.0552 0.740252 37.0708 0.792441 37.0727Z" fill="url(#paint8_linear_1153_20609)"/>
<path d="M6.49133 35.4758C6.40097 35.48 6.31102 35.4614 6.22976 35.4217C6.15192 35.3837 6.08321 35.3293 6.02833 35.2623C5.9697 35.1922 5.92482 35.1116 5.89604 35.0248C5.86482 34.9276 5.8486 34.8262 5.84794 34.7242C5.84544 34.6223 5.85966 34.5208 5.89003 34.4235C5.91737 34.3355 5.96013 34.2531 6.0163 34.18C6.06944 34.1117 6.13725 34.0562 6.21473 34.0176C6.29526 33.975 6.38519 33.9533 6.47629 33.9545C6.56476 33.9516 6.65269 33.9693 6.73308 34.0064C6.81346 34.0435 6.88408 34.0988 6.93929 34.168C6.99792 34.2381 7.0428 34.3187 7.07158 34.4055C7.10453 34.5022 7.1208 34.6039 7.11968 34.7061C7.12372 34.8081 7.10947 34.9099 7.07759 35.0068C7.05273 35.0958 7.00974 35.1787 6.95132 35.2503C6.89818 35.3186 6.83037 35.3741 6.75289 35.4127C6.67236 35.4553 6.58242 35.477 6.49133 35.4758ZM6.49133 35.2473C6.54444 35.248 6.59662 35.2334 6.64165 35.2052C6.68756 35.1759 6.72655 35.1369 6.7559 35.091C6.7901 35.0409 6.81458 34.9848 6.82805 34.9256C6.84694 34.8592 6.85506 34.7902 6.8521 34.7212C6.8531 34.6528 6.84295 34.5848 6.82204 34.5197C6.80682 34.4606 6.78138 34.4047 6.74688 34.3544C6.71529 34.3082 6.6743 34.2693 6.62662 34.2401C6.57991 34.2136 6.52697 34.2001 6.47329 34.201C6.41932 34.2011 6.36636 34.2156 6.31996 34.2431C6.27404 34.2725 6.23506 34.3115 6.20571 34.3574C6.17348 34.4086 6.14915 34.4643 6.13355 34.5227C6.11616 34.5894 6.10807 34.6582 6.1095 34.7272C6.11148 34.7953 6.12157 34.8629 6.13957 34.9286C6.15479 34.9877 6.18022 35.0437 6.21473 35.094C6.24625 35.1402 6.28725 35.1791 6.33499 35.2082C6.38345 35.2358 6.43862 35.2493 6.49433 35.2473H6.49133Z" fill="url(#paint9_linear_1153_20609)"/>
<path d="M10.2104 29.6732C10.1197 29.674 10.0301 29.6534 9.94885 29.6131C9.87021 29.5764 9.80047 29.523 9.7444 29.4568C9.68794 29.3856 9.6442 29.3053 9.61513 29.2193C9.58108 29.1228 9.56478 29.0209 9.56702 28.9186C9.56317 28.8167 9.57742 28.7149 9.60911 28.618C9.63403 28.5299 9.67703 28.448 9.73538 28.3774C9.78938 28.3066 9.85895 28.2491 9.93872 28.2095C10.0185 28.1699 10.1063 28.1492 10.1954 28.1489C10.2858 28.1472 10.3754 28.1668 10.4569 28.2061C10.5345 28.2432 10.6032 28.2965 10.6584 28.3624C10.7148 28.4335 10.7586 28.5139 10.7877 28.5999C10.8211 28.6966 10.8384 28.7982 10.8388 28.9006C10.841 29.0024 10.8268 29.1039 10.7967 29.2012C10.7693 29.2883 10.7265 29.3697 10.6704 29.4417C10.6164 29.5126 10.5468 29.57 10.4671 29.6096C10.3873 29.6493 10.2995 29.67 10.2104 29.6702V29.6732ZM10.2104 29.4417C10.2644 29.4417 10.3173 29.4272 10.3637 29.3996C10.4103 29.3711 10.4495 29.332 10.478 29.2854C10.5102 29.2342 10.5345 29.1785 10.5501 29.12C10.5677 29.0534 10.5758 28.9845 10.5742 28.9156C10.5722 28.8465 10.5621 28.7779 10.5441 28.7112C10.5273 28.6521 10.5009 28.5963 10.466 28.5458C10.4355 28.5006 10.3955 28.4626 10.3487 28.4346C10.3016 28.4063 10.2472 28.3927 10.1924 28.3955C10.1394 28.396 10.0876 28.4105 10.042 28.4376C9.99627 28.4658 9.95726 28.5038 9.9278 28.5488C9.89305 28.5997 9.86855 28.6569 9.85564 28.7172C9.83676 28.7836 9.82864 28.8526 9.83159 28.9216C9.8311 28.9907 9.84021 29.0595 9.85865 29.126C9.87546 29.1851 9.90186 29.241 9.93682 29.2914C9.96768 29.3374 10.0089 29.3755 10.0571 29.4026C10.103 29.431 10.1565 29.4447 10.2104 29.4417Z" fill="url(#paint10_linear_1153_20609)"/>
<path d="M11.7499 27.8095L11.4703 27.8907L11.4102 27.6682L11.8251 27.5299H12.0175L12.0385 29.0963H11.78L11.7499 27.8095Z" fill="url(#paint11_linear_1153_20609)"/>
<path d="M4.43408 30.4581L4.1665 30.5363L4.10938 30.3229L4.50924 30.1876H4.69564L4.71368 31.6908H4.45212L4.43408 30.4581Z" fill="url(#paint12_linear_1153_20609)"/>
<path d="M4.46052 32.4099L4.18994 32.488L4.13281 32.2746L4.53268 32.1423H4.71908L4.73712 33.6455H4.47555L4.46052 32.4099Z" fill="url(#paint13_linear_1153_20609)"/>
<path d="M6.48396 32.3852L6.21638 32.4634L6.15625 32.2499L6.55912 32.1176H6.74552L6.76356 33.6209H6.502L6.48396 32.3852Z" fill="url(#paint14_linear_1153_20609)"/>
<path d="M4.48396 34.2582L4.21638 34.3363L4.15625 34.1229L4.55912 33.9906H4.74552L4.76356 35.4938H4.49899L4.48396 34.2582Z" fill="url(#paint15_linear_1153_20609)"/>
<path d="M4.5074 36.0148L4.23681 36.093L4.17969 35.8795L4.57955 35.7442H4.76595L4.78399 37.2475H4.52243L4.5074 36.0148Z" fill="url(#paint16_linear_1153_20609)"/>
<path d="M2.6949 36.0348L2.42732 36.113L2.36719 35.8995L2.76404 35.7672H2.95045L2.96849 37.2705H2.71293L2.6949 36.0348Z" fill="url(#paint17_linear_1153_20609)"/>
</g>
<path d="M31.9269 17.687C31.9269 17.687 37.3837 20.4289 37.3837 27.0793C37.3837 32.6623 34.4644 38.6242 24.6933 40.5303C12.8567 42.8423 4.78125 34.1836 4.78125 34.1836C4.78125 34.1836 10.9716 44.6041 20.3759 44.4688C29.7802 44.3335 35.6158 40.2748 35.6158 40.2748C35.6158 40.2748 42.0888 34.9443 42.8495 32.4068C43.6101 29.8693 44.7526 26.1893 44.7526 26.1893L42.4676 19.091L33.4482 15.1555L31.9269 17.687Z" fill="#E1251B"/>
<path d="M29.9052 18.995C30.9952 18.9468 32.0855 19.0809 33.1312 19.3919C34.2069 19.6896 35.1566 20.329 35.837 21.2138C36.4434 22.1452 36.8527 23.1909 37.0396 24.2865C37.2583 25.3617 37.3591 26.4575 37.3403 27.5545C37.3181 29.7748 36.7961 31.9615 35.813 33.9523C35.3029 34.9635 34.6351 35.887 33.8347 36.6882C33.6363 36.8957 33.4168 37.0791 33.2004 37.2655C32.9839 37.4519 32.7644 37.6052 32.5449 37.7766C32.3255 37.948 32.109 38.1103 31.8805 38.2636C31.652 38.417 31.4295 38.5823 31.195 38.7296C29.322 39.9573 27.2451 40.841 25.0618 41.3393C22.8564 41.8237 20.5734 41.835 18.3633 41.3724C17.282 41.1307 16.2199 40.8102 15.1855 40.4133C14.1632 40.0254 13.1651 39.6075 12.179 39.1475C10.2222 38.242 8.32882 37.2054 6.51172 36.0448L6.58989 35.8855C8.62528 36.571 10.6366 37.2865 12.654 37.954L14.1572 38.444C14.6623 38.5944 15.1674 38.7447 15.6605 38.892C16.647 39.1913 17.6511 39.4293 18.667 39.6045C20.6679 39.9411 22.7094 39.9594 24.716 39.6587C26.7343 39.3179 28.6714 38.6042 30.4284 37.5541C30.6508 37.4248 30.8673 37.2805 31.0868 37.1452C31.3063 37.0099 31.5227 36.8656 31.7332 36.7123C32.157 36.4346 32.559 36.1251 32.9358 35.7863C33.6781 35.1028 34.3063 34.305 34.7968 33.4232C35.795 31.6016 36.3801 29.5825 36.5105 27.5094C36.5892 26.4695 36.5549 25.4242 36.4083 24.3917C36.2849 23.3723 35.9588 22.3879 35.4492 21.4964C34.8499 20.6555 33.9945 20.0311 33.0109 19.7166C32.0146 19.3673 30.967 19.1864 29.9113 19.1814L29.9052 18.995Z" fill="#672F25"/>
<path d="M25.9715 42.3048C35.1082 40.531 37.9794 34.984 38.4094 29.7437C38.9175 23.5263 35.8719 20.7242 34.1792 19.3803C35.2796 20.2823 37.2669 23.2707 37.2669 27.0799C37.2669 32.663 34.3476 38.6249 24.5765 40.531C18.1967 41.7727 10.0792 38.0146 6.55859 35.9611C9.3396 38.664 17.857 43.8832 25.9715 42.3048Z" fill="#FF9E18"/>
<path d="M23.013 44.4633C34.9267 44.4633 44.5846 34.8054 44.5846 22.8917C44.5846 10.9781 34.9267 1.32013 23.013 1.32013C11.0993 1.32013 1.44141 10.9781 1.44141 22.8917C1.44141 34.8054 11.0993 44.4633 23.013 44.4633Z" stroke="white" stroke-width="1.26874" stroke-miterlimit="10"/>
</g>
<defs>
<linearGradient id="paint0_linear_1153_20609" x1="-49.0493" y1="66.1007" x2="4.70185" y2="32.3512" gradientUnits="userSpaceOnUse">
<stop stop-color="#CE0E2D"/>
<stop offset="0.53" stop-color="#FF9E18"/>
<stop offset="0.99" stop-color="#F7BE00"/>
</linearGradient>
<linearGradient id="paint1_linear_1153_20609" x1="-52.3631" y1="67.0531" x2="-0.479439" y2="34.4726" gradientUnits="userSpaceOnUse">
<stop stop-color="#CE0E2D"/>
<stop offset="0.53" stop-color="#FF9E18"/>
<stop offset="0.99" stop-color="#F7BE00"/>
</linearGradient>
<linearGradient id="paint2_linear_1153_20609" x1="-54.2651" y1="69.0312" x2="-2.37849" y2="36.4537" gradientUnits="userSpaceOnUse">
<stop stop-color="#CE0E2D"/>
<stop offset="0.53" stop-color="#FF9E18"/>
<stop offset="0.99" stop-color="#F7BE00"/>
</linearGradient>
<linearGradient id="paint3_linear_1153_20609" x1="-52.3391" y1="69.0064" x2="-0.455486" y2="36.4289" gradientUnits="userSpaceOnUse">
<stop stop-color="#CE0E2D"/>
<stop offset="0.53" stop-color="#FF9E18"/>
<stop offset="0.99" stop-color="#F7BE00"/>
</linearGradient>
<linearGradient id="paint4_linear_1153_20609" x1="-52.3116" y1="70.9606" x2="-0.427993" y2="38.3831" gradientUnits="userSpaceOnUse">
<stop stop-color="#CE0E2D"/>
<stop offset="0.53" stop-color="#FF9E18"/>
<stop offset="0.99" stop-color="#F7BE00"/>
</linearGradient>
<linearGradient id="paint5_linear_1153_20609" x1="-50.4752" y1="68.9841" x2="1.41148" y2="36.4066" gradientUnits="userSpaceOnUse">
<stop stop-color="#CE0E2D"/>
<stop offset="0.53" stop-color="#FF9E18"/>
<stop offset="0.99" stop-color="#F7BE00"/>
</linearGradient>
<linearGradient id="paint6_linear_1153_20609" x1="-58.0731" y1="71.034" x2="-6.18645" y2="38.4565" gradientUnits="userSpaceOnUse">
<stop stop-color="#CE0E2D"/>
<stop offset="0.53" stop-color="#FF9E18"/>
<stop offset="0.99" stop-color="#F7BE00"/>
</linearGradient>
<linearGradient id="paint7_linear_1153_20609" x1="-58.0503" y1="72.8824" x2="-6.16364" y2="40.3019" gradientUnits="userSpaceOnUse">
<stop stop-color="#CE0E2D"/>
<stop offset="0.53" stop-color="#FF9E18"/>
<stop offset="0.99" stop-color="#F7BE00"/>
</linearGradient>
<linearGradient id="paint8_linear_1153_20609" x1="-59.915" y1="74.6619" x2="-8.02842" y2="42.0814" gradientUnits="userSpaceOnUse">
<stop stop-color="#CE0E2D"/>
<stop offset="0.53" stop-color="#FF9E18"/>
<stop offset="0.99" stop-color="#F7BE00"/>
</linearGradient>
<linearGradient id="paint9_linear_1153_20609" x1="-54.2146" y1="72.8338" x2="-2.32802" y2="40.2533" gradientUnits="userSpaceOnUse">
<stop stop-color="#CE0E2D"/>
<stop offset="0.53" stop-color="#FF9E18"/>
<stop offset="0.99" stop-color="#F7BE00"/>
</linearGradient>
<linearGradient id="paint10_linear_1153_20609" x1="-50.4991" y1="67.0291" x2="1.38755" y2="34.4486" gradientUnits="userSpaceOnUse">
<stop stop-color="#CE0E2D"/>
<stop offset="0.53" stop-color="#FF9E18"/>
<stop offset="0.99" stop-color="#F7BE00"/>
</linearGradient>
<linearGradient id="paint11_linear_1153_20609" x1="-54.0764" y1="69.6993" x2="-0.325296" y2="35.9497" gradientUnits="userSpaceOnUse">
<stop stop-color="#CE0E2D"/>
<stop offset="0.53" stop-color="#FF9E18"/>
<stop offset="0.99" stop-color="#F7BE00"/>
</linearGradient>
<linearGradient id="paint12_linear_1153_20609" x1="-59.1077" y1="70.893" x2="-7.22112" y2="38.3124" gradientUnits="userSpaceOnUse">
<stop stop-color="#CE0E2D"/>
<stop offset="0.53" stop-color="#FF9E18"/>
<stop offset="0.99" stop-color="#F7BE00"/>
</linearGradient>
<linearGradient id="paint13_linear_1153_20609" x1="-59.0838" y1="72.8445" x2="-7.19715" y2="40.267" gradientUnits="userSpaceOnUse">
<stop stop-color="#CE0E2D"/>
<stop offset="0.53" stop-color="#FF9E18"/>
<stop offset="0.99" stop-color="#F7BE00"/>
</linearGradient>
<linearGradient id="paint14_linear_1153_20609" x1="-57.0575" y1="72.8185" x2="-5.17086" y2="40.241" gradientUnits="userSpaceOnUse">
<stop stop-color="#CE0E2D"/>
<stop offset="0.53" stop-color="#FF9E18"/>
<stop offset="0.99" stop-color="#F7BE00"/>
</linearGradient>
<linearGradient id="paint15_linear_1153_20609" x1="-59.0582" y1="74.6927" x2="-7.17157" y2="42.1122" gradientUnits="userSpaceOnUse">
<stop stop-color="#CE0E2D"/>
<stop offset="0.53" stop-color="#FF9E18"/>
<stop offset="0.99" stop-color="#F7BE00"/>
</linearGradient>
<linearGradient id="paint16_linear_1153_20609" x1="-59.0368" y1="76.4492" x2="-7.15014" y2="43.8687" gradientUnits="userSpaceOnUse">
<stop stop-color="#CE0E2D"/>
<stop offset="0.53" stop-color="#FF9E18"/>
<stop offset="0.99" stop-color="#F7BE00"/>
</linearGradient>
<linearGradient id="paint17_linear_1153_20609" x1="-60.8461" y1="76.4709" x2="-8.95949" y2="43.8903" gradientUnits="userSpaceOnUse">
<stop stop-color="#CE0E2D"/>
<stop offset="0.53" stop-color="#FF9E18"/>
<stop offset="0.99" stop-color="#F7BE00"/>
</linearGradient>
<clipPath id="clip0_1153_20609">
<rect width="45.0974" height="45.0974" fill="white" transform="translate(0.359375 0.451294)"/>
</clipPath>
</defs>
</svg>
