<svg width="45" height="44" viewBox="0 0 45 44" fill="none" xmlns="http://www.w3.org/2000/svg">
<g style="mix-blend-mode:luminosity">
<path d="M31.0125 9.37369C24.2874 9.37369 18.8359 14.8252 18.8359 21.5502C18.8359 28.2753 24.2874 33.7268 31.0125 33.7268C37.7375 33.7268 43.189 28.2753 43.189 21.5502C43.189 14.8252 37.7375 9.37369 31.0125 9.37369ZM31.0125 27.413C27.7744 27.413 25.1497 24.7883 25.1497 21.5502C25.1497 18.3122 27.7744 15.6875 31.0125 15.6875C34.2505 15.6875 36.8753 18.3122 36.8753 21.5502C36.8753 24.7883 34.2505 27.413 31.0125 27.413Z" fill="#FFB300"/>
<path d="M18.057 25.6551V25.6524C16.9927 26.7383 15.5116 27.413 13.8719 27.413C10.6338 27.413 8.00908 24.7883 8.00908 21.5502C8.00908 18.3122 10.6338 15.6875 13.8719 15.6875C15.5225 15.6875 17.0116 16.372 18.0768 17.4697L21.4592 12.0363C19.3775 10.374 16.7428 9.37369 13.8719 9.37369C7.1468 9.37369 1.69531 14.8252 1.69531 21.5502C1.69531 28.2753 7.1468 33.7268 13.8719 33.7268C16.7257 33.7268 19.3441 32.7373 21.4204 31.0939L18.057 25.6551Z" fill="#FFB300"/>
<path d="M8.00908 21.5501C8.00908 19.9383 8.6603 18.4789 9.71289 17.4191L5.33385 12.875C3.08975 15.083 1.69531 18.1524 1.69531 21.5501C1.69531 24.9316 3.07532 27.9901 5.30138 30.1963L9.75168 25.719C8.67653 24.6565 8.00908 23.1817 8.00908 21.5501Z" fill="#F57C00"/>
<path d="M35.1884 17.438C36.2302 18.496 36.8751 19.9473 36.8751 21.5501C36.8751 24.7881 34.2503 27.4129 31.0123 27.4129C29.3653 27.4129 27.8788 26.7319 26.8136 25.6378L22.3047 30.0529C24.5163 32.3168 27.5974 33.7266 31.0123 33.7266C37.7373 33.7266 43.1888 28.2751 43.1888 21.5501C43.1888 18.2272 41.8548 15.2192 39.6973 13.022L35.1884 17.438Z" fill="#F57C00"/>
</g>
</svg>
