<svg width="31" height="32" viewBox="0 0 31 32" fill="none" xmlns="http://www.w3.org/2000/svg">
<g style="mix-blend-mode:luminosity" clip-path="url(#clip0_1153_20580)">
<path d="M20.1638 26.7374C19.6789 26.7374 17.9136 23.5944 17.6762 22.6991C17.1799 20.8226 17.2873 20.0296 17.3163 19.7771C17.4072 19.003 18.1586 18.6153 18.204 17.5698C18.2167 17.2465 18.3808 15.6315 18.5109 14.37C18.1723 14.3011 17.8551 14.1527 17.5853 13.9368C18.4389 15.0834 17.1812 16.456 15.354 18.2845C13.4144 20.2241 9.10969 22.0235 9.10969 22.0235C9.10969 22.0235 10.9091 17.7175 12.8487 15.7792C14.2756 14.3535 15.4247 13.2752 16.4046 13.2752C16.6824 13.2752 16.9438 13.3598 17.1964 13.5479C16.9805 13.2782 16.832 12.9609 16.7632 12.6223C15.5017 12.7524 13.8867 12.9153 13.5634 12.9304C12.5166 12.9759 12.1302 13.726 11.3574 13.8169C11.269 13.827 11.1124 13.8472 10.8674 13.8472C10.4129 13.8472 9.65141 13.779 8.43538 13.4557C7.46054 13.1994 3.82886 11.1323 4.47034 10.8734C4.79865 10.7408 5.84295 10.6512 7.21682 10.6512C8.53893 10.6512 10.1679 10.7345 11.7577 10.9416C13.7402 11.2005 15.5586 11.5262 16.7986 11.77C16.8188 11.703 16.8428 11.6386 16.8718 11.5755L15.604 10.9694C15.604 10.9694 14.5938 9.80764 14.7012 9.72682C14.7057 9.72399 14.711 9.72266 14.7163 9.72303C14.8754 9.72303 15.6848 10.6486 15.7631 10.7534L16.5271 11.0085L16.1685 10.6941C16.1685 10.6941 15.6785 8.87825 15.8061 8.83532H15.8111C15.945 8.83532 16.3907 10.4138 16.4286 10.5274C16.517 10.6032 16.8112 10.7193 17.1812 10.9315L16.7923 9.93391C16.7923 9.93391 16.9691 8.28602 17.0991 8.28602H17.1029C17.2355 8.31254 17.0777 9.66116 17.0436 9.82784L17.6876 10.8166C17.8746 10.7471 18.0727 10.712 18.2722 10.713C18.5046 10.713 18.7445 10.7585 18.9768 10.8481C18.6788 10.2142 18.7016 9.55382 19.0968 9.15858C19.2213 9.03512 19.3744 8.94444 19.5426 8.89466C19.5661 8.75888 19.637 8.63581 19.7426 8.54729C19.8483 8.45876 19.9818 8.41049 20.1196 8.41103C20.28 8.41103 20.4404 8.47417 20.5641 8.59792C20.6775 8.7102 20.7439 8.86146 20.7498 9.02094C20.9404 8.62822 21.1652 8.09913 21.15 7.92613C21.1122 7.53847 20.6626 6.85027 20.6576 6.84395C20.6476 6.82942 20.6418 6.81243 20.6409 6.79483C20.6399 6.77723 20.6438 6.75971 20.6522 6.74418C20.6605 6.72866 20.673 6.71574 20.6882 6.70683C20.7034 6.69792 20.7208 6.69337 20.7384 6.69369C20.77 6.69369 20.8015 6.70884 20.8192 6.73788C20.8394 6.76693 21.3003 7.4728 21.342 7.90845C21.3647 8.15848 21.0768 8.78733 20.9215 9.10807C21.3857 9.36464 21.7678 9.74724 22.0239 10.2117C22.3332 10.0602 22.9267 9.78996 23.1944 9.78996L23.2247 9.79122C23.6604 9.83289 24.3663 10.2951 24.3953 10.314C24.4168 10.3281 24.4317 10.3501 24.4369 10.3752C24.4421 10.4003 24.4372 10.4264 24.4231 10.4479C24.409 10.4693 24.387 10.4843 24.3619 10.4895C24.3368 10.4947 24.3107 10.4897 24.2892 10.4756C24.2829 10.4706 23.5947 10.021 23.2071 9.98316H23.1881C22.9987 9.98316 22.4911 10.1991 22.1123 10.3835C22.2638 10.3885 22.4178 10.4504 22.5353 10.5691C22.6512 10.6812 22.7179 10.8347 22.7208 10.9959C22.7236 11.1571 22.6623 11.3129 22.5504 11.429C22.4657 11.5139 22.3567 11.5703 22.2385 11.5906C22.1883 11.7592 22.0972 11.9128 21.9734 12.0377C21.8609 12.145 21.7281 12.2288 21.5828 12.2841C21.4376 12.3393 21.2827 12.3651 21.1273 12.3597C20.8596 12.3597 20.5704 12.2902 20.2851 12.1576C20.4517 12.5907 20.4644 13.0516 20.3166 13.4456L21.3054 14.0896C21.4253 14.0656 22.1464 13.9785 22.5593 13.9785C22.7234 13.9785 22.8396 13.9924 22.8472 14.029C22.8724 14.1629 21.1993 14.3409 21.1993 14.3409L20.2017 13.952C20.4139 14.322 20.53 14.6175 20.6058 14.7046C20.7207 14.7425 22.3408 15.1996 22.2979 15.3271C22.2928 15.3423 22.2651 15.3486 22.2183 15.3486C21.861 15.3486 20.4379 14.9647 20.4379 14.9647L20.1247 14.6061L20.3798 15.3701C20.4896 15.4521 21.4859 16.3234 21.4064 16.432C21.4013 16.4384 21.395 16.4409 21.3862 16.4409C21.2107 16.4409 20.1651 15.5292 20.1651 15.5292L19.5577 14.2614C19.4947 14.2903 19.4297 14.3147 19.3632 14.3346C19.607 15.5746 19.9328 17.393 20.1916 19.3755C20.6146 22.6195 20.5199 26.0189 20.2598 26.6616C20.2396 26.7134 20.2068 26.7374 20.1638 26.7374ZM15.2429 31.1532C6.87462 31.1532 0.0898438 24.3684 0.0898438 16.0002C0.0898438 7.63191 6.87462 0.847137 15.2429 0.847137C23.6112 0.847137 30.3959 7.63191 30.3959 16.0002C30.3959 24.3684 23.6112 31.1532 15.2429 31.1532ZM15.2429 3.17944C8.16263 3.17944 2.42215 8.91992 2.42215 16.0002C2.42215 23.0804 8.16263 28.8209 15.2429 28.8209C22.3231 28.8209 28.0636 23.0804 28.0636 16.0002C28.0636 8.91992 22.3231 3.17944 15.2429 3.17944Z" fill="white"/>
</g>
<defs>
<clipPath id="clip0_1153_20580">
<rect width="30.3061" height="30.3061" fill="white" transform="translate(0.0898438 0.846954)"/>
</clipPath>
</defs>
</svg>
