<svg width="51" height="50" viewBox="0 0 51 50" fill="none" xmlns="http://www.w3.org/2000/svg">
<g clip-path="url(#clip0_1153_20588)">
<path d="M25.7648 -0.000274658C13.1148 -0.000274658 13.8648 5.49972 13.8648 5.49972V11.1997H25.9648V12.8997H9.06484C9.06484 12.8997 0.964844 11.9997 0.964844 24.7997C0.964844 37.5997 8.06484 37.1497 8.06484 37.1497H12.3148V31.1997C12.3148 31.1997 12.0648 24.0997 19.3148 24.0997H31.3148C31.3148 24.0997 38.0648 24.1997 38.0648 17.5997V6.64972C38.0148 6.64972 39.0648 -0.000274658 25.7648 -0.000274658ZM19.1148 3.84972C19.4148 3.84972 19.6648 3.89972 19.9648 3.99972C20.2148 4.09972 20.4648 4.24972 20.6648 4.44972C20.8648 4.64972 21.0148 4.89972 21.1148 5.14972C21.2148 5.39972 21.2648 5.69972 21.2648 5.99972C21.2648 6.29972 21.2148 6.54972 21.1148 6.84972C21.0148 7.09972 20.8648 7.34972 20.6648 7.54972C20.4648 7.74972 20.2148 7.89972 19.9648 7.99972C19.7148 8.09972 19.4148 8.14972 19.1148 8.14972C18.8148 8.14972 18.5648 8.09972 18.2648 7.99972C17.9648 7.89972 17.7648 7.74972 17.5648 7.54972C17.3648 7.34972 17.2148 7.09972 17.1148 6.84972C17.0148 6.59972 16.9648 6.29972 16.9648 5.99972C16.9648 5.69972 17.0148 5.44972 17.1148 5.14972C17.2148 4.89972 17.3648 4.64972 17.5648 4.44972C17.7648 4.24972 18.0148 4.09972 18.2648 3.99972C18.5148 3.89972 18.8148 3.84972 19.1148 3.84972Z" fill="url(#paint0_linear_1153_20588)"/>
<path d="M26.1625 49.749C38.8625 49.749 38.0625 44.249 38.0625 44.249V38.549H25.9125V36.849H42.8125C42.8125 36.849 50.9125 37.749 50.9125 24.949C50.9125 12.149 43.8125 12.599 43.8125 12.599H39.5625V18.499C39.5625 18.499 39.8125 25.599 32.5625 25.599H20.5625C20.5625 25.599 13.8125 25.499 13.8125 32.099V43.049C13.9125 43.099 12.8625 49.749 26.1625 49.749ZM32.8125 45.899C32.5125 45.899 32.2625 45.849 31.9625 45.749C31.7125 45.649 31.4625 45.499 31.2625 45.299C31.0625 45.099 30.9125 44.849 30.8125 44.599C30.7125 44.349 30.6625 44.049 30.6625 43.749C30.6625 43.449 30.7125 43.199 30.8125 42.899C30.9125 42.649 31.0625 42.399 31.2625 42.199C31.4625 41.999 31.7125 41.849 31.9625 41.749C32.2125 41.649 32.5125 41.599 32.8125 41.599C33.1125 41.599 33.3625 41.649 33.6625 41.749C33.9125 41.849 34.1625 41.999 34.3625 42.199C34.5625 42.399 34.7125 42.649 34.8125 42.899C34.9125 43.149 34.9625 43.449 34.9625 43.749C34.9625 44.049 34.9125 44.299 34.8125 44.599C34.7125 44.849 34.5625 45.099 34.3625 45.299C34.1625 45.499 33.9125 45.649 33.6625 45.749C33.4125 45.849 33.1125 45.899 32.8125 45.899Z" fill="url(#paint1_linear_1153_20588)"/>
</g>
<defs>
<linearGradient id="paint0_linear_1153_20588" x1="5.61874" y1="4.62638" x2="30.3972" y2="29.1577" gradientUnits="userSpaceOnUse">
<stop stop-color="#6F6F6F"/>
<stop offset="1" stop-color="#5E5E5E"/>
</linearGradient>
<linearGradient id="paint1_linear_1153_20588" x1="20.8352" y1="20.3751" x2="47.4445" y2="45.5297" gradientUnits="userSpaceOnUse">
<stop stop-color="#DADADA"/>
<stop offset="1" stop-color="#C5C5C5"/>
</linearGradient>
<clipPath id="clip0_1153_20588">
<rect width="50" height="50" fill="white" transform="translate(0.964844)"/>
</clipPath>
</defs>
</svg>
