<svg width="51" height="50" viewBox="0 0 51 50" fill="none" xmlns="http://www.w3.org/2000/svg">
<path d="M38.7148 15.8991L35.4148 19.1991C40.8148 24.5991 40.8148 33.2991 35.4148 38.5991C30.0148 43.9991 21.3148 43.9991 16.0148 38.5991C10.6148 33.1991 10.6148 24.4991 16.0148 19.1991L24.5648 10.6491L25.7648 9.44908V2.99908L12.8648 15.8991C5.66484 23.0991 5.66484 34.6991 12.8648 41.8991C20.0648 49.0991 31.6648 49.0991 38.7148 41.8991C45.9148 34.6491 45.9148 23.0991 38.7148 15.8991Z" fill="#797979"/>
<path d="M32.2672 15.0993C33.6172 15.0993 34.6672 14.0493 34.6672 12.6993C34.6672 11.3493 33.6172 10.2993 32.2672 10.2993C30.9172 10.2993 29.8672 11.3493 29.8672 12.6993C29.8672 14.0493 30.9172 15.0993 32.2672 15.0993Z" fill="#797979"/>
</svg>
