<svg width="47" height="48" viewBox="0 0 47 48" fill="none" xmlns="http://www.w3.org/2000/svg">
<g style="mix-blend-mode:luminosity" clip-path="url(#clip0_1153_20573)">
<path d="M12.1363 43.9827C-3.22251 35.1282 -3.22252 12.8716 12.1363 4.01711C27.4951 -4.83743 46.7979 6.29083 46.7979 23.9999C46.7979 41.709 27.4951 52.8372 12.1363 43.9827ZM31.2197 30.1384C30.5685 30.2034 29.9055 30.2598 29.2327 30.3076L33.4193 36.609C34.6792 36.0532 36.1193 36.6842 36.525 38.0636C46.8698 35.382 43.5304 31.7574 31.2197 30.1384ZM16.4834 9.06262C16.4276 9.53039 16.2286 9.95318 15.9318 10.2882L20.7589 17.5535C24.2348 17.43 27.7487 17.5184 31.2107 17.8624C55.5706 14.3054 36.3521 6.75143 16.4834 9.06262ZM16.5138 29.2233C19.8597 28.8505 23.4003 28.7278 27.1533 28.8788L20.6665 19.1155C19.2279 19.0469 17.8303 18.9336 16.4954 18.7783C-0.504189 20.7766 -4.24275 26.5812 16.5138 29.2233ZM31.2156 18.808C28.2327 19.157 25.091 19.2556 21.8265 19.1604L28.3261 28.9431C29.3068 29.0058 30.2647 29.0897 31.1932 29.1936C49.3869 26.9917 50.0917 21.152 31.2156 18.808ZM45.8356 23.0618C45.7007 19.8247 44.868 16.7655 43.4833 14.0305C42.868 16.0478 39.2875 17.4273 34.6565 18.3054C39.772 19.1931 44.6018 20.5322 45.8356 23.0618ZM16.4996 17.8318C17.516 17.7349 18.5597 17.6586 19.6239 17.6037L15.1708 10.8503C13.9458 11.3724 12.7482 10.8295 12.2073 9.76907C1.12546 12.3421 4.10824 16.231 16.4996 17.8318ZM13.0495 18.2555C8.22396 17.3013 4.1237 15.7227 4.40618 13.1395C2.74038 16.0898 1.73198 19.4581 1.58009 23.0454C2.83178 20.5954 7.41886 19.1564 13.0495 18.2555ZM13.0615 29.7465C7.29791 28.876 2.60963 27.2804 1.58015 24.9443C1.73223 28.5302 2.74011 31.8983 4.40491 34.8492C4.09565 32.1853 8.49221 30.6583 13.0615 29.7465ZM32.1009 38.8688C32.0599 38.2673 32.2174 37.684 32.6612 37.1688L28.1485 30.3767C24.3496 30.6151 20.4555 30.5049 16.4997 30.1685C-5.77142 33.2593 8.67679 41.2889 32.1009 38.8688ZM43.4821 33.9625C44.8641 31.2323 45.6967 28.1796 45.8347 24.9503C44.8869 27.1961 40.2 28.8105 34.6558 29.6992C39.0134 30.4984 42.8412 31.8974 43.4821 33.9625ZM28.5139 3.63921C27.4017 2.30169 20.2094 2.20208 18.9012 3.63921C19.9283 5.01729 27.5677 5.0047 28.5139 3.63921ZM41.4343 10.7341C38.2103 6.43816 33.4622 3.34868 28.0007 2.27075C30.9366 3.38886 29.4282 5.61586 23.7017 5.61586C18.2376 5.63211 16.3617 3.4682 19.4175 2.26799C13.6345 3.4056 8.65372 6.79998 5.4326 11.4938C6.84363 10.3116 9.13933 9.49382 11.9861 8.85485C11.9176 6.30731 15.517 5.56476 16.4004 8.12447C26.3847 7.03098 36.1236 8.00079 41.4343 10.7341ZM18.9012 44.3606C19.6514 45.6453 27.2125 45.8446 28.5139 44.3606C28.0837 43.2145 20.4713 42.7699 18.9012 44.3606ZM23.7017 42.3839C28.9565 42.3493 31.1239 44.4132 28.0371 45.7216C33.4732 44.6379 38.1997 41.5585 41.4163 37.2817C40.0249 38.0282 38.4115 38.606 36.5787 39.0169C36.2698 41.0559 33.5337 41.7026 32.3829 39.7749C21.3032 41.1055 9.53768 39.8148 5.43861 36.5067C8.65934 41.198 13.6364 44.592 19.4145 45.7308C16.3093 44.5351 18.3024 42.2958 23.7017 42.3839Z" fill="white"/>
</g>
<defs>
<clipPath id="clip0_1153_20573">
<rect width="46.1807" height="46.1807" fill="white" transform="translate(0.617188 0.909668)"/>
</clipPath>
</defs>
</svg>
