<svg width="798" height="489" viewBox="0 0 798 489" fill="none" xmlns="http://www.w3.org/2000/svg">
<g opacity="0.8">
<mask id="path-1-outside-1_18_2130" maskUnits="userSpaceOnUse" x="-0.783203" y="-0.785156" width="799" height="490" fill="black">
<rect fill="white" x="-0.783203" y="-0.785156" width="799" height="490"/>
<path d="M763.038 2.21484C780.988 2.21507 795.539 16.7662 795.539 34.7158V454.275C795.539 472.225 780.987 486.776 763.037 486.776H34.7178C16.7681 486.776 2.21688 472.225 2.2168 454.275V34.7158C2.21691 16.7662 16.7682 2.21507 34.7178 2.21484H763.038ZM210.521 433.363C199.098 433.363 189.838 442.623 189.838 454.046C189.838 465.468 199.098 474.728 210.521 474.728C221.943 474.727 231.202 465.468 231.202 454.046C231.202 442.623 221.943 433.364 210.521 433.363ZM587.752 433.363C576.329 433.363 567.069 442.623 567.069 454.046C567.07 465.468 576.329 474.728 587.752 474.728C599.174 474.727 608.433 465.468 608.434 454.046C608.434 442.623 599.174 433.364 587.752 433.363ZM276.999 433.363C274.552 433.364 272.567 435.347 272.567 437.795V457C272.567 459.448 274.552 461.431 276.999 461.432H296.205C298.653 461.431 300.637 459.448 300.637 457V437.795C300.637 435.347 298.653 433.363 296.205 433.363H276.999ZM502.067 433.363C499.62 433.363 497.635 435.347 497.635 437.795V457C497.635 459.448 499.62 461.432 502.067 461.432H521.272C523.72 461.431 525.704 459.448 525.704 457V437.795C525.704 435.347 523.72 433.363 521.272 433.363H502.067ZM237.851 178.755C213.781 178.755 194.27 198.267 194.27 222.336C194.27 246.405 213.781 265.917 237.851 265.917C261.92 265.917 281.432 246.405 281.432 222.336C281.432 198.267 261.92 178.755 237.851 178.755ZM559.906 178.755C535.837 178.755 516.325 198.267 516.325 222.336C516.325 246.405 535.837 265.917 559.906 265.917C583.975 265.917 603.487 246.405 603.487 222.336C603.487 198.267 583.975 178.755 559.906 178.755Z"/>
</mask>
<path d="M763.038 2.21484C780.988 2.21507 795.539 16.7662 795.539 34.7158V454.275C795.539 472.225 780.987 486.776 763.037 486.776H34.7178C16.7681 486.776 2.21688 472.225 2.2168 454.275V34.7158C2.21691 16.7662 16.7682 2.21507 34.7178 2.21484H763.038ZM210.521 433.363C199.098 433.363 189.838 442.623 189.838 454.046C189.838 465.468 199.098 474.728 210.521 474.728C221.943 474.727 231.202 465.468 231.202 454.046C231.202 442.623 221.943 433.364 210.521 433.363ZM587.752 433.363C576.329 433.363 567.069 442.623 567.069 454.046C567.07 465.468 576.329 474.728 587.752 474.728C599.174 474.727 608.433 465.468 608.434 454.046C608.434 442.623 599.174 433.364 587.752 433.363ZM276.999 433.363C274.552 433.364 272.567 435.347 272.567 437.795V457C272.567 459.448 274.552 461.431 276.999 461.432H296.205C298.653 461.431 300.637 459.448 300.637 457V437.795C300.637 435.347 298.653 433.363 296.205 433.363H276.999ZM502.067 433.363C499.62 433.363 497.635 435.347 497.635 437.795V457C497.635 459.448 499.62 461.432 502.067 461.432H521.272C523.72 461.431 525.704 459.448 525.704 457V437.795C525.704 435.347 523.72 433.363 521.272 433.363H502.067ZM237.851 178.755C213.781 178.755 194.27 198.267 194.27 222.336C194.27 246.405 213.781 265.917 237.851 265.917C261.92 265.917 281.432 246.405 281.432 222.336C281.432 198.267 261.92 178.755 237.851 178.755ZM559.906 178.755C535.837 178.755 516.325 198.267 516.325 222.336C516.325 246.405 535.837 265.917 559.906 265.917C583.975 265.917 603.487 246.405 603.487 222.336C603.487 198.267 583.975 178.755 559.906 178.755Z" fill="#E2E2E2"/>
<path d="M763.038 2.21484L763.038 -0.00113821H763.038V2.21484ZM795.539 34.7158L797.755 34.7158L797.755 34.7158L795.539 34.7158ZM795.539 454.275L797.755 454.275V454.275H795.539ZM34.7178 486.776L34.7178 488.992H34.7178V486.776ZM2.2168 454.275L0.000814915 454.275L0.000814915 454.275L2.2168 454.275ZM2.2168 34.7158L0.000814915 34.7158V34.7158H2.2168ZM34.7178 2.21484L34.7178 -0.00113821L34.7177 -0.00113821L34.7178 2.21484ZM210.521 433.363L210.521 431.147H210.521V433.363ZM189.838 454.046L187.622 454.046L187.622 454.046L189.838 454.046ZM210.521 474.728L210.521 476.944L210.521 476.944L210.521 474.728ZM231.202 454.046L233.418 454.046V454.046H231.202ZM587.752 433.363L587.752 431.147H587.752V433.363ZM567.069 454.046L564.853 454.046L564.853 454.046L567.069 454.046ZM587.752 474.728L587.752 476.944L587.752 476.944L587.752 474.728ZM608.434 454.046L610.65 454.046V454.046H608.434ZM276.999 433.363L276.999 431.147L276.999 431.147L276.999 433.363ZM272.567 437.795L270.351 437.795V437.795H272.567ZM276.999 461.432L276.999 463.648H276.999V461.432ZM296.205 461.432L296.205 463.648L296.205 463.648L296.205 461.432ZM300.637 437.795L302.853 437.795L302.853 437.795L300.637 437.795ZM296.205 433.363L296.205 431.147H296.205V433.363ZM497.635 437.795L495.419 437.795V437.795H497.635ZM521.272 461.432L521.272 463.648L521.273 463.648L521.272 461.432ZM525.704 437.795L527.92 437.795L527.92 437.795L525.704 437.795ZM521.272 433.363L521.273 431.147H521.272V433.363ZM237.851 178.755L237.851 176.539H237.851V178.755ZM194.27 222.336L192.054 222.336L192.054 222.336L194.27 222.336ZM237.851 265.917L237.851 268.133L237.851 268.133L237.851 265.917ZM281.432 222.336L283.648 222.336V222.336H281.432ZM559.906 178.755L559.906 176.539L559.906 176.539L559.906 178.755ZM516.325 222.336L514.109 222.336L514.109 222.336L516.325 222.336ZM559.906 265.917L559.906 268.133H559.906V265.917ZM603.487 222.336L605.703 222.336V222.336H603.487ZM763.038 2.21484L763.038 4.43083C779.764 4.43103 793.323 17.9901 793.323 34.7158L795.539 34.7158L797.755 34.7158C797.755 15.5423 782.212 -0.000901334 763.038 -0.00113821L763.038 2.21484ZM795.539 34.7158H793.323V454.275H795.539H797.755V34.7158H795.539ZM795.539 454.275L793.323 454.275C793.323 471.001 779.763 484.56 763.037 484.56V486.776V488.992C782.211 488.992 797.755 473.449 797.755 454.275L795.539 454.275ZM763.037 486.776V484.56H34.7178V486.776V488.992H763.037V486.776ZM34.7178 486.776L34.7178 484.56C17.992 484.56 4.43285 471.001 4.43278 454.275L2.2168 454.275L0.000814915 454.275C0.00090036 473.449 15.5443 488.992 34.7178 488.992L34.7178 486.776ZM2.2168 454.275H4.43278V34.7158H2.2168H0.000814915V454.275H2.2168ZM2.2168 34.7158L4.43278 34.7158C4.43289 17.9901 17.992 4.43104 34.7178 4.43083L34.7178 2.21484L34.7177 -0.00113821C15.5444 -0.000893123 0.000937524 15.5423 0.000814915 34.7158L2.2168 34.7158ZM34.7178 2.21484V4.43083H763.038V2.21484V-0.00113821H34.7178V2.21484ZM210.521 433.363V431.147C197.874 431.147 187.622 441.399 187.622 454.046H189.838H192.054C192.054 443.847 200.322 435.579 210.521 435.579V433.363ZM189.838 454.046L187.622 454.046C187.622 466.692 197.874 476.944 210.521 476.944V474.728V472.512C200.322 472.512 192.054 464.244 192.054 454.046L189.838 454.046ZM210.521 474.728L210.521 476.944C223.167 476.943 233.418 466.692 233.418 454.046L231.202 454.046L228.986 454.046C228.986 464.244 220.719 472.511 210.52 472.512L210.521 474.728ZM231.202 454.046H233.418C233.418 441.4 223.167 431.148 210.521 431.147L210.521 433.363L210.52 435.579C220.719 435.579 228.986 443.847 228.986 454.046H231.202ZM587.752 433.363V431.147C575.105 431.147 564.853 441.399 564.853 454.046H567.069H569.285C569.285 443.847 577.553 435.579 587.752 435.579V433.363ZM567.069 454.046L564.853 454.046C564.854 466.692 575.106 476.944 587.752 476.944V474.728V472.512C577.553 472.512 569.286 464.244 569.285 454.046L567.069 454.046ZM587.752 474.728L587.752 476.944C600.398 476.943 610.649 466.692 610.65 454.046L608.434 454.046L606.218 454.046C606.217 464.244 597.95 472.511 587.752 472.512L587.752 474.728ZM608.434 454.046H610.65C610.65 441.4 600.398 431.148 587.752 431.147L587.752 433.363L587.752 435.579C597.95 435.579 606.218 443.847 606.218 454.046H608.434ZM276.999 433.363L276.999 431.147C273.328 431.148 270.351 434.123 270.351 437.795L272.567 437.795L274.783 437.795C274.783 436.571 275.775 435.579 276.999 435.579L276.999 433.363ZM272.567 437.795H270.351V457H272.567H274.783V437.795H272.567ZM272.567 457H270.351C270.351 460.672 273.328 463.647 276.999 463.648L276.999 461.432L276.999 459.216C275.775 459.216 274.783 458.223 274.783 457H272.567ZM276.999 461.432V463.648H296.205V461.432V459.216H276.999V461.432ZM296.205 461.432L296.205 463.648C299.876 463.647 302.853 460.672 302.853 457H300.637H298.421C298.421 458.224 297.429 459.216 296.205 459.216L296.205 461.432ZM300.637 457H302.853V437.795H300.637H298.421V457H300.637ZM300.637 437.795L302.853 437.795C302.853 434.123 299.876 431.148 296.205 431.147L296.205 433.363L296.205 435.579C297.429 435.579 298.421 436.571 298.421 437.795L300.637 437.795ZM296.205 433.363V431.147H276.999V433.363V435.579H296.205V433.363ZM502.067 433.363V431.147C498.396 431.147 495.419 434.123 495.419 437.795L497.635 437.795L499.851 437.795C499.851 436.572 500.843 435.579 502.067 435.579V433.363ZM497.635 437.795H495.419V457H497.635H499.851V437.795H497.635ZM497.635 457H495.419C495.419 460.672 498.396 463.648 502.067 463.648V461.432V459.216C500.843 459.216 499.851 458.223 499.851 457H497.635ZM502.067 461.432V463.648H521.272V461.432V459.216H502.067V461.432ZM521.272 461.432L521.273 463.648C524.944 463.647 527.92 460.672 527.92 457H525.704H523.488C523.488 458.224 522.496 459.216 521.272 459.216L521.272 461.432ZM525.704 457H527.92V437.795H525.704H523.488V457H525.704ZM525.704 437.795L527.92 437.795C527.92 434.123 524.944 431.148 521.273 431.147L521.272 433.363L521.272 435.579C522.496 435.579 523.488 436.571 523.488 437.795L525.704 437.795ZM521.272 433.363V431.147H502.067V433.363V435.579H521.272V433.363ZM237.851 178.755V176.539C212.558 176.539 192.054 197.043 192.054 222.336H194.27H196.486C196.486 199.491 215.005 180.971 237.851 180.971V178.755ZM194.27 222.336L192.054 222.336C192.054 247.629 212.558 268.133 237.851 268.133V265.917V263.701C215.005 263.701 196.486 245.181 196.486 222.336L194.27 222.336ZM237.851 265.917L237.851 268.133C263.143 268.133 283.648 247.629 283.648 222.336L281.432 222.336L279.216 222.336C279.216 245.181 260.696 263.701 237.851 263.701L237.851 265.917ZM281.432 222.336H283.648C283.648 197.043 263.143 176.539 237.851 176.539L237.851 178.755L237.851 180.971C260.696 180.971 279.216 199.491 279.216 222.336H281.432ZM559.906 178.755L559.906 176.539C534.613 176.539 514.109 197.043 514.109 222.336H516.325H518.541C518.541 199.491 537.061 180.971 559.906 180.971L559.906 178.755ZM516.325 222.336L514.109 222.336C514.109 247.629 534.613 268.133 559.906 268.133L559.906 265.917L559.906 263.701C537.061 263.701 518.541 245.181 518.541 222.336L516.325 222.336ZM559.906 265.917V268.133C585.199 268.133 605.703 247.629 605.703 222.336L603.487 222.336L601.271 222.336C601.271 245.181 582.751 263.701 559.906 263.701V265.917ZM603.487 222.336H605.703C605.703 197.043 585.199 176.539 559.906 176.539V178.755V180.971C582.752 180.971 601.271 199.491 601.271 222.336H603.487Z" fill="#202020" mask="url(#path-1-outside-1_18_2130)"/>
</g>
<path d="M237.109 88.6406C310.948 88.6407 370.806 148.499 370.807 222.338C370.807 296.177 310.948 356.036 237.109 356.036C163.27 356.036 103.412 296.177 103.412 222.338C103.412 148.499 163.27 88.6406 237.109 88.6406ZM237.848 176.541C212.555 176.541 192.051 197.045 192.051 222.338C192.051 247.631 212.555 268.135 237.848 268.135C263.141 268.135 283.645 247.631 283.645 222.338C283.644 197.045 263.141 176.541 237.848 176.541Z" fill="#202020"/>
<path d="M559.166 166.938C589.762 166.938 614.565 191.741 614.565 222.337C614.565 252.933 589.762 277.736 559.166 277.736C528.57 277.736 503.766 252.933 503.766 222.337C503.766 191.741 528.57 166.938 559.166 166.938ZM559.904 176.54C534.611 176.54 514.108 197.044 514.107 222.337C514.107 247.63 534.611 268.134 559.904 268.134C585.197 268.134 605.701 247.63 605.701 222.337C605.701 197.044 585.197 176.54 559.904 176.54Z" fill="#202020"/>
<path d="M93.4393 201.658C85.7284 262.786 55.7217 408.38 63.5234 455.388M86.4221 474.593C137.759 475.331 705.789 474.593 711.329 474.593M604.592 191.316C630.745 230.072 714.893 385.047 733.821 445.416" stroke="#202020" stroke-width="0.738661"/>
<path d="M86.1982 427.496C99.2525 427.496 109.835 438.079 109.835 451.133C109.835 464.187 99.2526 474.77 86.1982 474.771C73.1438 474.771 62.5605 464.187 62.5605 451.133C62.5608 438.079 73.1439 427.496 86.1982 427.496ZM86.1982 441.185C80.7017 441.185 76.2452 445.64 76.2451 451.137C76.2451 456.633 80.7016 461.089 86.1982 461.089C91.6947 461.089 96.1504 456.633 96.1504 451.137C96.1503 445.64 91.6947 441.185 86.1982 441.185Z" fill="#202020"/>
<path d="M711.105 427.496C724.16 427.496 734.743 438.079 734.743 451.134C734.743 464.188 724.16 474.771 711.105 474.771C698.051 474.77 687.469 464.188 687.469 451.134C687.469 438.079 698.051 427.496 711.105 427.496ZM711.105 441.185C705.609 441.185 701.153 445.64 701.153 451.137C701.153 456.633 705.609 461.089 711.105 461.089C716.602 461.089 721.059 456.633 721.059 451.137C721.059 445.64 716.602 441.185 711.105 441.185Z" fill="#202020"/>
<path d="M179.775 378.565H623.873C634.17 378.565 643.156 385.546 645.702 395.522L669.276 487.887H129.291L158.256 394.425C161.179 384.994 169.902 378.565 179.775 378.565Z" stroke="#202020" stroke-width="2.21598"/>
<circle cx="210.516" cy="454.085" r="19.5745" stroke="#202020" stroke-width="2.21598"/>
<circle cx="587.749" cy="454.085" r="19.5745" stroke="#202020" stroke-width="2.21598"/>
<rect x="273.672" y="434.51" width="25.8531" height="25.8531" rx="3.32397" stroke="#202020" stroke-width="2.21598"/>
<path d="M384.842 461.475C384.842 459.027 386.826 457.043 389.274 457.043H408.479C410.927 457.043 412.911 459.027 412.911 461.475V474.771H384.842V461.475Z" fill="#202020"/>
<rect x="498.741" y="434.51" width="25.8531" height="25.8531" rx="3.32397" stroke="#202020" stroke-width="2.21598"/>
<g clip-path="url(#clip0_18_2130)">
<path d="M398.763 386.871C406.106 386.871 412.059 392.824 412.059 400.167C412.059 407.51 406.106 413.463 398.763 413.463C391.42 413.463 385.467 407.51 385.467 400.167C385.467 392.824 391.42 386.871 398.763 386.871ZM399.849 392.21C399.608 391.027 397.917 391.027 397.677 392.21L396.662 397.201C396.573 397.637 396.233 397.978 395.797 398.066L390.806 399.081C389.623 399.322 389.623 401.012 390.806 401.253L395.797 402.268C396.233 402.356 396.573 402.697 396.662 403.133L397.677 408.124C397.917 409.307 399.608 409.307 399.849 408.124L400.863 403.133C400.952 402.697 401.293 402.356 401.729 402.268L406.72 401.253C407.903 401.012 407.903 399.322 406.72 399.081L401.729 398.066C401.293 397.978 400.952 397.637 400.863 397.201L399.849 392.21Z" fill="#202020"/>
</g>
<g clip-path="url(#clip1_18_2130)">
<path d="M33.2393 19.9453C40.5824 19.9453 46.5352 25.8981 46.5352 33.2412C46.5352 40.5843 40.5824 46.5371 33.2393 46.5371C25.8961 46.5371 19.9434 40.5843 19.9434 33.2412C19.9434 25.8981 25.8961 19.9453 33.2393 19.9453ZM34.3252 25.2842C34.0846 24.1013 32.3939 24.1013 32.1533 25.2842L31.1387 30.2754C31.0501 30.7112 30.7092 31.052 30.2734 31.1406L25.2822 32.1553C24.0994 32.3959 24.0994 34.0866 25.2822 34.3271L30.2734 35.3418C30.7092 35.4304 31.0501 35.7713 31.1387 36.207L32.1533 41.1982C32.3939 42.3811 34.0846 42.3811 34.3252 41.1982L35.3398 36.207C35.4285 35.7713 35.7693 35.4304 36.2051 35.3418L41.1963 34.3271C42.3791 34.0865 42.3791 32.3959 41.1963 32.1553L36.2051 31.1406C35.7693 31.052 35.4285 30.7112 35.3398 30.2754L34.3252 25.2842Z" fill="#202020"/>
</g>
<g clip-path="url(#clip2_18_2130)">
<path d="M33.2393 442.27C40.5824 442.27 46.5352 448.222 46.5352 455.565C46.5352 462.909 40.5824 468.861 33.2393 468.861C25.8961 468.861 19.9434 462.909 19.9434 455.565C19.9434 448.222 25.8961 442.27 33.2393 442.27ZM34.3252 447.608C34.0846 446.426 32.3939 446.426 32.1533 447.608L31.1387 452.6C31.0501 453.035 30.7092 453.376 30.2734 453.465L25.2822 454.479C24.0994 454.72 24.0994 456.411 25.2822 456.651L30.2734 457.666C30.7092 457.755 31.0501 458.095 31.1387 458.531L32.1533 463.522C32.3939 464.705 34.0846 464.705 34.3252 463.522L35.3398 458.531C35.4285 458.095 35.7693 457.755 36.2051 457.666L41.1963 456.651C42.3791 456.411 42.3791 454.72 41.1963 454.479L36.2051 453.465C35.7693 453.376 35.4285 453.035 35.3398 452.6L34.3252 447.608Z" fill="#202020"/>
</g>
<g clip-path="url(#clip3_18_2130)">
<path d="M764.288 19.9453C771.631 19.9453 777.584 25.8981 777.584 33.2412C777.584 40.5843 771.631 46.5371 764.288 46.5371C756.945 46.5371 750.992 40.5843 750.992 33.2412C750.992 25.8981 756.945 19.9453 764.288 19.9453ZM765.374 25.2842C765.133 24.1013 763.443 24.1013 763.202 25.2842L762.188 30.2754C762.099 30.7112 761.758 31.052 761.322 31.1406L756.331 32.1553C755.148 32.3959 755.148 34.0866 756.331 34.3271L761.322 35.3418C761.758 35.4304 762.099 35.7713 762.188 36.207L763.202 41.1982C763.443 42.3811 765.133 42.3811 765.374 41.1982L766.389 36.207C766.477 35.7713 766.818 35.4304 767.254 35.3418L772.245 34.3271C773.428 34.0865 773.428 32.3959 772.245 32.1553L767.254 31.1406C766.818 31.052 766.477 30.7112 766.389 30.2754L765.374 25.2842Z" fill="#202020"/>
</g>
<g clip-path="url(#clip4_18_2130)">
<path d="M764.288 442.27C771.631 442.27 777.584 448.222 777.584 455.565C777.584 462.909 771.631 468.861 764.288 468.861C756.945 468.861 750.992 462.909 750.992 455.565C750.992 448.222 756.945 442.27 764.288 442.27ZM765.374 447.608C765.133 446.426 763.443 446.426 763.202 447.608L762.188 452.6C762.099 453.035 761.758 453.376 761.322 453.465L756.331 454.479C755.148 454.72 755.148 456.411 756.331 456.651L761.322 457.666C761.758 457.755 762.099 458.095 762.188 458.531L763.202 463.522C763.443 464.705 765.133 464.705 765.374 463.522L766.389 458.531C766.477 458.095 766.818 457.755 767.254 457.666L772.245 456.651C773.428 456.411 773.428 454.72 772.245 454.479L767.254 453.465C766.818 453.376 766.477 453.035 766.389 452.6L765.374 447.608Z" fill="#202020"/>
</g>
<mask id="mask0_18_2130" style="mask-type:alpha" maskUnits="userSpaceOnUse" x="45" y="41" width="709" height="316">
<path d="M88.1855 42.4717H711.045C717.002 42.4717 722.717 44.8312 726.939 49.0342L745.691 67.7012C749.938 71.929 752.326 77.6745 752.326 83.667V332.396C752.326 344.838 742.239 354.925 729.797 354.925H69.4336C56.9913 354.925 46.9053 344.838 46.9053 332.396V83.667C46.9054 77.6746 49.2923 71.929 53.5391 67.7012L72.291 49.0342C76.5131 44.8311 82.2281 42.4717 88.1855 42.4717ZM229.724 155.486C193.212 155.486 163.613 185.085 163.613 221.597V223.074C163.614 259.586 193.212 289.184 229.724 289.184H568.03C604.542 289.183 634.139 259.586 634.14 223.074V221.597C634.14 185.085 604.542 155.487 568.03 155.486H229.724Z" fill="#EDA35F" stroke="#202020" stroke-width="2.21598"/>
</mask>
<g mask="url(#mask0_18_2130)">
<g clip-path="url(#clip5_18_2130)">
<rect width="707.637" height="314.669" transform="translate(45.7969 41.3633)" fill="#FCF7F2"/>
<g clip-path="url(#clip6_18_2130)">
<rect width="708" height="35.5145" transform="matrix(1 0 0 -1 46.166 356.734)" fill="#9AF3FF"/>
<rect width="708" height="24.4162" transform="matrix(1 0 0 -1 46.166 312.34)" fill="#9AF3FF"/>
<rect width="708" height="4.43931" transform="matrix(1 0 0 -1 46.166 181.383)" fill="#9AF3FF"/>
<rect width="708" height="2.21966" transform="matrix(1 0 0 -1 46.166 159.184)" fill="#9AF3FF"/>
<rect width="708" height="17.7572" transform="matrix(1 0 0 -1 46.166 279.047)" fill="#9AF3FF"/>
<rect width="708" height="8.87862" transform="matrix(1 0 0 -1 46.166 225.773)" fill="#9AF3FF"/>
<rect width="708" height="13.3179" transform="matrix(1 0 0 -1 46.166 250.191)" fill="#9AF3FF"/>
<rect width="708" height="6.65897" transform="matrix(1 0 0 -1 46.166 203.578)" fill="#9AF3FF"/>
</g>
<path d="M369.674 137.646C369.61 138.008 369.461 138.264 369.227 138.413C369.014 138.583 368.812 138.818 368.62 139.116H368.492C368.279 139.116 368.066 139.137 367.853 139.18C367.662 139.222 367.459 139.275 367.246 139.339C367.14 139.297 367.012 139.265 366.863 139.243C366.714 139.222 366.618 139.148 366.575 139.02C366.405 139.105 366.171 139.148 365.873 139.148C365.383 139.148 364.914 139.009 364.467 138.732C364.041 138.455 363.594 138.243 363.125 138.093C362.997 137.838 362.838 137.604 362.646 137.391C362.476 137.199 362.295 137.007 362.103 136.816C361.933 136.624 361.762 136.422 361.592 136.209C361.421 135.996 361.283 135.74 361.176 135.442C361.134 135.314 361.081 135.24 361.017 135.218C360.953 135.197 360.857 135.197 360.729 135.218C360.751 134.984 360.719 134.782 360.633 134.611C360.569 134.441 360.41 134.334 360.154 134.292C360.154 134.015 360.112 133.781 360.026 133.589C359.941 133.397 359.835 133.227 359.707 133.078C359.6 132.95 359.473 132.812 359.324 132.663C359.196 132.513 359.089 132.332 359.004 132.119C358.812 132.077 358.621 132.045 358.429 132.024C358.259 132.024 358.067 132.024 357.854 132.024C356.832 132.024 355.841 132.215 354.883 132.599C354.777 132.641 354.659 132.695 354.532 132.758C354.425 132.822 354.319 132.876 354.212 132.918C354.17 132.918 354.127 132.918 354.084 132.918C354.063 132.939 354.031 132.95 353.989 132.95C353.839 132.95 353.701 132.918 353.573 132.854C353.445 132.812 353.307 132.79 353.158 132.79C353.094 132.79 353.02 132.801 352.934 132.822C352.87 132.865 352.807 132.897 352.743 132.918C352.423 133.025 352.125 133.089 351.848 133.11C350.975 133.28 350.049 133.408 349.069 133.493C348.11 133.578 347.227 133.802 346.417 134.164C346.247 134.249 346.14 134.377 346.098 134.547C346.055 134.739 346.045 134.92 346.066 135.09C345.832 135.261 345.651 135.484 345.523 135.761C345.416 136.038 345.31 136.326 345.203 136.624C345.118 136.943 345.022 137.252 344.916 137.55C344.809 137.849 344.66 138.104 344.469 138.317C344.532 138.445 344.564 138.583 344.564 138.732C344.564 139.052 344.458 139.371 344.245 139.691C344.032 140.01 343.872 140.319 343.766 140.617C343.659 140.915 343.574 141.203 343.51 141.48C343.446 141.778 343.35 142.044 343.223 142.278C343.095 142.513 342.924 142.704 342.712 142.853C342.477 143.003 342.158 143.077 341.753 143.077C341.37 143.077 341.04 143.003 340.763 142.853C340.486 142.704 340.262 142.513 340.092 142.278C339.922 142.044 339.783 141.767 339.677 141.448C339.57 141.128 339.485 140.809 339.421 140.489C339.655 140.021 339.879 139.616 340.092 139.275C340.305 138.935 340.465 138.498 340.571 137.966C340.954 137.689 341.242 137.348 341.434 136.943C341.604 136.56 341.7 136.134 341.721 135.666C341.955 135.516 342.126 135.314 342.232 135.059C342.318 134.824 342.371 134.569 342.392 134.292C341.881 134.249 341.348 134.207 340.795 134.164C340.22 134.121 339.687 134.015 339.197 133.845C339.197 133.802 339.208 133.759 339.229 133.717C339.229 133.674 339.229 133.632 339.229 133.589C339.229 133.312 339.165 133.057 339.038 132.822C338.91 132.609 338.846 132.375 338.846 132.119V131.864C339.016 131.694 339.176 131.512 339.325 131.321C339.453 131.15 339.591 130.991 339.741 130.842C339.89 130.693 340.06 130.565 340.252 130.458C340.443 130.373 340.688 130.33 340.986 130.33C341.391 130.33 341.785 130.352 342.168 130.394C342.552 130.458 342.946 130.49 343.35 130.49C343.627 130.49 343.915 130.458 344.213 130.394C344.682 129.436 345.097 128.467 345.459 127.487C345.821 126.486 346.098 125.475 346.289 124.452C346.439 124.239 346.577 123.994 346.705 123.718C346.833 123.419 346.928 123.111 346.992 122.791C347.078 122.472 347.131 122.163 347.152 121.865C347.195 121.545 347.216 121.258 347.216 121.002C347.45 120.725 347.61 120.385 347.695 119.98C347.802 119.575 347.887 119.16 347.951 118.734C348.015 118.287 348.078 117.85 348.142 117.424C348.228 116.998 348.377 116.626 348.59 116.306V116.019C348.611 115.699 348.579 115.412 348.494 115.156C348.6 115.113 348.664 115.018 348.685 114.868C348.707 114.719 348.749 114.592 348.813 114.485C348.835 113.505 348.941 112.547 349.133 111.61C349.324 110.652 349.484 109.693 349.612 108.735V108.639C349.612 108.532 349.569 108.479 349.484 108.479C349.42 108.458 349.388 108.394 349.388 108.288C349.388 108.096 349.41 107.84 349.452 107.521C349.516 107.201 349.559 106.935 349.58 106.722C349.708 105.572 349.772 104.433 349.772 103.304C349.772 102.346 349.74 101.398 349.676 100.461C349.612 99.5236 349.548 98.5759 349.484 97.6175L349.74 97.2341C349.825 97.1064 349.899 96.9786 349.963 96.8508C350.176 96.7656 350.347 96.6804 350.474 96.5952C350.624 96.4887 350.815 96.4355 351.049 96.4355C351.113 96.4355 351.167 96.4461 351.209 96.4674C351.252 96.4674 351.294 96.4674 351.337 96.4674C351.465 96.5526 351.561 96.6698 351.625 96.8188C351.71 96.9679 351.784 97.1064 351.848 97.2341C351.933 97.3619 352.04 97.4684 352.168 97.5536C352.295 97.6388 352.476 97.6601 352.711 97.6175C352.817 98.2138 353.115 98.5226 353.605 98.5439C353.712 98.8421 353.839 99.1403 353.989 99.4384C354.159 99.7366 354.383 99.9709 354.659 100.141C354.638 100.226 354.627 100.344 354.627 100.493C354.627 100.791 354.691 101.078 354.819 101.355C354.968 101.632 355.149 101.888 355.362 102.122V102.186C355.362 102.42 355.277 102.58 355.107 102.665C355.298 102.878 355.437 103.134 355.522 103.432C355.607 103.73 355.682 104.039 355.746 104.358C355.809 104.656 355.884 104.944 355.969 105.221C356.076 105.498 356.246 105.711 356.48 105.86V105.955C356.48 106.062 356.438 106.126 356.353 106.147C356.289 106.168 356.257 106.232 356.257 106.339C356.64 107.042 356.906 107.808 357.055 108.639C357.204 109.47 357.396 110.268 357.63 111.035C357.716 111.12 357.811 111.173 357.918 111.195C358.046 111.216 358.142 111.269 358.205 111.354C358.078 111.44 358.014 111.589 358.014 111.802C358.014 112.015 357.961 112.174 357.854 112.281C358.024 112.43 358.099 112.654 358.078 112.952C358.078 113.229 358.163 113.431 358.333 113.559V113.686C358.333 113.772 358.312 113.846 358.269 113.91C358.227 113.953 358.205 114.017 358.205 114.102V114.23C358.376 114.975 358.504 115.72 358.589 116.466C358.695 117.211 358.802 117.957 358.908 118.702C359.015 119.447 359.132 120.193 359.26 120.938C359.387 121.662 359.568 122.376 359.803 123.079C359.824 123.1 359.835 123.132 359.835 123.175C359.835 123.281 359.792 123.345 359.707 123.366C359.622 123.366 359.579 123.419 359.579 123.526C359.579 123.632 359.611 123.76 359.675 123.909C359.76 124.037 359.845 124.144 359.931 124.229C359.909 124.314 359.899 124.442 359.899 124.612C359.899 124.932 359.952 125.24 360.058 125.539C360.186 125.837 360.314 126.135 360.442 126.433C360.591 126.71 360.719 127.008 360.825 127.328C360.932 127.647 360.974 127.988 360.953 128.35C361.081 128.541 361.24 128.701 361.432 128.829C361.645 128.957 361.858 129.074 362.071 129.18C362.284 129.287 362.476 129.415 362.646 129.564C362.838 129.713 362.965 129.915 363.029 130.171C362.859 130.32 362.742 130.501 362.678 130.714C362.614 130.948 362.497 131.15 362.327 131.321C362.476 131.683 362.646 132.013 362.838 132.311C363.051 132.631 363.264 132.939 363.477 133.238L364.147 134.132C364.382 134.43 364.584 134.75 364.754 135.09C364.989 135.09 365.159 135.154 365.266 135.282C365.372 135.41 365.542 135.463 365.777 135.442C365.862 135.612 365.894 135.804 365.873 136.017C366.299 135.868 366.724 135.793 367.15 135.793C367.385 135.793 367.598 135.804 367.789 135.825C368.002 135.847 368.215 135.857 368.428 135.857C368.684 135.857 368.907 135.825 369.099 135.761C369.184 135.889 369.248 136.028 369.291 136.177C369.333 136.347 369.365 136.517 369.387 136.688L369.482 137.199C369.525 137.369 369.589 137.518 369.674 137.646ZM357.63 128.797C357.332 127.328 357.023 125.869 356.704 124.42C356.406 122.951 356.14 121.471 355.905 119.98C355.778 119.192 355.682 118.404 355.618 117.616C355.554 116.828 355.469 116.051 355.362 115.284C355.277 114.496 355.149 113.718 354.979 112.952C354.83 112.185 354.606 111.429 354.308 110.684V110.62C354.308 110.556 354.329 110.502 354.372 110.46C354.414 110.417 354.436 110.343 354.436 110.236V110.108C354.159 109.917 353.967 109.651 353.861 109.31C353.754 108.948 353.658 108.575 353.573 108.192C353.509 107.787 353.414 107.404 353.286 107.042C353.179 106.658 352.988 106.339 352.711 106.083C352.604 107.319 352.487 108.554 352.359 109.789C352.253 111.003 352.178 112.228 352.136 113.463C351.923 113.591 351.784 113.804 351.72 114.102C351.656 114.4 351.625 114.666 351.625 114.9C351.625 115.071 351.635 115.252 351.656 115.444C351.678 115.614 351.72 115.795 351.784 115.987C351.401 116.945 351.124 117.935 350.954 118.958C350.783 119.959 350.592 120.96 350.379 121.961C350.357 122.024 350.315 122.174 350.251 122.408C350.208 122.621 350.155 122.844 350.091 123.079C350.027 123.313 349.974 123.526 349.931 123.718C349.889 123.888 349.867 123.984 349.867 124.005C349.846 124.154 349.836 124.303 349.836 124.452C349.857 124.601 349.867 124.751 349.867 124.9L349.388 125.379C349.303 126.188 349.143 126.976 348.909 127.743C348.696 128.488 348.472 129.255 348.238 130.043C348.387 130.064 348.526 130.075 348.654 130.075C348.803 130.096 348.952 130.107 349.101 130.107C349.782 130.107 350.464 130.064 351.145 129.979C351.848 129.873 352.54 129.777 353.222 129.692C353.456 129.649 353.701 129.617 353.957 129.596C354.212 129.553 354.457 129.532 354.691 129.532C354.798 129.511 354.926 129.511 355.075 129.532C355.224 129.532 355.352 129.521 355.458 129.5C355.628 129.457 355.735 129.393 355.778 129.308C355.841 129.202 355.959 129.138 356.129 129.117C356.257 129.18 356.406 129.212 356.576 129.212C356.768 129.212 356.949 129.17 357.119 129.085C357.29 128.999 357.46 128.904 357.63 128.797ZM374.211 131.64C374.211 131.981 374.093 132.29 373.859 132.567C373.625 132.844 373.423 133.11 373.252 133.365C372.954 133.514 372.666 133.6 372.39 133.621C372.134 133.664 371.857 133.738 371.559 133.845C371.453 133.866 371.335 133.94 371.208 134.068C371.037 134.047 370.867 133.972 370.696 133.845C370.526 133.738 370.356 133.664 370.185 133.621C369.951 133.536 369.642 133.483 369.259 133.461C368.897 133.44 368.631 133.333 368.46 133.142C368.162 132.844 367.906 132.45 367.694 131.96C367.502 131.47 367.342 130.948 367.214 130.394C367.108 129.841 367.023 129.298 366.959 128.765C366.916 128.211 366.895 127.732 366.895 127.328C366.895 126.646 366.937 125.964 367.023 125.283C367.108 124.601 367.236 123.941 367.406 123.302V123.143C367.406 123.036 367.406 122.951 367.406 122.887C367.427 122.802 367.438 122.706 367.438 122.599C367.438 122.536 367.427 122.472 367.406 122.408C367.406 122.344 367.374 122.291 367.31 122.248C367.587 121.545 367.789 120.821 367.917 120.076C368.045 119.33 368.141 118.585 368.205 117.839C368.29 117.073 368.375 116.317 368.46 115.571C368.567 114.805 368.716 114.059 368.907 113.335C368.886 113.207 368.865 113.069 368.844 112.92C368.844 112.771 368.844 112.632 368.844 112.504C368.844 112.121 368.886 111.748 368.971 111.386C369.057 111.003 369.11 110.609 369.131 110.204C369.152 110.077 369.152 109.949 369.131 109.821C369.11 109.672 369.099 109.523 369.099 109.374C369.099 108.437 369.142 107.521 369.227 106.626C369.333 105.732 369.387 104.827 369.387 103.911C369.387 103.421 369.344 102.953 369.259 102.505C369.195 102.037 369.163 101.568 369.163 101.1C369.163 100.887 369.174 100.684 369.195 100.493C369.216 100.28 369.28 100.088 369.387 99.9176C369.855 99.5982 370.409 99.4384 371.048 99.4384C371.516 99.4384 371.921 99.5662 372.262 99.8218C372.241 99.8644 372.23 99.9283 372.23 100.013C372.23 100.12 372.241 100.216 372.262 100.301C372.283 100.386 372.294 100.482 372.294 100.589V100.716C372.294 100.759 372.283 100.801 372.262 100.844C372.411 101.1 372.507 101.377 372.549 101.675C372.613 101.952 372.645 102.239 372.645 102.537C372.645 102.814 372.635 103.091 372.613 103.368C372.592 103.623 372.581 103.89 372.581 104.166C372.581 104.55 372.581 104.933 372.581 105.317C372.603 105.7 372.613 106.083 372.613 106.467C372.613 107.489 372.56 108.501 372.453 109.502C372.368 110.481 372.304 111.482 372.262 112.504C372.219 113.378 372.102 114.23 371.91 115.06C371.74 115.891 371.623 116.732 371.559 117.584C371.538 117.754 371.527 117.925 371.527 118.095C371.548 118.244 371.559 118.415 371.559 118.606C371.559 119.096 371.463 119.586 371.271 120.076C371.08 120.544 370.984 121.045 370.984 121.577C370.984 121.833 371.027 122.056 371.112 122.248C370.984 122.589 370.867 122.993 370.76 123.462C370.675 123.931 370.59 124.42 370.505 124.932C370.441 125.421 370.388 125.911 370.345 126.401C370.302 126.87 370.281 127.285 370.281 127.647C370.281 128.158 370.345 128.68 370.473 129.212C370.601 129.724 370.814 130.192 371.112 130.618C371.325 130.682 371.58 130.714 371.878 130.714C372.177 130.714 372.475 130.724 372.773 130.746C373.071 130.767 373.348 130.82 373.604 130.906C373.859 130.991 374.051 131.161 374.179 131.417C374.2 131.459 374.211 131.502 374.211 131.544V131.64ZM394.305 104.582C394.262 105.093 394.166 105.593 394.017 106.083C393.889 106.552 393.73 107.02 393.538 107.489C393.368 107.957 393.187 108.426 392.995 108.895C392.825 109.342 392.697 109.821 392.612 110.332H392.484C392.42 110.332 392.356 110.343 392.292 110.364C392.25 110.385 392.196 110.417 392.132 110.46C392.132 110.481 392.122 110.502 392.1 110.524C392.1 110.545 392.1 110.566 392.1 110.588C392.1 110.673 392.111 110.747 392.132 110.811C392.175 110.875 392.196 110.928 392.196 110.971C392.196 111.014 392.186 111.046 392.164 111.067C392.164 111.067 392.154 111.088 392.132 111.131C391.43 112.302 390.801 113.505 390.248 114.741C389.694 115.976 389.108 117.201 388.491 118.415C388.235 118.904 387.969 119.384 387.692 119.852C387.436 120.321 387.159 120.789 386.861 121.258C386.755 121.428 386.638 121.588 386.51 121.737C386.403 121.886 386.297 122.046 386.19 122.216C386.148 122.259 386.116 122.333 386.095 122.44C386.095 122.546 386.095 122.621 386.095 122.663C386.095 122.791 386.127 122.919 386.19 123.047C385.977 123.068 385.828 123.143 385.743 123.27C385.658 123.398 385.53 123.505 385.36 123.59V123.686C385.381 123.856 385.338 124.016 385.232 124.165C385.147 124.314 385.115 124.474 385.136 124.644C384.753 125.027 384.444 125.475 384.21 125.986C383.975 126.497 383.72 126.987 383.443 127.455C383.337 127.647 383.219 127.828 383.092 127.998C382.964 128.147 382.847 128.297 382.74 128.446C382.634 128.616 382.538 128.818 382.453 129.053C382.367 129.266 382.282 129.468 382.197 129.66C382.091 129.915 381.878 130.362 381.558 131.001C381.26 131.662 380.941 132.343 380.6 133.046C380.28 133.77 379.982 134.43 379.705 135.027C379.45 135.644 379.322 136.049 379.322 136.241C379.301 136.411 379.29 136.571 379.29 136.72C379.311 136.89 379.322 137.061 379.322 137.231C379.045 137.486 378.8 137.753 378.587 138.03C378.374 138.306 378.119 138.541 377.82 138.732C377.522 138.626 377.235 138.498 376.958 138.349C376.681 138.2 376.394 138.061 376.095 137.934C375.968 137.721 375.882 137.497 375.84 137.263C375.797 137.05 375.691 136.858 375.52 136.688C375.52 136.454 375.574 136.23 375.68 136.017C375.765 135.825 375.808 135.623 375.808 135.41C375.808 135.282 375.787 135.176 375.744 135.09C375.85 135.048 375.946 134.995 376.031 134.931C376.095 134.888 376.202 134.867 376.351 134.867C376.33 134.803 376.319 134.718 376.319 134.611C376.319 134.313 376.479 134.089 376.798 133.94C376.819 133.387 376.937 132.865 377.15 132.375C377.363 131.907 377.597 131.438 377.852 130.969L378.619 129.564C378.875 129.095 379.066 128.605 379.194 128.094C379.428 127.732 379.641 127.391 379.833 127.072C380.025 126.731 380.153 126.337 380.216 125.89C380.834 125.081 381.398 124.261 381.91 123.43C382.442 122.578 382.879 121.641 383.219 120.619C383.496 120.385 383.731 120.108 383.922 119.788C384.114 119.447 384.295 119.107 384.465 118.766C384.636 118.425 384.817 118.095 385.008 117.776C385.2 117.456 385.445 117.179 385.743 116.945C385.786 116.604 385.86 116.285 385.967 115.987C386.095 115.667 386.222 115.358 386.35 115.06L386.765 114.166C386.915 113.868 387.032 113.548 387.117 113.207C387.458 112.717 387.756 112.196 388.011 111.642C388.267 111.067 388.491 110.492 388.682 109.917C388.895 109.32 389.087 108.735 389.257 108.16C389.449 107.563 389.651 106.988 389.864 106.435C389.843 106.328 389.822 106.232 389.8 106.147C389.8 106.041 389.8 105.934 389.8 105.828C389.8 104.954 390.077 104.305 390.631 103.879C391.206 103.432 391.898 103.208 392.707 103.208C393.006 103.442 393.282 103.677 393.538 103.911C393.794 104.124 394.049 104.348 394.305 104.582ZM425.484 138.317C425.484 138.509 425.41 138.679 425.261 138.828C425.133 138.977 424.973 139.094 424.781 139.18C424.59 139.286 424.387 139.382 424.175 139.467C423.983 139.552 423.812 139.627 423.663 139.691C423.429 139.563 423.184 139.478 422.929 139.435C422.694 139.393 422.481 139.286 422.29 139.116H422.066C421.725 139.116 421.459 139.158 421.267 139.243C420.969 139.137 420.724 138.977 420.533 138.764C420.341 138.573 420.16 138.36 419.99 138.125C419.819 137.912 419.649 137.699 419.478 137.486C419.308 137.273 419.095 137.092 418.839 136.943C418.456 135.878 418.115 134.803 417.817 133.717C417.519 132.631 417.295 131.523 417.146 130.394C417.189 130.288 417.221 130.171 417.242 130.043C417.263 129.915 417.274 129.798 417.274 129.692C417.274 129.606 417.253 129.521 417.21 129.436C417.189 129.33 417.125 129.266 417.019 129.244C417.125 129.074 417.189 128.882 417.21 128.669C417.253 128.435 417.274 128.222 417.274 128.03C417.274 127.604 417.232 127.253 417.146 126.976C417.274 126.87 417.327 126.699 417.306 126.465C417.285 126.209 417.338 126.028 417.466 125.922C417.359 125.56 417.306 125.208 417.306 124.868C417.306 124.399 417.359 123.941 417.466 123.494C417.594 123.047 417.657 122.589 417.657 122.12C417.657 122.014 417.647 121.907 417.626 121.801C417.626 121.694 417.615 121.588 417.594 121.481C417.7 121.141 417.796 120.8 417.881 120.459C417.988 120.097 418.041 119.735 418.041 119.373C418.041 119.117 417.998 118.904 417.913 118.734C418.19 117.754 418.382 116.785 418.488 115.827C418.616 114.847 418.733 113.857 418.839 112.856C418.818 112.813 418.797 112.781 418.776 112.76C418.754 112.739 418.744 112.707 418.744 112.664C418.744 112.558 418.797 112.473 418.903 112.409C419.031 112.345 419.084 112.228 419.063 112.057C418.808 112.313 418.595 112.611 418.424 112.952C418.275 113.292 418.126 113.633 417.977 113.974C417.849 114.315 417.7 114.656 417.53 114.996C417.381 115.316 417.178 115.603 416.923 115.859C416.901 116.093 416.827 116.317 416.699 116.53C416.593 116.743 416.539 116.977 416.539 117.233C416.518 117.233 416.497 117.233 416.475 117.233C416.454 117.211 416.422 117.201 416.38 117.201C416.294 117.201 416.231 117.254 416.188 117.36C416.167 117.467 416.103 117.499 415.996 117.456C415.506 118.415 414.963 119.352 414.367 120.267C413.792 121.183 413.036 121.918 412.099 122.472C411.928 122.408 411.769 122.376 411.62 122.376C411.343 122.376 411.066 122.461 410.789 122.631C410.533 122.781 410.363 122.855 410.278 122.855C410.065 122.855 409.799 122.749 409.479 122.536C409.181 122.301 408.872 122.174 408.553 122.152C408.212 121.918 407.925 121.684 407.69 121.449C407.477 121.194 407.147 121.045 406.7 121.002C406.402 120.555 406.104 120.129 405.805 119.724C405.529 119.32 405.252 118.926 404.975 118.542C404.719 118.138 404.485 117.712 404.272 117.264C404.08 116.817 403.931 116.317 403.825 115.763C403.846 115.72 403.857 115.678 403.857 115.635C403.857 115.507 403.793 115.454 403.665 115.475C403.559 115.497 403.505 115.433 403.505 115.284V115.06C403.505 114.89 403.473 114.741 403.409 114.613C403.367 114.464 403.356 114.304 403.377 114.134C403.228 113.899 403.111 113.655 403.026 113.399C402.941 113.143 402.792 112.92 402.579 112.728V112.441C402.579 112.313 402.568 112.196 402.547 112.089C402.547 111.961 402.515 111.855 402.451 111.77C402.408 111.663 402.334 111.599 402.227 111.578C402.206 110.811 402.046 110.034 401.748 109.246C401.471 108.437 401.216 107.659 400.982 106.914C400.811 107.468 400.683 108.032 400.598 108.607C400.513 109.161 400.47 109.725 400.47 110.3V110.843C400.47 111.014 400.492 111.184 400.534 111.354C400.47 111.461 400.375 111.535 400.247 111.578C400.14 111.621 400.076 111.706 400.055 111.834C400.034 111.94 400.023 112.047 400.023 112.153C400.044 112.26 400.044 112.366 400.023 112.473C399.981 112.984 399.917 113.474 399.831 113.942C399.704 114.645 399.555 115.358 399.384 116.082C399.214 116.785 399.129 117.509 399.129 118.255C399.129 118.297 399.129 118.361 399.129 118.446C399.15 118.51 399.161 118.564 399.161 118.606C398.82 118.904 398.639 119.277 398.617 119.724C398.596 120.172 398.543 120.598 398.458 121.002C398.351 121.599 398.223 122.195 398.074 122.791C397.925 123.366 397.798 123.963 397.691 124.58C397.627 124.921 397.574 125.262 397.531 125.602C397.489 125.922 397.446 126.252 397.404 126.593C397.382 126.784 397.308 126.944 397.18 127.072C397.073 127.2 396.999 127.349 396.956 127.519C396.935 127.668 396.924 127.839 396.924 128.03C396.946 128.201 396.956 128.36 396.956 128.51C396.956 128.765 396.935 129.01 396.892 129.244C396.85 129.457 396.722 129.649 396.509 129.819C396.552 130.373 396.647 130.842 396.797 131.225C396.946 131.63 397.116 132.077 397.308 132.567H398.106V132.695C398.106 132.907 398.138 133.099 398.202 133.27C398.287 133.44 398.447 133.514 398.681 133.493C398.66 133.578 398.649 133.685 398.649 133.813C398.649 134.004 398.681 134.175 398.745 134.324C398.83 134.494 398.894 134.675 398.937 134.867C398.511 135.57 398.053 136.091 397.563 136.432C397.073 136.773 396.403 136.943 395.551 136.943H395.04C394.933 136.603 394.805 136.272 394.656 135.953C394.507 135.634 394.358 135.314 394.209 134.995C394.081 134.675 393.964 134.345 393.857 134.004C393.772 133.685 393.73 133.344 393.73 132.982C393.73 132.897 393.74 132.812 393.762 132.726C393.783 132.663 393.794 132.588 393.794 132.503C393.794 132.396 393.751 132.332 393.666 132.311C393.581 132.29 393.538 132.183 393.538 131.992C393.538 131.843 393.527 131.704 393.506 131.576C393.506 131.449 393.506 131.31 393.506 131.161C393.506 130.458 393.559 129.766 393.666 129.085C393.772 128.382 393.847 127.679 393.889 126.976C393.996 126.87 394.049 126.731 394.049 126.561C394.049 126.39 394.102 126.252 394.209 126.146V125.922C394.209 125.539 394.252 125.155 394.337 124.772C394.422 124.388 394.518 124.016 394.624 123.654C394.731 123.292 394.827 122.919 394.912 122.536C394.997 122.152 395.04 121.769 395.04 121.386V120.874C395.04 120.725 395.103 120.661 395.231 120.683C395.38 120.683 395.465 120.598 395.487 120.427C395.529 120.129 395.551 119.841 395.551 119.565C395.572 119.266 395.604 118.968 395.646 118.67C395.753 118.095 395.87 117.52 395.998 116.945C396.126 116.349 396.19 115.752 396.19 115.156V115.06C396.19 114.996 396.243 114.868 396.349 114.677C396.456 114.464 396.509 114.262 396.509 114.07C396.509 113.921 396.477 113.782 396.413 113.655C396.434 113.676 396.477 113.686 396.541 113.686C396.626 113.686 396.679 113.665 396.701 113.623C396.743 113.559 396.797 113.505 396.86 113.463C396.797 113.378 396.765 113.292 396.765 113.207C396.765 113.101 396.775 113.005 396.797 112.92C396.839 112.813 396.86 112.707 396.86 112.6C396.86 112.451 396.786 112.345 396.637 112.281C396.892 111.812 397.073 111.312 397.18 110.779C397.308 110.247 397.393 109.704 397.435 109.15C397.499 108.596 397.553 108.043 397.595 107.489C397.638 106.914 397.734 106.371 397.883 105.86C397.84 105.732 397.808 105.593 397.787 105.444C397.787 105.295 397.787 105.157 397.787 105.029C397.787 104.944 397.776 104.859 397.755 104.773C397.734 104.667 397.744 104.571 397.787 104.486C397.787 104.443 397.798 104.39 397.819 104.326L397.883 104.135C397.925 103.985 397.947 103.836 397.947 103.687C397.968 103.517 397.989 103.347 398.011 103.176C398.053 102.686 398.064 102.186 398.042 101.675C398.042 101.164 398.064 100.652 398.106 100.141C398.042 100.056 397.979 99.9922 397.915 99.9496C397.851 99.8857 397.808 99.8005 397.787 99.694C397.957 99.3958 398.138 99.119 398.33 98.8634C398.543 98.5865 398.82 98.3736 399.161 98.2245C399.224 98.4588 399.395 98.5759 399.672 98.5759C399.8 98.5759 399.959 98.5439 400.151 98.48C400.343 98.4162 400.47 98.331 400.534 98.2245C400.896 98.3523 401.258 98.4162 401.62 98.4162C402.004 98.3949 402.355 98.48 402.675 98.6717C402.739 98.9912 402.824 99.3213 402.93 99.6621C403.037 100.003 403.186 100.312 403.377 100.589C403.42 100.865 403.463 101.206 403.505 101.611C403.548 101.994 403.59 102.399 403.633 102.825C403.676 103.229 403.74 103.623 403.825 104.007C403.91 104.369 404.027 104.656 404.176 104.869C404.197 105.253 404.261 105.636 404.368 106.019C404.474 106.403 404.591 106.775 404.719 107.137C404.847 107.478 404.954 107.798 405.039 108.096C405.145 108.394 405.198 108.639 405.198 108.831C405.198 109.001 405.166 109.118 405.103 109.182C405.06 109.225 405.017 109.31 404.975 109.438C405.06 109.672 405.177 109.874 405.326 110.045C405.475 110.194 405.635 110.375 405.805 110.588C406.125 111.802 406.54 112.984 407.051 114.134C407.562 115.284 408.18 116.391 408.904 117.456C409.096 117.477 409.245 117.531 409.351 117.616C409.479 117.701 409.671 117.722 409.926 117.68V117.903C409.926 118.116 409.969 118.265 410.054 118.351C410.246 118.478 410.47 118.542 410.725 118.542C411.002 118.542 411.215 118.468 411.364 118.319C411.534 118.148 411.694 117.957 411.843 117.744C411.992 117.531 412.141 117.328 412.29 117.137C412.44 116.945 412.642 116.817 412.897 116.753V116.689C412.897 116.519 412.929 116.381 412.993 116.274C413.079 116.146 413.121 116.008 413.121 115.859C413.355 115.688 413.536 115.475 413.664 115.22C413.792 114.964 413.909 114.709 414.016 114.453C414.122 114.176 414.239 113.921 414.367 113.686C414.516 113.452 414.708 113.261 414.942 113.111C415.24 112.196 415.602 111.344 416.028 110.556C416.454 109.768 416.901 108.969 417.37 108.16C417.37 108.096 417.359 108.032 417.338 107.968C417.317 107.883 417.306 107.808 417.306 107.744C417.306 107.723 417.327 107.627 417.37 107.457C417.476 107.244 417.572 107.042 417.657 106.85C417.743 106.658 417.817 106.445 417.881 106.211C418.094 105.551 418.286 104.901 418.456 104.262C418.648 103.623 418.925 103.016 419.287 102.441V101.643C419.67 100.876 419.936 100.067 420.085 99.2148C420.256 98.3629 420.458 97.5323 420.692 96.723C420.735 96.4887 420.81 96.2545 420.916 96.0202C421.044 95.7646 421.193 95.5836 421.363 95.4771C421.299 95.3493 421.267 95.2215 421.267 95.0937C421.267 94.9234 421.289 94.7743 421.331 94.6465C421.395 94.4974 421.448 94.3483 421.491 94.1992C421.427 94.0502 421.395 93.8585 421.395 93.6242C421.395 93.326 421.48 93.0492 421.651 92.7936C421.821 92.5167 422.077 92.3357 422.417 92.2505C422.63 92.3144 422.811 92.4209 422.961 92.57C423.11 92.7191 423.248 92.8788 423.376 93.0492C423.525 93.1983 423.674 93.326 423.823 93.4325C423.993 93.5177 424.206 93.539 424.462 93.4964C424.632 93.8159 424.75 94.1567 424.813 94.5187C424.877 94.8595 424.909 95.2109 424.909 95.5729C424.909 96.0628 424.867 96.5739 424.781 97.1064C424.696 97.6175 424.664 98.1393 424.686 98.6717C424.515 99.0125 424.387 99.3852 424.302 99.7898C424.238 100.173 424.175 100.567 424.111 100.972C424.047 101.377 423.972 101.771 423.887 102.154C423.802 102.537 423.653 102.899 423.44 103.24C423.376 104.198 423.301 105.136 423.216 106.051C423.152 106.967 423.046 107.883 422.897 108.799L422.609 110.62C422.567 110.769 422.524 110.939 422.481 111.131C422.439 111.301 422.417 111.45 422.417 111.578C422.417 111.706 422.428 111.844 422.449 111.993C422.471 112.121 422.535 112.217 422.641 112.281C422.492 112.494 422.386 112.749 422.322 113.048C422.258 113.346 422.194 113.665 422.13 114.006L421.97 114.996C421.928 115.316 421.842 115.603 421.715 115.859V116.21C421.715 117.062 421.566 117.935 421.267 118.83V118.99C421.267 119.096 421.257 119.192 421.235 119.277C421.235 119.341 421.235 119.426 421.235 119.533C421.235 119.682 421.278 119.799 421.363 119.884C421.193 120.438 421.033 121.013 420.884 121.609C420.735 122.184 420.628 122.781 420.565 123.398C420.501 124.229 420.49 125.081 420.533 125.954C420.575 126.806 420.469 127.636 420.213 128.446C420.341 128.829 420.426 129.244 420.469 129.692L420.597 131.033C420.639 131.481 420.703 131.907 420.788 132.311C420.895 132.737 421.086 133.089 421.363 133.365C421.385 133.408 421.395 133.472 421.395 133.557C421.395 133.727 421.353 133.855 421.267 133.94C421.31 134.153 421.385 134.334 421.491 134.484C421.598 134.633 421.704 134.771 421.81 134.899C421.917 135.048 422.002 135.208 422.066 135.378C422.151 135.548 422.194 135.761 422.194 136.017C422.364 136.251 422.63 136.432 422.993 136.56C423.355 136.688 423.717 136.816 424.079 136.943C424.462 137.071 424.792 137.231 425.069 137.423C425.346 137.636 425.484 137.934 425.484 138.317ZM458.645 122.727C458.645 123.153 458.57 123.505 458.421 123.781C458.293 124.037 458.144 124.335 457.974 124.676C457.931 124.655 457.878 124.644 457.814 124.644C457.686 124.644 457.569 124.676 457.463 124.74C457.356 124.804 457.25 124.857 457.143 124.9C456.525 125.581 455.887 126.241 455.226 126.88C454.587 127.519 453.874 128.084 453.086 128.573C452.873 128.701 452.66 128.829 452.447 128.957C452.234 129.063 452.01 129.17 451.776 129.276C451.691 129.319 451.606 129.361 451.521 129.404C451.457 129.425 451.393 129.457 451.329 129.5C451.18 129.585 451.02 129.724 450.85 129.915C450.701 130.107 450.52 130.299 450.307 130.49C450.115 130.703 449.902 130.874 449.668 131.001C449.433 131.15 449.178 131.214 448.901 131.193C448.731 131.3 448.581 131.438 448.454 131.608C448.326 131.779 448.177 131.949 448.006 132.119C447.091 132.439 446.249 132.854 445.483 133.365C444.737 133.898 443.96 134.409 443.151 134.899C442.661 135.218 442.171 135.474 441.681 135.666C441.575 135.708 441.447 135.74 441.298 135.761C441.17 135.783 441.032 135.815 440.882 135.857C440.18 136.028 439.466 136.166 438.742 136.272C438.039 136.379 437.326 136.432 436.602 136.432C435.707 136.432 434.845 136.326 434.014 136.113C434.014 136.049 433.993 136.006 433.95 135.985C433.907 135.964 433.854 135.942 433.79 135.921C433.748 135.9 433.705 135.868 433.663 135.825C433.62 135.804 433.62 135.751 433.663 135.666C433.194 135.623 432.779 135.506 432.417 135.314C432.076 135.122 431.852 134.782 431.746 134.292C431.682 134.334 431.629 134.388 431.586 134.452C431.543 134.515 431.469 134.537 431.362 134.515C431.064 134.089 430.734 133.695 430.372 133.333C430.01 132.971 429.744 132.535 429.573 132.024C429.531 131.917 429.499 131.811 429.478 131.704C429.478 131.619 429.467 131.523 429.446 131.417C429.339 131.118 429.147 130.969 428.871 130.969C428.913 130.884 428.935 130.778 428.935 130.65C428.935 130.586 428.924 130.522 428.903 130.458C428.903 130.394 428.903 130.33 428.903 130.267C428.903 130.16 428.935 130.054 428.998 129.947C428.785 129.457 428.636 128.978 428.551 128.51C428.466 128.02 428.423 127.519 428.423 127.008C428.423 126.348 428.455 125.698 428.519 125.059C428.583 124.399 428.615 123.739 428.615 123.079C428.743 122.823 428.839 122.525 428.903 122.184C428.988 121.843 429.126 121.567 429.318 121.354C429.297 121.226 429.254 121.162 429.19 121.162C429.126 121.141 429.094 121.077 429.094 120.97C429.094 120.587 429.169 120.172 429.318 119.724C429.467 119.277 429.541 118.819 429.541 118.351C429.733 118.244 429.85 118.084 429.893 117.871C429.957 117.658 430.074 117.488 430.244 117.36V117.201C430.244 116.881 430.276 116.562 430.34 116.242C430.425 115.923 430.5 115.614 430.564 115.316C430.649 114.996 430.713 114.687 430.755 114.389C430.819 114.07 430.841 113.761 430.819 113.463C430.862 113.399 430.915 113.282 430.979 113.111C431.064 112.92 431.139 112.728 431.203 112.536C431.288 112.323 431.352 112.121 431.394 111.929C431.458 111.738 431.49 111.599 431.49 111.514C431.49 111.386 431.469 111.269 431.426 111.163C431.384 111.056 431.362 110.939 431.362 110.811C431.362 110.705 431.394 110.556 431.458 110.364C431.522 110.151 431.575 109.981 431.618 109.853C431.703 109.491 431.778 109.118 431.842 108.735C431.927 108.33 432.001 107.947 432.065 107.585C432.257 106.413 432.395 105.242 432.481 104.071C432.566 102.878 432.619 101.685 432.64 100.493C432.938 100.322 433.247 100.163 433.567 100.013C433.907 99.8644 434.259 99.7898 434.621 99.7898C434.727 99.7898 434.834 99.8005 434.94 99.8218C435.047 99.8431 435.153 99.875 435.26 99.9176C435.366 100.344 435.537 100.684 435.771 100.94C436.005 101.195 436.218 101.504 436.41 101.866C436.282 102.207 436.197 102.559 436.154 102.921L436.059 104.007C436.037 104.369 435.995 104.731 435.931 105.093C435.867 105.434 435.76 105.764 435.611 106.083C435.654 106.19 435.675 106.296 435.675 106.403V106.722C435.675 107.02 435.643 107.308 435.579 107.585C435.537 107.862 435.484 108.149 435.42 108.447C435.356 108.724 435.302 109.001 435.26 109.278C435.217 109.555 435.217 109.832 435.26 110.108C435.196 110.215 435.132 110.3 435.068 110.364C435.004 110.407 434.962 110.481 434.94 110.588L434.877 111.195C434.834 111.429 434.791 111.663 434.749 111.897C434.727 112.11 434.695 112.334 434.653 112.568C434.504 113.207 434.333 113.846 434.142 114.485C433.971 115.124 433.886 115.784 433.886 116.466V116.657C433.695 116.956 433.545 117.328 433.439 117.776C433.332 118.202 433.301 118.596 433.343 118.958C433.109 119.575 432.885 120.182 432.672 120.779C432.459 121.375 432.353 121.993 432.353 122.631C432.353 122.738 432.353 122.855 432.353 122.983C432.374 123.089 432.395 123.196 432.417 123.302C432.246 123.728 432.14 124.165 432.097 124.612C432.055 125.038 432.033 125.464 432.033 125.89C432.033 126.188 432.044 126.54 432.065 126.944C432.108 127.328 432.161 127.732 432.225 128.158C432.31 128.563 432.406 128.957 432.512 129.34C432.619 129.724 432.736 130.032 432.864 130.267C433.354 131.055 433.993 131.672 434.781 132.119C435.59 132.588 436.442 132.886 437.336 133.014C437.698 132.886 437.986 132.812 438.199 132.79C438.433 132.769 438.753 132.769 439.157 132.79C439.498 132.62 439.839 132.492 440.18 132.407C440.542 132.322 440.904 132.226 441.266 132.119C441.372 132.077 441.479 132.034 441.585 131.992C441.713 131.949 441.82 131.907 441.905 131.864C442.011 131.821 442.128 131.725 442.256 131.576C442.384 131.427 442.501 131.3 442.608 131.193C443.055 131.065 443.481 130.884 443.885 130.65C444.29 130.437 444.684 130.213 445.067 129.979L446.249 129.276C446.654 129.042 447.08 128.84 447.527 128.669C447.698 128.605 447.793 128.52 447.815 128.414C447.857 128.286 447.921 128.137 448.006 127.966C448.049 128.009 448.113 128.03 448.198 128.03C448.454 128.03 448.635 127.956 448.741 127.807C448.848 127.636 448.975 127.466 449.125 127.296C449.401 127.253 449.668 127.178 449.923 127.072C450.179 126.944 450.37 126.753 450.498 126.497C451.031 126.39 451.499 126.199 451.904 125.922C452.309 125.645 452.703 125.347 453.086 125.027C453.469 124.687 453.853 124.367 454.236 124.069C454.619 123.75 455.056 123.494 455.546 123.302C455.61 123.196 455.652 123.1 455.674 123.015C455.695 122.93 455.727 122.834 455.769 122.727C456.131 122.685 456.419 122.589 456.632 122.44C456.845 122.269 457.09 122.099 457.367 121.929C457.963 121.993 458.389 122.259 458.645 122.727Z" fill="#202020"/>
</g>
</g>
<path d="M710.829 41.3633H88.1771C81.9254 41.3633 75.9282 43.84 71.4982 48.2514L52.7551 66.9162C48.3008 71.3518 45.7969 77.379 45.7969 83.6651V332.396C45.7969 345.45 56.3796 356.033 69.434 356.033H729.573C742.627 356.033 753.21 345.45 753.21 332.396V83.6651C753.21 77.379 750.706 71.3518 746.251 66.9162L727.508 48.2514C723.078 43.84 717.081 41.3633 710.829 41.3633Z" stroke="#202020" stroke-width="2.21598"/>
<g clip-path="url(#clip7_18_2130)">
<path d="M229.723 157.706H568.029C603.317 157.706 631.924 186.312 631.924 221.6V223.077C631.924 258.365 603.317 286.972 568.029 286.972H229.723C194.435 286.972 165.829 258.365 165.829 223.077V221.6C165.829 186.312 194.435 157.706 229.723 157.706Z" stroke="#202020" stroke-width="2.21598"/>
<path d="M559.595 179.016C583.664 179.016 603.176 198.528 603.176 222.597C603.176 246.666 583.664 266.178 559.595 266.178C535.526 266.178 516.014 246.666 516.014 222.597C516.014 198.528 535.526 179.016 559.595 179.016ZM559.344 190.096C554.878 190.096 550.622 190.996 546.749 192.626L550.666 199.41L543.62 203.479L539.706 196.698C532.91 201.859 528.208 209.632 527.096 218.522H534.934V226.659H527.095C528.203 235.547 532.901 243.318 539.69 248.481L543.607 241.698L550.654 245.767L546.731 252.56C550.609 254.194 554.871 255.098 559.344 255.098C563.81 255.098 568.065 254.196 571.938 252.566L568.022 245.784L575.068 241.716L578.981 248.493C585.779 243.33 590.483 235.553 591.592 226.659H583.754V218.522H591.591C590.48 209.637 585.781 201.869 578.991 196.708L575.08 203.484L568.033 199.416L571.949 192.631C568.073 190.998 563.814 190.096 559.344 190.096Z" fill="#202020"/>
<path d="M237.849 179.016C261.918 179.016 281.43 198.528 281.43 222.597C281.43 246.666 261.918 266.178 237.849 266.178C213.78 266.178 194.268 246.666 194.268 222.597C194.268 198.528 213.78 179.016 237.849 179.016ZM237.598 190.096C233.132 190.096 228.876 190.996 225.003 192.626L228.92 199.41L221.874 203.479L217.96 196.698C211.164 201.859 206.461 209.632 205.35 218.522H213.188V226.659H205.349C206.457 235.547 211.155 243.318 217.944 248.481L221.861 241.698L228.908 245.767L224.985 252.56C228.863 254.194 233.125 255.098 237.598 255.098C242.064 255.098 246.319 254.196 250.192 252.566L246.276 245.784L253.322 241.716L257.235 248.493C264.033 243.33 268.737 235.553 269.846 226.659H262.008V218.522H269.845C268.733 209.637 264.035 201.869 257.245 196.708L253.334 203.484L246.287 199.416L250.203 192.631C246.327 190.998 242.068 190.096 237.598 190.096Z" fill="#202020"/>
</g>
<defs>
<clipPath id="clip0_18_2130">
<rect width="26.5918" height="26.5918" fill="white" transform="translate(385.467 386.871)"/>
</clipPath>
<clipPath id="clip1_18_2130">
<rect width="26.5918" height="26.5918" fill="white" transform="translate(19.9434 19.9453)"/>
</clipPath>
<clipPath id="clip2_18_2130">
<rect width="26.5918" height="26.5918" fill="white" transform="translate(19.9434 442.27)"/>
</clipPath>
<clipPath id="clip3_18_2130">
<rect width="26.5918" height="26.5918" fill="white" transform="translate(750.992 19.9453)"/>
</clipPath>
<clipPath id="clip4_18_2130">
<rect width="26.5918" height="26.5918" fill="white" transform="translate(750.992 442.27)"/>
</clipPath>
<clipPath id="clip5_18_2130">
<rect width="707.637" height="314.669" fill="white" transform="translate(45.7969 41.3633)"/>
</clipPath>
<clipPath id="clip6_18_2130">
<rect width="708" height="199.769" fill="white" transform="matrix(1 0 0 -1 46.166 356.734)"/>
</clipPath>
<clipPath id="clip7_18_2130">
<rect x="164.721" y="156.598" width="468.311" height="131.482" rx="65.0021" fill="white"/>
</clipPath>
</defs>
</svg>
