<svg width="798" height="489" viewBox="0 0 798 489" fill="none" xmlns="http://www.w3.org/2000/svg">
<g opacity="0.8">
<mask id="path-1-outside-1_18_2035" maskUnits="userSpaceOnUse" x="-0.783203" y="-0.785156" width="799" height="490" fill="black">
<rect fill="white" x="-0.783203" y="-0.785156" width="799" height="490"/>
<path d="M763.038 2.21484C780.988 2.21507 795.539 16.7662 795.539 34.7158V454.275C795.539 472.225 780.987 486.776 763.037 486.776H34.7178C16.7681 486.776 2.21688 472.225 2.2168 454.275V34.7158C2.21691 16.7662 16.7682 2.21507 34.7178 2.21484H763.038ZM210.521 433.363C199.098 433.363 189.838 442.623 189.838 454.046C189.838 465.468 199.098 474.728 210.521 474.728C221.943 474.727 231.202 465.468 231.202 454.046C231.202 442.623 221.943 433.364 210.521 433.363ZM587.752 433.363C576.329 433.363 567.069 442.623 567.069 454.046C567.07 465.468 576.329 474.728 587.752 474.728C599.174 474.727 608.433 465.468 608.434 454.046C608.434 442.623 599.174 433.364 587.752 433.363ZM276.999 433.363C274.552 433.364 272.567 435.347 272.567 437.795V457C272.567 459.448 274.552 461.431 276.999 461.432H296.205C298.653 461.431 300.637 459.448 300.637 457V437.795C300.637 435.347 298.653 433.363 296.205 433.363H276.999ZM502.067 433.363C499.62 433.363 497.635 435.347 497.635 437.795V457C497.635 459.448 499.62 461.432 502.067 461.432H521.272C523.72 461.431 525.704 459.448 525.704 457V437.795C525.704 435.347 523.72 433.363 521.272 433.363H502.067ZM237.851 178.755C213.781 178.755 194.27 198.267 194.27 222.336C194.27 246.405 213.781 265.917 237.851 265.917C261.92 265.917 281.432 246.405 281.432 222.336C281.432 198.267 261.92 178.755 237.851 178.755ZM559.906 178.755C535.837 178.755 516.325 198.267 516.325 222.336C516.325 246.405 535.837 265.917 559.906 265.917C583.975 265.917 603.487 246.405 603.487 222.336C603.487 198.267 583.975 178.755 559.906 178.755Z"/>
</mask>
<path d="M763.038 2.21484C780.988 2.21507 795.539 16.7662 795.539 34.7158V454.275C795.539 472.225 780.987 486.776 763.037 486.776H34.7178C16.7681 486.776 2.21688 472.225 2.2168 454.275V34.7158C2.21691 16.7662 16.7682 2.21507 34.7178 2.21484H763.038ZM210.521 433.363C199.098 433.363 189.838 442.623 189.838 454.046C189.838 465.468 199.098 474.728 210.521 474.728C221.943 474.727 231.202 465.468 231.202 454.046C231.202 442.623 221.943 433.364 210.521 433.363ZM587.752 433.363C576.329 433.363 567.069 442.623 567.069 454.046C567.07 465.468 576.329 474.728 587.752 474.728C599.174 474.727 608.433 465.468 608.434 454.046C608.434 442.623 599.174 433.364 587.752 433.363ZM276.999 433.363C274.552 433.364 272.567 435.347 272.567 437.795V457C272.567 459.448 274.552 461.431 276.999 461.432H296.205C298.653 461.431 300.637 459.448 300.637 457V437.795C300.637 435.347 298.653 433.363 296.205 433.363H276.999ZM502.067 433.363C499.62 433.363 497.635 435.347 497.635 437.795V457C497.635 459.448 499.62 461.432 502.067 461.432H521.272C523.72 461.431 525.704 459.448 525.704 457V437.795C525.704 435.347 523.72 433.363 521.272 433.363H502.067ZM237.851 178.755C213.781 178.755 194.27 198.267 194.27 222.336C194.27 246.405 213.781 265.917 237.851 265.917C261.92 265.917 281.432 246.405 281.432 222.336C281.432 198.267 261.92 178.755 237.851 178.755ZM559.906 178.755C535.837 178.755 516.325 198.267 516.325 222.336C516.325 246.405 535.837 265.917 559.906 265.917C583.975 265.917 603.487 246.405 603.487 222.336C603.487 198.267 583.975 178.755 559.906 178.755Z" fill="#E2E2E2"/>
<path d="M763.038 2.21484L763.038 -0.00113821H763.038V2.21484ZM795.539 34.7158L797.755 34.7158L797.755 34.7158L795.539 34.7158ZM795.539 454.275L797.755 454.275V454.275H795.539ZM34.7178 486.776L34.7178 488.992H34.7178V486.776ZM2.2168 454.275L0.000814915 454.275L0.000814915 454.275L2.2168 454.275ZM2.2168 34.7158L0.000814915 34.7158V34.7158H2.2168ZM34.7178 2.21484L34.7178 -0.00113821L34.7177 -0.00113821L34.7178 2.21484ZM210.521 433.363L210.521 431.147H210.521V433.363ZM189.838 454.046L187.622 454.046L187.622 454.046L189.838 454.046ZM210.521 474.728L210.521 476.944L210.521 476.944L210.521 474.728ZM231.202 454.046L233.418 454.046V454.046H231.202ZM587.752 433.363L587.752 431.147H587.752V433.363ZM567.069 454.046L564.853 454.046L564.853 454.046L567.069 454.046ZM587.752 474.728L587.752 476.944L587.752 476.944L587.752 474.728ZM608.434 454.046L610.65 454.046V454.046H608.434ZM276.999 433.363L276.999 431.147L276.999 431.147L276.999 433.363ZM272.567 437.795L270.351 437.795V437.795H272.567ZM276.999 461.432L276.999 463.648H276.999V461.432ZM296.205 461.432L296.205 463.648L296.205 463.648L296.205 461.432ZM300.637 437.795L302.853 437.795L302.853 437.795L300.637 437.795ZM296.205 433.363L296.205 431.147H296.205V433.363ZM497.635 437.795L495.419 437.795V437.795H497.635ZM521.272 461.432L521.272 463.648L521.273 463.648L521.272 461.432ZM525.704 437.795L527.92 437.795L527.92 437.795L525.704 437.795ZM521.272 433.363L521.273 431.147H521.272V433.363ZM237.851 178.755L237.851 176.539H237.851V178.755ZM194.27 222.336L192.054 222.336L192.054 222.336L194.27 222.336ZM237.851 265.917L237.851 268.133L237.851 268.133L237.851 265.917ZM281.432 222.336L283.648 222.336V222.336H281.432ZM559.906 178.755L559.906 176.539L559.906 176.539L559.906 178.755ZM516.325 222.336L514.109 222.336L514.109 222.336L516.325 222.336ZM559.906 265.917L559.906 268.133H559.906V265.917ZM603.487 222.336L605.703 222.336V222.336H603.487ZM763.038 2.21484L763.038 4.43083C779.764 4.43103 793.323 17.9901 793.323 34.7158L795.539 34.7158L797.755 34.7158C797.755 15.5423 782.212 -0.000901334 763.038 -0.00113821L763.038 2.21484ZM795.539 34.7158H793.323V454.275H795.539H797.755V34.7158H795.539ZM795.539 454.275L793.323 454.275C793.323 471.001 779.763 484.56 763.037 484.56V486.776V488.992C782.211 488.992 797.755 473.449 797.755 454.275L795.539 454.275ZM763.037 486.776V484.56H34.7178V486.776V488.992H763.037V486.776ZM34.7178 486.776L34.7178 484.56C17.992 484.56 4.43285 471.001 4.43278 454.275L2.2168 454.275L0.000814915 454.275C0.00090036 473.449 15.5443 488.992 34.7178 488.992L34.7178 486.776ZM2.2168 454.275H4.43278V34.7158H2.2168H0.000814915V454.275H2.2168ZM2.2168 34.7158L4.43278 34.7158C4.43289 17.9901 17.992 4.43104 34.7178 4.43083L34.7178 2.21484L34.7177 -0.00113821C15.5444 -0.000893123 0.000937524 15.5423 0.000814915 34.7158L2.2168 34.7158ZM34.7178 2.21484V4.43083H763.038V2.21484V-0.00113821H34.7178V2.21484ZM210.521 433.363V431.147C197.874 431.147 187.622 441.399 187.622 454.046H189.838H192.054C192.054 443.847 200.322 435.579 210.521 435.579V433.363ZM189.838 454.046L187.622 454.046C187.622 466.692 197.874 476.944 210.521 476.944V474.728V472.512C200.322 472.512 192.054 464.244 192.054 454.046L189.838 454.046ZM210.521 474.728L210.521 476.944C223.167 476.943 233.418 466.692 233.418 454.046L231.202 454.046L228.986 454.046C228.986 464.244 220.719 472.511 210.52 472.512L210.521 474.728ZM231.202 454.046H233.418C233.418 441.4 223.167 431.148 210.521 431.147L210.521 433.363L210.52 435.579C220.719 435.579 228.986 443.847 228.986 454.046H231.202ZM587.752 433.363V431.147C575.105 431.147 564.853 441.399 564.853 454.046H567.069H569.285C569.285 443.847 577.553 435.579 587.752 435.579V433.363ZM567.069 454.046L564.853 454.046C564.854 466.692 575.106 476.944 587.752 476.944V474.728V472.512C577.553 472.512 569.286 464.244 569.285 454.046L567.069 454.046ZM587.752 474.728L587.752 476.944C600.398 476.943 610.649 466.692 610.65 454.046L608.434 454.046L606.218 454.046C606.217 464.244 597.95 472.511 587.752 472.512L587.752 474.728ZM608.434 454.046H610.65C610.65 441.4 600.398 431.148 587.752 431.147L587.752 433.363L587.752 435.579C597.95 435.579 606.218 443.847 606.218 454.046H608.434ZM276.999 433.363L276.999 431.147C273.328 431.148 270.351 434.123 270.351 437.795L272.567 437.795L274.783 437.795C274.783 436.571 275.775 435.579 276.999 435.579L276.999 433.363ZM272.567 437.795H270.351V457H272.567H274.783V437.795H272.567ZM272.567 457H270.351C270.351 460.672 273.328 463.647 276.999 463.648L276.999 461.432L276.999 459.216C275.775 459.216 274.783 458.223 274.783 457H272.567ZM276.999 461.432V463.648H296.205V461.432V459.216H276.999V461.432ZM296.205 461.432L296.205 463.648C299.876 463.647 302.853 460.672 302.853 457H300.637H298.421C298.421 458.224 297.429 459.216 296.205 459.216L296.205 461.432ZM300.637 457H302.853V437.795H300.637H298.421V457H300.637ZM300.637 437.795L302.853 437.795C302.853 434.123 299.876 431.148 296.205 431.147L296.205 433.363L296.205 435.579C297.429 435.579 298.421 436.571 298.421 437.795L300.637 437.795ZM296.205 433.363V431.147H276.999V433.363V435.579H296.205V433.363ZM502.067 433.363V431.147C498.396 431.147 495.419 434.123 495.419 437.795L497.635 437.795L499.851 437.795C499.851 436.572 500.843 435.579 502.067 435.579V433.363ZM497.635 437.795H495.419V457H497.635H499.851V437.795H497.635ZM497.635 457H495.419C495.419 460.672 498.396 463.648 502.067 463.648V461.432V459.216C500.843 459.216 499.851 458.223 499.851 457H497.635ZM502.067 461.432V463.648H521.272V461.432V459.216H502.067V461.432ZM521.272 461.432L521.273 463.648C524.944 463.647 527.92 460.672 527.92 457H525.704H523.488C523.488 458.224 522.496 459.216 521.272 459.216L521.272 461.432ZM525.704 457H527.92V437.795H525.704H523.488V457H525.704ZM525.704 437.795L527.92 437.795C527.92 434.123 524.944 431.148 521.273 431.147L521.272 433.363L521.272 435.579C522.496 435.579 523.488 436.571 523.488 437.795L525.704 437.795ZM521.272 433.363V431.147H502.067V433.363V435.579H521.272V433.363ZM237.851 178.755V176.539C212.558 176.539 192.054 197.043 192.054 222.336H194.27H196.486C196.486 199.491 215.005 180.971 237.851 180.971V178.755ZM194.27 222.336L192.054 222.336C192.054 247.629 212.558 268.133 237.851 268.133V265.917V263.701C215.005 263.701 196.486 245.181 196.486 222.336L194.27 222.336ZM237.851 265.917L237.851 268.133C263.143 268.133 283.648 247.629 283.648 222.336L281.432 222.336L279.216 222.336C279.216 245.181 260.696 263.701 237.851 263.701L237.851 265.917ZM281.432 222.336H283.648C283.648 197.043 263.143 176.539 237.851 176.539L237.851 178.755L237.851 180.971C260.696 180.971 279.216 199.491 279.216 222.336H281.432ZM559.906 178.755L559.906 176.539C534.613 176.539 514.109 197.043 514.109 222.336H516.325H518.541C518.541 199.491 537.061 180.971 559.906 180.971L559.906 178.755ZM516.325 222.336L514.109 222.336C514.109 247.629 534.613 268.133 559.906 268.133L559.906 265.917L559.906 263.701C537.061 263.701 518.541 245.181 518.541 222.336L516.325 222.336ZM559.906 265.917V268.133C585.199 268.133 605.703 247.629 605.703 222.336L603.487 222.336L601.271 222.336C601.271 245.181 582.751 263.701 559.906 263.701V265.917ZM603.487 222.336H605.703C605.703 197.043 585.199 176.539 559.906 176.539V178.755V180.971C582.752 180.971 601.271 199.491 601.271 222.336H603.487Z" fill="#202020" mask="url(#path-1-outside-1_18_2035)"/>
</g>
<path d="M237.109 88.6406C310.948 88.6407 370.806 148.499 370.807 222.338C370.807 296.177 310.948 356.036 237.109 356.036C163.27 356.036 103.412 296.177 103.412 222.338C103.412 148.499 163.27 88.6406 237.109 88.6406ZM237.848 176.541C212.555 176.541 192.051 197.045 192.051 222.338C192.051 247.631 212.555 268.135 237.848 268.135C263.141 268.135 283.645 247.631 283.645 222.338C283.644 197.045 263.141 176.541 237.848 176.541Z" fill="#202020"/>
<path d="M559.166 166.938C589.762 166.938 614.565 191.741 614.565 222.337C614.565 252.933 589.762 277.736 559.166 277.736C528.57 277.736 503.766 252.933 503.766 222.337C503.766 191.741 528.57 166.938 559.166 166.938ZM559.904 176.54C534.611 176.54 514.108 197.044 514.107 222.337C514.107 247.63 534.611 268.134 559.904 268.134C585.197 268.134 605.701 247.63 605.701 222.337C605.701 197.044 585.197 176.54 559.904 176.54Z" fill="#202020"/>
<path d="M93.4393 201.658C85.7284 262.786 55.7217 408.38 63.5234 455.388M86.4221 474.593C137.759 475.331 705.789 474.593 711.329 474.593M604.592 191.316C630.745 230.072 714.893 385.047 733.821 445.416" stroke="#202020" stroke-width="0.738661"/>
<path d="M86.1982 427.496C99.2525 427.496 109.835 438.079 109.835 451.133C109.835 464.187 99.2526 474.77 86.1982 474.771C73.1438 474.771 62.5605 464.187 62.5605 451.133C62.5608 438.079 73.1439 427.496 86.1982 427.496ZM86.1982 441.185C80.7017 441.185 76.2452 445.64 76.2451 451.137C76.2451 456.633 80.7016 461.089 86.1982 461.089C91.6947 461.089 96.1504 456.633 96.1504 451.137C96.1503 445.64 91.6947 441.185 86.1982 441.185Z" fill="#202020"/>
<path d="M711.105 427.496C724.16 427.496 734.743 438.079 734.743 451.134C734.743 464.188 724.16 474.771 711.105 474.771C698.051 474.77 687.469 464.188 687.469 451.134C687.469 438.079 698.051 427.496 711.105 427.496ZM711.105 441.185C705.609 441.185 701.153 445.64 701.153 451.137C701.153 456.633 705.609 461.089 711.105 461.089C716.602 461.089 721.059 456.633 721.059 451.137C721.059 445.64 716.602 441.185 711.105 441.185Z" fill="#202020"/>
<path d="M179.775 378.565H623.873C634.17 378.565 643.156 385.546 645.702 395.522L669.276 487.887H129.291L158.256 394.425C161.179 384.994 169.902 378.565 179.775 378.565Z" stroke="#202020" stroke-width="2.21598"/>
<circle cx="210.516" cy="454.085" r="19.5745" stroke="#202020" stroke-width="2.21598"/>
<circle cx="587.749" cy="454.085" r="19.5745" stroke="#202020" stroke-width="2.21598"/>
<rect x="273.672" y="434.51" width="25.8531" height="25.8531" rx="3.32397" stroke="#202020" stroke-width="2.21598"/>
<path d="M384.842 461.475C384.842 459.027 386.826 457.043 389.274 457.043H408.479C410.927 457.043 412.911 459.027 412.911 461.475V474.771H384.842V461.475Z" fill="#202020"/>
<rect x="498.741" y="434.51" width="25.8531" height="25.8531" rx="3.32397" stroke="#202020" stroke-width="2.21598"/>
<g clip-path="url(#clip0_18_2035)">
<path d="M398.763 386.871C406.106 386.871 412.059 392.824 412.059 400.167C412.059 407.51 406.106 413.463 398.763 413.463C391.42 413.463 385.467 407.51 385.467 400.167C385.467 392.824 391.42 386.871 398.763 386.871ZM399.849 392.21C399.608 391.027 397.917 391.027 397.677 392.21L396.662 397.201C396.573 397.637 396.233 397.978 395.797 398.066L390.806 399.081C389.623 399.322 389.623 401.012 390.806 401.253L395.797 402.268C396.233 402.356 396.573 402.697 396.662 403.133L397.677 408.124C397.917 409.307 399.608 409.307 399.849 408.124L400.863 403.133C400.952 402.697 401.293 402.356 401.729 402.268L406.72 401.253C407.903 401.012 407.903 399.322 406.72 399.081L401.729 398.066C401.293 397.978 400.952 397.637 400.863 397.201L399.849 392.21Z" fill="#202020"/>
</g>
<g clip-path="url(#clip1_18_2035)">
<path d="M33.2393 19.9453C40.5824 19.9453 46.5352 25.8981 46.5352 33.2412C46.5352 40.5843 40.5824 46.5371 33.2393 46.5371C25.8961 46.5371 19.9434 40.5843 19.9434 33.2412C19.9434 25.8981 25.8961 19.9453 33.2393 19.9453ZM34.3252 25.2842C34.0846 24.1013 32.3939 24.1013 32.1533 25.2842L31.1387 30.2754C31.0501 30.7112 30.7092 31.052 30.2734 31.1406L25.2822 32.1553C24.0994 32.3959 24.0994 34.0866 25.2822 34.3271L30.2734 35.3418C30.7092 35.4304 31.0501 35.7713 31.1387 36.207L32.1533 41.1982C32.3939 42.3811 34.0846 42.3811 34.3252 41.1982L35.3398 36.207C35.4285 35.7713 35.7693 35.4304 36.2051 35.3418L41.1963 34.3271C42.3791 34.0865 42.3791 32.3959 41.1963 32.1553L36.2051 31.1406C35.7693 31.052 35.4285 30.7112 35.3398 30.2754L34.3252 25.2842Z" fill="#202020"/>
</g>
<g clip-path="url(#clip2_18_2035)">
<path d="M33.2393 442.27C40.5824 442.27 46.5352 448.222 46.5352 455.565C46.5352 462.909 40.5824 468.861 33.2393 468.861C25.8961 468.861 19.9434 462.909 19.9434 455.565C19.9434 448.222 25.8961 442.27 33.2393 442.27ZM34.3252 447.608C34.0846 446.426 32.3939 446.426 32.1533 447.608L31.1387 452.6C31.0501 453.035 30.7092 453.376 30.2734 453.465L25.2822 454.479C24.0994 454.72 24.0994 456.411 25.2822 456.651L30.2734 457.666C30.7092 457.755 31.0501 458.095 31.1387 458.531L32.1533 463.522C32.3939 464.705 34.0846 464.705 34.3252 463.522L35.3398 458.531C35.4285 458.095 35.7693 457.755 36.2051 457.666L41.1963 456.651C42.3791 456.411 42.3791 454.72 41.1963 454.479L36.2051 453.465C35.7693 453.376 35.4285 453.035 35.3398 452.6L34.3252 447.608Z" fill="#202020"/>
</g>
<g clip-path="url(#clip3_18_2035)">
<path d="M764.288 19.9453C771.631 19.9453 777.584 25.8981 777.584 33.2412C777.584 40.5843 771.631 46.5371 764.288 46.5371C756.945 46.5371 750.992 40.5843 750.992 33.2412C750.992 25.8981 756.945 19.9453 764.288 19.9453ZM765.374 25.2842C765.133 24.1013 763.443 24.1013 763.202 25.2842L762.188 30.2754C762.099 30.7112 761.758 31.052 761.322 31.1406L756.331 32.1553C755.148 32.3959 755.148 34.0866 756.331 34.3271L761.322 35.3418C761.758 35.4304 762.099 35.7713 762.188 36.207L763.202 41.1982C763.443 42.3811 765.133 42.3811 765.374 41.1982L766.389 36.207C766.477 35.7713 766.818 35.4304 767.254 35.3418L772.245 34.3271C773.428 34.0865 773.428 32.3959 772.245 32.1553L767.254 31.1406C766.818 31.052 766.477 30.7112 766.389 30.2754L765.374 25.2842Z" fill="#202020"/>
</g>
<g clip-path="url(#clip4_18_2035)">
<path d="M764.288 442.27C771.631 442.27 777.584 448.222 777.584 455.565C777.584 462.909 771.631 468.861 764.288 468.861C756.945 468.861 750.992 462.909 750.992 455.565C750.992 448.222 756.945 442.27 764.288 442.27ZM765.374 447.608C765.133 446.426 763.443 446.426 763.202 447.608L762.188 452.6C762.099 453.035 761.758 453.376 761.322 453.465L756.331 454.479C755.148 454.72 755.148 456.411 756.331 456.651L761.322 457.666C761.758 457.755 762.099 458.095 762.188 458.531L763.202 463.522C763.443 464.705 765.133 464.705 765.374 463.522L766.389 458.531C766.477 458.095 766.818 457.755 767.254 457.666L772.245 456.651C773.428 456.411 773.428 454.72 772.245 454.479L767.254 453.465C766.818 453.376 766.477 453.035 766.389 452.6L765.374 447.608Z" fill="#202020"/>
</g>
<mask id="mask0_18_2035" style="mask-type:alpha" maskUnits="userSpaceOnUse" x="45" y="41" width="709" height="316">
<path d="M88.1855 42.4717H711.045C717.002 42.4717 722.717 44.8312 726.939 49.0342L745.691 67.7012C749.938 71.929 752.326 77.6745 752.326 83.667V332.396C752.326 344.838 742.239 354.925 729.797 354.925H69.4336C56.9913 354.925 46.9053 344.838 46.9053 332.396V83.667C46.9054 77.6746 49.2923 71.929 53.5391 67.7012L72.291 49.0342C76.5131 44.8311 82.2281 42.4717 88.1855 42.4717ZM229.724 155.486C193.212 155.486 163.613 185.085 163.613 221.597V223.074C163.614 259.586 193.212 289.184 229.724 289.184H568.03C604.542 289.183 634.139 259.586 634.14 223.074V221.597C634.14 185.085 604.542 155.487 568.03 155.486H229.724Z" fill="#EDA35F" stroke="#202020" stroke-width="2.21598"/>
</mask>
<g mask="url(#mask0_18_2035)">
<g clip-path="url(#clip5_18_2035)">
<rect width="707.637" height="314.669" transform="translate(45.7969 41.3633)" fill="#FCF7F2"/>
<g clip-path="url(#clip6_18_2035)">
<rect width="708" height="35.5145" transform="matrix(1 0 0 -1 46.166 356.734)" fill="#9AF3FF"/>
<rect width="708" height="24.4162" transform="matrix(1 0 0 -1 46.166 312.34)" fill="#9AF3FF"/>
<rect width="708" height="4.43931" transform="matrix(1 0 0 -1 46.166 181.383)" fill="#9AF3FF"/>
<rect width="708" height="2.21966" transform="matrix(1 0 0 -1 46.166 159.184)" fill="#9AF3FF"/>
<rect width="708" height="17.7572" transform="matrix(1 0 0 -1 46.166 279.047)" fill="#9AF3FF"/>
<rect width="708" height="8.87862" transform="matrix(1 0 0 -1 46.166 225.773)" fill="#9AF3FF"/>
<rect width="708" height="13.3179" transform="matrix(1 0 0 -1 46.166 250.191)" fill="#9AF3FF"/>
<rect width="708" height="6.65897" transform="matrix(1 0 0 -1 46.166 203.578)" fill="#9AF3FF"/>
</g>
<path d="M333.814 124.612C333.814 124.889 333.74 125.145 333.591 125.379C333.442 125.592 333.399 125.847 333.463 126.146C333.378 126.295 333.261 126.412 333.112 126.497C332.984 126.582 332.941 126.742 332.984 126.976C332.537 127.21 332.121 127.509 331.738 127.871C331.376 128.211 330.982 128.541 330.556 128.861C330.3 129.053 330.077 129.191 329.885 129.276C329.715 129.34 329.502 129.447 329.246 129.596L328.448 130.107C328.085 130.299 327.713 130.49 327.329 130.682C326.967 130.874 326.637 131.118 326.339 131.417C325.892 131.438 325.434 131.555 324.965 131.768C324.497 132.002 324.05 132.205 323.624 132.375C323.453 132.439 323.283 132.482 323.112 132.503C322.942 132.545 322.772 132.609 322.601 132.695L322.09 132.918C321.792 133.067 321.441 133.216 321.036 133.365C320.631 133.536 320.269 133.621 319.95 133.621C319.758 133.706 319.598 133.855 319.471 134.068C318.768 134.302 318.044 134.484 317.298 134.611C316.553 134.739 315.829 134.941 315.126 135.218C314.892 135.325 314.647 135.463 314.391 135.634C314.157 135.825 313.901 135.91 313.624 135.889C313.561 135.996 313.518 136.123 313.497 136.272C313.475 136.422 313.443 136.571 313.401 136.72H313.305C313.22 136.72 313.177 136.677 313.177 136.592C313.198 136.507 313.167 136.464 313.081 136.464C313.017 136.464 312.975 136.475 312.954 136.496C312.677 136.56 312.41 136.613 312.155 136.656C311.921 136.698 311.654 136.72 311.356 136.72C311.186 136.72 310.909 136.698 310.526 136.656C310.164 136.613 309.897 136.56 309.727 136.496C309.599 136.432 309.493 136.315 309.408 136.145C309.322 135.974 309.237 135.793 309.152 135.602C309.088 135.41 309.024 135.208 308.96 134.995C308.918 134.803 308.875 134.643 308.832 134.515C308.896 134.281 309.003 134.089 309.152 133.94C309.301 133.791 309.418 133.6 309.503 133.365C309.695 133.344 309.887 133.312 310.078 133.27C310.27 133.227 310.462 133.216 310.653 133.238C311.314 133.046 311.974 132.854 312.634 132.663C313.316 132.492 313.986 132.311 314.647 132.119C315.307 131.928 315.957 131.715 316.595 131.481C317.234 131.246 317.852 130.959 318.448 130.618H319.119C319.503 130.405 319.928 130.224 320.397 130.075C320.866 129.926 321.249 129.681 321.547 129.34C322.25 129.191 322.985 128.989 323.751 128.733C324.518 128.478 325.157 128.073 325.668 127.519C325.988 127.477 326.265 127.402 326.499 127.296C326.733 127.168 326.957 127.04 327.17 126.912L327.809 126.497C328.022 126.348 328.266 126.231 328.543 126.146C328.714 125.975 328.873 125.794 329.023 125.602C329.172 125.411 329.353 125.251 329.566 125.123C329.502 124.782 329.331 124.527 329.054 124.357C328.778 124.186 328.533 123.984 328.32 123.75H327.617C327.063 123.409 326.467 123.153 325.828 122.983C325.21 122.791 324.593 122.589 323.975 122.376C323.932 122.355 323.879 122.344 323.815 122.344C323.666 122.344 323.57 122.397 323.528 122.504C323.506 122.61 323.421 122.653 323.272 122.631C323.081 122.504 322.878 122.429 322.665 122.408C322.452 122.365 322.229 122.344 321.994 122.344C321.696 122.344 321.398 122.365 321.1 122.408C320.823 122.429 320.535 122.44 320.237 122.44C320.088 122.44 319.939 122.429 319.79 122.408C319.641 122.387 319.492 122.333 319.343 122.248H318.928C318.48 122.248 318.033 122.269 317.586 122.312C317.16 122.333 316.734 122.344 316.308 122.344C316.074 122.344 315.85 122.344 315.637 122.344C315.424 122.323 315.211 122.291 314.998 122.248C314.551 122.461 314.072 122.61 313.561 122.695C313.049 122.781 312.517 122.844 311.963 122.887C311.431 122.93 310.898 122.972 310.366 123.015C309.833 123.036 309.322 123.089 308.832 123.175C308.705 123.153 308.577 123.143 308.449 123.143C308.343 123.121 308.236 123.111 308.13 123.111C308.023 123.111 307.906 123.121 307.778 123.143C307.672 123.143 307.565 123.153 307.459 123.175C307.182 122.876 306.841 122.663 306.437 122.536C306.053 122.387 305.67 122.291 305.286 122.248C304.988 121.886 304.765 121.524 304.616 121.162C304.488 120.779 304.403 120.353 304.36 119.884H304.488C304.637 119.884 304.701 119.81 304.679 119.66C304.679 119.511 304.733 119.384 304.839 119.277C304.946 119.149 305.084 119.064 305.255 119.022C305.446 118.958 305.627 118.894 305.798 118.83C305.968 118.766 306.128 118.691 306.277 118.606C306.447 118.5 306.575 118.34 306.66 118.127H307.075C307.161 118.127 307.246 118.138 307.331 118.159C307.437 118.159 307.523 118.191 307.587 118.255C307.672 118.17 307.778 118.095 307.906 118.031C308.034 117.967 308.151 117.903 308.257 117.839C308.385 117.776 308.492 117.701 308.577 117.616C308.662 117.531 308.715 117.403 308.737 117.233C308.758 117.296 308.811 117.328 308.896 117.328C308.982 117.328 309.056 117.307 309.12 117.264C309.205 117.222 309.301 117.211 309.408 117.233C309.514 116.934 309.695 116.775 309.951 116.753C310.206 116.732 310.44 116.657 310.653 116.53C310.803 116.445 310.941 116.349 311.069 116.242C311.197 116.114 311.335 115.997 311.484 115.891L313.401 114.421L316.34 112.185C317.32 111.44 318.321 110.747 319.343 110.108C319.385 109.981 319.449 109.885 319.534 109.821C319.62 109.757 319.705 109.693 319.79 109.629C319.875 109.544 319.939 109.459 319.982 109.374C320.046 109.289 320.067 109.161 320.046 108.99C320.344 108.926 320.567 108.809 320.717 108.639C320.887 108.469 321.036 108.288 321.164 108.096C321.292 107.883 321.419 107.681 321.547 107.489C321.696 107.276 321.888 107.116 322.122 107.01C322.101 106.946 322.09 106.85 322.09 106.722C322.09 106.552 322.101 106.381 322.122 106.211C322.165 106.041 322.25 105.892 322.378 105.764C322.186 105.317 321.856 104.997 321.387 104.805C320.919 104.592 320.472 104.411 320.046 104.262H319.95C319.843 104.262 319.779 104.316 319.758 104.422C319.758 104.507 319.705 104.571 319.598 104.614C319.258 104.529 318.874 104.486 318.448 104.486C318.022 104.486 317.596 104.518 317.17 104.582C316.766 104.646 316.351 104.656 315.925 104.614C315.861 104.699 315.786 104.784 315.701 104.869C315.637 104.954 315.552 105.029 315.445 105.093C314.998 105.114 314.551 105.178 314.104 105.285L312.762 105.604L312.027 105.764C311.921 105.806 311.846 105.881 311.803 105.987C311.761 106.094 311.729 106.211 311.708 106.339C311.58 106.318 311.495 106.264 311.452 106.179C311.431 106.094 311.356 106.03 311.228 105.987C310.739 106.286 310.206 106.531 309.631 106.722C309.077 106.914 308.577 107.212 308.13 107.617C307.981 107.446 307.768 107.361 307.491 107.361C307.256 107.361 307.001 107.436 306.724 107.585C306.447 107.734 306.277 107.925 306.213 108.16C306 108.117 305.84 108.096 305.734 108.096C305.499 108.096 305.297 108.16 305.127 108.288C304.978 108.415 304.829 108.564 304.679 108.735C304.53 108.884 304.371 109.033 304.2 109.182C304.03 109.331 303.817 109.416 303.561 109.438C303.561 109.544 303.561 109.661 303.561 109.789C303.583 109.896 303.593 110.013 303.593 110.14C303.593 111.099 303.54 112.057 303.434 113.016C303.327 113.953 303.274 114.9 303.274 115.859C303.274 116.072 303.284 116.285 303.306 116.498C303.327 116.689 303.338 116.902 303.338 117.137C303.338 117.201 303.284 117.339 303.178 117.552C303.093 117.765 303.029 117.925 302.986 118.031C303.072 118.265 303.103 118.5 303.082 118.734C303.082 118.968 303.135 119.192 303.242 119.405C303.05 119.575 302.954 119.81 302.954 120.108C302.954 120.235 302.954 120.363 302.954 120.491C302.976 120.619 302.986 120.747 302.986 120.874V121.258C302.922 121.684 302.88 122.12 302.859 122.568C302.837 122.993 302.827 123.419 302.827 123.845C302.827 124.037 302.827 124.367 302.827 124.836C302.848 125.283 302.88 125.794 302.922 126.369C302.965 126.923 303.029 127.498 303.114 128.094C303.199 128.691 303.306 129.244 303.434 129.755C303.583 130.245 303.764 130.65 303.977 130.969C304.19 131.289 304.445 131.449 304.743 131.449C304.807 131.449 304.882 131.438 304.967 131.417C305.073 131.395 305.127 131.342 305.127 131.257C305.127 131.172 305.105 131.097 305.063 131.033C305.042 130.969 305.031 130.895 305.031 130.81L305.063 130.746C305.233 130.831 305.414 130.884 305.606 130.906C305.819 130.927 306.032 130.948 306.245 130.969C306.458 130.991 306.66 131.023 306.852 131.065C307.043 131.129 307.214 131.246 307.363 131.417C307.278 131.587 307.235 131.768 307.235 131.96C307.235 132.215 307.299 132.45 307.427 132.663C307.555 132.897 307.64 133.131 307.682 133.365C307.278 133.493 306.905 133.632 306.564 133.781C306.245 133.951 305.925 134.1 305.606 134.228C305.286 134.377 304.946 134.505 304.584 134.611C304.222 134.739 303.806 134.824 303.338 134.867C303.04 134.675 302.784 134.505 302.571 134.356C302.358 134.207 302.071 134.111 301.708 134.068C301.155 133.323 300.697 132.482 300.335 131.544C299.973 130.629 299.685 129.67 299.472 128.669C299.281 127.668 299.142 126.667 299.057 125.666C298.993 124.644 298.961 123.686 298.961 122.791C298.961 121.811 298.993 120.842 299.057 119.884C299.142 118.904 299.249 117.925 299.376 116.945C299.419 116.647 299.462 116.349 299.504 116.051C299.547 115.731 299.589 115.422 299.632 115.124C299.675 115.018 299.707 114.9 299.728 114.773C299.77 114.624 299.792 114.496 299.792 114.389C299.792 114.027 299.781 113.665 299.76 113.303C299.738 112.941 299.728 112.59 299.728 112.249C299.728 111.716 299.76 111.173 299.824 110.62C299.845 110.513 299.877 110.375 299.919 110.204C299.983 110.034 300.015 109.885 300.015 109.757C300.015 109.587 299.973 109.47 299.888 109.406C299.802 109.342 299.728 109.235 299.664 109.086C299.728 108.873 299.781 108.671 299.824 108.479C299.866 108.266 299.888 108.053 299.888 107.84C299.888 107.436 299.813 107.084 299.664 106.786C299.77 106.232 299.93 105.689 300.143 105.157C300.356 104.624 300.729 104.22 301.261 103.943C301.687 103.964 302.113 104.007 302.539 104.071C302.986 104.135 303.37 104.316 303.689 104.614C303.838 104.529 304.009 104.475 304.2 104.454L304.807 104.39C305.02 104.369 305.212 104.337 305.382 104.294C305.553 104.23 305.702 104.113 305.83 103.943C306.255 103.858 306.713 103.741 307.203 103.591C307.693 103.421 308.119 103.229 308.481 103.016H309.184C309.333 102.91 309.503 102.835 309.695 102.793L310.302 102.633C310.515 102.569 310.707 102.505 310.877 102.441C311.069 102.377 311.218 102.271 311.324 102.122H311.452C311.942 102.122 312.421 102.015 312.89 101.802C313.358 101.589 313.816 101.398 314.263 101.227C314.37 101.185 314.53 101.11 314.743 101.004C314.977 100.897 315.137 100.844 315.222 100.844C315.52 100.801 315.818 100.78 316.116 100.78C316.414 100.759 316.713 100.716 317.011 100.652C317.692 100.546 318.363 100.429 319.023 100.301C319.705 100.152 320.386 100.077 321.068 100.077C321.302 100.077 321.515 100.088 321.707 100.109C321.92 100.109 322.143 100.12 322.378 100.141C322.399 100.226 322.452 100.301 322.537 100.365C322.623 100.407 322.697 100.45 322.761 100.493C322.846 100.535 322.921 100.599 322.985 100.684C323.049 100.748 323.07 100.844 323.049 100.972C323.091 101.014 323.134 101.036 323.176 101.036C323.24 101.036 323.294 101.004 323.336 100.94C323.4 100.876 323.485 100.844 323.592 100.844H323.751C324.028 101.142 324.294 101.43 324.55 101.707C324.827 101.962 325.168 102.175 325.572 102.346C325.743 102.984 325.945 103.613 326.179 104.23C326.414 104.848 326.531 105.508 326.531 106.211C326.531 106.637 326.467 107.052 326.339 107.457C326.041 107.606 325.828 107.84 325.7 108.16C325.572 108.479 325.455 108.788 325.349 109.086C324.752 109.384 324.252 109.778 323.847 110.268C323.443 110.758 323.027 111.248 322.601 111.738H322.09C322.005 111.738 321.941 111.77 321.899 111.834L321.611 112.153C321.419 112.323 321.206 112.494 320.972 112.664C320.759 112.835 320.599 113.058 320.493 113.335C319.833 113.697 319.194 114.102 318.576 114.549C317.98 114.996 317.405 115.465 316.851 115.955C316.617 116.146 316.382 116.37 316.148 116.626C315.914 116.86 315.68 117.062 315.445 117.233C315.318 117.339 315.168 117.435 314.998 117.52C314.849 117.584 314.711 117.669 314.583 117.776C314.306 117.989 314.05 118.212 313.816 118.446C313.582 118.659 313.337 118.862 313.081 119.053C314.04 119.011 315.009 118.99 315.988 118.99C316.968 118.968 317.937 118.947 318.896 118.926C319.385 118.926 319.865 118.915 320.333 118.894C320.802 118.851 321.281 118.83 321.771 118.83C321.856 118.83 321.93 118.851 321.994 118.894C322.058 118.915 322.133 118.936 322.218 118.958C322.58 119.022 322.899 119.096 323.176 119.181C324.199 119.373 325.221 119.543 326.243 119.692C327.265 119.841 328.266 120.086 329.246 120.427C329.523 120.534 329.725 120.651 329.853 120.779C330.002 120.906 330.258 120.938 330.62 120.874C330.918 121.173 331.237 121.407 331.578 121.577C331.94 121.748 332.302 121.897 332.664 122.024C332.941 122.45 333.197 122.855 333.431 123.238C333.687 123.622 333.814 124.08 333.814 124.612ZM344.74 131.64C344.74 131.981 344.623 132.29 344.389 132.567C344.154 132.844 343.952 133.11 343.782 133.365C343.484 133.514 343.196 133.6 342.919 133.621C342.664 133.664 342.387 133.738 342.089 133.845C341.982 133.866 341.865 133.94 341.737 134.068C341.567 134.047 341.396 133.972 341.226 133.845C341.056 133.738 340.885 133.664 340.715 133.621C340.481 133.536 340.172 133.483 339.788 133.461C339.426 133.44 339.16 133.333 338.99 133.142C338.692 132.844 338.436 132.45 338.223 131.96C338.031 131.47 337.872 130.948 337.744 130.394C337.637 129.841 337.552 129.298 337.488 128.765C337.446 128.211 337.424 127.732 337.424 127.328C337.424 126.646 337.467 125.964 337.552 125.283C337.637 124.601 337.765 123.941 337.936 123.302V123.143C337.936 123.036 337.936 122.951 337.936 122.887C337.957 122.802 337.967 122.706 337.967 122.599C337.967 122.536 337.957 122.472 337.936 122.408C337.936 122.344 337.904 122.291 337.84 122.248C338.117 121.545 338.319 120.821 338.447 120.076C338.574 119.33 338.67 118.585 338.734 117.839C338.819 117.073 338.905 116.317 338.99 115.571C339.096 114.805 339.245 114.059 339.437 113.335C339.416 113.207 339.394 113.069 339.373 112.92C339.373 112.771 339.373 112.632 339.373 112.504C339.373 112.121 339.416 111.748 339.501 111.386C339.586 111.003 339.639 110.609 339.661 110.204C339.682 110.077 339.682 109.949 339.661 109.821C339.639 109.672 339.629 109.523 339.629 109.374C339.629 108.437 339.671 107.521 339.756 106.626C339.863 105.732 339.916 104.827 339.916 103.911C339.916 103.421 339.874 102.953 339.788 102.505C339.725 102.037 339.693 101.568 339.693 101.1C339.693 100.887 339.703 100.684 339.725 100.493C339.746 100.28 339.81 100.088 339.916 99.9176C340.385 99.5982 340.938 99.4384 341.577 99.4384C342.046 99.4384 342.451 99.5662 342.791 99.8218C342.77 99.8644 342.759 99.9283 342.759 100.013C342.759 100.12 342.77 100.216 342.791 100.301C342.813 100.386 342.823 100.482 342.823 100.589V100.716C342.823 100.759 342.813 100.801 342.791 100.844C342.94 101.1 343.036 101.377 343.079 101.675C343.143 101.952 343.175 102.239 343.175 102.537C343.175 102.814 343.164 103.091 343.143 103.368C343.121 103.623 343.111 103.89 343.111 104.166C343.111 104.55 343.111 104.933 343.111 105.317C343.132 105.7 343.143 106.083 343.143 106.467C343.143 107.489 343.09 108.501 342.983 109.502C342.898 110.481 342.834 111.482 342.791 112.504C342.749 113.378 342.632 114.23 342.44 115.06C342.27 115.891 342.152 116.732 342.089 117.584C342.067 117.754 342.057 117.925 342.057 118.095C342.078 118.244 342.089 118.415 342.089 118.606C342.089 119.096 341.993 119.586 341.801 120.076C341.609 120.544 341.514 121.045 341.514 121.577C341.514 121.833 341.556 122.056 341.641 122.248C341.514 122.589 341.396 122.993 341.29 123.462C341.205 123.931 341.12 124.42 341.034 124.932C340.97 125.421 340.917 125.911 340.875 126.401C340.832 126.87 340.811 127.285 340.811 127.647C340.811 128.158 340.875 128.68 341.002 129.212C341.13 129.724 341.343 130.192 341.641 130.618C341.854 130.682 342.11 130.714 342.408 130.714C342.706 130.714 343.004 130.724 343.303 130.746C343.601 130.767 343.878 130.82 344.133 130.906C344.389 130.991 344.58 131.161 344.708 131.417C344.729 131.459 344.74 131.502 344.74 131.544V131.64ZM380.775 112.185C380.775 113.399 380.69 114.581 380.52 115.731C380.371 116.86 380.147 118.01 379.849 119.181C379.572 119.394 379.402 119.66 379.338 119.98C379.274 120.299 379.168 120.598 379.018 120.874C378.891 121.109 378.72 121.364 378.507 121.641C378.294 121.897 378.06 122.174 377.804 122.472C377.549 122.749 377.293 123.036 377.038 123.334C376.782 123.632 376.569 123.931 376.399 124.229C375.76 124.442 375.302 124.9 375.025 125.602C374.684 125.73 374.333 125.879 373.971 126.05C373.609 126.199 373.353 126.465 373.204 126.848C372.416 127.253 371.671 127.722 370.968 128.254C370.286 128.765 369.541 129.212 368.732 129.596C368.625 129.702 368.497 129.787 368.348 129.851C368.221 129.894 368.082 129.947 367.933 130.011C367.805 130.075 367.678 130.149 367.55 130.235C367.443 130.341 367.379 130.469 367.358 130.618C367.273 130.618 367.209 130.597 367.166 130.554C367.145 130.533 367.081 130.512 366.975 130.49C366.74 130.618 366.634 130.82 366.655 131.097C366.57 131.055 366.453 131.033 366.304 131.033C366.048 131.033 365.793 131.108 365.537 131.257C365.303 131.427 365.101 131.598 364.93 131.768C364.675 131.896 364.376 132.024 364.036 132.151C363.716 132.279 363.482 132.492 363.333 132.79C363.248 132.705 363.12 132.663 362.949 132.663C362.758 132.663 362.555 132.716 362.342 132.822C362.13 132.95 361.97 133.089 361.863 133.238C361.565 133.238 361.278 133.28 361.001 133.365C360.745 133.472 360.479 133.568 360.202 133.653C359.925 133.759 359.648 133.855 359.371 133.94C359.116 134.026 358.839 134.068 358.541 134.068C358.371 134.068 358.243 134.026 358.158 133.94C358.072 133.855 357.966 133.781 357.838 133.717C357.732 133.802 357.54 133.898 357.263 134.004C357.007 134.111 356.816 134.164 356.688 134.164C356.454 134.164 356.219 134.132 355.985 134.068C355.772 134.004 355.549 133.93 355.314 133.845L354.643 133.621C354.43 133.557 354.196 133.514 353.941 133.493C353.749 133.323 353.515 133.142 353.238 132.95C352.982 132.78 352.727 132.726 352.471 132.79C352.365 132.471 352.205 132.194 351.992 131.96C351.779 131.725 351.534 131.512 351.257 131.321C351.193 131.278 351.119 131.236 351.034 131.193C350.97 131.172 350.916 131.14 350.874 131.097C350.767 131.033 350.671 130.906 350.586 130.714C350.501 130.522 350.405 130.426 350.299 130.426C350.277 130.426 350.246 130.437 350.203 130.458C350.182 130.48 350.16 130.49 350.139 130.49C350.096 130.299 350.033 130.118 349.947 129.947C349.862 129.755 349.713 129.638 349.5 129.596C349.33 129.042 349.213 128.488 349.149 127.935C349.085 127.381 349 126.827 348.893 126.273C348.851 126.103 348.797 125.901 348.733 125.666C348.691 125.411 348.669 125.187 348.669 124.995C348.669 124.676 348.712 124.293 348.797 123.845C348.904 123.398 348.989 123.004 349.053 122.663C349.308 121.428 349.649 120.235 350.075 119.085C350.501 117.914 350.959 116.753 351.449 115.603C351.96 114.453 352.482 113.314 353.014 112.185C353.547 111.056 354.047 109.906 354.516 108.735C354.601 108.735 354.654 108.714 354.675 108.671L354.771 108.511C354.814 108.447 354.846 108.394 354.867 108.351C354.91 108.309 354.984 108.288 355.091 108.288V108.192C355.069 108.064 355.091 107.957 355.155 107.872C355.24 107.787 355.261 107.649 355.218 107.457C355.559 107.074 355.847 106.648 356.081 106.179C356.315 105.689 356.55 105.21 356.784 104.742C357.039 104.273 357.306 103.815 357.583 103.368C357.859 102.921 358.211 102.537 358.637 102.218V101.994C358.615 101.888 358.615 101.781 358.637 101.675C358.679 101.547 358.754 101.462 358.86 101.419C359.244 101.036 359.563 100.652 359.819 100.269C360.074 99.8857 360.33 99.513 360.585 99.1509C360.862 98.7676 361.16 98.4162 361.48 98.0967C361.821 97.7559 362.247 97.4471 362.758 97.1703C362.992 97.0638 363.162 96.904 363.269 96.6911C363.375 96.4781 363.514 96.329 363.684 96.2438C363.769 96.2012 363.855 96.1799 363.94 96.1799C364.046 96.1586 364.142 96.1267 364.227 96.0841C364.589 95.9776 364.951 95.8498 365.314 95.7007C365.676 95.5303 366.059 95.4452 366.464 95.4452C366.975 95.4452 367.358 95.5942 367.614 95.8924C367.891 96.1693 368.103 96.51 368.253 96.9147C368.423 97.3193 368.561 97.7453 368.668 98.1925C368.774 98.6398 368.945 99.0231 369.179 99.3426C369.818 99.3852 370.468 99.4597 371.128 99.5662C371.788 99.6514 372.363 99.9176 372.853 100.365C372.895 100.386 372.949 100.397 373.013 100.397C373.119 100.397 373.172 100.354 373.172 100.269C373.172 100.184 373.226 100.141 373.332 100.141H373.428C374.067 100.525 374.674 100.951 375.249 101.419C375.845 101.866 376.431 102.335 377.006 102.825C377.112 102.91 377.219 102.995 377.325 103.08C377.453 103.144 377.56 103.229 377.645 103.336C377.751 103.464 377.847 103.613 377.932 103.783C378.039 103.954 378.135 104.103 378.22 104.23C379.285 106.083 379.998 108.075 380.36 110.204C380.403 110.439 380.435 110.662 380.456 110.875C380.499 111.088 380.52 111.291 380.52 111.482C380.52 111.674 380.563 111.802 380.648 111.866C380.733 111.908 380.775 112.015 380.775 112.185ZM378.316 113.814C378.316 112.962 378.209 112.142 377.996 111.354C378.103 111.312 378.167 111.248 378.188 111.163C378.23 111.056 378.252 110.95 378.252 110.843V110.684L377.868 109.981C377.847 109.683 377.783 109.406 377.677 109.15C377.592 108.895 377.485 108.639 377.357 108.383C377.229 108.128 377.102 107.872 376.974 107.617C376.867 107.361 376.793 107.084 376.75 106.786C376.41 106.531 376.101 106.243 375.824 105.924C375.568 105.583 375.334 105.231 375.121 104.869C374.972 104.805 374.833 104.763 374.706 104.742C374.578 104.72 374.535 104.603 374.578 104.39C374.195 104.284 373.843 104.135 373.524 103.943C373.226 103.73 372.927 103.496 372.629 103.24C372.139 103.134 371.65 103.006 371.16 102.857C370.691 102.686 370.212 102.601 369.722 102.601C369.381 102.601 369.051 102.665 368.732 102.793C368.838 102.963 368.891 103.155 368.891 103.368C368.891 103.56 368.913 103.751 368.955 103.943C369.637 104.113 370.052 104.529 370.201 105.189C370.095 105.253 369.999 105.338 369.914 105.444C369.829 105.53 369.743 105.615 369.658 105.7C369.594 105.764 369.509 105.828 369.403 105.892C369.296 105.955 369.168 105.987 369.019 105.987C368.721 105.987 368.487 105.934 368.316 105.828C368.167 105.721 367.922 105.7 367.582 105.764C367.22 105.444 366.868 105.114 366.527 104.773C366.187 104.411 365.803 104.092 365.377 103.815C365.314 103.602 365.207 103.41 365.058 103.24C364.93 103.07 364.792 102.91 364.643 102.761C364.515 102.59 364.387 102.42 364.259 102.25C364.153 102.058 364.1 101.845 364.1 101.611C364.1 101.462 364.11 101.355 364.131 101.291C364.004 101.249 363.908 101.227 363.844 101.227C363.674 101.227 363.514 101.291 363.365 101.419C363.216 101.526 363.045 101.6 362.854 101.643C362.683 102.154 362.438 102.601 362.119 102.984C361.799 103.368 361.469 103.741 361.129 104.103C360.788 104.465 360.468 104.848 360.17 105.253C359.893 105.636 359.691 106.115 359.563 106.69C358.882 107.542 358.253 108.511 357.678 109.597C357.103 110.662 356.667 111.706 356.369 112.728C355.879 113.282 355.495 113.868 355.218 114.485C354.942 115.103 354.782 115.784 354.739 116.53C354.633 116.594 354.548 116.679 354.484 116.785L354.164 117.424C354.122 117.531 354.047 117.616 353.941 117.68V117.839C353.941 118.01 353.909 118.17 353.845 118.319C353.781 118.446 353.706 118.574 353.621 118.702C353.557 118.83 353.493 118.958 353.429 119.085C353.366 119.192 353.334 119.32 353.334 119.469C353.334 119.639 353.376 119.81 353.461 119.98C353.227 120.022 353.067 120.15 352.982 120.363C352.918 120.555 352.823 120.725 352.695 120.874C352.61 121.556 352.524 122.248 352.439 122.951C352.354 123.654 352.311 124.346 352.311 125.027C352.311 125.815 352.397 126.614 352.567 127.423C352.759 127.615 352.929 127.828 353.078 128.062C353.227 128.297 353.376 128.52 353.525 128.733C353.696 128.946 353.877 129.138 354.068 129.308C354.26 129.457 354.516 129.553 354.835 129.596C354.835 129.745 354.867 129.851 354.931 129.915C354.995 129.979 355.048 130.064 355.091 130.171C355.538 130.32 356.006 130.437 356.496 130.522C356.986 130.629 357.476 130.682 357.966 130.682C358.307 130.682 358.647 130.639 358.988 130.554C359.35 130.469 359.648 130.299 359.883 130.043C360.969 130 362.044 129.745 363.109 129.276C364.195 128.808 365.186 128.297 366.08 127.743H366.751C366.985 127.423 367.273 127.168 367.614 126.976C367.954 126.763 368.306 126.571 368.668 126.401C368.732 126.358 368.817 126.316 368.923 126.273C369.03 126.231 369.115 126.188 369.179 126.146C369.413 125.975 369.648 125.783 369.882 125.57C370.137 125.358 370.393 125.155 370.649 124.964C371.074 124.644 371.511 124.335 371.958 124.037C372.406 123.739 372.832 123.419 373.236 123.079C373.662 122.738 374.056 122.376 374.418 121.993C374.802 121.588 375.121 121.141 375.377 120.651C375.504 120.651 375.6 120.619 375.664 120.555C375.749 120.47 375.813 120.385 375.856 120.299C375.92 120.214 375.984 120.14 376.047 120.076C376.133 120.012 376.25 119.98 376.399 119.98C376.399 119.788 376.431 119.628 376.495 119.501C376.58 119.352 376.665 119.224 376.75 119.117C376.857 118.99 376.953 118.872 377.038 118.766C377.144 118.659 377.24 118.521 377.325 118.351V117.456C377.666 116.902 377.911 116.317 378.06 115.699C378.23 115.081 378.316 114.453 378.316 113.814ZM405.598 131.64C405.598 131.981 405.481 132.29 405.246 132.567C405.012 132.844 404.81 133.11 404.639 133.365C404.341 133.514 404.054 133.6 403.777 133.621C403.521 133.664 403.244 133.738 402.946 133.845C402.84 133.866 402.723 133.94 402.595 134.068C402.424 134.047 402.254 133.972 402.084 133.845C401.913 133.738 401.743 133.664 401.573 133.621C401.338 133.536 401.029 133.483 400.646 133.461C400.284 133.44 400.018 133.333 399.847 133.142C399.549 132.844 399.294 132.45 399.081 131.96C398.889 131.47 398.729 130.948 398.602 130.394C398.495 129.841 398.41 129.298 398.346 128.765C398.303 128.211 398.282 127.732 398.282 127.328C398.282 126.646 398.325 125.964 398.41 125.283C398.495 124.601 398.623 123.941 398.793 123.302V123.143C398.793 123.036 398.793 122.951 398.793 122.887C398.814 122.802 398.825 122.706 398.825 122.599C398.825 122.536 398.814 122.472 398.793 122.408C398.793 122.344 398.761 122.291 398.697 122.248C398.974 121.545 399.177 120.821 399.304 120.076C399.432 119.33 399.528 118.585 399.592 117.839C399.677 117.073 399.762 116.317 399.847 115.571C399.954 114.805 400.103 114.059 400.295 113.335C400.273 113.207 400.252 113.069 400.231 112.92C400.231 112.771 400.231 112.632 400.231 112.504C400.231 112.121 400.273 111.748 400.359 111.386C400.444 111.003 400.497 110.609 400.518 110.204C400.54 110.077 400.54 109.949 400.518 109.821C400.497 109.672 400.486 109.523 400.486 109.374C400.486 108.437 400.529 107.521 400.614 106.626C400.721 105.732 400.774 104.827 400.774 103.911C400.774 103.421 400.731 102.953 400.646 102.505C400.582 102.037 400.55 101.568 400.55 101.1C400.55 100.887 400.561 100.684 400.582 100.493C400.603 100.28 400.667 100.088 400.774 99.9176C401.242 99.5982 401.796 99.4384 402.435 99.4384C402.904 99.4384 403.308 99.5662 403.649 99.8218C403.628 99.8644 403.617 99.9283 403.617 100.013C403.617 100.12 403.628 100.216 403.649 100.301C403.67 100.386 403.681 100.482 403.681 100.589V100.716C403.681 100.759 403.67 100.801 403.649 100.844C403.798 101.1 403.894 101.377 403.937 101.675C404 101.952 404.032 102.239 404.032 102.537C404.032 102.814 404.022 103.091 404 103.368C403.979 103.623 403.968 103.89 403.968 104.166C403.968 104.55 403.968 104.933 403.968 105.317C403.99 105.7 404 106.083 404 106.467C404 107.489 403.947 108.501 403.841 109.502C403.756 110.481 403.692 111.482 403.649 112.504C403.606 113.378 403.489 114.23 403.298 115.06C403.127 115.891 403.01 116.732 402.946 117.584C402.925 117.754 402.914 117.925 402.914 118.095C402.936 118.244 402.946 118.415 402.946 118.606C402.946 119.096 402.85 119.586 402.659 120.076C402.467 120.544 402.371 121.045 402.371 121.577C402.371 121.833 402.414 122.056 402.499 122.248C402.371 122.589 402.254 122.993 402.148 123.462C402.062 123.931 401.977 124.42 401.892 124.932C401.828 125.421 401.775 125.911 401.732 126.401C401.69 126.87 401.668 127.285 401.668 127.647C401.668 128.158 401.732 128.68 401.86 129.212C401.988 129.724 402.201 130.192 402.499 130.618C402.712 130.682 402.968 130.714 403.266 130.714C403.564 130.714 403.862 130.724 404.16 130.746C404.458 130.767 404.735 130.82 404.991 130.906C405.246 130.991 405.438 131.161 405.566 131.417C405.587 131.459 405.598 131.502 405.598 131.544V131.64ZM436.49 100.493C436.362 100.706 436.266 100.929 436.202 101.164C436.16 101.398 436.128 101.632 436.106 101.866H435.883C435.712 101.866 435.563 101.845 435.436 101.802C435.308 101.739 435.159 101.685 434.988 101.643C435.074 102.452 435.127 103.272 435.148 104.103C435.169 104.933 435.18 105.753 435.18 106.562C435.18 107.585 435.169 108.607 435.148 109.629C435.127 110.63 435.116 111.642 435.116 112.664C435.116 113.154 435.084 113.644 435.02 114.134C434.978 114.602 434.85 115.06 434.637 115.507C434.68 115.869 434.711 116.221 434.733 116.562C434.754 116.881 434.765 117.222 434.765 117.584C434.765 118.585 434.701 119.586 434.573 120.587C434.467 121.567 434.328 122.546 434.158 123.526C434.094 123.909 434.03 124.303 433.966 124.708C433.923 125.091 433.849 125.464 433.742 125.826C433.7 125.933 433.636 126.039 433.551 126.146C433.487 126.252 433.434 126.358 433.391 126.465C433.135 127.019 432.848 127.572 432.528 128.126C432.23 128.659 431.868 129.148 431.442 129.596C431.123 129.617 430.814 129.702 430.516 129.851C430.218 130 429.941 130.075 429.685 130.075C429.451 130.075 429.259 129.958 429.11 129.724L428.791 129.851C428.684 129.894 428.567 129.926 428.439 129.947C427.715 129.649 427.023 129.287 426.363 128.861C425.724 128.435 425.191 127.881 424.766 127.2H424.638C424.446 127.2 424.308 127.157 424.222 127.072C424.116 126.965 423.999 126.838 423.871 126.689C423.765 126.518 423.669 126.369 423.584 126.241C423.328 125.837 423.051 125.432 422.753 125.027C422.455 124.623 422.103 124.282 421.699 124.005C421.528 123.366 421.273 122.823 420.932 122.376C420.591 121.907 420.24 121.407 419.878 120.874C419.601 119.81 419.09 118.819 418.344 117.903C418.451 117.797 418.504 117.722 418.504 117.68C418.504 117.573 418.461 117.488 418.376 117.424C418.312 117.339 418.28 117.254 418.28 117.169C418.28 117.083 418.302 117.02 418.344 116.977C418.067 116.679 417.833 116.349 417.641 115.987C417.471 115.603 417.301 115.22 417.13 114.837C416.981 114.453 416.811 114.07 416.619 113.686C416.449 113.303 416.236 112.952 415.98 112.632C415.746 112.781 415.597 112.962 415.533 113.175C415.49 113.388 415.469 113.612 415.469 113.846C415.469 114.017 415.469 114.187 415.469 114.357C415.49 114.528 415.501 114.698 415.501 114.868C415.501 115.294 415.448 115.71 415.341 116.114C415.256 116.519 415.192 116.934 415.15 117.36C415.128 117.658 415.118 117.989 415.118 118.351C415.139 118.713 415.128 119.075 415.086 119.437C415.064 119.799 415.011 120.15 414.926 120.491C414.841 120.832 414.692 121.119 414.479 121.354C414.351 122.568 414.191 123.781 414 124.995C413.808 126.209 413.627 127.423 413.457 128.637C413.414 128.85 413.371 129.117 413.329 129.436C413.286 129.755 413.233 130.075 413.169 130.394C413.126 130.735 413.084 131.055 413.041 131.353C413.02 131.672 413.009 131.928 413.009 132.119C413.009 132.332 413.063 132.535 413.169 132.726C413.276 132.939 413.329 133.142 413.329 133.333C413.329 133.483 413.276 133.568 413.169 133.589C413.084 133.632 413.031 133.717 413.009 133.845C413.158 134.313 413.233 134.846 413.233 135.442C413.233 135.612 413.222 135.783 413.201 135.953C413.18 136.145 413.148 136.326 413.105 136.496C413.063 136.603 412.988 136.698 412.882 136.784C412.775 136.89 412.722 136.986 412.722 137.071C412.722 137.156 412.764 137.22 412.85 137.263C412.722 137.391 412.562 137.476 412.37 137.518C412.179 137.561 412.04 137.678 411.955 137.87C411.742 137.699 411.529 137.54 411.316 137.391C411.103 137.263 410.901 137.114 410.709 136.943L410.613 136.911C410.464 136.911 410.336 136.954 410.23 137.039C410.145 137.146 410.028 137.199 409.879 137.199C409.836 137.199 409.793 137.188 409.751 137.167C409.729 137.167 409.698 137.167 409.655 137.167L409.463 136.336C409.399 136.06 409.314 135.804 409.208 135.57C409.378 135.122 409.485 134.611 409.527 134.036C409.591 133.483 409.655 132.918 409.719 132.343C409.783 131.768 409.879 131.214 410.006 130.682C410.134 130.171 410.368 129.724 410.709 129.34C410.709 129.17 410.645 129.053 410.517 128.989C410.411 128.925 410.358 128.786 410.358 128.573C410.358 128.531 410.368 128.456 410.39 128.35C410.432 128.243 410.464 128.126 410.486 127.998C410.528 127.871 410.56 127.753 410.581 127.647C410.624 127.519 410.656 127.423 410.677 127.359C410.848 126.529 410.975 125.677 411.061 124.804C411.167 123.931 411.433 123.121 411.859 122.376C411.838 122.291 411.827 122.163 411.827 121.993C411.827 121.63 411.859 121.279 411.923 120.938C412.008 120.598 412.051 120.246 412.051 119.884C412.051 119.586 412.019 119.309 411.955 119.053C412.019 118.819 412.104 118.596 412.211 118.383C412.338 118.148 412.402 117.914 412.402 117.68C412.402 117.467 412.328 117.318 412.179 117.233C412.285 117.147 412.349 117.051 412.37 116.945C412.413 116.839 412.434 116.732 412.434 116.626C412.456 116.519 412.477 116.423 412.498 116.338C412.541 116.232 412.626 116.146 412.754 116.082C412.732 115.869 412.711 115.667 412.69 115.475C412.69 115.284 412.69 115.081 412.69 114.868C412.69 114.08 412.732 113.303 412.818 112.536C412.903 111.748 412.945 110.95 412.945 110.14C412.945 109.352 412.882 108.586 412.754 107.84L413.105 107.137C412.892 106.967 412.754 106.69 412.69 106.307C412.626 105.924 412.583 105.508 412.562 105.061C412.541 104.614 412.498 104.177 412.434 103.751C412.392 103.304 412.275 102.942 412.083 102.665V102.377C412.083 102.037 412.062 101.707 412.019 101.387C411.976 101.068 411.955 100.748 411.955 100.429V100.141C412.062 100.099 412.136 100.024 412.179 99.9176C412.243 99.8111 412.285 99.7047 412.306 99.5982H412.434C412.69 99.5982 412.945 99.5769 413.201 99.5343C413.457 99.4917 413.712 99.4704 413.968 99.4704H414.383C414.639 99.6621 414.862 99.8857 415.054 100.141C415.246 100.397 415.48 100.631 415.757 100.844V101.419C415.948 101.675 416.097 101.952 416.204 102.25C416.31 102.548 416.417 102.857 416.523 103.176C416.651 103.496 416.779 103.804 416.907 104.103C417.035 104.401 417.216 104.656 417.45 104.869C417.407 105.082 417.386 105.253 417.386 105.38C417.386 105.657 417.407 105.934 417.45 106.211C417.514 106.488 417.556 106.754 417.578 107.01C417.663 107.116 417.737 107.255 417.801 107.425C417.865 107.574 417.972 107.67 418.121 107.713C418.227 108.543 418.44 109.331 418.76 110.077C419.1 110.822 419.345 111.599 419.494 112.409C419.665 112.579 419.793 112.792 419.878 113.048C419.963 113.282 420.048 113.516 420.133 113.75C420.24 113.985 420.346 114.208 420.453 114.421C420.581 114.613 420.762 114.751 420.996 114.837C421.124 115.348 421.283 115.859 421.475 116.37C421.667 116.881 421.965 117.318 422.37 117.68C422.37 118.106 422.433 118.478 422.561 118.798C422.71 119.096 422.87 119.384 423.04 119.66C423.232 119.916 423.402 120.172 423.552 120.427C423.701 120.683 423.796 120.96 423.839 121.258C424.137 121.705 424.478 122.12 424.861 122.504C425.266 122.887 425.671 123.26 426.075 123.622C426.501 123.963 426.917 124.314 427.321 124.676C427.726 125.038 428.099 125.421 428.439 125.826C428.674 125.847 428.865 125.901 429.014 125.986C429.185 126.05 429.376 126.103 429.589 126.146C429.738 126.039 429.856 125.911 429.941 125.762C430.047 125.592 430.143 125.421 430.228 125.251C430.314 125.081 430.399 124.921 430.484 124.772C430.59 124.601 430.718 124.452 430.867 124.325C430.867 124.282 430.857 124.25 430.835 124.229C430.835 124.186 430.835 124.144 430.835 124.101C430.835 123.867 430.867 123.686 430.931 123.558C431.016 123.409 431.112 123.249 431.219 123.079V122.248C431.389 121.929 431.506 121.588 431.57 121.226C431.634 120.864 431.666 120.502 431.666 120.14C431.666 119.841 431.655 119.543 431.634 119.245C431.613 118.926 431.602 118.606 431.602 118.287C431.602 118.095 431.613 117.903 431.634 117.712C431.655 117.499 431.698 117.307 431.762 117.137C431.804 117.094 431.879 117.03 431.985 116.945C432.092 116.839 432.145 116.775 432.145 116.753C432.145 116.647 432.113 116.54 432.049 116.434C431.985 116.327 431.953 116.221 431.953 116.114C431.953 115.965 432.017 115.848 432.145 115.763V115.571C432.145 115.465 432.124 115.369 432.081 115.284C432.06 115.177 431.996 115.103 431.89 115.06C431.996 114.932 432.071 114.783 432.113 114.613C432.156 114.421 432.177 114.23 432.177 114.038C432.198 113.825 432.198 113.623 432.177 113.431C432.177 113.239 432.177 113.058 432.177 112.888C432.177 112.696 432.188 112.494 432.209 112.281C432.23 112.068 432.315 111.887 432.465 111.738C432.401 111.482 432.358 111.237 432.337 111.003C432.315 110.747 432.305 110.492 432.305 110.236C432.305 109.789 432.326 109.342 432.369 108.895C432.411 108.447 432.433 107.989 432.433 107.521C432.433 107.35 432.422 107.18 432.401 107.01C432.379 106.818 432.369 106.637 432.369 106.467C432.369 106.296 432.401 106.222 432.465 106.243C432.55 106.243 432.592 106.19 432.592 106.083C432.592 105.934 432.571 105.785 432.528 105.636C432.507 105.487 432.486 105.338 432.465 105.189C432.422 104.827 432.39 104.465 432.369 104.103C432.347 103.719 432.337 103.336 432.337 102.953C432.337 102.718 432.337 102.484 432.337 102.25C432.358 101.994 432.401 101.749 432.465 101.515C432.337 101.323 432.252 101.142 432.209 100.972C432.188 100.78 432.166 100.61 432.145 100.461L432.081 99.9815C432.06 99.8111 431.996 99.6408 431.89 99.4704C431.868 99.4491 431.858 99.3852 431.858 99.2787C431.858 99.1083 431.9 98.9805 431.985 98.8954C431.879 98.5333 431.73 98.1819 431.538 97.8411C431.368 97.5004 431.261 97.1277 431.219 96.723C430.984 96.5952 430.803 96.3929 430.676 96.116C430.569 95.8179 430.516 95.5516 430.516 95.3174C430.516 95.0405 430.59 94.7743 430.739 94.5187C430.889 94.2418 431.123 94.1034 431.442 94.1034C431.57 94.1034 431.687 94.146 431.794 94.2312C431.921 94.2951 432.039 94.3803 432.145 94.4868C432.273 94.572 432.39 94.6571 432.497 94.7423C432.624 94.8062 432.752 94.8382 432.88 94.8382C432.965 94.8382 433.093 94.8169 433.263 94.7743C433.497 95.0937 433.732 95.3919 433.966 95.6688C434.222 95.9243 434.477 96.1906 434.733 96.4674C434.733 96.8295 434.797 97.1596 434.924 97.4578C435.052 97.7559 435.191 98.0434 435.34 98.3203C435.489 98.5759 435.617 98.8315 435.723 99.087C435.851 99.3426 435.904 99.6195 435.883 99.9176C435.925 100.067 436.011 100.173 436.138 100.237C436.266 100.301 436.383 100.386 436.49 100.493ZM473.643 111.291C473.643 111.631 473.579 111.983 473.452 112.345C473.345 112.707 473.207 113.037 473.036 113.335C472.759 113.378 472.504 113.474 472.27 113.623C472.057 113.772 471.886 113.868 471.758 113.91C471.482 113.953 471.152 113.974 470.768 113.974C470.406 113.953 470.076 113.953 469.778 113.974C469.203 114.017 468.628 114.08 468.053 114.166C467.499 114.251 466.945 114.357 466.392 114.485C466.349 114.485 466.306 114.496 466.264 114.517C466.221 114.517 466.2 114.538 466.2 114.581C466.2 114.624 466.21 114.666 466.232 114.709C466.253 114.751 466.264 114.794 466.264 114.837C466.264 114.9 466.2 114.932 466.072 114.932C465.838 114.932 465.678 114.858 465.593 114.709C464.911 114.879 464.23 115.06 463.548 115.252C462.867 115.422 462.185 115.593 461.504 115.763C461.163 115.827 460.822 115.891 460.481 115.955C460.162 116.019 459.832 116.104 459.491 116.21C459.321 116.253 459.15 116.327 458.98 116.434L458.469 116.753C458.362 116.732 458.267 116.721 458.181 116.721C458.096 116.7 458.011 116.689 457.926 116.689C457.564 116.689 457.18 116.764 456.776 116.913C456.371 117.041 456.02 117.222 455.721 117.456H455.498C455.285 117.456 455.136 117.424 455.051 117.36C454.859 117.339 454.742 117.403 454.699 117.552C454.657 117.68 454.582 117.797 454.476 117.903C453.751 117.967 453.038 118.095 452.335 118.287C451.632 118.478 450.94 118.691 450.259 118.926C449.577 119.139 448.885 119.362 448.182 119.597C447.501 119.81 446.808 119.98 446.106 120.108C446.02 120.534 445.978 121.023 445.978 121.577C445.978 122.003 446.01 122.493 446.074 123.047C446.159 123.6 446.329 124.069 446.585 124.452V124.516C446.585 124.623 446.542 124.697 446.457 124.74C446.372 124.782 446.329 124.857 446.329 124.964C446.329 125.517 446.383 126.039 446.489 126.529C446.617 127.019 446.745 127.498 446.872 127.966C447 128.435 447.117 128.904 447.224 129.372C447.352 129.841 447.415 130.32 447.415 130.81C447.415 130.937 447.405 131.055 447.383 131.161C447.383 131.289 447.373 131.417 447.352 131.544C447.415 131.736 447.522 131.896 447.671 132.024C447.82 132.151 447.948 132.301 448.054 132.471C448.076 132.577 448.086 132.673 448.086 132.758V133.078C448.086 133.44 448.044 133.759 447.959 134.036C447.873 134.313 447.767 134.569 447.639 134.803C447.511 135.059 447.373 135.303 447.224 135.538C447.075 135.793 446.936 136.07 446.808 136.368C446.595 136.411 446.425 136.432 446.297 136.432C445.978 136.432 445.712 136.347 445.499 136.177C445.307 136.006 445.137 135.793 444.988 135.538C444.838 135.303 444.689 135.059 444.54 134.803C444.412 134.547 444.253 134.334 444.061 134.164C444.082 134.058 444.093 133.962 444.093 133.877C444.114 133.791 444.125 133.695 444.125 133.589C444.125 133.163 444.05 132.748 443.901 132.343C443.774 131.938 443.624 131.555 443.454 131.193C443.433 130.469 443.358 129.755 443.23 129.053C443.103 128.35 442.922 127.658 442.687 126.976C442.73 126.721 442.762 126.476 442.783 126.241C442.805 125.986 442.815 125.741 442.815 125.507C442.815 124.889 442.783 124.271 442.719 123.654C442.655 123.036 442.645 122.418 442.687 121.801C442.623 121.694 442.56 121.609 442.496 121.545C442.432 121.46 442.379 121.364 442.336 121.258H442.208C441.889 121.258 441.58 121.29 441.282 121.354C440.984 121.396 440.685 121.417 440.387 121.417C440.281 121.417 440.185 121.417 440.1 121.417C440.015 121.396 439.919 121.375 439.812 121.354C439.578 121.119 439.397 120.853 439.269 120.555C439.141 120.257 439.077 119.948 439.077 119.628C439.077 119.16 439.205 118.734 439.461 118.351C439.993 118.223 440.515 118.074 441.026 117.903C441.559 117.712 442.07 117.488 442.56 117.233C442.623 116.913 442.655 116.594 442.655 116.274C442.677 115.955 442.794 115.656 443.007 115.38C442.943 115.209 442.836 115.06 442.687 114.932C442.56 114.783 442.496 114.613 442.496 114.421C442.496 114.315 442.517 114.176 442.56 114.006C442.773 113.772 442.922 113.474 443.007 113.111C443.092 112.749 443.167 112.366 443.23 111.961C443.294 111.557 443.358 111.152 443.422 110.747C443.507 110.343 443.646 109.981 443.837 109.661C443.795 109.491 443.763 109.31 443.742 109.118C443.72 108.905 443.71 108.714 443.71 108.543C443.71 108.288 443.72 108.032 443.742 107.776C443.784 107.5 443.848 107.244 443.933 107.01C443.699 106.733 443.507 106.413 443.358 106.051C443.209 105.668 443.135 105.295 443.135 104.933C443.135 104.23 443.475 103.783 444.157 103.591C444.136 103.506 444.114 103.432 444.093 103.368C444.093 103.304 444.093 103.24 444.093 103.176C444.093 102.984 444.146 102.803 444.253 102.633C444.359 102.463 444.444 102.292 444.508 102.122C444.402 101.845 444.349 101.611 444.349 101.419C444.349 101.249 444.381 101.1 444.444 100.972C444.508 100.823 444.562 100.663 444.604 100.493C444.668 100.28 444.711 100.088 444.732 99.9176C444.775 99.7473 444.838 99.5982 444.924 99.4704C445.009 99.3426 445.115 99.2468 445.243 99.1829C445.392 99.119 445.616 99.087 445.914 99.087C446.383 99.087 446.83 99.2361 447.256 99.5343C447.703 99.8111 448.044 100.131 448.278 100.493C448.512 100.471 448.715 100.429 448.885 100.365C449.077 100.28 449.247 100.205 449.396 100.141C449.566 100.077 449.737 100.024 449.907 99.9815C450.099 99.9176 450.323 99.8963 450.578 99.9176C450.642 99.7685 450.748 99.6727 450.898 99.6301C451.068 99.5662 451.238 99.5236 451.409 99.5023C451.579 99.4597 451.739 99.4065 451.888 99.3426C452.037 99.2787 452.133 99.1616 452.175 98.9912C452.261 99.0551 452.356 99.087 452.463 99.087C452.569 99.087 452.676 99.0764 452.782 99.0551C452.889 99.0125 453.006 98.9912 453.134 98.9912C453.262 98.9912 453.368 99.0338 453.453 99.119C454.007 98.8208 454.593 98.6078 455.21 98.48C455.849 98.331 456.478 98.2458 457.095 98.2245C458.565 97.4152 460.109 96.8614 461.727 96.5633C463.367 96.2651 465.007 96.116 466.647 96.116C466.881 96.116 467.105 96.116 467.318 96.116C467.552 96.0947 467.776 96.1054 467.989 96.148C468.223 96.1906 468.479 96.2651 468.756 96.3716C469.054 96.4781 469.341 96.6059 469.618 96.7549C469.916 96.904 470.193 97.0744 470.449 97.2661C470.704 97.4365 470.917 97.5962 471.088 97.7453C471.258 98.1286 471.343 98.5013 471.343 98.8634C471.343 99.0338 471.333 99.2042 471.311 99.3745C471.29 99.5236 471.279 99.6834 471.279 99.8537C471.279 100.109 471.333 100.397 471.439 100.716C471.375 100.695 471.269 100.684 471.12 100.684C470.928 100.684 470.768 100.727 470.64 100.812C470.513 100.897 470.395 100.993 470.289 101.1C470.182 101.206 470.076 101.302 469.97 101.387C469.884 101.472 469.799 101.515 469.714 101.515C469.544 101.515 469.394 101.483 469.267 101.419C469.16 101.355 469.043 101.291 468.915 101.227C468.809 101.142 468.692 101.078 468.564 101.036C468.436 100.972 468.287 100.951 468.117 100.972V100.844C468.117 100.61 468.042 100.461 467.893 100.397C467.744 100.312 467.627 100.194 467.542 100.045C467.222 100.024 466.903 99.9815 466.583 99.9176C466.285 99.8537 465.976 99.8218 465.657 99.8218C465.231 99.8218 464.901 99.9709 464.666 100.269C464.56 100.226 464.464 100.173 464.379 100.109C464.315 100.045 464.219 100.024 464.091 100.045H463.996C462.845 100.045 461.717 100.173 460.609 100.429C459.502 100.663 458.405 100.961 457.319 101.323C456.233 101.664 455.146 102.037 454.06 102.441C452.974 102.846 451.888 103.197 450.802 103.496C450.546 103.836 450.28 104.092 450.003 104.262C449.726 104.411 449.449 104.539 449.172 104.646C448.917 104.752 448.661 104.859 448.406 104.965C448.15 105.072 447.927 105.242 447.735 105.476C447.565 105.711 447.426 106.041 447.32 106.467C447.234 106.871 447.213 107.436 447.256 108.16C447.149 108.288 447.085 108.426 447.064 108.575C447.043 108.724 447.021 108.873 447 109.022C446.979 109.15 446.947 109.278 446.904 109.406C446.862 109.533 446.787 109.651 446.681 109.757C446.723 109.97 446.755 110.183 446.777 110.396C446.798 110.609 446.808 110.822 446.808 111.035C446.808 111.929 446.659 112.803 446.361 113.655C446.468 113.825 446.521 114.017 446.521 114.23C446.521 114.464 446.489 114.677 446.425 114.868C446.361 115.06 446.329 115.273 446.329 115.507C446.329 115.742 446.372 115.933 446.457 116.082C446.585 116.082 446.659 116.125 446.681 116.21H446.872C447.256 116.21 447.586 116.114 447.863 115.923C448.14 115.731 448.438 115.635 448.757 115.635C448.821 115.635 448.896 115.656 448.981 115.699C449.066 115.742 449.141 115.763 449.204 115.763C449.354 115.763 449.417 115.71 449.396 115.603C449.375 115.497 449.428 115.422 449.556 115.38L450.706 115.188C451.43 115.06 452.112 114.911 452.75 114.741C453.411 114.549 454.06 114.272 454.699 113.91C454.848 113.974 455.019 114.006 455.21 114.006C455.381 114.006 455.562 113.985 455.753 113.942C455.945 113.878 456.126 113.846 456.297 113.846C456.446 113.846 456.563 113.868 456.648 113.91C456.776 113.825 456.935 113.761 457.127 113.718C457.319 113.655 457.425 113.527 457.447 113.335H457.51C457.596 113.335 457.66 113.356 457.702 113.399C457.745 113.442 457.809 113.463 457.894 113.463H458.022C458.469 113.25 458.874 113.09 459.236 112.984C459.832 112.835 460.471 112.707 461.152 112.6C461.834 112.473 462.441 112.26 462.973 111.961C463.591 111.961 464.187 111.866 464.762 111.674C465.359 111.461 465.955 111.354 466.551 111.354C466.828 111.354 467.084 111.397 467.318 111.482C467.531 111.333 467.776 111.227 468.053 111.163C468.351 111.099 468.596 110.982 468.787 110.811C468.915 110.833 469.043 110.854 469.171 110.875C469.32 110.875 469.469 110.875 469.618 110.875C470.257 110.875 470.864 110.79 471.439 110.62C472.035 110.428 472.642 110.29 473.26 110.204C473.409 110.375 473.505 110.556 473.547 110.747C473.611 110.918 473.643 111.099 473.643 111.291ZM501.149 112.185C501.149 113.399 501.064 114.581 500.893 115.731C500.744 116.86 500.521 118.01 500.223 119.181C499.946 119.394 499.775 119.66 499.711 119.98C499.648 120.299 499.541 120.598 499.392 120.874C499.264 121.109 499.094 121.364 498.881 121.641C498.668 121.897 498.434 122.174 498.178 122.472C497.922 122.749 497.667 123.036 497.411 123.334C497.156 123.632 496.943 123.931 496.772 124.229C496.133 124.442 495.676 124.9 495.399 125.602C495.058 125.73 494.707 125.879 494.344 126.05C493.982 126.199 493.727 126.465 493.578 126.848C492.79 127.253 492.044 127.722 491.342 128.254C490.66 128.765 489.915 129.212 489.105 129.596C488.999 129.702 488.871 129.787 488.722 129.851C488.594 129.894 488.456 129.947 488.307 130.011C488.179 130.075 488.051 130.149 487.923 130.235C487.817 130.341 487.753 130.469 487.732 130.618C487.646 130.618 487.583 130.597 487.54 130.554C487.519 130.533 487.455 130.512 487.348 130.49C487.114 130.618 487.007 130.82 487.029 131.097C486.944 131.055 486.826 131.033 486.677 131.033C486.422 131.033 486.166 131.108 485.911 131.257C485.676 131.427 485.474 131.598 485.304 131.768C485.048 131.896 484.75 132.024 484.409 132.151C484.09 132.279 483.855 132.492 483.706 132.79C483.621 132.705 483.493 132.663 483.323 132.663C483.131 132.663 482.929 132.716 482.716 132.822C482.503 132.95 482.343 133.089 482.237 133.238C481.939 133.238 481.651 133.28 481.374 133.365C481.119 133.472 480.853 133.568 480.576 133.653C480.299 133.759 480.022 133.855 479.745 133.94C479.489 134.026 479.213 134.068 478.914 134.068C478.744 134.068 478.616 134.026 478.531 133.94C478.446 133.855 478.339 133.781 478.212 133.717C478.105 133.802 477.913 133.898 477.637 134.004C477.381 134.111 477.189 134.164 477.062 134.164C476.827 134.164 476.593 134.132 476.359 134.068C476.146 134.004 475.922 133.93 475.688 133.845L475.017 133.621C474.804 133.557 474.57 133.514 474.314 133.493C474.123 133.323 473.888 133.142 473.611 132.95C473.356 132.78 473.1 132.726 472.845 132.79C472.738 132.471 472.578 132.194 472.365 131.96C472.152 131.725 471.908 131.512 471.631 131.321C471.567 131.278 471.492 131.236 471.407 131.193C471.343 131.172 471.29 131.14 471.247 131.097C471.141 131.033 471.045 130.906 470.96 130.714C470.875 130.522 470.779 130.426 470.672 130.426C470.651 130.426 470.619 130.437 470.576 130.458C470.555 130.48 470.534 130.49 470.513 130.49C470.47 130.299 470.406 130.118 470.321 129.947C470.236 129.755 470.087 129.638 469.874 129.596C469.703 129.042 469.586 128.488 469.522 127.935C469.458 127.381 469.373 126.827 469.267 126.273C469.224 126.103 469.171 125.901 469.107 125.666C469.064 125.411 469.043 125.187 469.043 124.995C469.043 124.676 469.086 124.293 469.171 123.845C469.277 123.398 469.363 123.004 469.426 122.663C469.682 121.428 470.023 120.235 470.449 119.085C470.875 117.914 471.333 116.753 471.822 115.603C472.334 114.453 472.855 113.314 473.388 112.185C473.92 111.056 474.421 109.906 474.889 108.735C474.974 108.735 475.028 108.714 475.049 108.671L475.145 108.511C475.187 108.447 475.219 108.394 475.241 108.351C475.283 108.309 475.358 108.288 475.464 108.288V108.192C475.443 108.064 475.464 107.957 475.528 107.872C475.613 107.787 475.635 107.649 475.592 107.457C475.933 107.074 476.22 106.648 476.455 106.179C476.689 105.689 476.923 105.21 477.157 104.742C477.413 104.273 477.679 103.815 477.956 103.368C478.233 102.921 478.584 102.537 479.01 102.218V101.994C478.989 101.888 478.989 101.781 479.01 101.675C479.053 101.547 479.127 101.462 479.234 101.419C479.617 101.036 479.937 100.652 480.192 100.269C480.448 99.8857 480.703 99.513 480.959 99.1509C481.236 98.7676 481.534 98.4162 481.853 98.0967C482.194 97.7559 482.62 97.4471 483.131 97.1703C483.366 97.0638 483.536 96.904 483.642 96.6911C483.749 96.4781 483.887 96.329 484.058 96.2438C484.143 96.2012 484.228 96.1799 484.313 96.1799C484.42 96.1586 484.516 96.1267 484.601 96.0841C484.963 95.9776 485.325 95.8498 485.687 95.7007C486.049 95.5303 486.432 95.4452 486.837 95.4452C487.348 95.4452 487.732 95.5942 487.987 95.8924C488.264 96.1693 488.477 96.51 488.626 96.9147C488.796 97.3193 488.935 97.7453 489.041 98.1925C489.148 98.6398 489.318 99.0231 489.553 99.3426C490.191 99.3852 490.841 99.4597 491.501 99.5662C492.161 99.6514 492.737 99.9176 493.226 100.365C493.269 100.386 493.322 100.397 493.386 100.397C493.493 100.397 493.546 100.354 493.546 100.269C493.546 100.184 493.599 100.141 493.706 100.141H493.801C494.44 100.525 495.047 100.951 495.622 101.419C496.219 101.866 496.804 102.335 497.379 102.825C497.486 102.91 497.592 102.995 497.699 103.08C497.827 103.144 497.933 103.229 498.018 103.336C498.125 103.464 498.221 103.613 498.306 103.783C498.412 103.954 498.508 104.103 498.593 104.23C499.658 106.083 500.372 108.075 500.734 110.204C500.776 110.439 500.808 110.662 500.83 110.875C500.872 111.088 500.893 111.291 500.893 111.482C500.893 111.674 500.936 111.802 501.021 111.866C501.106 111.908 501.149 112.015 501.149 112.185ZM498.689 113.814C498.689 112.962 498.583 112.142 498.37 111.354C498.476 111.312 498.54 111.248 498.561 111.163C498.604 111.056 498.625 110.95 498.625 110.843V110.684L498.242 109.981C498.221 109.683 498.157 109.406 498.05 109.15C497.965 108.895 497.859 108.639 497.731 108.383C497.603 108.128 497.475 107.872 497.347 107.617C497.241 107.361 497.166 107.084 497.124 106.786C496.783 106.531 496.474 106.243 496.197 105.924C495.942 105.583 495.708 105.231 495.495 104.869C495.345 104.805 495.207 104.763 495.079 104.742C494.951 104.72 494.909 104.603 494.951 104.39C494.568 104.284 494.217 104.135 493.897 103.943C493.599 103.73 493.301 103.496 493.003 103.24C492.513 103.134 492.023 103.006 491.533 102.857C491.065 102.686 490.585 102.601 490.096 102.601C489.755 102.601 489.425 102.665 489.105 102.793C489.212 102.963 489.265 103.155 489.265 103.368C489.265 103.56 489.286 103.751 489.329 103.943C490.01 104.113 490.426 104.529 490.575 105.189C490.468 105.253 490.373 105.338 490.287 105.444C490.202 105.53 490.117 105.615 490.032 105.7C489.968 105.764 489.883 105.828 489.776 105.892C489.67 105.955 489.542 105.987 489.393 105.987C489.095 105.987 488.86 105.934 488.69 105.828C488.541 105.721 488.296 105.7 487.955 105.764C487.593 105.444 487.242 105.114 486.901 104.773C486.56 104.411 486.177 104.092 485.751 103.815C485.687 103.602 485.581 103.41 485.431 103.24C485.304 103.07 485.165 102.91 485.016 102.761C484.888 102.59 484.761 102.42 484.633 102.25C484.526 102.058 484.473 101.845 484.473 101.611C484.473 101.462 484.484 101.355 484.505 101.291C484.377 101.249 484.281 101.227 484.218 101.227C484.047 101.227 483.887 101.291 483.738 101.419C483.589 101.526 483.419 101.6 483.227 101.643C483.057 102.154 482.812 102.601 482.492 102.984C482.173 103.368 481.843 103.741 481.502 104.103C481.161 104.465 480.842 104.848 480.544 105.253C480.267 105.636 480.065 106.115 479.937 106.69C479.255 107.542 478.627 108.511 478.052 109.597C477.477 110.662 477.04 111.706 476.742 112.728C476.252 113.282 475.869 113.868 475.592 114.485C475.315 115.103 475.155 115.784 475.113 116.53C475.006 116.594 474.921 116.679 474.857 116.785L474.538 117.424C474.495 117.531 474.421 117.616 474.314 117.68V117.839C474.314 118.01 474.282 118.17 474.218 118.319C474.154 118.446 474.08 118.574 473.995 118.702C473.931 118.83 473.867 118.958 473.803 119.085C473.739 119.192 473.707 119.32 473.707 119.469C473.707 119.639 473.75 119.81 473.835 119.98C473.601 120.022 473.441 120.15 473.356 120.363C473.292 120.555 473.196 120.725 473.068 120.874C472.983 121.556 472.898 122.248 472.813 122.951C472.728 123.654 472.685 124.346 472.685 125.027C472.685 125.815 472.77 126.614 472.94 127.423C473.132 127.615 473.303 127.828 473.452 128.062C473.601 128.297 473.75 128.52 473.899 128.733C474.069 128.946 474.25 129.138 474.442 129.308C474.634 129.457 474.889 129.553 475.209 129.596C475.209 129.745 475.241 129.851 475.305 129.915C475.368 129.979 475.422 130.064 475.464 130.171C475.911 130.32 476.38 130.437 476.87 130.522C477.36 130.629 477.85 130.682 478.339 130.682C478.68 130.682 479.021 130.639 479.362 130.554C479.724 130.469 480.022 130.299 480.256 130.043C481.342 130 482.418 129.745 483.483 129.276C484.569 128.808 485.559 128.297 486.454 127.743H487.125C487.359 127.423 487.646 127.168 487.987 126.976C488.328 126.763 488.679 126.571 489.041 126.401C489.105 126.358 489.19 126.316 489.297 126.273C489.403 126.231 489.489 126.188 489.553 126.146C489.787 125.975 490.021 125.783 490.255 125.57C490.511 125.358 490.767 125.155 491.022 124.964C491.448 124.644 491.885 124.335 492.332 124.037C492.779 123.739 493.205 123.419 493.61 123.079C494.036 122.738 494.43 122.376 494.792 121.993C495.175 121.588 495.495 121.141 495.75 120.651C495.878 120.651 495.974 120.619 496.038 120.555C496.123 120.47 496.187 120.385 496.229 120.299C496.293 120.214 496.357 120.14 496.421 120.076C496.506 120.012 496.623 119.98 496.772 119.98C496.772 119.788 496.804 119.628 496.868 119.501C496.953 119.352 497.039 119.224 497.124 119.117C497.23 118.99 497.326 118.872 497.411 118.766C497.518 118.659 497.614 118.521 497.699 118.351V117.456C498.04 116.902 498.285 116.317 498.434 115.699C498.604 115.081 498.689 114.453 498.689 113.814Z" fill="#202020"/>
</g>
</g>
<path d="M710.829 41.3633H88.1771C81.9254 41.3633 75.9282 43.84 71.4982 48.2514L52.7551 66.9162C48.3008 71.3518 45.7969 77.379 45.7969 83.6651V332.396C45.7969 345.45 56.3796 356.033 69.434 356.033H729.573C742.627 356.033 753.21 345.45 753.21 332.396V83.6651C753.21 77.379 750.706 71.3518 746.251 66.9162L727.508 48.2514C723.078 43.84 717.081 41.3633 710.829 41.3633Z" stroke="#202020" stroke-width="2.21598"/>
<g clip-path="url(#clip7_18_2035)">
<path d="M229.723 157.706H568.029C603.317 157.706 631.924 186.312 631.924 221.6V223.077C631.924 258.365 603.317 286.972 568.029 286.972H229.723C194.435 286.972 165.829 258.365 165.829 223.077V221.6C165.829 186.312 194.435 157.706 229.723 157.706Z" stroke="#202020" stroke-width="2.21598"/>
<path d="M559.595 179.016C583.664 179.016 603.176 198.528 603.176 222.597C603.176 246.666 583.664 266.178 559.595 266.178C535.526 266.178 516.014 246.666 516.014 222.597C516.014 198.528 535.526 179.016 559.595 179.016ZM559.344 190.096C554.878 190.096 550.622 190.996 546.749 192.626L550.666 199.41L543.62 203.479L539.706 196.698C532.91 201.859 528.208 209.632 527.096 218.522H534.934V226.659H527.095C528.203 235.547 532.901 243.318 539.69 248.481L543.607 241.698L550.654 245.767L546.731 252.56C550.609 254.194 554.871 255.098 559.344 255.098C563.81 255.098 568.065 254.196 571.938 252.566L568.022 245.784L575.068 241.716L578.981 248.493C585.779 243.33 590.483 235.553 591.592 226.659H583.754V218.522H591.591C590.48 209.637 585.781 201.869 578.991 196.708L575.08 203.484L568.033 199.416L571.949 192.631C568.073 190.998 563.814 190.096 559.344 190.096Z" fill="#202020"/>
<path d="M237.849 179.016C261.918 179.016 281.43 198.528 281.43 222.597C281.43 246.666 261.918 266.178 237.849 266.178C213.78 266.178 194.268 246.666 194.268 222.597C194.268 198.528 213.78 179.016 237.849 179.016ZM237.598 190.096C233.132 190.096 228.876 190.996 225.003 192.626L228.92 199.41L221.874 203.479L217.96 196.698C211.164 201.859 206.461 209.632 205.35 218.522H213.188V226.659H205.349C206.457 235.547 211.155 243.318 217.944 248.481L221.861 241.698L228.908 245.767L224.985 252.56C228.863 254.194 233.125 255.098 237.598 255.098C242.064 255.098 246.319 254.196 250.192 252.566L246.276 245.784L253.322 241.716L257.235 248.493C264.033 243.33 268.737 235.553 269.846 226.659H262.008V218.522H269.845C268.733 209.637 264.035 201.869 257.245 196.708L253.334 203.484L246.287 199.416L250.203 192.631C246.327 190.998 242.068 190.096 237.598 190.096Z" fill="#202020"/>
</g>
<defs>
<clipPath id="clip0_18_2035">
<rect width="26.5918" height="26.5918" fill="white" transform="translate(385.467 386.871)"/>
</clipPath>
<clipPath id="clip1_18_2035">
<rect width="26.5918" height="26.5918" fill="white" transform="translate(19.9434 19.9453)"/>
</clipPath>
<clipPath id="clip2_18_2035">
<rect width="26.5918" height="26.5918" fill="white" transform="translate(19.9434 442.27)"/>
</clipPath>
<clipPath id="clip3_18_2035">
<rect width="26.5918" height="26.5918" fill="white" transform="translate(750.992 19.9453)"/>
</clipPath>
<clipPath id="clip4_18_2035">
<rect width="26.5918" height="26.5918" fill="white" transform="translate(750.992 442.27)"/>
</clipPath>
<clipPath id="clip5_18_2035">
<rect width="707.637" height="314.669" fill="white" transform="translate(45.7969 41.3633)"/>
</clipPath>
<clipPath id="clip6_18_2035">
<rect width="708" height="199.769" fill="white" transform="matrix(1 0 0 -1 46.166 356.734)"/>
</clipPath>
<clipPath id="clip7_18_2035">
<rect x="164.721" y="156.598" width="468.311" height="131.482" rx="65.0021" fill="white"/>
</clipPath>
</defs>
</svg>
