<svg width="798" height="489" viewBox="0 0 798 489" fill="none" xmlns="http://www.w3.org/2000/svg">
<g opacity="0.8">
<mask id="path-1-outside-1_18_2225" maskUnits="userSpaceOnUse" x="-0.783203" y="-0.785156" width="799" height="490" fill="black">
<rect fill="white" x="-0.783203" y="-0.785156" width="799" height="490"/>
<path d="M763.038 2.21484C780.988 2.21507 795.539 16.7662 795.539 34.7158V454.275C795.539 472.225 780.987 486.776 763.037 486.776H34.7178C16.7681 486.776 2.21688 472.225 2.2168 454.275V34.7158C2.21691 16.7662 16.7682 2.21507 34.7178 2.21484H763.038ZM210.521 433.363C199.098 433.363 189.838 442.623 189.838 454.046C189.838 465.468 199.098 474.728 210.521 474.728C221.943 474.727 231.202 465.468 231.202 454.046C231.202 442.623 221.943 433.364 210.521 433.363ZM587.752 433.363C576.329 433.363 567.069 442.623 567.069 454.046C567.07 465.468 576.329 474.728 587.752 474.728C599.174 474.727 608.433 465.468 608.434 454.046C608.434 442.623 599.174 433.364 587.752 433.363ZM276.999 433.363C274.552 433.364 272.567 435.347 272.567 437.795V457C272.567 459.448 274.552 461.431 276.999 461.432H296.205C298.653 461.431 300.637 459.448 300.637 457V437.795C300.637 435.347 298.653 433.363 296.205 433.363H276.999ZM502.067 433.363C499.62 433.363 497.635 435.347 497.635 437.795V457C497.635 459.448 499.62 461.432 502.067 461.432H521.272C523.72 461.431 525.704 459.448 525.704 457V437.795C525.704 435.347 523.72 433.363 521.272 433.363H502.067ZM237.851 178.755C213.781 178.755 194.27 198.267 194.27 222.336C194.27 246.405 213.781 265.917 237.851 265.917C261.92 265.917 281.432 246.405 281.432 222.336C281.432 198.267 261.92 178.755 237.851 178.755ZM559.906 178.755C535.837 178.755 516.325 198.267 516.325 222.336C516.325 246.405 535.837 265.917 559.906 265.917C583.975 265.917 603.487 246.405 603.487 222.336C603.487 198.267 583.975 178.755 559.906 178.755Z"/>
</mask>
<path d="M763.038 2.21484C780.988 2.21507 795.539 16.7662 795.539 34.7158V454.275C795.539 472.225 780.987 486.776 763.037 486.776H34.7178C16.7681 486.776 2.21688 472.225 2.2168 454.275V34.7158C2.21691 16.7662 16.7682 2.21507 34.7178 2.21484H763.038ZM210.521 433.363C199.098 433.363 189.838 442.623 189.838 454.046C189.838 465.468 199.098 474.728 210.521 474.728C221.943 474.727 231.202 465.468 231.202 454.046C231.202 442.623 221.943 433.364 210.521 433.363ZM587.752 433.363C576.329 433.363 567.069 442.623 567.069 454.046C567.07 465.468 576.329 474.728 587.752 474.728C599.174 474.727 608.433 465.468 608.434 454.046C608.434 442.623 599.174 433.364 587.752 433.363ZM276.999 433.363C274.552 433.364 272.567 435.347 272.567 437.795V457C272.567 459.448 274.552 461.431 276.999 461.432H296.205C298.653 461.431 300.637 459.448 300.637 457V437.795C300.637 435.347 298.653 433.363 296.205 433.363H276.999ZM502.067 433.363C499.62 433.363 497.635 435.347 497.635 437.795V457C497.635 459.448 499.62 461.432 502.067 461.432H521.272C523.72 461.431 525.704 459.448 525.704 457V437.795C525.704 435.347 523.72 433.363 521.272 433.363H502.067ZM237.851 178.755C213.781 178.755 194.27 198.267 194.27 222.336C194.27 246.405 213.781 265.917 237.851 265.917C261.92 265.917 281.432 246.405 281.432 222.336C281.432 198.267 261.92 178.755 237.851 178.755ZM559.906 178.755C535.837 178.755 516.325 198.267 516.325 222.336C516.325 246.405 535.837 265.917 559.906 265.917C583.975 265.917 603.487 246.405 603.487 222.336C603.487 198.267 583.975 178.755 559.906 178.755Z" fill="#E2E2E2"/>
<path d="M763.038 2.21484L763.038 -0.00113821H763.038V2.21484ZM795.539 34.7158L797.755 34.7158L797.755 34.7158L795.539 34.7158ZM795.539 454.275L797.755 454.275V454.275H795.539ZM34.7178 486.776L34.7178 488.992H34.7178V486.776ZM2.2168 454.275L0.000814915 454.275L0.000814915 454.275L2.2168 454.275ZM2.2168 34.7158L0.000814915 34.7158V34.7158H2.2168ZM34.7178 2.21484L34.7178 -0.00113821L34.7177 -0.00113821L34.7178 2.21484ZM210.521 433.363L210.521 431.147H210.521V433.363ZM189.838 454.046L187.622 454.046L187.622 454.046L189.838 454.046ZM210.521 474.728L210.521 476.944L210.521 476.944L210.521 474.728ZM231.202 454.046L233.418 454.046V454.046H231.202ZM587.752 433.363L587.752 431.147H587.752V433.363ZM567.069 454.046L564.853 454.046L564.853 454.046L567.069 454.046ZM587.752 474.728L587.752 476.944L587.752 476.944L587.752 474.728ZM608.434 454.046L610.65 454.046V454.046H608.434ZM276.999 433.363L276.999 431.147L276.999 431.147L276.999 433.363ZM272.567 437.795L270.351 437.795V437.795H272.567ZM276.999 461.432L276.999 463.648H276.999V461.432ZM296.205 461.432L296.205 463.648L296.205 463.648L296.205 461.432ZM300.637 437.795L302.853 437.795L302.853 437.795L300.637 437.795ZM296.205 433.363L296.205 431.147H296.205V433.363ZM497.635 437.795L495.419 437.795V437.795H497.635ZM521.272 461.432L521.272 463.648L521.273 463.648L521.272 461.432ZM525.704 437.795L527.92 437.795L527.92 437.795L525.704 437.795ZM521.272 433.363L521.273 431.147H521.272V433.363ZM237.851 178.755L237.851 176.539H237.851V178.755ZM194.27 222.336L192.054 222.336L192.054 222.336L194.27 222.336ZM237.851 265.917L237.851 268.133L237.851 268.133L237.851 265.917ZM281.432 222.336L283.648 222.336V222.336H281.432ZM559.906 178.755L559.906 176.539L559.906 176.539L559.906 178.755ZM516.325 222.336L514.109 222.336L514.109 222.336L516.325 222.336ZM559.906 265.917L559.906 268.133H559.906V265.917ZM603.487 222.336L605.703 222.336V222.336H603.487ZM763.038 2.21484L763.038 4.43083C779.764 4.43103 793.323 17.9901 793.323 34.7158L795.539 34.7158L797.755 34.7158C797.755 15.5423 782.212 -0.000901334 763.038 -0.00113821L763.038 2.21484ZM795.539 34.7158H793.323V454.275H795.539H797.755V34.7158H795.539ZM795.539 454.275L793.323 454.275C793.323 471.001 779.763 484.56 763.037 484.56V486.776V488.992C782.211 488.992 797.755 473.449 797.755 454.275L795.539 454.275ZM763.037 486.776V484.56H34.7178V486.776V488.992H763.037V486.776ZM34.7178 486.776L34.7178 484.56C17.992 484.56 4.43285 471.001 4.43278 454.275L2.2168 454.275L0.000814915 454.275C0.00090036 473.449 15.5443 488.992 34.7178 488.992L34.7178 486.776ZM2.2168 454.275H4.43278V34.7158H2.2168H0.000814915V454.275H2.2168ZM2.2168 34.7158L4.43278 34.7158C4.43289 17.9901 17.992 4.43104 34.7178 4.43083L34.7178 2.21484L34.7177 -0.00113821C15.5444 -0.000893123 0.000937524 15.5423 0.000814915 34.7158L2.2168 34.7158ZM34.7178 2.21484V4.43083H763.038V2.21484V-0.00113821H34.7178V2.21484ZM210.521 433.363V431.147C197.874 431.147 187.622 441.399 187.622 454.046H189.838H192.054C192.054 443.847 200.322 435.579 210.521 435.579V433.363ZM189.838 454.046L187.622 454.046C187.622 466.692 197.874 476.944 210.521 476.944V474.728V472.512C200.322 472.512 192.054 464.244 192.054 454.046L189.838 454.046ZM210.521 474.728L210.521 476.944C223.167 476.943 233.418 466.692 233.418 454.046L231.202 454.046L228.986 454.046C228.986 464.244 220.719 472.511 210.52 472.512L210.521 474.728ZM231.202 454.046H233.418C233.418 441.4 223.167 431.148 210.521 431.147L210.521 433.363L210.52 435.579C220.719 435.579 228.986 443.847 228.986 454.046H231.202ZM587.752 433.363V431.147C575.105 431.147 564.853 441.399 564.853 454.046H567.069H569.285C569.285 443.847 577.553 435.579 587.752 435.579V433.363ZM567.069 454.046L564.853 454.046C564.854 466.692 575.106 476.944 587.752 476.944V474.728V472.512C577.553 472.512 569.286 464.244 569.285 454.046L567.069 454.046ZM587.752 474.728L587.752 476.944C600.398 476.943 610.649 466.692 610.65 454.046L608.434 454.046L606.218 454.046C606.217 464.244 597.95 472.511 587.752 472.512L587.752 474.728ZM608.434 454.046H610.65C610.65 441.4 600.398 431.148 587.752 431.147L587.752 433.363L587.752 435.579C597.95 435.579 606.218 443.847 606.218 454.046H608.434ZM276.999 433.363L276.999 431.147C273.328 431.148 270.351 434.123 270.351 437.795L272.567 437.795L274.783 437.795C274.783 436.571 275.775 435.579 276.999 435.579L276.999 433.363ZM272.567 437.795H270.351V457H272.567H274.783V437.795H272.567ZM272.567 457H270.351C270.351 460.672 273.328 463.647 276.999 463.648L276.999 461.432L276.999 459.216C275.775 459.216 274.783 458.223 274.783 457H272.567ZM276.999 461.432V463.648H296.205V461.432V459.216H276.999V461.432ZM296.205 461.432L296.205 463.648C299.876 463.647 302.853 460.672 302.853 457H300.637H298.421C298.421 458.224 297.429 459.216 296.205 459.216L296.205 461.432ZM300.637 457H302.853V437.795H300.637H298.421V457H300.637ZM300.637 437.795L302.853 437.795C302.853 434.123 299.876 431.148 296.205 431.147L296.205 433.363L296.205 435.579C297.429 435.579 298.421 436.571 298.421 437.795L300.637 437.795ZM296.205 433.363V431.147H276.999V433.363V435.579H296.205V433.363ZM502.067 433.363V431.147C498.396 431.147 495.419 434.123 495.419 437.795L497.635 437.795L499.851 437.795C499.851 436.572 500.843 435.579 502.067 435.579V433.363ZM497.635 437.795H495.419V457H497.635H499.851V437.795H497.635ZM497.635 457H495.419C495.419 460.672 498.396 463.648 502.067 463.648V461.432V459.216C500.843 459.216 499.851 458.223 499.851 457H497.635ZM502.067 461.432V463.648H521.272V461.432V459.216H502.067V461.432ZM521.272 461.432L521.273 463.648C524.944 463.647 527.92 460.672 527.92 457H525.704H523.488C523.488 458.224 522.496 459.216 521.272 459.216L521.272 461.432ZM525.704 457H527.92V437.795H525.704H523.488V457H525.704ZM525.704 437.795L527.92 437.795C527.92 434.123 524.944 431.148 521.273 431.147L521.272 433.363L521.272 435.579C522.496 435.579 523.488 436.571 523.488 437.795L525.704 437.795ZM521.272 433.363V431.147H502.067V433.363V435.579H521.272V433.363ZM237.851 178.755V176.539C212.558 176.539 192.054 197.043 192.054 222.336H194.27H196.486C196.486 199.491 215.005 180.971 237.851 180.971V178.755ZM194.27 222.336L192.054 222.336C192.054 247.629 212.558 268.133 237.851 268.133V265.917V263.701C215.005 263.701 196.486 245.181 196.486 222.336L194.27 222.336ZM237.851 265.917L237.851 268.133C263.143 268.133 283.648 247.629 283.648 222.336L281.432 222.336L279.216 222.336C279.216 245.181 260.696 263.701 237.851 263.701L237.851 265.917ZM281.432 222.336H283.648C283.648 197.043 263.143 176.539 237.851 176.539L237.851 178.755L237.851 180.971C260.696 180.971 279.216 199.491 279.216 222.336H281.432ZM559.906 178.755L559.906 176.539C534.613 176.539 514.109 197.043 514.109 222.336H516.325H518.541C518.541 199.491 537.061 180.971 559.906 180.971L559.906 178.755ZM516.325 222.336L514.109 222.336C514.109 247.629 534.613 268.133 559.906 268.133L559.906 265.917L559.906 263.701C537.061 263.701 518.541 245.181 518.541 222.336L516.325 222.336ZM559.906 265.917V268.133C585.199 268.133 605.703 247.629 605.703 222.336L603.487 222.336L601.271 222.336C601.271 245.181 582.751 263.701 559.906 263.701V265.917ZM603.487 222.336H605.703C605.703 197.043 585.199 176.539 559.906 176.539V178.755V180.971C582.752 180.971 601.271 199.491 601.271 222.336H603.487Z" fill="#202020" mask="url(#path-1-outside-1_18_2225)"/>
</g>
<path d="M237.109 88.6406C310.948 88.6407 370.806 148.499 370.807 222.338C370.807 296.177 310.948 356.036 237.109 356.036C163.27 356.036 103.412 296.177 103.412 222.338C103.412 148.499 163.27 88.6406 237.109 88.6406ZM237.848 176.541C212.555 176.541 192.051 197.045 192.051 222.338C192.051 247.631 212.555 268.135 237.848 268.135C263.141 268.135 283.645 247.631 283.645 222.338C283.644 197.045 263.141 176.541 237.848 176.541Z" fill="#202020"/>
<path d="M559.166 166.938C589.762 166.938 614.565 191.741 614.565 222.337C614.565 252.933 589.762 277.736 559.166 277.736C528.57 277.736 503.766 252.933 503.766 222.337C503.766 191.741 528.57 166.938 559.166 166.938ZM559.904 176.54C534.611 176.54 514.108 197.044 514.107 222.337C514.107 247.63 534.611 268.134 559.904 268.134C585.197 268.134 605.701 247.63 605.701 222.337C605.701 197.044 585.197 176.54 559.904 176.54Z" fill="#202020"/>
<path d="M93.4393 201.658C85.7284 262.786 55.7217 408.38 63.5234 455.388M86.4221 474.593C137.759 475.331 705.789 474.593 711.329 474.593M604.592 191.316C630.745 230.072 714.893 385.047 733.821 445.416" stroke="#202020" stroke-width="0.738661"/>
<path d="M86.1982 427.496C99.2525 427.496 109.835 438.079 109.835 451.133C109.835 464.187 99.2526 474.77 86.1982 474.771C73.1438 474.771 62.5605 464.187 62.5605 451.133C62.5608 438.079 73.1439 427.496 86.1982 427.496ZM86.1982 441.185C80.7017 441.185 76.2452 445.64 76.2451 451.137C76.2451 456.633 80.7016 461.089 86.1982 461.089C91.6947 461.089 96.1504 456.633 96.1504 451.137C96.1503 445.64 91.6947 441.185 86.1982 441.185Z" fill="#202020"/>
<path d="M711.105 427.496C724.16 427.496 734.743 438.079 734.743 451.134C734.743 464.188 724.16 474.771 711.105 474.771C698.051 474.77 687.469 464.188 687.469 451.134C687.469 438.079 698.051 427.496 711.105 427.496ZM711.105 441.185C705.609 441.185 701.153 445.64 701.153 451.137C701.153 456.633 705.609 461.089 711.105 461.089C716.602 461.089 721.059 456.633 721.059 451.137C721.059 445.64 716.602 441.185 711.105 441.185Z" fill="#202020"/>
<path d="M179.775 378.565H623.873C634.17 378.565 643.156 385.546 645.702 395.522L669.276 487.887H129.291L158.256 394.425C161.179 384.994 169.902 378.565 179.775 378.565Z" stroke="#202020" stroke-width="2.21598"/>
<circle cx="210.516" cy="454.085" r="19.5745" stroke="#202020" stroke-width="2.21598"/>
<circle cx="587.749" cy="454.085" r="19.5745" stroke="#202020" stroke-width="2.21598"/>
<rect x="273.672" y="434.51" width="25.8531" height="25.8531" rx="3.32397" stroke="#202020" stroke-width="2.21598"/>
<path d="M384.842 461.475C384.842 459.027 386.826 457.043 389.274 457.043H408.479C410.927 457.043 412.911 459.027 412.911 461.475V474.771H384.842V461.475Z" fill="#202020"/>
<rect x="498.741" y="434.51" width="25.8531" height="25.8531" rx="3.32397" stroke="#202020" stroke-width="2.21598"/>
<g clip-path="url(#clip0_18_2225)">
<path d="M398.763 386.871C406.106 386.871 412.059 392.824 412.059 400.167C412.059 407.51 406.106 413.463 398.763 413.463C391.42 413.463 385.467 407.51 385.467 400.167C385.467 392.824 391.42 386.871 398.763 386.871ZM399.849 392.21C399.608 391.027 397.917 391.027 397.677 392.21L396.662 397.201C396.573 397.637 396.233 397.978 395.797 398.066L390.806 399.081C389.623 399.322 389.623 401.012 390.806 401.253L395.797 402.268C396.233 402.356 396.573 402.697 396.662 403.133L397.677 408.124C397.917 409.307 399.608 409.307 399.849 408.124L400.863 403.133C400.952 402.697 401.293 402.356 401.729 402.268L406.72 401.253C407.903 401.012 407.903 399.322 406.72 399.081L401.729 398.066C401.293 397.978 400.952 397.637 400.863 397.201L399.849 392.21Z" fill="#202020"/>
</g>
<g clip-path="url(#clip1_18_2225)">
<path d="M33.2393 19.9453C40.5824 19.9453 46.5352 25.8981 46.5352 33.2412C46.5352 40.5843 40.5824 46.5371 33.2393 46.5371C25.8961 46.5371 19.9434 40.5843 19.9434 33.2412C19.9434 25.8981 25.8961 19.9453 33.2393 19.9453ZM34.3252 25.2842C34.0846 24.1013 32.3939 24.1013 32.1533 25.2842L31.1387 30.2754C31.0501 30.7112 30.7092 31.052 30.2734 31.1406L25.2822 32.1553C24.0994 32.3959 24.0994 34.0866 25.2822 34.3271L30.2734 35.3418C30.7092 35.4304 31.0501 35.7713 31.1387 36.207L32.1533 41.1982C32.3939 42.3811 34.0846 42.3811 34.3252 41.1982L35.3398 36.207C35.4285 35.7713 35.7693 35.4304 36.2051 35.3418L41.1963 34.3271C42.3791 34.0865 42.3791 32.3959 41.1963 32.1553L36.2051 31.1406C35.7693 31.052 35.4285 30.7112 35.3398 30.2754L34.3252 25.2842Z" fill="#202020"/>
</g>
<g clip-path="url(#clip2_18_2225)">
<path d="M33.2393 442.27C40.5824 442.27 46.5352 448.222 46.5352 455.565C46.5352 462.909 40.5824 468.861 33.2393 468.861C25.8961 468.861 19.9434 462.909 19.9434 455.565C19.9434 448.222 25.8961 442.27 33.2393 442.27ZM34.3252 447.608C34.0846 446.426 32.3939 446.426 32.1533 447.608L31.1387 452.6C31.0501 453.035 30.7092 453.376 30.2734 453.465L25.2822 454.479C24.0994 454.72 24.0994 456.411 25.2822 456.651L30.2734 457.666C30.7092 457.755 31.0501 458.095 31.1387 458.531L32.1533 463.522C32.3939 464.705 34.0846 464.705 34.3252 463.522L35.3398 458.531C35.4285 458.095 35.7693 457.755 36.2051 457.666L41.1963 456.651C42.3791 456.411 42.3791 454.72 41.1963 454.479L36.2051 453.465C35.7693 453.376 35.4285 453.035 35.3398 452.6L34.3252 447.608Z" fill="#202020"/>
</g>
<g clip-path="url(#clip3_18_2225)">
<path d="M764.288 19.9453C771.631 19.9453 777.584 25.8981 777.584 33.2412C777.584 40.5843 771.631 46.5371 764.288 46.5371C756.945 46.5371 750.992 40.5843 750.992 33.2412C750.992 25.8981 756.945 19.9453 764.288 19.9453ZM765.374 25.2842C765.133 24.1013 763.443 24.1013 763.202 25.2842L762.188 30.2754C762.099 30.7112 761.758 31.052 761.322 31.1406L756.331 32.1553C755.148 32.3959 755.148 34.0866 756.331 34.3271L761.322 35.3418C761.758 35.4304 762.099 35.7713 762.188 36.207L763.202 41.1982C763.443 42.3811 765.133 42.3811 765.374 41.1982L766.389 36.207C766.477 35.7713 766.818 35.4304 767.254 35.3418L772.245 34.3271C773.428 34.0865 773.428 32.3959 772.245 32.1553L767.254 31.1406C766.818 31.052 766.477 30.7112 766.389 30.2754L765.374 25.2842Z" fill="#202020"/>
</g>
<g clip-path="url(#clip4_18_2225)">
<path d="M764.288 442.27C771.631 442.27 777.584 448.222 777.584 455.565C777.584 462.909 771.631 468.861 764.288 468.861C756.945 468.861 750.992 462.909 750.992 455.565C750.992 448.222 756.945 442.27 764.288 442.27ZM765.374 447.608C765.133 446.426 763.443 446.426 763.202 447.608L762.188 452.6C762.099 453.035 761.758 453.376 761.322 453.465L756.331 454.479C755.148 454.72 755.148 456.411 756.331 456.651L761.322 457.666C761.758 457.755 762.099 458.095 762.188 458.531L763.202 463.522C763.443 464.705 765.133 464.705 765.374 463.522L766.389 458.531C766.477 458.095 766.818 457.755 767.254 457.666L772.245 456.651C773.428 456.411 773.428 454.72 772.245 454.479L767.254 453.465C766.818 453.376 766.477 453.035 766.389 452.6L765.374 447.608Z" fill="#202020"/>
</g>
<mask id="mask0_18_2225" style="mask-type:alpha" maskUnits="userSpaceOnUse" x="45" y="41" width="709" height="316">
<path d="M88.1855 42.4717H711.045C717.002 42.4717 722.717 44.8312 726.939 49.0342L745.691 67.7012C749.938 71.929 752.326 77.6745 752.326 83.667V332.396C752.326 344.838 742.239 354.925 729.797 354.925H69.4336C56.9913 354.925 46.9053 344.838 46.9053 332.396V83.667C46.9054 77.6746 49.2923 71.929 53.5391 67.7012L72.291 49.0342C76.5131 44.8311 82.2281 42.4717 88.1855 42.4717ZM229.724 155.486C193.212 155.486 163.613 185.085 163.613 221.597V223.074C163.614 259.586 193.212 289.184 229.724 289.184H568.03C604.542 289.183 634.139 259.586 634.14 223.074V221.597C634.14 185.085 604.542 155.487 568.03 155.486H229.724Z" fill="#EDA35F" stroke="#202020" stroke-width="2.21598"/>
</mask>
<g mask="url(#mask0_18_2225)">
<g clip-path="url(#clip5_18_2225)">
<rect width="707.637" height="314.669" transform="translate(45.7969 41.3633)" fill="#FCF7F2"/>
<g clip-path="url(#clip6_18_2225)">
<rect width="708" height="35.5145" transform="matrix(1 0 0 -1 46.166 356.734)" fill="#9AF3FF"/>
<rect width="708" height="24.4162" transform="matrix(1 0 0 -1 46.166 312.34)" fill="#9AF3FF"/>
<rect width="708" height="4.43931" transform="matrix(1 0 0 -1 46.166 181.383)" fill="#9AF3FF"/>
<rect width="708" height="2.21966" transform="matrix(1 0 0 -1 46.166 159.184)" fill="#9AF3FF"/>
<rect width="708" height="17.7572" transform="matrix(1 0 0 -1 46.166 279.047)" fill="#9AF3FF"/>
<rect width="708" height="8.87862" transform="matrix(1 0 0 -1 46.166 225.773)" fill="#9AF3FF"/>
<rect width="708" height="13.3179" transform="matrix(1 0 0 -1 46.166 250.191)" fill="#9AF3FF"/>
<rect width="708" height="6.65897" transform="matrix(1 0 0 -1 46.166 203.578)" fill="#9AF3FF"/>
</g>
<path d="M375.206 131.64C375.206 131.981 375.089 132.29 374.854 132.567C374.62 132.844 374.418 133.11 374.247 133.365C373.949 133.514 373.662 133.6 373.385 133.621C373.129 133.664 372.852 133.738 372.554 133.845C372.448 133.866 372.331 133.94 372.203 134.068C372.032 134.047 371.862 133.972 371.692 133.845C371.521 133.738 371.351 133.664 371.18 133.621C370.946 133.536 370.637 133.483 370.254 133.461C369.892 133.44 369.626 133.333 369.455 133.142C369.157 132.844 368.902 132.45 368.689 131.96C368.497 131.47 368.337 130.948 368.209 130.394C368.103 129.841 368.018 129.298 367.954 128.765C367.911 128.211 367.89 127.732 367.89 127.328C367.89 126.646 367.933 125.964 368.018 125.283C368.103 124.601 368.231 123.941 368.401 123.302V123.143C368.401 123.036 368.401 122.951 368.401 122.887C368.422 122.802 368.433 122.706 368.433 122.599C368.433 122.536 368.422 122.472 368.401 122.408C368.401 122.344 368.369 122.291 368.305 122.248C368.582 121.545 368.785 120.821 368.912 120.076C369.04 119.33 369.136 118.585 369.2 117.839C369.285 117.073 369.37 116.317 369.455 115.571C369.562 114.805 369.711 114.059 369.903 113.335C369.881 113.207 369.86 113.069 369.839 112.92C369.839 112.771 369.839 112.632 369.839 112.504C369.839 112.121 369.881 111.748 369.967 111.386C370.052 111.003 370.105 110.609 370.126 110.204C370.148 110.077 370.148 109.949 370.126 109.821C370.105 109.672 370.094 109.523 370.094 109.374C370.094 108.437 370.137 107.521 370.222 106.626C370.329 105.732 370.382 104.827 370.382 103.911C370.382 103.421 370.339 102.953 370.254 102.505C370.19 102.037 370.158 101.568 370.158 101.1C370.158 100.887 370.169 100.684 370.19 100.493C370.211 100.28 370.275 100.088 370.382 99.9176C370.85 99.5982 371.404 99.4384 372.043 99.4384C372.512 99.4384 372.916 99.5662 373.257 99.8218C373.236 99.8644 373.225 99.9283 373.225 100.013C373.225 100.12 373.236 100.216 373.257 100.301C373.278 100.386 373.289 100.482 373.289 100.589V100.716C373.289 100.759 373.278 100.801 373.257 100.844C373.406 101.1 373.502 101.377 373.545 101.675C373.608 101.952 373.64 102.239 373.64 102.537C373.64 102.814 373.63 103.091 373.608 103.368C373.587 103.623 373.576 103.89 373.576 104.166C373.576 104.55 373.576 104.933 373.576 105.317C373.598 105.7 373.608 106.083 373.608 106.467C373.608 107.489 373.555 108.501 373.449 109.502C373.363 110.481 373.3 111.482 373.257 112.504C373.214 113.378 373.097 114.23 372.906 115.06C372.735 115.891 372.618 116.732 372.554 117.584C372.533 117.754 372.522 117.925 372.522 118.095C372.544 118.244 372.554 118.415 372.554 118.606C372.554 119.096 372.458 119.586 372.267 120.076C372.075 120.544 371.979 121.045 371.979 121.577C371.979 121.833 372.022 122.056 372.107 122.248C371.979 122.589 371.862 122.993 371.756 123.462C371.67 123.931 371.585 124.42 371.5 124.932C371.436 125.421 371.383 125.911 371.34 126.401C371.298 126.87 371.276 127.285 371.276 127.647C371.276 128.158 371.34 128.68 371.468 129.212C371.596 129.724 371.809 130.192 372.107 130.618C372.32 130.682 372.575 130.714 372.874 130.714C373.172 130.714 373.47 130.724 373.768 130.746C374.066 130.767 374.343 130.82 374.599 130.906C374.854 130.991 375.046 131.161 375.174 131.417C375.195 131.459 375.206 131.502 375.206 131.544V131.64ZM411.241 112.185C411.241 113.399 411.156 114.581 410.986 115.731C410.836 116.86 410.613 118.01 410.315 119.181C410.038 119.394 409.867 119.66 409.804 119.98C409.74 120.299 409.633 120.598 409.484 120.874C409.356 121.109 409.186 121.364 408.973 121.641C408.76 121.897 408.526 122.174 408.27 122.472C408.015 122.749 407.759 123.036 407.503 123.334C407.248 123.632 407.035 123.931 406.864 124.229C406.226 124.442 405.768 124.9 405.491 125.602C405.15 125.73 404.799 125.879 404.437 126.05C404.074 126.199 403.819 126.465 403.67 126.848C402.882 127.253 402.136 127.722 401.434 128.254C400.752 128.765 400.007 129.212 399.197 129.596C399.091 129.702 398.963 129.787 398.814 129.851C398.686 129.894 398.548 129.947 398.399 130.011C398.271 130.075 398.143 130.149 398.015 130.235C397.909 130.341 397.845 130.469 397.824 130.618C397.738 130.618 397.675 130.597 397.632 130.554C397.611 130.533 397.547 130.512 397.44 130.49C397.206 130.618 397.1 130.82 397.121 131.097C397.036 131.055 396.919 131.033 396.769 131.033C396.514 131.033 396.258 131.108 396.003 131.257C395.768 131.427 395.566 131.598 395.396 131.768C395.14 131.896 394.842 132.024 394.501 132.151C394.182 132.279 393.948 132.492 393.798 132.79C393.713 132.705 393.585 132.663 393.415 132.663C393.223 132.663 393.021 132.716 392.808 132.822C392.595 132.95 392.435 133.089 392.329 133.238C392.031 133.238 391.743 133.28 391.466 133.365C391.211 133.472 390.945 133.568 390.668 133.653C390.391 133.759 390.114 133.855 389.837 133.94C389.582 134.026 389.305 134.068 389.006 134.068C388.836 134.068 388.708 134.026 388.623 133.94C388.538 133.855 388.431 133.781 388.304 133.717C388.197 133.802 388.006 133.898 387.729 134.004C387.473 134.111 387.281 134.164 387.154 134.164C386.919 134.164 386.685 134.132 386.451 134.068C386.238 134.004 386.014 133.93 385.78 133.845L385.109 133.621C384.896 133.557 384.662 133.514 384.406 133.493C384.215 133.323 383.98 133.142 383.703 132.95C383.448 132.78 383.192 132.726 382.937 132.79C382.83 132.471 382.67 132.194 382.458 131.96C382.245 131.725 382 131.512 381.723 131.321C381.659 131.278 381.584 131.236 381.499 131.193C381.435 131.172 381.382 131.14 381.339 131.097C381.233 131.033 381.137 130.906 381.052 130.714C380.967 130.522 380.871 130.426 380.764 130.426C380.743 130.426 380.711 130.437 380.669 130.458C380.647 130.48 380.626 130.49 380.605 130.49C380.562 130.299 380.498 130.118 380.413 129.947C380.328 129.755 380.179 129.638 379.966 129.596C379.795 129.042 379.678 128.488 379.614 127.935C379.55 127.381 379.465 126.827 379.359 126.273C379.316 126.103 379.263 125.901 379.199 125.666C379.156 125.411 379.135 125.187 379.135 124.995C379.135 124.676 379.178 124.293 379.263 123.845C379.369 123.398 379.455 123.004 379.518 122.663C379.774 121.428 380.115 120.235 380.541 119.085C380.967 117.914 381.425 116.753 381.914 115.603C382.426 114.453 382.947 113.314 383.48 112.185C384.012 111.056 384.513 109.906 384.981 108.735C385.066 108.735 385.12 108.714 385.141 108.671L385.237 108.511C385.279 108.447 385.311 108.394 385.333 108.351C385.375 108.309 385.45 108.288 385.556 108.288V108.192C385.535 108.064 385.556 107.957 385.62 107.872C385.705 107.787 385.727 107.649 385.684 107.457C386.025 107.074 386.312 106.648 386.547 106.179C386.781 105.689 387.015 105.21 387.249 104.742C387.505 104.273 387.771 103.815 388.048 103.368C388.325 102.921 388.676 102.537 389.102 102.218V101.994C389.081 101.888 389.081 101.781 389.102 101.675C389.145 101.547 389.219 101.462 389.326 101.419C389.709 101.036 390.029 100.652 390.284 100.269C390.54 99.8857 390.795 99.513 391.051 99.1509C391.328 98.7676 391.626 98.4162 391.946 98.0967C392.286 97.7559 392.712 97.4471 393.223 97.1703C393.458 97.0638 393.628 96.904 393.735 96.6911C393.841 96.4781 393.979 96.329 394.15 96.2438C394.235 96.2012 394.32 96.1799 394.405 96.1799C394.512 96.1586 394.608 96.1267 394.693 96.0841C395.055 95.9776 395.417 95.8498 395.779 95.7007C396.141 95.5303 396.525 95.4452 396.929 95.4452C397.44 95.4452 397.824 95.5942 398.079 95.8924C398.356 96.1693 398.569 96.51 398.718 96.9147C398.889 97.3193 399.027 97.7453 399.133 98.1925C399.24 98.6398 399.41 99.0231 399.645 99.3426C400.284 99.3852 400.933 99.4597 401.593 99.5662C402.254 99.6514 402.829 99.9176 403.318 100.365C403.361 100.386 403.414 100.397 403.478 100.397C403.585 100.397 403.638 100.354 403.638 100.269C403.638 100.184 403.691 100.141 403.798 100.141H403.893C404.532 100.525 405.139 100.951 405.714 101.419C406.311 101.866 406.896 102.335 407.471 102.825C407.578 102.91 407.684 102.995 407.791 103.08C407.919 103.144 408.025 103.229 408.11 103.336C408.217 103.464 408.313 103.613 408.398 103.783C408.504 103.954 408.6 104.103 408.685 104.23C409.75 106.083 410.464 108.075 410.826 110.204C410.868 110.439 410.9 110.662 410.922 110.875C410.964 111.088 410.986 111.291 410.986 111.482C410.986 111.674 411.028 111.802 411.113 111.866C411.199 111.908 411.241 112.015 411.241 112.185ZM408.781 113.814C408.781 112.962 408.675 112.142 408.462 111.354C408.568 111.312 408.632 111.248 408.653 111.163C408.696 111.056 408.717 110.95 408.717 110.843V110.684L408.334 109.981C408.313 109.683 408.249 109.406 408.142 109.15C408.057 108.895 407.951 108.639 407.823 108.383C407.695 108.128 407.567 107.872 407.439 107.617C407.333 107.361 407.258 107.084 407.216 106.786C406.875 106.531 406.566 106.243 406.289 105.924C406.034 105.583 405.8 105.231 405.587 104.869C405.438 104.805 405.299 104.763 405.171 104.742C405.044 104.72 405.001 104.603 405.044 104.39C404.66 104.284 404.309 104.135 403.989 103.943C403.691 103.73 403.393 103.496 403.095 103.24C402.605 103.134 402.115 103.006 401.625 102.857C401.157 102.686 400.678 102.601 400.188 102.601C399.847 102.601 399.517 102.665 399.197 102.793C399.304 102.963 399.357 103.155 399.357 103.368C399.357 103.56 399.378 103.751 399.421 103.943C400.103 104.113 400.518 104.529 400.667 105.189C400.56 105.253 400.465 105.338 400.379 105.444C400.294 105.53 400.209 105.615 400.124 105.7C400.06 105.764 399.975 105.828 399.868 105.892C399.762 105.955 399.634 105.987 399.485 105.987C399.187 105.987 398.952 105.934 398.782 105.828C398.633 105.721 398.388 105.7 398.047 105.764C397.685 105.444 397.334 105.114 396.993 104.773C396.652 104.411 396.269 104.092 395.843 103.815C395.779 103.602 395.673 103.41 395.524 103.24C395.396 103.07 395.257 102.91 395.108 102.761C394.98 102.59 394.853 102.42 394.725 102.25C394.618 102.058 394.565 101.845 394.565 101.611C394.565 101.462 394.576 101.355 394.597 101.291C394.469 101.249 394.373 101.227 394.31 101.227C394.139 101.227 393.979 101.291 393.83 101.419C393.681 101.526 393.511 101.6 393.319 101.643C393.149 102.154 392.904 102.601 392.584 102.984C392.265 103.368 391.935 103.741 391.594 104.103C391.253 104.465 390.934 104.848 390.636 105.253C390.359 105.636 390.157 106.115 390.029 106.69C389.347 107.542 388.719 108.511 388.144 109.597C387.569 110.662 387.132 111.706 386.834 112.728C386.344 113.282 385.961 113.868 385.684 114.485C385.407 115.103 385.247 115.784 385.205 116.53C385.098 116.594 385.013 116.679 384.949 116.785L384.63 117.424C384.587 117.531 384.513 117.616 384.406 117.68V117.839C384.406 118.01 384.374 118.17 384.31 118.319C384.247 118.446 384.172 118.574 384.087 118.702C384.023 118.83 383.959 118.958 383.895 119.085C383.831 119.192 383.799 119.32 383.799 119.469C383.799 119.639 383.842 119.81 383.927 119.98C383.693 120.022 383.533 120.15 383.448 120.363C383.384 120.555 383.288 120.725 383.16 120.874C383.075 121.556 382.99 122.248 382.905 122.951C382.82 123.654 382.777 124.346 382.777 125.027C382.777 125.815 382.862 126.614 383.033 127.423C383.224 127.615 383.395 127.828 383.544 128.062C383.693 128.297 383.842 128.52 383.991 128.733C384.161 128.946 384.342 129.138 384.534 129.308C384.726 129.457 384.981 129.553 385.301 129.596C385.301 129.745 385.333 129.851 385.397 129.915C385.46 129.979 385.514 130.064 385.556 130.171C386.004 130.32 386.472 130.437 386.962 130.522C387.452 130.629 387.942 130.682 388.431 130.682C388.772 130.682 389.113 130.639 389.454 130.554C389.816 130.469 390.114 130.299 390.348 130.043C391.434 130 392.51 129.745 393.575 129.276C394.661 128.808 395.651 128.297 396.546 127.743H397.217C397.451 127.423 397.738 127.168 398.079 126.976C398.42 126.763 398.771 126.571 399.133 126.401C399.197 126.358 399.283 126.316 399.389 126.273C399.496 126.231 399.581 126.188 399.645 126.146C399.879 125.975 400.113 125.783 400.347 125.57C400.603 125.358 400.859 125.155 401.114 124.964C401.54 124.644 401.977 124.335 402.424 124.037C402.871 123.739 403.297 123.419 403.702 123.079C404.128 122.738 404.522 122.376 404.884 121.993C405.267 121.588 405.587 121.141 405.842 120.651C405.97 120.651 406.066 120.619 406.13 120.555C406.215 120.47 406.279 120.385 406.321 120.299C406.385 120.214 406.449 120.14 406.513 120.076C406.598 120.012 406.715 119.98 406.864 119.98C406.864 119.788 406.896 119.628 406.96 119.501C407.045 119.352 407.131 119.224 407.216 119.117C407.322 118.99 407.418 118.872 407.503 118.766C407.61 118.659 407.706 118.521 407.791 118.351V117.456C408.132 116.902 408.377 116.317 408.526 115.699C408.696 115.081 408.781 114.453 408.781 113.814ZM444.21 99.5982C444.039 99.7047 443.858 99.7685 443.667 99.7898C443.475 99.8111 443.273 99.8431 443.06 99.8857C442.868 99.907 442.687 99.9496 442.517 100.013C442.346 100.077 442.218 100.194 442.133 100.365C441.92 100.152 441.686 99.9709 441.43 99.8218C441.175 99.6727 440.919 99.513 440.664 99.3426C440.451 99.4065 440.238 99.4917 440.025 99.5982C439.812 99.7047 439.599 99.7579 439.386 99.7579C439.237 99.7579 439.088 99.7047 438.939 99.5982C438.768 99.726 438.566 99.8324 438.332 99.9176C438.119 99.9815 437.884 100.045 437.629 100.109C437.394 100.173 437.171 100.258 436.958 100.365C436.766 100.471 436.628 100.631 436.543 100.844C436.5 100.738 436.393 100.706 436.223 100.748C436.074 100.791 435.989 100.738 435.968 100.589C435.286 100.823 434.594 101.025 433.891 101.195C433.188 101.366 432.485 101.547 431.783 101.739C431.08 101.93 430.388 102.143 429.706 102.377C429.025 102.612 428.364 102.899 427.725 103.24C427.704 103.261 427.693 103.293 427.693 103.336C427.693 103.549 427.725 103.751 427.789 103.943C427.853 104.135 427.906 104.316 427.949 104.486C427.566 105.785 427.31 107.106 427.182 108.447C427.055 109.789 426.884 111.109 426.671 112.409V112.536C426.671 112.643 426.714 112.728 426.799 112.792C426.884 112.835 426.927 112.92 426.927 113.048L426.895 113.111C426.788 113.175 426.714 113.271 426.671 113.399C426.629 113.505 426.607 113.623 426.607 113.75C426.607 113.836 426.629 113.963 426.671 114.134C426.309 115.348 426.064 116.583 425.936 117.839C425.83 119.096 425.691 120.353 425.521 121.609L425.234 123.718C425.191 123.845 425.148 123.973 425.106 124.101C425.084 124.207 425.074 124.325 425.074 124.452C425.074 125.134 425.116 125.805 425.202 126.465C425.308 127.104 425.34 127.764 425.297 128.446C425.489 128.744 425.585 129.031 425.585 129.308C425.585 129.415 425.574 129.521 425.553 129.628C425.553 129.734 425.542 129.841 425.521 129.947C425.798 130.224 426.117 130.416 426.479 130.522C426.863 130.65 427.204 130.842 427.502 131.097V131.225C427.502 131.438 427.47 131.64 427.406 131.832C427.342 132.045 427.289 132.258 427.246 132.471C427.204 132.641 427.15 132.886 427.086 133.206C427.044 133.525 426.98 133.738 426.895 133.845C426.788 133.994 426.629 134.121 426.416 134.228C426.224 134.356 426.032 134.42 425.841 134.42C425.777 134.42 425.681 134.388 425.553 134.324C425.447 134.26 425.361 134.207 425.297 134.164C425.191 134.164 425.053 134.217 424.882 134.324C424.712 134.43 424.541 134.484 424.371 134.484C424.286 134.484 424.211 134.473 424.147 134.452C424.084 134.452 424.009 134.43 423.924 134.388C423.839 134.175 423.711 133.983 423.54 133.813C423.391 133.664 423.21 133.514 422.997 133.365C423.019 133.067 422.965 132.844 422.838 132.695C422.71 132.545 422.582 132.354 422.454 132.119C422.412 131.821 422.369 131.481 422.326 131.097C422.305 130.714 422.145 130.437 421.847 130.267C421.954 130.118 422.007 129.915 422.007 129.66C422.007 129.553 421.986 129.436 421.943 129.308C421.922 129.18 421.858 129.085 421.751 129.021V128.957C421.73 128.85 421.762 128.776 421.847 128.733C421.954 128.669 422.007 128.584 422.007 128.478V128.35C421.858 127.668 421.783 126.955 421.783 126.209C421.783 125.507 421.805 124.814 421.847 124.133C421.89 123.43 421.89 122.727 421.847 122.024C421.975 121.918 422.071 121.748 422.135 121.513C422.22 121.279 422.284 121.023 422.326 120.747C422.369 120.47 422.39 120.204 422.39 119.948C422.412 119.671 422.433 119.447 422.454 119.277C422.561 118.063 422.731 116.87 422.965 115.699C423.2 114.506 423.338 113.292 423.381 112.057C423.487 111.887 423.551 111.663 423.572 111.386C423.594 111.109 423.604 110.822 423.604 110.524C423.604 110.204 423.626 109.896 423.668 109.597C423.711 109.299 423.796 109.044 423.924 108.831C423.924 108.234 423.977 107.638 424.084 107.042C424.19 106.424 424.243 105.806 424.243 105.189C424.243 104.891 424.211 104.582 424.147 104.262C423.934 104.177 423.743 104.135 423.572 104.135C423.338 104.135 423.093 104.188 422.838 104.294C422.603 104.379 422.433 104.518 422.326 104.71C421.858 104.731 421.4 104.805 420.953 104.933C420.506 105.061 420.058 105.125 419.611 105.125H419.292C419.206 105.125 419.111 105.114 419.004 105.093C418.855 105.157 418.695 105.21 418.525 105.253C418.376 105.295 418.312 105.423 418.333 105.636C417.673 105.7 417.023 105.838 416.384 106.051C415.767 106.264 415.149 106.499 414.532 106.754C413.914 106.988 413.296 107.212 412.679 107.425C412.04 107.638 411.39 107.776 410.73 107.84C410.496 107.947 410.347 108.17 410.283 108.511C409.814 108.469 409.42 108.351 409.101 108.16C408.781 107.968 408.409 107.787 407.983 107.617C407.855 107.169 407.791 106.743 407.791 106.339C407.791 105.806 407.897 105.295 408.11 104.805C408.323 104.316 408.664 103.954 409.133 103.719C409.239 103.741 409.335 103.762 409.42 103.783C409.505 103.783 409.601 103.783 409.708 103.783C410.048 103.783 410.389 103.719 410.73 103.591C411.071 103.464 411.422 103.4 411.784 103.4C411.891 103.4 412.008 103.432 412.136 103.496C412.285 103.41 412.476 103.347 412.711 103.304C412.924 103.24 413.126 103.187 413.318 103.144C413.531 103.08 413.722 102.995 413.893 102.889C414.063 102.782 414.17 102.633 414.212 102.441C414.319 102.527 414.436 102.58 414.564 102.601C414.691 102.622 414.819 102.633 414.947 102.633C415.224 102.633 415.511 102.58 415.809 102.473C416.108 102.367 416.342 102.196 416.512 101.962C416.661 102.133 416.874 102.218 417.151 102.218C417.449 102.218 417.737 102.143 418.014 101.994C418.312 101.824 418.599 101.739 418.876 101.739C419.089 101.739 419.249 101.813 419.355 101.962C419.59 101.771 419.867 101.621 420.186 101.515C420.506 101.408 420.825 101.313 421.144 101.227C421.485 101.142 421.794 101.046 422.071 100.94C422.369 100.833 422.603 100.684 422.774 100.493C422.88 100.514 423.051 100.525 423.285 100.525C423.647 100.525 423.988 100.482 424.307 100.397C424.648 100.29 424.989 100.194 425.329 100.109L426 100.045C426.171 100.024 426.32 99.9709 426.448 99.8857C426.597 99.8005 426.746 99.726 426.895 99.6621C427.044 99.5982 427.193 99.5449 427.342 99.5023C427.512 99.4597 427.715 99.4491 427.949 99.4704C428.46 99.1935 429.003 98.9805 429.578 98.8315C430.153 98.6824 430.739 98.5546 431.335 98.4481C431.932 98.3203 432.517 98.1819 433.092 98.0328C433.667 97.8624 434.21 97.6175 434.722 97.298H434.817C435.243 97.298 435.659 97.2235 436.063 97.0744C436.489 96.9253 436.883 96.723 437.245 96.4674C437.309 96.4887 437.373 96.4994 437.437 96.4994H437.661C438.257 96.4994 438.832 96.4142 439.386 96.2438C439.961 96.0734 440.557 95.9882 441.175 95.9882C441.537 95.9882 441.824 96.0415 442.037 96.148C442.25 96.2332 442.442 96.3503 442.612 96.4994C442.783 96.6272 442.964 96.7549 443.155 96.8827C443.347 97.0105 443.592 97.1064 443.89 97.1703C444.082 97.5323 444.178 97.9263 444.178 98.3523C444.178 98.7569 444.188 99.1722 444.21 99.5982Z" fill="#202020"/>
</g>
</g>
<path d="M710.829 41.3633H88.1771C81.9254 41.3633 75.9282 43.84 71.4982 48.2514L52.7551 66.9162C48.3008 71.3518 45.7969 77.379 45.7969 83.6651V332.396C45.7969 345.45 56.3796 356.033 69.434 356.033H729.573C742.627 356.033 753.21 345.45 753.21 332.396V83.6651C753.21 77.379 750.706 71.3518 746.251 66.9162L727.508 48.2514C723.078 43.84 717.081 41.3633 710.829 41.3633Z" stroke="#202020" stroke-width="2.21598"/>
<g clip-path="url(#clip7_18_2225)">
<path d="M229.723 157.706H568.029C603.317 157.706 631.924 186.312 631.924 221.6V223.077C631.924 258.365 603.317 286.972 568.029 286.972H229.723C194.435 286.972 165.829 258.365 165.829 223.077V221.6C165.829 186.312 194.435 157.706 229.723 157.706Z" stroke="#202020" stroke-width="2.21598"/>
<path d="M559.595 179.016C583.664 179.016 603.176 198.528 603.176 222.597C603.176 246.666 583.664 266.178 559.595 266.178C535.526 266.178 516.014 246.666 516.014 222.597C516.014 198.528 535.526 179.016 559.595 179.016ZM559.344 190.096C554.878 190.096 550.622 190.996 546.749 192.626L550.666 199.41L543.62 203.479L539.706 196.698C532.91 201.859 528.208 209.632 527.096 218.522H534.934V226.659H527.095C528.203 235.547 532.901 243.318 539.69 248.481L543.607 241.698L550.654 245.767L546.731 252.56C550.609 254.194 554.871 255.098 559.344 255.098C563.81 255.098 568.065 254.196 571.938 252.566L568.022 245.784L575.068 241.716L578.981 248.493C585.779 243.33 590.483 235.553 591.592 226.659H583.754V218.522H591.591C590.48 209.637 585.781 201.869 578.991 196.708L575.08 203.484L568.033 199.416L571.949 192.631C568.073 190.998 563.814 190.096 559.344 190.096Z" fill="#202020"/>
<path d="M237.849 179.016C261.918 179.016 281.43 198.528 281.43 222.597C281.43 246.666 261.918 266.178 237.849 266.178C213.78 266.178 194.268 246.666 194.268 222.597C194.268 198.528 213.78 179.016 237.849 179.016ZM237.598 190.096C233.132 190.096 228.876 190.996 225.003 192.626L228.92 199.41L221.874 203.479L217.96 196.698C211.164 201.859 206.461 209.632 205.35 218.522H213.188V226.659H205.349C206.457 235.547 211.155 243.318 217.944 248.481L221.861 241.698L228.908 245.767L224.985 252.56C228.863 254.194 233.125 255.098 237.598 255.098C242.064 255.098 246.319 254.196 250.192 252.566L246.276 245.784L253.322 241.716L257.235 248.493C264.033 243.33 268.737 235.553 269.846 226.659H262.008V218.522H269.845C268.733 209.637 264.035 201.869 257.245 196.708L253.334 203.484L246.287 199.416L250.203 192.631C246.327 190.998 242.068 190.096 237.598 190.096Z" fill="#202020"/>
</g>
<defs>
<clipPath id="clip0_18_2225">
<rect width="26.5918" height="26.5918" fill="white" transform="translate(385.467 386.871)"/>
</clipPath>
<clipPath id="clip1_18_2225">
<rect width="26.5918" height="26.5918" fill="white" transform="translate(19.9434 19.9453)"/>
</clipPath>
<clipPath id="clip2_18_2225">
<rect width="26.5918" height="26.5918" fill="white" transform="translate(19.9434 442.27)"/>
</clipPath>
<clipPath id="clip3_18_2225">
<rect width="26.5918" height="26.5918" fill="white" transform="translate(750.992 19.9453)"/>
</clipPath>
<clipPath id="clip4_18_2225">
<rect width="26.5918" height="26.5918" fill="white" transform="translate(750.992 442.27)"/>
</clipPath>
<clipPath id="clip5_18_2225">
<rect width="707.637" height="314.669" fill="white" transform="translate(45.7969 41.3633)"/>
</clipPath>
<clipPath id="clip6_18_2225">
<rect width="708" height="199.769" fill="white" transform="matrix(1 0 0 -1 46.166 356.734)"/>
</clipPath>
<clipPath id="clip7_18_2225">
<rect x="164.721" y="156.598" width="468.311" height="131.482" rx="65.0021" fill="white"/>
</clipPath>
</defs>
</svg>
