<svg width="798" height="489" viewBox="0 0 798 489" fill="none" xmlns="http://www.w3.org/2000/svg">
<g opacity="0.8">
<mask id="path-1-outside-1_19_2180" maskUnits="userSpaceOnUse" x="-0.783203" y="-0.785156" width="799" height="490" fill="black">
<rect fill="white" x="-0.783203" y="-0.785156" width="799" height="490"/>
<path d="M763.038 2.21484C780.988 2.21507 795.539 16.7662 795.539 34.7158V454.275C795.539 472.225 780.987 486.776 763.037 486.776H34.7178C16.7681 486.776 2.21688 472.225 2.2168 454.275V34.7158C2.21691 16.7662 16.7682 2.21507 34.7178 2.21484H763.038ZM210.521 433.363C199.098 433.363 189.838 442.623 189.838 454.046C189.838 465.468 199.098 474.728 210.521 474.728C221.943 474.727 231.202 465.468 231.202 454.046C231.202 442.623 221.943 433.364 210.521 433.363ZM587.752 433.363C576.329 433.363 567.069 442.623 567.069 454.046C567.07 465.468 576.329 474.728 587.752 474.728C599.174 474.727 608.433 465.468 608.434 454.046C608.434 442.623 599.174 433.364 587.752 433.363ZM276.999 433.363C274.552 433.364 272.567 435.347 272.567 437.795V457C272.567 459.448 274.552 461.431 276.999 461.432H296.205C298.653 461.431 300.637 459.448 300.637 457V437.795C300.637 435.347 298.653 433.363 296.205 433.363H276.999ZM502.067 433.363C499.62 433.363 497.635 435.347 497.635 437.795V457C497.635 459.448 499.62 461.432 502.067 461.432H521.272C523.72 461.431 525.704 459.448 525.704 457V437.795C525.704 435.347 523.72 433.363 521.272 433.363H502.067ZM237.851 178.755C213.781 178.755 194.27 198.267 194.27 222.336C194.27 246.405 213.781 265.917 237.851 265.917C261.92 265.917 281.432 246.405 281.432 222.336C281.432 198.267 261.92 178.755 237.851 178.755ZM559.906 178.755C535.837 178.755 516.325 198.267 516.325 222.336C516.325 246.405 535.837 265.917 559.906 265.917C583.975 265.917 603.487 246.405 603.487 222.336C603.487 198.267 583.975 178.755 559.906 178.755Z"/>
</mask>
<path d="M763.038 2.21484C780.988 2.21507 795.539 16.7662 795.539 34.7158V454.275C795.539 472.225 780.987 486.776 763.037 486.776H34.7178C16.7681 486.776 2.21688 472.225 2.2168 454.275V34.7158C2.21691 16.7662 16.7682 2.21507 34.7178 2.21484H763.038ZM210.521 433.363C199.098 433.363 189.838 442.623 189.838 454.046C189.838 465.468 199.098 474.728 210.521 474.728C221.943 474.727 231.202 465.468 231.202 454.046C231.202 442.623 221.943 433.364 210.521 433.363ZM587.752 433.363C576.329 433.363 567.069 442.623 567.069 454.046C567.07 465.468 576.329 474.728 587.752 474.728C599.174 474.727 608.433 465.468 608.434 454.046C608.434 442.623 599.174 433.364 587.752 433.363ZM276.999 433.363C274.552 433.364 272.567 435.347 272.567 437.795V457C272.567 459.448 274.552 461.431 276.999 461.432H296.205C298.653 461.431 300.637 459.448 300.637 457V437.795C300.637 435.347 298.653 433.363 296.205 433.363H276.999ZM502.067 433.363C499.62 433.363 497.635 435.347 497.635 437.795V457C497.635 459.448 499.62 461.432 502.067 461.432H521.272C523.72 461.431 525.704 459.448 525.704 457V437.795C525.704 435.347 523.72 433.363 521.272 433.363H502.067ZM237.851 178.755C213.781 178.755 194.27 198.267 194.27 222.336C194.27 246.405 213.781 265.917 237.851 265.917C261.92 265.917 281.432 246.405 281.432 222.336C281.432 198.267 261.92 178.755 237.851 178.755ZM559.906 178.755C535.837 178.755 516.325 198.267 516.325 222.336C516.325 246.405 535.837 265.917 559.906 265.917C583.975 265.917 603.487 246.405 603.487 222.336C603.487 198.267 583.975 178.755 559.906 178.755Z" fill="#E2E2E2"/>
<path d="M763.038 2.21484L763.038 -0.00113821H763.038V2.21484ZM795.539 34.7158L797.755 34.7158L797.755 34.7158L795.539 34.7158ZM795.539 454.275L797.755 454.275V454.275H795.539ZM34.7178 486.776L34.7178 488.992H34.7178V486.776ZM2.2168 454.275L0.000814915 454.275L0.000814915 454.275L2.2168 454.275ZM2.2168 34.7158L0.000814915 34.7158V34.7158H2.2168ZM34.7178 2.21484L34.7178 -0.00113821L34.7177 -0.00113821L34.7178 2.21484ZM210.521 433.363L210.521 431.147H210.521V433.363ZM189.838 454.046L187.622 454.046L187.622 454.046L189.838 454.046ZM210.521 474.728L210.521 476.944L210.521 476.944L210.521 474.728ZM231.202 454.046L233.418 454.046V454.046H231.202ZM587.752 433.363L587.752 431.147H587.752V433.363ZM567.069 454.046L564.853 454.046L564.853 454.046L567.069 454.046ZM587.752 474.728L587.752 476.944L587.752 476.944L587.752 474.728ZM608.434 454.046L610.65 454.046V454.046H608.434ZM276.999 433.363L276.999 431.147L276.999 431.147L276.999 433.363ZM272.567 437.795L270.351 437.795V437.795H272.567ZM276.999 461.432L276.999 463.648H276.999V461.432ZM296.205 461.432L296.205 463.648L296.205 463.648L296.205 461.432ZM300.637 437.795L302.853 437.795L302.853 437.795L300.637 437.795ZM296.205 433.363L296.205 431.147H296.205V433.363ZM497.635 437.795L495.419 437.795V437.795H497.635ZM521.272 461.432L521.272 463.648L521.273 463.648L521.272 461.432ZM525.704 437.795L527.92 437.795L527.92 437.795L525.704 437.795ZM521.272 433.363L521.273 431.147H521.272V433.363ZM237.851 178.755L237.851 176.539H237.851V178.755ZM194.27 222.336L192.054 222.336L192.054 222.336L194.27 222.336ZM237.851 265.917L237.851 268.133L237.851 268.133L237.851 265.917ZM281.432 222.336L283.648 222.336V222.336H281.432ZM559.906 178.755L559.906 176.539L559.906 176.539L559.906 178.755ZM516.325 222.336L514.109 222.336L514.109 222.336L516.325 222.336ZM559.906 265.917L559.906 268.133H559.906V265.917ZM603.487 222.336L605.703 222.336V222.336H603.487ZM763.038 2.21484L763.038 4.43083C779.764 4.43103 793.323 17.9901 793.323 34.7158L795.539 34.7158L797.755 34.7158C797.755 15.5423 782.212 -0.000901334 763.038 -0.00113821L763.038 2.21484ZM795.539 34.7158H793.323V454.275H795.539H797.755V34.7158H795.539ZM795.539 454.275L793.323 454.275C793.323 471.001 779.763 484.56 763.037 484.56V486.776V488.992C782.211 488.992 797.755 473.449 797.755 454.275L795.539 454.275ZM763.037 486.776V484.56H34.7178V486.776V488.992H763.037V486.776ZM34.7178 486.776L34.7178 484.56C17.992 484.56 4.43285 471.001 4.43278 454.275L2.2168 454.275L0.000814915 454.275C0.00090036 473.449 15.5443 488.992 34.7178 488.992L34.7178 486.776ZM2.2168 454.275H4.43278V34.7158H2.2168H0.000814915V454.275H2.2168ZM2.2168 34.7158L4.43278 34.7158C4.43289 17.9901 17.992 4.43104 34.7178 4.43083L34.7178 2.21484L34.7177 -0.00113821C15.5444 -0.000893123 0.000937524 15.5423 0.000814915 34.7158L2.2168 34.7158ZM34.7178 2.21484V4.43083H763.038V2.21484V-0.00113821H34.7178V2.21484ZM210.521 433.363V431.147C197.874 431.147 187.622 441.399 187.622 454.046H189.838H192.054C192.054 443.847 200.322 435.579 210.521 435.579V433.363ZM189.838 454.046L187.622 454.046C187.622 466.692 197.874 476.944 210.521 476.944V474.728V472.512C200.322 472.512 192.054 464.244 192.054 454.046L189.838 454.046ZM210.521 474.728L210.521 476.944C223.167 476.943 233.418 466.692 233.418 454.046L231.202 454.046L228.986 454.046C228.986 464.244 220.719 472.511 210.52 472.512L210.521 474.728ZM231.202 454.046H233.418C233.418 441.4 223.167 431.148 210.521 431.147L210.521 433.363L210.52 435.579C220.719 435.579 228.986 443.847 228.986 454.046H231.202ZM587.752 433.363V431.147C575.105 431.147 564.853 441.399 564.853 454.046H567.069H569.285C569.285 443.847 577.553 435.579 587.752 435.579V433.363ZM567.069 454.046L564.853 454.046C564.854 466.692 575.106 476.944 587.752 476.944V474.728V472.512C577.553 472.512 569.286 464.244 569.285 454.046L567.069 454.046ZM587.752 474.728L587.752 476.944C600.398 476.943 610.649 466.692 610.65 454.046L608.434 454.046L606.218 454.046C606.217 464.244 597.95 472.511 587.752 472.512L587.752 474.728ZM608.434 454.046H610.65C610.65 441.4 600.398 431.148 587.752 431.147L587.752 433.363L587.752 435.579C597.95 435.579 606.218 443.847 606.218 454.046H608.434ZM276.999 433.363L276.999 431.147C273.328 431.148 270.351 434.123 270.351 437.795L272.567 437.795L274.783 437.795C274.783 436.571 275.775 435.579 276.999 435.579L276.999 433.363ZM272.567 437.795H270.351V457H272.567H274.783V437.795H272.567ZM272.567 457H270.351C270.351 460.672 273.328 463.647 276.999 463.648L276.999 461.432L276.999 459.216C275.775 459.216 274.783 458.223 274.783 457H272.567ZM276.999 461.432V463.648H296.205V461.432V459.216H276.999V461.432ZM296.205 461.432L296.205 463.648C299.876 463.647 302.853 460.672 302.853 457H300.637H298.421C298.421 458.224 297.429 459.216 296.205 459.216L296.205 461.432ZM300.637 457H302.853V437.795H300.637H298.421V457H300.637ZM300.637 437.795L302.853 437.795C302.853 434.123 299.876 431.148 296.205 431.147L296.205 433.363L296.205 435.579C297.429 435.579 298.421 436.571 298.421 437.795L300.637 437.795ZM296.205 433.363V431.147H276.999V433.363V435.579H296.205V433.363ZM502.067 433.363V431.147C498.396 431.147 495.419 434.123 495.419 437.795L497.635 437.795L499.851 437.795C499.851 436.572 500.843 435.579 502.067 435.579V433.363ZM497.635 437.795H495.419V457H497.635H499.851V437.795H497.635ZM497.635 457H495.419C495.419 460.672 498.396 463.648 502.067 463.648V461.432V459.216C500.843 459.216 499.851 458.223 499.851 457H497.635ZM502.067 461.432V463.648H521.272V461.432V459.216H502.067V461.432ZM521.272 461.432L521.273 463.648C524.944 463.647 527.92 460.672 527.92 457H525.704H523.488C523.488 458.224 522.496 459.216 521.272 459.216L521.272 461.432ZM525.704 457H527.92V437.795H525.704H523.488V457H525.704ZM525.704 437.795L527.92 437.795C527.92 434.123 524.944 431.148 521.273 431.147L521.272 433.363L521.272 435.579C522.496 435.579 523.488 436.571 523.488 437.795L525.704 437.795ZM521.272 433.363V431.147H502.067V433.363V435.579H521.272V433.363ZM237.851 178.755V176.539C212.558 176.539 192.054 197.043 192.054 222.336H194.27H196.486C196.486 199.491 215.005 180.971 237.851 180.971V178.755ZM194.27 222.336L192.054 222.336C192.054 247.629 212.558 268.133 237.851 268.133V265.917V263.701C215.005 263.701 196.486 245.181 196.486 222.336L194.27 222.336ZM237.851 265.917L237.851 268.133C263.143 268.133 283.648 247.629 283.648 222.336L281.432 222.336L279.216 222.336C279.216 245.181 260.696 263.701 237.851 263.701L237.851 265.917ZM281.432 222.336H283.648C283.648 197.043 263.143 176.539 237.851 176.539L237.851 178.755L237.851 180.971C260.696 180.971 279.216 199.491 279.216 222.336H281.432ZM559.906 178.755L559.906 176.539C534.613 176.539 514.109 197.043 514.109 222.336H516.325H518.541C518.541 199.491 537.061 180.971 559.906 180.971L559.906 178.755ZM516.325 222.336L514.109 222.336C514.109 247.629 534.613 268.133 559.906 268.133L559.906 265.917L559.906 263.701C537.061 263.701 518.541 245.181 518.541 222.336L516.325 222.336ZM559.906 265.917V268.133C585.199 268.133 605.703 247.629 605.703 222.336L603.487 222.336L601.271 222.336C601.271 245.181 582.751 263.701 559.906 263.701V265.917ZM603.487 222.336H605.703C605.703 197.043 585.199 176.539 559.906 176.539V178.755V180.971C582.752 180.971 601.271 199.491 601.271 222.336H603.487Z" fill="#202020" mask="url(#path-1-outside-1_19_2180)"/>
</g>
<path d="M237.109 88.6406C310.948 88.6407 370.806 148.499 370.807 222.338C370.807 296.177 310.948 356.036 237.109 356.036C163.27 356.036 103.412 296.177 103.412 222.338C103.412 148.499 163.27 88.6406 237.109 88.6406ZM237.848 176.541C212.555 176.541 192.051 197.045 192.051 222.338C192.051 247.631 212.555 268.135 237.848 268.135C263.141 268.135 283.645 247.631 283.645 222.338C283.644 197.045 263.141 176.541 237.848 176.541Z" fill="#202020"/>
<path d="M559.166 166.938C589.762 166.938 614.565 191.741 614.565 222.337C614.565 252.933 589.762 277.736 559.166 277.736C528.57 277.736 503.766 252.933 503.766 222.337C503.766 191.741 528.57 166.938 559.166 166.938ZM559.904 176.54C534.611 176.54 514.108 197.044 514.107 222.337C514.107 247.63 534.611 268.134 559.904 268.134C585.197 268.134 605.701 247.63 605.701 222.337C605.701 197.044 585.197 176.54 559.904 176.54Z" fill="#202020"/>
<path d="M93.4393 201.658C85.7284 262.786 55.7217 408.38 63.5234 455.388M86.4221 474.593C137.759 475.331 705.789 474.593 711.329 474.593M604.592 191.316C630.745 230.072 714.893 385.047 733.821 445.416" stroke="#202020" stroke-width="0.738661"/>
<path d="M86.1982 427.496C99.2525 427.496 109.835 438.079 109.835 451.133C109.835 464.187 99.2526 474.77 86.1982 474.771C73.1438 474.771 62.5605 464.187 62.5605 451.133C62.5608 438.079 73.1439 427.496 86.1982 427.496ZM86.1982 441.185C80.7017 441.185 76.2452 445.64 76.2451 451.137C76.2451 456.633 80.7016 461.089 86.1982 461.089C91.6947 461.089 96.1504 456.633 96.1504 451.137C96.1503 445.64 91.6947 441.185 86.1982 441.185Z" fill="#202020"/>
<path d="M711.105 427.496C724.16 427.496 734.743 438.079 734.743 451.134C734.743 464.188 724.16 474.771 711.105 474.771C698.051 474.77 687.469 464.188 687.469 451.134C687.469 438.079 698.051 427.496 711.105 427.496ZM711.105 441.185C705.609 441.185 701.153 445.64 701.153 451.137C701.153 456.633 705.609 461.089 711.105 461.089C716.602 461.089 721.059 456.633 721.059 451.137C721.059 445.64 716.602 441.185 711.105 441.185Z" fill="#202020"/>
<path d="M179.775 378.565H623.873C634.17 378.565 643.156 385.546 645.702 395.522L669.276 487.887H129.291L158.256 394.425C161.179 384.994 169.902 378.565 179.775 378.565Z" stroke="#202020" stroke-width="2.21598"/>
<circle cx="210.516" cy="454.085" r="19.5745" stroke="#202020" stroke-width="2.21598"/>
<circle cx="587.749" cy="454.085" r="19.5745" stroke="#202020" stroke-width="2.21598"/>
<rect x="273.672" y="434.51" width="25.8531" height="25.8531" rx="3.32397" stroke="#202020" stroke-width="2.21598"/>
<path d="M384.842 461.475C384.842 459.027 386.826 457.043 389.274 457.043H408.479C410.927 457.043 412.911 459.027 412.911 461.475V474.771H384.842V461.475Z" fill="#202020"/>
<rect x="498.741" y="434.51" width="25.8531" height="25.8531" rx="3.32397" stroke="#202020" stroke-width="2.21598"/>
<g clip-path="url(#clip0_19_2180)">
<path d="M398.763 386.871C406.106 386.871 412.059 392.824 412.059 400.167C412.059 407.51 406.106 413.463 398.763 413.463C391.42 413.463 385.467 407.51 385.467 400.167C385.467 392.824 391.42 386.871 398.763 386.871ZM399.849 392.21C399.608 391.027 397.917 391.027 397.677 392.21L396.662 397.201C396.573 397.637 396.233 397.978 395.797 398.066L390.806 399.081C389.623 399.322 389.623 401.012 390.806 401.253L395.797 402.268C396.233 402.356 396.573 402.697 396.662 403.133L397.677 408.124C397.917 409.307 399.608 409.307 399.849 408.124L400.863 403.133C400.952 402.697 401.293 402.356 401.729 402.268L406.72 401.253C407.903 401.012 407.903 399.322 406.72 399.081L401.729 398.066C401.293 397.978 400.952 397.637 400.863 397.201L399.849 392.21Z" fill="#202020"/>
</g>
<g clip-path="url(#clip1_19_2180)">
<path d="M33.2393 19.9453C40.5824 19.9453 46.5352 25.8981 46.5352 33.2412C46.5352 40.5843 40.5824 46.5371 33.2393 46.5371C25.8961 46.5371 19.9434 40.5843 19.9434 33.2412C19.9434 25.8981 25.8961 19.9453 33.2393 19.9453ZM34.3252 25.2842C34.0846 24.1013 32.3939 24.1013 32.1533 25.2842L31.1387 30.2754C31.0501 30.7112 30.7092 31.052 30.2734 31.1406L25.2822 32.1553C24.0994 32.3959 24.0994 34.0866 25.2822 34.3271L30.2734 35.3418C30.7092 35.4304 31.0501 35.7713 31.1387 36.207L32.1533 41.1982C32.3939 42.3811 34.0846 42.3811 34.3252 41.1982L35.3398 36.207C35.4285 35.7713 35.7693 35.4304 36.2051 35.3418L41.1963 34.3271C42.3791 34.0865 42.3791 32.3959 41.1963 32.1553L36.2051 31.1406C35.7693 31.052 35.4285 30.7112 35.3398 30.2754L34.3252 25.2842Z" fill="#202020"/>
</g>
<g clip-path="url(#clip2_19_2180)">
<path d="M33.2393 442.27C40.5824 442.27 46.5352 448.222 46.5352 455.565C46.5352 462.909 40.5824 468.861 33.2393 468.861C25.8961 468.861 19.9434 462.909 19.9434 455.565C19.9434 448.222 25.8961 442.27 33.2393 442.27ZM34.3252 447.608C34.0846 446.426 32.3939 446.426 32.1533 447.608L31.1387 452.6C31.0501 453.035 30.7092 453.376 30.2734 453.465L25.2822 454.479C24.0994 454.72 24.0994 456.411 25.2822 456.651L30.2734 457.666C30.7092 457.755 31.0501 458.095 31.1387 458.531L32.1533 463.522C32.3939 464.705 34.0846 464.705 34.3252 463.522L35.3398 458.531C35.4285 458.095 35.7693 457.755 36.2051 457.666L41.1963 456.651C42.3791 456.411 42.3791 454.72 41.1963 454.479L36.2051 453.465C35.7693 453.376 35.4285 453.035 35.3398 452.6L34.3252 447.608Z" fill="#202020"/>
</g>
<g clip-path="url(#clip3_19_2180)">
<path d="M764.288 19.9453C771.631 19.9453 777.584 25.8981 777.584 33.2412C777.584 40.5843 771.631 46.5371 764.288 46.5371C756.945 46.5371 750.992 40.5843 750.992 33.2412C750.992 25.8981 756.945 19.9453 764.288 19.9453ZM765.374 25.2842C765.133 24.1013 763.443 24.1013 763.202 25.2842L762.188 30.2754C762.099 30.7112 761.758 31.052 761.322 31.1406L756.331 32.1553C755.148 32.3959 755.148 34.0866 756.331 34.3271L761.322 35.3418C761.758 35.4304 762.099 35.7713 762.188 36.207L763.202 41.1982C763.443 42.3811 765.133 42.3811 765.374 41.1982L766.389 36.207C766.477 35.7713 766.818 35.4304 767.254 35.3418L772.245 34.3271C773.428 34.0865 773.428 32.3959 772.245 32.1553L767.254 31.1406C766.818 31.052 766.477 30.7112 766.389 30.2754L765.374 25.2842Z" fill="#202020"/>
</g>
<g clip-path="url(#clip4_19_2180)">
<path d="M764.288 442.27C771.631 442.27 777.584 448.222 777.584 455.565C777.584 462.909 771.631 468.861 764.288 468.861C756.945 468.861 750.992 462.909 750.992 455.565C750.992 448.222 756.945 442.27 764.288 442.27ZM765.374 447.608C765.133 446.426 763.443 446.426 763.202 447.608L762.188 452.6C762.099 453.035 761.758 453.376 761.322 453.465L756.331 454.479C755.148 454.72 755.148 456.411 756.331 456.651L761.322 457.666C761.758 457.755 762.099 458.095 762.188 458.531L763.202 463.522C763.443 464.705 765.133 464.705 765.374 463.522L766.389 458.531C766.477 458.095 766.818 457.755 767.254 457.666L772.245 456.651C773.428 456.411 773.428 454.72 772.245 454.479L767.254 453.465C766.818 453.376 766.477 453.035 766.389 452.6L765.374 447.608Z" fill="#202020"/>
</g>
<mask id="mask0_19_2180" style="mask-type:alpha" maskUnits="userSpaceOnUse" x="45" y="41" width="709" height="316">
<path d="M88.1855 42.4717H711.045C717.002 42.4717 722.717 44.8312 726.939 49.0342L745.691 67.7012C749.938 71.929 752.326 77.6745 752.326 83.667V332.396C752.326 344.838 742.239 354.925 729.797 354.925H69.4336C56.9913 354.925 46.9053 344.838 46.9053 332.396V83.667C46.9054 77.6746 49.2923 71.929 53.5391 67.7012L72.291 49.0342C76.5131 44.8311 82.2281 42.4717 88.1855 42.4717ZM229.724 155.486C193.212 155.486 163.613 185.085 163.613 221.597V223.074C163.614 259.586 193.212 289.184 229.724 289.184H568.03C604.542 289.183 634.139 259.586 634.14 223.074V221.597C634.14 185.085 604.542 155.487 568.03 155.486H229.724Z" fill="#EDA35F" stroke="#202020" stroke-width="2.21598"/>
</mask>
<g mask="url(#mask0_19_2180)">
<g clip-path="url(#clip5_19_2180)">
<rect width="707.637" height="314.669" transform="translate(45.7969 41.3633)" fill="#FCF7F2"/>
<g clip-path="url(#clip6_19_2180)">
<rect width="708" height="35.5145" transform="matrix(1 0 0 -1 46.166 356.734)" fill="#9AF3FF"/>
<rect width="708" height="24.4162" transform="matrix(1 0 0 -1 46.166 312.34)" fill="#9AF3FF"/>
<rect width="708" height="4.43931" transform="matrix(1 0 0 -1 46.166 181.383)" fill="#9AF3FF"/>
<rect width="708" height="2.21966" transform="matrix(1 0 0 -1 46.166 159.184)" fill="#9AF3FF"/>
<rect width="708" height="17.7572" transform="matrix(1 0 0 -1 46.166 279.047)" fill="#9AF3FF"/>
<rect width="708" height="8.87862" transform="matrix(1 0 0 -1 46.166 225.773)" fill="#9AF3FF"/>
<rect width="708" height="13.3179" transform="matrix(1 0 0 -1 46.166 250.191)" fill="#9AF3FF"/>
<rect width="708" height="6.65897" transform="matrix(1 0 0 -1 46.166 203.578)" fill="#9AF3FF"/>
</g>
<path d="M341.47 137.263C341.066 137.476 340.661 137.667 340.256 137.838C339.873 138.008 339.468 138.168 339.043 138.317C338.723 138.083 338.372 137.976 337.988 137.998C337.626 138.019 337.264 137.976 336.902 137.87C336.732 137.827 336.572 137.763 336.423 137.678C336.295 137.614 336.167 137.55 336.04 137.486C335.358 137.188 334.666 136.869 333.963 136.528C333.26 136.209 332.632 135.772 332.078 135.218C331.695 135.112 331.312 134.952 330.928 134.739C330.566 134.526 330.268 134.26 330.034 133.94H329.427C329.235 133.664 329.001 133.429 328.724 133.238C328.447 133.067 328.159 132.886 327.861 132.695C327.584 132.524 327.308 132.343 327.031 132.151C326.775 131.96 326.552 131.715 326.36 131.417C326.317 131.438 326.264 131.449 326.2 131.449C326.094 131.449 325.998 131.427 325.913 131.385C325.849 131.342 325.764 131.321 325.657 131.321C325.529 131.108 325.37 130.916 325.178 130.746C324.986 130.597 324.848 130.405 324.763 130.171C324.635 130.235 324.507 130.267 324.379 130.267C324.124 130.267 323.911 130.181 323.74 130.011C323.57 129.819 323.378 129.681 323.165 129.596C322.931 129.681 322.697 129.734 322.462 129.755C322.228 129.777 322.005 129.841 321.792 129.947C321.621 130.011 321.493 130.096 321.408 130.203C321.323 130.33 321.216 130.426 321.089 130.49C321.004 130.533 320.908 130.543 320.801 130.522C320.695 130.522 320.599 130.554 320.514 130.618C320.471 130.639 320.428 130.703 320.386 130.81C320.365 130.916 320.333 130.969 320.29 130.969C320.226 130.969 320.173 130.948 320.13 130.906C320.109 130.884 320.045 130.874 319.939 130.874C319.875 130.874 319.79 130.916 319.683 131.001C319.598 131.087 319.481 131.172 319.332 131.257C319.204 131.363 319.044 131.459 318.852 131.544C318.661 131.63 318.448 131.662 318.214 131.64C317.468 132.215 316.659 132.599 315.786 132.79C315.36 133.152 314.87 133.44 314.316 133.653C313.762 133.866 313.304 134.185 312.942 134.611H312.847C312.57 134.611 312.335 134.654 312.144 134.739C311.952 134.824 311.75 134.92 311.537 135.027C311.345 135.133 311.132 135.229 310.898 135.314C310.685 135.399 310.408 135.442 310.067 135.442C309.982 135.442 309.876 135.506 309.748 135.634C309.62 135.761 309.503 135.847 309.396 135.889C309.056 135.889 308.683 135.921 308.278 135.985C307.874 136.049 307.554 136.219 307.32 136.496C307.149 136.454 307.022 136.432 306.937 136.432C306.596 136.432 306.266 136.485 305.946 136.592C305.648 136.698 305.329 136.752 304.988 136.752C304.754 136.752 304.509 136.698 304.253 136.592C303.955 136.656 303.646 136.773 303.327 136.943C302.815 136.901 302.315 136.837 301.825 136.752C301.357 136.688 300.867 136.677 300.356 136.72C299.908 136.528 299.418 136.358 298.886 136.209C298.375 136.06 297.864 135.889 297.353 135.697C296.841 135.527 296.352 135.314 295.883 135.059C295.436 134.803 295.052 134.473 294.733 134.068C294.499 133.77 294.328 133.419 294.222 133.014C294.115 132.609 294.02 132.194 293.934 131.768C293.87 131.342 293.796 130.906 293.711 130.458C293.647 130.032 293.53 129.628 293.359 129.244C293.402 128.861 293.476 128.488 293.583 128.126C293.689 127.743 293.721 127.359 293.679 126.976C293.913 126.337 294.158 125.709 294.414 125.091C294.69 124.474 294.914 123.835 295.084 123.175C295.596 122.663 296.011 122.088 296.33 121.449C296.671 120.789 297.023 120.14 297.385 119.501C297.683 119.245 297.938 118.99 298.151 118.734C298.386 118.457 298.545 118.106 298.63 117.68C298.758 117.658 298.843 117.605 298.886 117.52C298.95 117.414 299.014 117.318 299.078 117.233C299.142 117.126 299.206 117.041 299.269 116.977C299.355 116.913 299.482 116.881 299.653 116.881C299.887 116.37 300.143 115.859 300.419 115.348C300.718 114.837 301.112 114.432 301.601 114.134C301.729 113.793 301.889 113.484 302.081 113.207C302.294 112.909 302.517 112.632 302.752 112.377C303.007 112.121 303.241 111.866 303.454 111.61C303.689 111.333 303.88 111.024 304.029 110.684C304.583 110.236 305.084 109.725 305.531 109.15C305.999 108.575 306.521 108.064 307.096 107.617C307.16 107.595 307.192 107.542 307.192 107.457C307.213 107.35 307.224 107.276 307.224 107.233C307.267 107.191 307.309 107.169 307.352 107.169C307.394 107.169 307.416 107.18 307.416 107.201C307.437 107.201 307.469 107.201 307.512 107.201C307.575 107.201 307.629 107.18 307.671 107.137C307.671 106.946 307.714 106.797 307.799 106.69C307.884 106.562 307.969 106.445 308.055 106.339C308.161 106.211 308.246 106.094 308.31 105.987C308.395 105.86 308.449 105.711 308.47 105.54C309.002 105.157 309.492 104.742 309.939 104.294C310.387 103.826 310.834 103.368 311.281 102.921C311.75 102.452 312.229 102.015 312.719 101.611C313.23 101.185 313.794 100.844 314.412 100.589V100.365C314.412 100.301 314.423 100.226 314.444 100.141C314.465 100.056 314.497 99.9815 314.54 99.9176C315.306 99.875 315.924 99.5662 316.393 98.9912C316.776 98.9273 317.159 98.8208 317.543 98.6717C317.947 98.5013 318.288 98.2671 318.565 97.9689C318.906 97.9689 319.236 97.9157 319.555 97.8092C319.896 97.7027 320.226 97.5962 320.546 97.4897C320.865 97.3619 321.185 97.2554 321.504 97.1703C321.823 97.0638 322.164 97.0105 322.526 97.0105C322.611 97.0105 322.686 97.0212 322.75 97.0425C322.835 97.0638 322.931 97.0744 323.037 97.0744C323.144 97.0744 323.24 97.0318 323.325 96.9466C323.431 96.8614 323.57 96.8188 323.74 96.8188C324.124 96.8188 324.507 96.9147 324.89 97.1064C325.274 97.2767 325.764 97.3406 326.36 97.298C326.381 97.724 326.477 98.0647 326.647 98.3203C326.839 98.5759 327.073 98.7782 327.35 98.9273C327.648 99.0551 327.968 99.1616 328.309 99.2468C328.649 99.3107 328.99 99.3852 329.331 99.4704C329.352 99.9602 329.554 100.29 329.938 100.461C330.342 100.61 330.758 100.695 331.184 100.716C331.397 101.142 331.737 101.355 332.206 101.355C332.291 101.355 332.376 101.355 332.462 101.355C332.568 101.334 332.675 101.313 332.781 101.291C332.717 101.398 332.685 101.483 332.685 101.547C332.685 101.696 332.76 101.813 332.909 101.898C333.079 101.962 333.228 101.994 333.356 101.994L333.452 101.962C333.473 101.941 333.495 101.93 333.516 101.93V102.058C333.516 102.186 333.516 102.271 333.516 102.314C333.537 102.335 333.59 102.377 333.676 102.441C333.867 102.59 334.07 102.708 334.283 102.793C334.496 102.857 334.708 102.931 334.921 103.016C335.113 103.229 335.273 103.432 335.401 103.623C335.55 103.815 335.773 103.922 336.072 103.943C336.306 104.433 336.593 104.88 336.934 105.285C337.296 105.689 337.669 106.083 338.052 106.467V106.594C338.052 106.978 338.148 107.255 338.34 107.425C338.531 107.574 338.734 107.787 338.947 108.064C338.989 108.362 339.074 108.639 339.202 108.895C339.351 109.15 339.575 109.363 339.873 109.533C339.852 109.64 339.841 109.736 339.841 109.821V110.077C339.841 110.63 339.884 111.173 339.969 111.706C340.054 112.238 340.097 112.781 340.097 113.335C340.097 113.846 340.033 114.325 339.905 114.773C339.799 115.22 339.66 115.667 339.49 116.114C339.319 116.54 339.138 116.966 338.947 117.392C338.755 117.818 338.574 118.265 338.404 118.734C338.255 118.777 338.137 118.851 338.052 118.958L337.797 119.245C337.711 119.33 337.616 119.416 337.509 119.501C337.403 119.565 337.275 119.607 337.126 119.628C337.083 119.756 337.019 119.863 336.934 119.948C336.87 120.033 336.86 120.161 336.902 120.331C336.284 120.757 335.709 121.215 335.177 121.705C334.645 122.195 334.101 122.685 333.548 123.175C332.994 123.409 332.462 123.686 331.95 124.005C331.461 124.303 330.971 124.623 330.481 124.964L329.011 125.954C328.522 126.273 328.021 126.571 327.51 126.848C327.51 126.997 327.478 127.104 327.414 127.168C327.371 127.232 327.329 127.317 327.286 127.423C327.563 127.679 327.819 127.945 328.053 128.222C328.309 128.478 328.564 128.712 328.82 128.925C329.097 129.138 329.384 129.33 329.682 129.5C330.002 129.649 330.374 129.755 330.8 129.819C330.992 130.203 331.237 130.512 331.535 130.746C331.855 130.98 332.185 131.193 332.525 131.385C332.888 131.598 333.239 131.811 333.58 132.024C333.92 132.237 334.219 132.492 334.474 132.79L334.538 132.822C334.623 132.822 334.687 132.79 334.73 132.726C334.772 132.684 334.836 132.663 334.921 132.663C334.943 132.663 334.964 132.663 334.985 132.663C335.007 132.684 335.028 132.695 335.049 132.695C335.454 133.142 335.88 133.504 336.327 133.781C336.796 134.079 337.317 134.281 337.892 134.388C337.978 134.601 338.084 134.76 338.212 134.867C338.34 134.973 338.467 135.048 338.595 135.09C338.744 135.154 338.893 135.208 339.043 135.25C339.213 135.293 339.383 135.357 339.554 135.442C339.724 135.421 339.841 135.357 339.905 135.25C339.99 135.165 340.097 135.08 340.225 134.995C340.544 135.314 340.81 135.655 341.023 136.017C341.236 136.4 341.385 136.816 341.47 137.263ZM337.797 112.536C337.797 112.238 337.765 111.951 337.701 111.674C337.637 111.397 337.626 111.109 337.669 110.811C337.562 110.726 337.488 110.609 337.445 110.46L337.317 109.981C337.275 109.81 337.222 109.661 337.158 109.533C337.115 109.384 337.03 109.278 336.902 109.214C336.923 109.15 336.934 109.044 336.934 108.895C336.934 108.703 336.881 108.532 336.774 108.383C336.689 108.234 336.583 108.085 336.455 107.936C336.348 107.766 336.253 107.606 336.167 107.457C336.082 107.287 336.05 107.106 336.072 106.914C335.624 106.403 335.166 105.902 334.698 105.412C334.251 104.901 333.718 104.486 333.101 104.166C333.058 104.06 333.026 103.964 333.005 103.879C332.983 103.794 332.941 103.698 332.877 103.591H332.174C332.068 103.4 331.908 103.261 331.695 103.176C331.482 103.07 331.258 102.984 331.024 102.921C330.79 102.835 330.566 102.75 330.353 102.665C330.161 102.559 330.012 102.409 329.906 102.218H329.618C329.022 102.218 328.447 102.122 327.893 101.93C327.361 101.717 326.807 101.547 326.232 101.419C326.126 101.526 325.998 101.611 325.849 101.675C325.7 101.717 325.561 101.781 325.433 101.866C325.178 101.632 324.88 101.472 324.539 101.387C324.198 101.302 323.868 101.259 323.549 101.259C322.91 101.259 322.324 101.387 321.792 101.643C321.685 101.6 321.632 101.547 321.632 101.483C321.632 101.419 321.579 101.387 321.472 101.387C321.451 101.408 321.429 101.419 321.408 101.419C321.067 101.504 320.748 101.632 320.45 101.802C320.152 101.973 319.981 102.26 319.939 102.665C320.066 103.219 320.311 103.709 320.673 104.135C321.035 104.539 321.323 105.008 321.536 105.54C321.813 105.625 322.026 105.764 322.175 105.955C322.345 106.147 322.484 106.371 322.59 106.626C322.697 106.861 322.782 107.116 322.846 107.393C322.91 107.67 322.974 107.925 323.037 108.16C322.888 108.138 322.814 108.192 322.814 108.32C322.835 108.426 322.793 108.49 322.686 108.511C322.026 108.256 321.398 107.957 320.801 107.617C320.226 107.255 319.64 106.903 319.044 106.562C318.98 106.349 318.874 106.179 318.725 106.051C318.597 105.924 318.448 105.806 318.277 105.7C318.128 105.572 317.99 105.444 317.862 105.317C317.756 105.167 317.692 104.965 317.67 104.71H316.936C316.893 104.411 316.776 104.177 316.584 104.007C316.393 103.836 316.169 103.666 315.913 103.496C314.849 104.305 313.794 105.146 312.751 106.019C311.728 106.871 310.834 107.862 310.067 108.99H309.939C309.79 108.99 309.652 109.022 309.524 109.086C309.524 109.278 309.45 109.416 309.301 109.502C309.173 109.565 309.12 109.693 309.141 109.885C308.779 110.013 308.481 110.215 308.246 110.492C308.033 110.747 307.831 111.024 307.639 111.322C307.448 111.599 307.235 111.876 307 112.153C306.787 112.409 306.511 112.6 306.17 112.728C305.999 113.111 305.786 113.463 305.531 113.782C305.275 114.102 305.009 114.411 304.732 114.709C304.477 115.007 304.221 115.326 303.966 115.667C303.731 115.987 303.55 116.349 303.422 116.753C303.401 116.753 303.38 116.753 303.359 116.753C303.337 116.732 303.316 116.721 303.295 116.721C303.188 116.721 303.114 116.753 303.071 116.817C303.028 116.881 302.965 116.934 302.879 116.977C302.645 117.488 302.368 117.967 302.049 118.415C301.751 118.84 301.431 119.277 301.09 119.724C300.771 120.15 300.462 120.587 300.164 121.034C299.866 121.481 299.621 121.961 299.429 122.472C299.003 122.94 298.652 123.43 298.375 123.941C298.098 124.431 297.917 124.985 297.832 125.602C297.661 125.752 297.534 125.964 297.448 126.241C297.385 126.497 297.321 126.742 297.257 126.976C297.023 126.976 296.863 127.008 296.778 127.072C296.841 127.455 296.895 127.871 296.937 128.318C296.98 128.744 297.044 129.17 297.129 129.596C297.214 130.022 297.331 130.426 297.48 130.81C297.651 131.214 297.874 131.566 298.151 131.864C298.513 131.992 298.886 132.119 299.269 132.247C299.653 132.396 299.972 132.62 300.228 132.918H300.483C300.718 132.918 300.941 132.95 301.154 133.014C301.367 133.078 301.559 133.195 301.729 133.365C301.836 133.387 301.942 133.397 302.049 133.397H302.4C302.933 133.397 303.454 133.355 303.966 133.27C304.498 133.206 305.03 133.174 305.563 133.174C305.691 133.174 305.808 133.174 305.914 133.174C306.042 133.195 306.17 133.216 306.298 133.238C306.425 133.195 306.574 133.12 306.745 133.014C306.937 132.907 307.096 132.833 307.224 132.79C307.48 132.748 307.735 132.705 307.991 132.663C308.268 132.641 308.544 132.599 308.821 132.535C309.311 132.407 309.79 132.237 310.259 132.024C310.727 131.811 311.196 131.608 311.665 131.417H312.272C312.953 131.118 313.645 130.831 314.348 130.554C315.051 130.277 315.754 129.99 316.457 129.692C317.159 129.393 317.841 129.074 318.501 128.733C319.161 128.371 319.8 127.966 320.418 127.519C320.141 127.413 319.917 127.285 319.747 127.136L319.268 126.657C319.119 126.486 318.948 126.337 318.757 126.209C318.565 126.082 318.309 125.986 317.99 125.922C317.734 125.453 317.351 125.049 316.84 124.708C316.35 124.367 315.85 124.037 315.338 123.718C314.849 123.377 314.412 123.004 314.029 122.599C313.667 122.174 313.486 121.652 313.486 121.034C313.486 120.8 313.507 120.587 313.549 120.395C313.613 120.182 313.677 119.959 313.741 119.724C313.975 119.682 314.167 119.575 314.316 119.405C314.465 119.234 314.657 119.117 314.891 119.053C315.062 119.203 315.296 119.266 315.594 119.245C315.892 119.224 316.158 119.234 316.393 119.277C316.691 119.66 317.021 120.012 317.383 120.331C317.745 120.629 318.118 120.928 318.501 121.226C318.884 121.503 319.257 121.79 319.619 122.088C319.981 122.387 320.322 122.717 320.641 123.079C320.961 123.121 321.248 123.228 321.504 123.398C321.781 123.547 321.983 123.781 322.111 124.101H322.239C322.388 124.101 322.484 124.154 322.526 124.261C322.569 124.346 322.697 124.367 322.91 124.325C322.888 124.367 322.878 124.41 322.878 124.452C322.878 124.601 322.931 124.708 323.037 124.772C323.144 124.814 323.218 124.889 323.261 124.995H323.389C323.687 124.995 323.9 125.081 324.028 125.251C324.177 125.421 324.379 125.539 324.635 125.602C325.167 125.304 325.678 124.985 326.168 124.644C326.658 124.282 327.212 124.016 327.829 123.845C327.915 123.718 328 123.611 328.085 123.526C328.191 123.419 328.298 123.302 328.404 123.175H328.532C328.703 123.196 328.83 123.153 328.916 123.047C329.001 122.94 329.097 122.834 329.203 122.727C329.608 122.621 329.959 122.461 330.257 122.248C330.555 122.014 330.843 121.78 331.12 121.545C331.397 121.29 331.684 121.066 331.982 120.874C332.302 120.661 332.675 120.512 333.101 120.427C333.186 120.299 333.292 120.161 333.42 120.012C333.548 119.841 333.686 119.682 333.835 119.533C333.984 119.384 334.144 119.266 334.314 119.181C334.485 119.096 334.655 119.053 334.826 119.053C335.06 118.627 335.315 118.233 335.592 117.871C335.869 117.488 336.135 117.105 336.391 116.721C336.647 116.338 336.881 115.944 337.094 115.539C337.307 115.113 337.467 114.645 337.573 114.134C337.552 114.049 337.53 113.974 337.509 113.91C337.509 113.846 337.509 113.782 337.509 113.718C337.509 113.548 337.53 113.367 337.573 113.175C337.616 112.962 337.69 112.781 337.797 112.632V112.536ZM329.746 99.8857C329.746 99.907 329.736 99.9283 329.714 99.9496L329.65 99.8218C329.65 99.7366 329.672 99.694 329.714 99.694C329.736 99.7366 329.746 99.8005 329.746 99.8857ZM368.241 133.845C368.241 134.1 368.167 134.313 368.018 134.484C367.869 134.675 367.688 134.824 367.475 134.931C367.262 135.059 367.038 135.165 366.804 135.25C366.57 135.357 366.367 135.463 366.197 135.57C365.707 135.463 365.196 135.367 364.663 135.282C364.131 135.218 363.652 135.08 363.226 134.867C362.353 133.908 361.735 132.801 361.373 131.544C361.032 130.309 360.809 129.074 360.702 127.839C360.659 127.477 360.638 127.125 360.638 126.784C360.638 126.422 360.617 126.06 360.574 125.698C360.532 125.379 360.34 125.187 359.999 125.123C360.255 125.081 360.436 124.953 360.542 124.74C360.649 124.506 360.713 124.25 360.734 123.973C360.755 123.675 360.755 123.387 360.734 123.111C360.734 122.812 360.755 122.568 360.798 122.376C360.628 122.44 360.478 122.589 360.351 122.823C360.223 123.036 360.106 123.281 359.999 123.558C359.893 123.835 359.786 124.112 359.68 124.388C359.595 124.644 359.509 124.846 359.424 124.995C358.53 126.529 357.486 127.924 356.294 129.18C355.122 130.437 353.908 131.683 352.652 132.918C352.29 133.046 351.949 133.206 351.629 133.397C351.31 133.61 351.012 133.834 350.735 134.068C349.926 134.302 349.159 134.42 348.435 134.42C347.775 134.42 347.125 134.324 346.486 134.132C345.847 133.962 345.272 133.664 344.761 133.238L343.579 130.554C343.515 130.384 343.44 130.213 343.355 130.043C343.27 129.851 343.206 129.67 343.164 129.5C343.121 129.308 343.1 129.106 343.1 128.893C343.121 128.659 343.132 128.456 343.132 128.286C343.132 127.541 343.153 126.795 343.196 126.05C343.259 125.283 343.345 124.527 343.451 123.781C343.494 123.483 343.558 123.175 343.643 122.855C343.728 122.536 343.792 122.227 343.834 121.929V121.577C343.834 121.471 343.824 121.343 343.803 121.194C343.781 121.023 343.717 120.917 343.611 120.874C344.122 119.639 344.378 118.351 344.378 117.009C344.378 116.796 344.367 116.594 344.346 116.402C344.346 116.189 344.335 115.976 344.314 115.763C344.463 115.614 344.559 115.444 344.601 115.252C344.644 115.039 344.665 114.826 344.665 114.613C344.665 114.379 344.665 114.155 344.665 113.942C344.686 113.729 344.75 113.527 344.857 113.335C344.835 113.101 344.814 112.877 344.793 112.664C344.793 112.43 344.793 112.196 344.793 111.961C344.793 110.534 344.899 109.129 345.112 107.744C345.347 106.339 345.464 104.923 345.464 103.496V102.154C345.464 101.856 345.464 101.547 345.464 101.227C345.485 100.908 345.528 100.599 345.592 100.301C345.677 100.003 345.794 99.726 345.943 99.4704C346.092 99.1935 346.305 98.9592 346.582 98.7676C346.624 98.7676 346.656 98.7676 346.678 98.7676C346.72 98.7463 346.763 98.7356 346.805 98.7356C346.997 98.7356 347.146 98.7889 347.253 98.8954C347.359 98.9805 347.519 99.0125 347.732 98.9912C348.115 99.5449 348.413 100.131 348.626 100.748C348.861 101.366 348.978 102.015 348.978 102.697C348.978 103.208 348.903 103.709 348.754 104.198C348.605 104.688 348.531 105.199 348.531 105.732C348.531 105.945 348.541 106.158 348.563 106.371C348.584 106.584 348.594 106.797 348.594 107.01C348.594 107.223 348.563 107.436 348.499 107.649C348.456 107.84 348.36 108.011 348.211 108.16C348.254 108.586 348.286 109.022 348.307 109.47C348.328 109.896 348.339 110.321 348.339 110.747C348.339 111.961 348.264 113.175 348.115 114.389C347.966 115.603 347.796 116.817 347.604 118.031C347.412 119.245 347.242 120.459 347.093 121.673C346.944 122.887 346.869 124.112 346.869 125.347V126.273C346.869 126.571 346.891 126.88 346.933 127.2C346.805 127.498 346.742 127.817 346.742 128.158C346.742 128.627 346.848 129.085 347.061 129.532C347.274 129.979 347.53 130.384 347.828 130.746C347.934 130.767 348.03 130.778 348.115 130.778C348.222 130.799 348.328 130.81 348.435 130.81C348.988 130.81 349.478 130.693 349.904 130.458C350.352 130.224 350.767 129.936 351.15 129.596C351.555 129.255 351.949 128.904 352.332 128.541C352.716 128.179 353.131 127.881 353.578 127.647C354.26 126.774 354.899 125.901 355.495 125.027C356.091 124.133 356.666 123.206 357.22 122.248C357.263 121.737 357.39 121.226 357.603 120.715C357.838 120.182 358.072 119.66 358.306 119.149C358.562 118.638 358.785 118.138 358.977 117.648C359.19 117.158 359.296 116.689 359.296 116.242C359.296 116.008 359.222 115.848 359.073 115.763C359.286 115.209 359.446 114.634 359.552 114.038C359.659 113.442 359.744 112.845 359.808 112.249C359.893 111.653 359.978 111.067 360.063 110.492C360.148 109.896 360.276 109.31 360.447 108.735C360.447 108.607 360.436 108.479 360.415 108.351C360.415 108.224 360.415 108.096 360.415 107.968C360.415 106.988 360.51 106.03 360.702 105.093C360.894 104.135 360.99 103.166 360.99 102.186C360.99 101.952 360.968 101.739 360.926 101.547C360.904 101.334 360.894 101.132 360.894 100.94C360.894 100.77 360.947 100.663 361.054 100.62C361.181 100.578 361.245 100.461 361.245 100.269C361.245 100.099 361.224 99.9176 361.181 99.726C361.16 99.5343 361.149 99.3319 361.149 99.119C361.149 98.4588 361.213 97.8092 361.341 97.1703C361.469 96.5313 361.533 95.8818 361.533 95.2215V94.8382C361.533 94.6891 361.511 94.5507 361.469 94.4229C361.618 94.1886 361.82 94.0395 362.076 93.9756C362.331 93.8904 362.576 93.8478 362.811 93.8478C363.194 93.8478 363.513 93.8904 363.769 93.9756C364.174 95.0618 364.514 96.1799 364.791 97.33C365.068 98.4588 365.292 99.6088 365.462 100.78C365.505 101.057 365.558 101.355 365.622 101.675C365.707 101.973 365.75 102.271 365.75 102.569C365.75 102.633 365.728 102.708 365.686 102.793C365.664 102.878 365.643 102.963 365.622 103.048C365.601 103.219 365.579 103.389 365.558 103.56C365.558 103.73 365.558 103.9 365.558 104.071C365.558 104.582 365.59 105.093 365.654 105.604C365.718 106.115 365.75 106.637 365.75 107.169C365.75 107.766 365.664 108.341 365.494 108.895C365.345 109.427 365.228 109.991 365.143 110.588C365.057 111.205 365.025 111.812 365.047 112.409C365.068 113.005 365.025 113.612 364.919 114.23C364.876 114.485 364.813 114.741 364.727 114.996C364.642 115.231 364.6 115.486 364.6 115.763C364.6 115.955 364.61 116.146 364.631 116.338C364.674 116.53 364.695 116.732 364.695 116.945C364.695 117.264 364.621 117.509 364.472 117.68C364.514 117.85 364.546 118.01 364.568 118.159C364.589 118.287 364.631 118.436 364.695 118.606C364.589 118.734 364.514 118.872 364.472 119.022C364.429 119.171 364.408 119.33 364.408 119.501C364.408 119.714 364.419 119.916 364.44 120.108C364.461 120.278 364.472 120.459 364.472 120.651C364.472 121.098 364.397 121.524 364.248 121.929C364.12 122.333 364.035 122.749 363.993 123.175C363.971 123.473 363.961 123.771 363.961 124.069C363.982 124.346 363.993 124.633 363.993 124.932C363.993 125.251 363.971 125.56 363.929 125.858C363.907 126.156 363.822 126.454 363.673 126.753C363.716 126.88 363.769 127.008 363.833 127.136C363.897 127.264 363.993 127.359 364.12 127.423C364.12 128.084 364.206 128.754 364.376 129.436C364.568 130.096 364.823 130.724 365.143 131.321C365.207 131.449 365.302 131.544 365.43 131.608C365.558 131.672 365.675 131.736 365.782 131.8C365.888 131.885 365.973 131.981 366.037 132.088C366.101 132.194 366.112 132.354 366.069 132.567C366.112 132.588 366.176 132.599 366.261 132.599C366.431 132.599 366.57 132.556 366.676 132.471C366.804 132.386 366.953 132.343 367.123 132.343H367.347C367.539 132.535 367.73 132.758 367.922 133.014C368.135 133.27 368.241 133.546 368.241 133.845ZM395.651 137.646C395.587 138.008 395.438 138.264 395.204 138.413C394.991 138.583 394.789 138.818 394.597 139.116H394.469C394.256 139.116 394.043 139.137 393.83 139.18C393.639 139.222 393.436 139.275 393.223 139.339C393.117 139.297 392.989 139.265 392.84 139.243C392.691 139.222 392.595 139.148 392.553 139.02C392.382 139.105 392.148 139.148 391.85 139.148C391.36 139.148 390.891 139.009 390.444 138.732C390.018 138.455 389.571 138.243 389.102 138.093C388.975 137.838 388.815 137.604 388.623 137.391C388.453 137.199 388.272 137.007 388.08 136.816C387.91 136.624 387.739 136.422 387.569 136.209C387.399 135.996 387.26 135.74 387.154 135.442C387.111 135.314 387.058 135.24 386.994 135.218C386.93 135.197 386.834 135.197 386.706 135.218C386.728 134.984 386.696 134.782 386.611 134.611C386.547 134.441 386.387 134.334 386.131 134.292C386.131 134.015 386.089 133.781 386.004 133.589C385.918 133.397 385.812 133.227 385.684 133.078C385.578 132.95 385.45 132.812 385.301 132.663C385.173 132.513 385.066 132.332 384.981 132.119C384.79 132.077 384.598 132.045 384.406 132.024C384.236 132.024 384.044 132.024 383.831 132.024C382.809 132.024 381.819 132.215 380.86 132.599C380.754 132.641 380.637 132.695 380.509 132.758C380.402 132.822 380.296 132.876 380.189 132.918C380.147 132.918 380.104 132.918 380.062 132.918C380.04 132.939 380.008 132.95 379.966 132.95C379.817 132.95 379.678 132.918 379.55 132.854C379.423 132.812 379.284 132.79 379.135 132.79C379.071 132.79 378.997 132.801 378.911 132.822C378.848 132.865 378.784 132.897 378.72 132.918C378.4 133.025 378.102 133.089 377.825 133.11C376.952 133.28 376.026 133.408 375.046 133.493C374.088 133.578 373.204 133.802 372.394 134.164C372.224 134.249 372.118 134.377 372.075 134.547C372.032 134.739 372.022 134.92 372.043 135.09C371.809 135.261 371.628 135.484 371.5 135.761C371.393 136.038 371.287 136.326 371.18 136.624C371.095 136.943 370.999 137.252 370.893 137.55C370.786 137.849 370.637 138.104 370.446 138.317C370.51 138.445 370.542 138.583 370.542 138.732C370.542 139.052 370.435 139.371 370.222 139.691C370.009 140.01 369.849 140.319 369.743 140.617C369.636 140.915 369.551 141.203 369.487 141.48C369.423 141.778 369.328 142.044 369.2 142.278C369.072 142.513 368.902 142.704 368.689 142.853C368.454 143.003 368.135 143.077 367.73 143.077C367.347 143.077 367.017 143.003 366.74 142.853C366.463 142.704 366.239 142.513 366.069 142.278C365.899 142.044 365.76 141.767 365.654 141.448C365.547 141.128 365.462 140.809 365.398 140.489C365.632 140.021 365.856 139.616 366.069 139.275C366.282 138.935 366.442 138.498 366.548 137.966C366.932 137.689 367.219 137.348 367.411 136.943C367.581 136.56 367.677 136.134 367.698 135.666C367.933 135.516 368.103 135.314 368.209 135.059C368.295 134.824 368.348 134.569 368.369 134.292C367.858 134.249 367.326 134.207 366.772 134.164C366.197 134.121 365.664 134.015 365.175 133.845C365.175 133.802 365.185 133.759 365.207 133.717C365.207 133.674 365.207 133.632 365.207 133.589C365.207 133.312 365.143 133.057 365.015 132.822C364.887 132.609 364.823 132.375 364.823 132.119V131.864C364.994 131.694 365.153 131.512 365.302 131.321C365.43 131.15 365.569 130.991 365.718 130.842C365.867 130.693 366.037 130.565 366.229 130.458C366.42 130.373 366.665 130.33 366.964 130.33C367.368 130.33 367.762 130.352 368.146 130.394C368.529 130.458 368.923 130.49 369.328 130.49C369.604 130.49 369.892 130.458 370.19 130.394C370.659 129.436 371.074 128.467 371.436 127.487C371.798 126.486 372.075 125.475 372.267 124.452C372.416 124.239 372.554 123.994 372.682 123.718C372.81 123.419 372.906 123.111 372.969 122.791C373.055 122.472 373.108 122.163 373.129 121.865C373.172 121.545 373.193 121.258 373.193 121.002C373.427 120.725 373.587 120.385 373.672 119.98C373.779 119.575 373.864 119.16 373.928 118.734C373.992 118.287 374.056 117.85 374.12 117.424C374.205 116.998 374.354 116.626 374.567 116.306V116.019C374.588 115.699 374.556 115.412 374.471 115.156C374.577 115.113 374.641 115.018 374.663 114.868C374.684 114.719 374.727 114.592 374.79 114.485C374.812 113.505 374.918 112.547 375.11 111.61C375.302 110.652 375.461 109.693 375.589 108.735V108.639C375.589 108.532 375.546 108.479 375.461 108.479C375.397 108.458 375.365 108.394 375.365 108.288C375.365 108.096 375.387 107.84 375.429 107.521C375.493 107.201 375.536 106.935 375.557 106.722C375.685 105.572 375.749 104.433 375.749 103.304C375.749 102.346 375.717 101.398 375.653 100.461C375.589 99.5236 375.525 98.5759 375.461 97.6175L375.717 97.2341C375.802 97.1064 375.877 96.9786 375.94 96.8508C376.153 96.7656 376.324 96.6804 376.452 96.5952C376.601 96.4887 376.792 96.4355 377.027 96.4355C377.091 96.4355 377.144 96.4461 377.186 96.4674C377.229 96.4674 377.272 96.4674 377.314 96.4674C377.442 96.5526 377.538 96.6698 377.602 96.8188C377.687 96.9679 377.761 97.1064 377.825 97.2341C377.91 97.3619 378.017 97.4684 378.145 97.5536C378.273 97.6388 378.454 97.6601 378.688 97.6175C378.794 98.2138 379.093 98.5226 379.582 98.5439C379.689 98.8421 379.817 99.1403 379.966 99.4384C380.136 99.7366 380.36 99.9709 380.637 100.141C380.615 100.226 380.605 100.344 380.605 100.493C380.605 100.791 380.669 101.078 380.796 101.355C380.945 101.632 381.126 101.888 381.339 102.122V102.186C381.339 102.42 381.254 102.58 381.084 102.665C381.275 102.878 381.414 103.134 381.499 103.432C381.584 103.73 381.659 104.039 381.723 104.358C381.787 104.656 381.861 104.944 381.946 105.221C382.053 105.498 382.223 105.711 382.458 105.86V105.955C382.458 106.062 382.415 106.126 382.33 106.147C382.266 106.168 382.234 106.232 382.234 106.339C382.617 107.042 382.883 107.808 383.033 108.639C383.182 109.47 383.373 110.268 383.608 111.035C383.693 111.12 383.789 111.173 383.895 111.195C384.023 111.216 384.119 111.269 384.183 111.354C384.055 111.44 383.991 111.589 383.991 111.802C383.991 112.015 383.938 112.174 383.831 112.281C384.002 112.43 384.076 112.654 384.055 112.952C384.055 113.229 384.14 113.431 384.31 113.559V113.686C384.31 113.772 384.289 113.846 384.247 113.91C384.204 113.953 384.183 114.017 384.183 114.102V114.23C384.353 114.975 384.481 115.72 384.566 116.466C384.672 117.211 384.779 117.957 384.885 118.702C384.992 119.447 385.109 120.193 385.237 120.938C385.365 121.662 385.546 122.376 385.78 123.079C385.801 123.1 385.812 123.132 385.812 123.175C385.812 123.281 385.769 123.345 385.684 123.366C385.599 123.366 385.556 123.419 385.556 123.526C385.556 123.632 385.588 123.76 385.652 123.909C385.737 124.037 385.823 124.144 385.908 124.229C385.886 124.314 385.876 124.442 385.876 124.612C385.876 124.932 385.929 125.24 386.035 125.539C386.163 125.837 386.291 126.135 386.419 126.433C386.568 126.71 386.696 127.008 386.802 127.328C386.909 127.647 386.951 127.988 386.93 128.35C387.058 128.541 387.218 128.701 387.409 128.829C387.622 128.957 387.835 129.074 388.048 129.18C388.261 129.287 388.453 129.415 388.623 129.564C388.815 129.713 388.943 129.915 389.006 130.171C388.836 130.32 388.719 130.501 388.655 130.714C388.591 130.948 388.474 131.15 388.304 131.321C388.453 131.683 388.623 132.013 388.815 132.311C389.028 132.631 389.241 132.939 389.454 133.238L390.125 134.132C390.359 134.43 390.561 134.75 390.732 135.09C390.966 135.09 391.136 135.154 391.243 135.282C391.349 135.41 391.52 135.463 391.754 135.442C391.839 135.612 391.871 135.804 391.85 136.017C392.276 135.868 392.702 135.793 393.128 135.793C393.362 135.793 393.575 135.804 393.766 135.825C393.979 135.847 394.192 135.857 394.405 135.857C394.661 135.857 394.885 135.825 395.076 135.761C395.161 135.889 395.225 136.028 395.268 136.177C395.311 136.347 395.343 136.517 395.364 136.688L395.46 137.199C395.502 137.369 395.566 137.518 395.651 137.646ZM383.608 128.797C383.309 127.328 383.001 125.869 382.681 124.42C382.383 122.951 382.117 121.471 381.882 119.98C381.755 119.192 381.659 118.404 381.595 117.616C381.531 116.828 381.446 116.051 381.339 115.284C381.254 114.496 381.126 113.718 380.956 112.952C380.807 112.185 380.583 111.429 380.285 110.684V110.62C380.285 110.556 380.306 110.502 380.349 110.46C380.392 110.417 380.413 110.343 380.413 110.236V110.108C380.136 109.917 379.944 109.651 379.838 109.31C379.731 108.948 379.636 108.575 379.55 108.192C379.487 107.787 379.391 107.404 379.263 107.042C379.156 106.658 378.965 106.339 378.688 106.083C378.581 107.319 378.464 108.554 378.336 109.789C378.23 111.003 378.155 112.228 378.113 113.463C377.9 113.591 377.761 113.804 377.698 114.102C377.634 114.4 377.602 114.666 377.602 114.9C377.602 115.071 377.612 115.252 377.634 115.444C377.655 115.614 377.698 115.795 377.761 115.987C377.378 116.945 377.101 117.935 376.931 118.958C376.76 119.959 376.569 120.96 376.356 121.961C376.334 122.024 376.292 122.174 376.228 122.408C376.185 122.621 376.132 122.844 376.068 123.079C376.004 123.313 375.951 123.526 375.909 123.718C375.866 123.888 375.845 123.984 375.845 124.005C375.823 124.154 375.813 124.303 375.813 124.452C375.834 124.601 375.845 124.751 375.845 124.9L375.365 125.379C375.28 126.188 375.121 126.976 374.886 127.743C374.673 128.488 374.45 129.255 374.215 130.043C374.364 130.064 374.503 130.075 374.631 130.075C374.78 130.096 374.929 130.107 375.078 130.107C375.759 130.107 376.441 130.064 377.122 129.979C377.825 129.873 378.517 129.777 379.199 129.692C379.433 129.649 379.678 129.617 379.934 129.596C380.189 129.553 380.434 129.532 380.669 129.532C380.775 129.511 380.903 129.511 381.052 129.532C381.201 129.532 381.329 129.521 381.435 129.5C381.606 129.457 381.712 129.393 381.755 129.308C381.819 129.202 381.936 129.138 382.106 129.117C382.234 129.18 382.383 129.212 382.553 129.212C382.745 129.212 382.926 129.17 383.096 129.085C383.267 128.999 383.437 128.904 383.608 128.797ZM418.844 100.493C418.717 100.706 418.621 100.929 418.557 101.164C418.514 101.398 418.482 101.632 418.461 101.866H418.237C418.067 101.866 417.918 101.845 417.79 101.802C417.662 101.739 417.513 101.685 417.343 101.643C417.428 102.452 417.481 103.272 417.503 104.103C417.524 104.933 417.535 105.753 417.535 106.562C417.535 107.585 417.524 108.607 417.503 109.629C417.481 110.63 417.471 111.642 417.471 112.664C417.471 113.154 417.439 113.644 417.375 114.134C417.332 114.602 417.204 115.06 416.991 115.507C417.034 115.869 417.066 116.221 417.087 116.562C417.109 116.881 417.119 117.222 417.119 117.584C417.119 118.585 417.055 119.586 416.928 120.587C416.821 121.567 416.683 122.546 416.512 123.526C416.448 123.909 416.384 124.303 416.321 124.708C416.278 125.091 416.203 125.464 416.097 125.826C416.054 125.933 415.99 126.039 415.905 126.146C415.841 126.252 415.788 126.358 415.746 126.465C415.49 127.019 415.202 127.572 414.883 128.126C414.585 128.659 414.223 129.148 413.797 129.596C413.477 129.617 413.169 129.702 412.87 129.851C412.572 130 412.295 130.075 412.04 130.075C411.805 130.075 411.614 129.958 411.465 129.724L411.145 129.851C411.039 129.894 410.922 129.926 410.794 129.947C410.07 129.649 409.378 129.287 408.717 128.861C408.078 128.435 407.546 127.881 407.12 127.2H406.992C406.801 127.2 406.662 127.157 406.577 127.072C406.47 126.965 406.353 126.838 406.226 126.689C406.119 126.518 406.023 126.369 405.938 126.241C405.682 125.837 405.406 125.432 405.107 125.027C404.809 124.623 404.458 124.282 404.053 124.005C403.883 123.366 403.627 122.823 403.286 122.376C402.946 121.907 402.594 121.407 402.232 120.874C401.955 119.81 401.444 118.819 400.699 117.903C400.805 117.797 400.859 117.722 400.859 117.68C400.859 117.573 400.816 117.488 400.731 117.424C400.667 117.339 400.635 117.254 400.635 117.169C400.635 117.083 400.656 117.02 400.699 116.977C400.422 116.679 400.188 116.349 399.996 115.987C399.826 115.603 399.655 115.22 399.485 114.837C399.336 114.453 399.165 114.07 398.974 113.686C398.803 113.303 398.59 112.952 398.335 112.632C398.101 112.781 397.951 112.962 397.888 113.175C397.845 113.388 397.824 113.612 397.824 113.846C397.824 114.017 397.824 114.187 397.824 114.357C397.845 114.528 397.856 114.698 397.856 114.868C397.856 115.294 397.802 115.71 397.696 116.114C397.611 116.519 397.547 116.934 397.504 117.36C397.483 117.658 397.472 117.989 397.472 118.351C397.494 118.713 397.483 119.075 397.44 119.437C397.419 119.799 397.366 120.15 397.281 120.491C397.195 120.832 397.046 121.119 396.833 121.354C396.706 122.568 396.546 123.781 396.354 124.995C396.162 126.209 395.981 127.423 395.811 128.637C395.768 128.85 395.726 129.117 395.683 129.436C395.641 129.755 395.587 130.075 395.524 130.394C395.481 130.735 395.438 131.055 395.396 131.353C395.374 131.672 395.364 131.928 395.364 132.119C395.364 132.332 395.417 132.535 395.524 132.726C395.63 132.939 395.683 133.142 395.683 133.333C395.683 133.483 395.63 133.568 395.524 133.589C395.438 133.632 395.385 133.717 395.364 133.845C395.513 134.313 395.587 134.846 395.587 135.442C395.587 135.612 395.577 135.783 395.555 135.953C395.534 136.145 395.502 136.326 395.46 136.496C395.417 136.603 395.343 136.698 395.236 136.784C395.13 136.89 395.076 136.986 395.076 137.071C395.076 137.156 395.119 137.22 395.204 137.263C395.076 137.391 394.917 137.476 394.725 137.518C394.533 137.561 394.395 137.678 394.31 137.87C394.097 137.699 393.884 137.54 393.671 137.391C393.458 137.263 393.255 137.114 393.064 136.943L392.968 136.911C392.819 136.911 392.691 136.954 392.584 137.039C392.499 137.146 392.382 137.199 392.233 137.199C392.19 137.199 392.148 137.188 392.105 137.167C392.084 137.167 392.052 137.167 392.009 137.167L391.818 136.336C391.754 136.06 391.669 135.804 391.562 135.57C391.733 135.122 391.839 134.611 391.882 134.036C391.946 133.483 392.009 132.918 392.073 132.343C392.137 131.768 392.233 131.214 392.361 130.682C392.489 130.171 392.723 129.724 393.064 129.34C393.064 129.17 393 129.053 392.872 128.989C392.766 128.925 392.712 128.786 392.712 128.573C392.712 128.531 392.723 128.456 392.744 128.35C392.787 128.243 392.819 128.126 392.84 127.998C392.883 127.871 392.915 127.753 392.936 127.647C392.978 127.519 393.01 127.423 393.032 127.359C393.202 126.529 393.33 125.677 393.415 124.804C393.522 123.931 393.788 123.121 394.214 122.376C394.192 122.291 394.182 122.163 394.182 121.993C394.182 121.63 394.214 121.279 394.278 120.938C394.363 120.598 394.405 120.246 394.405 119.884C394.405 119.586 394.373 119.309 394.31 119.053C394.373 118.819 394.459 118.596 394.565 118.383C394.693 118.148 394.757 117.914 394.757 117.68C394.757 117.467 394.682 117.318 394.533 117.233C394.64 117.147 394.704 117.051 394.725 116.945C394.767 116.839 394.789 116.732 394.789 116.626C394.81 116.519 394.831 116.423 394.853 116.338C394.895 116.232 394.98 116.146 395.108 116.082C395.087 115.869 395.066 115.667 395.044 115.475C395.044 115.284 395.044 115.081 395.044 114.868C395.044 114.08 395.087 113.303 395.172 112.536C395.257 111.748 395.3 110.95 395.3 110.14C395.3 109.352 395.236 108.586 395.108 107.84L395.46 107.137C395.247 106.967 395.108 106.69 395.044 106.307C394.98 105.924 394.938 105.508 394.917 105.061C394.895 104.614 394.853 104.177 394.789 103.751C394.746 103.304 394.629 102.942 394.437 102.665V102.377C394.437 102.037 394.416 101.707 394.373 101.387C394.331 101.068 394.31 100.748 394.31 100.429V100.141C394.416 100.099 394.491 100.024 394.533 99.9176C394.597 99.8111 394.64 99.7047 394.661 99.5982H394.789C395.044 99.5982 395.3 99.5769 395.555 99.5343C395.811 99.4917 396.067 99.4704 396.322 99.4704H396.737C396.993 99.6621 397.217 99.8857 397.408 100.141C397.6 100.397 397.834 100.631 398.111 100.844V101.419C398.303 101.675 398.452 101.952 398.558 102.25C398.665 102.548 398.771 102.857 398.878 103.176C399.006 103.496 399.133 103.804 399.261 104.103C399.389 104.401 399.57 104.656 399.804 104.869C399.762 105.082 399.74 105.253 399.74 105.38C399.74 105.657 399.762 105.934 399.804 106.211C399.868 106.488 399.911 106.754 399.932 107.01C400.017 107.116 400.092 107.255 400.156 107.425C400.22 107.574 400.326 107.67 400.475 107.713C400.582 108.543 400.795 109.331 401.114 110.077C401.455 110.822 401.7 111.599 401.849 112.409C402.019 112.579 402.147 112.792 402.232 113.048C402.317 113.282 402.403 113.516 402.488 113.75C402.594 113.985 402.701 114.208 402.807 114.421C402.935 114.613 403.116 114.751 403.35 114.837C403.478 115.348 403.638 115.859 403.83 116.37C404.021 116.881 404.319 117.318 404.724 117.68C404.724 118.106 404.788 118.478 404.916 118.798C405.065 119.096 405.225 119.384 405.395 119.66C405.587 119.916 405.757 120.172 405.906 120.427C406.055 120.683 406.151 120.96 406.194 121.258C406.492 121.705 406.833 122.12 407.216 122.504C407.621 122.887 408.025 123.26 408.43 123.622C408.856 123.963 409.271 124.314 409.676 124.676C410.08 125.038 410.453 125.421 410.794 125.826C411.028 125.847 411.22 125.901 411.369 125.986C411.539 126.05 411.731 126.103 411.944 126.146C412.093 126.039 412.21 125.911 412.295 125.762C412.402 125.592 412.498 125.421 412.583 125.251C412.668 125.081 412.753 124.921 412.838 124.772C412.945 124.601 413.073 124.452 413.222 124.325C413.222 124.282 413.211 124.25 413.19 124.229C413.19 124.186 413.19 124.144 413.19 124.101C413.19 123.867 413.222 123.686 413.286 123.558C413.371 123.409 413.467 123.249 413.573 123.079V122.248C413.744 121.929 413.861 121.588 413.925 121.226C413.988 120.864 414.02 120.502 414.02 120.14C414.02 119.841 414.01 119.543 413.988 119.245C413.967 118.926 413.957 118.606 413.957 118.287C413.957 118.095 413.967 117.903 413.988 117.712C414.01 117.499 414.052 117.307 414.116 117.137C414.159 117.094 414.233 117.03 414.34 116.945C414.446 116.839 414.5 116.775 414.5 116.753C414.5 116.647 414.468 116.54 414.404 116.434C414.34 116.327 414.308 116.221 414.308 116.114C414.308 115.965 414.372 115.848 414.5 115.763V115.571C414.5 115.465 414.478 115.369 414.436 115.284C414.414 115.177 414.351 115.103 414.244 115.06C414.351 114.932 414.425 114.783 414.468 114.613C414.51 114.421 414.532 114.23 414.532 114.038C414.553 113.825 414.553 113.623 414.532 113.431C414.532 113.239 414.532 113.058 414.532 112.888C414.532 112.696 414.542 112.494 414.564 112.281C414.585 112.068 414.67 111.887 414.819 111.738C414.755 111.482 414.713 111.237 414.691 111.003C414.67 110.747 414.659 110.492 414.659 110.236C414.659 109.789 414.681 109.342 414.723 108.895C414.766 108.447 414.787 107.989 414.787 107.521C414.787 107.35 414.776 107.18 414.755 107.01C414.734 106.818 414.723 106.637 414.723 106.467C414.723 106.296 414.755 106.222 414.819 106.243C414.904 106.243 414.947 106.19 414.947 106.083C414.947 105.934 414.926 105.785 414.883 105.636C414.862 105.487 414.84 105.338 414.819 105.189C414.776 104.827 414.745 104.465 414.723 104.103C414.702 103.719 414.691 103.336 414.691 102.953C414.691 102.718 414.691 102.484 414.691 102.25C414.713 101.994 414.755 101.749 414.819 101.515C414.691 101.323 414.606 101.142 414.564 100.972C414.542 100.78 414.521 100.61 414.5 100.461L414.436 99.9815C414.414 99.8111 414.351 99.6408 414.244 99.4704C414.223 99.4491 414.212 99.3852 414.212 99.2787C414.212 99.1083 414.255 98.9805 414.34 98.8954C414.233 98.5333 414.084 98.1819 413.893 97.8411C413.722 97.5004 413.616 97.1277 413.573 96.723C413.339 96.5952 413.158 96.3929 413.03 96.116C412.924 95.8179 412.87 95.5516 412.87 95.3174C412.87 95.0405 412.945 94.7743 413.094 94.5187C413.243 94.2418 413.477 94.1034 413.797 94.1034C413.925 94.1034 414.042 94.146 414.148 94.2312C414.276 94.2951 414.393 94.3803 414.5 94.4868C414.627 94.572 414.745 94.6571 414.851 94.7423C414.979 94.8062 415.107 94.8382 415.234 94.8382C415.32 94.8382 415.447 94.8169 415.618 94.7743C415.852 95.0937 416.086 95.3919 416.321 95.6688C416.576 95.9243 416.832 96.1906 417.087 96.4674C417.087 96.8295 417.151 97.1596 417.279 97.4578C417.407 97.7559 417.545 98.0434 417.694 98.3203C417.843 98.5759 417.971 98.8315 418.078 99.087C418.205 99.3426 418.259 99.6195 418.237 99.9176C418.28 100.067 418.365 100.173 418.493 100.237C418.621 100.301 418.738 100.386 418.844 100.493ZM452.292 99.5982C452.122 99.7047 451.941 99.7685 451.749 99.7898C451.557 99.8111 451.355 99.8431 451.142 99.8857C450.95 99.907 450.769 99.9496 450.599 100.013C450.429 100.077 450.301 100.194 450.216 100.365C450.003 100.152 449.768 99.9709 449.513 99.8218C449.257 99.6727 449.002 99.513 448.746 99.3426C448.533 99.4065 448.32 99.4917 448.107 99.5982C447.894 99.7047 447.681 99.7579 447.468 99.7579C447.319 99.7579 447.17 99.7047 447.021 99.5982C446.851 99.726 446.648 99.8324 446.414 99.9176C446.201 99.9815 445.967 100.045 445.711 100.109C445.477 100.173 445.253 100.258 445.04 100.365C444.849 100.471 444.71 100.631 444.625 100.844C444.582 100.738 444.476 100.706 444.305 100.748C444.156 100.791 444.071 100.738 444.05 100.589C443.368 100.823 442.676 101.025 441.973 101.195C441.271 101.366 440.568 101.547 439.865 101.739C439.162 101.93 438.47 102.143 437.788 102.377C437.107 102.612 436.447 102.899 435.808 103.24C435.786 103.261 435.776 103.293 435.776 103.336C435.776 103.549 435.808 103.751 435.872 103.943C435.936 104.135 435.989 104.316 436.031 104.486C435.648 105.785 435.392 107.106 435.265 108.447C435.137 109.789 434.967 111.109 434.754 112.409V112.536C434.754 112.643 434.796 112.728 434.881 112.792C434.967 112.835 435.009 112.92 435.009 113.048L434.977 113.111C434.871 113.175 434.796 113.271 434.754 113.399C434.711 113.505 434.69 113.623 434.69 113.75C434.69 113.836 434.711 113.963 434.754 114.134C434.392 115.348 434.147 116.583 434.019 117.839C433.912 119.096 433.774 120.353 433.603 121.609L433.316 123.718C433.273 123.845 433.231 123.973 433.188 124.101C433.167 124.207 433.156 124.325 433.156 124.452C433.156 125.134 433.199 125.805 433.284 126.465C433.391 127.104 433.422 127.764 433.38 128.446C433.572 128.744 433.667 129.031 433.667 129.308C433.667 129.415 433.657 129.521 433.635 129.628C433.635 129.734 433.625 129.841 433.603 129.947C433.88 130.224 434.2 130.416 434.562 130.522C434.945 130.65 435.286 130.842 435.584 131.097V131.225C435.584 131.438 435.552 131.64 435.488 131.832C435.424 132.045 435.371 132.258 435.329 132.471C435.286 132.641 435.233 132.886 435.169 133.206C435.126 133.525 435.062 133.738 434.977 133.845C434.871 133.994 434.711 134.121 434.498 134.228C434.306 134.356 434.115 134.42 433.923 134.42C433.859 134.42 433.763 134.388 433.635 134.324C433.529 134.26 433.444 134.207 433.38 134.164C433.273 134.164 433.135 134.217 432.965 134.324C432.794 134.43 432.624 134.484 432.453 134.484C432.368 134.484 432.294 134.473 432.23 134.452C432.166 134.452 432.091 134.43 432.006 134.388C431.921 134.175 431.793 133.983 431.623 133.813C431.474 133.664 431.293 133.514 431.08 133.365C431.101 133.067 431.048 132.844 430.92 132.695C430.792 132.545 430.664 132.354 430.537 132.119C430.494 131.821 430.451 131.481 430.409 131.097C430.388 130.714 430.228 130.437 429.93 130.267C430.036 130.118 430.089 129.915 430.089 129.66C430.089 129.553 430.068 129.436 430.026 129.308C430.004 129.18 429.94 129.085 429.834 129.021V128.957C429.813 128.85 429.844 128.776 429.93 128.733C430.036 128.669 430.089 128.584 430.089 128.478V128.35C429.94 127.668 429.866 126.955 429.866 126.209C429.866 125.507 429.887 124.814 429.93 124.133C429.972 123.43 429.972 122.727 429.93 122.024C430.057 121.918 430.153 121.748 430.217 121.513C430.302 121.279 430.366 121.023 430.409 120.747C430.451 120.47 430.473 120.204 430.473 119.948C430.494 119.671 430.515 119.447 430.537 119.277C430.643 118.063 430.814 116.87 431.048 115.699C431.282 114.506 431.421 113.292 431.463 112.057C431.57 111.887 431.633 111.663 431.655 111.386C431.676 111.109 431.687 110.822 431.687 110.524C431.687 110.204 431.708 109.896 431.751 109.597C431.793 109.299 431.878 109.044 432.006 108.831C432.006 108.234 432.059 107.638 432.166 107.042C432.272 106.424 432.326 105.806 432.326 105.189C432.326 104.891 432.294 104.582 432.23 104.262C432.017 104.177 431.825 104.135 431.655 104.135C431.421 104.135 431.176 104.188 430.92 104.294C430.686 104.379 430.515 104.518 430.409 104.71C429.94 104.731 429.482 104.805 429.035 104.933C428.588 105.061 428.141 105.125 427.693 105.125H427.374C427.289 105.125 427.193 105.114 427.086 105.093C426.937 105.157 426.778 105.21 426.607 105.253C426.458 105.295 426.394 105.423 426.416 105.636C425.755 105.7 425.106 105.838 424.467 106.051C423.849 106.264 423.232 106.499 422.614 106.754C421.996 106.988 421.379 107.212 420.761 107.425C420.122 107.638 419.473 107.776 418.812 107.84C418.578 107.947 418.429 108.17 418.365 108.511C417.897 108.469 417.503 108.351 417.183 108.16C416.864 107.968 416.491 107.787 416.065 107.617C415.937 107.169 415.873 106.743 415.873 106.339C415.873 105.806 415.98 105.295 416.193 104.805C416.406 104.316 416.747 103.954 417.215 103.719C417.322 103.741 417.417 103.762 417.503 103.783C417.588 103.783 417.684 103.783 417.79 103.783C418.131 103.783 418.472 103.719 418.812 103.591C419.153 103.464 419.505 103.4 419.867 103.4C419.973 103.4 420.09 103.432 420.218 103.496C420.367 103.41 420.559 103.347 420.793 103.304C421.006 103.24 421.208 103.187 421.4 103.144C421.613 103.08 421.805 102.995 421.975 102.889C422.145 102.782 422.252 102.633 422.295 102.441C422.401 102.527 422.518 102.58 422.646 102.601C422.774 102.622 422.901 102.633 423.029 102.633C423.306 102.633 423.594 102.58 423.892 102.473C424.19 102.367 424.424 102.196 424.595 101.962C424.744 102.133 424.957 102.218 425.234 102.218C425.532 102.218 425.819 102.143 426.096 101.994C426.394 101.824 426.682 101.739 426.959 101.739C427.172 101.739 427.331 101.813 427.438 101.962C427.672 101.771 427.949 101.621 428.268 101.515C428.588 101.408 428.907 101.313 429.227 101.227C429.568 101.142 429.876 101.046 430.153 100.94C430.451 100.833 430.686 100.684 430.856 100.493C430.963 100.514 431.133 100.525 431.367 100.525C431.729 100.525 432.07 100.482 432.39 100.397C432.73 100.29 433.071 100.194 433.412 100.109L434.083 100.045C434.253 100.024 434.402 99.9709 434.53 99.8857C434.679 99.8005 434.828 99.726 434.977 99.6621C435.126 99.5982 435.275 99.5449 435.424 99.5023C435.595 99.4597 435.797 99.4491 436.031 99.4704C436.543 99.1935 437.086 98.9805 437.661 98.8315C438.236 98.6824 438.821 98.5546 439.418 98.4481C440.014 98.3203 440.6 98.1819 441.175 98.0328C441.75 97.8624 442.293 97.6175 442.804 97.298H442.9C443.326 97.298 443.741 97.2235 444.146 97.0744C444.572 96.9253 444.966 96.723 445.328 96.4674C445.392 96.4887 445.456 96.4994 445.519 96.4994H445.743C446.339 96.4994 446.914 96.4142 447.468 96.2438C448.043 96.0734 448.64 95.9882 449.257 95.9882C449.619 95.9882 449.907 96.0415 450.12 96.148C450.333 96.2332 450.524 96.3503 450.695 96.4994C450.865 96.6272 451.046 96.7549 451.238 96.8827C451.43 97.0105 451.674 97.1064 451.973 97.1703C452.164 97.5323 452.26 97.9263 452.26 98.3523C452.26 98.7569 452.271 99.1722 452.292 99.5982ZM469.224 133.845C469.224 134.1 469.149 134.313 469 134.484C468.851 134.675 468.67 134.824 468.457 134.931C468.244 135.059 468.02 135.165 467.786 135.25C467.552 135.357 467.349 135.463 467.179 135.57C466.689 135.463 466.178 135.367 465.646 135.282C465.113 135.218 464.634 135.08 464.208 134.867C463.335 133.908 462.717 132.801 462.355 131.544C462.014 130.309 461.791 129.074 461.684 127.839C461.642 127.477 461.62 127.125 461.62 126.784C461.62 126.422 461.599 126.06 461.556 125.698C461.514 125.379 461.322 125.187 460.981 125.123C461.237 125.081 461.418 124.953 461.525 124.74C461.631 124.506 461.695 124.25 461.716 123.973C461.738 123.675 461.738 123.387 461.716 123.111C461.716 122.812 461.738 122.568 461.78 122.376C461.61 122.44 461.461 122.589 461.333 122.823C461.205 123.036 461.088 123.281 460.981 123.558C460.875 123.835 460.768 124.112 460.662 124.388C460.577 124.644 460.492 124.846 460.406 124.995C459.512 126.529 458.468 127.924 457.276 129.18C456.104 130.437 454.89 131.683 453.634 132.918C453.272 133.046 452.931 133.206 452.612 133.397C452.292 133.61 451.994 133.834 451.717 134.068C450.908 134.302 450.141 134.42 449.417 134.42C448.757 134.42 448.107 134.324 447.468 134.132C446.829 133.962 446.254 133.664 445.743 133.238L444.561 130.554C444.497 130.384 444.423 130.213 444.337 130.043C444.252 129.851 444.188 129.67 444.146 129.5C444.103 129.308 444.082 129.106 444.082 128.893C444.103 128.659 444.114 128.456 444.114 128.286C444.114 127.541 444.135 126.795 444.178 126.05C444.242 125.283 444.327 124.527 444.433 123.781C444.476 123.483 444.54 123.175 444.625 122.855C444.71 122.536 444.774 122.227 444.817 121.929V121.577C444.817 121.471 444.806 121.343 444.785 121.194C444.763 121.023 444.699 120.917 444.593 120.874C445.104 119.639 445.36 118.351 445.36 117.009C445.36 116.796 445.349 116.594 445.328 116.402C445.328 116.189 445.317 115.976 445.296 115.763C445.445 115.614 445.541 115.444 445.583 115.252C445.626 115.039 445.647 114.826 445.647 114.613C445.647 114.379 445.647 114.155 445.647 113.942C445.669 113.729 445.732 113.527 445.839 113.335C445.818 113.101 445.796 112.877 445.775 112.664C445.775 112.43 445.775 112.196 445.775 111.961C445.775 110.534 445.882 109.129 446.094 107.744C446.329 106.339 446.446 104.923 446.446 103.496V102.154C446.446 101.856 446.446 101.547 446.446 101.227C446.467 100.908 446.51 100.599 446.574 100.301C446.659 100.003 446.776 99.726 446.925 99.4704C447.074 99.1935 447.287 98.9592 447.564 98.7676C447.607 98.7676 447.639 98.7676 447.66 98.7676C447.702 98.7463 447.745 98.7356 447.788 98.7356C447.979 98.7356 448.128 98.7889 448.235 98.8954C448.341 98.9805 448.501 99.0125 448.714 98.9912C449.097 99.5449 449.396 100.131 449.609 100.748C449.843 101.366 449.96 102.015 449.96 102.697C449.96 103.208 449.885 103.709 449.736 104.198C449.587 104.688 449.513 105.199 449.513 105.732C449.513 105.945 449.523 106.158 449.545 106.371C449.566 106.584 449.577 106.797 449.577 107.01C449.577 107.223 449.545 107.436 449.481 107.649C449.438 107.84 449.342 108.011 449.193 108.16C449.236 108.586 449.268 109.022 449.289 109.47C449.31 109.896 449.321 110.321 449.321 110.747C449.321 111.961 449.247 113.175 449.097 114.389C448.948 115.603 448.778 116.817 448.586 118.031C448.395 119.245 448.224 120.459 448.075 121.673C447.926 122.887 447.852 124.112 447.852 125.347V126.273C447.852 126.571 447.873 126.88 447.915 127.2C447.788 127.498 447.724 127.817 447.724 128.158C447.724 128.627 447.83 129.085 448.043 129.532C448.256 129.979 448.512 130.384 448.81 130.746C448.916 130.767 449.012 130.778 449.097 130.778C449.204 130.799 449.31 130.81 449.417 130.81C449.971 130.81 450.46 130.693 450.886 130.458C451.334 130.224 451.749 129.936 452.132 129.596C452.537 129.255 452.931 128.904 453.314 128.541C453.698 128.179 454.113 127.881 454.56 127.647C455.242 126.774 455.881 125.901 456.477 125.027C457.073 124.133 457.648 123.206 458.202 122.248C458.245 121.737 458.373 121.226 458.585 120.715C458.82 120.182 459.054 119.66 459.288 119.149C459.544 118.638 459.767 118.138 459.959 117.648C460.172 117.158 460.279 116.689 460.279 116.242C460.279 116.008 460.204 115.848 460.055 115.763C460.268 115.209 460.428 114.634 460.534 114.038C460.641 113.442 460.726 112.845 460.79 112.249C460.875 111.653 460.96 111.067 461.045 110.492C461.131 109.896 461.258 109.31 461.429 108.735C461.429 108.607 461.418 108.479 461.397 108.351C461.397 108.224 461.397 108.096 461.397 107.968C461.397 106.988 461.493 106.03 461.684 105.093C461.876 104.135 461.972 103.166 461.972 102.186C461.972 101.952 461.95 101.739 461.908 101.547C461.887 101.334 461.876 101.132 461.876 100.94C461.876 100.77 461.929 100.663 462.036 100.62C462.163 100.578 462.227 100.461 462.227 100.269C462.227 100.099 462.206 99.9176 462.163 99.726C462.142 99.5343 462.132 99.3319 462.132 99.119C462.132 98.4588 462.195 97.8092 462.323 97.1703C462.451 96.5313 462.515 95.8818 462.515 95.2215V94.8382C462.515 94.6891 462.494 94.5507 462.451 94.4229C462.6 94.1886 462.802 94.0395 463.058 93.9756C463.314 93.8904 463.558 93.8478 463.793 93.8478C464.176 93.8478 464.496 93.8904 464.751 93.9756C465.156 95.0618 465.497 96.1799 465.773 97.33C466.05 98.4588 466.274 99.6088 466.444 100.78C466.487 101.057 466.54 101.355 466.604 101.675C466.689 101.973 466.732 102.271 466.732 102.569C466.732 102.633 466.71 102.708 466.668 102.793C466.647 102.878 466.625 102.963 466.604 103.048C466.583 103.219 466.561 103.389 466.54 103.56C466.54 103.73 466.54 103.9 466.54 104.071C466.54 104.582 466.572 105.093 466.636 105.604C466.7 106.115 466.732 106.637 466.732 107.169C466.732 107.766 466.647 108.341 466.476 108.895C466.327 109.427 466.21 109.991 466.125 110.588C466.04 111.205 466.008 111.812 466.029 112.409C466.05 113.005 466.008 113.612 465.901 114.23C465.859 114.485 465.795 114.741 465.709 114.996C465.624 115.231 465.582 115.486 465.582 115.763C465.582 115.955 465.592 116.146 465.614 116.338C465.656 116.53 465.678 116.732 465.678 116.945C465.678 117.264 465.603 117.509 465.454 117.68C465.497 117.85 465.528 118.01 465.55 118.159C465.571 118.287 465.614 118.436 465.678 118.606C465.571 118.734 465.497 118.872 465.454 119.022C465.411 119.171 465.39 119.33 465.39 119.501C465.39 119.714 465.401 119.916 465.422 120.108C465.443 120.278 465.454 120.459 465.454 120.651C465.454 121.098 465.379 121.524 465.23 121.929C465.103 122.333 465.017 122.749 464.975 123.175C464.953 123.473 464.943 123.771 464.943 124.069C464.964 124.346 464.975 124.633 464.975 124.932C464.975 125.251 464.953 125.56 464.911 125.858C464.89 126.156 464.804 126.454 464.655 126.753C464.698 126.88 464.751 127.008 464.815 127.136C464.879 127.264 464.975 127.359 465.103 127.423C465.103 128.084 465.188 128.754 465.358 129.436C465.55 130.096 465.805 130.724 466.125 131.321C466.189 131.449 466.285 131.544 466.412 131.608C466.54 131.672 466.657 131.736 466.764 131.8C466.87 131.885 466.955 131.981 467.019 132.088C467.083 132.194 467.094 132.354 467.051 132.567C467.094 132.588 467.158 132.599 467.243 132.599C467.413 132.599 467.552 132.556 467.658 132.471C467.786 132.386 467.935 132.343 468.105 132.343H468.329C468.521 132.535 468.712 132.758 468.904 133.014C469.117 133.27 469.224 133.546 469.224 133.845ZM504.652 138.317C504.652 138.509 504.577 138.679 504.428 138.828C504.301 138.977 504.141 139.094 503.949 139.18C503.758 139.286 503.555 139.382 503.342 139.467C503.151 139.552 502.98 139.627 502.831 139.691C502.597 139.563 502.352 139.478 502.096 139.435C501.862 139.393 501.649 139.286 501.457 139.116H501.234C500.893 139.116 500.627 139.158 500.435 139.243C500.137 139.137 499.892 138.977 499.7 138.764C499.509 138.573 499.328 138.36 499.157 138.125C498.987 137.912 498.816 137.699 498.646 137.486C498.476 137.273 498.263 137.092 498.007 136.943C497.624 135.878 497.283 134.803 496.985 133.717C496.687 132.631 496.463 131.523 496.314 130.394C496.357 130.288 496.389 130.171 496.41 130.043C496.431 129.915 496.442 129.798 496.442 129.692C496.442 129.606 496.421 129.521 496.378 129.436C496.357 129.33 496.293 129.266 496.186 129.244C496.293 129.074 496.357 128.882 496.378 128.669C496.421 128.435 496.442 128.222 496.442 128.03C496.442 127.604 496.399 127.253 496.314 126.976C496.442 126.87 496.495 126.699 496.474 126.465C496.452 126.209 496.506 126.028 496.633 125.922C496.527 125.56 496.474 125.208 496.474 124.868C496.474 124.399 496.527 123.941 496.633 123.494C496.761 123.047 496.825 122.589 496.825 122.12C496.825 122.014 496.815 121.907 496.793 121.801C496.793 121.694 496.783 121.588 496.761 121.481C496.868 121.141 496.964 120.8 497.049 120.459C497.155 120.097 497.209 119.735 497.209 119.373C497.209 119.117 497.166 118.904 497.081 118.734C497.358 117.754 497.549 116.785 497.656 115.827C497.784 114.847 497.901 113.857 498.007 112.856C497.986 112.813 497.965 112.781 497.943 112.76C497.922 112.739 497.911 112.707 497.911 112.664C497.911 112.558 497.965 112.473 498.071 112.409C498.199 112.345 498.252 112.228 498.231 112.057C497.975 112.313 497.762 112.611 497.592 112.952C497.443 113.292 497.294 113.633 497.145 113.974C497.017 114.315 496.868 114.656 496.697 114.996C496.548 115.316 496.346 115.603 496.09 115.859C496.069 116.093 495.995 116.317 495.867 116.53C495.76 116.743 495.707 116.977 495.707 117.233C495.686 117.233 495.664 117.233 495.643 117.233C495.622 117.211 495.59 117.201 495.547 117.201C495.462 117.201 495.398 117.254 495.356 117.36C495.334 117.467 495.27 117.499 495.164 117.456C494.674 118.415 494.131 119.352 493.535 120.267C492.96 121.183 492.204 121.918 491.267 122.472C491.096 122.408 490.936 122.376 490.787 122.376C490.51 122.376 490.234 122.461 489.957 122.631C489.701 122.781 489.531 122.855 489.446 122.855C489.233 122.855 488.966 122.749 488.647 122.536C488.349 122.301 488.04 122.174 487.72 122.152C487.38 121.918 487.092 121.684 486.858 121.449C486.645 121.194 486.315 121.045 485.868 121.002C485.569 120.555 485.271 120.129 484.973 119.724C484.696 119.32 484.419 118.926 484.142 118.542C483.887 118.138 483.653 117.712 483.44 117.264C483.248 116.817 483.099 116.317 482.992 115.763C483.014 115.72 483.024 115.678 483.024 115.635C483.024 115.507 482.96 115.454 482.833 115.475C482.726 115.497 482.673 115.433 482.673 115.284V115.06C482.673 114.89 482.641 114.741 482.577 114.613C482.535 114.464 482.524 114.304 482.545 114.134C482.396 113.899 482.279 113.655 482.194 113.399C482.109 113.143 481.96 112.92 481.747 112.728V112.441C481.747 112.313 481.736 112.196 481.715 112.089C481.715 111.961 481.683 111.855 481.619 111.77C481.576 111.663 481.502 111.599 481.395 111.578C481.374 110.811 481.214 110.034 480.916 109.246C480.639 108.437 480.383 107.659 480.149 106.914C479.979 107.468 479.851 108.032 479.766 108.607C479.681 109.161 479.638 109.725 479.638 110.3V110.843C479.638 111.014 479.659 111.184 479.702 111.354C479.638 111.461 479.542 111.535 479.414 111.578C479.308 111.621 479.244 111.706 479.223 111.834C479.201 111.94 479.191 112.047 479.191 112.153C479.212 112.26 479.212 112.366 479.191 112.473C479.148 112.984 479.084 113.474 478.999 113.942C478.871 114.645 478.722 115.358 478.552 116.082C478.382 116.785 478.296 117.509 478.296 118.255C478.296 118.297 478.296 118.361 478.296 118.446C478.318 118.51 478.328 118.564 478.328 118.606C477.988 118.904 477.806 119.277 477.785 119.724C477.764 120.172 477.711 120.598 477.625 121.002C477.519 121.599 477.391 122.195 477.242 122.791C477.093 123.366 476.965 123.963 476.859 124.58C476.795 124.921 476.742 125.262 476.699 125.602C476.656 125.922 476.614 126.252 476.571 126.593C476.55 126.784 476.475 126.944 476.348 127.072C476.241 127.2 476.167 127.349 476.124 127.519C476.103 127.668 476.092 127.839 476.092 128.03C476.113 128.201 476.124 128.36 476.124 128.51C476.124 128.765 476.103 129.01 476.06 129.244C476.017 129.457 475.89 129.649 475.677 129.819C475.719 130.373 475.815 130.842 475.964 131.225C476.113 131.63 476.284 132.077 476.475 132.567H477.274V132.695C477.274 132.907 477.306 133.099 477.37 133.27C477.455 133.44 477.615 133.514 477.849 133.493C477.828 133.578 477.817 133.685 477.817 133.813C477.817 134.004 477.849 134.175 477.913 134.324C477.998 134.494 478.062 134.675 478.105 134.867C477.679 135.57 477.221 136.091 476.731 136.432C476.241 136.773 475.57 136.943 474.718 136.943H474.207C474.101 136.603 473.973 136.272 473.824 135.953C473.675 135.634 473.526 135.314 473.377 134.995C473.249 134.675 473.132 134.345 473.025 134.004C472.94 133.685 472.897 133.344 472.897 132.982C472.897 132.897 472.908 132.812 472.929 132.726C472.951 132.663 472.961 132.588 472.961 132.503C472.961 132.396 472.919 132.332 472.834 132.311C472.748 132.29 472.706 132.183 472.706 131.992C472.706 131.843 472.695 131.704 472.674 131.576C472.674 131.449 472.674 131.31 472.674 131.161C472.674 130.458 472.727 129.766 472.834 129.085C472.94 128.382 473.015 127.679 473.057 126.976C473.164 126.87 473.217 126.731 473.217 126.561C473.217 126.39 473.27 126.252 473.377 126.146V125.922C473.377 125.539 473.419 125.155 473.504 124.772C473.59 124.388 473.685 124.016 473.792 123.654C473.898 123.292 473.994 122.919 474.079 122.536C474.165 122.152 474.207 121.769 474.207 121.386V120.874C474.207 120.725 474.271 120.661 474.399 120.683C474.548 120.683 474.633 120.598 474.654 120.427C474.697 120.129 474.718 119.841 474.718 119.565C474.74 119.266 474.772 118.968 474.814 118.67C474.921 118.095 475.038 117.52 475.166 116.945C475.293 116.349 475.357 115.752 475.357 115.156V115.06C475.357 114.996 475.411 114.868 475.517 114.677C475.623 114.464 475.677 114.262 475.677 114.07C475.677 113.921 475.645 113.782 475.581 113.655C475.602 113.676 475.645 113.686 475.709 113.686C475.794 113.686 475.847 113.665 475.868 113.623C475.911 113.559 475.964 113.505 476.028 113.463C475.964 113.378 475.932 113.292 475.932 113.207C475.932 113.101 475.943 113.005 475.964 112.92C476.007 112.813 476.028 112.707 476.028 112.6C476.028 112.451 475.954 112.345 475.805 112.281C476.06 111.812 476.241 111.312 476.348 110.779C476.475 110.247 476.561 109.704 476.603 109.15C476.667 108.596 476.72 108.043 476.763 107.489C476.806 106.914 476.901 106.371 477.05 105.86C477.008 105.732 476.976 105.593 476.955 105.444C476.955 105.295 476.955 105.157 476.955 105.029C476.955 104.944 476.944 104.859 476.923 104.773C476.901 104.667 476.912 104.571 476.955 104.486C476.955 104.443 476.965 104.39 476.987 104.326L477.05 104.135C477.093 103.985 477.114 103.836 477.114 103.687C477.136 103.517 477.157 103.347 477.178 103.176C477.221 102.686 477.231 102.186 477.21 101.675C477.21 101.164 477.231 100.652 477.274 100.141C477.21 100.056 477.146 99.9922 477.082 99.9496C477.018 99.8857 476.976 99.8005 476.955 99.694C477.125 99.3958 477.306 99.119 477.498 98.8634C477.711 98.5865 477.988 98.3736 478.328 98.2245C478.392 98.4588 478.563 98.5759 478.839 98.5759C478.967 98.5759 479.127 98.5439 479.319 98.48C479.51 98.4162 479.638 98.331 479.702 98.2245C480.064 98.3523 480.426 98.4162 480.788 98.4162C481.171 98.3949 481.523 98.48 481.842 98.6717C481.906 98.9912 481.991 99.3213 482.098 99.6621C482.204 100.003 482.354 100.312 482.545 100.589C482.588 100.865 482.63 101.206 482.673 101.611C482.716 101.994 482.758 102.399 482.801 102.825C482.843 103.229 482.907 103.623 482.992 104.007C483.078 104.369 483.195 104.656 483.344 104.869C483.365 105.253 483.429 105.636 483.536 106.019C483.642 106.403 483.759 106.775 483.887 107.137C484.015 107.478 484.121 107.798 484.206 108.096C484.313 108.394 484.366 108.639 484.366 108.831C484.366 109.001 484.334 109.118 484.27 109.182C484.228 109.225 484.185 109.31 484.142 109.438C484.228 109.672 484.345 109.874 484.494 110.045C484.643 110.194 484.803 110.375 484.973 110.588C485.293 111.802 485.708 112.984 486.219 114.134C486.73 115.284 487.348 116.391 488.072 117.456C488.264 117.477 488.413 117.531 488.519 117.616C488.647 117.701 488.839 117.722 489.094 117.68V117.903C489.094 118.116 489.137 118.265 489.222 118.351C489.414 118.478 489.637 118.542 489.893 118.542C490.17 118.542 490.383 118.468 490.532 118.319C490.702 118.148 490.862 117.957 491.011 117.744C491.16 117.531 491.309 117.328 491.458 117.137C491.607 116.945 491.81 116.817 492.065 116.753V116.689C492.065 116.519 492.097 116.381 492.161 116.274C492.246 116.146 492.289 116.008 492.289 115.859C492.523 115.688 492.704 115.475 492.832 115.22C492.96 114.964 493.077 114.709 493.183 114.453C493.29 114.176 493.407 113.921 493.535 113.686C493.684 113.452 493.875 113.261 494.11 113.111C494.408 112.196 494.77 111.344 495.196 110.556C495.622 109.768 496.069 108.969 496.538 108.16C496.538 108.096 496.527 108.032 496.506 107.968C496.484 107.883 496.474 107.808 496.474 107.744C496.474 107.723 496.495 107.627 496.538 107.457C496.644 107.244 496.74 107.042 496.825 106.85C496.91 106.658 496.985 106.445 497.049 106.211C497.262 105.551 497.453 104.901 497.624 104.262C497.816 103.623 498.092 103.016 498.454 102.441V101.643C498.838 100.876 499.104 100.067 499.253 99.2148C499.423 98.3629 499.626 97.5323 499.86 96.723C499.903 96.4887 499.977 96.2545 500.084 96.0202C500.211 95.7646 500.361 95.5836 500.531 95.4771C500.467 95.3493 500.435 95.2215 500.435 95.0937C500.435 94.9234 500.456 94.7743 500.499 94.6465C500.563 94.4974 500.616 94.3483 500.659 94.1992C500.595 94.0502 500.563 93.8585 500.563 93.6242C500.563 93.326 500.648 93.0492 500.818 92.7936C500.989 92.5167 501.244 92.3357 501.585 92.2505C501.798 92.3144 501.979 92.4209 502.128 92.57C502.277 92.7191 502.416 92.8788 502.544 93.0492C502.693 93.1983 502.842 93.326 502.991 93.4325C503.161 93.5177 503.374 93.539 503.63 93.4964C503.8 93.8159 503.917 94.1567 503.981 94.5187C504.045 94.8595 504.077 95.2109 504.077 95.5729C504.077 96.0628 504.034 96.5739 503.949 97.1064C503.864 97.6175 503.832 98.1393 503.853 98.6717C503.683 99.0125 503.555 99.3852 503.47 99.7898C503.406 100.173 503.342 100.567 503.278 100.972C503.214 101.377 503.14 101.771 503.055 102.154C502.97 102.537 502.82 102.899 502.607 103.24C502.544 104.198 502.469 105.136 502.384 106.051C502.32 106.967 502.213 107.883 502.064 108.799L501.777 110.62C501.734 110.769 501.692 110.939 501.649 111.131C501.606 111.301 501.585 111.45 501.585 111.578C501.585 111.706 501.596 111.844 501.617 111.993C501.638 112.121 501.702 112.217 501.809 112.281C501.66 112.494 501.553 112.749 501.489 113.048C501.425 113.346 501.362 113.665 501.298 114.006L501.138 114.996C501.095 115.316 501.01 115.603 500.882 115.859V116.21C500.882 117.062 500.733 117.935 500.435 118.83V118.99C500.435 119.096 500.424 119.192 500.403 119.277C500.403 119.341 500.403 119.426 500.403 119.533C500.403 119.682 500.446 119.799 500.531 119.884C500.361 120.438 500.201 121.013 500.052 121.609C499.903 122.184 499.796 122.781 499.732 123.398C499.668 124.229 499.658 125.081 499.7 125.954C499.743 126.806 499.636 127.636 499.381 128.446C499.509 128.829 499.594 129.244 499.636 129.692L499.764 131.033C499.807 131.481 499.871 131.907 499.956 132.311C500.062 132.737 500.254 133.089 500.531 133.365C500.552 133.408 500.563 133.472 500.563 133.557C500.563 133.727 500.52 133.855 500.435 133.94C500.478 134.153 500.552 134.334 500.659 134.484C500.765 134.633 500.872 134.771 500.978 134.899C501.085 135.048 501.17 135.208 501.234 135.378C501.319 135.548 501.362 135.761 501.362 136.017C501.532 136.251 501.798 136.432 502.16 136.56C502.522 136.688 502.884 136.816 503.246 136.943C503.63 137.071 503.96 137.231 504.237 137.423C504.514 137.636 504.652 137.934 504.652 138.317Z" fill="#202020"/>
</g>
</g>
<path d="M710.829 41.3633H88.1771C81.9254 41.3633 75.9282 43.84 71.4982 48.2514L52.7551 66.9162C48.3008 71.3518 45.7969 77.379 45.7969 83.6651V332.396C45.7969 345.45 56.3796 356.033 69.434 356.033H729.573C742.627 356.033 753.21 345.45 753.21 332.396V83.6651C753.21 77.379 750.706 71.3518 746.251 66.9162L727.508 48.2514C723.078 43.84 717.081 41.3633 710.829 41.3633Z" stroke="#202020" stroke-width="2.21598"/>
<g clip-path="url(#clip7_19_2180)">
<path d="M229.723 157.706H568.029C603.317 157.706 631.924 186.312 631.924 221.6V223.077C631.924 258.365 603.317 286.972 568.029 286.972H229.723C194.435 286.972 165.829 258.365 165.829 223.077V221.6C165.829 186.312 194.435 157.706 229.723 157.706Z" stroke="#202020" stroke-width="2.21598"/>
<path d="M559.595 179.016C583.664 179.016 603.176 198.528 603.176 222.597C603.176 246.666 583.664 266.178 559.595 266.178C535.526 266.178 516.014 246.666 516.014 222.597C516.014 198.528 535.526 179.016 559.595 179.016ZM559.344 190.096C554.878 190.096 550.622 190.996 546.749 192.626L550.666 199.41L543.62 203.479L539.706 196.698C532.91 201.859 528.208 209.632 527.096 218.522H534.934V226.659H527.095C528.203 235.547 532.901 243.318 539.69 248.481L543.607 241.698L550.654 245.767L546.731 252.56C550.609 254.194 554.871 255.098 559.344 255.098C563.81 255.098 568.065 254.196 571.938 252.566L568.022 245.784L575.068 241.716L578.981 248.493C585.779 243.33 590.483 235.553 591.592 226.659H583.754V218.522H591.591C590.48 209.637 585.781 201.869 578.991 196.708L575.08 203.484L568.033 199.416L571.949 192.631C568.073 190.998 563.814 190.096 559.344 190.096Z" fill="#202020"/>
<path d="M237.849 179.016C261.918 179.016 281.43 198.528 281.43 222.597C281.43 246.666 261.918 266.178 237.849 266.178C213.78 266.178 194.268 246.666 194.268 222.597C194.268 198.528 213.78 179.016 237.849 179.016ZM237.598 190.096C233.132 190.096 228.876 190.996 225.003 192.626L228.92 199.41L221.874 203.479L217.96 196.698C211.164 201.859 206.461 209.632 205.35 218.522H213.188V226.659H205.349C206.457 235.547 211.155 243.318 217.944 248.481L221.861 241.698L228.908 245.767L224.985 252.56C228.863 254.194 233.125 255.098 237.598 255.098C242.064 255.098 246.319 254.196 250.192 252.566L246.276 245.784L253.322 241.716L257.235 248.493C264.033 243.33 268.737 235.553 269.846 226.659H262.008V218.522H269.845C268.733 209.637 264.035 201.869 257.245 196.708L253.334 203.484L246.287 199.416L250.203 192.631C246.327 190.998 242.068 190.096 237.598 190.096Z" fill="#202020"/>
</g>
<defs>
<clipPath id="clip0_19_2180">
<rect width="26.5918" height="26.5918" fill="white" transform="translate(385.467 386.871)"/>
</clipPath>
<clipPath id="clip1_19_2180">
<rect width="26.5918" height="26.5918" fill="white" transform="translate(19.9434 19.9453)"/>
</clipPath>
<clipPath id="clip2_19_2180">
<rect width="26.5918" height="26.5918" fill="white" transform="translate(19.9434 442.27)"/>
</clipPath>
<clipPath id="clip3_19_2180">
<rect width="26.5918" height="26.5918" fill="white" transform="translate(750.992 19.9453)"/>
</clipPath>
<clipPath id="clip4_19_2180">
<rect width="26.5918" height="26.5918" fill="white" transform="translate(750.992 442.27)"/>
</clipPath>
<clipPath id="clip5_19_2180">
<rect width="707.637" height="314.669" fill="white" transform="translate(45.7969 41.3633)"/>
</clipPath>
<clipPath id="clip6_19_2180">
<rect width="708" height="199.769" fill="white" transform="matrix(1 0 0 -1 46.166 356.734)"/>
</clipPath>
<clipPath id="clip7_19_2180">
<rect x="164.721" y="156.598" width="468.311" height="131.482" rx="65.0021" fill="white"/>
</clipPath>
</defs>
</svg>
