<svg width="44" height="44" viewBox="0 0 44 44" fill="none" xmlns="http://www.w3.org/2000/svg">
<path d="M32.1227 28.05C31.1371 28.05 30.3355 27.2476 30.3355 26.2621C30.3355 25.2765 31.1371 24.4749 32.1227 24.4749C33.1084 24.4749 33.9101 25.2764 33.9101 26.2621C33.9101 27.2478 33.1084 28.05 32.1227 28.05ZM12.3671 28.05C11.3815 28.05 10.5799 27.2476 10.5799 26.2621C10.5799 25.2765 11.3814 24.4749 12.3671 24.4749C13.3526 24.4749 14.1543 25.2764 14.1543 26.2621C14.1543 27.2478 13.3528 28.05 12.3671 28.05ZM32.7637 17.2835L36.3359 11.0967C36.4342 10.926 36.4608 10.7232 36.4098 10.5329C36.3588 10.3426 36.2344 10.1803 36.0638 10.0816C35.8931 9.98328 35.6903 9.95673 35.5 10.0077C35.3097 10.0587 35.1474 10.1831 35.0487 10.3536L31.4319 16.6185C28.6658 15.3564 25.5596 14.6532 22.2449 14.6532C18.9302 14.6532 15.8239 15.3564 13.058 16.6185L9.44106 10.3536C9.34233 10.1831 9.18002 10.0587 8.98972 10.0077C8.79942 9.95673 8.59666 9.98328 8.42591 10.0816C8.25528 10.1802 8.13079 10.3425 8.07978 10.5328C8.02877 10.7232 8.05542 10.926 8.15389 11.0967L11.726 17.2835C5.59214 20.6196 1.39694 26.8294 0.783203 34.1659H43.7066C43.0923 26.8295 38.8971 20.6196 32.7637 17.2833" fill="#3DDB85"/>
</svg>
