<svg width="43" height="44" viewBox="0 0 43 44" fill="none" xmlns="http://www.w3.org/2000/svg">
<g clip-path="url(#clip0_1149_20059)">
<path d="M11.5509 12.1529L8.79297 9.3949V29.2834L8.83181 30.2156C8.83181 30.6429 8.9095 31.1479 9.06488 31.6529L30.8956 39.3441L36.3338 36.9358L11.5509 12.1529Z" fill="#00C4B3"/>
<path d="M36.3375 36.9354L30.8993 39.3438L9.10742 31.6525C9.53471 33.2452 10.4281 35.032 11.4381 36.042L18.5467 43.1117L34.3953 43.1505L36.3375 36.9354Z" fill="#22D3C5"/>
<path d="M8.8715 9.3949L0.403357 22.2136C-0.295847 22.9517 0.0537551 24.5055 1.18025 25.6708L6.07468 30.6041L9.14341 31.6917C9.02687 31.1867 8.91034 30.6818 8.91034 30.2545L8.8715 29.3222V9.3949Z" fill="#0075C9"/>
<path d="M31.051 9.62678C30.546 9.51024 30.041 9.43255 29.6137 9.39371L28.6426 9.35486H8.79297L36.3338 36.8957L38.7422 31.4575L31.051 9.62678Z" fill="#0075C9"/>
<path d="M35.4439 11.9579C34.434 10.9479 32.6859 10.0156 31.0545 9.6272L38.7457 31.4579L36.3373 36.8961L42.2417 34.9928V18.7945L35.4439 11.9579Z" fill="#00A8E1"/>
<path d="M29.9631 6.59903L25.0298 1.7046C23.9033 0.578108 22.3495 0.228506 21.5726 0.92771L8.75391 9.39585H28.6035L29.5746 9.4347C30.0019 9.4347 30.5069 9.51238 31.0119 9.66775L29.9631 6.59903Z" fill="#00C4B3"/>
</g>
<defs>
<clipPath id="clip0_1149_20059">
<rect width="42.9233" height="42.9233" fill="white" transform="translate(0.0136719 0.538147)"/>
</clipPath>
</defs>
</svg>
