<svg width="51" height="50" viewBox="0 0 51 50" fill="none" xmlns="http://www.w3.org/2000/svg">
<g clip-path="url(#clip0_1149_20080)">
<path d="M0.705078 41.8396C0.794661 42.9437 1.18424 44.0542 2.20091 45.5437C3.40924 47.3125 5.48424 48.2833 6.99883 46.725C8.01966 45.6729 19.0697 26.3583 24.3947 19.0375C24.5408 18.8282 24.7353 18.6572 24.9616 18.5392C25.1879 18.4212 25.4394 18.3596 25.6947 18.3596C25.9499 18.3596 26.2014 18.4212 26.4277 18.5392C26.6541 18.6572 26.8486 18.8282 26.9947 19.0375C32.3197 26.3583 43.3697 45.6729 44.3905 46.725C45.9051 48.2833 47.9801 47.3125 49.1884 45.5437C50.3759 43.8042 50.7051 42.5854 50.7051 41.2812C50.7051 40.3937 33.4967 8.36873 31.7634 5.70206C30.0967 3.13956 29.5884 2.58123 26.7697 2.48956H24.6197C21.8009 2.58123 21.2926 3.13748 19.6238 5.70206C17.928 8.31248 1.39258 39.0771 0.705078 41.1854V41.8396Z" fill="white"/>
</g>
<defs>
<clipPath id="clip0_1149_20080">
<rect width="50" height="50" fill="white" transform="translate(0.707031)"/>
</clipPath>
</defs>
</svg>
