<svg width="49" height="48" viewBox="0 0 49 48" fill="none" xmlns="http://www.w3.org/2000/svg">
<path d="M17.8277 37.046C17.8277 37.046 16.0039 38.1066 19.1257 38.4654C22.9079 38.8969 24.8408 38.8351 29.0087 38.0462C29.0087 38.0462 30.1046 38.7333 31.6348 39.3284C22.2916 43.3328 10.4889 39.0964 17.8277 37.046ZM16.686 31.8204C16.686 31.8204 14.6403 33.3347 17.7646 33.6578C21.8047 34.0746 24.9953 34.1087 30.5163 33.0456C30.5163 33.0456 31.2799 33.8198 32.4807 34.2432C21.184 37.5465 8.60153 34.5037 16.686 31.8204Z" fill="white"/>
<path d="M26.3108 22.9571C28.6131 25.6076 25.706 27.9928 25.706 27.9928C25.706 27.9928 31.5516 24.9751 28.8669 21.1962C26.3596 17.6723 24.4367 15.9211 34.8462 9.88412C34.8462 9.88412 18.5068 13.9649 26.3108 22.957" fill="#E76F00"/>
<path d="M38.6676 40.912C38.6676 40.912 40.0173 42.024 37.1811 42.8844C31.788 44.5182 14.7344 45.0116 9.99699 42.9495C8.29407 42.2088 11.4877 41.1806 12.4922 40.9648C13.5398 40.7376 14.1386 40.78 14.1386 40.78C12.2447 39.4458 1.89722 43.3997 8.88262 44.5319C27.9326 47.6213 43.6089 43.1409 38.6676 40.912ZM18.704 26.4071C18.704 26.4071 10.0296 28.4676 15.6323 29.2156C17.9978 29.5323 22.7136 29.4608 27.1063 29.0926C30.6962 28.79 34.3009 28.146 34.3009 28.146C34.3009 28.146 33.0351 28.6881 32.1193 29.3135C23.3104 31.6302 6.29334 30.5525 11.1923 28.1826C15.3354 26.18 18.7041 26.4071 18.7041 26.4071H18.704ZM34.2651 35.1052C43.2199 30.452 39.0795 25.9804 36.1897 26.5829C35.4813 26.7302 35.1655 26.8579 35.1655 26.8579C35.1655 26.8579 35.4285 26.4461 35.9307 26.2679C41.6477 24.2579 46.0445 32.1958 34.0852 35.3397C34.0852 35.3398 34.2238 35.216 34.2651 35.1052Z" fill="white"/>
<path d="M28.8669 0.134599C28.8669 0.134599 33.8261 5.09565 24.1633 12.7239C16.4148 18.8433 22.3963 22.3323 24.1601 26.3187C19.6371 22.2379 16.3177 18.6455 18.5447 15.3021C21.813 10.394 30.8677 8.01451 28.8669 0.13446" fill="#E76F00"/>
<path d="M19.5837 47.7127C28.179 48.263 41.378 47.4075 41.6906 43.3404C41.6906 43.3404 41.0898 44.8823 34.5871 46.1067C27.2508 47.4872 18.2026 47.3261 12.8359 46.4412C12.8361 46.4412 13.9346 47.3505 19.5838 47.7127" fill="white"/>
</svg>
