<svg width="48" height="48" viewBox="0 0 48 48" fill="none" xmlns="http://www.w3.org/2000/svg">
<g clip-path="url(#clip0_1149_20093)">
<path d="M27.52 1.40291C27.7651 1.54133 28.0109 1.67866 28.2565 1.81608C28.3538 1.87056 28.4511 1.92504 28.5484 1.97954C28.6207 2.01999 28.6207 2.01999 28.6944 2.06127C34.9701 5.57567 34.9701 5.57567 35.116 5.65738C35.2134 5.71191 35.3108 5.76644 35.4081 5.82096C35.6503 5.95653 35.8924 6.09215 36.1344 6.22787C36.6389 6.51069 37.1439 6.79256 37.6497 7.07308C38.0817 7.31269 38.5124 7.55443 38.9421 7.79808C39.2867 7.99323 39.6326 8.18585 39.979 8.37785C40.4127 8.61823 40.8453 8.86033 41.2763 9.10545C41.519 9.24321 41.7627 9.37892 42.0078 9.5124C43.5467 10.3516 44.7763 11.3219 45.3175 13.0505C45.4591 13.5622 45.4801 14.0551 45.4788 14.5823C45.4789 14.6641 45.4791 14.7459 45.4793 14.8277C45.4798 15.0514 45.4797 15.2751 45.4795 15.4988C45.4794 15.7405 45.4798 15.9821 45.4801 16.2238C45.4807 16.6969 45.4808 17.17 45.4807 17.6431C45.4806 18.0278 45.4807 18.4125 45.4809 18.7972C45.4809 18.852 45.481 18.9068 45.481 18.9633C45.4811 19.0746 45.4811 19.1859 45.4812 19.2973C45.4817 20.341 45.4816 21.3847 45.4813 22.4285C45.481 23.3824 45.4816 24.3364 45.4825 25.2903C45.4834 26.2707 45.4838 27.2511 45.4836 28.2314C45.4835 28.7815 45.4836 29.3315 45.4843 29.8816C45.4848 30.3499 45.4849 30.8183 45.4843 31.2866C45.484 31.5254 45.484 31.7641 45.4846 32.0028C45.4851 32.2218 45.4849 32.4408 45.4843 32.6598C45.4841 32.7386 45.4842 32.8174 45.4846 32.8961C45.4903 34.1693 45.1139 35.2977 44.299 36.2829C44.2791 36.3074 44.2591 36.3319 44.2386 36.3572C43.6832 37.0353 42.8703 37.442 42.1233 37.8721C41.8725 38.017 41.6227 38.1638 41.373 38.3105C41.229 38.3951 41.0849 38.4796 40.9408 38.564C40.9126 38.5805 40.8845 38.597 40.8555 38.614C40.5418 38.7979 40.2277 38.981 39.9135 39.1641C39.5458 39.3784 39.1786 39.5936 38.8114 39.809C38.3541 40.0772 37.8964 40.3449 37.4382 40.6118C37.0705 40.8262 36.7033 41.0414 36.3362 41.2568C35.8788 41.525 35.4211 41.7927 34.963 42.0596C34.5953 42.274 34.228 42.4892 33.8609 42.7045C33.4036 42.9728 32.9458 43.2405 32.4877 43.5074C32.12 43.7218 31.7528 43.937 31.3856 44.1523C30.9283 44.4206 30.4706 44.6883 30.0125 44.9552C29.6738 45.1527 29.3354 45.3508 28.9973 45.5492C28.7426 45.6985 28.4879 45.8478 28.2332 45.9971C28.1554 46.0427 28.1554 46.0427 28.076 46.0892C27.7953 46.2537 27.5143 46.4177 27.2328 46.5809C27.1221 46.6452 27.0118 46.7101 26.9014 46.775C25.6379 47.5114 24.2624 47.7664 22.8319 47.4077C21.8218 47.1366 20.9145 46.5274 20.0126 46.015C19.7104 45.8436 19.4066 45.6751 19.1028 45.5067C18.6688 45.2662 18.2362 45.0235 17.8046 44.7788C17.46 44.5837 17.114 44.391 16.7676 44.199C16.3774 43.9828 15.9881 43.7652 15.6 43.5452C15.1607 43.2961 14.7196 43.0503 14.278 42.8054C13.7775 42.5277 13.2781 42.2481 12.7788 41.9682C12.5361 41.8322 12.2934 41.6962 12.0506 41.5603C11.9533 41.5058 11.856 41.4513 11.7587 41.3969C11.7106 41.3699 11.6624 41.3429 11.6128 41.3151C8.83978 39.7623 8.83978 39.7623 8.69385 39.6805C8.59648 39.626 8.49911 39.5715 8.40173 39.517C8.15961 39.3814 7.91752 39.2458 7.67549 39.1101C7.22424 38.8571 6.77274 38.6046 6.32035 38.3537C5.86358 38.1003 5.40706 37.8465 4.95175 37.5906C4.88866 37.5553 4.88866 37.5553 4.8243 37.5193C3.83441 36.9611 3.07913 36.3407 2.75388 35.2051C2.65791 34.8121 2.66707 34.4228 2.66855 34.0207C2.66836 33.934 2.6681 33.8473 2.66779 33.7605C2.66712 33.5234 2.66731 33.2862 2.66766 33.049C2.66788 32.7928 2.66729 32.5365 2.66682 32.2803C2.66601 31.7786 2.66598 31.277 2.66622 30.7753C2.66641 30.3674 2.66634 29.9594 2.66609 29.5515C2.66606 29.4933 2.66602 29.4352 2.66599 29.3753C2.66591 29.2572 2.66584 29.1391 2.66577 29.021C2.66531 28.2283 2.66512 27.4356 2.66547 26.6429C2.66549 26.6119 2.6655 26.581 2.66551 26.549C2.66563 26.2976 2.66575 26.0461 2.66587 25.7946C2.66634 24.8144 2.66595 23.8342 2.66487 22.854C2.66365 21.7514 2.66305 20.6487 2.66338 19.5461C2.66355 18.9628 2.66344 18.3795 2.66263 17.7962C2.66194 17.2995 2.66191 16.8028 2.66272 16.3061C2.66312 16.053 2.66322 15.7999 2.6625 15.5467C2.66185 15.3144 2.66208 15.0822 2.66298 14.8499C2.66316 14.7664 2.66303 14.6829 2.66253 14.5994C2.65495 13.211 3.09632 11.962 4.05892 10.9458C4.42876 10.5861 4.85834 10.3399 5.30203 10.0825C5.39004 10.0309 5.47803 9.97928 5.56601 9.92762C5.80307 9.78868 6.04061 9.65056 6.27827 9.51265C6.51351 9.37604 6.74841 9.23887 6.98333 9.10174C7.07704 9.04707 7.17075 8.9924 7.26446 8.93773C7.31074 8.91074 7.35701 8.88375 7.40469 8.85594C7.5417 8.77603 7.67874 8.69615 7.81578 8.61629C8.32487 8.31954 8.83355 8.02213 9.34183 7.724C9.98567 7.34637 10.6303 6.97014 11.2752 6.59433C11.8299 6.27107 12.3842 5.94718 12.938 5.62237C13.4914 5.29776 14.0454 4.97408 14.5997 4.65102C14.832 4.51562 15.0642 4.38012 15.2965 4.24463C15.5739 4.08276 15.8514 3.92091 16.1289 3.75917C16.638 3.46243 17.1467 3.16502 17.655 2.86689C18.208 2.54249 18.7617 2.21901 19.3157 1.89616C19.5054 1.78553 19.6951 1.67477 19.8848 1.564C19.9796 1.50869 20.0744 1.45344 20.1692 1.39826C20.3852 1.27261 20.6007 1.1465 20.8153 1.01848C23.2144 -0.407085 25.1912 0.0858554 27.52 1.40291Z" fill="#3CDB84"/>
<path d="M44.6726 11.6704C44.9061 12.0513 45.1127 12.4272 45.2535 12.8526C45.2699 12.9018 45.2699 12.9018 45.2866 12.9521C45.4564 13.4931 45.4801 14.0202 45.4787 14.5823C45.4788 14.6641 45.479 14.7459 45.4792 14.8277C45.4797 15.0514 45.4796 15.2751 45.4794 15.4988C45.4793 15.7405 45.4797 15.9821 45.4801 16.2238C45.4807 16.6969 45.4808 17.17 45.4807 17.6431C45.4806 18.0278 45.4807 18.4125 45.4809 18.7972C45.4809 18.852 45.4809 18.9068 45.4809 18.9633C45.481 19.0746 45.481 19.1859 45.4811 19.2973C45.4816 20.341 45.4815 21.3847 45.4812 22.4285C45.481 23.3824 45.4815 24.3364 45.4824 25.2903C45.4833 26.2707 45.4837 27.2511 45.4835 28.2314C45.4834 28.7815 45.4835 29.3315 45.4842 29.8816C45.4848 30.3499 45.4848 30.8183 45.4843 31.2866C45.484 31.5254 45.4839 31.7641 45.4845 32.0028C45.485 32.2218 45.4849 32.4408 45.4842 32.6598C45.4841 32.7386 45.4842 32.8174 45.4846 32.8962C45.4902 34.1694 45.1138 35.2977 44.299 36.2829C44.279 36.3074 44.2591 36.3319 44.2385 36.3572C43.6831 37.0353 42.8703 37.4421 42.1233 37.8721C41.8724 38.017 41.6227 38.1638 41.3729 38.3105C41.2289 38.3951 41.0848 38.4796 40.9407 38.564C40.9126 38.5805 40.8844 38.597 40.8554 38.614C40.5417 38.7979 40.2276 38.981 39.9134 39.1641C39.5457 39.3784 39.1785 39.5936 38.8114 39.809C38.354 40.0772 37.8963 40.3449 37.4382 40.6119C37.0705 40.8262 36.7032 41.0414 36.3361 41.2568C35.8787 41.525 35.421 41.7927 34.9629 42.0596C34.5952 42.274 34.228 42.4892 33.8608 42.7046C33.4035 42.9728 32.9458 43.2405 32.4877 43.5074C32.12 43.7218 31.7527 43.937 31.3856 44.1523C30.9282 44.4206 30.4705 44.6883 30.0124 44.9552C29.6737 45.1527 29.3354 45.3508 28.9972 45.5492C28.7425 45.6985 28.4878 45.8478 28.2331 45.9971C28.1553 46.0427 28.1553 46.0427 28.0759 46.0892C27.7952 46.2537 27.5142 46.4177 27.2328 46.5809C27.1221 46.6452 27.0117 46.7101 26.9014 46.775C26.1582 47.2082 25.3604 47.5422 24.4867 47.5392C24.4361 47.5391 24.3856 47.539 24.3335 47.5388C24.2757 47.5386 24.2757 47.5386 24.2167 47.5383C24.2087 46.0808 24.2009 44.6233 24.1933 43.1657C24.193 43.1122 24.1928 43.0588 24.1925 43.0036C24.165 37.7095 24.165 37.7095 24.167 35.2321C24.1671 35.1831 24.1671 35.1341 24.1672 35.0837C24.1677 34.5338 24.1685 33.9839 24.17 33.434C24.1428 33.4349 24.1155 33.4357 24.0875 33.4366C23.5221 33.4468 23.0777 33.203 22.5967 32.9261C22.5416 32.8949 22.4865 32.8637 22.4314 32.8326C22.3185 32.7688 22.2058 32.7048 22.0931 32.6405C21.8902 32.5248 21.6864 32.411 21.4825 32.2971C21.338 32.2165 21.1936 32.1356 21.0493 32.0546C20.7585 31.8916 20.4677 31.7287 20.1769 31.5659C20.0796 31.5114 19.9823 31.4569 19.885 31.4024C19.8368 31.3755 19.7886 31.3485 19.739 31.3207C19.2039 31.021 18.6687 30.7213 18.1336 30.4217C18.0854 30.3947 18.0372 30.3677 17.9875 30.3398C17.8908 30.2857 17.7941 30.2315 17.6975 30.1773C17.4448 30.0356 17.1918 29.8946 16.9381 29.7547C16.8856 29.7256 16.8331 29.6965 16.779 29.6666C16.6791 29.6112 16.5791 29.5561 16.4789 29.5013C15.6693 29.0519 15.6693 29.0519 15.4832 28.6236C15.4108 28.3707 15.3781 28.1519 15.3779 27.887C15.3777 27.8351 15.3777 27.8351 15.3775 27.7823C15.3771 27.6676 15.3774 27.5529 15.3777 27.4382C15.3776 27.3556 15.3774 27.2729 15.3772 27.1903C15.3768 26.9665 15.377 26.7427 15.3773 26.519C15.3775 26.2844 15.3773 26.0498 15.3771 25.8152C15.377 25.4212 15.3772 25.0272 15.3776 24.6333C15.3781 24.1784 15.378 23.7235 15.3775 23.2687C15.377 22.8775 15.377 22.4864 15.3772 22.0953C15.3774 21.8619 15.3774 21.6286 15.3771 21.3953C15.3768 21.1758 15.377 20.9563 15.3775 20.7369C15.3777 20.6565 15.3776 20.5762 15.3774 20.4959C15.3758 19.8124 15.4313 19.1652 15.9035 18.6292C16.2048 18.3648 16.5622 18.1748 16.9077 17.9753C16.9683 17.9401 17.0289 17.9048 17.0895 17.8695C17.2121 17.7982 17.3348 17.727 17.4575 17.6559C17.7027 17.5138 17.9473 17.3709 18.192 17.2281C18.2833 17.1749 18.3745 17.1216 18.4658 17.0684C18.7825 16.8837 19.0988 16.6984 19.415 16.5129C19.4433 16.4963 19.4716 16.4798 19.5007 16.4627C19.7027 16.3442 19.9048 16.2257 20.1068 16.1072C20.3374 15.9719 20.568 15.8367 20.7986 15.7015C20.8406 15.6768 20.8406 15.6768 20.8834 15.6517C21.3256 15.3924 21.7683 15.1338 22.2114 14.8761C22.2535 14.8516 22.2955 14.8271 22.3389 14.8019C22.3793 14.7784 22.4197 14.7548 22.4613 14.7306C22.5851 14.6576 22.7077 14.5827 22.8304 14.5078C23.36 14.1899 23.9033 14.0995 24.5073 14.2464C24.7965 14.3296 25.0473 14.4623 25.3084 14.6098C25.3571 14.6367 25.4058 14.6637 25.456 14.6914C25.8052 14.8853 26.1523 15.0831 26.4985 15.2824C26.8316 15.4741 27.1672 15.6612 27.5034 15.8474C27.9415 16.0901 28.3784 16.3347 28.8142 16.5816C29.1396 16.7659 29.4655 16.9491 29.7918 17.1317C29.8398 17.1586 29.8878 17.1855 29.9373 17.2132C30.1912 17.3554 30.4455 17.4972 30.7 17.6384C30.7522 17.6674 30.8045 17.6965 30.8583 17.7264C30.9575 17.7816 31.0569 17.8367 31.1563 17.8916C31.6535 18.1684 32.1145 18.4312 32.4364 18.9094C32.6148 18.8442 32.7658 18.7612 32.9251 18.6582C32.9741 18.6266 33.0231 18.5951 33.0735 18.5627C33.1243 18.5297 33.1751 18.4967 33.2274 18.4628C33.2766 18.4311 33.3257 18.3994 33.3764 18.3667C33.5841 18.2328 33.7916 18.0986 33.9987 17.9637C34.3448 17.7388 34.6955 17.5244 35.0527 17.3174C35.1999 17.2322 35.3467 17.1464 35.4936 17.0606C35.5233 17.0433 35.553 17.026 35.5835 17.0081C35.8737 16.8385 36.162 16.6659 36.4499 16.4925C36.9367 16.1995 37.4251 15.9096 37.9146 15.6211C38.128 15.4953 38.3412 15.3692 38.5545 15.2432C38.6401 15.1926 38.7257 15.142 38.8114 15.0914C38.8537 15.0664 38.8961 15.0413 38.9398 15.0155C42.4075 12.9664 42.4075 12.9664 42.5361 12.8904C42.6212 12.8401 42.7063 12.7899 42.7913 12.7396C43.0135 12.6083 43.2356 12.4771 43.4579 12.3461C43.5039 12.319 43.5499 12.2919 43.5973 12.264C43.6847 12.2124 43.7722 12.1609 43.8597 12.1094C44.0776 11.9809 44.2931 11.85 44.5049 11.7116C44.5792 11.6704 44.5792 11.6704 44.6726 11.6704Z" fill="#4185F3"/>
<path d="M3.15369 12.2308C4.06699 12.6686 4.94286 13.1801 5.82339 13.6795C6.26741 13.9308 6.71434 14.1768 7.16129 14.4229C7.20414 14.4465 7.20414 14.4465 7.24786 14.4706C7.27645 14.4863 7.30503 14.502 7.33448 14.5183C7.78885 14.7685 8.242 15.021 8.69534 15.2731C8.90492 15.3897 9.11455 15.5061 9.32418 15.6226C9.42912 15.6809 9.53405 15.7392 9.63897 15.7975C9.90506 15.9454 10.1712 16.0931 10.4375 16.2405C10.9576 16.5287 11.4764 16.8187 11.9916 17.1157C12.2437 17.2603 12.4984 17.3995 12.7549 17.5362C13.7059 18.0432 14.6193 18.614 15.53 19.1896C15.4868 19.4978 15.4868 19.4978 15.4587 19.646C15.4339 19.8153 15.4304 19.977 15.43 20.1482C15.4299 20.1826 15.4297 20.2171 15.4296 20.2525C15.4292 20.3674 15.4291 20.4822 15.429 20.5971C15.4288 20.6797 15.4286 20.7622 15.4283 20.8448C15.4277 21.0688 15.4274 21.2927 15.4272 21.5167C15.4271 21.6568 15.4269 21.7968 15.4267 21.9369C15.426 22.3755 15.4256 22.814 15.4254 23.2526C15.4252 23.7582 15.4244 24.2638 15.423 24.7694C15.422 25.1606 15.4216 25.5519 15.4215 25.9432C15.4214 26.1767 15.4212 26.4102 15.4203 26.6436C15.4196 26.8634 15.4195 27.0831 15.4199 27.3028C15.4199 27.3832 15.4197 27.4636 15.4192 27.544C15.4136 28.3573 15.4136 28.3573 15.8102 29.0439C15.9149 29.1268 16.0257 29.1905 16.143 29.2541C16.1767 29.2732 16.2105 29.2923 16.2453 29.3119C16.3645 29.3791 16.4843 29.445 16.6041 29.5109C16.7024 29.5657 16.8007 29.6205 16.899 29.6753C17.0871 29.7801 17.2753 29.8847 17.4637 29.9889C17.7776 30.1625 18.0903 30.3381 18.4022 30.5151C18.8415 30.7641 19.2826 31.01 19.7243 31.2549C20.2242 31.5322 20.723 31.8114 21.2216 32.091C21.3724 32.1756 21.5233 32.26 21.6742 32.3445C21.7246 32.3727 21.775 32.401 21.827 32.4301C21.9265 32.4858 22.0261 32.5414 22.1256 32.597C22.3374 32.7153 22.5488 32.8341 22.7584 32.9564C23.153 33.186 23.5086 33.362 23.9672 33.4119C24.0051 33.4161 24.0431 33.4202 24.0822 33.4245C24.1112 33.4276 24.1402 33.4308 24.17 33.434C24.1791 34.0324 24.1866 34.6307 24.1934 35.2291C24.1942 35.302 24.1942 35.302 24.1951 35.3762C24.2243 37.9804 24.2206 40.5848 24.2197 43.1891C24.2196 43.2431 24.2196 43.2972 24.2196 43.3529C24.2191 44.7636 24.2181 46.1743 24.2167 47.585C24.097 47.5781 23.9773 47.571 23.8576 47.5639C23.8239 47.5619 23.7902 47.56 23.7555 47.558C23.5134 47.5434 23.2819 47.516 23.0462 47.4595C22.9936 47.4471 22.9936 47.4471 22.9398 47.4344C21.8851 47.1733 20.9484 46.5467 20.0126 46.015C19.7104 45.8436 19.4066 45.6751 19.1028 45.5067C18.6688 45.2662 18.2362 45.0235 17.8046 44.7788C17.46 44.5837 17.114 44.391 16.7676 44.199C16.3774 43.9828 15.9881 43.7652 15.6 43.5452C15.1607 43.2961 14.7196 43.0503 14.278 42.8053C13.7775 42.5277 13.2781 42.2481 12.7788 41.9682C12.5361 41.8322 12.2934 41.6962 12.0506 41.5603C11.9533 41.5058 11.856 41.4513 11.7587 41.3969C11.7106 41.3699 11.6624 41.3429 11.6128 41.3151C8.83978 39.7622 8.83978 39.7622 8.69385 39.6805C8.59648 39.626 8.49911 39.5715 8.40173 39.517C8.15961 39.3814 7.91752 39.2458 7.67549 39.11C7.22424 38.8571 6.77274 38.6046 6.32035 38.3537C5.86358 38.1003 5.40706 37.8465 4.95175 37.5906C4.88866 37.5553 4.88866 37.5553 4.8243 37.5193C3.83441 36.9611 3.07913 36.3407 2.75388 35.2051C2.65791 34.812 2.66707 34.4228 2.66855 34.0207C2.66836 33.934 2.6681 33.8473 2.66779 33.7605C2.66712 33.5234 2.66731 33.2862 2.66766 33.049C2.66788 32.7928 2.66729 32.5365 2.66682 32.2802C2.66601 31.7786 2.66597 31.277 2.66622 30.7753C2.66641 30.3674 2.66634 29.9594 2.66609 29.5514C2.66606 29.4933 2.66602 29.4352 2.66599 29.3753C2.66591 29.2572 2.66584 29.1391 2.66577 29.021C2.66531 28.2283 2.66512 27.4356 2.66547 26.6429C2.66549 26.6119 2.6655 26.5809 2.66551 26.549C2.66563 26.2975 2.66575 26.0461 2.66587 25.7946C2.66634 24.8144 2.66595 23.8342 2.66487 22.854C2.66365 21.7514 2.66305 20.6487 2.66338 19.5461C2.66355 18.9628 2.66344 18.3795 2.66262 17.7962C2.66194 17.2995 2.66191 16.8028 2.66272 16.3061C2.66312 16.053 2.66322 15.7999 2.6625 15.5467C2.66185 15.3144 2.66208 15.0822 2.66298 14.8499C2.66316 14.7664 2.66302 14.6829 2.66253 14.5994C2.65793 13.7573 2.8088 12.9999 3.15369 12.2308Z" fill="#083042"/>
<path d="M25.3084 14.6098C25.3571 14.6367 25.4058 14.6637 25.456 14.6914C25.8052 14.8853 26.1523 15.0831 26.4985 15.2824C26.8316 15.4741 27.1672 15.6612 27.5034 15.8474C27.9415 16.0901 28.3784 16.3347 28.8142 16.5816C29.1396 16.7659 29.4655 16.9491 29.7918 17.1317C29.8398 17.1586 29.8878 17.1855 29.9373 17.2132C30.1912 17.3554 30.4455 17.4972 30.7 17.6384C30.7522 17.6674 30.8045 17.6965 30.8583 17.7264C30.9575 17.7816 31.0569 17.8367 31.1563 17.8916C31.8789 18.2939 32.4743 18.6841 32.7166 19.5165C32.749 19.7938 32.7482 20.0683 32.7461 20.3472C32.7463 20.4297 32.7467 20.5121 32.7471 20.5946C32.748 20.817 32.7474 21.0394 32.7464 21.2618C32.7457 21.4955 32.7461 21.7292 32.7463 21.9628C32.7465 22.3551 32.7458 22.7473 32.7445 23.1396C32.743 23.592 32.743 24.0444 32.7438 24.4967C32.7445 24.9334 32.7442 25.37 32.7434 25.8066C32.7431 25.9918 32.7432 26.177 32.7435 26.3621C32.7439 26.5805 32.7433 26.7988 32.742 27.0172C32.7417 27.0969 32.7417 27.1767 32.742 27.2564C32.7445 27.9046 32.6743 28.4664 32.2029 28.9505C31.9258 29.2223 31.6213 29.4103 31.2834 29.5985C31.2025 29.6444 31.1216 29.6903 31.0407 29.7362C30.9845 29.7682 30.9282 29.8001 30.8719 29.8319C30.5615 30.0077 30.254 30.1883 29.9465 30.3691C29.8898 30.4024 29.8331 30.4357 29.7764 30.469C29.662 30.5362 29.5476 30.6034 29.4332 30.6706C29.1451 30.8398 28.857 31.0087 28.5688 31.1777C28.5405 31.1943 28.5122 31.2108 28.4831 31.2279C28.0594 31.4763 27.6355 31.7243 27.211 31.9712C26.9537 32.121 26.697 32.2718 26.4409 32.4237C24.7241 33.4403 24.7241 33.4403 24.1466 33.4486C24.0855 33.4503 24.0243 33.4521 23.9613 33.4539C23.4612 33.4292 23.0203 33.17 22.5967 32.9261C22.5416 32.8949 22.4865 32.8637 22.4314 32.8326C22.3185 32.7688 22.2058 32.7047 22.0931 32.6405C21.8902 32.5248 21.6864 32.411 21.4825 32.2971C21.338 32.2165 21.1936 32.1356 21.0493 32.0546C20.7585 31.8916 20.4677 31.7287 20.1769 31.5659C20.0796 31.5114 19.9823 31.4569 19.885 31.4024C19.8368 31.3754 19.7886 31.3485 19.739 31.3207C19.2039 31.021 18.6687 30.7213 18.1336 30.4217C18.0854 30.3947 18.0372 30.3677 17.9875 30.3398C17.8908 30.2857 17.7941 30.2315 17.6975 30.1773C17.4448 30.0356 17.1918 29.8946 16.9381 29.7547C16.8856 29.7256 16.8331 29.6965 16.779 29.6666C16.6791 29.6112 16.5791 29.5561 16.4789 29.5013C15.6693 29.0519 15.6693 29.0519 15.4832 28.6236C15.4108 28.3707 15.3781 28.1519 15.3779 27.8869C15.3777 27.8351 15.3777 27.8351 15.3775 27.7823C15.3771 27.6676 15.3774 27.5529 15.3777 27.4382C15.3776 27.3556 15.3774 27.2729 15.3772 27.1903C15.3768 26.9665 15.377 26.7427 15.3773 26.519C15.3775 26.2844 15.3773 26.0498 15.3771 25.8152C15.377 25.4212 15.3772 25.0272 15.3776 24.6333C15.3781 24.1784 15.378 23.7235 15.3775 23.2687C15.377 22.8775 15.377 22.4864 15.3772 22.0953C15.3774 21.8619 15.3774 21.6286 15.3771 21.3952C15.3768 21.1758 15.377 20.9563 15.3775 20.7369C15.3777 20.6565 15.3776 20.5762 15.3774 20.4959C15.3758 19.8124 15.4313 19.1652 15.9035 18.6291C16.2048 18.3648 16.5622 18.1748 16.9077 17.9753C16.9683 17.9401 17.0289 17.9048 17.0895 17.8695C17.2121 17.7982 17.3348 17.727 17.4575 17.6559C17.7027 17.5138 17.9473 17.3709 18.192 17.2281C18.2833 17.1748 18.3745 17.1216 18.4658 17.0684C18.7825 16.8837 19.0988 16.6984 19.415 16.5129C19.4433 16.4963 19.4716 16.4798 19.5007 16.4627C19.7027 16.3442 19.9048 16.2257 20.1068 16.1072C20.3374 15.9719 20.568 15.8367 20.7986 15.7015C20.8406 15.6768 20.8406 15.6768 20.8834 15.6517C21.3256 15.3924 21.7683 15.1338 22.2114 14.8761C22.2535 14.8516 22.2955 14.8271 22.3389 14.8019C22.3793 14.7783 22.4197 14.7548 22.4613 14.7306C22.5851 14.6576 22.7077 14.5827 22.8304 14.5078C23.6719 14.0026 24.4892 14.1472 25.3084 14.6098Z" fill="#D5EFFE"/>
<path d="M11.3743 16.8544C11.5673 16.8825 11.7077 16.9469 11.8769 17.0425C11.9287 17.0716 11.9805 17.1006 12.0339 17.1306C12.0894 17.1621 12.1449 17.1936 12.2004 17.2251C12.2577 17.2575 12.3151 17.2897 12.3724 17.322C12.4863 17.386 12.6 17.4502 12.7137 17.5144C12.8424 17.5868 12.9714 17.6584 13.101 17.729C13.931 18.1816 14.7312 18.6859 15.5309 19.1896C15.4877 19.4978 15.4877 19.4978 15.4596 19.646C15.4347 19.8153 15.4313 19.977 15.4309 20.1482C15.4308 20.1826 15.4306 20.2171 15.4305 20.2525C15.4301 20.3674 15.43 20.4822 15.4299 20.5971C15.4297 20.6797 15.4295 20.7622 15.4292 20.8448C15.4286 21.0688 15.4283 21.2927 15.4281 21.5167C15.428 21.6568 15.4278 21.7968 15.4276 21.9369C15.4269 22.3755 15.4265 22.814 15.4263 23.2526C15.4261 23.7582 15.4253 24.2638 15.4239 24.7694C15.4229 25.1606 15.4224 25.5519 15.4224 25.9432C15.4223 26.1767 15.4221 26.4102 15.4212 26.6436C15.4204 26.8634 15.4203 27.0831 15.4208 27.3028C15.4208 27.3832 15.4206 27.4636 15.4201 27.544C15.4145 28.3573 15.4145 28.3573 15.8111 29.0439C15.9158 29.1268 16.0266 29.1905 16.1438 29.2541C16.1776 29.2732 16.2114 29.2923 16.2462 29.3119C16.3654 29.3791 16.4852 29.445 16.605 29.5109C16.7033 29.5657 16.8016 29.6205 16.8998 29.6753C17.0879 29.7801 17.2762 29.8847 17.4646 29.9889C17.7785 30.1625 18.0911 30.3381 18.4031 30.5151C18.8424 30.7641 19.2835 31.01 19.7252 31.2549C20.2251 31.5322 20.7238 31.8114 21.2225 32.091C21.3733 32.1756 21.5242 32.26 21.675 32.3445C21.7255 32.3727 21.7759 32.401 21.8279 32.4301C21.9274 32.4858 22.0269 32.5414 22.1265 32.597C22.3383 32.7153 22.5497 32.8341 22.7592 32.9564C23.2378 33.2349 23.6142 33.3721 24.1709 33.434C24.1709 35.006 24.1709 36.578 24.1709 38.1977C23.3229 38.1977 22.7476 37.9037 22.0226 37.4972C21.9797 37.4732 21.9368 37.4493 21.8926 37.4246C21.6699 37.3 21.4478 37.1744 21.2261 37.048C20.9417 36.8859 20.6562 36.7258 20.3705 36.566C20.2977 36.5253 20.2977 36.5253 20.2235 36.4838C20.1251 36.4287 20.0267 36.3737 19.9283 36.3187C19.6845 36.1823 19.4408 36.0458 19.1971 35.9093C19.0998 35.8548 19.0025 35.8003 18.9052 35.7458C17.543 34.983 16.1808 34.2202 14.8186 33.4573C14.7705 33.4304 14.7223 33.4034 14.6726 33.3756C14.5756 33.3212 14.4785 33.2668 14.3814 33.2125C14.1348 33.0743 13.8881 32.9363 13.6412 32.7986C13.3976 32.6627 13.1544 32.5261 12.9113 32.3892C12.7811 32.3163 12.6504 32.2444 12.5196 32.1726C11.8399 31.7961 11.4049 31.4348 11.1381 30.6786C11.0737 30.4472 11.0809 30.2155 11.0816 29.9769C11.0814 29.9255 11.0812 29.8741 11.081 29.8211C11.0804 29.6489 11.0804 29.4768 11.0805 29.3046C11.0802 29.1811 11.0799 29.0576 11.0796 28.934C11.0788 28.6334 11.0785 28.3327 11.0785 28.032C11.0784 27.7874 11.0782 27.5427 11.0779 27.298C11.0771 26.6034 11.0767 25.9087 11.0768 25.2141C11.0768 25.1766 11.0768 25.1392 11.0768 25.1006C11.0768 25.0632 11.0768 25.0257 11.0768 24.9871C11.0768 24.3807 11.0759 23.7744 11.0746 23.168C11.0733 22.5444 11.0726 21.9208 11.0727 21.2972C11.0727 20.9475 11.0725 20.5978 11.0715 20.2481C11.0706 19.9502 11.0704 19.6523 11.0711 19.3543C11.0714 19.2026 11.0713 19.0509 11.0706 18.8992C11.0674 18.1739 11.0918 17.5319 11.3743 16.8544Z" fill="#041619"/>
<path d="M36.5462 16.4808C36.5984 16.5788 36.6498 16.6771 36.7009 16.7756C36.7153 16.8025 36.7298 16.8294 36.7446 16.8571C36.9608 17.2781 37.0343 17.6996 37.031 18.1692C37.0313 18.219 37.0315 18.2688 37.0317 18.3201C37.0323 18.4857 37.0318 18.6512 37.0314 18.8168C37.0316 18.9361 37.0318 19.0553 37.0321 19.1746C37.0327 19.464 37.0326 19.7535 37.0322 20.043C37.0319 20.2784 37.0318 20.5139 37.032 20.7493C37.032 20.7829 37.032 20.8165 37.0321 20.8511C37.0321 20.9194 37.0321 20.9877 37.0322 21.0559C37.0326 21.6951 37.0321 22.3343 37.0314 22.9734C37.0308 23.5209 37.0309 24.0684 37.0315 24.6159C37.0323 25.2528 37.0326 25.8898 37.0321 26.5267C37.0321 26.5947 37.032 26.6627 37.032 26.7308C37.032 26.7642 37.0319 26.7977 37.0319 26.8322C37.0318 27.0671 37.032 27.302 37.0323 27.5369C37.0328 27.8536 37.0325 28.1702 37.0317 28.4869C37.0315 28.6029 37.0315 28.7189 37.0318 28.8348C37.0322 28.9936 37.0317 29.1524 37.031 29.3112C37.0313 29.3566 37.0317 29.4021 37.032 29.4489C37.028 29.9178 36.9189 30.3609 36.7038 30.7778C36.6878 30.8094 36.6717 30.8409 36.6551 30.8735C36.5039 31.1583 36.3153 31.3924 36.0792 31.6126C36.0458 31.6441 36.0458 31.6441 36.0118 31.6762C35.7733 31.8922 35.5063 32.0512 35.2298 32.2139C35.179 32.2441 35.1283 32.2742 35.076 32.3053C34.6384 32.5643 34.197 32.8166 33.7549 33.0679C33.34 33.3038 32.9284 33.545 32.5179 33.7887C32.2054 33.9742 31.8918 34.1581 31.5782 34.3418C31.5493 34.3587 31.5204 34.3757 31.4907 34.3931C31.0605 34.6452 30.6299 34.8966 30.1992 35.1476C29.8315 35.362 29.4642 35.5772 29.0971 35.7925C28.5893 36.0904 28.0811 36.3875 27.5725 36.6839C27.3837 36.7939 27.1951 36.9041 27.0066 37.0145C26.7307 37.1759 26.4546 37.3367 26.1782 37.4972C26.1217 37.53 26.1217 37.53 26.0642 37.5635C25.7076 37.7705 25.3561 37.9716 24.9639 38.1043C24.9099 38.1236 24.856 38.1428 24.8004 38.1627C24.637 38.1977 24.637 38.1977 24.1699 38.1977C24.1699 36.6257 24.1699 35.0537 24.1699 33.434C24.3857 33.3878 24.6015 33.3415 24.8238 33.2939C24.9652 33.2335 25.0869 33.1773 25.2178 33.1013C25.2512 33.0828 25.2845 33.0643 25.3189 33.0452C25.4192 32.9891 25.5186 32.9317 25.6177 32.8736C25.6459 32.8571 25.6741 32.8406 25.7031 32.8236C25.8432 32.741 25.9822 32.657 26.121 32.5724C26.3581 32.4284 26.598 32.2892 26.8378 32.1497C27.2644 31.9014 27.6906 31.6522 28.1163 31.4024C28.5286 31.1606 28.941 30.9192 29.354 30.6785C29.4911 30.5986 29.6282 30.5186 29.7653 30.4386C29.871 30.3769 29.9767 30.3153 30.0824 30.2537C30.4289 30.0519 30.7749 29.8493 31.1202 29.6453C31.2118 29.5913 31.3035 29.5374 31.3953 29.4839C31.9713 29.1474 32.4108 28.8027 32.6247 28.1494C32.6716 27.9629 32.6819 27.8044 32.6824 27.6124C32.6827 27.5606 32.6827 27.5606 32.683 27.5078C32.6836 27.393 32.6835 27.2782 32.6834 27.1633C32.6837 27.0807 32.684 26.998 32.6844 26.9154C32.6852 26.6914 32.6854 26.4675 32.6855 26.2435C32.6856 26.1035 32.6858 25.9634 32.686 25.8234C32.6869 25.3344 32.6872 24.8455 32.6872 24.3566C32.6871 23.9014 32.6881 23.4462 32.6896 22.991C32.6908 22.5996 32.6913 22.2083 32.6912 21.817C32.6912 21.5835 32.6915 21.35 32.6925 21.1165C32.6934 20.8968 32.6934 20.6772 32.6927 20.4575C32.6926 20.3771 32.6928 20.2967 32.6934 20.2163C32.7052 19.6763 32.7052 19.6763 32.5186 19.1776C32.4831 19.0962 32.4831 19.0962 32.4918 18.999C32.5602 18.8376 32.7267 18.7667 32.8713 18.6788C32.9444 18.633 33.0175 18.5872 33.0906 18.5414C33.1289 18.5176 33.1673 18.4937 33.2068 18.4692C33.3598 18.3729 33.5105 18.2733 33.6613 18.1736C34.1035 17.8821 34.5547 17.6087 35.0121 17.3417C35.2113 17.2254 35.4092 17.107 35.6065 16.9875C35.6333 16.9712 35.6601 16.955 35.6878 16.9383C35.8192 16.8588 35.9505 16.779 36.0817 16.699C36.1288 16.6706 36.1759 16.6421 36.2244 16.6127C36.2872 16.5745 36.2872 16.5745 36.3513 16.5355C36.4528 16.4808 36.4528 16.4808 36.5462 16.4808Z" fill="#3870B2"/>
<path d="M26.8279 10.6218C27.1315 10.7946 27.437 10.964 27.7426 11.1333C28.1766 11.3738 28.6092 11.6165 29.0408 11.8612C29.3854 12.0564 29.7314 12.249 30.0778 12.441C30.5117 12.6815 30.9444 12.9242 31.376 13.1689C31.7206 13.3641 32.0665 13.5567 32.4129 13.7487C32.8464 13.989 33.2788 14.2311 33.7098 14.476C33.955 14.6151 34.2012 14.7525 34.4483 14.8882C34.5051 14.9194 34.5618 14.9506 34.6185 14.9818C34.7268 15.0414 34.8353 15.1007 34.9438 15.1597C35.3563 15.3866 35.7479 15.631 36.0966 15.9496C36.1521 15.9996 36.1521 15.9996 36.2086 16.0506C36.3168 16.158 36.4134 16.2614 36.4994 16.3874C36.4392 16.5681 36.3763 16.5858 36.2134 16.68C36.1626 16.7097 36.1118 16.7394 36.0595 16.7699C36.0323 16.7856 36.0051 16.8013 35.977 16.8174C35.8915 16.8666 35.8062 16.9163 35.721 16.9661C35.6031 17.0351 35.4851 17.1039 35.367 17.1725C34.7036 17.5588 34.0453 17.9513 33.4106 18.3832C33.2383 18.5003 33.0653 18.6163 32.8916 18.7313C32.8576 18.7544 32.8236 18.7775 32.7885 18.8013C32.7046 18.8566 32.6173 18.9068 32.5297 18.9561C32.3694 18.9026 32.3577 18.8759 32.2699 18.7401C31.9897 18.3521 31.5346 18.1409 31.1198 17.9228C31.0203 17.8696 30.9208 17.8164 30.8214 17.7631C30.7713 17.7363 30.7212 17.7095 30.6697 17.6819C30.4405 17.5579 30.2138 17.4298 29.9873 17.301C29.9434 17.2761 29.8995 17.2511 29.8542 17.2255C29.7644 17.1745 29.6746 17.1234 29.5848 17.0724C29.3468 16.9376 29.1081 16.8041 28.8693 16.6705C28.8208 16.6434 28.7723 16.6162 28.7223 16.5883C28.6239 16.5332 28.5255 16.4782 28.4272 16.4232C28.1348 16.2596 27.8425 16.0959 27.5502 15.9322C27.3058 15.7953 27.0614 15.6585 26.8169 15.5217C26.7682 15.4945 26.7195 15.4672 26.6693 15.4392C26.5721 15.3848 26.4748 15.3304 26.3776 15.276C26.1329 15.1392 25.8888 15.0014 25.6455 14.8619C25.5972 14.8343 25.5489 14.8066 25.4991 14.7782C25.4078 14.7259 25.3167 14.6735 25.2257 14.6208C24.8132 14.385 24.4372 14.2348 23.9568 14.2245C23.9047 14.2227 23.8526 14.221 23.799 14.2192C23.337 14.2447 22.9238 14.4796 22.5382 14.7148C22.4396 14.7736 22.3411 14.8323 22.2426 14.8911C22.1913 14.9219 22.1401 14.9527 22.0873 14.9844C21.8427 15.1308 21.5965 15.2745 21.3504 15.4183C21.2073 15.5019 21.0644 15.5858 20.9214 15.6697C20.8636 15.7036 20.8057 15.7376 20.7478 15.7715C20.6898 15.8056 20.6317 15.8396 20.5737 15.8737C20.3431 16.0089 20.1125 16.1442 19.8819 16.2794C19.8536 16.296 19.8253 16.3126 19.7962 16.3297C19.4174 16.5518 19.0383 16.7734 18.6589 16.9945C18.265 17.2242 17.8712 17.4539 17.4776 17.6842C17.4199 17.7179 17.3622 17.7517 17.3045 17.7854C17.0046 17.9604 16.7057 18.1369 16.4089 18.3172C16.36 18.3468 16.3111 18.3764 16.2607 18.407C16.1576 18.4753 16.083 18.5424 15.9968 18.6291C15.966 18.6291 15.9352 18.6291 15.9034 18.6291C15.8861 18.6667 15.8861 18.6667 15.8684 18.705C15.7962 18.8422 15.7092 18.9672 15.6232 19.0962C15.5908 19.1578 15.559 19.2198 15.5298 19.283C15.5034 19.2535 15.5034 19.2535 15.4765 19.2235C15.3669 19.1217 15.2492 19.051 15.1211 18.9736C15.0815 18.9495 15.0815 18.9495 15.0411 18.925C14.9551 18.8729 14.8688 18.821 14.7825 18.7692C14.7224 18.733 14.6624 18.6968 14.6023 18.6605C13.7421 18.1424 12.8678 17.6522 11.9876 17.169C11.798 17.0647 11.6089 16.9598 11.4199 16.8544C11.4864 16.5663 11.6528 16.3738 11.8402 16.1539C11.8632 16.1259 11.8861 16.0979 11.9098 16.069C12.1463 15.8057 12.4535 15.6438 12.7571 15.4701C12.8767 15.4015 12.9959 15.332 13.1149 15.2623C13.3025 15.1526 13.4902 15.0431 13.6781 14.9338C14.0077 14.7418 14.3368 14.5488 14.6658 14.3558C15.1231 14.0875 15.5808 13.8199 16.039 13.5529C16.4067 13.3385 16.7739 13.1234 17.141 12.908C17.5984 12.6397 18.0561 12.3721 18.5142 12.1051C18.8819 11.8908 19.2492 11.6756 19.6163 11.4602C20.0787 11.189 20.5412 10.9178 21.0048 10.6484C21.2413 10.5109 21.477 10.3722 21.7117 10.2317C23.6763 9.06055 24.9429 9.54772 26.8279 10.6218Z" fill="#37BF6E"/>
</g>
<defs>
<clipPath id="clip0_1149_20093">
<rect width="47.8239" height="47.8239" fill="white" transform="translate(0.164062 0.0880737)"/>
</clipPath>
</defs>
</svg>
