<svg width="49" height="48" viewBox="0 0 49 48" fill="none" xmlns="http://www.w3.org/2000/svg">
<path d="M24.4442 28.2075C26.7681 28.2075 28.652 26.3235 28.652 23.9996C28.652 21.6757 26.7681 19.7917 24.4442 19.7917C22.1202 19.7917 20.2363 21.6757 20.2363 23.9996C20.2363 26.3235 22.1202 28.2075 24.4442 28.2075Z" fill="#61DAFB"/>
<path d="M24.444 32.6208C36.9138 32.6208 47.0227 28.761 47.0227 23.9998C47.0227 19.2386 36.9138 15.3788 24.444 15.3788C11.9741 15.3788 1.86523 19.2386 1.86523 23.9998C1.86523 28.761 11.9741 32.6208 24.444 32.6208Z" stroke="#61DAFB" stroke-width="2.38642"/>
<path d="M16.9805 28.3105C23.2154 39.1097 31.6124 45.9344 35.7358 43.5537C39.8591 41.1731 38.1473 30.4888 31.9124 19.6895C25.6775 8.89028 17.2804 2.06564 13.1571 4.44626C9.03373 6.82687 10.7455 17.5112 16.9805 28.3105Z" stroke="#61DAFB" stroke-width="2.38642"/>
<path d="M16.9779 19.6892C10.743 30.4884 9.03118 41.1728 13.1545 43.5534C17.2779 45.934 25.6749 39.1094 31.9099 28.3102C38.1448 17.5109 39.8566 6.82654 35.7332 4.44593C31.6099 2.06531 23.2129 8.88995 16.9779 19.6892Z" stroke="#61DAFB" stroke-width="2.38642"/>
</svg>
