<svg width="49" height="48" viewBox="0 0 49 48" fill="none" xmlns="http://www.w3.org/2000/svg">
<path d="M11.3138 0.136353H37.7405C39.0265 0.136353 40.2751 0.341436 41.4865 0.770246C43.2383 1.40414 44.8225 2.52278 46.0152 3.977C47.2266 5.43123 48.028 7.22105 48.3075 9.08544C48.4193 9.77526 48.438 10.4651 48.438 11.1549V36.9395C48.438 37.7598 48.4007 38.5988 48.233 39.4005C47.8602 41.2462 46.9843 42.9801 45.717 44.3784C44.4684 45.7767 42.8283 46.8208 41.0578 47.3801C39.9769 47.7157 38.8587 47.8648 37.7219 47.8648C37.2187 47.8648 11.2392 47.8648 10.8478 47.8462C8.9469 47.7529 7.0646 47.1377 5.48048 46.075C3.93364 45.0309 2.66635 43.5767 1.84634 41.8988C1.13814 40.4632 0.784048 38.8598 0.784048 37.2564V10.7447C0.746775 9.16001 1.08223 7.59392 1.77179 6.17699C2.57317 4.49903 3.82182 3.02616 5.36866 1.9821C6.95278 0.900753 8.81644 0.26686 10.7174 0.17364C10.9037 0.136353 11.1088 0.136353 11.3138 0.136353Z" fill="url(#paint0_linear_1149_20082)"/>
<path d="M40.9661 39.1767C40.7983 38.9157 40.612 38.6547 40.407 38.4123C39.941 37.853 39.4006 37.3683 38.8042 36.9581C38.0587 36.4547 37.1828 36.1378 36.2883 36.1005C35.6546 36.0632 35.021 36.1751 34.4246 36.3988C33.8282 36.6039 33.2505 36.9022 32.6914 37.2005C32.0391 37.5361 31.3868 37.8717 30.6973 38.1513C29.8773 38.4869 29.02 38.7479 28.1441 38.9344C27.0445 39.1395 25.9263 39.214 24.8267 39.1954C22.8326 39.1581 20.8385 38.8598 18.9376 38.3005C17.2603 37.7971 15.6575 37.1073 14.1479 36.231C12.8247 35.4666 11.5947 34.5903 10.4393 33.6022C9.48879 32.7819 8.61287 31.9056 7.79286 30.9734C7.23376 30.3209 6.6933 29.6311 6.19011 28.9226C5.9851 28.6429 5.79874 28.3446 5.63101 28.0463L0.710938 22.7328V10.7075C0.710938 4.87191 5.426 0.136353 11.2593 0.136353H20.6708L27.6409 7.22105C43.3702 17.9227 38.2824 29.7243 38.2824 29.7243C38.2824 29.7243 42.7552 34.7581 40.9661 39.1767Z" fill="url(#paint1_linear_1149_20082)"/>
<path d="M27.676 7.22119C43.4053 17.9228 38.3175 29.7244 38.3175 29.7244C38.3175 29.7244 42.7903 34.7769 40.9825 39.1955C40.9825 39.1955 39.1375 36.1006 36.0438 36.1006C33.062 36.1006 31.3101 39.1955 25.3092 39.1955C11.9467 39.1955 5.62891 28.0278 5.62891 28.0278C17.6681 35.9515 25.8869 30.3397 25.8869 30.3397C20.4636 27.1888 8.92758 12.1245 8.92758 12.1245C18.9727 20.6821 23.315 22.938 23.315 22.938C20.7246 20.794 13.4563 10.3161 13.4563 10.3161C19.2709 16.2076 30.8256 24.4295 30.8256 24.4295C34.1056 15.3313 27.676 7.22119 27.676 7.22119Z" fill="white"/>
<defs>
<linearGradient id="paint0_linear_1149_20082" x1="29.0914" y1="-1.56677" x2="20.0706" y2="49.5725" gradientUnits="userSpaceOnUse">
<stop stop-color="#FAAE42"/>
<stop offset="1" stop-color="#EF3E31"/>
</linearGradient>
<linearGradient id="paint1_linear_1149_20082" x1="25.0526" y1="0.907466" x2="18.4504" y2="38.3356" gradientUnits="userSpaceOnUse">
<stop stop-color="#E39F3A"/>
<stop offset="1" stop-color="#D33929"/>
</linearGradient>
</defs>
</svg>
