<svg width="49" height="48" viewBox="0 0 49 48" fill="none" xmlns="http://www.w3.org/2000/svg">
<path d="M0.986328 0.135559H48.7148V47.864H0.986328V0.135559Z" fill="#017ACB"/>
<path d="M23.9026 17.8096H26.192V21.7622H20.0022V39.3471L19.8382 39.3919C19.6144 39.4515 16.6687 39.4515 16.0348 39.3844L15.5277 39.3397V21.7622H9.33789V17.8096L11.2992 17.7873C12.3731 17.7724 15.1324 17.7724 17.4294 17.7873C19.7263 17.8022 22.6348 17.8096 23.9026 17.8096ZM41.3757 37.4827C40.4658 38.4447 39.4889 38.9817 37.8631 39.4217C37.1547 39.6156 37.0354 39.623 35.4394 39.6156C33.8435 39.6081 33.7167 39.6081 32.9411 39.4068C30.9351 38.8922 29.3168 37.8854 28.213 36.461C27.8998 36.0583 27.3852 35.2231 27.3852 35.1187C27.3852 35.0888 27.4598 35.0217 27.5568 34.977C27.6537 34.9322 27.8551 34.8054 28.0191 34.7085C28.1832 34.6116 28.4815 34.4326 28.6829 34.3282C28.8842 34.2238 29.4659 33.8807 29.973 33.5749C30.4801 33.2692 30.9425 33.0231 30.9947 33.0231C31.0469 33.0231 31.1439 33.1275 31.2184 33.2543C31.6659 34.0075 32.71 34.9695 33.4483 35.2976C33.9032 35.4915 34.9099 35.7078 35.3947 35.7078C35.8421 35.7078 36.6625 35.5139 37.1025 35.3126C37.5723 35.0963 37.8109 34.88 38.0943 34.4475C38.2882 34.1417 38.3106 34.0597 38.3031 33.478C38.3031 32.9411 38.2733 32.7919 38.1242 32.5458C37.7065 31.8597 37.1398 31.5017 34.8428 30.4875C32.4713 29.436 31.4049 28.8096 30.5398 27.9669C29.8984 27.3404 29.7717 27.1689 29.369 26.3858C28.8469 25.3791 28.7798 25.0509 28.7724 23.552C28.7649 22.5005 28.7873 22.1574 28.8991 21.7994C29.0557 21.2625 29.5629 20.2259 29.794 19.9649C30.2713 19.4056 30.4429 19.234 30.7784 18.9581C31.7927 18.1229 33.3737 17.571 34.8876 17.5188C35.0591 17.5188 35.6259 17.5486 36.1554 17.5859C37.6767 17.7127 38.7133 18.0856 39.7126 18.8835C40.4658 19.4801 41.6069 20.8822 41.495 21.0686C41.4204 21.1805 38.4448 23.1642 38.2509 23.2238C38.1316 23.2611 38.0496 23.2164 37.8855 23.0225C36.8713 21.8069 36.4611 21.5459 35.4767 21.4862C34.7757 21.4415 34.4028 21.5235 33.933 21.8367C33.4408 22.1649 33.2022 22.6645 33.2022 23.3581C33.2096 24.3723 33.5974 24.8496 35.0293 25.5581C35.954 26.013 36.7445 26.3858 36.8042 26.3858C36.8937 26.3858 38.8103 27.3404 39.3099 27.6387C41.6367 29.0035 42.5838 30.4055 42.8299 32.8217C43.0089 34.6414 42.4943 36.3044 41.3757 37.4827Z" fill="white"/>
</svg>
