<svg width="798" height="489" viewBox="0 0 798 489" fill="none" xmlns="http://www.w3.org/2000/svg">
<g opacity="0.8">
<mask id="path-1-outside-1_18_549" maskUnits="userSpaceOnUse" x="-0.783203" y="-0.785156" width="799" height="490" fill="black">
<rect fill="white" x="-0.783203" y="-0.785156" width="799" height="490"/>
<path d="M763.048 2.21484C780.998 2.21484 795.55 16.7667 795.55 34.7168V454.281C795.55 472.231 780.998 486.783 763.048 486.783H34.7188C16.7687 486.783 2.2168 472.231 2.2168 454.281V34.7168C2.2168 16.7667 16.7687 2.21484 34.7188 2.21484H763.048ZM210.522 433.362C199.1 433.363 189.84 442.622 189.84 454.045C189.84 465.468 199.1 474.727 210.522 474.728C221.945 474.728 231.206 465.468 231.206 454.045C231.206 442.622 221.945 433.362 210.522 433.362ZM587.749 433.362C576.326 433.362 567.065 442.622 567.065 454.045C567.065 465.468 576.326 474.728 587.749 474.728C599.172 474.727 608.432 465.468 608.432 454.045C608.432 442.622 599.172 433.363 587.749 433.362ZM277.003 433.362C274.555 433.362 272.571 435.346 272.571 437.794V457C272.571 459.447 274.555 461.431 277.003 461.432H296.209C298.656 461.431 300.64 459.447 300.641 457V437.794C300.64 435.346 298.656 433.362 296.209 433.362H277.003ZM502.062 433.362C499.615 433.362 497.631 435.346 497.631 437.794V457C497.631 459.447 499.615 461.431 502.062 461.432H521.269C523.716 461.431 525.7 459.447 525.7 457V437.794C525.7 435.346 523.716 433.362 521.269 433.362H502.062ZM237.854 178.757C213.784 178.757 194.272 198.269 194.272 222.339C194.272 246.408 213.784 265.921 237.854 265.921C261.923 265.921 281.436 246.408 281.436 222.339C281.436 198.269 261.923 178.757 237.854 178.757ZM559.914 178.757C535.845 178.757 516.333 198.269 516.333 222.339C516.333 246.408 535.845 265.921 559.914 265.921C583.983 265.921 603.496 246.408 603.496 222.339C603.496 198.269 583.983 178.757 559.914 178.757Z"/>
</mask>
<path d="M763.048 2.21484C780.998 2.21484 795.55 16.7667 795.55 34.7168V454.281C795.55 472.231 780.998 486.783 763.048 486.783H34.7188C16.7687 486.783 2.2168 472.231 2.2168 454.281V34.7168C2.2168 16.7667 16.7687 2.21484 34.7188 2.21484H763.048ZM210.522 433.362C199.1 433.363 189.84 442.622 189.84 454.045C189.84 465.468 199.1 474.727 210.522 474.728C221.945 474.728 231.206 465.468 231.206 454.045C231.206 442.622 221.945 433.362 210.522 433.362ZM587.749 433.362C576.326 433.362 567.065 442.622 567.065 454.045C567.065 465.468 576.326 474.728 587.749 474.728C599.172 474.727 608.432 465.468 608.432 454.045C608.432 442.622 599.172 433.363 587.749 433.362ZM277.003 433.362C274.555 433.362 272.571 435.346 272.571 437.794V457C272.571 459.447 274.555 461.431 277.003 461.432H296.209C298.656 461.431 300.64 459.447 300.641 457V437.794C300.64 435.346 298.656 433.362 296.209 433.362H277.003ZM502.062 433.362C499.615 433.362 497.631 435.346 497.631 437.794V457C497.631 459.447 499.615 461.431 502.062 461.432H521.269C523.716 461.431 525.7 459.447 525.7 457V437.794C525.7 435.346 523.716 433.362 521.269 433.362H502.062ZM237.854 178.757C213.784 178.757 194.272 198.269 194.272 222.339C194.272 246.408 213.784 265.921 237.854 265.921C261.923 265.921 281.436 246.408 281.436 222.339C281.436 198.269 261.923 178.757 237.854 178.757ZM559.914 178.757C535.845 178.757 516.333 198.269 516.333 222.339C516.333 246.408 535.845 265.921 559.914 265.921C583.983 265.921 603.496 246.408 603.496 222.339C603.496 198.269 583.983 178.757 559.914 178.757Z" fill="#E2E2E2"/>
<path d="M210.522 433.362L210.522 431.146L210.522 431.146L210.522 433.362ZM189.84 454.045L187.624 454.045V454.045H189.84ZM210.522 474.728L210.522 476.944H210.522V474.728ZM231.206 454.045L233.422 454.045L233.422 454.045L231.206 454.045ZM587.749 433.362L587.749 431.146H587.749V433.362ZM567.065 454.045L564.849 454.045V454.045H567.065ZM587.749 474.728L587.749 476.944L587.749 476.944L587.749 474.728ZM608.432 454.045L610.648 454.045L610.648 454.045L608.432 454.045ZM277.003 433.362L277.003 431.146L277.003 431.146L277.003 433.362ZM272.571 437.794L270.355 437.794V437.794H272.571ZM272.571 457L270.355 457L270.355 457L272.571 457ZM277.003 461.432L277.003 463.648H277.003V461.432ZM296.209 461.432L296.209 463.648L296.209 463.648L296.209 461.432ZM300.641 457L302.857 457V457H300.641ZM300.641 437.794L302.857 437.794L302.857 437.794L300.641 437.794ZM296.209 433.362L296.209 431.146H296.209V433.362ZM502.062 433.362L502.062 431.146L502.062 431.146L502.062 433.362ZM497.631 437.794L495.415 437.794V437.794H497.631ZM497.631 457L495.415 457L495.415 457L497.631 457ZM502.062 461.432L502.062 463.648H502.062V461.432ZM521.269 461.432L521.269 463.648L521.269 463.648L521.269 461.432ZM525.7 457L527.916 457V457H525.7ZM525.7 437.794L527.916 437.794L527.916 437.794L525.7 437.794ZM521.269 433.362L521.269 431.146H521.269V433.362ZM237.854 178.757L237.854 176.541L237.854 176.541L237.854 178.757ZM194.272 222.339L192.056 222.339V222.339H194.272ZM237.854 265.921L237.854 268.137H237.854V265.921ZM281.436 222.339L283.652 222.339L283.652 222.339L281.436 222.339ZM559.914 178.757L559.914 176.541L559.914 176.541L559.914 178.757ZM516.333 222.339L514.117 222.339V222.339H516.333ZM559.914 265.921L559.914 268.137H559.914V265.921ZM603.496 222.339L605.712 222.339L605.712 222.339L603.496 222.339ZM763.048 2.21484V4.43086C779.774 4.43086 793.334 17.9906 793.334 34.7168H795.55H797.766C797.766 15.5428 782.222 -0.00116849 763.048 -0.00116849V2.21484ZM795.55 34.7168H793.334V454.281H795.55H797.766V34.7168H795.55ZM795.55 454.281H793.334C793.334 471.007 779.774 484.567 763.048 484.567V486.783V488.999C782.222 488.999 797.766 473.455 797.766 454.281H795.55ZM763.048 486.783V484.567H34.7188V486.783V488.999H763.048V486.783ZM34.7188 486.783V484.567C17.9925 484.567 4.43281 471.007 4.43281 454.281H2.2168H0.000784636C0.000784636 473.455 15.5448 488.999 34.7188 488.999V486.783ZM2.2168 454.281H4.43281V34.7168H2.2168H0.000784636V454.281H2.2168ZM2.2168 34.7168H4.43281C4.43281 17.9906 17.9925 4.43086 34.7188 4.43086V2.21484V-0.00116849C15.5448 -0.00116849 0.000784636 15.5428 0.000784636 34.7168H2.2168ZM34.7188 2.21484V4.43086H763.048V2.21484V-0.00116849H34.7188V2.21484ZM210.522 433.362L210.522 431.146C197.876 431.147 187.624 441.398 187.624 454.045L189.84 454.045L192.056 454.045C192.056 443.846 200.324 435.579 210.523 435.578L210.522 433.362ZM189.84 454.045H187.624C187.624 466.691 197.876 476.943 210.522 476.944L210.522 474.728L210.523 472.512C200.324 472.511 192.056 464.244 192.056 454.045H189.84ZM210.522 474.728V476.944C223.169 476.944 233.422 466.692 233.422 454.045H231.206H228.99C228.99 464.244 220.722 472.512 210.522 472.512V474.728ZM231.206 454.045L233.422 454.045C233.422 441.398 223.169 431.146 210.522 431.146V433.362V435.578C220.721 435.578 228.99 443.846 228.99 454.045L231.206 454.045ZM587.749 433.362V431.146C575.103 431.146 564.849 441.398 564.849 454.045L567.065 454.045L569.281 454.045C569.281 443.846 577.55 435.578 587.749 435.578V433.362ZM567.065 454.045H564.849C564.849 466.692 575.103 476.944 587.749 476.944V474.728V472.512C577.55 472.512 569.281 464.244 569.281 454.045H567.065ZM587.749 474.728L587.749 476.944C600.395 476.943 610.648 466.691 610.648 454.045H608.432H606.216C606.216 464.244 597.948 472.511 587.749 472.512L587.749 474.728ZM608.432 454.045L610.648 454.045C610.648 441.398 600.395 431.147 587.749 431.146L587.749 433.362L587.749 435.578C597.948 435.579 606.216 443.846 606.216 454.045L608.432 454.045ZM277.003 433.362L277.003 431.146C273.332 431.147 270.356 434.123 270.355 437.794L272.571 437.794L274.787 437.794C274.787 436.57 275.779 435.578 277.003 435.578L277.003 433.362ZM272.571 437.794H270.355V457H272.571H274.787V437.794H272.571ZM272.571 457L270.355 457C270.356 460.671 273.332 463.647 277.003 463.648L277.003 461.432L277.003 459.216C275.779 459.216 274.787 458.224 274.787 457L272.571 457ZM277.003 461.432V463.648H296.209V461.432V459.216H277.003V461.432ZM296.209 461.432L296.209 463.648C299.88 463.647 302.856 460.671 302.857 457L300.641 457L298.425 457C298.425 458.224 297.433 459.216 296.209 459.216L296.209 461.432ZM300.641 457H302.857V437.794H300.641H298.425V457H300.641ZM300.641 437.794L302.857 437.794C302.856 434.123 299.88 431.147 296.209 431.146L296.209 433.362L296.209 435.578C297.433 435.578 298.425 436.57 298.425 437.794L300.641 437.794ZM296.209 433.362V431.146H277.003V433.362V435.578H296.209V433.362ZM502.062 433.362L502.062 431.146C498.391 431.147 495.415 434.123 495.415 437.794L497.631 437.794L499.847 437.794C499.847 436.57 500.839 435.578 502.063 435.578L502.062 433.362ZM497.631 437.794H495.415V457H497.631H499.847V437.794H497.631ZM497.631 457L495.415 457C495.415 460.671 498.391 463.647 502.062 463.648L502.062 461.432L502.063 459.216C500.839 459.216 499.847 458.224 499.847 457L497.631 457ZM502.062 461.432V463.648H521.269V461.432V459.216H502.062V461.432ZM521.269 461.432L521.269 463.648C524.94 463.647 527.916 460.671 527.916 457L525.7 457L523.484 457C523.484 458.224 522.492 459.216 521.268 459.216L521.269 461.432ZM525.7 457H527.916V437.794H525.7H523.484V457H525.7ZM525.7 437.794L527.916 437.794C527.916 434.123 524.94 431.147 521.269 431.146L521.269 433.362L521.268 435.578C522.492 435.578 523.484 436.57 523.484 437.794L525.7 437.794ZM521.269 433.362V431.146H502.062V433.362V435.578H521.269V433.362ZM237.854 178.757L237.854 176.541C212.56 176.541 192.056 197.046 192.056 222.339L194.272 222.339L196.488 222.339C196.488 199.493 215.008 180.973 237.854 180.973L237.854 178.757ZM194.272 222.339H192.056C192.056 247.632 212.56 268.137 237.854 268.137L237.854 265.921L237.854 263.705C215.008 263.705 196.488 245.184 196.488 222.339H194.272ZM237.854 265.921V268.137C263.147 268.137 283.652 247.632 283.652 222.339H281.436H279.22C279.22 245.184 260.699 263.705 237.854 263.705V265.921ZM281.436 222.339L283.652 222.339C283.652 197.046 263.147 176.541 237.854 176.541V178.757V180.973C260.699 180.973 279.22 199.493 279.22 222.339L281.436 222.339ZM559.914 178.757L559.914 176.541C534.621 176.541 514.117 197.046 514.117 222.339L516.333 222.339L518.549 222.339C518.549 199.493 537.069 180.973 559.914 180.973L559.914 178.757ZM516.333 222.339H514.117C514.117 247.632 534.621 268.137 559.914 268.137L559.914 265.921L559.914 263.705C537.069 263.705 518.549 245.184 518.549 222.339H516.333ZM559.914 265.921V268.137C585.207 268.137 605.712 247.632 605.712 222.339H603.496H601.28C601.28 245.184 582.76 263.705 559.914 263.705V265.921ZM603.496 222.339L605.712 222.339C605.712 197.046 585.207 176.541 559.914 176.541V178.757V180.973C582.76 180.973 601.28 199.493 601.28 222.339L603.496 222.339Z" fill="#202020" mask="url(#path-1-outside-1_18_549)"/>
</g>
<path d="M237.113 88.6406C310.953 88.6408 370.812 148.5 370.812 222.34C370.812 296.18 310.953 356.039 237.113 356.039C163.273 356.039 103.414 296.18 103.414 222.34C103.414 148.5 163.273 88.6406 237.113 88.6406ZM237.852 176.543C212.558 176.543 192.055 197.047 192.055 222.34C192.055 247.633 212.558 268.138 237.852 268.138C263.145 268.138 283.649 247.633 283.649 222.34C283.649 197.047 263.145 176.543 237.852 176.543Z" fill="#202020"/>
<path d="M559.172 166.941C589.769 166.941 614.572 191.745 614.572 222.342C614.572 252.939 589.769 277.742 559.172 277.742C528.575 277.742 503.772 252.938 503.771 222.342C503.771 191.745 528.575 166.942 559.172 166.941ZM559.911 176.544C534.618 176.544 514.113 197.048 514.113 222.342C514.113 247.635 534.618 268.14 559.911 268.14C585.204 268.139 605.708 247.635 605.708 222.342C605.708 197.049 585.204 176.544 559.911 176.544Z" fill="#202020"/>
<path d="M93.4416 201.658C85.7306 262.787 55.7236 408.383 63.5254 455.391M86.4244 474.597C137.762 475.335 705.8 474.597 711.34 474.597M604.602 191.316C630.754 230.073 714.904 385.05 733.832 445.419" stroke="#202020" stroke-width="0.738671"/>
<path d="M86.1885 427.496C99.2431 427.496 109.826 438.079 109.826 451.134C109.826 464.188 99.2431 474.771 86.1885 474.771C73.1339 474.771 62.5508 464.188 62.5508 451.134C62.5508 438.079 73.1339 427.496 86.1885 427.496ZM86.1885 441.185C80.6918 441.185 76.2354 445.641 76.2354 451.138C76.2356 456.634 80.6919 461.09 86.1885 461.09C91.685 461.09 96.1404 456.634 96.1406 451.138C96.1406 445.641 91.6851 441.185 86.1885 441.185Z" fill="#202020"/>
<path d="M711.104 427.496C724.159 427.496 734.741 438.079 734.741 451.134C734.741 464.188 724.159 474.771 711.104 474.771C698.05 474.771 687.467 464.188 687.467 451.134C687.467 438.079 698.05 427.496 711.104 427.496ZM711.104 441.185C705.607 441.185 701.151 445.641 701.151 451.138C701.152 456.634 705.607 461.09 711.104 461.09C716.6 461.09 721.056 456.634 721.057 451.138C721.057 445.641 716.6 441.185 711.104 441.185Z" fill="#202020"/>
<path d="M179.778 378.569H623.882C634.179 378.569 643.166 385.55 645.712 395.527L669.286 487.893H129.293L158.259 394.429C161.182 384.998 169.905 378.569 179.778 378.569Z" stroke="#202020" stroke-width="2.21601"/>
<circle cx="210.521" cy="454.089" r="19.5748" stroke="#202020" stroke-width="2.21601"/>
<circle cx="587.747" cy="454.089" r="19.5748" stroke="#202020" stroke-width="2.21601"/>
<rect x="273.678" y="434.514" width="25.8535" height="25.8535" rx="3.32402" stroke="#202020" stroke-width="2.21601"/>
<path d="M384.848 461.475C384.848 459.027 386.832 457.043 389.28 457.043H408.485C410.933 457.043 412.917 459.027 412.917 461.475V474.771H384.848V461.475Z" fill="#202020"/>
<rect x="498.737" y="434.514" width="25.8535" height="25.8535" rx="3.32402" stroke="#202020" stroke-width="2.21601"/>
<g clip-path="url(#clip0_18_549)">
<path d="M398.763 386.867C406.106 386.867 412.058 392.82 412.059 400.163C412.059 407.506 406.106 413.459 398.763 413.459C391.42 413.459 385.467 407.506 385.467 400.163C385.467 392.82 391.42 386.867 398.763 386.867ZM399.849 392.206C399.608 391.023 397.917 391.023 397.677 392.206L396.662 397.197C396.573 397.633 396.233 397.974 395.797 398.062L390.806 399.077C389.623 399.318 389.623 401.008 390.806 401.249L395.797 402.264C396.233 402.352 396.573 402.693 396.662 403.129L397.677 408.12C397.917 409.303 399.608 409.303 399.849 408.12L400.863 403.129C400.952 402.693 401.293 402.352 401.729 402.264L406.72 401.249C407.903 401.008 407.903 399.318 406.72 399.077L401.729 398.062C401.293 397.974 400.952 397.633 400.863 397.197L399.849 392.206Z" fill="#202020"/>
</g>
<g clip-path="url(#clip1_18_549)">
<path d="M33.2393 19.9453C40.5824 19.9453 46.5351 25.8981 46.5352 33.2412C46.5352 40.5844 40.5825 46.5371 33.2393 46.5371C25.8961 46.537 19.9434 40.5844 19.9434 33.2412C19.9435 25.8981 25.8962 19.9454 33.2393 19.9453ZM34.3252 25.2842C34.0845 24.1014 32.3939 24.1014 32.1533 25.2842L31.1387 30.2754C31.05 30.7112 30.7092 31.052 30.2734 31.1406L25.2822 32.1553C24.0994 32.3959 24.0995 34.0865 25.2822 34.3271L30.2734 35.3418C30.7092 35.4304 31.05 35.7713 31.1387 36.207L32.1533 41.1982C32.3939 42.3812 34.0846 42.3812 34.3252 41.1982L35.3398 36.207C35.4285 35.7713 35.7694 35.4304 36.2051 35.3418L41.1963 34.3271C42.3792 34.0866 42.3792 32.3958 41.1963 32.1553L36.2051 31.1406C35.7694 31.052 35.4285 30.7111 35.3398 30.2754L34.3252 25.2842Z" fill="#202020"/>
</g>
<g clip-path="url(#clip2_18_549)">
<path d="M33.2393 442.27C40.5824 442.27 46.5351 448.222 46.5352 455.565C46.5352 462.909 40.5825 468.861 33.2393 468.861C25.8961 468.861 19.9434 462.909 19.9434 455.565C19.9435 448.222 25.8962 442.27 33.2393 442.27ZM34.3252 447.608C34.0845 446.426 32.3939 446.426 32.1533 447.608L31.1387 452.6C31.05 453.035 30.7092 453.376 30.2734 453.465L25.2822 454.479C24.0994 454.72 24.0995 456.411 25.2822 456.651L30.2734 457.666C30.7092 457.755 31.05 458.096 31.1387 458.531L32.1533 463.522C32.3939 464.705 34.0846 464.705 34.3252 463.522L35.3398 458.531C35.4285 458.096 35.7694 457.755 36.2051 457.666L41.1963 456.651C42.3792 456.411 42.3792 454.72 41.1963 454.479L36.2051 453.465C35.7694 453.376 35.4285 453.035 35.3398 452.6L34.3252 447.608Z" fill="#202020"/>
</g>
<g clip-path="url(#clip3_18_549)">
<path d="M764.288 19.9453C771.631 19.9453 777.584 25.8981 777.584 33.2412C777.584 40.5844 771.631 46.5371 764.288 46.5371C756.945 46.537 750.992 40.5844 750.992 33.2412C750.992 25.8981 756.945 19.9454 764.288 19.9453ZM765.374 25.2842C765.133 24.1014 763.443 24.1014 763.202 25.2842L762.188 30.2754C762.099 30.7112 761.758 31.052 761.322 31.1406L756.331 32.1553C755.148 32.3959 755.148 34.0865 756.331 34.3271L761.322 35.3418C761.758 35.4304 762.099 35.7713 762.188 36.207L763.202 41.1982C763.443 42.3812 765.133 42.3812 765.374 41.1982L766.389 36.207C766.477 35.7713 766.818 35.4304 767.254 35.3418L772.245 34.3271C773.428 34.0866 773.428 32.3958 772.245 32.1553L767.254 31.1406C766.818 31.052 766.477 30.7111 766.389 30.2754L765.374 25.2842Z" fill="#202020"/>
</g>
<g clip-path="url(#clip4_18_549)">
<path d="M764.288 442.27C771.631 442.27 777.584 448.222 777.584 455.565C777.584 462.909 771.631 468.861 764.288 468.861C756.945 468.861 750.992 462.909 750.992 455.565C750.992 448.222 756.945 442.27 764.288 442.27ZM765.374 447.608C765.133 446.426 763.443 446.426 763.202 447.608L762.188 452.6C762.099 453.035 761.758 453.376 761.322 453.465L756.331 454.479C755.148 454.72 755.148 456.411 756.331 456.651L761.322 457.666C761.758 457.755 762.099 458.096 762.188 458.531L763.202 463.522C763.443 464.705 765.133 464.705 765.374 463.522L766.389 458.531C766.477 458.096 766.818 457.755 767.254 457.666L772.245 456.651C773.428 456.411 773.428 454.72 772.245 454.479L767.254 453.465C766.818 453.376 766.477 453.035 766.389 452.6L765.374 447.608Z" fill="#202020"/>
</g>
<mask id="mask0_18_549" style="mask-type:alpha" maskUnits="userSpaceOnUse" x="45" y="41" width="709" height="316">
<path d="M88.1855 42.4756H711.055C717.012 42.4757 722.727 44.835 726.949 49.0381L745.7 67.7051C749.947 71.9331 752.335 77.6791 752.335 83.6719V332.403C752.335 344.846 742.248 354.933 729.806 354.933H69.4346C56.9919 354.933 46.9053 344.846 46.9053 332.403V83.6719C46.9053 77.6791 49.293 71.9331 53.54 67.7051L72.291 49.0381C76.5131 44.835 82.2281 42.4757 88.1855 42.4756ZM229.726 155.492C193.214 155.492 163.615 185.091 163.615 221.603V223.08C163.615 259.592 193.214 289.191 229.726 289.191H568.037C604.549 289.191 634.148 259.592 634.148 223.08V221.603C634.148 185.091 604.549 155.492 568.037 155.492H229.726Z" fill="#EDA35F" stroke="#202020" stroke-width="2.21601"/>
</mask>
<g mask="url(#mask0_18_549)">
<g clip-path="url(#clip5_18_549)">
<rect width="707.647" height="314.674" transform="translate(45.7969 41.3672)" fill="#FCF7F2"/>
<g clip-path="url(#clip6_18_549)">
<rect width="708" height="35.5142" transform="matrix(1 0 0 -1 46.166 356.738)" fill="#9B51E0"/>
<rect width="708" height="24.416" transform="matrix(1 0 0 -1 46.166 312.344)" fill="#9B51E0"/>
<rect width="708" height="4.43928" transform="matrix(1 0 0 -1 46.166 181.387)" fill="#9B51E0"/>
<rect width="708" height="2.21964" transform="matrix(1 0 0 -1 46.166 159.191)" fill="#9B51E0"/>
<rect width="708" height="17.7571" transform="matrix(1 0 0 -1 46.166 279.051)" fill="#9B51E0"/>
<rect width="708" height="8.87855" transform="matrix(1 0 0 -1 46.166 225.781)" fill="#9B51E0"/>
<rect width="708" height="13.3178" transform="matrix(1 0 0 -1 46.166 250.195)" fill="#9B51E0"/>
<rect width="708" height="6.65891" transform="matrix(1 0 0 -1 46.166 203.582)" fill="#9B51E0"/>
</g>
<path d="M385.824 137.646C385.76 138.008 385.611 138.264 385.376 138.413C385.164 138.583 384.961 138.818 384.77 139.116H384.642C384.429 139.116 384.216 139.137 384.003 139.18C383.811 139.222 383.609 139.276 383.396 139.339C383.289 139.297 383.162 139.265 383.012 139.244C382.863 139.222 382.768 139.148 382.725 139.02C382.555 139.105 382.32 139.148 382.022 139.148C381.532 139.148 381.064 139.009 380.616 138.732C380.19 138.456 379.743 138.243 379.275 138.094C379.147 137.838 378.987 137.604 378.795 137.391C378.625 137.199 378.444 137.007 378.252 136.816C378.082 136.624 377.912 136.422 377.741 136.209C377.571 135.996 377.432 135.74 377.326 135.442C377.283 135.314 377.23 135.24 377.166 135.218C377.102 135.197 377.006 135.197 376.879 135.218C376.9 134.984 376.868 134.782 376.783 134.611C376.719 134.441 376.559 134.334 376.304 134.292C376.304 134.015 376.261 133.781 376.176 133.589C376.091 133.397 375.984 133.227 375.856 133.078C375.75 132.95 375.622 132.812 375.473 132.663C375.345 132.514 375.239 132.332 375.154 132.12C374.962 132.077 374.77 132.045 374.579 132.024C374.408 132.024 374.216 132.024 374.003 132.024C372.981 132.024 371.991 132.215 371.032 132.599C370.926 132.641 370.809 132.695 370.681 132.758C370.575 132.822 370.468 132.876 370.362 132.918C370.319 132.918 370.276 132.918 370.234 132.918C370.212 132.939 370.181 132.95 370.138 132.95C369.989 132.95 369.85 132.918 369.723 132.854C369.595 132.812 369.456 132.79 369.307 132.79C369.243 132.79 369.169 132.801 369.084 132.822C369.02 132.865 368.956 132.897 368.892 132.918C368.573 133.025 368.274 133.089 367.997 133.11C367.124 133.28 366.198 133.408 365.218 133.493C364.26 133.578 363.376 133.802 362.567 134.164C362.396 134.249 362.29 134.377 362.247 134.547C362.204 134.739 362.194 134.92 362.215 135.091C361.981 135.261 361.8 135.485 361.672 135.761C361.566 136.038 361.459 136.326 361.353 136.624C361.267 136.943 361.172 137.252 361.065 137.55C360.959 137.849 360.809 138.104 360.618 138.317C360.682 138.445 360.714 138.583 360.714 138.732C360.714 139.052 360.607 139.371 360.394 139.691C360.181 140.01 360.021 140.319 359.915 140.617C359.808 140.915 359.723 141.203 359.659 141.48C359.595 141.778 359.5 142.044 359.372 142.279C359.244 142.513 359.074 142.705 358.861 142.854C358.626 143.003 358.307 143.077 357.902 143.077C357.519 143.077 357.189 143.003 356.912 142.854C356.635 142.705 356.411 142.513 356.241 142.279C356.071 142.044 355.932 141.767 355.826 141.448C355.719 141.128 355.634 140.809 355.57 140.49C355.804 140.021 356.028 139.616 356.241 139.276C356.454 138.935 356.614 138.498 356.72 137.966C357.104 137.689 357.391 137.348 357.583 136.943C357.753 136.56 357.849 136.134 357.87 135.666C358.105 135.517 358.275 135.314 358.382 135.059C358.467 134.824 358.52 134.569 358.541 134.292C358.03 134.249 357.498 134.207 356.944 134.164C356.369 134.121 355.836 134.015 355.347 133.845C355.347 133.802 355.357 133.759 355.379 133.717C355.379 133.674 355.379 133.632 355.379 133.589C355.379 133.312 355.315 133.057 355.187 132.822C355.059 132.609 354.995 132.375 354.995 132.12V131.864C355.166 131.694 355.325 131.513 355.474 131.321C355.602 131.15 355.741 130.991 355.89 130.842C356.039 130.693 356.209 130.565 356.401 130.458C356.593 130.373 356.837 130.33 357.136 130.33C357.54 130.33 357.934 130.352 358.318 130.394C358.701 130.458 359.095 130.49 359.5 130.49C359.777 130.49 360.064 130.458 360.362 130.394C360.831 129.436 361.246 128.467 361.608 127.487C361.97 126.486 362.247 125.475 362.439 124.452C362.588 124.239 362.726 123.994 362.854 123.718C362.982 123.419 363.078 123.111 363.142 122.791C363.227 122.472 363.28 122.163 363.301 121.865C363.344 121.545 363.365 121.258 363.365 121.002C363.599 120.725 363.759 120.384 363.844 119.98C363.951 119.575 364.036 119.16 364.1 118.734C364.164 118.287 364.228 117.85 364.292 117.424C364.377 116.998 364.526 116.625 364.739 116.306V116.018C364.76 115.699 364.728 115.411 364.643 115.156C364.75 115.113 364.813 115.017 364.835 114.868C364.856 114.719 364.899 114.591 364.963 114.485C364.984 113.505 365.09 112.547 365.282 111.61C365.474 110.651 365.633 109.693 365.761 108.735V108.639C365.761 108.532 365.719 108.479 365.633 108.479C365.57 108.458 365.538 108.394 365.538 108.287C365.538 108.096 365.559 107.84 365.601 107.521C365.665 107.201 365.708 106.935 365.729 106.722C365.857 105.572 365.921 104.432 365.921 103.304C365.921 102.345 365.889 101.397 365.825 100.46C365.761 99.5232 365.697 98.5755 365.633 97.6171L365.889 97.2337C365.974 97.1059 366.049 96.9781 366.113 96.8503C366.326 96.7651 366.496 96.68 366.624 96.5948C366.773 96.4883 366.965 96.435 367.199 96.435C367.263 96.435 367.316 96.4457 367.359 96.467C367.401 96.467 367.444 96.467 367.486 96.467C367.614 96.5522 367.71 96.6693 367.774 96.8184C367.859 96.9675 367.934 97.1059 367.997 97.2337C368.083 97.3615 368.189 97.468 368.317 97.5532C368.445 97.6384 368.626 97.6597 368.86 97.6171C368.967 98.2134 369.265 98.5222 369.755 98.5435C369.861 98.8417 369.989 99.1399 370.138 99.438C370.308 99.7362 370.532 99.9705 370.809 100.141C370.787 100.226 370.777 100.343 370.777 100.492C370.777 100.79 370.841 101.078 370.969 101.355C371.118 101.632 371.299 101.887 371.512 102.122V102.185C371.512 102.42 371.426 102.579 371.256 102.665C371.448 102.878 371.586 103.133 371.671 103.431C371.757 103.73 371.831 104.038 371.895 104.358C371.959 104.656 372.033 104.944 372.119 105.22C372.225 105.497 372.395 105.71 372.63 105.859V105.955C372.63 106.062 372.587 106.126 372.502 106.147C372.438 106.168 372.406 106.232 372.406 106.339C372.789 107.041 373.056 107.808 373.205 108.639C373.354 109.469 373.546 110.268 373.78 111.035C373.865 111.12 373.961 111.173 374.067 111.194C374.195 111.216 374.291 111.269 374.355 111.354C374.227 111.439 374.163 111.588 374.163 111.801C374.163 112.014 374.11 112.174 374.003 112.281C374.174 112.43 374.248 112.653 374.227 112.951C374.227 113.228 374.312 113.431 374.483 113.558V113.686C374.483 113.771 374.461 113.846 374.419 113.91C374.376 113.952 374.355 114.016 374.355 114.102V114.229C374.525 114.975 374.653 115.72 374.738 116.466C374.845 117.211 374.951 117.956 375.058 118.702C375.164 119.447 375.281 120.193 375.409 120.938C375.537 121.662 375.718 122.376 375.952 123.079C375.974 123.1 375.984 123.132 375.984 123.174C375.984 123.281 375.942 123.345 375.856 123.366C375.771 123.366 375.729 123.419 375.729 123.526C375.729 123.632 375.761 123.76 375.824 123.909C375.91 124.037 375.995 124.143 376.08 124.229C376.059 124.314 376.048 124.442 376.048 124.612C376.048 124.931 376.101 125.24 376.208 125.538C376.336 125.837 376.463 126.135 376.591 126.433C376.74 126.71 376.868 127.008 376.975 127.327C377.081 127.647 377.124 127.988 377.102 128.35C377.23 128.541 377.39 128.701 377.581 128.829C377.794 128.957 378.007 129.074 378.22 129.18C378.433 129.287 378.625 129.415 378.795 129.564C378.987 129.713 379.115 129.915 379.179 130.171C379.008 130.32 378.891 130.501 378.827 130.714C378.764 130.948 378.646 131.15 378.476 131.321C378.625 131.683 378.795 132.013 378.987 132.311C379.2 132.631 379.413 132.939 379.626 133.238L380.297 134.132C380.531 134.43 380.734 134.75 380.904 135.091C381.138 135.091 381.309 135.154 381.415 135.282C381.522 135.41 381.692 135.463 381.926 135.442C382.011 135.612 382.043 135.804 382.022 136.017C382.448 135.868 382.874 135.793 383.3 135.793C383.534 135.793 383.747 135.804 383.939 135.825C384.152 135.847 384.365 135.857 384.578 135.857C384.833 135.857 385.057 135.825 385.249 135.761C385.334 135.889 385.398 136.028 385.44 136.177C385.483 136.347 385.515 136.518 385.536 136.688L385.632 137.199C385.675 137.369 385.739 137.518 385.824 137.646ZM373.78 128.797C373.482 127.327 373.173 125.869 372.853 124.42C372.555 122.951 372.289 121.471 372.055 119.98C371.927 119.192 371.831 118.404 371.767 117.616C371.703 116.828 371.618 116.05 371.512 115.284C371.426 114.496 371.299 113.718 371.128 112.951C370.979 112.185 370.756 111.429 370.457 110.683V110.619C370.457 110.555 370.479 110.502 370.521 110.46C370.564 110.417 370.585 110.342 370.585 110.236V110.108C370.308 109.917 370.117 109.65 370.01 109.31C369.904 108.947 369.808 108.575 369.723 108.191C369.659 107.787 369.563 107.403 369.435 107.041C369.329 106.658 369.137 106.339 368.86 106.083C368.754 107.318 368.636 108.553 368.509 109.789C368.402 111.003 368.328 112.227 368.285 113.463C368.072 113.59 367.934 113.803 367.87 114.102C367.806 114.4 367.774 114.666 367.774 114.9C367.774 115.071 367.785 115.252 367.806 115.443C367.827 115.614 367.87 115.795 367.934 115.986C367.55 116.945 367.273 117.935 367.103 118.957C366.933 119.958 366.741 120.959 366.528 121.96C366.507 122.024 366.464 122.173 366.4 122.408C366.358 122.621 366.304 122.844 366.24 123.079C366.177 123.313 366.123 123.526 366.081 123.718C366.038 123.888 366.017 123.984 366.017 124.005C365.995 124.154 365.985 124.303 365.985 124.452C366.006 124.601 366.017 124.75 366.017 124.9L365.538 125.379C365.452 126.188 365.293 126.976 365.058 127.743C364.845 128.488 364.622 129.255 364.388 130.043C364.537 130.064 364.675 130.075 364.803 130.075C364.952 130.096 365.101 130.107 365.25 130.107C365.932 130.107 366.613 130.064 367.295 129.979C367.997 129.873 368.69 129.777 369.371 129.692C369.605 129.649 369.85 129.617 370.106 129.596C370.362 129.553 370.606 129.532 370.841 129.532C370.947 129.511 371.075 129.511 371.224 129.532C371.373 129.532 371.501 129.521 371.607 129.5C371.778 129.457 371.884 129.393 371.927 129.308C371.991 129.202 372.108 129.138 372.278 129.117C372.406 129.18 372.555 129.212 372.726 129.212C372.917 129.212 373.098 129.17 373.269 129.085C373.439 128.999 373.609 128.904 373.78 128.797ZM412.595 101.131C412.595 101.877 412.457 102.601 412.18 103.304C411.903 103.985 411.701 104.688 411.573 105.412C411.104 106.03 410.668 106.669 410.263 107.329C409.858 107.989 409.443 108.649 409.017 109.31C408.591 109.97 408.144 110.609 407.675 111.226C407.207 111.823 406.674 112.366 406.078 112.856C406.099 112.877 406.11 112.92 406.11 112.983C406.11 113.111 406.046 113.218 405.918 113.303C405.812 113.367 405.78 113.452 405.822 113.558C405.29 114.112 404.768 114.655 404.257 115.188C403.746 115.72 403.277 116.317 402.851 116.977C402.383 117.211 401.999 117.594 401.701 118.127C401.573 118.127 401.478 118.159 401.414 118.223C401.35 118.265 401.265 118.308 401.158 118.35C400.477 119.181 399.763 119.969 399.018 120.715C398.272 121.46 397.474 122.141 396.622 122.759C396.302 122.993 395.983 123.206 395.663 123.398C395.344 123.59 395.035 123.792 394.737 124.005C394.545 124.133 394.354 124.282 394.162 124.452C393.991 124.623 393.81 124.782 393.619 124.931C393.001 125.464 392.394 125.911 391.798 126.273C391.201 126.614 390.499 126.848 389.689 126.976C389.625 127.21 389.593 127.466 389.593 127.743V128.51C389.593 128.765 389.583 129.031 389.562 129.308C389.54 129.564 389.466 129.809 389.338 130.043V130.139C389.338 130.352 389.391 130.554 389.498 130.746C389.604 130.959 389.657 131.172 389.657 131.385C389.657 131.534 389.583 131.662 389.434 131.768H390.264C390.264 132.066 390.35 132.322 390.52 132.535C390.712 132.748 390.807 132.908 390.807 133.014C390.807 133.376 390.765 133.77 390.68 134.196C390.616 134.643 390.403 134.941 390.041 135.091V135.282C390.041 135.495 390.019 135.698 389.977 135.889C389.934 136.102 389.838 136.305 389.689 136.496C389.562 136.496 389.434 136.496 389.306 136.496C389.199 136.518 389.093 136.528 388.986 136.528C388.092 136.528 387.293 136.315 386.59 135.889C386.356 135.335 386.196 134.76 386.111 134.164C386.047 133.589 386.015 133.003 386.015 132.407C386.015 131.236 386.101 130.075 386.271 128.925C386.441 127.775 386.58 126.625 386.686 125.475L387.166 124.548C387.208 123.952 387.283 123.355 387.389 122.759C387.496 122.141 387.602 121.534 387.709 120.938C387.815 120.342 387.9 119.745 387.964 119.149C388.049 118.553 388.081 117.956 388.06 117.36C388.23 116.998 388.348 116.615 388.411 116.21C388.497 115.805 388.539 115.411 388.539 115.028C388.539 114.815 388.529 114.602 388.507 114.389C388.486 114.176 388.422 113.974 388.316 113.782C388.443 113.697 388.529 113.59 388.571 113.463C388.614 113.335 388.678 113.218 388.763 113.111C388.827 112.281 388.88 111.461 388.923 110.651C388.965 109.821 388.986 109.001 388.986 108.191C388.986 107.744 388.976 107.308 388.955 106.882C388.933 106.434 388.901 105.987 388.859 105.54C388.837 105.369 388.795 105.167 388.731 104.933C388.688 104.699 388.667 104.518 388.667 104.39C388.667 104.219 388.678 104.049 388.699 103.879C388.72 103.687 388.731 103.495 388.731 103.304C388.731 103.091 388.71 102.888 388.667 102.697C388.624 102.484 388.55 102.292 388.443 102.122C387.421 102.42 386.505 102.824 385.696 103.336C384.887 103.825 384.067 104.379 383.236 104.997C382.895 105.231 382.523 105.508 382.118 105.827C381.713 106.147 381.33 106.392 380.968 106.562C380.904 106.605 380.829 106.637 380.744 106.658C380.638 106.658 380.553 106.658 380.489 106.658C380.254 106.658 380.041 106.647 379.85 106.626C379.658 106.583 379.466 106.562 379.275 106.562C378.976 106.264 378.625 106.03 378.22 105.859C378.157 105.604 378.125 105.327 378.125 105.029C378.125 104.731 378.157 104.443 378.22 104.166C378.263 103.889 378.338 103.612 378.444 103.336C378.7 103.25 378.976 103.154 379.275 103.048C379.552 102.942 379.828 102.824 380.105 102.697C380.361 102.547 380.595 102.388 380.808 102.217C381.021 102.026 381.191 101.791 381.319 101.515C381.447 101.578 381.564 101.61 381.671 101.61C381.777 101.61 381.873 101.6 381.958 101.578C382.043 101.557 382.139 101.536 382.246 101.515C382.629 101.28 383.012 101.035 383.396 100.78C383.8 100.524 384.216 100.311 384.642 100.141C384.77 100.098 384.844 100.045 384.865 99.9811C384.887 99.9172 384.887 99.8214 384.865 99.6936C385.355 99.5445 385.866 99.3741 386.399 99.1824C386.931 98.9695 387.378 98.6819 387.741 98.3199H388.316C388.635 98.0856 388.976 97.8939 389.338 97.7448C389.7 97.5958 390.062 97.4573 390.424 97.3295C390.807 97.1805 391.18 97.0314 391.542 96.8823C391.904 96.7119 392.245 96.4989 392.565 96.2433C392.692 96.2008 392.799 96.1795 392.884 96.1795C392.99 96.1795 393.108 96.2008 393.235 96.2433C393.448 96.1369 393.629 96.0091 393.778 95.86L394.29 95.3488C394.63 95.3488 394.939 95.3169 395.216 95.253C395.493 95.1891 395.759 95.1039 396.015 94.9974C396.27 94.8909 396.515 94.7738 396.75 94.646C397.005 94.4969 397.282 94.3478 397.58 94.1988C397.708 94.2414 397.804 94.2946 397.868 94.3585C397.932 94.4011 398.038 94.4224 398.187 94.4224C398.4 94.2733 398.624 94.1668 398.858 94.1029C399.114 94.0177 399.369 93.9538 399.625 93.9112C399.88 93.8686 400.125 93.8154 400.359 93.7515C400.615 93.6876 400.839 93.5705 401.03 93.4001C401.712 93.4001 402.393 93.3894 403.075 93.3681C403.778 93.3255 404.47 93.3043 405.152 93.3043C406.131 93.3043 407.122 93.3788 408.123 93.5279C409.145 93.677 410.061 94.0497 410.87 94.646C411.189 95.4127 411.647 96.0623 412.244 96.5948C412.286 96.829 412.329 97.0527 412.371 97.2656C412.435 97.4573 412.51 97.649 412.595 97.8407C412.446 98.1602 412.371 98.5116 412.371 98.8949C412.371 99.2783 412.403 99.6616 412.467 100.045C412.552 100.407 412.595 100.769 412.595 101.131ZM409.624 100.364C409.518 100.173 409.443 99.9598 409.4 99.7255C409.379 99.47 409.379 99.225 409.4 98.9908C409.124 98.7778 408.911 98.5009 408.761 98.1602C408.612 97.8194 408.399 97.5638 408.123 97.3934C407.931 97.2869 407.654 97.223 407.292 97.2017C406.951 97.1805 406.664 97.1379 406.429 97.074C406.153 96.9888 405.961 96.9036 405.854 96.8184C405.769 96.7332 405.577 96.6906 405.279 96.6906C405.024 96.6906 404.768 96.7225 404.513 96.7864C404.257 96.829 404.001 96.8503 403.746 96.8503C403.533 96.8503 403.331 96.8077 403.139 96.7225C402.947 96.6374 402.745 96.5948 402.532 96.5948C402.298 96.5948 402.074 96.6693 401.861 96.8184C401.669 96.9675 401.435 97.0101 401.158 96.9462C401.03 97.0527 400.956 97.1379 400.935 97.2017C400.935 97.2656 400.924 97.3189 400.903 97.3615C400.881 97.3828 400.828 97.3934 400.743 97.3934H400.296C399.848 97.3934 399.39 97.4573 398.922 97.5851C398.475 97.7129 398.07 97.9259 397.708 98.224C397.644 98.2027 397.58 98.1921 397.516 98.1921C397.474 98.1708 397.42 98.1602 397.357 98.1602C396.994 98.1602 396.643 98.2666 396.302 98.4796C395.983 98.6713 395.621 98.7671 395.216 98.7671C394.961 99.0227 394.652 99.225 394.29 99.3741C393.928 99.5232 393.555 99.6723 393.171 99.8214C392.809 99.9492 392.469 100.109 392.149 100.301C391.83 100.471 391.585 100.727 391.414 101.067C391.393 101.238 391.446 101.344 391.574 101.387C391.702 101.429 391.766 101.536 391.766 101.706C391.766 101.855 391.734 102.036 391.67 102.249C391.627 102.462 391.606 102.675 391.606 102.888C391.606 103.378 391.659 103.857 391.766 104.326C391.872 104.794 391.979 105.274 392.085 105.763C391.979 105.827 391.904 105.923 391.862 106.051C391.819 106.179 391.745 106.275 391.638 106.339C391.936 107.233 392.085 108.149 392.085 109.086C392.085 109.831 392 110.566 391.83 111.29C391.681 111.993 391.574 112.717 391.51 113.463V113.495C391.51 113.622 391.553 113.708 391.638 113.75C391.723 113.793 391.766 113.867 391.766 113.974C391.766 114.038 391.755 114.091 391.734 114.134C391.5 115.582 391.265 117.03 391.031 118.478C390.818 119.927 390.637 121.385 390.488 122.855H390.744C391.297 122.855 391.787 122.695 392.213 122.376C392.66 122.035 393.033 121.662 393.331 121.258H393.842C395.376 119.916 396.845 118.532 398.251 117.105C399.678 115.678 401.03 114.144 402.308 112.504C402.479 112.504 402.596 112.462 402.66 112.376C402.724 112.291 402.83 112.227 402.979 112.185C403.426 111.567 403.895 110.96 404.385 110.364C404.875 109.746 405.407 109.16 405.982 108.607C406.003 108.394 406.057 108.202 406.142 108.032C406.248 107.861 406.355 107.702 406.461 107.552C406.568 107.403 406.664 107.244 406.749 107.073C406.834 106.903 406.877 106.701 406.877 106.466C406.983 106.424 407.1 106.381 407.228 106.339C407.356 106.275 407.473 106.189 407.579 106.083C407.622 105.87 407.697 105.678 407.803 105.508C407.91 105.338 407.963 105.146 407.963 104.933C407.963 104.848 407.942 104.741 407.899 104.613C408.24 104.464 408.506 104.219 408.698 103.879C408.889 103.538 409.038 103.165 409.145 102.76C409.251 102.335 409.326 101.909 409.368 101.483C409.432 101.057 409.518 100.684 409.624 100.364ZM442.178 101.131C442.178 101.877 442.039 102.601 441.762 103.304C441.486 103.985 441.283 104.688 441.155 105.412C440.687 106.03 440.25 106.669 439.846 107.329C439.441 107.989 439.026 108.649 438.6 109.31C438.174 109.97 437.727 110.609 437.258 111.226C436.789 111.823 436.257 112.366 435.661 112.856C435.682 112.877 435.693 112.92 435.693 112.983C435.693 113.111 435.629 113.218 435.501 113.303C435.394 113.367 435.362 113.452 435.405 113.558C434.873 114.112 434.351 114.655 433.84 115.188C433.329 115.72 432.86 116.317 432.434 116.977C431.965 117.211 431.582 117.594 431.284 118.127C431.156 118.127 431.06 118.159 430.996 118.223C430.933 118.265 430.847 118.308 430.741 118.35C430.059 119.181 429.346 119.969 428.6 120.715C427.855 121.46 427.056 122.141 426.204 122.759C425.885 122.993 425.565 123.206 425.246 123.398C424.927 123.59 424.618 123.792 424.32 124.005C424.128 124.133 423.936 124.282 423.744 124.452C423.574 124.623 423.393 124.782 423.201 124.931C422.584 125.464 421.977 125.911 421.38 126.273C420.784 126.614 420.081 126.848 419.272 126.976C419.208 127.21 419.176 127.466 419.176 127.743V128.51C419.176 128.765 419.165 129.031 419.144 129.308C419.123 129.564 419.048 129.809 418.921 130.043V130.139C418.921 130.352 418.974 130.554 419.08 130.746C419.187 130.959 419.24 131.172 419.24 131.385C419.24 131.534 419.165 131.662 419.016 131.768H419.847C419.847 132.066 419.932 132.322 420.103 132.535C420.294 132.748 420.39 132.908 420.39 133.014C420.39 133.376 420.347 133.77 420.262 134.196C420.198 134.643 419.985 134.941 419.623 135.091V135.282C419.623 135.495 419.602 135.698 419.559 135.889C419.517 136.102 419.421 136.305 419.272 136.496C419.144 136.496 419.016 136.496 418.889 136.496C418.782 136.518 418.676 136.528 418.569 136.528C417.675 136.528 416.876 136.315 416.173 135.889C415.939 135.335 415.779 134.76 415.694 134.164C415.63 133.589 415.598 133.003 415.598 132.407C415.598 131.236 415.683 130.075 415.854 128.925C416.024 127.775 416.162 126.625 416.269 125.475L416.748 124.548C416.791 123.952 416.865 123.355 416.972 122.759C417.078 122.141 417.185 121.534 417.291 120.938C417.398 120.342 417.483 119.745 417.547 119.149C417.632 118.553 417.664 117.956 417.643 117.36C417.813 116.998 417.93 116.615 417.994 116.21C418.079 115.805 418.122 115.411 418.122 115.028C418.122 114.815 418.111 114.602 418.09 114.389C418.069 114.176 418.005 113.974 417.898 113.782C418.026 113.697 418.111 113.59 418.154 113.463C418.196 113.335 418.26 113.218 418.345 113.111C418.409 112.281 418.463 111.461 418.505 110.651C418.548 109.821 418.569 109.001 418.569 108.191C418.569 107.744 418.558 107.308 418.537 106.882C418.516 106.434 418.484 105.987 418.441 105.54C418.42 105.369 418.377 105.167 418.314 104.933C418.271 104.699 418.25 104.518 418.25 104.39C418.25 104.219 418.26 104.049 418.282 103.879C418.303 103.687 418.314 103.495 418.314 103.304C418.314 103.091 418.292 102.888 418.25 102.697C418.207 102.484 418.133 102.292 418.026 102.122C417.004 102.42 416.088 102.824 415.279 103.336C414.469 103.825 413.649 104.379 412.819 104.997C412.478 105.231 412.105 105.508 411.701 105.827C411.296 106.147 410.913 106.392 410.551 106.562C410.487 106.605 410.412 106.637 410.327 106.658C410.22 106.658 410.135 106.658 410.071 106.658C409.837 106.658 409.624 106.647 409.432 106.626C409.241 106.583 409.049 106.562 408.857 106.562C408.559 106.264 408.208 106.03 407.803 105.859C407.739 105.604 407.707 105.327 407.707 105.029C407.707 104.731 407.739 104.443 407.803 104.166C407.846 103.889 407.92 103.612 408.027 103.336C408.282 103.25 408.559 103.154 408.857 103.048C409.134 102.942 409.411 102.824 409.688 102.697C409.944 102.547 410.178 102.388 410.391 102.217C410.604 102.026 410.774 101.791 410.902 101.515C411.03 101.578 411.147 101.61 411.253 101.61C411.36 101.61 411.456 101.6 411.541 101.578C411.626 101.557 411.722 101.536 411.828 101.515C412.212 101.28 412.595 101.035 412.978 100.78C413.383 100.524 413.798 100.311 414.224 100.141C414.352 100.098 414.427 100.045 414.448 99.9811C414.469 99.9172 414.469 99.8214 414.448 99.6936C414.938 99.5445 415.449 99.3741 415.981 99.1824C416.514 98.9695 416.961 98.6819 417.323 98.3199H417.898C418.218 98.0856 418.558 97.8939 418.921 97.7448C419.283 97.5958 419.645 97.4573 420.007 97.3295C420.39 97.1805 420.763 97.0314 421.125 96.8823C421.487 96.7119 421.828 96.4989 422.147 96.2433C422.275 96.2008 422.381 96.1795 422.467 96.1795C422.573 96.1795 422.69 96.2008 422.818 96.2433C423.031 96.1369 423.212 96.0091 423.361 95.86L423.872 95.3488C424.213 95.3488 424.522 95.3169 424.799 95.253C425.076 95.1891 425.342 95.1039 425.597 94.9974C425.853 94.8909 426.098 94.7738 426.332 94.646C426.588 94.4969 426.865 94.3478 427.163 94.1988C427.291 94.2414 427.386 94.2946 427.45 94.3585C427.514 94.4011 427.621 94.4224 427.77 94.4224C427.983 94.2733 428.206 94.1668 428.441 94.1029C428.696 94.0177 428.952 93.9538 429.207 93.9112C429.463 93.8686 429.708 93.8154 429.942 93.7515C430.198 93.6876 430.421 93.5705 430.613 93.4001C431.295 93.4001 431.976 93.3894 432.658 93.3681C433.36 93.3255 434.053 93.3043 434.734 93.3043C435.714 93.3043 436.704 93.3788 437.705 93.5279C438.728 93.677 439.643 94.0497 440.453 94.646C440.772 95.4127 441.23 96.0623 441.826 96.5948C441.869 96.829 441.912 97.0527 441.954 97.2656C442.018 97.4573 442.093 97.649 442.178 97.8407C442.029 98.1602 441.954 98.5116 441.954 98.8949C441.954 99.2783 441.986 99.6616 442.05 100.045C442.135 100.407 442.178 100.769 442.178 101.131ZM439.207 100.364C439.1 100.173 439.026 99.9598 438.983 99.7255C438.962 99.47 438.962 99.225 438.983 98.9908C438.706 98.7778 438.493 98.5009 438.344 98.1602C438.195 97.8194 437.982 97.5638 437.705 97.3934C437.514 97.2869 437.237 97.223 436.875 97.2017C436.534 97.1805 436.246 97.1379 436.012 97.074C435.735 96.9888 435.543 96.9036 435.437 96.8184C435.352 96.7332 435.16 96.6906 434.862 96.6906C434.606 96.6906 434.351 96.7225 434.095 96.7864C433.84 96.829 433.584 96.8503 433.329 96.8503C433.116 96.8503 432.913 96.8077 432.722 96.7225C432.53 96.6374 432.328 96.5948 432.115 96.5948C431.88 96.5948 431.657 96.6693 431.444 96.8184C431.252 96.9675 431.018 97.0101 430.741 96.9462C430.613 97.0527 430.538 97.1379 430.517 97.2017C430.517 97.2656 430.507 97.3189 430.485 97.3615C430.464 97.3828 430.411 97.3934 430.326 97.3934H429.878C429.431 97.3934 428.973 97.4573 428.505 97.5851C428.057 97.7129 427.653 97.9259 427.291 98.224C427.227 98.2027 427.163 98.1921 427.099 98.1921C427.056 98.1708 427.003 98.1602 426.939 98.1602C426.577 98.1602 426.226 98.2666 425.885 98.4796C425.565 98.6713 425.203 98.7671 424.799 98.7671C424.543 99.0227 424.234 99.225 423.872 99.3741C423.51 99.5232 423.138 99.6723 422.754 99.8214C422.392 99.9492 422.051 100.109 421.732 100.301C421.412 100.471 421.167 100.727 420.997 101.067C420.976 101.238 421.029 101.344 421.157 101.387C421.285 101.429 421.348 101.536 421.348 101.706C421.348 101.855 421.317 102.036 421.253 102.249C421.21 102.462 421.189 102.675 421.189 102.888C421.189 103.378 421.242 103.857 421.348 104.326C421.455 104.794 421.561 105.274 421.668 105.763C421.561 105.827 421.487 105.923 421.444 106.051C421.402 106.179 421.327 106.275 421.221 106.339C421.519 107.233 421.668 108.149 421.668 109.086C421.668 109.831 421.583 110.566 421.412 111.29C421.263 111.993 421.157 112.717 421.093 113.463V113.495C421.093 113.622 421.136 113.708 421.221 113.75C421.306 113.793 421.348 113.867 421.348 113.974C421.348 114.038 421.338 114.091 421.317 114.134C421.082 115.582 420.848 117.03 420.614 118.478C420.401 119.927 420.22 121.385 420.071 122.855H420.326C420.88 122.855 421.37 122.695 421.796 122.376C422.243 122.035 422.616 121.662 422.914 121.258H423.425C424.958 119.916 426.428 118.532 427.834 117.105C429.261 115.678 430.613 114.144 431.891 112.504C432.061 112.504 432.178 112.462 432.242 112.376C432.306 112.291 432.413 112.227 432.562 112.185C433.009 111.567 433.478 110.96 433.967 110.364C434.457 109.746 434.99 109.16 435.565 108.607C435.586 108.394 435.639 108.202 435.725 108.032C435.831 107.861 435.937 107.702 436.044 107.552C436.15 107.403 436.246 107.244 436.331 107.073C436.417 106.903 436.459 106.701 436.459 106.466C436.566 106.424 436.683 106.381 436.811 106.339C436.938 106.275 437.056 106.189 437.162 106.083C437.205 105.87 437.279 105.678 437.386 105.508C437.492 105.338 437.545 105.146 437.545 104.933C437.545 104.848 437.524 104.741 437.482 104.613C437.822 104.464 438.089 104.219 438.28 103.879C438.472 103.538 438.621 103.165 438.728 102.76C438.834 102.335 438.909 101.909 438.951 101.483C439.015 101.057 439.1 100.684 439.207 100.364Z" fill="#202020"/>
</g>
</g>
<path d="M710.828 41.3672H88.1773C81.9254 41.3672 75.9281 43.844 71.4981 48.2556L52.7551 66.9204C48.3008 71.3561 45.7969 77.3834 45.7969 83.6695V332.403C45.7969 345.458 56.3797 356.041 69.4343 356.041H729.571C742.625 356.041 753.208 345.458 753.208 332.403V83.6695C753.208 77.3834 750.704 71.3561 746.25 66.9204L727.507 48.2556C723.077 43.844 717.08 41.3672 710.828 41.3672Z" stroke="#202020" stroke-width="2.21601"/>
<g clip-path="url(#clip7_18_549)">
<path d="M229.726 157.706H568.037C603.325 157.706 631.932 186.312 631.932 221.601V223.078C631.932 258.366 603.325 286.973 568.037 286.973H229.726C194.437 286.973 165.831 258.366 165.831 223.078V221.601C165.831 186.312 194.437 157.706 229.726 157.706Z" stroke="#202020" stroke-width="2.21601"/>
<path d="M559.596 179.016C583.665 179.016 603.177 198.528 603.177 222.598C603.177 246.667 583.665 266.178 559.596 266.179C535.526 266.179 516.014 246.667 516.014 222.598C516.014 198.528 535.526 179.016 559.596 179.016ZM559.343 190.096C554.877 190.096 550.622 190.997 546.749 192.626L550.666 199.41L543.619 203.479L539.705 196.699C532.91 201.86 528.206 209.633 527.095 218.523H534.933V226.66H527.094C528.202 235.548 532.9 243.32 539.689 248.483L543.607 241.699L550.653 245.768L546.73 252.561C550.608 254.195 554.87 255.099 559.343 255.099C563.809 255.099 568.065 254.197 571.938 252.567L568.022 245.784L575.068 241.716L578.981 248.494C585.779 243.331 590.483 235.554 591.592 226.66H583.754V218.523H591.591C590.48 209.638 585.781 201.869 578.991 196.708L575.08 203.484L568.033 199.416L571.949 192.631C568.073 190.998 563.813 190.096 559.343 190.096Z" fill="#202020"/>
<path d="M237.852 179.016C261.921 179.016 281.433 198.528 281.433 222.598C281.432 246.667 261.921 266.178 237.852 266.179C213.782 266.179 194.27 246.667 194.27 222.598C194.27 198.528 213.782 179.016 237.852 179.016ZM237.599 190.096C233.133 190.096 228.878 190.997 225.005 192.626L228.922 199.41L221.875 203.479L217.961 196.699C211.165 201.86 206.462 209.633 205.351 218.523H213.188V226.66H205.35C206.458 235.548 211.155 243.32 217.945 248.483L221.863 241.699L228.909 245.768L224.986 252.561C228.864 254.195 233.126 255.099 237.599 255.099C242.065 255.099 246.321 254.197 250.194 252.567L246.278 245.784L253.324 241.716L257.237 248.494C264.035 243.331 268.738 235.554 269.848 226.66H262.01V218.523H269.847C268.736 209.638 264.037 201.869 257.247 196.708L253.336 203.484L246.289 199.416L250.205 192.631C246.329 190.998 242.069 190.096 237.599 190.096Z" fill="#202020"/>
</g>
<defs>
<clipPath id="clip0_18_549">
<rect width="26.5921" height="26.5921" fill="white" transform="translate(385.467 386.867)"/>
</clipPath>
<clipPath id="clip1_18_549">
<rect width="26.5921" height="26.5921" fill="white" transform="translate(19.9434 19.9453)"/>
</clipPath>
<clipPath id="clip2_18_549">
<rect width="26.5921" height="26.5921" fill="white" transform="translate(19.9434 442.27)"/>
</clipPath>
<clipPath id="clip3_18_549">
<rect width="26.5921" height="26.5921" fill="white" transform="translate(750.992 19.9453)"/>
</clipPath>
<clipPath id="clip4_18_549">
<rect width="26.5921" height="26.5921" fill="white" transform="translate(750.992 442.27)"/>
</clipPath>
<clipPath id="clip5_18_549">
<rect width="707.647" height="314.674" fill="white" transform="translate(45.7969 41.3672)"/>
</clipPath>
<clipPath id="clip6_18_549">
<rect width="708" height="199.767" fill="white" transform="matrix(1 0 0 -1 46.166 356.738)"/>
</clipPath>
<clipPath id="clip7_18_549">
<rect x="164.723" y="156.598" width="468.317" height="131.483" rx="65.003" fill="white"/>
</clipPath>
</defs>
</svg>
