<svg width="798" height="489" viewBox="0 0 798 489" fill="none" xmlns="http://www.w3.org/2000/svg">
<g opacity="0.8">
<mask id="path-1-outside-1_18_1465" maskUnits="userSpaceOnUse" x="-0.783203" y="-0.785156" width="799" height="490" fill="black">
<rect fill="white" x="-0.783203" y="-0.785156" width="799" height="490"/>
<path d="M763.048 2.21484C780.998 2.21484 795.55 16.7667 795.55 34.7168V454.281C795.55 472.231 780.998 486.783 763.048 486.783H34.7188C16.7687 486.783 2.2168 472.231 2.2168 454.281V34.7168C2.2168 16.7667 16.7687 2.21484 34.7188 2.21484H763.048ZM210.522 433.362C199.1 433.363 189.84 442.622 189.84 454.045C189.84 465.468 199.1 474.727 210.522 474.728C221.945 474.728 231.206 465.468 231.206 454.045C231.206 442.622 221.945 433.362 210.522 433.362ZM587.749 433.362C576.326 433.362 567.065 442.622 567.065 454.045C567.065 465.468 576.326 474.728 587.749 474.728C599.172 474.727 608.432 465.468 608.432 454.045C608.432 442.622 599.172 433.363 587.749 433.362ZM277.003 433.362C274.555 433.362 272.571 435.346 272.571 437.794V457C272.571 459.447 274.555 461.431 277.003 461.432H296.209C298.656 461.431 300.64 459.447 300.641 457V437.794C300.64 435.346 298.656 433.362 296.209 433.362H277.003ZM502.062 433.362C499.615 433.362 497.631 435.346 497.631 437.794V457C497.631 459.447 499.615 461.431 502.062 461.432H521.269C523.716 461.431 525.7 459.447 525.7 457V437.794C525.7 435.346 523.716 433.362 521.269 433.362H502.062ZM237.854 178.757C213.784 178.757 194.272 198.269 194.272 222.339C194.272 246.408 213.784 265.921 237.854 265.921C261.923 265.921 281.436 246.408 281.436 222.339C281.436 198.269 261.923 178.757 237.854 178.757ZM559.914 178.757C535.845 178.757 516.333 198.269 516.333 222.339C516.333 246.408 535.845 265.921 559.914 265.921C583.983 265.921 603.496 246.408 603.496 222.339C603.496 198.269 583.983 178.757 559.914 178.757Z"/>
</mask>
<path d="M763.048 2.21484C780.998 2.21484 795.55 16.7667 795.55 34.7168V454.281C795.55 472.231 780.998 486.783 763.048 486.783H34.7188C16.7687 486.783 2.2168 472.231 2.2168 454.281V34.7168C2.2168 16.7667 16.7687 2.21484 34.7188 2.21484H763.048ZM210.522 433.362C199.1 433.363 189.84 442.622 189.84 454.045C189.84 465.468 199.1 474.727 210.522 474.728C221.945 474.728 231.206 465.468 231.206 454.045C231.206 442.622 221.945 433.362 210.522 433.362ZM587.749 433.362C576.326 433.362 567.065 442.622 567.065 454.045C567.065 465.468 576.326 474.728 587.749 474.728C599.172 474.727 608.432 465.468 608.432 454.045C608.432 442.622 599.172 433.363 587.749 433.362ZM277.003 433.362C274.555 433.362 272.571 435.346 272.571 437.794V457C272.571 459.447 274.555 461.431 277.003 461.432H296.209C298.656 461.431 300.64 459.447 300.641 457V437.794C300.64 435.346 298.656 433.362 296.209 433.362H277.003ZM502.062 433.362C499.615 433.362 497.631 435.346 497.631 437.794V457C497.631 459.447 499.615 461.431 502.062 461.432H521.269C523.716 461.431 525.7 459.447 525.7 457V437.794C525.7 435.346 523.716 433.362 521.269 433.362H502.062ZM237.854 178.757C213.784 178.757 194.272 198.269 194.272 222.339C194.272 246.408 213.784 265.921 237.854 265.921C261.923 265.921 281.436 246.408 281.436 222.339C281.436 198.269 261.923 178.757 237.854 178.757ZM559.914 178.757C535.845 178.757 516.333 198.269 516.333 222.339C516.333 246.408 535.845 265.921 559.914 265.921C583.983 265.921 603.496 246.408 603.496 222.339C603.496 198.269 583.983 178.757 559.914 178.757Z" fill="#E2E2E2"/>
<path d="M210.522 433.362L210.522 431.146L210.522 431.146L210.522 433.362ZM189.84 454.045L187.624 454.045V454.045H189.84ZM210.522 474.728L210.522 476.944H210.522V474.728ZM231.206 454.045L233.422 454.045L233.422 454.045L231.206 454.045ZM587.749 433.362L587.749 431.146H587.749V433.362ZM567.065 454.045L564.849 454.045V454.045H567.065ZM587.749 474.728L587.749 476.944L587.749 476.944L587.749 474.728ZM608.432 454.045L610.648 454.045L610.648 454.045L608.432 454.045ZM277.003 433.362L277.003 431.146L277.003 431.146L277.003 433.362ZM272.571 437.794L270.355 437.794V437.794H272.571ZM272.571 457L270.355 457L270.355 457L272.571 457ZM277.003 461.432L277.003 463.648H277.003V461.432ZM296.209 461.432L296.209 463.648L296.209 463.648L296.209 461.432ZM300.641 457L302.857 457V457H300.641ZM300.641 437.794L302.857 437.794L302.857 437.794L300.641 437.794ZM296.209 433.362L296.209 431.146H296.209V433.362ZM502.062 433.362L502.062 431.146L502.062 431.146L502.062 433.362ZM497.631 437.794L495.415 437.794V437.794H497.631ZM497.631 457L495.415 457L495.415 457L497.631 457ZM502.062 461.432L502.062 463.648H502.062V461.432ZM521.269 461.432L521.269 463.648L521.269 463.648L521.269 461.432ZM525.7 457L527.916 457V457H525.7ZM525.7 437.794L527.916 437.794L527.916 437.794L525.7 437.794ZM521.269 433.362L521.269 431.146H521.269V433.362ZM237.854 178.757L237.854 176.541L237.854 176.541L237.854 178.757ZM194.272 222.339L192.056 222.339V222.339H194.272ZM237.854 265.921L237.854 268.137H237.854V265.921ZM281.436 222.339L283.652 222.339L283.652 222.339L281.436 222.339ZM559.914 178.757L559.914 176.541L559.914 176.541L559.914 178.757ZM516.333 222.339L514.117 222.339V222.339H516.333ZM559.914 265.921L559.914 268.137H559.914V265.921ZM603.496 222.339L605.712 222.339L605.712 222.339L603.496 222.339ZM763.048 2.21484V4.43086C779.774 4.43086 793.334 17.9906 793.334 34.7168H795.55H797.766C797.766 15.5428 782.222 -0.00116849 763.048 -0.00116849V2.21484ZM795.55 34.7168H793.334V454.281H795.55H797.766V34.7168H795.55ZM795.55 454.281H793.334C793.334 471.007 779.774 484.567 763.048 484.567V486.783V488.999C782.222 488.999 797.766 473.455 797.766 454.281H795.55ZM763.048 486.783V484.567H34.7188V486.783V488.999H763.048V486.783ZM34.7188 486.783V484.567C17.9925 484.567 4.43281 471.007 4.43281 454.281H2.2168H0.000784636C0.000784636 473.455 15.5448 488.999 34.7188 488.999V486.783ZM2.2168 454.281H4.43281V34.7168H2.2168H0.000784636V454.281H2.2168ZM2.2168 34.7168H4.43281C4.43281 17.9906 17.9925 4.43086 34.7188 4.43086V2.21484V-0.00116849C15.5448 -0.00116849 0.000784636 15.5428 0.000784636 34.7168H2.2168ZM34.7188 2.21484V4.43086H763.048V2.21484V-0.00116849H34.7188V2.21484ZM210.522 433.362L210.522 431.146C197.876 431.147 187.624 441.398 187.624 454.045L189.84 454.045L192.056 454.045C192.056 443.846 200.324 435.579 210.523 435.578L210.522 433.362ZM189.84 454.045H187.624C187.624 466.691 197.876 476.943 210.522 476.944L210.522 474.728L210.523 472.512C200.324 472.511 192.056 464.244 192.056 454.045H189.84ZM210.522 474.728V476.944C223.169 476.944 233.422 466.692 233.422 454.045H231.206H228.99C228.99 464.244 220.722 472.512 210.522 472.512V474.728ZM231.206 454.045L233.422 454.045C233.422 441.398 223.169 431.146 210.522 431.146V433.362V435.578C220.721 435.578 228.99 443.846 228.99 454.045L231.206 454.045ZM587.749 433.362V431.146C575.103 431.146 564.849 441.398 564.849 454.045L567.065 454.045L569.281 454.045C569.281 443.846 577.55 435.578 587.749 435.578V433.362ZM567.065 454.045H564.849C564.849 466.692 575.103 476.944 587.749 476.944V474.728V472.512C577.55 472.512 569.281 464.244 569.281 454.045H567.065ZM587.749 474.728L587.749 476.944C600.395 476.943 610.648 466.691 610.648 454.045H608.432H606.216C606.216 464.244 597.948 472.511 587.749 472.512L587.749 474.728ZM608.432 454.045L610.648 454.045C610.648 441.398 600.395 431.147 587.749 431.146L587.749 433.362L587.749 435.578C597.948 435.579 606.216 443.846 606.216 454.045L608.432 454.045ZM277.003 433.362L277.003 431.146C273.332 431.147 270.356 434.123 270.355 437.794L272.571 437.794L274.787 437.794C274.787 436.57 275.779 435.578 277.003 435.578L277.003 433.362ZM272.571 437.794H270.355V457H272.571H274.787V437.794H272.571ZM272.571 457L270.355 457C270.356 460.671 273.332 463.647 277.003 463.648L277.003 461.432L277.003 459.216C275.779 459.216 274.787 458.224 274.787 457L272.571 457ZM277.003 461.432V463.648H296.209V461.432V459.216H277.003V461.432ZM296.209 461.432L296.209 463.648C299.88 463.647 302.856 460.671 302.857 457L300.641 457L298.425 457C298.425 458.224 297.433 459.216 296.209 459.216L296.209 461.432ZM300.641 457H302.857V437.794H300.641H298.425V457H300.641ZM300.641 437.794L302.857 437.794C302.856 434.123 299.88 431.147 296.209 431.146L296.209 433.362L296.209 435.578C297.433 435.578 298.425 436.57 298.425 437.794L300.641 437.794ZM296.209 433.362V431.146H277.003V433.362V435.578H296.209V433.362ZM502.062 433.362L502.062 431.146C498.391 431.147 495.415 434.123 495.415 437.794L497.631 437.794L499.847 437.794C499.847 436.57 500.839 435.578 502.063 435.578L502.062 433.362ZM497.631 437.794H495.415V457H497.631H499.847V437.794H497.631ZM497.631 457L495.415 457C495.415 460.671 498.391 463.647 502.062 463.648L502.062 461.432L502.063 459.216C500.839 459.216 499.847 458.224 499.847 457L497.631 457ZM502.062 461.432V463.648H521.269V461.432V459.216H502.062V461.432ZM521.269 461.432L521.269 463.648C524.94 463.647 527.916 460.671 527.916 457L525.7 457L523.484 457C523.484 458.224 522.492 459.216 521.268 459.216L521.269 461.432ZM525.7 457H527.916V437.794H525.7H523.484V457H525.7ZM525.7 437.794L527.916 437.794C527.916 434.123 524.94 431.147 521.269 431.146L521.269 433.362L521.268 435.578C522.492 435.578 523.484 436.57 523.484 437.794L525.7 437.794ZM521.269 433.362V431.146H502.062V433.362V435.578H521.269V433.362ZM237.854 178.757L237.854 176.541C212.56 176.541 192.056 197.046 192.056 222.339L194.272 222.339L196.488 222.339C196.488 199.493 215.008 180.973 237.854 180.973L237.854 178.757ZM194.272 222.339H192.056C192.056 247.632 212.56 268.137 237.854 268.137L237.854 265.921L237.854 263.705C215.008 263.705 196.488 245.184 196.488 222.339H194.272ZM237.854 265.921V268.137C263.147 268.137 283.652 247.632 283.652 222.339H281.436H279.22C279.22 245.184 260.699 263.705 237.854 263.705V265.921ZM281.436 222.339L283.652 222.339C283.652 197.046 263.147 176.541 237.854 176.541V178.757V180.973C260.699 180.973 279.22 199.493 279.22 222.339L281.436 222.339ZM559.914 178.757L559.914 176.541C534.621 176.541 514.117 197.046 514.117 222.339L516.333 222.339L518.549 222.339C518.549 199.493 537.069 180.973 559.914 180.973L559.914 178.757ZM516.333 222.339H514.117C514.117 247.632 534.621 268.137 559.914 268.137L559.914 265.921L559.914 263.705C537.069 263.705 518.549 245.184 518.549 222.339H516.333ZM559.914 265.921V268.137C585.207 268.137 605.712 247.632 605.712 222.339H603.496H601.28C601.28 245.184 582.76 263.705 559.914 263.705V265.921ZM603.496 222.339L605.712 222.339C605.712 197.046 585.207 176.541 559.914 176.541V178.757V180.973C582.76 180.973 601.28 199.493 601.28 222.339L603.496 222.339Z" fill="#202020" mask="url(#path-1-outside-1_18_1465)"/>
</g>
<path d="M237.113 88.6406C310.953 88.6408 370.812 148.5 370.812 222.34C370.812 296.18 310.953 356.039 237.113 356.039C163.273 356.039 103.414 296.18 103.414 222.34C103.414 148.5 163.273 88.6406 237.113 88.6406ZM237.852 176.543C212.558 176.543 192.055 197.047 192.055 222.34C192.055 247.633 212.558 268.138 237.852 268.138C263.145 268.138 283.649 247.633 283.649 222.34C283.649 197.047 263.145 176.543 237.852 176.543Z" fill="#202020"/>
<path d="M559.172 166.941C589.769 166.941 614.572 191.745 614.572 222.342C614.572 252.939 589.769 277.742 559.172 277.742C528.575 277.742 503.772 252.938 503.771 222.342C503.771 191.745 528.575 166.942 559.172 166.941ZM559.911 176.544C534.618 176.544 514.113 197.048 514.113 222.342C514.113 247.635 534.618 268.14 559.911 268.14C585.204 268.139 605.708 247.635 605.708 222.342C605.708 197.049 585.204 176.544 559.911 176.544Z" fill="#202020"/>
<path d="M93.4416 201.658C85.7306 262.787 55.7236 408.383 63.5254 455.391M86.4244 474.597C137.762 475.335 705.8 474.597 711.34 474.597M604.602 191.316C630.754 230.073 714.904 385.05 733.832 445.419" stroke="#202020" stroke-width="0.738671"/>
<path d="M86.1885 427.496C99.2431 427.496 109.826 438.079 109.826 451.134C109.826 464.188 99.2431 474.771 86.1885 474.771C73.1339 474.771 62.5508 464.188 62.5508 451.134C62.5508 438.079 73.1339 427.496 86.1885 427.496ZM86.1885 441.185C80.6918 441.185 76.2354 445.641 76.2354 451.138C76.2356 456.634 80.6919 461.09 86.1885 461.09C91.685 461.09 96.1404 456.634 96.1406 451.138C96.1406 445.641 91.6851 441.185 86.1885 441.185Z" fill="#202020"/>
<path d="M711.104 427.496C724.159 427.496 734.741 438.079 734.741 451.134C734.741 464.188 724.159 474.771 711.104 474.771C698.05 474.771 687.467 464.188 687.467 451.134C687.467 438.079 698.05 427.496 711.104 427.496ZM711.104 441.185C705.607 441.185 701.151 445.641 701.151 451.138C701.152 456.634 705.607 461.09 711.104 461.09C716.6 461.09 721.056 456.634 721.057 451.138C721.057 445.641 716.6 441.185 711.104 441.185Z" fill="#202020"/>
<path d="M179.778 378.569H623.882C634.179 378.569 643.166 385.55 645.712 395.527L669.286 487.893H129.293L158.259 394.429C161.182 384.998 169.905 378.569 179.778 378.569Z" stroke="#202020" stroke-width="2.21601"/>
<circle cx="210.521" cy="454.089" r="19.5748" stroke="#202020" stroke-width="2.21601"/>
<circle cx="587.747" cy="454.089" r="19.5748" stroke="#202020" stroke-width="2.21601"/>
<rect x="273.678" y="434.514" width="25.8535" height="25.8535" rx="3.32402" stroke="#202020" stroke-width="2.21601"/>
<path d="M384.848 461.475C384.848 459.027 386.832 457.043 389.28 457.043H408.485C410.933 457.043 412.917 459.027 412.917 461.475V474.771H384.848V461.475Z" fill="#202020"/>
<rect x="498.737" y="434.514" width="25.8535" height="25.8535" rx="3.32402" stroke="#202020" stroke-width="2.21601"/>
<g clip-path="url(#clip0_18_1465)">
<path d="M398.763 386.867C406.106 386.867 412.058 392.82 412.059 400.163C412.059 407.506 406.106 413.459 398.763 413.459C391.42 413.459 385.467 407.506 385.467 400.163C385.467 392.82 391.42 386.867 398.763 386.867ZM399.849 392.206C399.608 391.023 397.917 391.023 397.677 392.206L396.662 397.197C396.573 397.633 396.233 397.974 395.797 398.062L390.806 399.077C389.623 399.318 389.623 401.008 390.806 401.249L395.797 402.264C396.233 402.352 396.573 402.693 396.662 403.129L397.677 408.12C397.917 409.303 399.608 409.303 399.849 408.12L400.863 403.129C400.952 402.693 401.293 402.352 401.729 402.264L406.72 401.249C407.903 401.008 407.903 399.318 406.72 399.077L401.729 398.062C401.293 397.974 400.952 397.633 400.863 397.197L399.849 392.206Z" fill="#202020"/>
</g>
<g clip-path="url(#clip1_18_1465)">
<path d="M33.2393 19.9453C40.5824 19.9453 46.5351 25.8981 46.5352 33.2412C46.5352 40.5844 40.5825 46.5371 33.2393 46.5371C25.8961 46.537 19.9434 40.5844 19.9434 33.2412C19.9435 25.8981 25.8962 19.9454 33.2393 19.9453ZM34.3252 25.2842C34.0845 24.1014 32.3939 24.1014 32.1533 25.2842L31.1387 30.2754C31.05 30.7112 30.7092 31.052 30.2734 31.1406L25.2822 32.1553C24.0994 32.3959 24.0995 34.0865 25.2822 34.3271L30.2734 35.3418C30.7092 35.4304 31.05 35.7713 31.1387 36.207L32.1533 41.1982C32.3939 42.3812 34.0846 42.3812 34.3252 41.1982L35.3398 36.207C35.4285 35.7713 35.7694 35.4304 36.2051 35.3418L41.1963 34.3271C42.3792 34.0866 42.3792 32.3958 41.1963 32.1553L36.2051 31.1406C35.7694 31.052 35.4285 30.7111 35.3398 30.2754L34.3252 25.2842Z" fill="#202020"/>
</g>
<g clip-path="url(#clip2_18_1465)">
<path d="M33.2393 442.27C40.5824 442.27 46.5351 448.222 46.5352 455.565C46.5352 462.909 40.5825 468.861 33.2393 468.861C25.8961 468.861 19.9434 462.909 19.9434 455.565C19.9435 448.222 25.8962 442.27 33.2393 442.27ZM34.3252 447.608C34.0845 446.426 32.3939 446.426 32.1533 447.608L31.1387 452.6C31.05 453.035 30.7092 453.376 30.2734 453.465L25.2822 454.479C24.0994 454.72 24.0995 456.411 25.2822 456.651L30.2734 457.666C30.7092 457.755 31.05 458.096 31.1387 458.531L32.1533 463.522C32.3939 464.705 34.0846 464.705 34.3252 463.522L35.3398 458.531C35.4285 458.096 35.7694 457.755 36.2051 457.666L41.1963 456.651C42.3792 456.411 42.3792 454.72 41.1963 454.479L36.2051 453.465C35.7694 453.376 35.4285 453.035 35.3398 452.6L34.3252 447.608Z" fill="#202020"/>
</g>
<g clip-path="url(#clip3_18_1465)">
<path d="M764.288 19.9453C771.631 19.9453 777.584 25.8981 777.584 33.2412C777.584 40.5844 771.631 46.5371 764.288 46.5371C756.945 46.537 750.992 40.5844 750.992 33.2412C750.992 25.8981 756.945 19.9454 764.288 19.9453ZM765.374 25.2842C765.133 24.1014 763.443 24.1014 763.202 25.2842L762.188 30.2754C762.099 30.7112 761.758 31.052 761.322 31.1406L756.331 32.1553C755.148 32.3959 755.148 34.0865 756.331 34.3271L761.322 35.3418C761.758 35.4304 762.099 35.7713 762.188 36.207L763.202 41.1982C763.443 42.3812 765.133 42.3812 765.374 41.1982L766.389 36.207C766.477 35.7713 766.818 35.4304 767.254 35.3418L772.245 34.3271C773.428 34.0866 773.428 32.3958 772.245 32.1553L767.254 31.1406C766.818 31.052 766.477 30.7111 766.389 30.2754L765.374 25.2842Z" fill="#202020"/>
</g>
<g clip-path="url(#clip4_18_1465)">
<path d="M764.288 442.27C771.631 442.27 777.584 448.222 777.584 455.565C777.584 462.909 771.631 468.861 764.288 468.861C756.945 468.861 750.992 462.909 750.992 455.565C750.992 448.222 756.945 442.27 764.288 442.27ZM765.374 447.608C765.133 446.426 763.443 446.426 763.202 447.608L762.188 452.6C762.099 453.035 761.758 453.376 761.322 453.465L756.331 454.479C755.148 454.72 755.148 456.411 756.331 456.651L761.322 457.666C761.758 457.755 762.099 458.096 762.188 458.531L763.202 463.522C763.443 464.705 765.133 464.705 765.374 463.522L766.389 458.531C766.477 458.096 766.818 457.755 767.254 457.666L772.245 456.651C773.428 456.411 773.428 454.72 772.245 454.479L767.254 453.465C766.818 453.376 766.477 453.035 766.389 452.6L765.374 447.608Z" fill="#202020"/>
</g>
<mask id="mask0_18_1465" style="mask-type:alpha" maskUnits="userSpaceOnUse" x="45" y="41" width="709" height="316">
<path d="M88.1855 42.4756H711.055C717.012 42.4757 722.727 44.835 726.949 49.0381L745.7 67.7051C749.947 71.9331 752.335 77.6791 752.335 83.6719V332.403C752.335 344.846 742.248 354.933 729.806 354.933H69.4346C56.9919 354.933 46.9053 344.846 46.9053 332.403V83.6719C46.9053 77.6791 49.293 71.9331 53.54 67.7051L72.291 49.0381C76.5131 44.835 82.2281 42.4757 88.1855 42.4756ZM229.726 155.492C193.214 155.492 163.615 185.091 163.615 221.603V223.08C163.615 259.592 193.214 289.191 229.726 289.191H568.037C604.549 289.191 634.148 259.592 634.148 223.08V221.603C634.148 185.091 604.549 155.492 568.037 155.492H229.726Z" fill="#EDA35F" stroke="#202020" stroke-width="2.21601"/>
</mask>
<g mask="url(#mask0_18_1465)">
<g clip-path="url(#clip5_18_1465)">
<rect width="707.647" height="314.674" transform="translate(45.7969 41.3672)" fill="#FCF7F2"/>
<g clip-path="url(#clip6_18_1465)">
<rect width="708" height="35.5142" transform="matrix(1 0 0 -1 46.166 356.738)" fill="#9B51E0"/>
<rect width="708" height="24.416" transform="matrix(1 0 0 -1 46.166 312.344)" fill="#9B51E0"/>
<rect width="708" height="4.43928" transform="matrix(1 0 0 -1 46.166 181.387)" fill="#9B51E0"/>
<rect width="708" height="2.21964" transform="matrix(1 0 0 -1 46.166 159.191)" fill="#9B51E0"/>
<rect width="708" height="17.7571" transform="matrix(1 0 0 -1 46.166 279.051)" fill="#9B51E0"/>
<rect width="708" height="8.87855" transform="matrix(1 0 0 -1 46.166 225.781)" fill="#9B51E0"/>
<rect width="708" height="13.3178" transform="matrix(1 0 0 -1 46.166 250.195)" fill="#9B51E0"/>
<rect width="708" height="6.65891" transform="matrix(1 0 0 -1 46.166 203.582)" fill="#9B51E0"/>
</g>
<path d="M333.426 107.744C333.426 108.958 333.267 110.076 332.947 111.099C332.628 112.121 332.212 113.101 331.701 114.038C331.211 114.975 330.679 115.901 330.104 116.817C329.529 117.733 328.986 118.702 328.475 119.724C328.347 119.724 328.251 119.756 328.187 119.82C328.144 119.884 328.102 119.969 328.059 120.076C328.038 120.161 327.995 120.246 327.931 120.331C327.889 120.395 327.804 120.427 327.676 120.427C327.484 120.896 327.239 121.343 326.941 121.769C326.643 122.173 326.323 122.578 325.983 122.983C325.663 123.366 325.344 123.76 325.024 124.165C324.726 124.569 324.46 125.006 324.226 125.475H323.906C322.756 127.136 321.457 128.627 320.009 129.947C318.582 131.268 317.016 132.45 315.313 133.493C315.27 133.621 315.206 133.727 315.121 133.813C315.036 133.898 315.014 134.015 315.057 134.164C314.823 134.292 314.62 134.452 314.45 134.643C314.301 134.856 314.152 135.069 314.003 135.282C313.854 135.495 313.694 135.698 313.524 135.889C313.374 136.102 313.172 136.262 312.917 136.368C312.597 136.305 312.288 136.251 311.99 136.209C311.713 136.166 311.426 136.134 311.128 136.113C311 136.113 310.872 136.113 310.744 136.113C310.616 136.134 310.499 136.134 310.393 136.113C310.158 136.07 309.956 135.974 309.786 135.825C309.637 135.698 309.413 135.634 309.115 135.634C308.966 135.634 308.849 135.644 308.763 135.666C308.593 135.367 308.391 135.059 308.156 134.739C307.943 134.441 307.837 134.111 307.837 133.749C307.837 133.472 307.869 133.216 307.933 132.982C308.018 132.748 308.061 132.503 308.061 132.247C308.061 131.736 307.965 131.236 307.773 130.746C307.603 130.256 307.518 129.755 307.518 129.244C307.518 129.074 307.539 128.914 307.581 128.765C307.624 128.595 307.645 128.424 307.645 128.254C307.645 128.062 307.56 127.892 307.39 127.743C307.411 127.636 307.454 127.53 307.518 127.423C307.581 127.317 307.613 127.2 307.613 127.072C307.656 126.902 307.667 126.721 307.645 126.529C307.624 126.316 307.613 126.124 307.613 125.954C307.613 125.507 307.635 125.059 307.677 124.612C307.72 124.165 307.816 123.728 307.965 123.302C307.943 123.174 307.912 123.057 307.869 122.951L307.741 122.631C307.89 122.184 307.986 121.684 308.029 121.13C308.071 120.576 308.093 120.022 308.093 119.469V117.775C308.093 117.222 308.125 116.7 308.188 116.21C308.231 115.997 308.274 115.795 308.316 115.603C308.38 115.39 308.412 115.188 308.412 114.996C308.412 114.826 308.38 114.677 308.316 114.549C308.252 114.4 308.167 114.261 308.061 114.134C308.21 114.091 308.295 114.006 308.316 113.878C308.337 113.729 308.348 113.601 308.348 113.495C308.348 113.196 308.295 112.866 308.188 112.504C308.274 112.142 308.327 111.78 308.348 111.418C308.369 111.035 308.38 110.662 308.38 110.3C308.38 109.022 308.295 107.765 308.125 106.53C307.975 105.295 307.88 104.049 307.837 102.792H307.741C307.592 102.792 307.475 102.824 307.39 102.888C307.305 102.952 307.219 103.027 307.134 103.112C307.049 103.176 306.953 103.24 306.847 103.304C306.74 103.346 306.612 103.357 306.463 103.336C306.208 103.634 305.91 103.889 305.569 104.102C305.249 104.315 304.909 104.507 304.546 104.677C304.184 104.848 303.812 105.007 303.428 105.156C303.045 105.284 302.683 105.412 302.342 105.54C302.044 105.433 301.788 105.263 301.575 105.029C301.362 104.773 301.16 104.518 300.968 104.262C300.947 104.177 300.937 104.092 300.937 104.006V103.751C300.937 103.154 301.075 102.707 301.352 102.409C301.629 102.09 301.927 101.717 302.246 101.291H302.406C302.513 101.291 302.608 101.312 302.694 101.355C302.757 101.397 302.843 101.419 302.949 101.419H303.045C303.663 100.908 304.312 100.503 304.994 100.205C305.697 99.8853 306.421 99.6403 307.166 99.47C307.486 99.1505 307.805 98.9056 308.125 98.7352C308.465 98.5648 308.859 98.4796 309.307 98.4796C309.413 98.4796 309.53 98.4903 309.658 98.5116C309.807 98.5116 309.935 98.5222 310.041 98.5435C310.915 98.1389 311.734 97.7981 312.501 97.5212C313.289 97.223 314.194 97.074 315.217 97.074C315.344 97.074 315.43 97.042 315.472 96.9781C315.536 96.9142 315.589 96.8503 315.632 96.7864C315.675 96.7013 315.717 96.6267 315.76 96.5628C315.802 96.4989 315.877 96.467 315.983 96.467C315.983 96.5096 315.994 96.5735 316.015 96.6587C316.037 96.7438 316.09 96.7864 316.175 96.7864C316.26 96.7864 316.335 96.7651 316.399 96.7225C316.484 96.6587 316.58 96.6267 316.686 96.6267C316.793 96.6267 316.867 96.7013 316.91 96.8503C317.144 96.7013 317.368 96.5628 317.581 96.435C317.794 96.3072 318.028 96.2114 318.284 96.1475C318.603 96.2114 318.923 96.2646 319.242 96.3072C319.583 96.3498 319.924 96.3711 320.264 96.3711C320.52 96.3711 320.775 96.3605 321.031 96.3392C321.287 96.2966 321.51 96.1901 321.702 96.0197C321.787 95.9984 321.83 96.041 321.83 96.1475C322.021 96.3179 322.224 96.435 322.437 96.4989C322.65 96.5415 322.873 96.5735 323.108 96.5948C323.342 96.5948 323.576 96.6054 323.81 96.6267C324.045 96.648 324.258 96.7225 324.449 96.8503C324.62 96.8929 324.758 96.9675 324.865 97.074C324.971 97.1592 325.11 97.2337 325.28 97.2976C325.408 97.3402 325.578 97.3721 325.791 97.3934C326.025 97.4147 326.196 97.4573 326.302 97.5212C326.409 97.5638 326.462 97.6384 326.462 97.7448C326.483 97.83 326.547 97.9046 326.654 97.9685C326.845 98.1176 327.101 98.2134 327.42 98.256C327.74 98.2773 328.017 98.3731 328.251 98.5435C328.336 99.0121 328.57 99.3209 328.954 99.47C329.337 99.6191 329.71 99.7681 330.072 99.9172C330.2 100.045 330.242 100.194 330.2 100.364C330.455 100.556 330.679 100.769 330.871 101.003C331.084 101.238 331.275 101.493 331.446 101.77C331.637 102.026 331.818 102.281 331.989 102.537C332.159 102.792 332.361 103.027 332.596 103.24C332.574 103.431 332.596 103.58 332.66 103.687C332.745 103.793 332.766 103.953 332.723 104.166C332.979 104.4 333.213 104.709 333.426 105.093C333.299 105.284 333.235 105.497 333.235 105.732C333.235 105.944 333.267 106.157 333.33 106.37C333.394 106.583 333.426 106.796 333.426 107.009V107.744ZM330.455 107.041C330.455 106.424 330.338 105.827 330.104 105.252C329.87 104.656 329.667 104.07 329.497 103.495C329.22 103.495 329.039 103.399 328.954 103.208C328.89 102.995 328.762 102.814 328.57 102.665C328.166 102.579 327.91 102.271 327.804 101.738C327.378 101.568 326.941 101.376 326.494 101.163C326.047 100.95 325.674 100.652 325.376 100.269C324.609 100.034 323.832 99.8001 323.044 99.5658C322.277 99.3102 321.489 99.1824 320.68 99.1824C320.53 99.1824 320.392 99.1931 320.264 99.2144C320.158 99.2144 320.051 99.2144 319.945 99.2144C319.774 99.2144 319.593 99.2463 319.402 99.3102C319.21 99.3741 319.029 99.4061 318.859 99.4061C318.667 99.4061 318.475 99.3422 318.284 99.2144C317.858 99.4487 317.389 99.6297 316.878 99.7575C316.388 99.8853 315.888 100.002 315.376 100.109C314.865 100.194 314.365 100.311 313.875 100.46C313.385 100.588 312.948 100.79 312.565 101.067C312.437 101.025 312.31 100.993 312.182 100.971C312.075 100.95 311.969 100.94 311.862 100.94C311.671 100.94 311.522 100.982 311.415 101.067C311.351 101.11 311.309 101.163 311.287 101.227C311.287 101.291 311.277 101.365 311.255 101.451C311.255 101.515 311.234 101.568 311.191 101.61C311.149 101.653 311.064 101.664 310.936 101.642C310.936 101.749 310.925 101.845 310.904 101.93C310.904 102.015 310.904 102.111 310.904 102.217C310.904 102.771 310.957 103.325 311.064 103.879C311.191 104.411 311.255 104.954 311.255 105.508C311.255 105.7 311.245 105.902 311.223 106.115C311.202 106.307 311.159 106.498 311.096 106.69C311.202 106.945 311.255 107.222 311.255 107.521C311.277 107.819 311.287 108.117 311.287 108.415C311.287 108.713 311.298 109.011 311.319 109.31C311.34 109.586 311.415 109.853 311.543 110.108C311.479 110.428 311.436 110.747 311.415 111.067C311.394 111.386 311.383 111.706 311.383 112.025C311.383 112.77 311.415 113.505 311.479 114.229C311.564 114.953 311.607 115.688 311.607 116.434C311.607 116.625 311.596 116.828 311.575 117.041C311.575 117.254 311.564 117.467 311.543 117.68C311.5 117.956 311.426 118.223 311.319 118.478C311.213 118.734 311.159 119.011 311.159 119.309C311.159 119.501 311.17 119.703 311.191 119.916C311.213 120.108 311.223 120.31 311.223 120.523C311.223 120.608 311.213 120.693 311.191 120.778C311.191 120.842 311.191 120.917 311.191 121.002C311.085 121.747 311 122.504 310.936 123.27C310.872 124.037 310.84 124.793 310.84 125.538C310.84 126.241 310.861 126.944 310.904 127.647C310.946 128.328 311.01 129.021 311.096 129.724C311.01 129.873 310.968 130.043 310.968 130.235C310.968 130.533 311.042 130.831 311.191 131.129C311.34 131.449 311.564 131.662 311.862 131.768C312.544 131.513 313.172 131.172 313.747 130.746C314.343 130.341 314.94 129.926 315.536 129.5C315.685 129.393 315.909 129.255 316.207 129.085C316.505 128.893 316.708 128.754 316.814 128.669C316.921 128.584 317.006 128.499 317.07 128.414C317.155 128.307 317.251 128.201 317.357 128.094L318.763 126.593C319.572 125.762 320.371 124.921 321.159 124.069C321.968 123.217 322.714 122.312 323.395 121.353C323.587 121.055 323.778 120.768 323.97 120.491C324.162 120.193 324.343 119.884 324.513 119.564C324.598 119.458 324.662 119.341 324.705 119.213C324.747 119.064 324.822 118.936 324.928 118.83C324.992 118.744 325.067 118.659 325.152 118.574C325.259 118.489 325.344 118.404 325.408 118.319C325.578 118.127 325.738 117.935 325.887 117.743C326.057 117.531 326.228 117.307 326.398 117.073C326.867 116.391 327.303 115.71 327.708 115.028C328.113 114.325 328.56 113.633 329.05 112.951C329.092 112.526 329.177 112.132 329.305 111.769C329.433 111.386 329.561 111.024 329.689 110.683C329.816 110.321 329.923 109.948 330.008 109.565C330.093 109.182 330.115 108.756 330.072 108.287C330.178 108.138 330.264 108.032 330.327 107.968C330.413 107.904 330.455 107.776 330.455 107.584V107.041ZM368.44 95.1252C368.44 95.3169 368.429 95.5086 368.408 95.7003C368.408 95.8919 368.397 96.073 368.376 96.2433C368.312 96.3498 368.184 96.3924 367.993 96.3711C367.822 96.3498 367.684 96.3392 367.577 96.3392C367.471 96.3392 367.375 96.3605 367.29 96.4031C367.226 96.4244 367.194 96.4883 367.194 96.5948C367.194 96.7225 367.205 96.8077 367.226 96.8503C367.056 96.829 366.875 96.8077 366.683 96.7864C366.491 96.7651 366.321 96.7013 366.172 96.5948C365.874 96.6587 365.586 96.7438 365.309 96.8503C365.054 96.9568 364.798 97.074 364.542 97.2017C364.287 97.3295 364.021 97.4467 363.744 97.5532C363.467 97.6597 363.179 97.7235 362.881 97.7448C362.689 97.9578 362.445 98.1176 362.146 98.224C361.848 98.3305 361.539 98.4264 361.22 98.5116C360.9 98.5968 360.602 98.7032 360.325 98.831C360.049 98.9375 359.825 99.1079 359.655 99.3422C359.186 99.3848 358.739 99.5019 358.313 99.6936C357.887 99.8853 357.461 100.088 357.035 100.301C356.63 100.514 356.215 100.716 355.789 100.908C355.363 101.099 354.905 101.227 354.415 101.291C354.288 101.419 354.128 101.525 353.936 101.61C353.766 101.696 353.585 101.781 353.393 101.866C353.201 101.93 353.02 102.004 352.85 102.09C352.68 102.175 352.541 102.292 352.435 102.441H352.371C352.286 102.441 352.222 102.42 352.179 102.377C352.136 102.335 352.073 102.313 351.987 102.313C351.923 102.313 351.881 102.324 351.86 102.345C351.348 102.579 350.837 102.824 350.326 103.08C349.815 103.336 349.283 103.58 348.729 103.815C347.643 104.262 346.546 104.699 345.438 105.125C344.331 105.55 343.266 106.072 342.244 106.69C342.009 107.542 341.818 108.415 341.669 109.31C341.519 110.183 341.253 111.024 340.87 111.833V113.335C340.657 113.739 340.518 114.187 340.455 114.677C340.391 115.166 340.359 115.635 340.359 116.082C340.359 116.253 340.359 116.412 340.359 116.561C340.38 116.689 340.391 116.828 340.391 116.977C341.008 116.806 341.605 116.615 342.18 116.402C342.776 116.189 343.372 115.997 343.969 115.827C344.267 115.72 344.565 115.646 344.863 115.603C345.183 115.56 345.492 115.486 345.79 115.379C346.024 115.316 346.269 115.23 346.524 115.124C346.78 114.996 347.025 114.879 347.259 114.772C347.898 114.496 348.548 114.251 349.208 114.038C349.89 113.825 350.582 113.665 351.285 113.558C351.498 113.388 351.732 113.228 351.987 113.079C352.243 112.93 352.498 112.856 352.754 112.856C352.946 112.856 353.105 112.888 353.233 112.951C353.595 112.739 354.021 112.547 354.511 112.376C355.001 112.206 355.459 112.142 355.885 112.185C355.991 112.036 356.119 111.94 356.268 111.897C356.417 111.833 356.577 111.801 356.747 111.801C356.833 111.801 356.907 111.812 356.971 111.833C357.056 111.833 357.152 111.833 357.259 111.833C357.472 111.684 357.706 111.578 357.961 111.514C358.217 111.45 358.473 111.397 358.728 111.354C358.984 111.312 359.229 111.258 359.463 111.194C359.718 111.109 359.942 110.981 360.134 110.811C360.432 110.832 360.666 110.918 360.837 111.067C361.028 111.216 361.188 111.397 361.316 111.61C361.444 111.823 361.55 112.046 361.635 112.281C361.72 112.515 361.827 112.739 361.955 112.951C361.912 113.122 361.848 113.26 361.763 113.367C361.678 113.452 361.582 113.537 361.476 113.622C361.369 113.708 361.273 113.793 361.188 113.878C361.103 113.963 361.05 114.08 361.028 114.229C360.283 114.229 359.559 114.336 358.856 114.549C358.174 114.762 357.493 115.007 356.811 115.284C356.151 115.56 355.47 115.827 354.767 116.082C354.085 116.317 353.382 116.466 352.658 116.53C352.552 116.636 352.413 116.721 352.243 116.785L351.764 116.945C351.615 116.987 351.476 117.051 351.348 117.136C351.221 117.2 351.125 117.307 351.061 117.456C350.933 117.392 350.795 117.36 350.646 117.36C350.284 117.36 349.932 117.456 349.591 117.648C349.251 117.839 348.867 117.935 348.441 117.935C348.271 117.935 348.154 117.925 348.09 117.903C347.983 118.095 347.824 118.233 347.611 118.319C347.419 118.404 347.206 118.478 346.972 118.542C346.759 118.585 346.546 118.649 346.333 118.734C346.141 118.819 345.992 118.968 345.886 119.181C345.822 119.16 345.747 119.149 345.662 119.149H345.47C345.129 119.149 344.735 119.213 344.288 119.341C343.862 119.447 343.553 119.66 343.362 119.98C343.191 119.937 343.042 119.916 342.914 119.916C342.616 119.916 342.35 119.98 342.116 120.108C341.882 120.214 341.647 120.342 341.413 120.491L340.71 120.938C340.476 121.087 340.22 121.194 339.943 121.258C339.39 122.046 339.006 122.951 338.793 123.973C338.58 124.995 338.421 126.06 338.314 127.168C338.229 128.275 338.144 129.372 338.059 130.458C337.973 131.566 337.803 132.577 337.547 133.493C337.675 133.834 337.771 134.196 337.835 134.579C337.899 134.963 337.952 135.346 337.995 135.729C338.037 136.134 338.08 136.539 338.122 136.943C338.165 137.348 338.24 137.731 338.346 138.094C338.453 138.541 338.655 138.935 338.953 139.276C339.273 139.638 339.496 140.042 339.624 140.49C339.73 140.511 339.837 140.521 339.943 140.521C340.071 140.543 340.199 140.553 340.327 140.553C341.094 140.553 341.764 140.404 342.339 140.106C342.936 139.808 343.49 139.435 344.001 138.988C344.512 138.562 345.002 138.094 345.47 137.582C345.96 137.093 346.482 136.656 347.036 136.273H347.643C347.792 136.102 347.919 135.921 348.026 135.729C348.132 135.538 348.25 135.357 348.377 135.186C348.505 135.016 348.654 134.867 348.825 134.739C348.995 134.633 349.208 134.558 349.464 134.516C349.527 134.196 349.677 133.951 349.911 133.781C350.145 133.61 350.305 133.355 350.39 133.014C350.433 133.035 350.486 133.046 350.55 133.046C350.72 133.046 350.848 133.003 350.933 132.918L351.412 132.471C351.583 132.301 351.764 132.13 351.955 131.96C352.168 131.811 352.371 131.662 352.562 131.513C353.18 131.065 353.798 130.618 354.415 130.171C355.033 129.745 355.597 129.244 356.108 128.669C356.13 128.691 356.162 128.701 356.204 128.701C356.375 128.701 356.492 128.648 356.556 128.541C356.62 128.435 356.769 128.403 357.003 128.446C357.131 128.254 357.248 128.062 357.354 127.871C357.461 127.658 357.546 127.434 357.61 127.2L358.632 127.327C358.973 127.37 359.314 127.391 359.655 127.391C359.761 127.391 359.857 127.391 359.942 127.391C360.049 127.37 360.144 127.338 360.23 127.296C360.485 127.7 360.624 128.137 360.645 128.605C360.666 129.053 360.719 129.5 360.805 129.947C360.762 129.947 360.73 129.947 360.709 129.947C360.709 129.926 360.688 129.915 360.645 129.915C360.538 129.915 360.432 129.958 360.325 130.043C360.24 130.107 360.144 130.192 360.038 130.299L359.718 130.618C359.612 130.724 359.516 130.81 359.431 130.874C359.197 131.023 358.952 131.15 358.696 131.257C358.441 131.385 358.196 131.513 357.961 131.64C357.727 131.768 357.503 131.917 357.291 132.088C357.078 132.279 356.907 132.514 356.779 132.79C356.353 132.961 355.938 133.142 355.533 133.333C355.15 133.525 354.777 133.727 354.415 133.94C354.309 134.047 354.213 134.153 354.128 134.26C354.043 134.366 353.979 134.484 353.936 134.611C353.361 134.803 352.882 135.091 352.498 135.474C352.136 135.857 351.764 136.273 351.38 136.72L351.348 136.688C351.199 136.688 351.103 136.741 351.061 136.848C351.04 136.954 350.922 136.986 350.709 136.943C350.305 137.391 349.879 137.806 349.432 138.189C348.984 138.573 348.526 138.956 348.058 139.339C347.589 139.723 347.121 140.106 346.652 140.49C346.184 140.894 345.747 141.32 345.342 141.767C345.066 141.853 344.799 141.959 344.544 142.087C344.288 142.215 344.097 142.406 343.969 142.662H343.873C343.639 142.662 343.468 142.715 343.362 142.822C343.277 142.928 343.17 143.067 343.042 143.237C342.595 143.343 342.137 143.461 341.669 143.588C341.2 143.716 340.721 143.78 340.231 143.78C339.89 143.78 339.56 143.716 339.241 143.588C338.942 143.461 338.644 143.29 338.346 143.077C338.069 142.886 337.803 142.673 337.547 142.438C337.313 142.204 337.09 141.98 336.877 141.767C336.749 141.341 336.578 140.894 336.365 140.426C336.174 139.978 336.078 139.542 336.078 139.116C336.078 139.009 336.089 138.903 336.11 138.796C336.152 138.711 336.174 138.626 336.174 138.541C336.174 138.392 336.12 138.328 336.014 138.349C335.929 138.37 335.865 138.317 335.822 138.189C335.78 137.976 335.748 137.731 335.726 137.455C335.726 137.199 335.705 136.954 335.663 136.72C335.599 136.23 335.513 135.729 335.407 135.218C335.322 134.707 335.226 134.207 335.119 133.717C335.205 133.674 335.269 133.6 335.311 133.493C335.375 133.408 335.439 133.323 335.503 133.238C335.439 133.067 335.375 132.876 335.311 132.663C335.269 132.471 335.247 132.269 335.247 132.056C335.247 131.63 335.407 131.31 335.726 131.097C335.726 130.948 335.684 130.831 335.599 130.746C335.535 130.682 335.503 130.565 335.503 130.394C335.503 130.352 335.513 130.235 335.535 130.043C335.577 129.83 335.62 129.596 335.663 129.34C335.726 129.085 335.78 128.84 335.822 128.605C335.865 128.371 335.897 128.211 335.918 128.126C336.067 127.146 336.195 126.188 336.302 125.251C336.408 124.293 336.557 123.334 336.749 122.376C336.536 122.205 336.259 122.078 335.918 121.992C335.599 121.886 335.375 121.747 335.247 121.577C335.141 121.428 335.056 121.236 334.992 121.002C334.928 120.768 334.896 120.565 334.896 120.395C334.896 119.777 335.141 119.288 335.631 118.926C336.12 118.542 336.642 118.319 337.196 118.255C337.473 117.509 337.675 116.753 337.803 115.986C337.952 115.198 338.069 114.41 338.154 113.622L338.41 111.226C338.495 110.417 338.623 109.618 338.793 108.83H338.602C338.176 108.83 337.76 108.894 337.356 109.022C336.951 109.15 336.536 109.214 336.11 109.214H336.046C335.428 108.724 335.119 108.138 335.119 107.457C335.119 107.052 335.205 106.647 335.375 106.243C335.716 106.115 336.025 105.944 336.302 105.732C336.578 105.519 336.855 105.306 337.132 105.093C337.43 104.858 337.728 104.656 338.027 104.486C338.325 104.315 338.655 104.209 339.017 104.166C339.06 103.548 339.166 102.931 339.336 102.313C339.507 101.696 339.592 101.078 339.592 100.46C339.592 100.333 339.581 100.205 339.56 100.077C339.56 99.9492 339.539 99.8214 339.496 99.6936C339.645 99.5019 339.741 99.2996 339.784 99.0866C339.848 98.8736 339.88 98.65 339.88 98.4157C339.88 98.1602 339.858 97.9152 339.816 97.681C339.794 97.4254 339.762 97.1805 339.72 96.9462C339.911 96.861 340.061 96.7758 340.167 96.6906C340.274 96.5841 340.369 96.4883 340.455 96.4031C340.561 96.3179 340.689 96.2433 340.838 96.1795C340.987 96.1156 341.2 96.0836 341.477 96.0836C341.882 96.0836 342.222 96.1688 342.499 96.3392C342.797 96.4883 343.053 96.6906 343.266 96.9462C343.479 97.2017 343.66 97.4893 343.809 97.8087C343.979 98.1282 344.139 98.4477 344.288 98.7671C344.246 99.0014 344.15 99.1718 344.001 99.2783C343.852 99.3848 343.724 99.5232 343.617 99.6936C343.66 100.034 343.703 100.364 343.745 100.684C343.788 100.982 343.788 101.302 343.745 101.642C343.958 101.749 344.16 101.802 344.352 101.802C344.672 101.802 344.959 101.717 345.215 101.547C345.492 101.376 345.683 101.142 345.79 100.844H345.854C345.917 100.844 345.971 100.865 346.013 100.908C346.077 100.95 346.152 100.971 346.237 100.971H346.365C346.599 100.758 346.855 100.599 347.131 100.492C347.408 100.364 347.696 100.247 347.994 100.141C348.292 100.034 348.58 99.9279 348.857 99.8214C349.155 99.6936 349.432 99.5339 349.687 99.3422C349.815 99.4061 349.953 99.438 350.102 99.438C350.315 99.438 350.518 99.3954 350.709 99.3102C350.922 99.225 351.125 99.1399 351.316 99.0547C351.508 98.9482 351.71 98.8523 351.923 98.7671C352.158 98.6819 352.403 98.6394 352.658 98.6394C352.701 98.6394 352.754 98.65 352.818 98.6713C352.882 98.6713 352.935 98.6713 352.978 98.6713C353.127 98.6713 353.212 98.6181 353.233 98.5116C353.255 98.4051 353.255 98.3092 353.233 98.224C353.915 98.0537 354.5 97.862 354.99 97.649C355.501 97.4147 356.066 97.1485 356.684 96.8503C356.684 96.829 356.705 96.8184 356.747 96.8184C356.811 96.8184 356.854 96.8503 356.875 96.9142C356.896 96.9781 356.907 97.0314 356.907 97.074C357.035 97.0101 357.099 96.9036 357.099 96.7545C357.12 96.6054 357.173 96.4776 357.259 96.3711C357.344 96.3924 357.461 96.4031 357.61 96.4031C357.802 96.4031 357.993 96.3605 358.185 96.2753C358.398 96.1901 358.6 96.0943 358.792 95.9878C358.984 95.8813 359.175 95.7854 359.367 95.7003C359.559 95.6151 359.75 95.5725 359.942 95.5725C360.112 95.5725 360.251 95.6151 360.357 95.7003C360.485 95.6364 360.613 95.5512 360.741 95.4447C360.869 95.3169 361.007 95.253 361.156 95.253C361.199 95.253 361.231 95.2636 361.252 95.2849C361.294 95.3062 361.337 95.3275 361.38 95.3488C361.486 95.2424 361.582 95.1572 361.667 95.0933C361.774 95.0294 361.827 94.9229 361.827 94.7738C362.615 94.6886 363.339 94.5182 363.999 94.2627C364.681 93.9858 365.33 93.6237 365.948 93.1765C366.182 93.2191 366.406 93.2723 366.619 93.3362C366.853 93.3788 367.087 93.4001 367.322 93.4001C367.45 93.6344 367.567 93.8686 367.673 94.1029C367.78 94.3372 368.014 94.4437 368.376 94.4224C368.397 94.5289 368.408 94.646 368.408 94.7738C368.429 94.9016 368.44 95.0187 368.44 95.1252ZM389.653 97.9685C389.354 98.3944 389.035 98.7991 388.694 99.1824C388.375 99.5445 387.97 99.832 387.48 100.045C387.225 101.515 387.012 102.995 386.841 104.486C386.692 105.976 386.522 107.467 386.33 108.958C386.16 110.449 385.957 111.94 385.723 113.431C385.51 114.9 385.212 116.359 384.829 117.807L384.861 118.191C384.903 118.617 384.85 119.021 384.701 119.405C384.552 119.788 384.488 120.203 384.509 120.651C384.211 121.396 383.955 122.227 383.742 123.142C383.529 124.037 383.402 124.889 383.359 125.698C383.146 126.06 382.965 126.454 382.816 126.88C382.688 127.306 382.55 127.743 382.401 128.19C382.273 128.616 382.124 129.031 381.953 129.436C381.783 129.819 381.559 130.171 381.282 130.49C381.219 130.98 381.091 131.438 380.899 131.864C380.729 132.311 380.526 132.748 380.292 133.174C380.079 133.6 379.866 134.015 379.653 134.42C379.462 134.846 379.323 135.293 379.238 135.761C378.876 136.315 378.514 136.848 378.152 137.359C377.79 137.891 377.46 138.445 377.161 139.02C376.884 139.148 376.64 139.286 376.427 139.435C376.235 139.606 376.043 139.755 375.852 139.883C375.66 140.032 375.436 140.159 375.181 140.266C374.946 140.372 374.659 140.426 374.318 140.426C374.233 140.426 374.148 140.415 374.063 140.394C373.999 140.394 373.924 140.394 373.839 140.394C373.541 140.159 373.243 139.925 372.944 139.691C372.646 139.478 372.327 139.286 371.986 139.116C371.986 138.988 371.965 138.882 371.922 138.796C371.901 138.711 371.88 138.626 371.858 138.541C371.837 138.456 371.826 138.37 371.826 138.285C371.826 138.2 371.848 138.094 371.89 137.966C371.698 137.838 371.475 137.604 371.219 137.263C370.985 136.943 370.868 136.667 370.868 136.432C370.868 136.219 370.942 136.113 371.091 136.113C371.049 135.9 370.974 135.687 370.868 135.474C370.783 135.282 370.74 135.08 370.74 134.867C370.74 134.718 370.783 134.558 370.868 134.388C370.634 133.834 370.421 133.259 370.229 132.663C370.037 132.088 369.909 131.491 369.846 130.874C369.633 130.597 369.462 130.277 369.334 129.915C369.228 129.532 369.143 129.138 369.079 128.733C369.015 128.328 368.962 127.934 368.919 127.551C368.877 127.146 368.823 126.774 368.759 126.433C368.738 126.305 368.685 126.103 368.6 125.826C368.514 125.528 368.472 125.326 368.472 125.219C368.472 125.091 368.493 124.995 368.536 124.931C368.6 124.868 368.653 124.782 368.695 124.676C368.44 123.654 368.227 122.621 368.057 121.577C367.907 120.533 367.758 119.49 367.609 118.446C367.482 117.403 367.322 116.37 367.13 115.347C366.96 114.304 366.715 113.282 366.395 112.281V111.993C366.395 111.312 366.129 110.768 365.597 110.364C365.703 110.044 365.756 109.778 365.756 109.565C365.756 109.288 365.714 109.022 365.629 108.766C365.565 108.511 365.49 108.255 365.405 108C365.32 107.744 365.256 107.489 365.213 107.233C365.192 106.977 365.213 106.722 365.277 106.466C365.043 106.211 364.851 105.934 364.702 105.636C364.553 105.338 364.361 105.082 364.127 104.869L364.095 104.677C364.095 104.571 364.127 104.475 364.191 104.39C364.234 104.305 364.255 104.209 364.255 104.102C364.255 103.953 364.223 103.825 364.159 103.719C364.074 103.612 363.989 103.517 363.903 103.431C363.797 103.346 363.712 103.261 363.648 103.176C363.563 103.091 363.52 102.995 363.52 102.888C363.52 102.633 363.605 102.43 363.776 102.281C363.946 102.132 364.138 102.004 364.351 101.898C364.564 101.77 364.766 101.642 364.958 101.515C365.171 101.387 365.309 101.206 365.373 100.971C365.543 101.014 365.714 101.046 365.884 101.067C366.055 101.067 366.225 101.11 366.395 101.195C366.417 101.174 366.427 101.142 366.427 101.099C366.427 101.035 366.321 100.982 366.108 100.94C365.916 100.876 365.788 100.801 365.724 100.716C365.895 100.673 366.023 100.652 366.108 100.652C366.534 100.652 366.938 100.758 367.322 100.971C367.726 101.184 368.11 101.408 368.472 101.642C368.514 101.834 368.525 102.036 368.504 102.249C368.483 102.441 368.546 102.622 368.695 102.792C368.674 102.899 368.664 102.995 368.664 103.08C368.685 103.165 368.695 103.25 368.695 103.336C368.695 103.442 368.674 103.538 368.632 103.623C368.61 103.687 368.557 103.719 368.472 103.719C368.621 103.974 368.717 104.283 368.759 104.645C368.823 105.007 368.877 105.38 368.919 105.763C368.983 106.147 369.058 106.52 369.143 106.882C369.228 107.244 369.388 107.563 369.622 107.84C369.579 107.968 369.547 108.096 369.526 108.223C369.526 108.351 369.526 108.49 369.526 108.639C369.526 109.32 369.611 109.991 369.782 110.651C369.952 111.312 370.037 111.982 370.037 112.664C370.037 113.069 369.973 113.441 369.846 113.782C369.846 113.974 369.909 114.134 370.037 114.261C370.165 114.368 370.25 114.517 370.293 114.709C370.186 114.964 370.133 115.209 370.133 115.443C370.133 115.933 370.229 116.402 370.421 116.849C370.612 117.275 370.708 117.722 370.708 118.191C370.708 118.34 370.687 118.478 370.644 118.606C370.602 118.734 370.559 118.851 370.516 118.957C370.708 119.149 370.804 119.394 370.804 119.692C370.825 119.99 370.921 120.235 371.091 120.427C371.07 120.533 371.049 120.64 371.028 120.746C371.028 120.853 370.974 120.938 370.868 121.002C370.974 121.151 371.028 121.353 371.028 121.609C371.049 121.843 371.145 121.982 371.315 122.024C371.273 122.131 371.241 122.227 371.219 122.312C371.198 122.397 371.187 122.493 371.187 122.599C371.187 122.834 371.219 123.047 371.283 123.238L371.475 123.813C371.539 124.005 371.581 124.207 371.603 124.42C371.645 124.633 371.624 124.868 371.539 125.123C371.624 125.251 371.688 125.4 371.73 125.57C371.794 125.741 371.848 125.922 371.89 126.114C371.933 126.284 371.997 126.444 372.082 126.593C372.167 126.721 372.295 126.806 372.465 126.848C372.486 126.976 372.433 127.04 372.305 127.04C372.199 127.04 372.146 127.093 372.146 127.2C372.146 127.37 372.21 127.583 372.337 127.839C372.465 128.073 372.582 128.243 372.689 128.35C372.668 128.435 372.657 128.52 372.657 128.605V128.893C372.657 129.191 372.699 129.5 372.785 129.819C372.87 130.118 372.944 130.416 373.008 130.714C373.093 131.033 373.157 131.342 373.2 131.64C373.243 131.938 373.221 132.215 373.136 132.471C373.306 132.769 373.456 133.089 373.583 133.429C373.711 133.77 373.913 134.058 374.19 134.292C374.19 134.654 374.265 134.995 374.414 135.314C374.563 135.655 374.755 135.974 374.989 136.273C375.202 136.273 375.362 136.198 375.468 136.049C375.575 135.921 375.66 135.772 375.724 135.602C375.788 135.431 375.862 135.272 375.947 135.122C376.033 134.973 376.171 134.888 376.363 134.867C376.384 134.654 376.437 134.473 376.522 134.324C376.629 134.196 376.725 134.058 376.81 133.909C376.916 133.759 377.002 133.6 377.066 133.429C377.151 133.259 377.183 133.046 377.161 132.79L377.513 132.695C377.619 132.12 377.779 131.598 377.992 131.129C378.226 130.682 378.482 130.213 378.759 129.724V129.564C378.759 129.351 378.791 129.17 378.855 129.021C378.918 128.872 378.929 128.68 378.886 128.446C379.036 128.403 379.142 128.318 379.206 128.19C379.27 128.062 379.323 127.934 379.366 127.807C379.408 127.658 379.451 127.519 379.493 127.391C379.557 127.242 379.653 127.136 379.781 127.072V126.816C379.76 126.625 379.77 126.444 379.813 126.273C379.877 126.082 379.866 125.89 379.781 125.698C379.951 125.634 380.079 125.528 380.164 125.379C380.25 125.23 380.313 125.07 380.356 124.9C380.42 124.729 380.452 124.548 380.452 124.356C380.473 124.165 380.484 123.994 380.484 123.845C380.633 123.654 380.739 123.43 380.803 123.174C380.867 122.898 380.92 122.621 380.963 122.344C381.006 122.067 381.059 121.801 381.123 121.545C381.208 121.29 381.336 121.066 381.506 120.874C381.464 120.768 381.442 120.672 381.442 120.587V120.299C381.442 119.895 381.506 119.533 381.634 119.213C381.762 118.872 381.879 118.51 381.985 118.127C382.262 117.168 382.454 116.189 382.56 115.188C382.688 114.165 382.869 113.164 383.103 112.185C383.125 112.078 383.167 111.908 383.231 111.674C383.295 111.439 383.359 111.205 383.423 110.971C383.487 110.715 383.54 110.492 383.583 110.3C383.647 110.087 383.678 109.948 383.678 109.885C383.678 109.714 383.636 109.597 383.551 109.533C383.487 109.469 383.455 109.363 383.455 109.214C383.583 109.022 383.668 108.777 383.71 108.479C383.753 108.181 383.785 107.872 383.806 107.552C383.828 107.212 383.828 106.892 383.806 106.594C383.806 106.275 383.806 105.998 383.806 105.763C383.806 105.529 383.86 105.231 383.966 104.869C384.072 104.507 384.147 104.187 384.19 103.911C384.296 103.186 384.36 102.473 384.381 101.77C384.424 101.046 384.467 100.322 384.509 99.5978C384.658 99.5126 384.765 99.4061 384.829 99.2783C384.892 99.1292 384.924 98.9801 384.924 98.831C384.924 98.5968 384.892 98.3731 384.829 98.1602C384.786 97.9472 384.765 97.7235 384.765 97.4893C384.765 97.3828 384.775 97.2763 384.797 97.1698C384.818 97.042 384.871 96.9355 384.956 96.8503C384.935 96.7013 384.914 96.5522 384.892 96.4031C384.892 96.254 384.839 96.1262 384.733 96.0197C384.839 95.7428 384.892 95.466 384.892 95.1891C384.892 94.9335 384.861 94.678 384.797 94.4224C384.754 94.1668 384.733 93.9006 384.733 93.6237C384.733 93.0913 384.956 92.7079 385.404 92.4736H385.851C386.064 92.4736 386.277 92.463 386.49 92.4417C386.703 92.4204 386.926 92.3565 387.161 92.25C387.438 92.5482 387.725 92.8783 388.023 93.2404C388.321 93.5811 388.577 93.9538 388.79 94.3585C389.003 94.7632 389.163 95.1785 389.269 95.6044C389.376 96.0304 389.386 96.4776 389.301 96.9462C389.386 97.1166 389.44 97.2869 389.461 97.4573C389.482 97.6277 389.546 97.7981 389.653 97.9685ZM383.135 115.379C383.05 115.358 382.986 115.326 382.944 115.284C382.922 115.22 382.859 115.177 382.752 115.156V115.507H383.008L383.135 115.379ZM436.167 112.185C436.167 113.399 436.082 114.581 435.911 115.731C435.762 116.86 435.539 118.01 435.24 119.181C434.964 119.394 434.793 119.66 434.729 119.98C434.665 120.299 434.559 120.597 434.41 120.874C434.282 121.109 434.112 121.364 433.899 121.641C433.686 121.897 433.451 122.173 433.196 122.472C432.94 122.748 432.685 123.036 432.429 123.334C432.174 123.632 431.961 123.93 431.79 124.229C431.151 124.442 430.693 124.9 430.417 125.602C430.076 125.73 429.724 125.879 429.362 126.05C429 126.199 428.745 126.465 428.596 126.848C427.808 127.253 427.062 127.722 426.359 128.254C425.678 128.765 424.932 129.212 424.123 129.596C424.017 129.702 423.889 129.787 423.74 129.851C423.612 129.894 423.473 129.947 423.324 130.011C423.197 130.075 423.069 130.149 422.941 130.235C422.835 130.341 422.771 130.469 422.749 130.618C422.664 130.618 422.6 130.597 422.558 130.554C422.536 130.533 422.472 130.512 422.366 130.49C422.132 130.618 422.025 130.82 422.046 131.097C421.961 131.055 421.844 131.033 421.695 131.033C421.439 131.033 421.184 131.108 420.928 131.257C420.694 131.427 420.492 131.598 420.321 131.768C420.066 131.896 419.768 132.024 419.427 132.151C419.107 132.279 418.873 132.492 418.724 132.79C418.639 132.705 418.511 132.663 418.341 132.663C418.149 132.663 417.947 132.716 417.734 132.822C417.521 132.95 417.361 133.089 417.254 133.238C416.956 133.238 416.669 133.28 416.392 133.365C416.136 133.472 415.87 133.568 415.593 133.653C415.316 133.759 415.04 133.855 414.763 133.94C414.507 134.026 414.23 134.068 413.932 134.068C413.762 134.068 413.634 134.026 413.549 133.94C413.463 133.855 413.357 133.781 413.229 133.717C413.123 133.802 412.931 133.898 412.654 134.004C412.399 134.111 412.207 134.164 412.079 134.164C411.845 134.164 411.611 134.132 411.376 134.068C411.163 134.004 410.94 133.93 410.705 133.845L410.035 133.621C409.822 133.557 409.587 133.515 409.332 133.493C409.14 133.323 408.906 133.142 408.629 132.95C408.373 132.78 408.118 132.726 407.862 132.79C407.756 132.471 407.596 132.194 407.383 131.96C407.17 131.725 406.925 131.513 406.648 131.321C406.584 131.278 406.51 131.236 406.425 131.193C406.361 131.172 406.307 131.14 406.265 131.097C406.158 131.033 406.062 130.906 405.977 130.714C405.892 130.522 405.796 130.426 405.69 130.426C405.668 130.426 405.637 130.437 405.594 130.458C405.573 130.48 405.551 130.49 405.53 130.49C405.487 130.299 405.424 130.118 405.338 129.947C405.253 129.755 405.104 129.638 404.891 129.596C404.721 129.042 404.604 128.488 404.54 127.934C404.476 127.381 404.391 126.827 404.284 126.273C404.242 126.103 404.188 125.901 404.124 125.666C404.082 125.411 404.06 125.187 404.06 124.995C404.06 124.676 404.103 124.293 404.188 123.845C404.295 123.398 404.38 123.004 404.444 122.663C404.699 121.428 405.04 120.235 405.466 119.085C405.892 117.914 406.35 116.753 406.84 115.603C407.351 114.453 407.873 113.314 408.405 112.185C408.938 111.056 409.438 109.906 409.907 108.735C409.992 108.735 410.045 108.713 410.066 108.671L410.162 108.511C410.205 108.447 410.237 108.394 410.258 108.351C410.301 108.309 410.375 108.287 410.482 108.287V108.191C410.46 108.064 410.482 107.957 410.546 107.872C410.631 107.787 410.652 107.648 410.61 107.457C410.95 107.073 411.238 106.647 411.472 106.179C411.706 105.689 411.941 105.21 412.175 104.741C412.431 104.273 412.697 103.815 412.974 103.367C413.25 102.92 413.602 102.537 414.028 102.217V101.994C414.007 101.887 414.007 101.781 414.028 101.674C414.07 101.547 414.145 101.461 414.251 101.419C414.635 101.035 414.954 100.652 415.21 100.269C415.465 99.8853 415.721 99.5126 415.977 99.1505C416.253 98.7671 416.552 98.4157 416.871 98.0963C417.212 97.7555 417.638 97.4467 418.149 97.1698C418.383 97.0633 418.554 96.9036 418.66 96.6906C418.767 96.4776 418.905 96.3285 419.075 96.2433C419.161 96.2008 419.246 96.1795 419.331 96.1795C419.438 96.1582 419.533 96.1262 419.619 96.0836C419.981 95.9771 420.343 95.8493 420.705 95.7003C421.067 95.5299 421.45 95.4447 421.855 95.4447C422.366 95.4447 422.749 95.5938 423.005 95.8919C423.282 96.1688 423.495 96.5096 423.644 96.9142C423.814 97.3189 423.953 97.7448 424.059 98.1921C424.166 98.6394 424.336 99.0227 424.57 99.3422C425.209 99.3848 425.859 99.4593 426.519 99.5658C427.179 99.651 427.754 99.9172 428.244 100.364C428.287 100.386 428.34 100.396 428.404 100.396C428.51 100.396 428.564 100.354 428.564 100.269C428.564 100.183 428.617 100.141 428.723 100.141H428.819C429.458 100.524 430.065 100.95 430.64 101.419C431.236 101.866 431.822 102.335 432.397 102.824C432.504 102.91 432.61 102.995 432.717 103.08C432.844 103.144 432.951 103.229 433.036 103.336C433.143 103.463 433.238 103.612 433.324 103.783C433.43 103.953 433.526 104.102 433.611 104.23C434.676 106.083 435.39 108.074 435.752 110.204C435.794 110.438 435.826 110.662 435.847 110.875C435.89 111.088 435.911 111.29 435.911 111.482C435.911 111.674 435.954 111.801 436.039 111.865C436.124 111.908 436.167 112.014 436.167 112.185ZM433.707 113.814C433.707 112.962 433.601 112.142 433.388 111.354C433.494 111.312 433.558 111.248 433.579 111.162C433.622 111.056 433.643 110.949 433.643 110.843V110.683L433.26 109.98C433.238 109.682 433.175 109.405 433.068 109.15C432.983 108.894 432.876 108.639 432.749 108.383C432.621 108.128 432.493 107.872 432.365 107.616C432.259 107.361 432.184 107.084 432.142 106.786C431.801 106.53 431.492 106.243 431.215 105.923C430.96 105.582 430.725 105.231 430.512 104.869C430.363 104.805 430.225 104.762 430.097 104.741C429.969 104.72 429.927 104.603 429.969 104.39C429.586 104.283 429.234 104.134 428.915 103.943C428.617 103.73 428.319 103.495 428.021 103.24C427.531 103.133 427.041 103.005 426.551 102.856C426.082 102.686 425.603 102.601 425.113 102.601C424.773 102.601 424.442 102.665 424.123 102.792C424.23 102.963 424.283 103.154 424.283 103.367C424.283 103.559 424.304 103.751 424.347 103.943C425.028 104.113 425.443 104.528 425.593 105.188C425.486 105.252 425.39 105.338 425.305 105.444C425.22 105.529 425.135 105.614 425.049 105.7C424.986 105.763 424.9 105.827 424.794 105.891C424.687 105.955 424.56 105.987 424.411 105.987C424.112 105.987 423.878 105.934 423.708 105.827C423.559 105.721 423.314 105.7 422.973 105.763C422.611 105.444 422.259 105.114 421.919 104.773C421.578 104.411 421.195 104.092 420.769 103.815C420.705 103.602 420.598 103.41 420.449 103.24C420.321 103.069 420.183 102.91 420.034 102.76C419.906 102.59 419.778 102.42 419.65 102.249C419.544 102.058 419.491 101.845 419.491 101.61C419.491 101.461 419.501 101.355 419.523 101.291C419.395 101.248 419.299 101.227 419.235 101.227C419.065 101.227 418.905 101.291 418.756 101.419C418.607 101.525 418.437 101.6 418.245 101.642C418.074 102.153 417.83 102.601 417.51 102.984C417.191 103.367 416.86 103.74 416.52 104.102C416.179 104.464 415.859 104.848 415.561 105.252C415.284 105.636 415.082 106.115 414.954 106.69C414.273 107.542 413.644 108.511 413.069 109.597C412.494 110.662 412.058 111.706 411.76 112.728C411.27 113.282 410.886 113.867 410.61 114.485C410.333 115.103 410.173 115.784 410.13 116.53C410.024 116.593 409.939 116.679 409.875 116.785L409.555 117.424C409.513 117.531 409.438 117.616 409.332 117.68V117.839C409.332 118.01 409.3 118.169 409.236 118.319C409.172 118.446 409.097 118.574 409.012 118.702C408.948 118.83 408.884 118.957 408.821 119.085C408.757 119.192 408.725 119.32 408.725 119.469C408.725 119.639 408.767 119.809 408.852 119.98C408.618 120.022 408.458 120.15 408.373 120.363C408.309 120.555 408.214 120.725 408.086 120.874C408.001 121.556 407.915 122.248 407.83 122.951C407.745 123.654 407.702 124.346 407.702 125.027C407.702 125.815 407.788 126.614 407.958 127.423C408.15 127.615 408.32 127.828 408.469 128.062C408.618 128.297 408.767 128.52 408.916 128.733C409.087 128.946 409.268 129.138 409.459 129.308C409.651 129.457 409.907 129.553 410.226 129.596C410.226 129.745 410.258 129.851 410.322 129.915C410.386 129.979 410.439 130.064 410.482 130.171C410.929 130.32 411.398 130.437 411.887 130.522C412.377 130.629 412.867 130.682 413.357 130.682C413.698 130.682 414.039 130.639 414.379 130.554C414.741 130.469 415.04 130.299 415.274 130.043C416.36 130 417.436 129.745 418.5 129.276C419.587 128.808 420.577 128.297 421.471 127.743H422.142C422.377 127.423 422.664 127.168 423.005 126.976C423.346 126.763 423.697 126.571 424.059 126.401C424.123 126.358 424.208 126.316 424.315 126.273C424.421 126.231 424.506 126.188 424.57 126.145C424.805 125.975 425.039 125.783 425.273 125.57C425.529 125.357 425.784 125.155 426.04 124.963C426.466 124.644 426.902 124.335 427.35 124.037C427.797 123.739 428.223 123.419 428.628 123.079C429.053 122.738 429.447 122.376 429.81 121.992C430.193 121.588 430.512 121.14 430.768 120.651C430.896 120.651 430.992 120.619 431.055 120.555C431.141 120.47 431.205 120.384 431.247 120.299C431.311 120.214 431.375 120.139 431.439 120.076C431.524 120.012 431.641 119.98 431.79 119.98C431.79 119.788 431.822 119.628 431.886 119.501C431.971 119.351 432.056 119.224 432.142 119.117C432.248 118.989 432.344 118.872 432.429 118.766C432.536 118.659 432.631 118.521 432.717 118.35V117.456C433.057 116.902 433.302 116.317 433.451 115.699C433.622 115.081 433.707 114.453 433.707 113.814ZM469.807 101.131C469.807 101.877 469.668 102.601 469.392 103.304C469.115 103.985 468.912 104.688 468.785 105.412C468.316 106.03 467.879 106.669 467.475 107.329C467.07 107.989 466.655 108.649 466.229 109.31C465.803 109.97 465.356 110.609 464.887 111.226C464.418 111.823 463.886 112.366 463.29 112.856C463.311 112.877 463.322 112.92 463.322 112.983C463.322 113.111 463.258 113.218 463.13 113.303C463.023 113.367 462.992 113.452 463.034 113.558C462.502 114.112 461.98 114.655 461.469 115.188C460.958 115.72 460.489 116.317 460.063 116.977C459.595 117.211 459.211 117.594 458.913 118.127C458.785 118.127 458.689 118.159 458.625 118.223C458.562 118.265 458.476 118.308 458.37 118.35C457.688 119.181 456.975 119.969 456.229 120.715C455.484 121.46 454.685 122.141 453.833 122.759C453.514 122.993 453.195 123.206 452.875 123.398C452.556 123.59 452.247 123.792 451.949 124.005C451.757 124.133 451.565 124.282 451.374 124.452C451.203 124.623 451.022 124.782 450.83 124.931C450.213 125.464 449.606 125.911 449.01 126.273C448.413 126.614 447.71 126.848 446.901 126.976C446.837 127.21 446.805 127.466 446.805 127.743V128.51C446.805 128.765 446.795 129.031 446.773 129.308C446.752 129.564 446.677 129.809 446.55 130.043V130.139C446.55 130.352 446.603 130.554 446.709 130.746C446.816 130.959 446.869 131.172 446.869 131.385C446.869 131.534 446.795 131.662 446.645 131.768H447.476C447.476 132.066 447.561 132.322 447.732 132.535C447.923 132.748 448.019 132.908 448.019 133.014C448.019 133.376 447.977 133.77 447.891 134.196C447.827 134.643 447.615 134.941 447.252 135.091V135.282C447.252 135.495 447.231 135.698 447.189 135.889C447.146 136.102 447.05 136.305 446.901 136.496C446.773 136.496 446.645 136.496 446.518 136.496C446.411 136.518 446.305 136.528 446.198 136.528C445.304 136.528 444.505 136.315 443.802 135.889C443.568 135.335 443.408 134.76 443.323 134.164C443.259 133.589 443.227 133.003 443.227 132.407C443.227 131.236 443.312 130.075 443.483 128.925C443.653 127.775 443.792 126.625 443.898 125.475L444.377 124.548C444.42 123.952 444.494 123.355 444.601 122.759C444.707 122.141 444.814 121.534 444.92 120.938C445.027 120.342 445.112 119.745 445.176 119.149C445.261 118.553 445.293 117.956 445.272 117.36C445.442 116.998 445.559 116.615 445.623 116.21C445.708 115.805 445.751 115.411 445.751 115.028C445.751 114.815 445.74 114.602 445.719 114.389C445.698 114.176 445.634 113.974 445.527 113.782C445.655 113.697 445.74 113.59 445.783 113.463C445.825 113.335 445.889 113.218 445.975 113.111C446.038 112.281 446.092 111.461 446.134 110.651C446.177 109.821 446.198 109.001 446.198 108.191C446.198 107.744 446.188 107.308 446.166 106.882C446.145 106.434 446.113 105.987 446.07 105.54C446.049 105.369 446.007 105.167 445.943 104.933C445.9 104.699 445.879 104.518 445.879 104.39C445.879 104.219 445.889 104.049 445.911 103.879C445.932 103.687 445.943 103.495 445.943 103.304C445.943 103.091 445.921 102.888 445.879 102.697C445.836 102.484 445.762 102.292 445.655 102.122C444.633 102.42 443.717 102.824 442.908 103.336C442.098 103.825 441.278 104.379 440.448 104.997C440.107 105.231 439.734 105.508 439.33 105.827C438.925 106.147 438.542 106.392 438.18 106.562C438.116 106.605 438.041 106.637 437.956 106.658C437.849 106.658 437.764 106.658 437.7 106.658C437.466 106.658 437.253 106.647 437.061 106.626C436.87 106.583 436.678 106.562 436.486 106.562C436.188 106.264 435.837 106.03 435.432 105.859C435.368 105.604 435.336 105.327 435.336 105.029C435.336 104.731 435.368 104.443 435.432 104.166C435.475 103.889 435.549 103.612 435.656 103.336C435.911 103.25 436.188 103.154 436.486 103.048C436.763 102.942 437.04 102.824 437.317 102.697C437.573 102.547 437.807 102.388 438.02 102.217C438.233 102.026 438.403 101.791 438.531 101.515C438.659 101.578 438.776 101.61 438.882 101.61C438.989 101.61 439.085 101.6 439.17 101.578C439.255 101.557 439.351 101.536 439.457 101.515C439.841 101.28 440.224 101.035 440.608 100.78C441.012 100.524 441.427 100.311 441.853 100.141C441.981 100.098 442.056 100.045 442.077 99.9811C442.098 99.9172 442.098 99.8214 442.077 99.6936C442.567 99.5445 443.078 99.3741 443.611 99.1824C444.143 98.9695 444.59 98.6819 444.952 98.3199H445.527C445.847 98.0856 446.188 97.8939 446.55 97.7448C446.912 97.5958 447.274 97.4573 447.636 97.3295C448.019 97.1805 448.392 97.0314 448.754 96.8823C449.116 96.7119 449.457 96.4989 449.776 96.2433C449.904 96.2008 450.011 96.1795 450.096 96.1795C450.202 96.1795 450.319 96.2008 450.447 96.2433C450.66 96.1369 450.841 96.0091 450.99 95.86L451.501 95.3488C451.842 95.3488 452.151 95.3169 452.428 95.253C452.705 95.1891 452.971 95.1039 453.226 94.9974C453.482 94.8909 453.727 94.7738 453.961 94.646C454.217 94.4969 454.494 94.3478 454.792 94.1988C454.92 94.2414 455.015 94.2946 455.079 94.3585C455.143 94.4011 455.25 94.4224 455.399 94.4224C455.612 94.2733 455.835 94.1668 456.07 94.1029C456.325 94.0177 456.581 93.9538 456.836 93.9112C457.092 93.8686 457.337 93.8154 457.571 93.7515C457.827 93.6876 458.05 93.5705 458.242 93.4001C458.924 93.4001 459.605 93.3894 460.287 93.3681C460.99 93.3255 461.682 93.3043 462.363 93.3043C463.343 93.3043 464.333 93.3788 465.334 93.5279C466.357 93.677 467.272 94.0497 468.082 94.646C468.401 95.4127 468.859 96.0623 469.455 96.5948C469.498 96.829 469.541 97.0527 469.583 97.2656C469.647 97.4573 469.722 97.649 469.807 97.8407C469.658 98.1602 469.583 98.5116 469.583 98.8949C469.583 99.2783 469.615 99.6616 469.679 100.045C469.764 100.407 469.807 100.769 469.807 101.131ZM466.836 100.364C466.729 100.173 466.655 99.9598 466.612 99.7255C466.591 99.47 466.591 99.225 466.612 98.9908C466.335 98.7778 466.122 98.5009 465.973 98.1602C465.824 97.8194 465.611 97.5638 465.334 97.3934C465.143 97.2869 464.866 97.223 464.504 97.2017C464.163 97.1805 463.875 97.1379 463.641 97.074C463.364 96.9888 463.173 96.9036 463.066 96.8184C462.981 96.7332 462.789 96.6906 462.491 96.6906C462.235 96.6906 461.98 96.7225 461.724 96.7864C461.469 96.829 461.213 96.8503 460.958 96.8503C460.745 96.8503 460.542 96.8077 460.351 96.7225C460.159 96.6374 459.957 96.5948 459.744 96.5948C459.509 96.5948 459.286 96.6693 459.073 96.8184C458.881 96.9675 458.647 97.0101 458.37 96.9462C458.242 97.0527 458.168 97.1379 458.146 97.2017C458.146 97.2656 458.136 97.3189 458.114 97.3615C458.093 97.3828 458.04 97.3934 457.955 97.3934H457.507C457.06 97.3934 456.602 97.4573 456.134 97.5851C455.686 97.7129 455.282 97.9259 454.92 98.224C454.856 98.2027 454.792 98.1921 454.728 98.1921C454.685 98.1708 454.632 98.1602 454.568 98.1602C454.206 98.1602 453.855 98.2666 453.514 98.4796C453.195 98.6713 452.832 98.7671 452.428 98.7671C452.172 99.0227 451.863 99.225 451.501 99.3741C451.139 99.5232 450.767 99.6723 450.383 99.8214C450.021 99.9492 449.68 100.109 449.361 100.301C449.041 100.471 448.797 100.727 448.626 101.067C448.605 101.238 448.658 101.344 448.786 101.387C448.914 101.429 448.978 101.536 448.978 101.706C448.978 101.855 448.946 102.036 448.882 102.249C448.839 102.462 448.818 102.675 448.818 102.888C448.818 103.378 448.871 103.857 448.978 104.326C449.084 104.794 449.191 105.274 449.297 105.763C449.191 105.827 449.116 105.923 449.073 106.051C449.031 106.179 448.956 106.275 448.85 106.339C449.148 107.233 449.297 108.149 449.297 109.086C449.297 109.831 449.212 110.566 449.041 111.29C448.892 111.993 448.786 112.717 448.722 113.463V113.495C448.722 113.622 448.765 113.708 448.85 113.75C448.935 113.793 448.978 113.867 448.978 113.974C448.978 114.038 448.967 114.091 448.946 114.134C448.711 115.582 448.477 117.03 448.243 118.478C448.03 119.927 447.849 121.385 447.7 122.855H447.955C448.509 122.855 448.999 122.695 449.425 122.376C449.872 122.035 450.245 121.662 450.543 121.258H451.054C452.588 119.916 454.057 118.532 455.463 117.105C456.89 115.678 458.242 114.144 459.52 112.504C459.69 112.504 459.807 112.462 459.871 112.376C459.935 112.291 460.042 112.227 460.191 112.185C460.638 111.567 461.107 110.96 461.597 110.364C462.086 109.746 462.619 109.16 463.194 108.607C463.215 108.394 463.268 108.202 463.354 108.032C463.46 107.861 463.567 107.702 463.673 107.552C463.78 107.403 463.875 107.244 463.961 107.073C464.046 106.903 464.088 106.701 464.088 106.466C464.195 106.424 464.312 106.381 464.44 106.339C464.568 106.275 464.685 106.189 464.791 106.083C464.834 105.87 464.908 105.678 465.015 105.508C465.121 105.338 465.175 105.146 465.175 104.933C465.175 104.848 465.153 104.741 465.111 104.613C465.451 104.464 465.718 104.219 465.909 103.879C466.101 103.538 466.25 103.165 466.357 102.76C466.463 102.335 466.538 101.909 466.58 101.483C466.644 101.057 466.729 100.684 466.836 100.364ZM493.767 128.861C493.767 129.074 493.756 129.234 493.735 129.34C493.628 129.383 493.543 129.447 493.479 129.532C493.415 129.596 493.309 129.617 493.16 129.596C493.117 129.915 493.011 130.181 492.84 130.394C492.67 130.607 492.489 130.799 492.297 130.969C492.127 131.161 491.957 131.353 491.786 131.544C491.616 131.757 491.509 132.024 491.467 132.343C491.147 132.514 490.828 132.737 490.508 133.014C490.21 133.312 489.944 133.515 489.71 133.621C489.539 133.706 489.358 133.77 489.167 133.813C488.975 133.877 488.783 133.951 488.591 134.036C487.974 134.313 487.335 134.601 486.675 134.899C486.036 135.197 485.365 135.346 484.662 135.346H484.438C484.353 135.431 484.247 135.485 484.119 135.506C483.991 135.548 483.863 135.58 483.736 135.602C483.608 135.623 483.48 135.655 483.352 135.698C483.224 135.74 483.129 135.804 483.065 135.889C482.83 135.804 482.575 135.761 482.298 135.761H482.074C481.712 135.847 481.372 135.911 481.052 135.953C480.733 135.996 480.392 136.017 480.03 136.017C479.391 136.017 478.752 135.974 478.113 135.889C477.474 135.804 476.835 135.729 476.196 135.666C475.792 135.346 475.461 134.941 475.206 134.452C474.95 133.983 474.822 133.483 474.822 132.95C474.822 132.545 474.908 132.162 475.078 131.8C475.248 131.459 475.472 131.15 475.749 130.874H475.845C476.036 130.874 476.228 130.831 476.42 130.746C476.633 130.661 476.835 130.618 477.027 130.618C477.24 130.618 477.41 130.703 477.538 130.874C477.687 131.044 477.793 131.246 477.857 131.481C477.943 131.715 477.996 131.949 478.017 132.183C478.038 132.439 478.049 132.641 478.049 132.79C478.283 132.897 478.528 132.961 478.784 132.982C479.061 133.003 479.338 133.014 479.614 133.014C479.891 133.014 480.2 132.993 480.541 132.95C480.882 132.929 481.222 132.876 481.563 132.79C481.925 132.726 482.266 132.641 482.586 132.535C482.926 132.428 483.214 132.29 483.448 132.12C484.619 132.013 485.652 131.747 486.547 131.321C487.441 130.895 488.389 130.394 489.39 129.819C489.433 129.585 489.518 129.404 489.646 129.276C489.795 129.127 489.869 128.914 489.869 128.637C489.869 128.595 489.859 128.552 489.837 128.51C489.837 128.446 489.837 128.392 489.837 128.35C489.411 127.817 488.964 127.349 488.496 126.944C488.048 126.539 487.463 126.273 486.739 126.145C486.653 125.954 486.515 125.815 486.323 125.73C486.132 125.624 485.929 125.528 485.716 125.443C485.503 125.357 485.301 125.272 485.109 125.187C484.918 125.081 484.779 124.91 484.694 124.676C484.119 124.569 483.523 124.442 482.905 124.293C482.309 124.122 481.797 123.824 481.372 123.398C481.031 123.377 480.701 123.313 480.381 123.206C480.083 123.079 479.785 122.961 479.487 122.855C479.189 122.727 478.88 122.621 478.56 122.535C478.241 122.429 477.911 122.376 477.57 122.376C477.485 122.227 477.368 122.11 477.218 122.024C477.069 121.939 476.899 121.865 476.707 121.801C476.537 121.737 476.367 121.673 476.196 121.609C476.047 121.524 475.93 121.407 475.845 121.258C475.76 121.279 475.696 121.322 475.653 121.385C475.61 121.449 475.536 121.481 475.429 121.481H475.302C475.259 121.353 475.174 121.268 475.046 121.226C474.918 121.162 474.844 121.045 474.822 120.874C474.439 120.853 474.088 120.778 473.768 120.651C473.47 120.523 473.183 120.384 472.906 120.235C472.65 120.065 472.384 119.905 472.107 119.756C471.83 119.607 471.521 119.49 471.181 119.405C470.968 119.234 470.765 119.053 470.574 118.862C470.403 118.649 470.18 118.542 469.903 118.542C469.839 118.542 469.722 118.563 469.551 118.606C469.509 118.223 469.349 117.956 469.072 117.807C468.795 117.637 468.497 117.488 468.178 117.36C467.965 116.806 467.677 116.317 467.315 115.891C466.953 115.465 466.559 115.071 466.133 114.709C466.176 114.581 466.197 114.485 466.197 114.421C466.197 114.208 466.144 114.027 466.037 113.878C465.931 113.708 465.813 113.569 465.686 113.463C465.388 112.504 465.238 111.567 465.238 110.651C465.238 109.373 465.526 108.191 466.101 107.105C466.655 105.998 467.539 105.167 468.753 104.613C468.774 104.443 468.827 104.294 468.912 104.166C469.019 104.038 469.083 103.889 469.104 103.719C469.296 103.719 469.445 103.676 469.551 103.591C469.658 103.506 469.754 103.421 469.839 103.336C469.945 103.229 470.052 103.133 470.158 103.048C470.265 102.963 470.403 102.91 470.574 102.888C471.383 102.185 472.245 101.621 473.161 101.195C474.077 100.748 475.014 100.29 475.973 99.8214C476.164 99.7362 476.324 99.5765 476.452 99.3422H476.643C476.856 99.3422 477.016 99.2996 477.123 99.2144C477.25 99.1079 477.431 99.076 477.666 99.1186C477.751 98.9908 477.857 98.9056 477.985 98.863C478.134 98.8204 478.273 98.7884 478.4 98.7671C478.55 98.7245 478.688 98.6713 478.816 98.6074C478.944 98.5435 479.029 98.4477 479.071 98.3199H479.295C479.657 98.3199 480.008 98.2666 480.349 98.1602C480.69 98.0324 481.031 97.8939 481.372 97.7448H481.595C482.021 97.7448 482.415 97.6703 482.777 97.5212C483.161 97.3508 483.565 97.2337 483.991 97.1698C484.162 97.1272 484.332 97.1166 484.502 97.1379C484.673 97.1592 484.843 97.1698 485.013 97.1698C485.12 97.1698 485.248 97.1592 485.397 97.1379C485.546 97.1166 485.652 97.0527 485.716 96.9462H485.78C485.908 96.9462 485.983 96.9888 486.004 97.074C486.025 97.1592 486.089 97.2017 486.195 97.2017C486.345 97.2017 486.494 97.1805 486.643 97.1379C486.792 97.0953 486.941 97.074 487.09 97.074C487.729 97.074 488.357 97.1379 488.975 97.2656C489.614 97.3934 490.242 97.5106 490.86 97.6171C490.902 97.8726 491.009 98.0537 491.179 98.1602C491.371 98.2666 491.573 98.3625 491.786 98.4477V98.5755C491.786 98.7458 491.829 98.8843 491.914 98.9908C491.829 99.2889 491.68 99.5126 491.467 99.6616C491.254 99.8107 491.019 99.9385 490.764 100.045C490.87 100.13 490.934 100.247 490.956 100.396C490.977 100.546 490.987 100.684 490.987 100.812V101.195L490.828 101.163C490.487 101.163 490.317 101.323 490.317 101.642C490.04 101.472 489.731 101.365 489.39 101.323C489.071 101.28 488.751 101.259 488.432 101.259C488.006 101.259 487.559 101.28 487.09 101.323C486.621 101.344 486.164 101.334 485.716 101.291C485.546 101.504 485.333 101.664 485.077 101.77C484.822 101.855 484.566 101.898 484.311 101.898C484.034 101.898 483.768 101.845 483.512 101.738C483.256 101.61 483.075 101.429 482.969 101.195C482.862 101.152 482.767 101.131 482.681 101.131H482.394C482.053 101.131 481.712 101.174 481.372 101.259C481.052 101.323 480.722 101.408 480.381 101.515C480.04 101.6 479.7 101.696 479.359 101.802C479.039 101.887 478.709 101.941 478.369 101.962C478.241 102.132 478.07 102.249 477.857 102.313C477.644 102.377 477.474 102.494 477.346 102.665C476.899 102.75 476.494 102.899 476.132 103.112C475.77 103.304 475.419 103.517 475.078 103.751L474.088 104.422C473.768 104.635 473.406 104.816 473.001 104.965C472.703 105.284 472.426 105.54 472.171 105.732C471.915 105.923 471.585 106.094 471.181 106.243C470.925 106.328 470.776 106.456 470.733 106.626C470.712 106.796 470.627 106.967 470.478 107.137C470.35 107.286 470.19 107.403 469.999 107.489C469.828 107.552 469.679 107.67 469.551 107.84C469.445 107.989 469.36 108.17 469.296 108.383C469.253 108.575 469.2 108.766 469.136 108.958C469.072 109.15 468.998 109.341 468.912 109.533C468.827 109.704 468.699 109.853 468.529 109.98C468.529 110.066 468.518 110.151 468.497 110.236C468.497 110.321 468.497 110.396 468.497 110.46C468.497 110.758 468.529 111.067 468.593 111.386C468.678 111.684 468.731 111.982 468.753 112.281C469.179 113.026 469.679 113.708 470.254 114.325C470.829 114.922 471.447 115.475 472.107 115.986C472.767 116.498 473.449 116.977 474.152 117.424C474.876 117.871 475.589 118.308 476.292 118.734C476.548 118.713 476.782 118.744 476.995 118.83C477.208 118.894 477.431 118.936 477.666 118.957C477.921 119.149 478.219 119.298 478.56 119.405L479.583 119.724C479.923 119.831 480.253 119.958 480.573 120.108C480.892 120.235 481.159 120.416 481.372 120.651C481.478 120.672 481.574 120.704 481.659 120.746C481.744 120.768 481.84 120.778 481.947 120.778C482.074 120.778 482.149 120.736 482.17 120.651C483.129 121.013 484.066 121.417 484.982 121.865C485.897 122.291 486.866 122.621 487.889 122.855C488.293 123.196 488.741 123.494 489.23 123.749C489.72 124.005 490.21 124.271 490.7 124.548C491.19 124.804 491.658 125.091 492.106 125.411C492.553 125.709 492.947 126.071 493.288 126.497C493.33 126.902 493.415 127.296 493.543 127.679C493.692 128.041 493.767 128.435 493.767 128.861Z" fill="#202020"/>
</g>
</g>
<path d="M710.828 41.3672H88.1773C81.9254 41.3672 75.9281 43.844 71.4981 48.2556L52.7551 66.9204C48.3008 71.3561 45.7969 77.3834 45.7969 83.6695V332.403C45.7969 345.458 56.3797 356.041 69.4343 356.041H729.571C742.625 356.041 753.208 345.458 753.208 332.403V83.6695C753.208 77.3834 750.704 71.3561 746.25 66.9204L727.507 48.2556C723.077 43.844 717.08 41.3672 710.828 41.3672Z" stroke="#202020" stroke-width="2.21601"/>
<g clip-path="url(#clip7_18_1465)">
<path d="M229.726 157.706H568.037C603.325 157.706 631.932 186.312 631.932 221.601V223.078C631.932 258.366 603.325 286.973 568.037 286.973H229.726C194.437 286.973 165.831 258.366 165.831 223.078V221.601C165.831 186.312 194.437 157.706 229.726 157.706Z" stroke="#202020" stroke-width="2.21601"/>
<path d="M559.596 179.016C583.665 179.016 603.177 198.528 603.177 222.598C603.177 246.667 583.665 266.178 559.596 266.179C535.526 266.179 516.014 246.667 516.014 222.598C516.014 198.528 535.526 179.016 559.596 179.016ZM559.344 190.096C554.878 190.096 550.623 190.996 546.75 192.625L550.667 199.41L543.62 203.479L539.706 196.698C532.91 201.859 528.207 209.633 527.096 218.523H534.934V226.66H527.095C528.203 235.548 532.9 243.319 539.689 248.482L543.607 241.699L550.654 245.768L546.731 252.561C550.609 254.195 554.871 255.099 559.344 255.099C563.81 255.099 568.065 254.197 571.938 252.567L568.022 245.784L575.069 241.716L578.982 248.494C585.78 243.331 590.484 235.554 591.593 226.66H583.755V218.523H591.592C590.481 209.638 585.782 201.869 578.992 196.708L575.081 203.484L568.034 199.416L571.95 192.631C568.074 190.998 563.814 190.096 559.344 190.096Z" fill="#202020"/>
<path d="M237.852 179.016C261.921 179.016 281.433 198.528 281.433 222.598C281.432 246.667 261.921 266.178 237.852 266.179C213.782 266.179 194.27 246.667 194.27 222.598C194.27 198.528 213.782 179.016 237.852 179.016ZM237.6 190.096C233.134 190.096 228.879 190.996 225.006 192.625L228.923 199.41L221.876 203.479L217.962 196.698C211.166 201.859 206.463 209.633 205.352 218.523H213.189V226.66H205.351C206.459 235.548 211.156 243.319 217.945 248.482L221.863 241.699L228.91 245.768L224.987 252.561C228.865 254.195 233.127 255.099 237.6 255.099C242.066 255.099 246.321 254.197 250.194 252.567L246.278 245.784L253.325 241.716L257.238 248.494C264.036 243.331 268.739 235.554 269.849 226.66H262.011V218.523H269.848C268.737 209.638 264.038 201.869 257.248 196.708L253.337 203.484L246.29 199.416L250.206 192.631C246.33 190.998 242.07 190.096 237.6 190.096Z" fill="#202020"/>
</g>
<defs>
<clipPath id="clip0_18_1465">
<rect width="26.5921" height="26.5921" fill="white" transform="translate(385.467 386.867)"/>
</clipPath>
<clipPath id="clip1_18_1465">
<rect width="26.5921" height="26.5921" fill="white" transform="translate(19.9434 19.9453)"/>
</clipPath>
<clipPath id="clip2_18_1465">
<rect width="26.5921" height="26.5921" fill="white" transform="translate(19.9434 442.27)"/>
</clipPath>
<clipPath id="clip3_18_1465">
<rect width="26.5921" height="26.5921" fill="white" transform="translate(750.992 19.9453)"/>
</clipPath>
<clipPath id="clip4_18_1465">
<rect width="26.5921" height="26.5921" fill="white" transform="translate(750.992 442.27)"/>
</clipPath>
<clipPath id="clip5_18_1465">
<rect width="707.647" height="314.674" fill="white" transform="translate(45.7969 41.3672)"/>
</clipPath>
<clipPath id="clip6_18_1465">
<rect width="708" height="199.767" fill="white" transform="matrix(1 0 0 -1 46.166 356.738)"/>
</clipPath>
<clipPath id="clip7_18_1465">
<rect x="164.723" y="156.598" width="468.317" height="131.483" rx="65.003" fill="white"/>
</clipPath>
</defs>
</svg>
