<svg width="798" height="489" viewBox="0 0 798 489" fill="none" xmlns="http://www.w3.org/2000/svg">
<g opacity="0.8">
<mask id="path-1-outside-1_18_1275" maskUnits="userSpaceOnUse" x="-0.783203" y="-0.785156" width="799" height="490" fill="black">
<rect fill="white" x="-0.783203" y="-0.785156" width="799" height="490"/>
<path d="M763.048 2.21484C780.998 2.21484 795.55 16.7667 795.55 34.7168V454.281C795.55 472.231 780.998 486.783 763.048 486.783H34.7188C16.7687 486.783 2.2168 472.231 2.2168 454.281V34.7168C2.2168 16.7667 16.7687 2.21484 34.7188 2.21484H763.048ZM210.522 433.362C199.1 433.363 189.84 442.622 189.84 454.045C189.84 465.468 199.1 474.727 210.522 474.728C221.945 474.728 231.206 465.468 231.206 454.045C231.206 442.622 221.945 433.362 210.522 433.362ZM587.749 433.362C576.326 433.362 567.065 442.622 567.065 454.045C567.065 465.468 576.326 474.728 587.749 474.728C599.172 474.727 608.432 465.468 608.432 454.045C608.432 442.622 599.172 433.363 587.749 433.362ZM277.003 433.362C274.555 433.362 272.571 435.346 272.571 437.794V457C272.571 459.447 274.555 461.431 277.003 461.432H296.209C298.656 461.431 300.64 459.447 300.641 457V437.794C300.64 435.346 298.656 433.362 296.209 433.362H277.003ZM502.062 433.362C499.615 433.362 497.631 435.346 497.631 437.794V457C497.631 459.447 499.615 461.431 502.062 461.432H521.269C523.716 461.431 525.7 459.447 525.7 457V437.794C525.7 435.346 523.716 433.362 521.269 433.362H502.062ZM237.854 178.757C213.784 178.757 194.272 198.269 194.272 222.339C194.272 246.408 213.784 265.921 237.854 265.921C261.923 265.921 281.436 246.408 281.436 222.339C281.436 198.269 261.923 178.757 237.854 178.757ZM559.914 178.757C535.845 178.757 516.333 198.269 516.333 222.339C516.333 246.408 535.845 265.921 559.914 265.921C583.983 265.921 603.496 246.408 603.496 222.339C603.496 198.269 583.983 178.757 559.914 178.757Z"/>
</mask>
<path d="M763.048 2.21484C780.998 2.21484 795.55 16.7667 795.55 34.7168V454.281C795.55 472.231 780.998 486.783 763.048 486.783H34.7188C16.7687 486.783 2.2168 472.231 2.2168 454.281V34.7168C2.2168 16.7667 16.7687 2.21484 34.7188 2.21484H763.048ZM210.522 433.362C199.1 433.363 189.84 442.622 189.84 454.045C189.84 465.468 199.1 474.727 210.522 474.728C221.945 474.728 231.206 465.468 231.206 454.045C231.206 442.622 221.945 433.362 210.522 433.362ZM587.749 433.362C576.326 433.362 567.065 442.622 567.065 454.045C567.065 465.468 576.326 474.728 587.749 474.728C599.172 474.727 608.432 465.468 608.432 454.045C608.432 442.622 599.172 433.363 587.749 433.362ZM277.003 433.362C274.555 433.362 272.571 435.346 272.571 437.794V457C272.571 459.447 274.555 461.431 277.003 461.432H296.209C298.656 461.431 300.64 459.447 300.641 457V437.794C300.64 435.346 298.656 433.362 296.209 433.362H277.003ZM502.062 433.362C499.615 433.362 497.631 435.346 497.631 437.794V457C497.631 459.447 499.615 461.431 502.062 461.432H521.269C523.716 461.431 525.7 459.447 525.7 457V437.794C525.7 435.346 523.716 433.362 521.269 433.362H502.062ZM237.854 178.757C213.784 178.757 194.272 198.269 194.272 222.339C194.272 246.408 213.784 265.921 237.854 265.921C261.923 265.921 281.436 246.408 281.436 222.339C281.436 198.269 261.923 178.757 237.854 178.757ZM559.914 178.757C535.845 178.757 516.333 198.269 516.333 222.339C516.333 246.408 535.845 265.921 559.914 265.921C583.983 265.921 603.496 246.408 603.496 222.339C603.496 198.269 583.983 178.757 559.914 178.757Z" fill="#E2E2E2"/>
<path d="M210.522 433.362L210.522 431.146L210.522 431.146L210.522 433.362ZM189.84 454.045L187.624 454.045V454.045H189.84ZM210.522 474.728L210.522 476.944H210.522V474.728ZM231.206 454.045L233.422 454.045L233.422 454.045L231.206 454.045ZM587.749 433.362L587.749 431.146H587.749V433.362ZM567.065 454.045L564.849 454.045V454.045H567.065ZM587.749 474.728L587.749 476.944L587.749 476.944L587.749 474.728ZM608.432 454.045L610.648 454.045L610.648 454.045L608.432 454.045ZM277.003 433.362L277.003 431.146L277.003 431.146L277.003 433.362ZM272.571 437.794L270.355 437.794V437.794H272.571ZM272.571 457L270.355 457L270.355 457L272.571 457ZM277.003 461.432L277.003 463.648H277.003V461.432ZM296.209 461.432L296.209 463.648L296.209 463.648L296.209 461.432ZM300.641 457L302.857 457V457H300.641ZM300.641 437.794L302.857 437.794L302.857 437.794L300.641 437.794ZM296.209 433.362L296.209 431.146H296.209V433.362ZM502.062 433.362L502.062 431.146L502.062 431.146L502.062 433.362ZM497.631 437.794L495.415 437.794V437.794H497.631ZM497.631 457L495.415 457L495.415 457L497.631 457ZM502.062 461.432L502.062 463.648H502.062V461.432ZM521.269 461.432L521.269 463.648L521.269 463.648L521.269 461.432ZM525.7 457L527.916 457V457H525.7ZM525.7 437.794L527.916 437.794L527.916 437.794L525.7 437.794ZM521.269 433.362L521.269 431.146H521.269V433.362ZM237.854 178.757L237.854 176.541L237.854 176.541L237.854 178.757ZM194.272 222.339L192.056 222.339V222.339H194.272ZM237.854 265.921L237.854 268.137H237.854V265.921ZM281.436 222.339L283.652 222.339L283.652 222.339L281.436 222.339ZM559.914 178.757L559.914 176.541L559.914 176.541L559.914 178.757ZM516.333 222.339L514.117 222.339V222.339H516.333ZM559.914 265.921L559.914 268.137H559.914V265.921ZM603.496 222.339L605.712 222.339L605.712 222.339L603.496 222.339ZM763.048 2.21484V4.43086C779.774 4.43086 793.334 17.9906 793.334 34.7168H795.55H797.766C797.766 15.5428 782.222 -0.00116849 763.048 -0.00116849V2.21484ZM795.55 34.7168H793.334V454.281H795.55H797.766V34.7168H795.55ZM795.55 454.281H793.334C793.334 471.007 779.774 484.567 763.048 484.567V486.783V488.999C782.222 488.999 797.766 473.455 797.766 454.281H795.55ZM763.048 486.783V484.567H34.7188V486.783V488.999H763.048V486.783ZM34.7188 486.783V484.567C17.9925 484.567 4.43281 471.007 4.43281 454.281H2.2168H0.000784636C0.000784636 473.455 15.5448 488.999 34.7188 488.999V486.783ZM2.2168 454.281H4.43281V34.7168H2.2168H0.000784636V454.281H2.2168ZM2.2168 34.7168H4.43281C4.43281 17.9906 17.9925 4.43086 34.7188 4.43086V2.21484V-0.00116849C15.5448 -0.00116849 0.000784636 15.5428 0.000784636 34.7168H2.2168ZM34.7188 2.21484V4.43086H763.048V2.21484V-0.00116849H34.7188V2.21484ZM210.522 433.362L210.522 431.146C197.876 431.147 187.624 441.398 187.624 454.045L189.84 454.045L192.056 454.045C192.056 443.846 200.324 435.579 210.523 435.578L210.522 433.362ZM189.84 454.045H187.624C187.624 466.691 197.876 476.943 210.522 476.944L210.522 474.728L210.523 472.512C200.324 472.511 192.056 464.244 192.056 454.045H189.84ZM210.522 474.728V476.944C223.169 476.944 233.422 466.692 233.422 454.045H231.206H228.99C228.99 464.244 220.722 472.512 210.522 472.512V474.728ZM231.206 454.045L233.422 454.045C233.422 441.398 223.169 431.146 210.522 431.146V433.362V435.578C220.721 435.578 228.99 443.846 228.99 454.045L231.206 454.045ZM587.749 433.362V431.146C575.103 431.146 564.849 441.398 564.849 454.045L567.065 454.045L569.281 454.045C569.281 443.846 577.55 435.578 587.749 435.578V433.362ZM567.065 454.045H564.849C564.849 466.692 575.103 476.944 587.749 476.944V474.728V472.512C577.55 472.512 569.281 464.244 569.281 454.045H567.065ZM587.749 474.728L587.749 476.944C600.395 476.943 610.648 466.691 610.648 454.045H608.432H606.216C606.216 464.244 597.948 472.511 587.749 472.512L587.749 474.728ZM608.432 454.045L610.648 454.045C610.648 441.398 600.395 431.147 587.749 431.146L587.749 433.362L587.749 435.578C597.948 435.579 606.216 443.846 606.216 454.045L608.432 454.045ZM277.003 433.362L277.003 431.146C273.332 431.147 270.356 434.123 270.355 437.794L272.571 437.794L274.787 437.794C274.787 436.57 275.779 435.578 277.003 435.578L277.003 433.362ZM272.571 437.794H270.355V457H272.571H274.787V437.794H272.571ZM272.571 457L270.355 457C270.356 460.671 273.332 463.647 277.003 463.648L277.003 461.432L277.003 459.216C275.779 459.216 274.787 458.224 274.787 457L272.571 457ZM277.003 461.432V463.648H296.209V461.432V459.216H277.003V461.432ZM296.209 461.432L296.209 463.648C299.88 463.647 302.856 460.671 302.857 457L300.641 457L298.425 457C298.425 458.224 297.433 459.216 296.209 459.216L296.209 461.432ZM300.641 457H302.857V437.794H300.641H298.425V457H300.641ZM300.641 437.794L302.857 437.794C302.856 434.123 299.88 431.147 296.209 431.146L296.209 433.362L296.209 435.578C297.433 435.578 298.425 436.57 298.425 437.794L300.641 437.794ZM296.209 433.362V431.146H277.003V433.362V435.578H296.209V433.362ZM502.062 433.362L502.062 431.146C498.391 431.147 495.415 434.123 495.415 437.794L497.631 437.794L499.847 437.794C499.847 436.57 500.839 435.578 502.063 435.578L502.062 433.362ZM497.631 437.794H495.415V457H497.631H499.847V437.794H497.631ZM497.631 457L495.415 457C495.415 460.671 498.391 463.647 502.062 463.648L502.062 461.432L502.063 459.216C500.839 459.216 499.847 458.224 499.847 457L497.631 457ZM502.062 461.432V463.648H521.269V461.432V459.216H502.062V461.432ZM521.269 461.432L521.269 463.648C524.94 463.647 527.916 460.671 527.916 457L525.7 457L523.484 457C523.484 458.224 522.492 459.216 521.268 459.216L521.269 461.432ZM525.7 457H527.916V437.794H525.7H523.484V457H525.7ZM525.7 437.794L527.916 437.794C527.916 434.123 524.94 431.147 521.269 431.146L521.269 433.362L521.268 435.578C522.492 435.578 523.484 436.57 523.484 437.794L525.7 437.794ZM521.269 433.362V431.146H502.062V433.362V435.578H521.269V433.362ZM237.854 178.757L237.854 176.541C212.56 176.541 192.056 197.046 192.056 222.339L194.272 222.339L196.488 222.339C196.488 199.493 215.008 180.973 237.854 180.973L237.854 178.757ZM194.272 222.339H192.056C192.056 247.632 212.56 268.137 237.854 268.137L237.854 265.921L237.854 263.705C215.008 263.705 196.488 245.184 196.488 222.339H194.272ZM237.854 265.921V268.137C263.147 268.137 283.652 247.632 283.652 222.339H281.436H279.22C279.22 245.184 260.699 263.705 237.854 263.705V265.921ZM281.436 222.339L283.652 222.339C283.652 197.046 263.147 176.541 237.854 176.541V178.757V180.973C260.699 180.973 279.22 199.493 279.22 222.339L281.436 222.339ZM559.914 178.757L559.914 176.541C534.621 176.541 514.117 197.046 514.117 222.339L516.333 222.339L518.549 222.339C518.549 199.493 537.069 180.973 559.914 180.973L559.914 178.757ZM516.333 222.339H514.117C514.117 247.632 534.621 268.137 559.914 268.137L559.914 265.921L559.914 263.705C537.069 263.705 518.549 245.184 518.549 222.339H516.333ZM559.914 265.921V268.137C585.207 268.137 605.712 247.632 605.712 222.339H603.496H601.28C601.28 245.184 582.76 263.705 559.914 263.705V265.921ZM603.496 222.339L605.712 222.339C605.712 197.046 585.207 176.541 559.914 176.541V178.757V180.973C582.76 180.973 601.28 199.493 601.28 222.339L603.496 222.339Z" fill="#202020" mask="url(#path-1-outside-1_18_1275)"/>
</g>
<path d="M237.113 88.6406C310.953 88.6408 370.812 148.5 370.812 222.34C370.812 296.18 310.953 356.039 237.113 356.039C163.273 356.039 103.414 296.18 103.414 222.34C103.414 148.5 163.273 88.6406 237.113 88.6406ZM237.852 176.543C212.558 176.543 192.055 197.047 192.055 222.34C192.055 247.633 212.558 268.138 237.852 268.138C263.145 268.138 283.649 247.633 283.649 222.34C283.649 197.047 263.145 176.543 237.852 176.543Z" fill="#202020"/>
<path d="M559.172 166.941C589.769 166.941 614.572 191.745 614.572 222.342C614.572 252.939 589.769 277.742 559.172 277.742C528.575 277.742 503.772 252.938 503.771 222.342C503.771 191.745 528.575 166.942 559.172 166.941ZM559.911 176.544C534.618 176.544 514.113 197.048 514.113 222.342C514.113 247.635 534.618 268.14 559.911 268.14C585.204 268.139 605.708 247.635 605.708 222.342C605.708 197.049 585.204 176.544 559.911 176.544Z" fill="#202020"/>
<path d="M93.4416 201.658C85.7306 262.787 55.7236 408.383 63.5254 455.391M86.4244 474.597C137.762 475.335 705.8 474.597 711.34 474.597M604.602 191.316C630.754 230.073 714.904 385.05 733.832 445.419" stroke="#202020" stroke-width="0.738671"/>
<path d="M86.1885 427.496C99.2431 427.496 109.826 438.079 109.826 451.134C109.826 464.188 99.2431 474.771 86.1885 474.771C73.1339 474.771 62.5508 464.188 62.5508 451.134C62.5508 438.079 73.1339 427.496 86.1885 427.496ZM86.1885 441.185C80.6918 441.185 76.2354 445.641 76.2354 451.138C76.2356 456.634 80.6919 461.09 86.1885 461.09C91.685 461.09 96.1404 456.634 96.1406 451.138C96.1406 445.641 91.6851 441.185 86.1885 441.185Z" fill="#202020"/>
<path d="M711.104 427.496C724.159 427.496 734.741 438.079 734.741 451.134C734.741 464.188 724.159 474.771 711.104 474.771C698.05 474.771 687.467 464.188 687.467 451.134C687.467 438.079 698.05 427.496 711.104 427.496ZM711.104 441.185C705.607 441.185 701.151 445.641 701.151 451.138C701.152 456.634 705.607 461.09 711.104 461.09C716.6 461.09 721.056 456.634 721.057 451.138C721.057 445.641 716.6 441.185 711.104 441.185Z" fill="#202020"/>
<path d="M179.778 378.569H623.882C634.179 378.569 643.166 385.55 645.712 395.527L669.286 487.893H129.293L158.259 394.429C161.182 384.998 169.905 378.569 179.778 378.569Z" stroke="#202020" stroke-width="2.21601"/>
<circle cx="210.521" cy="454.089" r="19.5748" stroke="#202020" stroke-width="2.21601"/>
<circle cx="587.747" cy="454.089" r="19.5748" stroke="#202020" stroke-width="2.21601"/>
<rect x="273.678" y="434.514" width="25.8535" height="25.8535" rx="3.32402" stroke="#202020" stroke-width="2.21601"/>
<path d="M384.848 461.475C384.848 459.027 386.832 457.043 389.28 457.043H408.485C410.933 457.043 412.917 459.027 412.917 461.475V474.771H384.848V461.475Z" fill="#202020"/>
<rect x="498.737" y="434.514" width="25.8535" height="25.8535" rx="3.32402" stroke="#202020" stroke-width="2.21601"/>
<g clip-path="url(#clip0_18_1275)">
<path d="M398.763 386.867C406.106 386.867 412.058 392.82 412.059 400.163C412.059 407.506 406.106 413.459 398.763 413.459C391.42 413.459 385.467 407.506 385.467 400.163C385.467 392.82 391.42 386.867 398.763 386.867ZM399.849 392.206C399.608 391.023 397.917 391.023 397.677 392.206L396.662 397.197C396.573 397.633 396.233 397.974 395.797 398.062L390.806 399.077C389.623 399.318 389.623 401.008 390.806 401.249L395.797 402.264C396.233 402.352 396.573 402.693 396.662 403.129L397.677 408.12C397.917 409.303 399.608 409.303 399.849 408.12L400.863 403.129C400.952 402.693 401.293 402.352 401.729 402.264L406.72 401.249C407.903 401.008 407.903 399.318 406.72 399.077L401.729 398.062C401.293 397.974 400.952 397.633 400.863 397.197L399.849 392.206Z" fill="#202020"/>
</g>
<g clip-path="url(#clip1_18_1275)">
<path d="M33.2393 19.9453C40.5824 19.9453 46.5351 25.8981 46.5352 33.2412C46.5352 40.5844 40.5825 46.5371 33.2393 46.5371C25.8961 46.537 19.9434 40.5844 19.9434 33.2412C19.9435 25.8981 25.8962 19.9454 33.2393 19.9453ZM34.3252 25.2842C34.0845 24.1014 32.3939 24.1014 32.1533 25.2842L31.1387 30.2754C31.05 30.7112 30.7092 31.052 30.2734 31.1406L25.2822 32.1553C24.0994 32.3959 24.0995 34.0865 25.2822 34.3271L30.2734 35.3418C30.7092 35.4304 31.05 35.7713 31.1387 36.207L32.1533 41.1982C32.3939 42.3812 34.0846 42.3812 34.3252 41.1982L35.3398 36.207C35.4285 35.7713 35.7694 35.4304 36.2051 35.3418L41.1963 34.3271C42.3792 34.0866 42.3792 32.3958 41.1963 32.1553L36.2051 31.1406C35.7694 31.052 35.4285 30.7111 35.3398 30.2754L34.3252 25.2842Z" fill="#202020"/>
</g>
<g clip-path="url(#clip2_18_1275)">
<path d="M33.2393 442.27C40.5824 442.27 46.5351 448.222 46.5352 455.565C46.5352 462.909 40.5825 468.861 33.2393 468.861C25.8961 468.861 19.9434 462.909 19.9434 455.565C19.9435 448.222 25.8962 442.27 33.2393 442.27ZM34.3252 447.608C34.0845 446.426 32.3939 446.426 32.1533 447.608L31.1387 452.6C31.05 453.035 30.7092 453.376 30.2734 453.465L25.2822 454.479C24.0994 454.72 24.0995 456.411 25.2822 456.651L30.2734 457.666C30.7092 457.755 31.05 458.096 31.1387 458.531L32.1533 463.522C32.3939 464.705 34.0846 464.705 34.3252 463.522L35.3398 458.531C35.4285 458.096 35.7694 457.755 36.2051 457.666L41.1963 456.651C42.3792 456.411 42.3792 454.72 41.1963 454.479L36.2051 453.465C35.7694 453.376 35.4285 453.035 35.3398 452.6L34.3252 447.608Z" fill="#202020"/>
</g>
<g clip-path="url(#clip3_18_1275)">
<path d="M764.288 19.9453C771.631 19.9453 777.584 25.8981 777.584 33.2412C777.584 40.5844 771.631 46.5371 764.288 46.5371C756.945 46.537 750.992 40.5844 750.992 33.2412C750.992 25.8981 756.945 19.9454 764.288 19.9453ZM765.374 25.2842C765.133 24.1014 763.443 24.1014 763.202 25.2842L762.188 30.2754C762.099 30.7112 761.758 31.052 761.322 31.1406L756.331 32.1553C755.148 32.3959 755.148 34.0865 756.331 34.3271L761.322 35.3418C761.758 35.4304 762.099 35.7713 762.188 36.207L763.202 41.1982C763.443 42.3812 765.133 42.3812 765.374 41.1982L766.389 36.207C766.477 35.7713 766.818 35.4304 767.254 35.3418L772.245 34.3271C773.428 34.0866 773.428 32.3958 772.245 32.1553L767.254 31.1406C766.818 31.052 766.477 30.7111 766.389 30.2754L765.374 25.2842Z" fill="#202020"/>
</g>
<g clip-path="url(#clip4_18_1275)">
<path d="M764.288 442.27C771.631 442.27 777.584 448.222 777.584 455.565C777.584 462.909 771.631 468.861 764.288 468.861C756.945 468.861 750.992 462.909 750.992 455.565C750.992 448.222 756.945 442.27 764.288 442.27ZM765.374 447.608C765.133 446.426 763.443 446.426 763.202 447.608L762.188 452.6C762.099 453.035 761.758 453.376 761.322 453.465L756.331 454.479C755.148 454.72 755.148 456.411 756.331 456.651L761.322 457.666C761.758 457.755 762.099 458.096 762.188 458.531L763.202 463.522C763.443 464.705 765.133 464.705 765.374 463.522L766.389 458.531C766.477 458.096 766.818 457.755 767.254 457.666L772.245 456.651C773.428 456.411 773.428 454.72 772.245 454.479L767.254 453.465C766.818 453.376 766.477 453.035 766.389 452.6L765.374 447.608Z" fill="#202020"/>
</g>
<mask id="mask0_18_1275" style="mask-type:alpha" maskUnits="userSpaceOnUse" x="45" y="41" width="709" height="316">
<path d="M88.1855 42.4756H711.055C717.012 42.4757 722.727 44.835 726.949 49.0381L745.7 67.7051C749.947 71.9331 752.335 77.6791 752.335 83.6719V332.403C752.335 344.846 742.248 354.933 729.806 354.933H69.4346C56.9919 354.933 46.9053 344.846 46.9053 332.403V83.6719C46.9053 77.6791 49.293 71.9331 53.54 67.7051L72.291 49.0381C76.5131 44.835 82.2281 42.4757 88.1855 42.4756ZM229.726 155.492C193.214 155.492 163.615 185.091 163.615 221.603V223.08C163.615 259.592 193.214 289.191 229.726 289.191H568.037C604.549 289.191 634.148 259.592 634.148 223.08V221.603C634.148 185.091 604.549 155.492 568.037 155.492H229.726Z" fill="#EDA35F" stroke="#202020" stroke-width="2.21601"/>
</mask>
<g mask="url(#mask0_18_1275)">
<g clip-path="url(#clip5_18_1275)">
<rect width="707.647" height="314.674" transform="translate(45.7969 41.3672)" fill="#FCF7F2"/>
<g clip-path="url(#clip6_18_1275)">
<rect width="708" height="35.5142" transform="matrix(1 0 0 -1 46.166 356.738)" fill="#9B51E0"/>
<rect width="708" height="24.416" transform="matrix(1 0 0 -1 46.166 312.344)" fill="#9B51E0"/>
<rect width="708" height="4.43928" transform="matrix(1 0 0 -1 46.166 181.387)" fill="#9B51E0"/>
<rect width="708" height="2.21964" transform="matrix(1 0 0 -1 46.166 159.191)" fill="#9B51E0"/>
<rect width="708" height="17.7571" transform="matrix(1 0 0 -1 46.166 279.051)" fill="#9B51E0"/>
<rect width="708" height="8.87855" transform="matrix(1 0 0 -1 46.166 225.781)" fill="#9B51E0"/>
<rect width="708" height="13.3178" transform="matrix(1 0 0 -1 46.166 250.195)" fill="#9B51E0"/>
<rect width="708" height="6.65891" transform="matrix(1 0 0 -1 46.166 203.582)" fill="#9B51E0"/>
</g>
<path d="M376.379 111.29C376.379 111.631 376.315 111.982 376.187 112.344C376.08 112.707 375.942 113.037 375.772 113.335C375.495 113.377 375.239 113.473 375.005 113.622C374.792 113.771 374.622 113.867 374.494 113.91C374.217 113.952 373.887 113.974 373.503 113.974C373.141 113.952 372.811 113.952 372.513 113.974C371.938 114.016 371.363 114.08 370.788 114.165C370.234 114.251 369.681 114.357 369.127 114.485C369.084 114.485 369.042 114.496 368.999 114.517C368.956 114.517 368.935 114.538 368.935 114.581C368.935 114.623 368.946 114.666 368.967 114.709C368.988 114.751 368.999 114.794 368.999 114.836C368.999 114.9 368.935 114.932 368.807 114.932C368.573 114.932 368.413 114.858 368.328 114.709C367.647 114.879 366.965 115.06 366.284 115.252C365.602 115.422 364.92 115.592 364.239 115.763C363.898 115.827 363.557 115.891 363.217 115.954C362.897 116.018 362.567 116.104 362.226 116.21C362.056 116.253 361.886 116.327 361.715 116.434L361.204 116.753C361.097 116.732 361.002 116.721 360.916 116.721C360.831 116.7 360.746 116.689 360.661 116.689C360.299 116.689 359.915 116.764 359.511 116.913C359.106 117.041 358.755 117.222 358.457 117.456H358.233C358.02 117.456 357.871 117.424 357.786 117.36C357.594 117.339 357.477 117.403 357.434 117.552C357.392 117.68 357.317 117.797 357.211 117.903C356.487 117.967 355.773 118.095 355.07 118.287C354.367 118.478 353.675 118.691 352.994 118.926C352.312 119.138 351.62 119.362 350.917 119.596C350.236 119.809 349.543 119.98 348.841 120.108C348.755 120.533 348.713 121.023 348.713 121.577C348.713 122.003 348.745 122.493 348.809 123.047C348.894 123.6 349.064 124.069 349.32 124.452V124.516C349.32 124.623 349.277 124.697 349.192 124.74C349.107 124.782 349.064 124.857 349.064 124.963C349.064 125.517 349.117 126.039 349.224 126.529C349.352 127.019 349.48 127.498 349.607 127.966C349.735 128.435 349.852 128.904 349.959 129.372C350.087 129.841 350.15 130.32 350.15 130.81C350.15 130.937 350.14 131.055 350.118 131.161C350.118 131.289 350.108 131.417 350.087 131.544C350.15 131.736 350.257 131.896 350.406 132.024C350.555 132.151 350.683 132.301 350.789 132.471C350.811 132.577 350.821 132.673 350.821 132.758V133.078C350.821 133.44 350.779 133.759 350.694 134.036C350.608 134.313 350.502 134.569 350.374 134.803C350.246 135.059 350.108 135.304 349.959 135.538C349.81 135.793 349.671 136.07 349.543 136.368C349.33 136.411 349.16 136.432 349.032 136.432C348.713 136.432 348.447 136.347 348.234 136.177C348.042 136.006 347.872 135.793 347.722 135.538C347.573 135.304 347.424 135.059 347.275 134.803C347.147 134.547 346.988 134.334 346.796 134.164C346.817 134.058 346.828 133.962 346.828 133.877C346.849 133.791 346.86 133.696 346.86 133.589C346.86 133.163 346.785 132.748 346.636 132.343C346.508 131.938 346.359 131.555 346.189 131.193C346.168 130.469 346.093 129.755 345.965 129.053C345.838 128.35 345.657 127.658 345.422 126.976C345.465 126.721 345.497 126.476 345.518 126.241C345.539 125.986 345.55 125.741 345.55 125.507C345.55 124.889 345.518 124.271 345.454 123.654C345.39 123.036 345.38 122.418 345.422 121.801C345.358 121.694 345.295 121.609 345.231 121.545C345.167 121.46 345.113 121.364 345.071 121.258H344.943C344.624 121.258 344.315 121.29 344.017 121.353C343.718 121.396 343.42 121.417 343.122 121.417C343.016 121.417 342.92 121.417 342.835 121.417C342.749 121.396 342.654 121.375 342.547 121.353C342.313 121.119 342.132 120.853 342.004 120.555C341.876 120.257 341.812 119.948 341.812 119.628C341.812 119.16 341.94 118.734 342.196 118.35C342.728 118.223 343.25 118.074 343.761 117.903C344.294 117.712 344.805 117.488 345.295 117.232C345.358 116.913 345.39 116.593 345.39 116.274C345.412 115.954 345.529 115.656 345.742 115.379C345.678 115.209 345.571 115.06 345.422 114.932C345.295 114.783 345.231 114.613 345.231 114.421C345.231 114.315 345.252 114.176 345.295 114.006C345.507 113.771 345.657 113.473 345.742 113.111C345.827 112.749 345.902 112.366 345.965 111.961C346.029 111.556 346.093 111.152 346.157 110.747C346.242 110.342 346.381 109.98 346.572 109.661C346.53 109.491 346.498 109.31 346.477 109.118C346.455 108.905 346.445 108.713 346.445 108.543C346.445 108.287 346.455 108.032 346.477 107.776C346.519 107.499 346.583 107.244 346.668 107.009C346.434 106.733 346.242 106.413 346.093 106.051C345.944 105.668 345.87 105.295 345.87 104.933C345.87 104.23 346.21 103.783 346.892 103.591C346.871 103.506 346.849 103.431 346.828 103.367C346.828 103.304 346.828 103.24 346.828 103.176C346.828 102.984 346.881 102.803 346.988 102.633C347.094 102.462 347.179 102.292 347.243 102.122C347.137 101.845 347.084 101.61 347.084 101.419C347.084 101.248 347.115 101.099 347.179 100.971C347.243 100.822 347.297 100.663 347.339 100.492C347.403 100.279 347.446 100.088 347.467 99.9172C347.509 99.7468 347.573 99.5978 347.659 99.47C347.744 99.3422 347.85 99.2463 347.978 99.1824C348.127 99.1186 348.351 99.0866 348.649 99.0866C349.117 99.0866 349.565 99.2357 349.991 99.5339C350.438 99.8107 350.779 100.13 351.013 100.492C351.247 100.471 351.45 100.428 351.62 100.364C351.812 100.279 351.982 100.205 352.131 100.141C352.301 100.077 352.472 100.024 352.642 99.9811C352.834 99.9172 353.058 99.8959 353.313 99.9172C353.377 99.7681 353.484 99.6723 353.633 99.6297C353.803 99.5658 353.973 99.5232 354.144 99.5019C354.314 99.4593 354.474 99.4061 354.623 99.3422C354.772 99.2783 354.868 99.1611 354.91 98.9908C354.996 99.0547 355.092 99.0866 355.198 99.0866C355.304 99.0866 355.411 99.076 355.517 99.0547C355.624 99.0121 355.741 98.9908 355.869 98.9908C355.997 98.9908 356.103 99.0334 356.188 99.1186C356.742 98.8204 357.328 98.6074 357.945 98.4796C358.584 98.3305 359.213 98.2453 359.83 98.224C361.3 97.4147 362.844 96.861 364.463 96.5628C366.102 96.2646 367.742 96.1156 369.382 96.1156C369.617 96.1156 369.84 96.1156 370.053 96.1156C370.287 96.0943 370.511 96.1049 370.724 96.1475C370.958 96.1901 371.214 96.2646 371.491 96.3711C371.789 96.4776 372.077 96.6054 372.353 96.7545C372.652 96.9036 372.928 97.074 373.184 97.2656C373.44 97.436 373.653 97.5958 373.823 97.7448C373.993 98.1282 374.079 98.5009 374.079 98.863C374.079 99.0334 374.068 99.2037 374.047 99.3741C374.025 99.5232 374.015 99.6829 374.015 99.8533C374.015 100.109 374.068 100.396 374.174 100.716C374.11 100.695 374.004 100.684 373.855 100.684C373.663 100.684 373.503 100.727 373.376 100.812C373.248 100.897 373.131 100.993 373.024 101.099C372.918 101.206 372.811 101.302 372.705 101.387C372.62 101.472 372.534 101.515 372.449 101.515C372.279 101.515 372.13 101.483 372.002 101.419C371.895 101.355 371.778 101.291 371.651 101.227C371.544 101.142 371.427 101.078 371.299 101.035C371.171 100.971 371.022 100.95 370.852 100.971V100.844C370.852 100.609 370.777 100.46 370.628 100.396C370.479 100.311 370.362 100.194 370.277 100.045C369.957 100.024 369.638 99.9811 369.318 99.9172C369.02 99.8533 368.711 99.8214 368.392 99.8214C367.966 99.8214 367.636 99.9705 367.402 100.269C367.295 100.226 367.199 100.173 367.114 100.109C367.05 100.045 366.954 100.024 366.827 100.045H366.731C365.581 100.045 364.452 100.173 363.344 100.428C362.237 100.663 361.14 100.961 360.054 101.323C358.968 101.664 357.882 102.036 356.795 102.441C355.709 102.846 354.623 103.197 353.537 103.495C353.281 103.836 353.015 104.092 352.738 104.262C352.461 104.411 352.184 104.539 351.907 104.645C351.652 104.752 351.396 104.858 351.141 104.965C350.885 105.071 350.662 105.242 350.47 105.476C350.3 105.71 350.161 106.04 350.055 106.466C349.969 106.871 349.948 107.435 349.991 108.159C349.884 108.287 349.82 108.426 349.799 108.575C349.778 108.724 349.756 108.873 349.735 109.022C349.714 109.15 349.682 109.278 349.639 109.405C349.597 109.533 349.522 109.65 349.416 109.757C349.458 109.97 349.49 110.183 349.511 110.396C349.533 110.609 349.543 110.822 349.543 111.035C349.543 111.929 349.394 112.802 349.096 113.654C349.203 113.825 349.256 114.016 349.256 114.229C349.256 114.464 349.224 114.677 349.16 114.868C349.096 115.06 349.064 115.273 349.064 115.507C349.064 115.741 349.107 115.933 349.192 116.082C349.32 116.082 349.394 116.125 349.416 116.21H349.607C349.991 116.21 350.321 116.114 350.598 115.923C350.875 115.731 351.173 115.635 351.492 115.635C351.556 115.635 351.631 115.656 351.716 115.699C351.801 115.741 351.876 115.763 351.939 115.763C352.089 115.763 352.152 115.71 352.131 115.603C352.11 115.497 352.163 115.422 352.291 115.379L353.441 115.188C354.165 115.06 354.847 114.911 355.486 114.74C356.146 114.549 356.795 114.272 357.434 113.91C357.583 113.974 357.754 114.006 357.945 114.006C358.116 114.006 358.297 113.984 358.489 113.942C358.68 113.878 358.861 113.846 359.032 113.846C359.181 113.846 359.298 113.867 359.383 113.91C359.511 113.825 359.671 113.761 359.862 113.718C360.054 113.654 360.16 113.527 360.182 113.335H360.246C360.331 113.335 360.395 113.356 360.437 113.399C360.48 113.441 360.544 113.463 360.629 113.463H360.757C361.204 113.25 361.609 113.09 361.971 112.983C362.567 112.834 363.206 112.707 363.888 112.6C364.569 112.472 365.176 112.259 365.708 111.961C366.326 111.961 366.922 111.865 367.497 111.674C368.094 111.461 368.69 111.354 369.286 111.354C369.563 111.354 369.819 111.397 370.053 111.482C370.266 111.333 370.511 111.226 370.788 111.162C371.086 111.099 371.331 110.981 371.523 110.811C371.651 110.832 371.778 110.854 371.906 110.875C372.055 110.875 372.204 110.875 372.353 110.875C372.992 110.875 373.599 110.79 374.174 110.619C374.771 110.428 375.378 110.289 375.995 110.204C376.144 110.374 376.24 110.555 376.283 110.747C376.347 110.918 376.379 111.099 376.379 111.29ZM403.885 112.185C403.885 113.399 403.8 114.581 403.629 115.731C403.48 116.86 403.257 118.01 402.958 119.181C402.681 119.394 402.511 119.66 402.447 119.98C402.383 120.299 402.277 120.597 402.128 120.874C402 121.109 401.83 121.364 401.617 121.641C401.404 121.897 401.169 122.173 400.914 122.472C400.658 122.748 400.403 123.036 400.147 123.334C399.891 123.632 399.678 123.93 399.508 124.229C398.869 124.442 398.411 124.9 398.134 125.602C397.794 125.73 397.442 125.879 397.08 126.05C396.718 126.199 396.463 126.465 396.313 126.848C395.525 127.253 394.78 127.722 394.077 128.254C393.396 128.765 392.65 129.212 391.841 129.596C391.734 129.702 391.607 129.787 391.458 129.851C391.33 129.894 391.191 129.947 391.042 130.011C390.914 130.075 390.787 130.149 390.659 130.235C390.552 130.341 390.488 130.469 390.467 130.618C390.382 130.618 390.318 130.597 390.275 130.554C390.254 130.533 390.19 130.512 390.084 130.49C389.85 130.618 389.743 130.82 389.764 131.097C389.679 131.055 389.562 131.033 389.413 131.033C389.157 131.033 388.902 131.108 388.646 131.257C388.412 131.427 388.21 131.598 388.039 131.768C387.784 131.896 387.485 132.024 387.145 132.151C386.825 132.279 386.591 132.492 386.442 132.79C386.357 132.705 386.229 132.663 386.059 132.663C385.867 132.663 385.665 132.716 385.452 132.822C385.239 132.95 385.079 133.089 384.972 133.238C384.674 133.238 384.387 133.28 384.11 133.365C383.854 133.472 383.588 133.568 383.311 133.653C383.034 133.759 382.757 133.855 382.48 133.94C382.225 134.026 381.948 134.068 381.65 134.068C381.479 134.068 381.352 134.026 381.267 133.94C381.181 133.855 381.075 133.781 380.947 133.717C380.841 133.802 380.649 133.898 380.372 134.004C380.116 134.111 379.925 134.164 379.797 134.164C379.563 134.164 379.328 134.132 379.094 134.068C378.881 134.004 378.658 133.93 378.423 133.845L377.752 133.621C377.539 133.557 377.305 133.515 377.05 133.493C376.858 133.323 376.624 133.142 376.347 132.95C376.091 132.78 375.836 132.726 375.58 132.79C375.474 132.471 375.314 132.194 375.101 131.96C374.888 131.725 374.643 131.513 374.366 131.321C374.302 131.278 374.228 131.236 374.142 131.193C374.079 131.172 374.025 131.14 373.983 131.097C373.876 131.033 373.78 130.906 373.695 130.714C373.61 130.522 373.514 130.426 373.408 130.426C373.386 130.426 373.354 130.437 373.312 130.458C373.29 130.48 373.269 130.49 373.248 130.49C373.205 130.299 373.141 130.118 373.056 129.947C372.971 129.755 372.822 129.638 372.609 129.596C372.439 129.042 372.321 128.488 372.258 127.934C372.194 127.381 372.108 126.827 372.002 126.273C371.959 126.103 371.906 125.901 371.842 125.666C371.8 125.411 371.778 125.187 371.778 124.995C371.778 124.676 371.821 124.293 371.906 123.845C372.013 123.398 372.098 123.004 372.162 122.663C372.417 121.428 372.758 120.235 373.184 119.085C373.61 117.914 374.068 116.753 374.558 115.603C375.069 114.453 375.591 113.314 376.123 112.185C376.656 111.056 377.156 109.906 377.625 108.735C377.71 108.735 377.763 108.713 377.784 108.671L377.88 108.511C377.923 108.447 377.955 108.394 377.976 108.351C378.019 108.309 378.093 108.287 378.2 108.287V108.191C378.178 108.064 378.2 107.957 378.264 107.872C378.349 107.787 378.37 107.648 378.327 107.457C378.668 107.073 378.956 106.647 379.19 106.179C379.424 105.689 379.659 105.21 379.893 104.741C380.148 104.273 380.415 103.815 380.691 103.367C380.968 102.92 381.32 102.537 381.746 102.217V101.994C381.724 101.887 381.724 101.781 381.746 101.674C381.788 101.547 381.863 101.461 381.969 101.419C382.353 101.035 382.672 100.652 382.928 100.269C383.183 99.8853 383.439 99.5126 383.694 99.1505C383.971 98.7671 384.27 98.4157 384.589 98.0963C384.93 97.7555 385.356 97.4467 385.867 97.1698C386.101 97.0633 386.272 96.9036 386.378 96.6906C386.484 96.4776 386.623 96.3285 386.793 96.2433C386.878 96.2008 386.964 96.1795 387.049 96.1795C387.155 96.1582 387.251 96.1262 387.336 96.0836C387.698 95.9771 388.061 95.8493 388.423 95.7003C388.785 95.5299 389.168 95.4447 389.573 95.4447C390.084 95.4447 390.467 95.5938 390.723 95.8919C391 96.1688 391.213 96.5096 391.362 96.9142C391.532 97.3189 391.67 97.7448 391.777 98.1921C391.883 98.6394 392.054 99.0227 392.288 99.3422C392.927 99.3848 393.577 99.4593 394.237 99.5658C394.897 99.651 395.472 99.9172 395.962 100.364C396.005 100.386 396.058 100.396 396.122 100.396C396.228 100.396 396.281 100.354 396.281 100.269C396.281 100.183 396.335 100.141 396.441 100.141H396.537C397.176 100.524 397.783 100.95 398.358 101.419C398.954 101.866 399.54 102.335 400.115 102.824C400.222 102.91 400.328 102.995 400.435 103.08C400.562 103.144 400.669 103.229 400.754 103.336C400.86 103.463 400.956 103.612 401.042 103.783C401.148 103.953 401.244 104.102 401.329 104.23C402.394 106.083 403.107 108.074 403.469 110.204C403.512 110.438 403.544 110.662 403.565 110.875C403.608 111.088 403.629 111.29 403.629 111.482C403.629 111.674 403.672 111.801 403.757 111.865C403.842 111.908 403.885 112.014 403.885 112.185ZM401.425 113.814C401.425 112.962 401.318 112.142 401.105 111.354C401.212 111.312 401.276 111.248 401.297 111.162C401.34 111.056 401.361 110.949 401.361 110.843V110.683L400.978 109.98C400.956 109.682 400.892 109.405 400.786 109.15C400.701 108.894 400.594 108.639 400.466 108.383C400.339 108.128 400.211 107.872 400.083 107.616C399.977 107.361 399.902 107.084 399.86 106.786C399.519 106.53 399.21 106.243 398.933 105.923C398.677 105.582 398.443 105.231 398.23 104.869C398.081 104.805 397.943 104.762 397.815 104.741C397.687 104.72 397.645 104.603 397.687 104.39C397.304 104.283 396.952 104.134 396.633 103.943C396.335 103.73 396.037 103.495 395.738 103.24C395.249 103.133 394.759 103.005 394.269 102.856C393.8 102.686 393.321 102.601 392.831 102.601C392.49 102.601 392.16 102.665 391.841 102.792C391.947 102.963 392.001 103.154 392.001 103.367C392.001 103.559 392.022 103.751 392.065 103.943C392.746 104.113 393.161 104.528 393.31 105.188C393.204 105.252 393.108 105.338 393.023 105.444C392.938 105.529 392.853 105.614 392.767 105.7C392.703 105.763 392.618 105.827 392.512 105.891C392.405 105.955 392.277 105.987 392.128 105.987C391.83 105.987 391.596 105.934 391.426 105.827C391.276 105.721 391.032 105.7 390.691 105.763C390.329 105.444 389.977 105.114 389.637 104.773C389.296 104.411 388.912 104.092 388.486 103.815C388.423 103.602 388.316 103.41 388.167 103.24C388.039 103.069 387.901 102.91 387.752 102.76C387.624 102.59 387.496 102.42 387.368 102.249C387.262 102.058 387.209 101.845 387.209 101.61C387.209 101.461 387.219 101.355 387.241 101.291C387.113 101.248 387.017 101.227 386.953 101.227C386.783 101.227 386.623 101.291 386.474 101.419C386.325 101.525 386.154 101.6 385.963 101.642C385.792 102.153 385.547 102.601 385.228 102.984C384.908 103.367 384.578 103.74 384.238 104.102C383.897 104.464 383.577 104.848 383.279 105.252C383.002 105.636 382.8 106.115 382.672 106.69C381.991 107.542 381.362 108.511 380.787 109.597C380.212 110.662 379.776 111.706 379.477 112.728C378.988 113.282 378.604 113.867 378.327 114.485C378.051 115.103 377.891 115.784 377.848 116.53C377.742 116.593 377.657 116.679 377.593 116.785L377.273 117.424C377.231 117.531 377.156 117.616 377.05 117.68V117.839C377.05 118.01 377.018 118.169 376.954 118.319C376.89 118.446 376.815 118.574 376.73 118.702C376.666 118.83 376.602 118.957 376.538 119.085C376.475 119.192 376.443 119.32 376.443 119.469C376.443 119.639 376.485 119.809 376.57 119.98C376.336 120.022 376.176 120.15 376.091 120.363C376.027 120.555 375.931 120.725 375.804 120.874C375.718 121.556 375.633 122.248 375.548 122.951C375.463 123.654 375.42 124.346 375.42 125.027C375.42 125.815 375.505 126.614 375.676 127.423C375.868 127.615 376.038 127.828 376.187 128.062C376.336 128.297 376.485 128.52 376.634 128.733C376.805 128.946 376.986 129.138 377.177 129.308C377.369 129.457 377.625 129.553 377.944 129.596C377.944 129.745 377.976 129.851 378.04 129.915C378.104 129.979 378.157 130.064 378.2 130.171C378.647 130.32 379.115 130.437 379.605 130.522C380.095 130.629 380.585 130.682 381.075 130.682C381.416 130.682 381.756 130.639 382.097 130.554C382.459 130.469 382.757 130.299 382.992 130.043C384.078 130 385.153 129.745 386.218 129.276C387.304 128.808 388.295 128.297 389.189 127.743H389.86C390.094 127.423 390.382 127.168 390.723 126.976C391.064 126.763 391.415 126.571 391.777 126.401C391.841 126.358 391.926 126.316 392.033 126.273C392.139 126.231 392.224 126.188 392.288 126.145C392.522 125.975 392.757 125.783 392.991 125.57C393.247 125.357 393.502 125.155 393.758 124.963C394.184 124.644 394.62 124.335 395.067 124.037C395.515 123.739 395.941 123.419 396.345 123.079C396.771 122.738 397.165 122.376 397.527 121.992C397.911 121.588 398.23 121.14 398.486 120.651C398.614 120.651 398.709 120.619 398.773 120.555C398.859 120.47 398.922 120.384 398.965 120.299C399.029 120.214 399.093 120.139 399.157 120.076C399.242 120.012 399.359 119.98 399.508 119.98C399.508 119.788 399.54 119.628 399.604 119.501C399.689 119.351 399.774 119.224 399.86 119.117C399.966 118.989 400.062 118.872 400.147 118.766C400.254 118.659 400.349 118.521 400.435 118.35V117.456C400.775 116.902 401.02 116.317 401.169 115.699C401.34 115.081 401.425 114.453 401.425 113.814ZM431.902 128.861C431.902 129.074 431.891 129.234 431.87 129.34C431.764 129.383 431.678 129.447 431.615 129.532C431.551 129.596 431.444 129.617 431.295 129.596C431.252 129.915 431.146 130.181 430.976 130.394C430.805 130.607 430.624 130.799 430.433 130.969C430.262 131.161 430.092 131.353 429.921 131.544C429.751 131.757 429.644 132.024 429.602 132.343C429.282 132.514 428.963 132.737 428.643 133.014C428.345 133.312 428.079 133.515 427.845 133.621C427.674 133.706 427.493 133.77 427.302 133.813C427.11 133.877 426.918 133.951 426.727 134.036C426.109 134.313 425.47 134.601 424.81 134.899C424.171 135.197 423.5 135.346 422.797 135.346H422.574C422.488 135.431 422.382 135.485 422.254 135.506C422.126 135.548 421.999 135.58 421.871 135.602C421.743 135.623 421.615 135.655 421.487 135.698C421.36 135.74 421.264 135.804 421.2 135.889C420.966 135.804 420.71 135.761 420.433 135.761H420.21C419.847 135.847 419.507 135.911 419.187 135.953C418.868 135.996 418.527 136.017 418.165 136.017C417.526 136.017 416.887 135.974 416.248 135.889C415.609 135.804 414.97 135.729 414.331 135.666C413.927 135.346 413.597 134.941 413.341 134.452C413.085 133.983 412.958 133.483 412.958 132.95C412.958 132.545 413.043 132.162 413.213 131.8C413.384 131.459 413.607 131.15 413.884 130.874H413.98C414.172 130.874 414.363 130.831 414.555 130.746C414.768 130.661 414.97 130.618 415.162 130.618C415.375 130.618 415.545 130.703 415.673 130.874C415.822 131.044 415.929 131.246 415.993 131.481C416.078 131.715 416.131 131.949 416.152 132.183C416.174 132.439 416.184 132.641 416.184 132.79C416.419 132.897 416.663 132.961 416.919 132.982C417.196 133.003 417.473 133.014 417.75 133.014C418.027 133.014 418.335 132.993 418.676 132.95C419.017 132.929 419.358 132.876 419.698 132.79C420.06 132.726 420.401 132.641 420.721 132.535C421.061 132.428 421.349 132.29 421.583 132.12C422.755 132.013 423.788 131.747 424.682 131.321C425.577 130.895 426.524 130.394 427.525 129.819C427.568 129.585 427.653 129.404 427.781 129.276C427.93 129.127 428.005 128.914 428.005 128.637C428.005 128.595 427.994 128.552 427.973 128.51C427.973 128.446 427.973 128.392 427.973 128.35C427.547 127.817 427.099 127.349 426.631 126.944C426.184 126.539 425.598 126.273 424.874 126.145C424.789 125.954 424.65 125.815 424.458 125.73C424.267 125.624 424.064 125.528 423.851 125.443C423.639 125.357 423.436 125.272 423.244 125.187C423.053 125.081 422.914 124.91 422.829 124.676C422.254 124.569 421.658 124.442 421.04 124.293C420.444 124.122 419.933 123.824 419.507 123.398C419.166 123.377 418.836 123.313 418.516 123.206C418.218 123.079 417.92 122.961 417.622 122.855C417.324 122.727 417.015 122.621 416.695 122.535C416.376 122.429 416.046 122.376 415.705 122.376C415.62 122.227 415.503 122.11 415.354 122.024C415.205 121.939 415.034 121.865 414.843 121.801C414.672 121.737 414.502 121.673 414.331 121.609C414.182 121.524 414.065 121.407 413.98 121.258C413.895 121.279 413.831 121.322 413.788 121.385C413.746 121.449 413.671 121.481 413.565 121.481H413.437C413.394 121.353 413.309 121.268 413.181 121.226C413.053 121.162 412.979 121.045 412.958 120.874C412.574 120.853 412.223 120.778 411.903 120.651C411.605 120.523 411.318 120.384 411.041 120.235C410.785 120.065 410.519 119.905 410.242 119.756C409.965 119.607 409.656 119.49 409.316 119.405C409.103 119.234 408.9 119.053 408.709 118.862C408.538 118.649 408.315 118.542 408.038 118.542C407.974 118.542 407.857 118.563 407.686 118.606C407.644 118.223 407.484 117.956 407.207 117.807C406.93 117.637 406.632 117.488 406.313 117.36C406.1 116.806 405.812 116.317 405.45 115.891C405.088 115.465 404.694 115.071 404.268 114.709C404.311 114.581 404.332 114.485 404.332 114.421C404.332 114.208 404.279 114.027 404.172 113.878C404.066 113.708 403.949 113.569 403.821 113.463C403.523 112.504 403.374 111.567 403.374 110.651C403.374 109.373 403.661 108.191 404.236 107.105C404.79 105.998 405.674 105.167 406.888 104.613C406.909 104.443 406.962 104.294 407.048 104.166C407.154 104.038 407.218 103.889 407.239 103.719C407.431 103.719 407.58 103.676 407.686 103.591C407.793 103.506 407.889 103.421 407.974 103.336C408.08 103.229 408.187 103.133 408.293 103.048C408.4 102.963 408.538 102.91 408.709 102.888C409.518 102.185 410.381 101.621 411.296 101.195C412.212 100.748 413.149 100.29 414.108 99.8214C414.299 99.7362 414.459 99.5765 414.587 99.3422H414.779C414.992 99.3422 415.151 99.2996 415.258 99.2144C415.386 99.1079 415.567 99.076 415.801 99.1186C415.886 98.9908 415.993 98.9056 416.12 98.863C416.269 98.8204 416.408 98.7884 416.536 98.7671C416.685 98.7245 416.823 98.6713 416.951 98.6074C417.079 98.5435 417.164 98.4477 417.207 98.3199H417.43C417.792 98.3199 418.144 98.2666 418.484 98.1602C418.825 98.0324 419.166 97.8939 419.507 97.7448H419.73C420.156 97.7448 420.55 97.6703 420.912 97.5212C421.296 97.3508 421.7 97.2337 422.126 97.1698C422.297 97.1272 422.467 97.1166 422.638 97.1379C422.808 97.1592 422.978 97.1698 423.149 97.1698C423.255 97.1698 423.383 97.1592 423.532 97.1379C423.681 97.1166 423.788 97.0527 423.851 96.9462H423.915C424.043 96.9462 424.118 96.9888 424.139 97.074C424.16 97.1592 424.224 97.2017 424.331 97.2017C424.48 97.2017 424.629 97.1805 424.778 97.1379C424.927 97.0953 425.076 97.074 425.225 97.074C425.864 97.074 426.492 97.1379 427.11 97.2656C427.749 97.3934 428.377 97.5106 428.995 97.6171C429.038 97.8726 429.144 98.0537 429.314 98.1602C429.506 98.2666 429.708 98.3625 429.921 98.4477V98.5755C429.921 98.7458 429.964 98.8843 430.049 98.9908C429.964 99.2889 429.815 99.5126 429.602 99.6616C429.389 99.8107 429.155 99.9385 428.899 100.045C429.006 100.13 429.069 100.247 429.091 100.396C429.112 100.546 429.123 100.684 429.123 100.812V101.195L428.963 101.163C428.622 101.163 428.452 101.323 428.452 101.642C428.175 101.472 427.866 101.365 427.525 101.323C427.206 101.28 426.886 101.259 426.567 101.259C426.141 101.259 425.694 101.28 425.225 101.323C424.757 101.344 424.299 101.334 423.851 101.291C423.681 101.504 423.468 101.664 423.213 101.77C422.957 101.855 422.701 101.898 422.446 101.898C422.169 101.898 421.903 101.845 421.647 101.738C421.392 101.61 421.211 101.429 421.104 101.195C420.998 101.152 420.902 101.131 420.817 101.131H420.529C420.188 101.131 419.847 101.174 419.507 101.259C419.187 101.323 418.857 101.408 418.516 101.515C418.176 101.6 417.835 101.696 417.494 101.802C417.175 101.887 416.845 101.941 416.504 101.962C416.376 102.132 416.206 102.249 415.993 102.313C415.78 102.377 415.609 102.494 415.481 102.665C415.034 102.75 414.63 102.899 414.267 103.112C413.905 103.304 413.554 103.517 413.213 103.751L412.223 104.422C411.903 104.635 411.541 104.816 411.137 104.965C410.839 105.284 410.562 105.54 410.306 105.732C410.051 105.923 409.72 106.094 409.316 106.243C409.06 106.328 408.911 106.456 408.868 106.626C408.847 106.796 408.762 106.967 408.613 107.137C408.485 107.286 408.325 107.403 408.134 107.489C407.963 107.552 407.814 107.67 407.686 107.84C407.58 107.989 407.495 108.17 407.431 108.383C407.388 108.575 407.335 108.766 407.271 108.958C407.207 109.15 407.133 109.341 407.048 109.533C406.962 109.704 406.835 109.853 406.664 109.98C406.664 110.066 406.654 110.151 406.632 110.236C406.632 110.321 406.632 110.396 406.632 110.46C406.632 110.758 406.664 111.067 406.728 111.386C406.813 111.684 406.866 111.982 406.888 112.281C407.314 113.026 407.814 113.708 408.389 114.325C408.964 114.922 409.582 115.475 410.242 115.986C410.902 116.498 411.584 116.977 412.287 117.424C413.011 117.871 413.724 118.308 414.427 118.734C414.683 118.713 414.917 118.744 415.13 118.83C415.343 118.894 415.567 118.936 415.801 118.957C416.056 119.149 416.355 119.298 416.695 119.405L417.718 119.724C418.058 119.831 418.389 119.958 418.708 120.108C419.028 120.235 419.294 120.416 419.507 120.651C419.613 120.672 419.709 120.704 419.794 120.746C419.879 120.768 419.975 120.778 420.082 120.778C420.21 120.778 420.284 120.736 420.305 120.651C421.264 121.013 422.201 121.417 423.117 121.865C424.033 122.291 425.002 122.621 426.024 122.855C426.429 123.196 426.876 123.494 427.366 123.749C427.855 124.005 428.345 124.271 428.835 124.548C429.325 124.804 429.794 125.091 430.241 125.411C430.688 125.709 431.082 126.071 431.423 126.497C431.465 126.902 431.551 127.296 431.678 127.679C431.828 128.041 431.902 128.435 431.902 128.861ZM455.83 128.861C455.83 129.074 455.819 129.234 455.798 129.34C455.692 129.383 455.607 129.447 455.543 129.532C455.479 129.596 455.372 129.617 455.223 129.596C455.181 129.915 455.074 130.181 454.904 130.394C454.733 130.607 454.552 130.799 454.361 130.969C454.19 131.161 454.02 131.353 453.849 131.544C453.679 131.757 453.573 132.024 453.53 132.343C453.211 132.514 452.891 132.737 452.572 133.014C452.273 133.312 452.007 133.515 451.773 133.621C451.603 133.706 451.421 133.77 451.23 133.813C451.038 133.877 450.846 133.951 450.655 134.036C450.037 134.313 449.398 134.601 448.738 134.899C448.099 135.197 447.428 135.346 446.725 135.346H446.502C446.417 135.431 446.31 135.485 446.182 135.506C446.054 135.548 445.927 135.58 445.799 135.602C445.671 135.623 445.543 135.655 445.416 135.698C445.288 135.74 445.192 135.804 445.128 135.889C444.894 135.804 444.638 135.761 444.361 135.761H444.138C443.776 135.847 443.435 135.911 443.115 135.953C442.796 135.996 442.455 136.017 442.093 136.017C441.454 136.017 440.815 135.974 440.176 135.889C439.537 135.804 438.898 135.729 438.259 135.666C437.855 135.346 437.525 134.941 437.269 134.452C437.014 133.983 436.886 133.483 436.886 132.95C436.886 132.545 436.971 132.162 437.141 131.8C437.312 131.459 437.535 131.15 437.812 130.874H437.908C438.1 130.874 438.291 130.831 438.483 130.746C438.696 130.661 438.898 130.618 439.09 130.618C439.303 130.618 439.473 130.703 439.601 130.874C439.75 131.044 439.857 131.246 439.921 131.481C440.006 131.715 440.059 131.949 440.08 132.183C440.102 132.439 440.112 132.641 440.112 132.79C440.347 132.897 440.592 132.961 440.847 132.982C441.124 133.003 441.401 133.014 441.678 133.014C441.955 133.014 442.263 132.993 442.604 132.95C442.945 132.929 443.286 132.876 443.626 132.79C443.989 132.726 444.329 132.641 444.649 132.535C444.99 132.428 445.277 132.29 445.511 132.12C446.683 132.013 447.716 131.747 448.61 131.321C449.505 130.895 450.452 130.394 451.453 129.819C451.496 129.585 451.581 129.404 451.709 129.276C451.858 129.127 451.933 128.914 451.933 128.637C451.933 128.595 451.922 128.552 451.901 128.51C451.901 128.446 451.901 128.392 451.901 128.35C451.475 127.817 451.027 127.349 450.559 126.944C450.112 126.539 449.526 126.273 448.802 126.145C448.717 125.954 448.578 125.815 448.387 125.73C448.195 125.624 447.993 125.528 447.78 125.443C447.567 125.357 447.364 125.272 447.173 125.187C446.981 125.081 446.842 124.91 446.757 124.676C446.182 124.569 445.586 124.442 444.968 124.293C444.372 124.122 443.861 123.824 443.435 123.398C443.094 123.377 442.764 123.313 442.444 123.206C442.146 123.079 441.848 122.961 441.55 122.855C441.252 122.727 440.943 122.621 440.624 122.535C440.304 122.429 439.974 122.376 439.633 122.376C439.548 122.227 439.431 122.11 439.282 122.024C439.133 121.939 438.962 121.865 438.771 121.801C438.6 121.737 438.43 121.673 438.259 121.609C438.11 121.524 437.993 121.407 437.908 121.258C437.823 121.279 437.759 121.322 437.716 121.385C437.674 121.449 437.599 121.481 437.493 121.481H437.365C437.322 121.353 437.237 121.268 437.109 121.226C436.982 121.162 436.907 121.045 436.886 120.874C436.502 120.853 436.151 120.778 435.831 120.651C435.533 120.523 435.246 120.384 434.969 120.235C434.713 120.065 434.447 119.905 434.17 119.756C433.893 119.607 433.585 119.49 433.244 119.405C433.031 119.234 432.829 119.053 432.637 118.862C432.466 118.649 432.243 118.542 431.966 118.542C431.902 118.542 431.785 118.563 431.615 118.606C431.572 118.223 431.412 117.956 431.135 117.807C430.858 117.637 430.56 117.488 430.241 117.36C430.028 116.806 429.74 116.317 429.378 115.891C429.016 115.465 428.622 115.071 428.196 114.709C428.239 114.581 428.26 114.485 428.26 114.421C428.26 114.208 428.207 114.027 428.1 113.878C427.994 113.708 427.877 113.569 427.749 113.463C427.451 112.504 427.302 111.567 427.302 110.651C427.302 109.373 427.589 108.191 428.164 107.105C428.718 105.998 429.602 105.167 430.816 104.613C430.837 104.443 430.89 104.294 430.976 104.166C431.082 104.038 431.146 103.889 431.167 103.719C431.359 103.719 431.508 103.676 431.615 103.591C431.721 103.506 431.817 103.421 431.902 103.336C432.009 103.229 432.115 103.133 432.222 103.048C432.328 102.963 432.466 102.91 432.637 102.888C433.446 102.185 434.309 101.621 435.225 101.195C436.14 100.748 437.077 100.29 438.036 99.8214C438.228 99.7362 438.387 99.5765 438.515 99.3422H438.707C438.92 99.3422 439.079 99.2996 439.186 99.2144C439.314 99.1079 439.495 99.076 439.729 99.1186C439.814 98.9908 439.921 98.9056 440.048 98.863C440.198 98.8204 440.336 98.7884 440.464 98.7671C440.613 98.7245 440.751 98.6713 440.879 98.6074C441.007 98.5435 441.092 98.4477 441.135 98.3199H441.358C441.72 98.3199 442.072 98.2666 442.413 98.1602C442.753 98.0324 443.094 97.8939 443.435 97.7448H443.658C444.084 97.7448 444.478 97.6703 444.84 97.5212C445.224 97.3508 445.628 97.2337 446.054 97.1698C446.225 97.1272 446.395 97.1166 446.566 97.1379C446.736 97.1592 446.906 97.1698 447.077 97.1698C447.183 97.1698 447.311 97.1592 447.46 97.1379C447.609 97.1166 447.716 97.0527 447.78 96.9462H447.843C447.971 96.9462 448.046 96.9888 448.067 97.074C448.088 97.1592 448.152 97.2017 448.259 97.2017C448.408 97.2017 448.557 97.1805 448.706 97.1379C448.855 97.0953 449.004 97.074 449.153 97.074C449.792 97.074 450.42 97.1379 451.038 97.2656C451.677 97.3934 452.305 97.5106 452.923 97.6171C452.966 97.8726 453.072 98.0537 453.242 98.1602C453.434 98.2666 453.636 98.3625 453.849 98.4477V98.5755C453.849 98.7458 453.892 98.8843 453.977 98.9908C453.892 99.2889 453.743 99.5126 453.53 99.6616C453.317 99.8107 453.083 99.9385 452.827 100.045C452.934 100.13 452.998 100.247 453.019 100.396C453.04 100.546 453.051 100.684 453.051 100.812V101.195L452.891 101.163C452.55 101.163 452.38 101.323 452.38 101.642C452.103 101.472 451.794 101.365 451.453 101.323C451.134 101.28 450.815 101.259 450.495 101.259C450.069 101.259 449.622 101.28 449.153 101.323C448.685 101.344 448.227 101.334 447.78 101.291C447.609 101.504 447.396 101.664 447.141 101.77C446.885 101.855 446.629 101.898 446.374 101.898C446.097 101.898 445.831 101.845 445.575 101.738C445.32 101.61 445.139 101.429 445.032 101.195C444.926 101.152 444.83 101.131 444.745 101.131H444.457C444.116 101.131 443.776 101.174 443.435 101.259C443.115 101.323 442.785 101.408 442.444 101.515C442.104 101.6 441.763 101.696 441.422 101.802C441.103 101.887 440.773 101.941 440.432 101.962C440.304 102.132 440.134 102.249 439.921 102.313C439.708 102.377 439.537 102.494 439.41 102.665C438.962 102.75 438.558 102.899 438.196 103.112C437.833 103.304 437.482 103.517 437.141 103.751L436.151 104.422C435.831 104.635 435.469 104.816 435.065 104.965C434.767 105.284 434.49 105.54 434.234 105.732C433.979 105.923 433.648 106.094 433.244 106.243C432.988 106.328 432.839 106.456 432.797 106.626C432.775 106.796 432.69 106.967 432.541 107.137C432.413 107.286 432.253 107.403 432.062 107.489C431.891 107.552 431.742 107.67 431.615 107.84C431.508 107.989 431.423 108.17 431.359 108.383C431.316 108.575 431.263 108.766 431.199 108.958C431.135 109.15 431.061 109.341 430.976 109.533C430.89 109.704 430.763 109.853 430.592 109.98C430.592 110.066 430.582 110.151 430.56 110.236C430.56 110.321 430.56 110.396 430.56 110.46C430.56 110.758 430.592 111.067 430.656 111.386C430.741 111.684 430.795 111.982 430.816 112.281C431.242 113.026 431.742 113.708 432.317 114.325C432.892 114.922 433.51 115.475 434.17 115.986C434.831 116.498 435.512 116.977 436.215 117.424C436.939 117.871 437.652 118.308 438.355 118.734C438.611 118.713 438.845 118.744 439.058 118.83C439.271 118.894 439.495 118.936 439.729 118.957C439.985 119.149 440.283 119.298 440.624 119.405L441.646 119.724C441.987 119.831 442.317 119.958 442.636 120.108C442.956 120.235 443.222 120.416 443.435 120.651C443.541 120.672 443.637 120.704 443.722 120.746C443.808 120.768 443.903 120.778 444.01 120.778C444.138 120.778 444.212 120.736 444.233 120.651C445.192 121.013 446.129 121.417 447.045 121.865C447.961 122.291 448.93 122.621 449.952 122.855C450.357 123.196 450.804 123.494 451.294 123.749C451.784 124.005 452.273 124.271 452.763 124.548C453.253 124.804 453.722 125.091 454.169 125.411C454.616 125.709 455.01 126.071 455.351 126.497C455.394 126.902 455.479 127.296 455.607 127.679C455.756 128.041 455.83 128.435 455.83 128.861Z" fill="#202020"/>
</g>
</g>
<path d="M710.828 41.3672H88.1773C81.9254 41.3672 75.9281 43.844 71.4981 48.2556L52.7551 66.9204C48.3008 71.3561 45.7969 77.3834 45.7969 83.6695V332.403C45.7969 345.458 56.3797 356.041 69.4343 356.041H729.571C742.625 356.041 753.208 345.458 753.208 332.403V83.6695C753.208 77.3834 750.704 71.3561 746.25 66.9204L727.507 48.2556C723.077 43.844 717.08 41.3672 710.828 41.3672Z" stroke="#202020" stroke-width="2.21601"/>
<g clip-path="url(#clip7_18_1275)">
<path d="M229.726 157.706H568.037C603.325 157.706 631.932 186.312 631.932 221.601V223.078C631.932 258.366 603.325 286.973 568.037 286.973H229.726C194.437 286.973 165.831 258.366 165.831 223.078V221.601C165.831 186.312 194.437 157.706 229.726 157.706Z" stroke="#202020" stroke-width="2.21601"/>
<path d="M559.596 179.016C583.665 179.016 603.177 198.528 603.177 222.598C603.177 246.667 583.665 266.178 559.596 266.179C535.526 266.179 516.014 246.667 516.014 222.598C516.014 198.528 535.526 179.016 559.596 179.016ZM559.344 190.096C554.878 190.096 550.623 190.996 546.75 192.625L550.667 199.41L543.62 203.479L539.706 196.698C532.91 201.859 528.207 209.633 527.096 218.523H534.934V226.66H527.095C528.203 235.548 532.9 243.319 539.689 248.482L543.607 241.699L550.654 245.768L546.731 252.561C550.609 254.195 554.871 255.099 559.344 255.099C563.81 255.099 568.065 254.197 571.938 252.567L568.022 245.784L575.069 241.716L578.982 248.494C585.78 243.331 590.484 235.554 591.593 226.66H583.755V218.523H591.592C590.481 209.638 585.782 201.869 578.992 196.708L575.081 203.484L568.034 199.416L571.95 192.631C568.074 190.998 563.814 190.096 559.344 190.096Z" fill="#202020"/>
<path d="M237.852 179.016C261.921 179.016 281.433 198.528 281.433 222.598C281.432 246.667 261.921 266.178 237.852 266.179C213.782 266.179 194.27 246.667 194.27 222.598C194.27 198.528 213.782 179.016 237.852 179.016ZM237.6 190.096C233.134 190.096 228.879 190.996 225.006 192.625L228.923 199.41L221.876 203.479L217.962 196.698C211.166 201.859 206.463 209.633 205.352 218.523H213.189V226.66H205.351C206.459 235.548 211.156 243.319 217.945 248.482L221.863 241.699L228.91 245.768L224.987 252.561C228.865 254.195 233.127 255.099 237.6 255.099C242.066 255.099 246.321 254.197 250.194 252.567L246.278 245.784L253.325 241.716L257.238 248.494C264.036 243.331 268.739 235.554 269.849 226.66H262.011V218.523H269.848C268.737 209.638 264.038 201.869 257.248 196.708L253.337 203.484L246.29 199.416L250.206 192.631C246.33 190.998 242.07 190.096 237.6 190.096Z" fill="#202020"/>
</g>
<defs>
<clipPath id="clip0_18_1275">
<rect width="26.5921" height="26.5921" fill="white" transform="translate(385.467 386.867)"/>
</clipPath>
<clipPath id="clip1_18_1275">
<rect width="26.5921" height="26.5921" fill="white" transform="translate(19.9434 19.9453)"/>
</clipPath>
<clipPath id="clip2_18_1275">
<rect width="26.5921" height="26.5921" fill="white" transform="translate(19.9434 442.27)"/>
</clipPath>
<clipPath id="clip3_18_1275">
<rect width="26.5921" height="26.5921" fill="white" transform="translate(750.992 19.9453)"/>
</clipPath>
<clipPath id="clip4_18_1275">
<rect width="26.5921" height="26.5921" fill="white" transform="translate(750.992 442.27)"/>
</clipPath>
<clipPath id="clip5_18_1275">
<rect width="707.647" height="314.674" fill="white" transform="translate(45.7969 41.3672)"/>
</clipPath>
<clipPath id="clip6_18_1275">
<rect width="708" height="199.767" fill="white" transform="matrix(1 0 0 -1 46.166 356.738)"/>
</clipPath>
<clipPath id="clip7_18_1275">
<rect x="164.723" y="156.598" width="468.317" height="131.483" rx="65.003" fill="white"/>
</clipPath>
</defs>
</svg>
