<svg width="798" height="489" viewBox="0 0 798 489" fill="none" xmlns="http://www.w3.org/2000/svg">
<g opacity="0.8">
<mask id="path-1-outside-1_18_1370" maskUnits="userSpaceOnUse" x="-0.783203" y="-0.785156" width="799" height="490" fill="black">
<rect fill="white" x="-0.783203" y="-0.785156" width="799" height="490"/>
<path d="M763.048 2.21484C780.998 2.21484 795.55 16.7667 795.55 34.7168V454.281C795.55 472.231 780.998 486.783 763.048 486.783H34.7188C16.7687 486.783 2.2168 472.231 2.2168 454.281V34.7168C2.2168 16.7667 16.7687 2.21484 34.7188 2.21484H763.048ZM210.522 433.362C199.1 433.363 189.84 442.622 189.84 454.045C189.84 465.468 199.1 474.727 210.522 474.728C221.945 474.728 231.206 465.468 231.206 454.045C231.206 442.622 221.945 433.362 210.522 433.362ZM587.749 433.362C576.326 433.362 567.065 442.622 567.065 454.045C567.065 465.468 576.326 474.728 587.749 474.728C599.172 474.727 608.432 465.468 608.432 454.045C608.432 442.622 599.172 433.363 587.749 433.362ZM277.003 433.362C274.555 433.362 272.571 435.346 272.571 437.794V457C272.571 459.447 274.555 461.431 277.003 461.432H296.209C298.656 461.431 300.64 459.447 300.641 457V437.794C300.64 435.346 298.656 433.362 296.209 433.362H277.003ZM502.062 433.362C499.615 433.362 497.631 435.346 497.631 437.794V457C497.631 459.447 499.615 461.431 502.062 461.432H521.269C523.716 461.431 525.7 459.447 525.7 457V437.794C525.7 435.346 523.716 433.362 521.269 433.362H502.062ZM237.854 178.757C213.784 178.757 194.272 198.269 194.272 222.339C194.272 246.408 213.784 265.921 237.854 265.921C261.923 265.921 281.436 246.408 281.436 222.339C281.436 198.269 261.923 178.757 237.854 178.757ZM559.914 178.757C535.845 178.757 516.333 198.269 516.333 222.339C516.333 246.408 535.845 265.921 559.914 265.921C583.983 265.921 603.496 246.408 603.496 222.339C603.496 198.269 583.983 178.757 559.914 178.757Z"/>
</mask>
<path d="M763.048 2.21484C780.998 2.21484 795.55 16.7667 795.55 34.7168V454.281C795.55 472.231 780.998 486.783 763.048 486.783H34.7188C16.7687 486.783 2.2168 472.231 2.2168 454.281V34.7168C2.2168 16.7667 16.7687 2.21484 34.7188 2.21484H763.048ZM210.522 433.362C199.1 433.363 189.84 442.622 189.84 454.045C189.84 465.468 199.1 474.727 210.522 474.728C221.945 474.728 231.206 465.468 231.206 454.045C231.206 442.622 221.945 433.362 210.522 433.362ZM587.749 433.362C576.326 433.362 567.065 442.622 567.065 454.045C567.065 465.468 576.326 474.728 587.749 474.728C599.172 474.727 608.432 465.468 608.432 454.045C608.432 442.622 599.172 433.363 587.749 433.362ZM277.003 433.362C274.555 433.362 272.571 435.346 272.571 437.794V457C272.571 459.447 274.555 461.431 277.003 461.432H296.209C298.656 461.431 300.64 459.447 300.641 457V437.794C300.64 435.346 298.656 433.362 296.209 433.362H277.003ZM502.062 433.362C499.615 433.362 497.631 435.346 497.631 437.794V457C497.631 459.447 499.615 461.431 502.062 461.432H521.269C523.716 461.431 525.7 459.447 525.7 457V437.794C525.7 435.346 523.716 433.362 521.269 433.362H502.062ZM237.854 178.757C213.784 178.757 194.272 198.269 194.272 222.339C194.272 246.408 213.784 265.921 237.854 265.921C261.923 265.921 281.436 246.408 281.436 222.339C281.436 198.269 261.923 178.757 237.854 178.757ZM559.914 178.757C535.845 178.757 516.333 198.269 516.333 222.339C516.333 246.408 535.845 265.921 559.914 265.921C583.983 265.921 603.496 246.408 603.496 222.339C603.496 198.269 583.983 178.757 559.914 178.757Z" fill="#E2E2E2"/>
<path d="M210.522 433.362L210.522 431.146L210.522 431.146L210.522 433.362ZM189.84 454.045L187.624 454.045V454.045H189.84ZM210.522 474.728L210.522 476.944H210.522V474.728ZM231.206 454.045L233.422 454.045L233.422 454.045L231.206 454.045ZM587.749 433.362L587.749 431.146H587.749V433.362ZM567.065 454.045L564.849 454.045V454.045H567.065ZM587.749 474.728L587.749 476.944L587.749 476.944L587.749 474.728ZM608.432 454.045L610.648 454.045L610.648 454.045L608.432 454.045ZM277.003 433.362L277.003 431.146L277.003 431.146L277.003 433.362ZM272.571 437.794L270.355 437.794V437.794H272.571ZM272.571 457L270.355 457L270.355 457L272.571 457ZM277.003 461.432L277.003 463.648H277.003V461.432ZM296.209 461.432L296.209 463.648L296.209 463.648L296.209 461.432ZM300.641 457L302.857 457V457H300.641ZM300.641 437.794L302.857 437.794L302.857 437.794L300.641 437.794ZM296.209 433.362L296.209 431.146H296.209V433.362ZM502.062 433.362L502.062 431.146L502.062 431.146L502.062 433.362ZM497.631 437.794L495.415 437.794V437.794H497.631ZM497.631 457L495.415 457L495.415 457L497.631 457ZM502.062 461.432L502.062 463.648H502.062V461.432ZM521.269 461.432L521.269 463.648L521.269 463.648L521.269 461.432ZM525.7 457L527.916 457V457H525.7ZM525.7 437.794L527.916 437.794L527.916 437.794L525.7 437.794ZM521.269 433.362L521.269 431.146H521.269V433.362ZM237.854 178.757L237.854 176.541L237.854 176.541L237.854 178.757ZM194.272 222.339L192.056 222.339V222.339H194.272ZM237.854 265.921L237.854 268.137H237.854V265.921ZM281.436 222.339L283.652 222.339L283.652 222.339L281.436 222.339ZM559.914 178.757L559.914 176.541L559.914 176.541L559.914 178.757ZM516.333 222.339L514.117 222.339V222.339H516.333ZM559.914 265.921L559.914 268.137H559.914V265.921ZM603.496 222.339L605.712 222.339L605.712 222.339L603.496 222.339ZM763.048 2.21484V4.43086C779.774 4.43086 793.334 17.9906 793.334 34.7168H795.55H797.766C797.766 15.5428 782.222 -0.00116849 763.048 -0.00116849V2.21484ZM795.55 34.7168H793.334V454.281H795.55H797.766V34.7168H795.55ZM795.55 454.281H793.334C793.334 471.007 779.774 484.567 763.048 484.567V486.783V488.999C782.222 488.999 797.766 473.455 797.766 454.281H795.55ZM763.048 486.783V484.567H34.7188V486.783V488.999H763.048V486.783ZM34.7188 486.783V484.567C17.9925 484.567 4.43281 471.007 4.43281 454.281H2.2168H0.000784636C0.000784636 473.455 15.5448 488.999 34.7188 488.999V486.783ZM2.2168 454.281H4.43281V34.7168H2.2168H0.000784636V454.281H2.2168ZM2.2168 34.7168H4.43281C4.43281 17.9906 17.9925 4.43086 34.7188 4.43086V2.21484V-0.00116849C15.5448 -0.00116849 0.000784636 15.5428 0.000784636 34.7168H2.2168ZM34.7188 2.21484V4.43086H763.048V2.21484V-0.00116849H34.7188V2.21484ZM210.522 433.362L210.522 431.146C197.876 431.147 187.624 441.398 187.624 454.045L189.84 454.045L192.056 454.045C192.056 443.846 200.324 435.579 210.523 435.578L210.522 433.362ZM189.84 454.045H187.624C187.624 466.691 197.876 476.943 210.522 476.944L210.522 474.728L210.523 472.512C200.324 472.511 192.056 464.244 192.056 454.045H189.84ZM210.522 474.728V476.944C223.169 476.944 233.422 466.692 233.422 454.045H231.206H228.99C228.99 464.244 220.722 472.512 210.522 472.512V474.728ZM231.206 454.045L233.422 454.045C233.422 441.398 223.169 431.146 210.522 431.146V433.362V435.578C220.721 435.578 228.99 443.846 228.99 454.045L231.206 454.045ZM587.749 433.362V431.146C575.103 431.146 564.849 441.398 564.849 454.045L567.065 454.045L569.281 454.045C569.281 443.846 577.55 435.578 587.749 435.578V433.362ZM567.065 454.045H564.849C564.849 466.692 575.103 476.944 587.749 476.944V474.728V472.512C577.55 472.512 569.281 464.244 569.281 454.045H567.065ZM587.749 474.728L587.749 476.944C600.395 476.943 610.648 466.691 610.648 454.045H608.432H606.216C606.216 464.244 597.948 472.511 587.749 472.512L587.749 474.728ZM608.432 454.045L610.648 454.045C610.648 441.398 600.395 431.147 587.749 431.146L587.749 433.362L587.749 435.578C597.948 435.579 606.216 443.846 606.216 454.045L608.432 454.045ZM277.003 433.362L277.003 431.146C273.332 431.147 270.356 434.123 270.355 437.794L272.571 437.794L274.787 437.794C274.787 436.57 275.779 435.578 277.003 435.578L277.003 433.362ZM272.571 437.794H270.355V457H272.571H274.787V437.794H272.571ZM272.571 457L270.355 457C270.356 460.671 273.332 463.647 277.003 463.648L277.003 461.432L277.003 459.216C275.779 459.216 274.787 458.224 274.787 457L272.571 457ZM277.003 461.432V463.648H296.209V461.432V459.216H277.003V461.432ZM296.209 461.432L296.209 463.648C299.88 463.647 302.856 460.671 302.857 457L300.641 457L298.425 457C298.425 458.224 297.433 459.216 296.209 459.216L296.209 461.432ZM300.641 457H302.857V437.794H300.641H298.425V457H300.641ZM300.641 437.794L302.857 437.794C302.856 434.123 299.88 431.147 296.209 431.146L296.209 433.362L296.209 435.578C297.433 435.578 298.425 436.57 298.425 437.794L300.641 437.794ZM296.209 433.362V431.146H277.003V433.362V435.578H296.209V433.362ZM502.062 433.362L502.062 431.146C498.391 431.147 495.415 434.123 495.415 437.794L497.631 437.794L499.847 437.794C499.847 436.57 500.839 435.578 502.063 435.578L502.062 433.362ZM497.631 437.794H495.415V457H497.631H499.847V437.794H497.631ZM497.631 457L495.415 457C495.415 460.671 498.391 463.647 502.062 463.648L502.062 461.432L502.063 459.216C500.839 459.216 499.847 458.224 499.847 457L497.631 457ZM502.062 461.432V463.648H521.269V461.432V459.216H502.062V461.432ZM521.269 461.432L521.269 463.648C524.94 463.647 527.916 460.671 527.916 457L525.7 457L523.484 457C523.484 458.224 522.492 459.216 521.268 459.216L521.269 461.432ZM525.7 457H527.916V437.794H525.7H523.484V457H525.7ZM525.7 437.794L527.916 437.794C527.916 434.123 524.94 431.147 521.269 431.146L521.269 433.362L521.268 435.578C522.492 435.578 523.484 436.57 523.484 437.794L525.7 437.794ZM521.269 433.362V431.146H502.062V433.362V435.578H521.269V433.362ZM237.854 178.757L237.854 176.541C212.56 176.541 192.056 197.046 192.056 222.339L194.272 222.339L196.488 222.339C196.488 199.493 215.008 180.973 237.854 180.973L237.854 178.757ZM194.272 222.339H192.056C192.056 247.632 212.56 268.137 237.854 268.137L237.854 265.921L237.854 263.705C215.008 263.705 196.488 245.184 196.488 222.339H194.272ZM237.854 265.921V268.137C263.147 268.137 283.652 247.632 283.652 222.339H281.436H279.22C279.22 245.184 260.699 263.705 237.854 263.705V265.921ZM281.436 222.339L283.652 222.339C283.652 197.046 263.147 176.541 237.854 176.541V178.757V180.973C260.699 180.973 279.22 199.493 279.22 222.339L281.436 222.339ZM559.914 178.757L559.914 176.541C534.621 176.541 514.117 197.046 514.117 222.339L516.333 222.339L518.549 222.339C518.549 199.493 537.069 180.973 559.914 180.973L559.914 178.757ZM516.333 222.339H514.117C514.117 247.632 534.621 268.137 559.914 268.137L559.914 265.921L559.914 263.705C537.069 263.705 518.549 245.184 518.549 222.339H516.333ZM559.914 265.921V268.137C585.207 268.137 605.712 247.632 605.712 222.339H603.496H601.28C601.28 245.184 582.76 263.705 559.914 263.705V265.921ZM603.496 222.339L605.712 222.339C605.712 197.046 585.207 176.541 559.914 176.541V178.757V180.973C582.76 180.973 601.28 199.493 601.28 222.339L603.496 222.339Z" fill="#202020" mask="url(#path-1-outside-1_18_1370)"/>
</g>
<path d="M237.113 88.6406C310.953 88.6408 370.812 148.5 370.812 222.34C370.812 296.18 310.953 356.039 237.113 356.039C163.273 356.039 103.414 296.18 103.414 222.34C103.414 148.5 163.273 88.6406 237.113 88.6406ZM237.852 176.543C212.558 176.543 192.055 197.047 192.055 222.34C192.055 247.633 212.558 268.138 237.852 268.138C263.145 268.138 283.649 247.633 283.649 222.34C283.649 197.047 263.145 176.543 237.852 176.543Z" fill="#202020"/>
<path d="M559.172 166.941C589.769 166.941 614.572 191.745 614.572 222.342C614.572 252.939 589.769 277.742 559.172 277.742C528.575 277.742 503.772 252.938 503.771 222.342C503.771 191.745 528.575 166.942 559.172 166.941ZM559.911 176.544C534.618 176.544 514.113 197.048 514.113 222.342C514.113 247.635 534.618 268.14 559.911 268.14C585.204 268.139 605.708 247.635 605.708 222.342C605.708 197.049 585.204 176.544 559.911 176.544Z" fill="#202020"/>
<path d="M93.4416 201.658C85.7306 262.787 55.7236 408.383 63.5254 455.391M86.4244 474.597C137.762 475.335 705.8 474.597 711.34 474.597M604.602 191.316C630.754 230.073 714.904 385.05 733.832 445.419" stroke="#202020" stroke-width="0.738671"/>
<path d="M86.1885 427.496C99.2431 427.496 109.826 438.079 109.826 451.134C109.826 464.188 99.2431 474.771 86.1885 474.771C73.1339 474.771 62.5508 464.188 62.5508 451.134C62.5508 438.079 73.1339 427.496 86.1885 427.496ZM86.1885 441.185C80.6918 441.185 76.2354 445.641 76.2354 451.138C76.2356 456.634 80.6919 461.09 86.1885 461.09C91.685 461.09 96.1404 456.634 96.1406 451.138C96.1406 445.641 91.6851 441.185 86.1885 441.185Z" fill="#202020"/>
<path d="M711.104 427.496C724.159 427.496 734.741 438.079 734.741 451.134C734.741 464.188 724.159 474.771 711.104 474.771C698.05 474.771 687.467 464.188 687.467 451.134C687.467 438.079 698.05 427.496 711.104 427.496ZM711.104 441.185C705.607 441.185 701.151 445.641 701.151 451.138C701.152 456.634 705.607 461.09 711.104 461.09C716.6 461.09 721.056 456.634 721.057 451.138C721.057 445.641 716.6 441.185 711.104 441.185Z" fill="#202020"/>
<path d="M179.778 378.569H623.882C634.179 378.569 643.166 385.55 645.712 395.527L669.286 487.893H129.293L158.259 394.429C161.182 384.998 169.905 378.569 179.778 378.569Z" stroke="#202020" stroke-width="2.21601"/>
<circle cx="210.521" cy="454.089" r="19.5748" stroke="#202020" stroke-width="2.21601"/>
<circle cx="587.747" cy="454.089" r="19.5748" stroke="#202020" stroke-width="2.21601"/>
<rect x="273.678" y="434.514" width="25.8535" height="25.8535" rx="3.32402" stroke="#202020" stroke-width="2.21601"/>
<path d="M384.848 461.475C384.848 459.027 386.832 457.043 389.28 457.043H408.485C410.933 457.043 412.917 459.027 412.917 461.475V474.771H384.848V461.475Z" fill="#202020"/>
<rect x="498.737" y="434.514" width="25.8535" height="25.8535" rx="3.32402" stroke="#202020" stroke-width="2.21601"/>
<g clip-path="url(#clip0_18_1370)">
<path d="M398.763 386.867C406.106 386.867 412.058 392.82 412.059 400.163C412.059 407.506 406.106 413.459 398.763 413.459C391.42 413.459 385.467 407.506 385.467 400.163C385.467 392.82 391.42 386.867 398.763 386.867ZM399.849 392.206C399.608 391.023 397.917 391.023 397.677 392.206L396.662 397.197C396.573 397.633 396.233 397.974 395.797 398.062L390.806 399.077C389.623 399.318 389.623 401.008 390.806 401.249L395.797 402.264C396.233 402.352 396.573 402.693 396.662 403.129L397.677 408.12C397.917 409.303 399.608 409.303 399.849 408.12L400.863 403.129C400.952 402.693 401.293 402.352 401.729 402.264L406.72 401.249C407.903 401.008 407.903 399.318 406.72 399.077L401.729 398.062C401.293 397.974 400.952 397.633 400.863 397.197L399.849 392.206Z" fill="#202020"/>
</g>
<g clip-path="url(#clip1_18_1370)">
<path d="M33.2393 19.9453C40.5824 19.9453 46.5351 25.8981 46.5352 33.2412C46.5352 40.5844 40.5825 46.5371 33.2393 46.5371C25.8961 46.537 19.9434 40.5844 19.9434 33.2412C19.9435 25.8981 25.8962 19.9454 33.2393 19.9453ZM34.3252 25.2842C34.0845 24.1014 32.3939 24.1014 32.1533 25.2842L31.1387 30.2754C31.05 30.7112 30.7092 31.052 30.2734 31.1406L25.2822 32.1553C24.0994 32.3959 24.0995 34.0865 25.2822 34.3271L30.2734 35.3418C30.7092 35.4304 31.05 35.7713 31.1387 36.207L32.1533 41.1982C32.3939 42.3812 34.0846 42.3812 34.3252 41.1982L35.3398 36.207C35.4285 35.7713 35.7694 35.4304 36.2051 35.3418L41.1963 34.3271C42.3792 34.0866 42.3792 32.3958 41.1963 32.1553L36.2051 31.1406C35.7694 31.052 35.4285 30.7111 35.3398 30.2754L34.3252 25.2842Z" fill="#202020"/>
</g>
<g clip-path="url(#clip2_18_1370)">
<path d="M33.2393 442.27C40.5824 442.27 46.5351 448.222 46.5352 455.565C46.5352 462.909 40.5825 468.861 33.2393 468.861C25.8961 468.861 19.9434 462.909 19.9434 455.565C19.9435 448.222 25.8962 442.27 33.2393 442.27ZM34.3252 447.608C34.0845 446.426 32.3939 446.426 32.1533 447.608L31.1387 452.6C31.05 453.035 30.7092 453.376 30.2734 453.465L25.2822 454.479C24.0994 454.72 24.0995 456.411 25.2822 456.651L30.2734 457.666C30.7092 457.755 31.05 458.096 31.1387 458.531L32.1533 463.522C32.3939 464.705 34.0846 464.705 34.3252 463.522L35.3398 458.531C35.4285 458.096 35.7694 457.755 36.2051 457.666L41.1963 456.651C42.3792 456.411 42.3792 454.72 41.1963 454.479L36.2051 453.465C35.7694 453.376 35.4285 453.035 35.3398 452.6L34.3252 447.608Z" fill="#202020"/>
</g>
<g clip-path="url(#clip3_18_1370)">
<path d="M764.288 19.9453C771.631 19.9453 777.584 25.8981 777.584 33.2412C777.584 40.5844 771.631 46.5371 764.288 46.5371C756.945 46.537 750.992 40.5844 750.992 33.2412C750.992 25.8981 756.945 19.9454 764.288 19.9453ZM765.374 25.2842C765.133 24.1014 763.443 24.1014 763.202 25.2842L762.188 30.2754C762.099 30.7112 761.758 31.052 761.322 31.1406L756.331 32.1553C755.148 32.3959 755.148 34.0865 756.331 34.3271L761.322 35.3418C761.758 35.4304 762.099 35.7713 762.188 36.207L763.202 41.1982C763.443 42.3812 765.133 42.3812 765.374 41.1982L766.389 36.207C766.477 35.7713 766.818 35.4304 767.254 35.3418L772.245 34.3271C773.428 34.0866 773.428 32.3958 772.245 32.1553L767.254 31.1406C766.818 31.052 766.477 30.7111 766.389 30.2754L765.374 25.2842Z" fill="#202020"/>
</g>
<g clip-path="url(#clip4_18_1370)">
<path d="M764.288 442.27C771.631 442.27 777.584 448.222 777.584 455.565C777.584 462.909 771.631 468.861 764.288 468.861C756.945 468.861 750.992 462.909 750.992 455.565C750.992 448.222 756.945 442.27 764.288 442.27ZM765.374 447.608C765.133 446.426 763.443 446.426 763.202 447.608L762.188 452.6C762.099 453.035 761.758 453.376 761.322 453.465L756.331 454.479C755.148 454.72 755.148 456.411 756.331 456.651L761.322 457.666C761.758 457.755 762.099 458.096 762.188 458.531L763.202 463.522C763.443 464.705 765.133 464.705 765.374 463.522L766.389 458.531C766.477 458.096 766.818 457.755 767.254 457.666L772.245 456.651C773.428 456.411 773.428 454.72 772.245 454.479L767.254 453.465C766.818 453.376 766.477 453.035 766.389 452.6L765.374 447.608Z" fill="#202020"/>
</g>
<mask id="mask0_18_1370" style="mask-type:alpha" maskUnits="userSpaceOnUse" x="45" y="41" width="709" height="316">
<path d="M88.1855 42.4756H711.055C717.012 42.4757 722.727 44.835 726.949 49.0381L745.7 67.7051C749.947 71.9331 752.335 77.6791 752.335 83.6719V332.403C752.335 344.846 742.248 354.933 729.806 354.933H69.4346C56.9919 354.933 46.9053 344.846 46.9053 332.403V83.6719C46.9053 77.6791 49.293 71.9331 53.54 67.7051L72.291 49.0381C76.5131 44.835 82.2281 42.4757 88.1855 42.4756ZM229.726 155.492C193.214 155.492 163.615 185.091 163.615 221.603V223.08C163.615 259.592 193.214 289.191 229.726 289.191H568.037C604.549 289.191 634.148 259.592 634.148 223.08V221.603C634.148 185.091 604.549 155.492 568.037 155.492H229.726Z" fill="#EDA35F" stroke="#202020" stroke-width="2.21601"/>
</mask>
<g mask="url(#mask0_18_1370)">
<g clip-path="url(#clip5_18_1370)">
<rect width="707.647" height="314.674" transform="translate(45.7969 41.3672)" fill="#FCF7F2"/>
<g clip-path="url(#clip6_18_1370)">
<rect width="708" height="35.5142" transform="matrix(1 0 0 -1 46.166 356.738)" fill="#9B51E0"/>
<rect width="708" height="24.416" transform="matrix(1 0 0 -1 46.166 312.344)" fill="#9B51E0"/>
<rect width="708" height="4.43928" transform="matrix(1 0 0 -1 46.166 181.387)" fill="#9B51E0"/>
<rect width="708" height="2.21964" transform="matrix(1 0 0 -1 46.166 159.191)" fill="#9B51E0"/>
<rect width="708" height="17.7571" transform="matrix(1 0 0 -1 46.166 279.051)" fill="#9B51E0"/>
<rect width="708" height="8.87855" transform="matrix(1 0 0 -1 46.166 225.781)" fill="#9B51E0"/>
<rect width="708" height="13.3178" transform="matrix(1 0 0 -1 46.166 250.195)" fill="#9B51E0"/>
<rect width="708" height="6.65891" transform="matrix(1 0 0 -1 46.166 203.582)" fill="#9B51E0"/>
</g>
<path d="M336.03 115.156C335.987 115.411 335.913 115.699 335.806 116.018C335.721 116.338 335.593 116.636 335.423 116.913C335.274 117.168 335.082 117.392 334.848 117.584C334.614 117.754 334.337 117.839 334.017 117.839C333.783 117.839 333.549 117.818 333.315 117.775C333.08 117.712 332.835 117.68 332.58 117.68C332.473 117.68 332.356 117.722 332.228 117.807C332.122 117.871 332.015 117.903 331.909 117.903C331.802 117.903 331.707 117.893 331.621 117.871C331.557 117.829 331.472 117.807 331.366 117.807C331.302 117.807 331.185 117.829 331.014 117.871C330.844 117.914 330.663 117.956 330.471 117.999C330.28 118.042 330.099 118.095 329.928 118.159C329.758 118.201 329.641 118.233 329.577 118.255C329.002 118.446 328.427 118.617 327.852 118.766C327.277 118.915 326.68 119.011 326.063 119.053C325.935 119.011 325.743 118.968 325.488 118.926C325.232 118.862 325.04 118.83 324.913 118.83C324.657 118.83 324.487 118.936 324.401 119.149C324.337 119.362 324.199 119.522 323.986 119.628C323.73 119.777 323.411 119.863 323.028 119.884C322.644 119.905 322.261 119.937 321.878 119.98C321.494 120.022 321.132 120.108 320.791 120.235C320.472 120.342 320.238 120.555 320.089 120.874C319.982 120.853 319.865 120.842 319.737 120.842C319.631 120.821 319.514 120.81 319.386 120.81C318.704 120.81 318.065 120.949 317.469 121.226C316.873 121.481 316.266 121.716 315.648 121.929C315.754 122.12 315.829 122.354 315.872 122.631C315.914 122.908 315.957 123.185 315.999 123.462C316.042 123.718 316.095 123.973 316.159 124.229C316.244 124.463 316.383 124.644 316.574 124.772C316.574 124.9 316.542 125.006 316.479 125.091C316.436 125.176 316.383 125.251 316.319 125.315L316.095 125.538C316.031 125.602 315.989 125.698 315.967 125.826C315.904 126.082 315.872 126.348 315.872 126.625C315.872 126.88 315.723 127.072 315.424 127.2C315.446 127.264 315.456 127.381 315.456 127.551C315.456 127.764 315.424 127.966 315.36 128.158C315.297 128.35 315.275 128.563 315.297 128.797C314.934 129.202 314.626 129.617 314.37 130.043C314.136 130.469 313.955 130.927 313.827 131.417C313.039 132.205 312.23 132.993 311.399 133.781C310.59 134.59 309.748 135.367 308.875 136.113C308.023 136.858 307.139 137.561 306.224 138.221C305.308 138.903 304.36 139.499 303.38 140.01H303.157C302.667 140.01 302.284 140.096 302.007 140.266C301.73 140.436 301.378 140.585 300.952 140.713C300.633 140.628 300.25 140.585 299.802 140.585C299.547 140.585 299.281 140.596 299.004 140.617C298.748 140.639 298.482 140.649 298.205 140.649C297.843 140.649 297.513 140.607 297.215 140.521C296.938 140.436 296.661 140.34 296.384 140.234C296.129 140.127 295.862 140.021 295.585 139.915C295.309 139.808 295.01 139.733 294.691 139.691C293.37 138.37 292.327 136.826 291.56 135.059C290.793 133.312 290.41 131.513 290.41 129.66C290.41 128.808 290.527 127.977 290.761 127.168C290.996 126.337 291.113 125.507 291.113 124.676C291.496 123.909 291.826 123.121 292.103 122.312C292.401 121.503 292.7 120.693 292.998 119.884C293.296 119.075 293.615 118.287 293.956 117.52C294.318 116.732 294.744 115.986 295.234 115.284C295.341 114.73 295.511 114.251 295.745 113.846C295.979 113.441 296.235 112.994 296.512 112.504C296.512 112.036 296.608 111.61 296.799 111.226C297.012 110.822 297.14 110.374 297.183 109.885C297.524 109.565 297.8 109.203 298.013 108.798C298.226 108.394 298.429 107.978 298.62 107.552C298.812 107.127 299.025 106.722 299.259 106.339C299.515 105.934 299.856 105.593 300.282 105.316C300.324 105.167 300.345 105.007 300.345 104.837C300.367 104.645 300.42 104.496 300.505 104.39L301.176 103.655C301.389 103.378 301.581 103.101 301.751 102.824C301.943 102.526 302.145 102.26 302.358 102.026C302.486 101.898 302.624 101.791 302.773 101.706C302.923 101.621 303.05 101.525 303.157 101.419C303.263 101.312 303.295 101.174 303.253 101.003C303.231 100.833 303.274 100.695 303.38 100.588C303.423 100.546 303.487 100.503 303.572 100.46C303.657 100.418 303.732 100.375 303.796 100.333C304.073 100.141 304.307 99.9492 304.499 99.7575C304.69 99.5658 304.956 99.4274 305.297 99.3422C305.595 99.1079 305.862 98.8736 306.096 98.6394C306.351 98.4051 306.607 98.1921 306.863 98.0004C307.118 97.8087 307.395 97.6597 307.693 97.5532C307.991 97.4254 308.364 97.3615 308.811 97.3615C308.897 97.3615 308.982 97.3721 309.067 97.3934C309.152 97.3934 309.237 97.3934 309.323 97.3934C310.196 98.2027 310.739 99.1931 310.952 100.364C310.718 100.663 310.526 100.982 310.377 101.323C310.249 101.664 310.1 102.004 309.93 102.345C309.567 102.473 309.227 102.665 308.907 102.92C308.588 103.154 308.268 103.399 307.949 103.655C307.651 103.911 307.331 104.134 306.99 104.326C306.671 104.518 306.309 104.613 305.904 104.613C305.734 104.762 305.457 105.007 305.074 105.348C304.712 105.668 304.328 106.008 303.924 106.37C303.54 106.733 303.178 107.073 302.837 107.393C302.518 107.712 302.316 107.936 302.23 108.064C302.166 108.17 302.113 108.266 302.071 108.351C302.028 108.436 301.985 108.532 301.943 108.639L301.112 110.044C300.644 110.854 300.164 111.652 299.675 112.44C299.185 113.207 298.759 114.016 298.397 114.868C298.226 115.252 298.088 115.635 297.981 116.018C297.875 116.402 297.768 116.806 297.662 117.232C297.619 117.36 297.566 117.488 297.502 117.616C297.438 117.743 297.385 117.861 297.343 117.967C297.108 118.414 296.917 118.83 296.767 119.213C296.618 119.596 296.533 120.044 296.512 120.555C295.979 121.747 295.479 122.951 295.01 124.165C294.563 125.357 294.222 126.593 293.988 127.871C294.116 128.297 294.169 128.733 294.148 129.18C294.148 129.606 294.148 130.032 294.148 130.458C294.148 130.991 294.18 131.427 294.244 131.768C294.329 132.13 294.435 132.45 294.563 132.726C294.712 133.025 294.872 133.323 295.042 133.621C295.213 133.94 295.394 134.313 295.585 134.739C295.905 134.995 296.192 135.261 296.448 135.538C296.704 135.836 296.948 136.155 297.183 136.496C297.992 136.901 298.812 137.103 299.643 137.103C300.239 137.103 300.846 137.007 301.464 136.816C302.081 136.624 302.678 136.379 303.253 136.081C303.849 135.804 304.424 135.495 304.978 135.154C305.532 134.814 306.064 134.484 306.575 134.164C307.47 133.632 308.247 133.057 308.907 132.439C309.567 131.821 310.164 131.172 310.696 130.49C311.25 129.809 311.761 129.085 312.23 128.318C312.698 127.53 313.188 126.699 313.699 125.826C313.721 125.72 313.763 125.592 313.827 125.443L314.019 124.963C314.083 124.793 314.136 124.644 314.178 124.516C314.242 124.367 314.274 124.271 314.274 124.229C314.274 124.058 314.232 123.941 314.146 123.877C314.083 123.792 314.051 123.707 314.051 123.622C314.051 123.451 314.093 123.334 314.178 123.27C314.264 123.206 314.359 123.142 314.466 123.079C314.594 123.015 314.7 122.94 314.785 122.855C314.892 122.77 314.945 122.61 314.945 122.376C314.903 122.354 314.828 122.344 314.722 122.344C314.615 122.344 314.509 122.354 314.402 122.376C314.296 122.397 314.189 122.408 314.083 122.408C313.827 122.408 313.614 122.323 313.444 122.152C313.337 122.195 313.231 122.269 313.124 122.376C313.018 122.461 312.911 122.557 312.805 122.663C312.72 122.77 312.634 122.866 312.549 122.951C312.464 123.036 312.389 123.079 312.326 123.079C312.219 123.079 312.134 123.057 312.07 123.015C312.027 122.972 311.963 122.951 311.878 122.951C311.516 122.951 311.197 123.036 310.92 123.206C310.643 123.377 310.345 123.515 310.025 123.622C309.961 123.622 309.898 123.622 309.834 123.622C309.77 123.6 309.706 123.59 309.642 123.59C309.408 123.59 309.173 123.632 308.939 123.718C308.726 123.781 308.513 123.856 308.3 123.941C308.109 124.026 307.906 124.101 307.693 124.165C307.48 124.229 307.267 124.25 307.054 124.229C306.586 124.399 306.149 124.58 305.744 124.772C305.361 124.963 304.914 125.038 304.403 124.995C304.254 125.059 304.094 125.134 303.924 125.219C303.774 125.283 303.625 125.368 303.476 125.475C303.348 125.517 303.253 125.538 303.189 125.538C303.082 125.538 302.997 125.485 302.933 125.379C302.763 125.57 302.539 125.709 302.262 125.794C301.985 125.858 301.698 125.922 301.4 125.986C301.102 126.028 300.814 126.092 300.537 126.177C300.282 126.241 300.079 126.38 299.93 126.593C299.696 126.401 299.419 126.305 299.1 126.305C298.78 126.305 298.471 126.369 298.173 126.497C297.875 126.603 297.555 126.657 297.215 126.657C297.087 126.657 297.002 126.635 296.959 126.593C296.874 126.358 296.778 126.124 296.672 125.89C296.565 125.656 296.395 125.485 296.16 125.379C296.118 125.144 296.075 124.921 296.033 124.708C296.011 124.474 296.001 124.25 296.001 124.037C296.001 123.462 296.171 122.94 296.512 122.472C296.81 122.365 297.108 122.28 297.406 122.216C297.726 122.131 298.035 122.035 298.333 121.929C298.567 121.971 298.801 122.003 299.036 122.024C299.27 122.046 299.504 122.056 299.739 122.056C300.612 122.056 301.464 121.95 302.294 121.737C303.125 121.503 303.945 121.258 304.754 121.002C305.521 120.768 306.298 120.555 307.086 120.363C307.874 120.171 308.662 119.958 309.45 119.724C310.196 119.533 310.931 119.32 311.655 119.085C312.379 118.83 313.135 118.67 313.923 118.606C314.434 118.244 315.052 117.999 315.776 117.871C316.521 117.743 317.203 117.605 317.82 117.456C318.8 117.222 319.769 116.987 320.727 116.753C321.686 116.498 322.666 116.274 323.667 116.082C324.774 115.848 325.85 115.56 326.893 115.22C327.958 114.879 329.023 114.517 330.088 114.134H330.407C330.769 114.134 331.142 114.091 331.525 114.006C331.909 113.921 332.292 113.878 332.676 113.878C332.782 113.878 332.867 113.889 332.931 113.91C333.016 113.91 333.102 113.91 333.187 113.91C333.251 113.91 333.41 113.867 333.666 113.782C333.921 113.676 334.103 113.601 334.209 113.558C334.486 113.857 334.795 114.123 335.135 114.357C335.476 114.591 335.774 114.858 336.03 115.156ZM348.074 137.646C348.01 138.008 347.861 138.264 347.627 138.413C347.414 138.583 347.211 138.818 347.02 139.116H346.892C346.679 139.116 346.466 139.137 346.253 139.18C346.061 139.222 345.859 139.276 345.646 139.339C345.539 139.297 345.412 139.265 345.263 139.244C345.113 139.222 345.018 139.148 344.975 139.02C344.805 139.105 344.57 139.148 344.272 139.148C343.782 139.148 343.314 139.009 342.867 138.732C342.441 138.456 341.993 138.243 341.525 138.094C341.397 137.838 341.237 137.604 341.046 137.391C340.875 137.199 340.694 137.007 340.503 136.816C340.332 136.624 340.162 136.422 339.991 136.209C339.821 135.996 339.683 135.74 339.576 135.442C339.533 135.314 339.48 135.24 339.416 135.218C339.352 135.197 339.257 135.197 339.129 135.218C339.15 134.984 339.118 134.782 339.033 134.611C338.969 134.441 338.809 134.334 338.554 134.292C338.554 134.015 338.511 133.781 338.426 133.589C338.341 133.397 338.234 133.227 338.107 133.078C338 132.95 337.872 132.812 337.723 132.663C337.595 132.514 337.489 132.332 337.404 132.12C337.212 132.077 337.02 132.045 336.829 132.024C336.658 132.024 336.467 132.024 336.254 132.024C335.231 132.024 334.241 132.215 333.283 132.599C333.176 132.641 333.059 132.695 332.931 132.758C332.825 132.822 332.718 132.876 332.612 132.918C332.569 132.918 332.526 132.918 332.484 132.918C332.463 132.939 332.431 132.95 332.388 132.95C332.239 132.95 332.101 132.918 331.973 132.854C331.845 132.812 331.707 132.79 331.557 132.79C331.494 132.79 331.419 132.801 331.334 132.822C331.27 132.865 331.206 132.897 331.142 132.918C330.823 133.025 330.524 133.089 330.248 133.11C329.374 133.28 328.448 133.408 327.468 133.493C326.51 133.578 325.626 133.802 324.817 134.164C324.646 134.249 324.54 134.377 324.497 134.547C324.455 134.739 324.444 134.92 324.465 135.091C324.231 135.261 324.05 135.485 323.922 135.761C323.816 136.038 323.709 136.326 323.603 136.624C323.518 136.943 323.422 137.252 323.315 137.55C323.209 137.849 323.06 138.104 322.868 138.317C322.932 138.445 322.964 138.583 322.964 138.732C322.964 139.052 322.857 139.371 322.644 139.691C322.431 140.01 322.272 140.319 322.165 140.617C322.059 140.915 321.973 141.203 321.91 141.48C321.846 141.778 321.75 142.044 321.622 142.279C321.494 142.513 321.324 142.705 321.111 142.854C320.877 143.003 320.557 143.077 320.152 143.077C319.769 143.077 319.439 143.003 319.162 142.854C318.885 142.705 318.662 142.513 318.491 142.279C318.321 142.044 318.182 141.767 318.076 141.448C317.969 141.128 317.884 140.809 317.82 140.49C318.055 140.021 318.278 139.616 318.491 139.276C318.704 138.935 318.864 138.498 318.97 137.966C319.354 137.689 319.641 137.348 319.833 136.943C320.003 136.56 320.099 136.134 320.121 135.666C320.355 135.517 320.525 135.314 320.632 135.059C320.717 134.824 320.77 134.569 320.791 134.292C320.28 134.249 319.748 134.207 319.194 134.164C318.619 134.121 318.087 134.015 317.597 133.845C317.597 133.802 317.607 133.759 317.629 133.717C317.629 133.674 317.629 133.632 317.629 133.589C317.629 133.312 317.565 133.057 317.437 132.822C317.309 132.609 317.245 132.375 317.245 132.12V131.864C317.416 131.694 317.575 131.513 317.725 131.321C317.852 131.15 317.991 130.991 318.14 130.842C318.289 130.693 318.459 130.565 318.651 130.458C318.843 130.373 319.088 130.33 319.386 130.33C319.79 130.33 320.184 130.352 320.568 130.394C320.951 130.458 321.345 130.49 321.75 130.49C322.027 130.49 322.314 130.458 322.612 130.394C323.081 129.436 323.496 128.467 323.858 127.487C324.22 126.486 324.497 125.475 324.689 124.452C324.838 124.239 324.976 123.994 325.104 123.718C325.232 123.419 325.328 123.111 325.392 122.791C325.477 122.472 325.53 122.163 325.551 121.865C325.594 121.545 325.615 121.258 325.615 121.002C325.85 120.725 326.009 120.384 326.095 119.98C326.201 119.575 326.286 119.16 326.35 118.734C326.414 118.287 326.478 117.85 326.542 117.424C326.627 116.998 326.776 116.625 326.989 116.306V116.018C327.01 115.699 326.978 115.411 326.893 115.156C327 115.113 327.064 115.017 327.085 114.868C327.106 114.719 327.149 114.591 327.213 114.485C327.234 113.505 327.34 112.547 327.532 111.61C327.724 110.651 327.884 109.693 328.011 108.735V108.639C328.011 108.532 327.969 108.479 327.884 108.479C327.82 108.458 327.788 108.394 327.788 108.287C327.788 108.096 327.809 107.84 327.852 107.521C327.916 107.201 327.958 106.935 327.979 106.722C328.107 105.572 328.171 104.432 328.171 103.304C328.171 102.345 328.139 101.397 328.075 100.46C328.011 99.5232 327.947 98.5755 327.884 97.6171L328.139 97.2337C328.224 97.1059 328.299 96.9781 328.363 96.8503C328.576 96.7651 328.746 96.68 328.874 96.5948C329.023 96.4883 329.215 96.435 329.449 96.435C329.513 96.435 329.566 96.4457 329.609 96.467C329.651 96.467 329.694 96.467 329.736 96.467C329.864 96.5522 329.96 96.6693 330.024 96.8184C330.109 96.9675 330.184 97.1059 330.248 97.2337C330.333 97.3615 330.439 97.468 330.567 97.5532C330.695 97.6384 330.876 97.6597 331.11 97.6171C331.217 98.2134 331.515 98.5222 332.005 98.5435C332.111 98.8417 332.239 99.1399 332.388 99.438C332.558 99.7362 332.782 99.9705 333.059 100.141C333.038 100.226 333.027 100.343 333.027 100.492C333.027 100.79 333.091 101.078 333.219 101.355C333.368 101.632 333.549 101.887 333.762 102.122V102.185C333.762 102.42 333.677 102.579 333.506 102.665C333.698 102.878 333.836 103.133 333.921 103.431C334.007 103.73 334.081 104.038 334.145 104.358C334.209 104.656 334.284 104.944 334.369 105.22C334.475 105.497 334.646 105.71 334.88 105.859V105.955C334.88 106.062 334.837 106.126 334.752 106.147C334.688 106.168 334.656 106.232 334.656 106.339C335.04 107.041 335.306 107.808 335.455 108.639C335.604 109.469 335.796 110.268 336.03 111.035C336.115 111.12 336.211 111.173 336.317 111.194C336.445 111.216 336.541 111.269 336.605 111.354C336.477 111.439 336.413 111.588 336.413 111.801C336.413 112.014 336.36 112.174 336.254 112.281C336.424 112.43 336.499 112.653 336.477 112.951C336.477 113.228 336.562 113.431 336.733 113.558V113.686C336.733 113.771 336.712 113.846 336.669 113.91C336.626 113.952 336.605 114.016 336.605 114.102V114.229C336.775 114.975 336.903 115.72 336.988 116.466C337.095 117.211 337.201 117.956 337.308 118.702C337.414 119.447 337.531 120.193 337.659 120.938C337.787 121.662 337.968 122.376 338.202 123.079C338.224 123.1 338.234 123.132 338.234 123.174C338.234 123.281 338.192 123.345 338.107 123.366C338.021 123.366 337.979 123.419 337.979 123.526C337.979 123.632 338.011 123.76 338.075 123.909C338.16 124.037 338.245 124.143 338.33 124.229C338.309 124.314 338.298 124.442 338.298 124.612C338.298 124.931 338.351 125.24 338.458 125.538C338.586 125.837 338.713 126.135 338.841 126.433C338.99 126.71 339.118 127.008 339.225 127.327C339.331 127.647 339.374 127.988 339.352 128.35C339.48 128.541 339.64 128.701 339.832 128.829C340.045 128.957 340.258 129.074 340.471 129.18C340.684 129.287 340.875 129.415 341.046 129.564C341.237 129.713 341.365 129.915 341.429 130.171C341.259 130.32 341.141 130.501 341.078 130.714C341.014 130.948 340.897 131.15 340.726 131.321C340.875 131.683 341.046 132.013 341.237 132.311C341.45 132.631 341.663 132.939 341.876 133.238L342.547 134.132C342.781 134.43 342.984 134.75 343.154 135.091C343.388 135.091 343.559 135.154 343.665 135.282C343.772 135.41 343.942 135.463 344.176 135.442C344.262 135.612 344.294 135.804 344.272 136.017C344.698 135.868 345.124 135.793 345.55 135.793C345.784 135.793 345.997 135.804 346.189 135.825C346.402 135.847 346.615 135.857 346.828 135.857C347.084 135.857 347.307 135.825 347.499 135.761C347.584 135.889 347.648 136.028 347.691 136.177C347.733 136.347 347.765 136.518 347.786 136.688L347.882 137.199C347.925 137.369 347.989 137.518 348.074 137.646ZM336.03 128.797C335.732 127.327 335.423 125.869 335.104 124.42C334.805 122.951 334.539 121.471 334.305 119.98C334.177 119.192 334.081 118.404 334.017 117.616C333.953 116.828 333.868 116.05 333.762 115.284C333.677 114.496 333.549 113.718 333.378 112.951C333.229 112.185 333.006 111.429 332.708 110.683V110.619C332.708 110.555 332.729 110.502 332.771 110.46C332.814 110.417 332.835 110.342 332.835 110.236V110.108C332.558 109.917 332.367 109.65 332.26 109.31C332.154 108.947 332.058 108.575 331.973 108.191C331.909 107.787 331.813 107.403 331.685 107.041C331.579 106.658 331.387 106.339 331.11 106.083C331.004 107.318 330.887 108.553 330.759 109.789C330.652 111.003 330.578 112.227 330.535 113.463C330.322 113.59 330.184 113.803 330.12 114.102C330.056 114.4 330.024 114.666 330.024 114.9C330.024 115.071 330.035 115.252 330.056 115.443C330.077 115.614 330.12 115.795 330.184 115.986C329.8 116.945 329.523 117.935 329.353 118.957C329.183 119.958 328.991 120.959 328.778 121.96C328.757 122.024 328.714 122.173 328.65 122.408C328.608 122.621 328.554 122.844 328.491 123.079C328.427 123.313 328.373 123.526 328.331 123.718C328.288 123.888 328.267 123.984 328.267 124.005C328.246 124.154 328.235 124.303 328.235 124.452C328.256 124.601 328.267 124.75 328.267 124.9L327.788 125.379C327.703 126.188 327.543 126.976 327.309 127.743C327.096 128.488 326.872 129.255 326.638 130.043C326.787 130.064 326.925 130.075 327.053 130.075C327.202 130.096 327.351 130.107 327.5 130.107C328.182 130.107 328.863 130.064 329.545 129.979C330.248 129.873 330.94 129.777 331.621 129.692C331.856 129.649 332.101 129.617 332.356 129.596C332.612 129.553 332.857 129.532 333.091 129.532C333.197 129.511 333.325 129.511 333.474 129.532C333.623 129.532 333.751 129.521 333.858 129.5C334.028 129.457 334.134 129.393 334.177 129.308C334.241 129.202 334.358 129.138 334.528 129.117C334.656 129.18 334.805 129.212 334.976 129.212C335.167 129.212 335.348 129.17 335.519 129.085C335.689 128.999 335.86 128.904 336.03 128.797ZM377.113 138.317C377.113 138.509 377.039 138.679 376.89 138.828C376.762 138.977 376.602 139.095 376.411 139.18C376.219 139.286 376.017 139.382 375.804 139.467C375.612 139.552 375.442 139.627 375.292 139.691C375.058 139.563 374.813 139.478 374.558 139.435C374.323 139.393 374.11 139.286 373.919 139.116H373.695C373.354 139.116 373.088 139.158 372.896 139.244C372.598 139.137 372.353 138.977 372.162 138.764C371.97 138.573 371.789 138.36 371.619 138.125C371.448 137.913 371.278 137.7 371.107 137.487C370.937 137.274 370.724 137.093 370.469 136.943C370.085 135.879 369.744 134.803 369.446 133.717C369.148 132.631 368.924 131.523 368.775 130.394C368.818 130.288 368.85 130.171 368.871 130.043C368.892 129.915 368.903 129.798 368.903 129.692C368.903 129.606 368.882 129.521 368.839 129.436C368.818 129.329 368.754 129.266 368.648 129.244C368.754 129.074 368.818 128.882 368.839 128.669C368.882 128.435 368.903 128.222 368.903 128.03C368.903 127.604 368.861 127.253 368.775 126.976C368.903 126.87 368.956 126.699 368.935 126.465C368.914 126.209 368.967 126.028 369.095 125.922C368.988 125.56 368.935 125.208 368.935 124.868C368.935 124.399 368.988 123.941 369.095 123.494C369.223 123.047 369.286 122.589 369.286 122.12C369.286 122.014 369.276 121.907 369.255 121.801C369.255 121.694 369.244 121.588 369.223 121.481C369.329 121.14 369.425 120.8 369.51 120.459C369.617 120.097 369.67 119.735 369.67 119.373C369.67 119.117 369.627 118.904 369.542 118.734C369.819 117.754 370.011 116.785 370.117 115.827C370.245 114.847 370.362 113.857 370.469 112.856C370.447 112.813 370.426 112.781 370.405 112.76C370.383 112.739 370.373 112.707 370.373 112.664C370.373 112.557 370.426 112.472 370.532 112.408C370.66 112.344 370.713 112.227 370.692 112.057C370.437 112.313 370.224 112.611 370.053 112.951C369.904 113.292 369.755 113.633 369.606 113.974C369.478 114.315 369.329 114.655 369.159 114.996C369.01 115.316 368.807 115.603 368.552 115.859C368.53 116.093 368.456 116.317 368.328 116.53C368.222 116.742 368.168 116.977 368.168 117.232C368.147 117.232 368.126 117.232 368.104 117.232C368.083 117.211 368.051 117.2 368.009 117.2C367.923 117.2 367.86 117.254 367.817 117.36C367.796 117.467 367.732 117.499 367.625 117.456C367.135 118.414 366.592 119.351 365.996 120.267C365.421 121.183 364.665 121.918 363.728 122.472C363.557 122.408 363.398 122.376 363.249 122.376C362.972 122.376 362.695 122.461 362.418 122.631C362.162 122.78 361.992 122.855 361.907 122.855C361.694 122.855 361.428 122.748 361.108 122.535C360.81 122.301 360.501 122.173 360.182 122.152C359.841 121.918 359.553 121.684 359.319 121.449C359.106 121.194 358.776 121.045 358.329 121.002C358.031 120.555 357.732 120.129 357.434 119.724C357.157 119.32 356.881 118.926 356.604 118.542C356.348 118.137 356.114 117.712 355.901 117.264C355.709 116.817 355.56 116.317 355.454 115.763C355.475 115.72 355.486 115.678 355.486 115.635C355.486 115.507 355.422 115.454 355.294 115.475C355.187 115.497 355.134 115.433 355.134 115.284V115.06C355.134 114.89 355.102 114.74 355.038 114.613C354.996 114.464 354.985 114.304 355.006 114.134C354.857 113.899 354.74 113.654 354.655 113.399C354.57 113.143 354.421 112.92 354.208 112.728V112.44C354.208 112.313 354.197 112.195 354.176 112.089C354.176 111.961 354.144 111.855 354.08 111.769C354.037 111.663 353.963 111.599 353.856 111.578C353.835 110.811 353.675 110.034 353.377 109.246C353.1 108.436 352.845 107.659 352.61 106.914C352.44 107.467 352.312 108.032 352.227 108.607C352.142 109.16 352.099 109.725 352.099 110.3V110.843C352.099 111.013 352.12 111.184 352.163 111.354C352.099 111.461 352.003 111.535 351.876 111.578C351.769 111.62 351.705 111.706 351.684 111.833C351.663 111.94 351.652 112.046 351.652 112.153C351.673 112.259 351.673 112.366 351.652 112.472C351.609 112.983 351.545 113.473 351.46 113.942C351.332 114.645 351.183 115.358 351.013 116.082C350.843 116.785 350.757 117.509 350.757 118.255C350.757 118.297 350.757 118.361 350.757 118.446C350.779 118.51 350.789 118.563 350.789 118.606C350.449 118.904 350.268 119.277 350.246 119.724C350.225 120.171 350.172 120.597 350.087 121.002C349.98 121.598 349.852 122.195 349.703 122.791C349.554 123.366 349.426 123.962 349.32 124.58C349.256 124.921 349.203 125.262 349.16 125.602C349.117 125.922 349.075 126.252 349.032 126.593C349.011 126.784 348.936 126.944 348.809 127.072C348.702 127.2 348.628 127.349 348.585 127.519C348.564 127.668 348.553 127.839 348.553 128.03C348.574 128.201 348.585 128.36 348.585 128.51C348.585 128.765 348.564 129.01 348.521 129.244C348.479 129.457 348.351 129.649 348.138 129.819C348.18 130.373 348.276 130.842 348.425 131.225C348.574 131.63 348.745 132.077 348.936 132.567H349.735V132.695C349.735 132.908 349.767 133.099 349.831 133.27C349.916 133.44 350.076 133.515 350.31 133.493C350.289 133.578 350.278 133.685 350.278 133.813C350.278 134.004 350.31 134.175 350.374 134.324C350.459 134.494 350.523 134.675 350.566 134.867C350.14 135.57 349.682 136.092 349.192 136.432C348.702 136.773 348.031 136.943 347.179 136.943H346.668C346.562 136.603 346.434 136.273 346.285 135.953C346.136 135.634 345.987 135.314 345.838 134.995C345.71 134.675 345.593 134.345 345.486 134.004C345.401 133.685 345.358 133.344 345.358 132.982C345.358 132.897 345.369 132.812 345.39 132.726C345.412 132.663 345.422 132.588 345.422 132.503C345.422 132.396 345.38 132.332 345.295 132.311C345.209 132.29 345.167 132.183 345.167 131.992C345.167 131.843 345.156 131.704 345.135 131.576C345.135 131.449 345.135 131.31 345.135 131.161C345.135 130.458 345.188 129.766 345.295 129.085C345.401 128.382 345.476 127.679 345.518 126.976C345.625 126.87 345.678 126.731 345.678 126.561C345.678 126.39 345.731 126.252 345.838 126.145V125.922C345.838 125.538 345.88 125.155 345.965 124.772C346.051 124.388 346.146 124.016 346.253 123.654C346.359 123.292 346.455 122.919 346.54 122.535C346.626 122.152 346.668 121.769 346.668 121.385V120.874C346.668 120.725 346.732 120.661 346.86 120.683C347.009 120.683 347.094 120.597 347.115 120.427C347.158 120.129 347.179 119.841 347.179 119.564C347.201 119.266 347.233 118.968 347.275 118.67C347.382 118.095 347.499 117.52 347.627 116.945C347.754 116.348 347.818 115.752 347.818 115.156V115.06C347.818 114.996 347.872 114.868 347.978 114.677C348.085 114.464 348.138 114.261 348.138 114.07C348.138 113.921 348.106 113.782 348.042 113.654C348.063 113.676 348.106 113.686 348.17 113.686C348.255 113.686 348.308 113.665 348.329 113.622C348.372 113.558 348.425 113.505 348.489 113.463C348.425 113.377 348.393 113.292 348.393 113.207C348.393 113.101 348.404 113.005 348.425 112.92C348.468 112.813 348.489 112.707 348.489 112.6C348.489 112.451 348.415 112.344 348.266 112.281C348.521 111.812 348.702 111.312 348.809 110.779C348.936 110.247 349.022 109.704 349.064 109.15C349.128 108.596 349.181 108.042 349.224 107.489C349.267 106.914 349.362 106.37 349.511 105.859C349.469 105.732 349.437 105.593 349.416 105.444C349.416 105.295 349.416 105.156 349.416 105.029C349.416 104.944 349.405 104.858 349.384 104.773C349.362 104.667 349.373 104.571 349.416 104.486C349.416 104.443 349.426 104.39 349.448 104.326L349.511 104.134C349.554 103.985 349.575 103.836 349.575 103.687C349.597 103.517 349.618 103.346 349.639 103.176C349.682 102.686 349.693 102.185 349.671 101.674C349.671 101.163 349.693 100.652 349.735 100.141C349.671 100.056 349.607 99.9918 349.543 99.9492C349.48 99.8853 349.437 99.8001 349.416 99.6936C349.586 99.3954 349.767 99.1186 349.959 98.863C350.172 98.5861 350.449 98.3731 350.789 98.224C350.853 98.4583 351.024 98.5755 351.3 98.5755C351.428 98.5755 351.588 98.5435 351.78 98.4796C351.971 98.4157 352.099 98.3305 352.163 98.224C352.525 98.3518 352.887 98.4157 353.249 98.4157C353.633 98.3944 353.984 98.4796 354.303 98.6713C354.367 98.9908 354.453 99.3209 354.559 99.6616C354.666 100.002 354.815 100.311 355.006 100.588C355.049 100.865 355.092 101.206 355.134 101.61C355.177 101.994 355.219 102.398 355.262 102.824C355.304 103.229 355.368 103.623 355.454 104.006C355.539 104.368 355.656 104.656 355.805 104.869C355.826 105.252 355.89 105.636 355.997 106.019C356.103 106.402 356.22 106.775 356.348 107.137C356.476 107.478 356.582 107.797 356.668 108.096C356.774 108.394 356.827 108.639 356.827 108.83C356.827 109.001 356.795 109.118 356.731 109.182C356.689 109.224 356.646 109.31 356.604 109.437C356.689 109.672 356.806 109.874 356.955 110.044C357.104 110.193 357.264 110.374 357.434 110.587C357.754 111.801 358.169 112.983 358.68 114.134C359.191 115.284 359.809 116.391 360.533 117.456C360.725 117.477 360.874 117.531 360.98 117.616C361.108 117.701 361.3 117.722 361.555 117.68V117.903C361.555 118.116 361.598 118.265 361.683 118.35C361.875 118.478 362.098 118.542 362.354 118.542C362.631 118.542 362.844 118.468 362.993 118.319C363.163 118.148 363.323 117.956 363.472 117.743C363.621 117.531 363.77 117.328 363.919 117.136C364.069 116.945 364.271 116.817 364.526 116.753V116.689C364.526 116.519 364.558 116.38 364.622 116.274C364.707 116.146 364.75 116.008 364.75 115.859C364.984 115.688 365.165 115.475 365.293 115.22C365.421 114.964 365.538 114.709 365.645 114.453C365.751 114.176 365.868 113.921 365.996 113.686C366.145 113.452 366.337 113.26 366.571 113.111C366.869 112.195 367.231 111.343 367.657 110.555C368.083 109.767 368.53 108.969 368.999 108.159C368.999 108.096 368.988 108.032 368.967 107.968C368.946 107.883 368.935 107.808 368.935 107.744C368.935 107.723 368.956 107.627 368.999 107.457C369.105 107.244 369.201 107.041 369.286 106.85C369.372 106.658 369.446 106.445 369.51 106.211C369.723 105.55 369.915 104.901 370.085 104.262C370.277 103.623 370.554 103.016 370.916 102.441V101.642C371.299 100.876 371.565 100.066 371.714 99.2144C371.885 98.3625 372.087 97.5319 372.321 96.7225C372.364 96.4883 372.439 96.254 372.545 96.0197C372.673 95.7641 372.822 95.5831 372.992 95.4766C372.928 95.3488 372.896 95.2211 372.896 95.0933C372.896 94.9229 372.918 94.7738 372.96 94.646C373.024 94.4969 373.078 94.3478 373.12 94.1988C373.056 94.0497 373.024 93.858 373.024 93.6237C373.024 93.3255 373.109 93.0487 373.28 92.7931C373.45 92.5162 373.706 92.3352 374.047 92.25C374.26 92.3139 374.441 92.4204 374.59 92.5695C374.739 92.7186 374.877 92.8783 375.005 93.0487C375.154 93.1978 375.303 93.3255 375.452 93.432C375.623 93.5172 375.836 93.5385 376.091 93.4959C376.262 93.8154 376.379 94.1562 376.443 94.5182C376.506 94.859 376.538 95.2104 376.538 95.5725C376.538 96.0623 376.496 96.5735 376.411 97.1059C376.325 97.6171 376.293 98.1389 376.315 98.6713C376.144 99.0121 376.017 99.3848 375.931 99.7894C375.868 100.173 375.804 100.567 375.74 100.971C375.676 101.376 375.601 101.77 375.516 102.153C375.431 102.537 375.282 102.899 375.069 103.24C375.005 104.198 374.93 105.135 374.845 106.051C374.781 106.967 374.675 107.883 374.526 108.798L374.238 110.619C374.196 110.768 374.153 110.939 374.11 111.131C374.068 111.301 374.047 111.45 374.047 111.578C374.047 111.706 374.057 111.844 374.079 111.993C374.1 112.121 374.164 112.217 374.27 112.281C374.121 112.494 374.015 112.749 373.951 113.047C373.887 113.345 373.823 113.665 373.759 114.006L373.599 114.996C373.557 115.316 373.472 115.603 373.344 115.859V116.21C373.344 117.062 373.195 117.935 372.896 118.83V118.989C372.896 119.096 372.886 119.192 372.865 119.277C372.865 119.341 372.865 119.426 372.865 119.533C372.865 119.682 372.907 119.799 372.992 119.884C372.822 120.438 372.662 121.013 372.513 121.609C372.364 122.184 372.258 122.78 372.194 123.398C372.13 124.229 372.119 125.081 372.162 125.954C372.204 126.806 372.098 127.636 371.842 128.446C371.97 128.829 372.055 129.244 372.098 129.692L372.226 131.033C372.268 131.481 372.332 131.907 372.417 132.311C372.524 132.737 372.715 133.089 372.992 133.365C373.014 133.408 373.024 133.472 373.024 133.557C373.024 133.727 372.982 133.855 372.896 133.94C372.939 134.153 373.014 134.334 373.12 134.484C373.227 134.633 373.333 134.771 373.44 134.899C373.546 135.048 373.631 135.208 373.695 135.378C373.78 135.548 373.823 135.761 373.823 136.017C373.993 136.251 374.26 136.432 374.622 136.56C374.984 136.688 375.346 136.816 375.708 136.943C376.091 137.071 376.421 137.231 376.698 137.423C376.975 137.636 377.113 137.934 377.113 138.317ZM413.597 95.1252C413.597 95.3169 413.586 95.5086 413.565 95.7003C413.565 95.8919 413.554 96.073 413.533 96.2433C413.469 96.3498 413.341 96.3924 413.149 96.3711C412.979 96.3498 412.841 96.3392 412.734 96.3392C412.628 96.3392 412.532 96.3605 412.447 96.4031C412.383 96.4244 412.351 96.4883 412.351 96.5948C412.351 96.7225 412.361 96.8077 412.383 96.8503C412.212 96.829 412.031 96.8077 411.84 96.7864C411.648 96.7651 411.477 96.7013 411.328 96.5948C411.03 96.6587 410.743 96.7438 410.466 96.8503C410.21 96.9568 409.955 97.074 409.699 97.2017C409.444 97.3295 409.177 97.4467 408.9 97.5532C408.624 97.6597 408.336 97.7235 408.038 97.7448C407.846 97.9578 407.601 98.1176 407.303 98.224C407.005 98.3305 406.696 98.4264 406.377 98.5116C406.057 98.5968 405.759 98.7032 405.482 98.831C405.205 98.9375 404.982 99.1079 404.811 99.3422C404.343 99.3848 403.895 99.5019 403.469 99.6936C403.044 99.8853 402.618 100.088 402.192 100.301C401.787 100.514 401.372 100.716 400.946 100.908C400.52 101.099 400.062 101.227 399.572 101.291C399.444 101.419 399.284 101.525 399.093 101.61C398.922 101.696 398.741 101.781 398.55 101.866C398.358 101.93 398.177 102.004 398.007 102.09C397.836 102.175 397.698 102.292 397.591 102.441H397.527C397.442 102.441 397.378 102.42 397.336 102.377C397.293 102.335 397.229 102.313 397.144 102.313C397.08 102.313 397.038 102.324 397.016 102.345C396.505 102.579 395.994 102.824 395.483 103.08C394.972 103.336 394.439 103.58 393.885 103.815C392.799 104.262 391.702 104.699 390.595 105.125C389.487 105.55 388.423 106.072 387.4 106.69C387.166 107.542 386.974 108.415 386.825 109.31C386.676 110.183 386.41 111.024 386.027 111.833V113.335C385.814 113.739 385.675 114.187 385.611 114.677C385.547 115.166 385.515 115.635 385.515 116.082C385.515 116.253 385.515 116.412 385.515 116.561C385.537 116.689 385.547 116.828 385.547 116.977C386.165 116.806 386.761 116.615 387.336 116.402C387.933 116.189 388.529 115.997 389.125 115.827C389.424 115.72 389.722 115.646 390.02 115.603C390.339 115.56 390.648 115.486 390.946 115.379C391.181 115.316 391.426 115.23 391.681 115.124C391.937 114.996 392.182 114.879 392.416 114.772C393.055 114.496 393.704 114.251 394.365 114.038C395.046 113.825 395.738 113.665 396.441 113.558C396.654 113.388 396.888 113.228 397.144 113.079C397.4 112.93 397.655 112.856 397.911 112.856C398.102 112.856 398.262 112.888 398.39 112.951C398.752 112.739 399.178 112.547 399.668 112.376C400.158 112.206 400.616 112.142 401.042 112.185C401.148 112.036 401.276 111.94 401.425 111.897C401.574 111.833 401.734 111.801 401.904 111.801C401.989 111.801 402.064 111.812 402.128 111.833C402.213 111.833 402.309 111.833 402.415 111.833C402.628 111.684 402.862 111.578 403.118 111.514C403.374 111.45 403.629 111.397 403.885 111.354C404.14 111.312 404.385 111.258 404.62 111.194C404.875 111.109 405.099 110.981 405.29 110.811C405.589 110.832 405.823 110.918 405.993 111.067C406.185 111.216 406.345 111.397 406.472 111.61C406.6 111.823 406.707 112.046 406.792 112.281C406.877 112.515 406.984 112.739 407.111 112.951C407.069 113.122 407.005 113.26 406.92 113.367C406.835 113.452 406.739 113.537 406.632 113.622C406.526 113.708 406.43 113.793 406.345 113.878C406.259 113.963 406.206 114.08 406.185 114.229C405.44 114.229 404.715 114.336 404.013 114.549C403.331 114.762 402.65 115.007 401.968 115.284C401.308 115.56 400.626 115.827 399.923 116.082C399.242 116.317 398.539 116.466 397.815 116.53C397.708 116.636 397.57 116.721 397.4 116.785L396.92 116.945C396.771 116.987 396.633 117.051 396.505 117.136C396.377 117.2 396.281 117.307 396.218 117.456C396.09 117.392 395.951 117.36 395.802 117.36C395.44 117.36 395.089 117.456 394.748 117.648C394.407 117.839 394.024 117.935 393.598 117.935C393.428 117.935 393.31 117.925 393.247 117.903C393.14 118.095 392.98 118.233 392.767 118.319C392.576 118.404 392.363 118.478 392.128 118.542C391.915 118.585 391.702 118.649 391.489 118.734C391.298 118.819 391.149 118.968 391.042 119.181C390.978 119.16 390.904 119.149 390.819 119.149H390.627C390.286 119.149 389.892 119.213 389.445 119.341C389.019 119.447 388.71 119.66 388.518 119.98C388.348 119.937 388.199 119.916 388.071 119.916C387.773 119.916 387.507 119.98 387.272 120.108C387.038 120.214 386.804 120.342 386.57 120.491L385.867 120.938C385.633 121.087 385.377 121.194 385.1 121.258C384.546 122.046 384.163 122.951 383.95 123.973C383.737 124.995 383.577 126.06 383.471 127.168C383.386 128.275 383.3 129.372 383.215 130.458C383.13 131.566 382.96 132.577 382.704 133.493C382.832 133.834 382.928 134.196 382.992 134.579C383.056 134.963 383.109 135.346 383.151 135.729C383.194 136.134 383.237 136.539 383.279 136.943C383.322 137.348 383.396 137.731 383.503 138.094C383.609 138.541 383.812 138.935 384.11 139.276C384.429 139.638 384.653 140.042 384.781 140.49C384.887 140.511 384.994 140.521 385.1 140.521C385.228 140.543 385.356 140.553 385.483 140.553C386.25 140.553 386.921 140.404 387.496 140.106C388.092 139.808 388.646 139.435 389.157 138.988C389.668 138.562 390.158 138.094 390.627 137.582C391.117 137.093 391.639 136.656 392.192 136.273H392.799C392.948 136.102 393.076 135.921 393.183 135.729C393.289 135.538 393.406 135.357 393.534 135.186C393.662 135.016 393.811 134.867 393.981 134.739C394.152 134.633 394.365 134.558 394.62 134.516C394.684 134.196 394.833 133.951 395.067 133.781C395.302 133.61 395.462 133.355 395.547 133.014C395.589 133.035 395.643 133.046 395.706 133.046C395.877 133.046 396.005 133.003 396.09 132.918L396.569 132.471C396.739 132.301 396.92 132.13 397.112 131.96C397.325 131.811 397.527 131.662 397.719 131.513C398.337 131.065 398.954 130.618 399.572 130.171C400.19 129.745 400.754 129.244 401.265 128.669C401.286 128.691 401.318 128.701 401.361 128.701C401.531 128.701 401.649 128.648 401.712 128.541C401.776 128.435 401.925 128.403 402.16 128.446C402.287 128.254 402.405 128.062 402.511 127.871C402.618 127.658 402.703 127.434 402.767 127.2L403.789 127.327C404.13 127.37 404.47 127.391 404.811 127.391C404.918 127.391 405.014 127.391 405.099 127.391C405.205 127.37 405.301 127.338 405.386 127.296C405.642 127.7 405.78 128.137 405.802 128.605C405.823 129.053 405.876 129.5 405.961 129.947C405.919 129.947 405.887 129.947 405.865 129.947C405.865 129.926 405.844 129.915 405.802 129.915C405.695 129.915 405.589 129.958 405.482 130.043C405.397 130.107 405.301 130.192 405.195 130.299L404.875 130.618C404.769 130.724 404.673 130.81 404.588 130.874C404.353 131.023 404.108 131.15 403.853 131.257C403.597 131.385 403.352 131.513 403.118 131.64C402.884 131.768 402.66 131.917 402.447 132.088C402.234 132.279 402.064 132.514 401.936 132.79C401.51 132.961 401.095 133.142 400.69 133.333C400.307 133.525 399.934 133.727 399.572 133.94C399.465 134.047 399.37 134.153 399.284 134.26C399.199 134.366 399.135 134.484 399.093 134.611C398.518 134.803 398.039 135.091 397.655 135.474C397.293 135.857 396.92 136.273 396.537 136.72L396.505 136.688C396.356 136.688 396.26 136.741 396.218 136.848C396.196 136.954 396.079 136.986 395.866 136.943C395.462 137.391 395.036 137.806 394.588 138.189C394.141 138.573 393.683 138.956 393.215 139.339C392.746 139.723 392.277 140.106 391.809 140.49C391.34 140.894 390.904 141.32 390.499 141.767C390.222 141.853 389.956 141.959 389.7 142.087C389.445 142.215 389.253 142.406 389.125 142.662H389.03C388.795 142.662 388.625 142.715 388.518 142.822C388.433 142.928 388.327 143.067 388.199 143.237C387.752 143.343 387.294 143.461 386.825 143.588C386.357 143.716 385.877 143.78 385.388 143.78C385.047 143.78 384.717 143.716 384.397 143.588C384.099 143.461 383.801 143.29 383.503 143.077C383.226 142.886 382.96 142.673 382.704 142.438C382.47 142.204 382.246 141.98 382.033 141.767C381.905 141.341 381.735 140.894 381.522 140.426C381.33 139.978 381.235 139.542 381.235 139.116C381.235 139.009 381.245 138.903 381.267 138.796C381.309 138.711 381.33 138.626 381.33 138.541C381.33 138.392 381.277 138.328 381.171 138.349C381.085 138.37 381.022 138.317 380.979 138.189C380.936 137.976 380.904 137.731 380.883 137.455C380.883 137.199 380.862 136.954 380.819 136.72C380.755 136.23 380.67 135.729 380.564 135.218C380.478 134.707 380.383 134.207 380.276 133.717C380.361 133.674 380.425 133.6 380.468 133.493C380.532 133.408 380.596 133.323 380.66 133.238C380.596 133.067 380.532 132.876 380.468 132.663C380.425 132.471 380.404 132.269 380.404 132.056C380.404 131.63 380.564 131.31 380.883 131.097C380.883 130.948 380.841 130.831 380.755 130.746C380.691 130.682 380.66 130.565 380.66 130.394C380.66 130.352 380.67 130.235 380.691 130.043C380.734 129.83 380.777 129.596 380.819 129.34C380.883 129.085 380.936 128.84 380.979 128.605C381.022 128.371 381.054 128.211 381.075 128.126C381.224 127.146 381.352 126.188 381.458 125.251C381.565 124.293 381.714 123.334 381.905 122.376C381.692 122.205 381.416 122.078 381.075 121.992C380.755 121.886 380.532 121.747 380.404 121.577C380.297 121.428 380.212 121.236 380.148 121.002C380.084 120.768 380.053 120.565 380.053 120.395C380.053 119.777 380.297 119.288 380.787 118.926C381.277 118.542 381.799 118.319 382.353 118.255C382.63 117.509 382.832 116.753 382.96 115.986C383.109 115.198 383.226 114.41 383.311 113.622L383.567 111.226C383.652 110.417 383.78 109.618 383.95 108.83H383.758C383.332 108.83 382.917 108.894 382.512 109.022C382.108 109.15 381.692 109.214 381.267 109.214H381.203C380.585 108.724 380.276 108.138 380.276 107.457C380.276 107.052 380.361 106.647 380.532 106.243C380.873 106.115 381.181 105.944 381.458 105.732C381.735 105.519 382.012 105.306 382.289 105.093C382.587 104.858 382.885 104.656 383.183 104.486C383.481 104.315 383.812 104.209 384.174 104.166C384.216 103.548 384.323 102.931 384.493 102.313C384.664 101.696 384.749 101.078 384.749 100.46C384.749 100.333 384.738 100.205 384.717 100.077C384.717 99.9492 384.695 99.8214 384.653 99.6936C384.802 99.5019 384.898 99.2996 384.94 99.0866C385.004 98.8736 385.036 98.65 385.036 98.4157C385.036 98.1602 385.015 97.9152 384.972 97.681C384.951 97.4254 384.919 97.1805 384.876 96.9462C385.068 96.861 385.217 96.7758 385.324 96.6906C385.43 96.5841 385.526 96.4883 385.611 96.4031C385.718 96.3179 385.846 96.2433 385.995 96.1795C386.144 96.1156 386.357 96.0836 386.634 96.0836C387.038 96.0836 387.379 96.1688 387.656 96.3392C387.954 96.4883 388.21 96.6906 388.423 96.9462C388.636 97.2017 388.817 97.4893 388.966 97.8087C389.136 98.1282 389.296 98.4477 389.445 98.7671C389.402 99.0014 389.306 99.1718 389.157 99.2783C389.008 99.3848 388.88 99.5232 388.774 99.6936C388.817 100.034 388.859 100.364 388.902 100.684C388.944 100.982 388.944 101.302 388.902 101.642C389.115 101.749 389.317 101.802 389.509 101.802C389.828 101.802 390.116 101.717 390.371 101.547C390.648 101.376 390.84 101.142 390.946 100.844H391.01C391.074 100.844 391.127 100.865 391.17 100.908C391.234 100.95 391.308 100.971 391.394 100.971H391.521C391.756 100.758 392.011 100.599 392.288 100.492C392.565 100.364 392.853 100.247 393.151 100.141C393.449 100.034 393.736 99.9279 394.013 99.8214C394.311 99.6936 394.588 99.5339 394.844 99.3422C394.972 99.4061 395.11 99.438 395.259 99.438C395.472 99.438 395.674 99.3954 395.866 99.3102C396.079 99.225 396.281 99.1399 396.473 99.0547C396.665 98.9482 396.867 98.8523 397.08 98.7671C397.314 98.6819 397.559 98.6394 397.815 98.6394C397.858 98.6394 397.911 98.65 397.975 98.6713C398.039 98.6713 398.092 98.6713 398.134 98.6713C398.283 98.6713 398.369 98.6181 398.39 98.5116C398.411 98.4051 398.411 98.3092 398.39 98.224C399.071 98.0537 399.657 97.862 400.147 97.649C400.658 97.4147 401.223 97.1485 401.84 96.8503C401.84 96.829 401.861 96.8184 401.904 96.8184C401.968 96.8184 402.011 96.8503 402.032 96.9142C402.053 96.9781 402.064 97.0314 402.064 97.074C402.192 97.0101 402.256 96.9036 402.256 96.7545C402.277 96.6054 402.33 96.4776 402.415 96.3711C402.5 96.3924 402.618 96.4031 402.767 96.4031C402.958 96.4031 403.15 96.3605 403.342 96.2753C403.555 96.1901 403.757 96.0943 403.949 95.9878C404.14 95.8813 404.332 95.7854 404.524 95.7003C404.715 95.6151 404.907 95.5725 405.099 95.5725C405.269 95.5725 405.408 95.6151 405.514 95.7003C405.642 95.6364 405.77 95.5512 405.897 95.4447C406.025 95.3169 406.164 95.253 406.313 95.253C406.355 95.253 406.387 95.2636 406.409 95.2849C406.451 95.3062 406.494 95.3275 406.536 95.3488C406.643 95.2424 406.739 95.1572 406.824 95.0933C406.93 95.0294 406.984 94.9229 406.984 94.7738C407.772 94.6886 408.496 94.5182 409.156 94.2627C409.838 93.9858 410.487 93.6237 411.105 93.1765C411.339 93.2191 411.563 93.2723 411.776 93.3362C412.01 93.3788 412.244 93.4001 412.478 93.4001C412.606 93.6344 412.723 93.8686 412.83 94.1029C412.936 94.3372 413.171 94.4437 413.533 94.4224C413.554 94.5289 413.565 94.646 413.565 94.7738C413.586 94.9016 413.597 95.0187 413.597 95.1252ZM452.955 107.744C452.955 108.958 452.795 110.076 452.476 111.099C452.156 112.121 451.741 113.101 451.23 114.038C450.74 114.975 450.208 115.901 449.632 116.817C449.057 117.733 448.514 118.702 448.003 119.724C447.875 119.724 447.78 119.756 447.716 119.82C447.673 119.884 447.63 119.969 447.588 120.076C447.567 120.161 447.524 120.246 447.46 120.331C447.418 120.395 447.332 120.427 447.205 120.427C447.013 120.896 446.768 121.343 446.47 121.769C446.172 122.173 445.852 122.578 445.511 122.983C445.192 123.366 444.872 123.76 444.553 124.165C444.255 124.569 443.989 125.006 443.754 125.475H443.435C442.285 127.136 440.986 128.627 439.537 129.947C438.11 131.268 436.545 132.45 434.841 133.493C434.799 133.621 434.735 133.727 434.649 133.813C434.564 133.898 434.543 134.015 434.586 134.164C434.351 134.292 434.149 134.452 433.979 134.643C433.83 134.856 433.68 135.069 433.531 135.282C433.382 135.495 433.223 135.698 433.052 135.889C432.903 136.102 432.701 136.262 432.445 136.368C432.126 136.305 431.817 136.251 431.519 136.209C431.242 136.166 430.954 136.134 430.656 136.113C430.528 136.113 430.401 136.113 430.273 136.113C430.145 136.134 430.028 136.134 429.921 136.113C429.687 136.07 429.485 135.974 429.314 135.825C429.165 135.698 428.942 135.634 428.643 135.634C428.494 135.634 428.377 135.644 428.292 135.666C428.122 135.367 427.919 135.059 427.685 134.739C427.472 134.441 427.366 134.111 427.366 133.749C427.366 133.472 427.398 133.216 427.461 132.982C427.547 132.748 427.589 132.503 427.589 132.247C427.589 131.736 427.493 131.236 427.302 130.746C427.131 130.256 427.046 129.755 427.046 129.244C427.046 129.074 427.067 128.914 427.11 128.765C427.153 128.595 427.174 128.424 427.174 128.254C427.174 128.062 427.089 127.892 426.918 127.743C426.94 127.636 426.982 127.53 427.046 127.423C427.11 127.317 427.142 127.2 427.142 127.072C427.185 126.902 427.195 126.721 427.174 126.529C427.153 126.316 427.142 126.124 427.142 125.954C427.142 125.507 427.163 125.059 427.206 124.612C427.248 124.165 427.344 123.728 427.493 123.302C427.472 123.174 427.44 123.057 427.398 122.951L427.27 122.631C427.419 122.184 427.515 121.684 427.557 121.13C427.6 120.576 427.621 120.022 427.621 119.469V117.775C427.621 117.222 427.653 116.7 427.717 116.21C427.76 115.997 427.802 115.795 427.845 115.603C427.909 115.39 427.941 115.188 427.941 114.996C427.941 114.826 427.909 114.677 427.845 114.549C427.781 114.4 427.696 114.261 427.589 114.134C427.738 114.091 427.824 114.006 427.845 113.878C427.866 113.729 427.877 113.601 427.877 113.495C427.877 113.196 427.824 112.866 427.717 112.504C427.802 112.142 427.855 111.78 427.877 111.418C427.898 111.035 427.909 110.662 427.909 110.3C427.909 109.022 427.824 107.765 427.653 106.53C427.504 105.295 427.408 104.049 427.366 102.792H427.27C427.121 102.792 427.004 102.824 426.918 102.888C426.833 102.952 426.748 103.027 426.663 103.112C426.578 103.176 426.482 103.24 426.375 103.304C426.269 103.346 426.141 103.357 425.992 103.336C425.736 103.634 425.438 103.889 425.097 104.102C424.778 104.315 424.437 104.507 424.075 104.677C423.713 104.848 423.34 105.007 422.957 105.156C422.574 105.284 422.212 105.412 421.871 105.54C421.573 105.433 421.317 105.263 421.104 105.029C420.891 104.773 420.689 104.518 420.497 104.262C420.476 104.177 420.465 104.092 420.465 104.006V103.751C420.465 103.154 420.604 102.707 420.88 102.409C421.157 102.09 421.455 101.717 421.775 101.291H421.935C422.041 101.291 422.137 101.312 422.222 101.355C422.286 101.397 422.371 101.419 422.478 101.419H422.574C423.191 100.908 423.841 100.503 424.522 100.205C425.225 99.8853 425.949 99.6403 426.695 99.47C427.014 99.1505 427.334 98.9056 427.653 98.7352C427.994 98.5648 428.388 98.4796 428.835 98.4796C428.942 98.4796 429.059 98.4903 429.187 98.5116C429.336 98.5116 429.463 98.5222 429.57 98.5435C430.443 98.1389 431.263 97.7981 432.03 97.5212C432.818 97.223 433.723 97.074 434.745 97.074C434.873 97.074 434.958 97.042 435.001 96.9781C435.065 96.9142 435.118 96.8503 435.161 96.7864C435.203 96.7013 435.246 96.6267 435.288 96.5628C435.331 96.4989 435.406 96.467 435.512 96.467C435.512 96.5096 435.523 96.5735 435.544 96.6587C435.565 96.7438 435.619 96.7864 435.704 96.7864C435.789 96.7864 435.863 96.7651 435.927 96.7225C436.013 96.6587 436.108 96.6267 436.215 96.6267C436.321 96.6267 436.396 96.7013 436.438 96.8503C436.673 96.7013 436.896 96.5628 437.109 96.435C437.322 96.3072 437.557 96.2114 437.812 96.1475C438.132 96.2114 438.451 96.2646 438.771 96.3072C439.111 96.3498 439.452 96.3711 439.793 96.3711C440.048 96.3711 440.304 96.3605 440.56 96.3392C440.815 96.2966 441.039 96.1901 441.23 96.0197C441.316 95.9984 441.358 96.041 441.358 96.1475C441.55 96.3179 441.752 96.435 441.965 96.4989C442.178 96.5415 442.402 96.5735 442.636 96.5948C442.87 96.5948 443.105 96.6054 443.339 96.6267C443.573 96.648 443.786 96.7225 443.978 96.8503C444.148 96.8929 444.287 96.9675 444.393 97.074C444.5 97.1592 444.638 97.2337 444.809 97.2976C444.936 97.3402 445.107 97.3721 445.32 97.3934C445.554 97.4147 445.724 97.4573 445.831 97.5212C445.937 97.5638 445.991 97.6384 445.991 97.7448C446.012 97.83 446.076 97.9046 446.182 97.9685C446.374 98.1176 446.629 98.2134 446.949 98.256C447.268 98.2773 447.545 98.3731 447.78 98.5435C447.865 99.0121 448.099 99.3209 448.482 99.47C448.866 99.6191 449.238 99.7681 449.601 99.9172C449.728 100.045 449.771 100.194 449.728 100.364C449.984 100.556 450.208 100.769 450.399 101.003C450.612 101.238 450.804 101.493 450.974 101.77C451.166 102.026 451.347 102.281 451.517 102.537C451.688 102.792 451.89 103.027 452.124 103.24C452.103 103.431 452.124 103.58 452.188 103.687C452.273 103.793 452.295 103.953 452.252 104.166C452.508 104.4 452.742 104.709 452.955 105.093C452.827 105.284 452.763 105.497 452.763 105.732C452.763 105.944 452.795 106.157 452.859 106.37C452.923 106.583 452.955 106.796 452.955 107.009V107.744ZM449.984 107.041C449.984 106.424 449.867 105.827 449.632 105.252C449.398 104.656 449.196 104.07 449.025 103.495C448.749 103.495 448.568 103.399 448.482 103.208C448.419 102.995 448.291 102.814 448.099 102.665C447.694 102.579 447.439 102.271 447.332 101.738C446.906 101.568 446.47 101.376 446.023 101.163C445.575 100.95 445.203 100.652 444.904 100.269C444.138 100.034 443.36 99.8001 442.572 99.5658C441.806 99.3102 441.018 99.1824 440.208 99.1824C440.059 99.1824 439.921 99.1931 439.793 99.2144C439.686 99.2144 439.58 99.2144 439.473 99.2144C439.303 99.2144 439.122 99.2463 438.93 99.3102C438.739 99.3741 438.558 99.4061 438.387 99.4061C438.196 99.4061 438.004 99.3422 437.812 99.2144C437.386 99.4487 436.918 99.6297 436.407 99.7575C435.917 99.8853 435.416 100.002 434.905 100.109C434.394 100.194 433.893 100.311 433.404 100.46C432.914 100.588 432.477 100.79 432.094 101.067C431.966 101.025 431.838 100.993 431.71 100.971C431.604 100.95 431.497 100.94 431.391 100.94C431.199 100.94 431.05 100.982 430.944 101.067C430.88 101.11 430.837 101.163 430.816 101.227C430.816 101.291 430.805 101.365 430.784 101.451C430.784 101.515 430.763 101.568 430.72 101.61C430.677 101.653 430.592 101.664 430.464 101.642C430.464 101.749 430.454 101.845 430.433 101.93C430.433 102.015 430.433 102.111 430.433 102.217C430.433 102.771 430.486 103.325 430.592 103.879C430.72 104.411 430.784 104.954 430.784 105.508C430.784 105.7 430.773 105.902 430.752 106.115C430.731 106.307 430.688 106.498 430.624 106.69C430.731 106.945 430.784 107.222 430.784 107.521C430.805 107.819 430.816 108.117 430.816 108.415C430.816 108.713 430.827 109.011 430.848 109.31C430.869 109.586 430.944 109.853 431.071 110.108C431.008 110.428 430.965 110.747 430.944 111.067C430.922 111.386 430.912 111.706 430.912 112.025C430.912 112.77 430.944 113.505 431.008 114.229C431.093 114.953 431.135 115.688 431.135 116.434C431.135 116.625 431.125 116.828 431.103 117.041C431.103 117.254 431.093 117.467 431.071 117.68C431.029 117.956 430.954 118.223 430.848 118.478C430.741 118.734 430.688 119.011 430.688 119.309C430.688 119.501 430.699 119.703 430.72 119.916C430.741 120.108 430.752 120.31 430.752 120.523C430.752 120.608 430.741 120.693 430.72 120.778C430.72 120.842 430.72 120.917 430.72 121.002C430.614 121.747 430.528 122.504 430.464 123.27C430.401 124.037 430.369 124.793 430.369 125.538C430.369 126.241 430.39 126.944 430.433 127.647C430.475 128.328 430.539 129.021 430.624 129.724C430.539 129.873 430.496 130.043 430.496 130.235C430.496 130.533 430.571 130.831 430.72 131.129C430.869 131.449 431.093 131.662 431.391 131.768C432.072 131.513 432.701 131.172 433.276 130.746C433.872 130.341 434.468 129.926 435.065 129.5C435.214 129.393 435.437 129.255 435.736 129.085C436.034 128.893 436.236 128.754 436.343 128.669C436.449 128.584 436.534 128.499 436.598 128.414C436.683 128.307 436.779 128.201 436.886 128.094L438.291 126.593C439.101 125.762 439.899 124.921 440.687 124.069C441.497 123.217 442.242 122.312 442.924 121.353C443.115 121.055 443.307 120.768 443.499 120.491C443.69 120.193 443.871 119.884 444.042 119.564C444.127 119.458 444.191 119.341 444.233 119.213C444.276 119.064 444.351 118.936 444.457 118.83C444.521 118.744 444.596 118.659 444.681 118.574C444.787 118.489 444.872 118.404 444.936 118.319C445.107 118.127 445.266 117.935 445.416 117.743C445.586 117.531 445.756 117.307 445.927 117.073C446.395 116.391 446.832 115.71 447.236 115.028C447.641 114.325 448.088 113.633 448.578 112.951C448.621 112.526 448.706 112.132 448.834 111.769C448.962 111.386 449.089 111.024 449.217 110.683C449.345 110.321 449.451 109.948 449.537 109.565C449.622 109.182 449.643 108.756 449.601 108.287C449.707 108.138 449.792 108.032 449.856 107.968C449.941 107.904 449.984 107.776 449.984 107.584V107.041ZM487.969 95.1252C487.969 95.3169 487.958 95.5086 487.937 95.7003C487.937 95.8919 487.926 96.073 487.905 96.2433C487.841 96.3498 487.713 96.3924 487.521 96.3711C487.351 96.3498 487.212 96.3392 487.106 96.3392C486.999 96.3392 486.904 96.3605 486.818 96.4031C486.755 96.4244 486.723 96.4883 486.723 96.5948C486.723 96.7225 486.733 96.8077 486.755 96.8503C486.584 96.829 486.403 96.8077 486.211 96.7864C486.02 96.7651 485.849 96.7013 485.7 96.5948C485.402 96.6587 485.115 96.7438 484.838 96.8503C484.582 96.9568 484.327 97.074 484.071 97.2017C483.815 97.3295 483.549 97.4467 483.272 97.5532C482.995 97.6597 482.708 97.7235 482.41 97.7448C482.218 97.9578 481.973 98.1176 481.675 98.224C481.377 98.3305 481.068 98.4264 480.749 98.5116C480.429 98.5968 480.131 98.7032 479.854 98.831C479.577 98.9375 479.354 99.1079 479.183 99.3422C478.715 99.3848 478.267 99.5019 477.841 99.6936C477.415 99.8853 476.99 100.088 476.564 100.301C476.159 100.514 475.744 100.716 475.318 100.908C474.892 101.099 474.434 101.227 473.944 101.291C473.816 101.419 473.656 101.525 473.465 101.61C473.294 101.696 473.113 101.781 472.922 101.866C472.73 101.93 472.549 102.004 472.379 102.09C472.208 102.175 472.07 102.292 471.963 102.441H471.899C471.814 102.441 471.75 102.42 471.708 102.377C471.665 102.335 471.601 102.313 471.516 102.313C471.452 102.313 471.409 102.324 471.388 102.345C470.877 102.579 470.366 102.824 469.855 103.08C469.344 103.336 468.811 103.58 468.257 103.815C467.171 104.262 466.074 104.699 464.967 105.125C463.859 105.55 462.795 106.072 461.772 106.69C461.538 107.542 461.346 108.415 461.197 109.31C461.048 110.183 460.782 111.024 460.399 111.833V113.335C460.186 113.739 460.047 114.187 459.983 114.677C459.919 115.166 459.887 115.635 459.887 116.082C459.887 116.253 459.887 116.412 459.887 116.561C459.909 116.689 459.919 116.828 459.919 116.977C460.537 116.806 461.133 116.615 461.708 116.402C462.305 116.189 462.901 115.997 463.497 115.827C463.796 115.72 464.094 115.646 464.392 115.603C464.711 115.56 465.02 115.486 465.318 115.379C465.553 115.316 465.798 115.23 466.053 115.124C466.309 114.996 466.554 114.879 466.788 114.772C467.427 114.496 468.076 114.251 468.737 114.038C469.418 113.825 470.11 113.665 470.813 113.558C471.026 113.388 471.26 113.228 471.516 113.079C471.772 112.93 472.027 112.856 472.283 112.856C472.474 112.856 472.634 112.888 472.762 112.951C473.124 112.739 473.55 112.547 474.04 112.376C474.53 112.206 474.988 112.142 475.413 112.185C475.52 112.036 475.648 111.94 475.797 111.897C475.946 111.833 476.106 111.801 476.276 111.801C476.361 111.801 476.436 111.812 476.5 111.833C476.585 111.833 476.681 111.833 476.787 111.833C477 111.684 477.234 111.578 477.49 111.514C477.746 111.45 478.001 111.397 478.257 111.354C478.512 111.312 478.757 111.258 478.991 111.194C479.247 111.109 479.471 110.981 479.662 110.811C479.961 110.832 480.195 110.918 480.365 111.067C480.557 111.216 480.717 111.397 480.844 111.61C480.972 111.823 481.079 112.046 481.164 112.281C481.249 112.515 481.356 112.739 481.483 112.951C481.441 113.122 481.377 113.26 481.292 113.367C481.206 113.452 481.111 113.537 481.004 113.622C480.898 113.708 480.802 113.793 480.717 113.878C480.631 113.963 480.578 114.08 480.557 114.229C479.811 114.229 479.087 114.336 478.385 114.549C477.703 114.762 477.021 115.007 476.34 115.284C475.68 115.56 474.998 115.827 474.295 116.082C473.614 116.317 472.911 116.466 472.187 116.53C472.08 116.636 471.942 116.721 471.772 116.785L471.292 116.945C471.143 116.987 471.005 117.051 470.877 117.136C470.749 117.2 470.653 117.307 470.59 117.456C470.462 117.392 470.323 117.36 470.174 117.36C469.812 117.36 469.461 117.456 469.12 117.648C468.779 117.839 468.396 117.935 467.97 117.935C467.8 117.935 467.682 117.925 467.618 117.903C467.512 118.095 467.352 118.233 467.139 118.319C466.948 118.404 466.735 118.478 466.5 118.542C466.287 118.585 466.074 118.649 465.861 118.734C465.67 118.819 465.521 118.968 465.414 119.181C465.35 119.16 465.276 119.149 465.191 119.149H464.999C464.658 119.149 464.264 119.213 463.817 119.341C463.391 119.447 463.082 119.66 462.89 119.98C462.72 119.937 462.571 119.916 462.443 119.916C462.145 119.916 461.879 119.98 461.644 120.108C461.41 120.214 461.176 120.342 460.942 120.491L460.239 120.938C460.005 121.087 459.749 121.194 459.472 121.258C458.918 122.046 458.535 122.951 458.322 123.973C458.109 124.995 457.949 126.06 457.843 127.168C457.758 128.275 457.672 129.372 457.587 130.458C457.502 131.566 457.332 132.577 457.076 133.493C457.204 133.834 457.3 134.196 457.364 134.579C457.427 134.963 457.481 135.346 457.523 135.729C457.566 136.134 457.609 136.539 457.651 136.943C457.694 137.348 457.768 137.731 457.875 138.094C457.981 138.541 458.184 138.935 458.482 139.276C458.801 139.638 459.025 140.042 459.153 140.49C459.259 140.511 459.366 140.521 459.472 140.521C459.6 140.543 459.728 140.553 459.855 140.553C460.622 140.553 461.293 140.404 461.868 140.106C462.464 139.808 463.018 139.435 463.529 138.988C464.04 138.562 464.53 138.094 464.999 137.582C465.489 137.093 466.01 136.656 466.564 136.273H467.171C467.32 136.102 467.448 135.921 467.555 135.729C467.661 135.538 467.778 135.357 467.906 135.186C468.034 135.016 468.183 134.867 468.353 134.739C468.524 134.633 468.737 134.558 468.992 134.516C469.056 134.196 469.205 133.951 469.439 133.781C469.674 133.61 469.833 133.355 469.919 133.014C469.961 133.035 470.014 133.046 470.078 133.046C470.249 133.046 470.377 133.003 470.462 132.918L470.941 132.471C471.111 132.301 471.292 132.13 471.484 131.96C471.697 131.811 471.899 131.662 472.091 131.513C472.709 131.065 473.326 130.618 473.944 130.171C474.562 129.745 475.126 129.244 475.637 128.669C475.658 128.691 475.69 128.701 475.733 128.701C475.903 128.701 476.02 128.648 476.084 128.541C476.148 128.435 476.297 128.403 476.532 128.446C476.659 128.254 476.777 128.062 476.883 127.871C476.99 127.658 477.075 127.434 477.139 127.2L478.161 127.327C478.502 127.37 478.842 127.391 479.183 127.391C479.29 127.391 479.386 127.391 479.471 127.391C479.577 127.37 479.673 127.338 479.758 127.296C480.014 127.7 480.152 128.137 480.174 128.605C480.195 129.053 480.248 129.5 480.333 129.947C480.291 129.947 480.259 129.947 480.237 129.947C480.237 129.926 480.216 129.915 480.174 129.915C480.067 129.915 479.961 129.958 479.854 130.043C479.769 130.107 479.673 130.192 479.567 130.299L479.247 130.618C479.141 130.724 479.045 130.81 478.96 130.874C478.725 131.023 478.48 131.15 478.225 131.257C477.969 131.385 477.724 131.513 477.49 131.64C477.256 131.768 477.032 131.917 476.819 132.088C476.606 132.279 476.436 132.514 476.308 132.79C475.882 132.961 475.467 133.142 475.062 133.333C474.679 133.525 474.306 133.727 473.944 133.94C473.837 134.047 473.742 134.153 473.656 134.26C473.571 134.366 473.507 134.484 473.465 134.611C472.89 134.803 472.41 135.091 472.027 135.474C471.665 135.857 471.292 136.273 470.909 136.72L470.877 136.688C470.728 136.688 470.632 136.741 470.59 136.848C470.568 136.954 470.451 136.986 470.238 136.943C469.833 137.391 469.407 137.806 468.96 138.189C468.513 138.573 468.055 138.956 467.587 139.339C467.118 139.723 466.649 140.106 466.181 140.49C465.712 140.894 465.276 141.32 464.871 141.767C464.594 141.853 464.328 141.959 464.072 142.087C463.817 142.215 463.625 142.406 463.497 142.662H463.402C463.167 142.662 462.997 142.715 462.89 142.822C462.805 142.928 462.699 143.067 462.571 143.237C462.124 143.343 461.666 143.461 461.197 143.588C460.729 143.716 460.249 143.78 459.76 143.78C459.419 143.78 459.089 143.716 458.769 143.588C458.471 143.461 458.173 143.29 457.875 143.077C457.598 142.886 457.332 142.673 457.076 142.438C456.842 142.204 456.618 141.98 456.405 141.767C456.277 141.341 456.107 140.894 455.894 140.426C455.702 139.978 455.607 139.542 455.607 139.116C455.607 139.009 455.617 138.903 455.638 138.796C455.681 138.711 455.702 138.626 455.702 138.541C455.702 138.392 455.649 138.328 455.543 138.349C455.457 138.37 455.394 138.317 455.351 138.189C455.308 137.976 455.276 137.731 455.255 137.455C455.255 137.199 455.234 136.954 455.191 136.72C455.127 136.23 455.042 135.729 454.936 135.218C454.85 134.707 454.755 134.207 454.648 133.717C454.733 133.674 454.797 133.6 454.84 133.493C454.904 133.408 454.968 133.323 455.031 133.238C454.968 133.067 454.904 132.876 454.84 132.663C454.797 132.471 454.776 132.269 454.776 132.056C454.776 131.63 454.936 131.31 455.255 131.097C455.255 130.948 455.212 130.831 455.127 130.746C455.063 130.682 455.031 130.565 455.031 130.394C455.031 130.352 455.042 130.235 455.063 130.043C455.106 129.83 455.149 129.596 455.191 129.34C455.255 129.085 455.308 128.84 455.351 128.605C455.394 128.371 455.425 128.211 455.447 128.126C455.596 127.146 455.724 126.188 455.83 125.251C455.937 124.293 456.086 123.334 456.277 122.376C456.064 122.205 455.788 122.078 455.447 121.992C455.127 121.886 454.904 121.747 454.776 121.577C454.669 121.428 454.584 121.236 454.52 121.002C454.456 120.768 454.424 120.565 454.424 120.395C454.424 119.777 454.669 119.288 455.159 118.926C455.649 118.542 456.171 118.319 456.725 118.255C457.002 117.509 457.204 116.753 457.332 115.986C457.481 115.198 457.598 114.41 457.683 113.622L457.939 111.226C458.024 110.417 458.152 109.618 458.322 108.83H458.13C457.704 108.83 457.289 108.894 456.884 109.022C456.48 109.15 456.064 109.214 455.638 109.214H455.575C454.957 108.724 454.648 108.138 454.648 107.457C454.648 107.052 454.733 106.647 454.904 106.243C455.244 106.115 455.553 105.944 455.83 105.732C456.107 105.519 456.384 105.306 456.661 105.093C456.959 104.858 457.257 104.656 457.555 104.486C457.853 104.315 458.184 104.209 458.546 104.166C458.588 103.548 458.695 102.931 458.865 102.313C459.035 101.696 459.121 101.078 459.121 100.46C459.121 100.333 459.11 100.205 459.089 100.077C459.089 99.9492 459.067 99.8214 459.025 99.6936C459.174 99.5019 459.27 99.2996 459.312 99.0866C459.376 98.8736 459.408 98.65 459.408 98.4157C459.408 98.1602 459.387 97.9152 459.344 97.681C459.323 97.4254 459.291 97.1805 459.248 96.9462C459.44 96.861 459.589 96.7758 459.696 96.6906C459.802 96.5841 459.898 96.4883 459.983 96.4031C460.09 96.3179 460.217 96.2433 460.367 96.1795C460.516 96.1156 460.729 96.0836 461.006 96.0836C461.41 96.0836 461.751 96.1688 462.028 96.3392C462.326 96.4883 462.582 96.6906 462.795 96.9462C463.007 97.2017 463.189 97.4893 463.338 97.8087C463.508 98.1282 463.668 98.4477 463.817 98.7671C463.774 99.0014 463.678 99.1718 463.529 99.2783C463.38 99.3848 463.252 99.5232 463.146 99.6936C463.189 100.034 463.231 100.364 463.274 100.684C463.316 100.982 463.316 101.302 463.274 101.642C463.487 101.749 463.689 101.802 463.881 101.802C464.2 101.802 464.488 101.717 464.743 101.547C465.02 101.376 465.212 101.142 465.318 100.844H465.382C465.446 100.844 465.499 100.865 465.542 100.908C465.606 100.95 465.68 100.971 465.766 100.971H465.893C466.128 100.758 466.383 100.599 466.66 100.492C466.937 100.364 467.224 100.247 467.523 100.141C467.821 100.034 468.108 99.9279 468.385 99.8214C468.683 99.6936 468.96 99.5339 469.216 99.3422C469.344 99.4061 469.482 99.438 469.631 99.438C469.844 99.438 470.046 99.3954 470.238 99.3102C470.451 99.225 470.653 99.1399 470.845 99.0547C471.037 98.9482 471.239 98.8523 471.452 98.7671C471.686 98.6819 471.931 98.6394 472.187 98.6394C472.229 98.6394 472.283 98.65 472.347 98.6713C472.41 98.6713 472.464 98.6713 472.506 98.6713C472.655 98.6713 472.741 98.6181 472.762 98.5116C472.783 98.4051 472.783 98.3092 472.762 98.224C473.443 98.0537 474.029 97.862 474.519 97.649C475.03 97.4147 475.594 97.1485 476.212 96.8503C476.212 96.829 476.233 96.8184 476.276 96.8184C476.34 96.8184 476.383 96.8503 476.404 96.9142C476.425 96.9781 476.436 97.0314 476.436 97.074C476.564 97.0101 476.627 96.9036 476.627 96.7545C476.649 96.6054 476.702 96.4776 476.787 96.3711C476.872 96.3924 476.99 96.4031 477.139 96.4031C477.33 96.4031 477.522 96.3605 477.714 96.2753C477.927 96.1901 478.129 96.0943 478.321 95.9878C478.512 95.8813 478.704 95.7854 478.896 95.7003C479.087 95.6151 479.279 95.5725 479.471 95.5725C479.641 95.5725 479.78 95.6151 479.886 95.7003C480.014 95.6364 480.142 95.5512 480.269 95.4447C480.397 95.3169 480.536 95.253 480.685 95.253C480.727 95.253 480.759 95.2636 480.781 95.2849C480.823 95.3062 480.866 95.3275 480.908 95.3488C481.015 95.2424 481.111 95.1572 481.196 95.0933C481.302 95.0294 481.356 94.9229 481.356 94.7738C482.144 94.6886 482.868 94.5182 483.528 94.2627C484.209 93.9858 484.859 93.6237 485.477 93.1765C485.711 93.2191 485.935 93.2723 486.148 93.3362C486.382 93.3788 486.616 93.4001 486.85 93.4001C486.978 93.6344 487.095 93.8686 487.202 94.1029C487.308 94.3372 487.543 94.4437 487.905 94.4224C487.926 94.5289 487.937 94.646 487.937 94.7738C487.958 94.9016 487.969 95.0187 487.969 95.1252ZM509.181 97.9685C508.883 98.3944 508.564 98.7991 508.223 99.1824C507.903 99.5445 507.499 99.832 507.009 100.045C506.753 101.515 506.54 102.995 506.37 104.486C506.221 105.976 506.05 107.467 505.859 108.958C505.688 110.449 505.486 111.94 505.252 113.431C505.039 114.9 504.741 116.359 504.357 117.807L504.389 118.191C504.432 118.617 504.378 119.021 504.229 119.405C504.08 119.788 504.016 120.203 504.038 120.651C503.74 121.396 503.484 122.227 503.271 123.142C503.058 124.037 502.93 124.889 502.888 125.698C502.675 126.06 502.494 126.454 502.345 126.88C502.217 127.306 502.078 127.743 501.929 128.19C501.801 128.616 501.652 129.031 501.482 129.436C501.312 129.819 501.088 130.171 500.811 130.49C500.747 130.98 500.619 131.438 500.428 131.864C500.257 132.311 500.055 132.748 499.821 133.174C499.608 133.6 499.395 134.015 499.182 134.42C498.99 134.846 498.852 135.293 498.767 135.761C498.404 136.315 498.042 136.848 497.68 137.359C497.318 137.891 496.988 138.445 496.69 139.02C496.413 139.148 496.168 139.286 495.955 139.435C495.764 139.606 495.572 139.755 495.38 139.883C495.188 140.032 494.965 140.159 494.709 140.266C494.475 140.372 494.187 140.426 493.847 140.426C493.762 140.426 493.676 140.415 493.591 140.394C493.527 140.394 493.453 140.394 493.368 140.394C493.069 140.159 492.771 139.925 492.473 139.691C492.175 139.478 491.855 139.286 491.515 139.116C491.515 138.988 491.493 138.882 491.451 138.796C491.429 138.711 491.408 138.626 491.387 138.541C491.366 138.456 491.355 138.37 491.355 138.285C491.355 138.2 491.376 138.094 491.419 137.966C491.227 137.838 491.003 137.604 490.748 137.263C490.514 136.943 490.396 136.667 490.396 136.432C490.396 136.219 490.471 136.113 490.62 136.113C490.578 135.9 490.503 135.687 490.396 135.474C490.311 135.282 490.269 135.08 490.269 134.867C490.269 134.718 490.311 134.558 490.396 134.388C490.162 133.834 489.949 133.259 489.758 132.663C489.566 132.088 489.438 131.491 489.374 130.874C489.161 130.597 488.991 130.277 488.863 129.915C488.757 129.532 488.671 129.138 488.607 128.733C488.544 128.328 488.49 127.934 488.448 127.551C488.405 127.146 488.352 126.774 488.288 126.433C488.267 126.305 488.213 126.103 488.128 125.826C488.043 125.528 488 125.326 488 125.219C488 125.091 488.022 124.995 488.064 124.931C488.128 124.868 488.182 124.782 488.224 124.676C487.969 123.654 487.756 122.621 487.585 121.577C487.436 120.533 487.287 119.49 487.138 118.446C487.01 117.403 486.85 116.37 486.659 115.347C486.488 114.304 486.243 113.282 485.924 112.281V111.993C485.924 111.312 485.658 110.768 485.125 110.364C485.232 110.044 485.285 109.778 485.285 109.565C485.285 109.288 485.242 109.022 485.157 108.766C485.093 108.511 485.019 108.255 484.934 108C484.848 107.744 484.785 107.489 484.742 107.233C484.721 106.977 484.742 106.722 484.806 106.466C484.572 106.211 484.38 105.934 484.231 105.636C484.082 105.338 483.89 105.082 483.656 104.869L483.624 104.677C483.624 104.571 483.656 104.475 483.72 104.39C483.762 104.305 483.784 104.209 483.784 104.102C483.784 103.953 483.752 103.825 483.688 103.719C483.602 103.612 483.517 103.517 483.432 103.431C483.326 103.346 483.24 103.261 483.177 103.176C483.091 103.091 483.049 102.995 483.049 102.888C483.049 102.633 483.134 102.43 483.304 102.281C483.475 102.132 483.666 102.004 483.879 101.898C484.092 101.77 484.295 101.642 484.486 101.515C484.699 101.387 484.838 101.206 484.902 100.971C485.072 101.014 485.242 101.046 485.413 101.067C485.583 101.067 485.754 101.11 485.924 101.195C485.945 101.174 485.956 101.142 485.956 101.099C485.956 101.035 485.849 100.982 485.636 100.94C485.445 100.876 485.317 100.801 485.253 100.716C485.423 100.673 485.551 100.652 485.636 100.652C486.062 100.652 486.467 100.758 486.85 100.971C487.255 101.184 487.638 101.408 488 101.642C488.043 101.834 488.054 102.036 488.032 102.249C488.011 102.441 488.075 102.622 488.224 102.792C488.203 102.899 488.192 102.995 488.192 103.08C488.213 103.165 488.224 103.25 488.224 103.336C488.224 103.442 488.203 103.538 488.16 103.623C488.139 103.687 488.086 103.719 488 103.719C488.15 103.974 488.245 104.283 488.288 104.645C488.352 105.007 488.405 105.38 488.448 105.763C488.512 106.147 488.586 106.52 488.671 106.882C488.757 107.244 488.916 107.563 489.151 107.84C489.108 107.968 489.076 108.096 489.055 108.223C489.055 108.351 489.055 108.49 489.055 108.639C489.055 109.32 489.14 109.991 489.31 110.651C489.481 111.312 489.566 111.982 489.566 112.664C489.566 113.069 489.502 113.441 489.374 113.782C489.374 113.974 489.438 114.134 489.566 114.261C489.694 114.368 489.779 114.517 489.821 114.709C489.715 114.964 489.662 115.209 489.662 115.443C489.662 115.933 489.758 116.402 489.949 116.849C490.141 117.275 490.237 117.722 490.237 118.191C490.237 118.34 490.215 118.478 490.173 118.606C490.13 118.734 490.088 118.851 490.045 118.957C490.237 119.149 490.333 119.394 490.333 119.692C490.354 119.99 490.45 120.235 490.62 120.427C490.599 120.533 490.578 120.64 490.556 120.746C490.556 120.853 490.503 120.938 490.396 121.002C490.503 121.151 490.556 121.353 490.556 121.609C490.578 121.843 490.673 121.982 490.844 122.024C490.801 122.131 490.769 122.227 490.748 122.312C490.727 122.397 490.716 122.493 490.716 122.599C490.716 122.834 490.748 123.047 490.812 123.238L491.003 123.813C491.067 124.005 491.11 124.207 491.131 124.42C491.174 124.633 491.153 124.868 491.067 125.123C491.153 125.251 491.216 125.4 491.259 125.57C491.323 125.741 491.376 125.922 491.419 126.114C491.461 126.284 491.525 126.444 491.61 126.593C491.696 126.721 491.823 126.806 491.994 126.848C492.015 126.976 491.962 127.04 491.834 127.04C491.728 127.04 491.674 127.093 491.674 127.2C491.674 127.37 491.738 127.583 491.866 127.839C491.994 128.073 492.111 128.243 492.217 128.35C492.196 128.435 492.185 128.52 492.185 128.605V128.893C492.185 129.191 492.228 129.5 492.313 129.819C492.398 130.118 492.473 130.416 492.537 130.714C492.622 131.033 492.686 131.342 492.729 131.64C492.771 131.938 492.75 132.215 492.665 132.471C492.835 132.769 492.984 133.089 493.112 133.429C493.24 133.77 493.442 134.058 493.719 134.292C493.719 134.654 493.793 134.995 493.943 135.314C494.092 135.655 494.283 135.974 494.518 136.273C494.731 136.273 494.89 136.198 494.997 136.049C495.103 135.921 495.188 135.772 495.252 135.602C495.316 135.431 495.391 135.272 495.476 135.122C495.561 134.973 495.7 134.888 495.891 134.867C495.913 134.654 495.966 134.473 496.051 134.324C496.158 134.196 496.253 134.058 496.339 133.909C496.445 133.759 496.53 133.6 496.594 133.429C496.679 133.259 496.711 133.046 496.69 132.79L497.041 132.695C497.148 132.12 497.308 131.598 497.521 131.129C497.755 130.682 498.01 130.213 498.287 129.724V129.564C498.287 129.351 498.319 129.17 498.383 129.021C498.447 128.872 498.458 128.68 498.415 128.446C498.564 128.403 498.671 128.318 498.735 128.19C498.798 128.062 498.852 127.934 498.894 127.807C498.937 127.658 498.979 127.519 499.022 127.391C499.086 127.242 499.182 127.136 499.31 127.072V126.816C499.288 126.625 499.299 126.444 499.342 126.273C499.405 126.082 499.395 125.89 499.31 125.698C499.48 125.634 499.608 125.528 499.693 125.379C499.778 125.23 499.842 125.07 499.885 124.9C499.949 124.729 499.98 124.548 499.98 124.356C500.002 124.165 500.012 123.994 500.012 123.845C500.162 123.654 500.268 123.43 500.332 123.174C500.396 122.898 500.449 122.621 500.492 122.344C500.534 122.067 500.587 121.801 500.651 121.545C500.737 121.29 500.864 121.066 501.035 120.874C500.992 120.768 500.971 120.672 500.971 120.587V120.299C500.971 119.895 501.035 119.533 501.163 119.213C501.29 118.872 501.407 118.51 501.514 118.127C501.791 117.168 501.982 116.189 502.089 115.188C502.217 114.165 502.398 113.164 502.632 112.185C502.653 112.078 502.696 111.908 502.76 111.674C502.824 111.439 502.888 111.205 502.952 110.971C503.015 110.715 503.069 110.492 503.111 110.3C503.175 110.087 503.207 109.948 503.207 109.885C503.207 109.714 503.165 109.597 503.079 109.533C503.015 109.469 502.983 109.363 502.983 109.214C503.111 109.022 503.196 108.777 503.239 108.479C503.282 108.181 503.314 107.872 503.335 107.552C503.356 107.212 503.356 106.892 503.335 106.594C503.335 106.275 503.335 105.998 503.335 105.763C503.335 105.529 503.388 105.231 503.495 104.869C503.601 104.507 503.676 104.187 503.718 103.911C503.825 103.186 503.889 102.473 503.91 101.77C503.953 101.046 503.995 100.322 504.038 99.5978C504.187 99.5126 504.293 99.4061 504.357 99.2783C504.421 99.1292 504.453 98.9801 504.453 98.831C504.453 98.5968 504.421 98.3731 504.357 98.1602C504.315 97.9472 504.293 97.7235 504.293 97.4893C504.293 97.3828 504.304 97.2763 504.325 97.1698C504.347 97.042 504.4 96.9355 504.485 96.8503C504.464 96.7013 504.442 96.5522 504.421 96.4031C504.421 96.254 504.368 96.1262 504.261 96.0197C504.368 95.7428 504.421 95.466 504.421 95.1891C504.421 94.9335 504.389 94.678 504.325 94.4224C504.283 94.1668 504.261 93.9006 504.261 93.6237C504.261 93.0913 504.485 92.7079 504.932 92.4736H505.379C505.592 92.4736 505.805 92.463 506.018 92.4417C506.231 92.4204 506.455 92.3565 506.689 92.25C506.966 92.5482 507.254 92.8783 507.552 93.2404C507.85 93.5811 508.106 93.9538 508.319 94.3585C508.532 94.7632 508.691 95.1785 508.798 95.6044C508.904 96.0304 508.915 96.4776 508.83 96.9462C508.915 97.1166 508.968 97.2869 508.989 97.4573C509.011 97.6277 509.075 97.7981 509.181 97.9685ZM502.664 115.379C502.579 115.358 502.515 115.326 502.472 115.284C502.451 115.22 502.387 115.177 502.281 115.156V115.507H502.536L502.664 115.379Z" fill="#202020"/>
</g>
</g>
<path d="M710.828 41.3672H88.1773C81.9254 41.3672 75.9281 43.844 71.4981 48.2556L52.7551 66.9204C48.3008 71.3561 45.7969 77.3834 45.7969 83.6695V332.403C45.7969 345.458 56.3797 356.041 69.4343 356.041H729.571C742.625 356.041 753.208 345.458 753.208 332.403V83.6695C753.208 77.3834 750.704 71.3561 746.25 66.9204L727.507 48.2556C723.077 43.844 717.08 41.3672 710.828 41.3672Z" stroke="#202020" stroke-width="2.21601"/>
<g clip-path="url(#clip7_18_1370)">
<path d="M229.726 157.706H568.037C603.325 157.706 631.932 186.312 631.932 221.601V223.078C631.932 258.366 603.325 286.973 568.037 286.973H229.726C194.437 286.973 165.831 258.366 165.831 223.078V221.601C165.831 186.312 194.437 157.706 229.726 157.706Z" stroke="#202020" stroke-width="2.21601"/>
<path d="M559.596 179.016C583.665 179.016 603.177 198.528 603.177 222.598C603.177 246.667 583.665 266.178 559.596 266.179C535.526 266.179 516.014 246.667 516.014 222.598C516.014 198.528 535.526 179.016 559.596 179.016ZM559.344 190.096C554.878 190.096 550.623 190.996 546.75 192.625L550.667 199.41L543.62 203.479L539.706 196.698C532.91 201.859 528.207 209.633 527.096 218.523H534.934V226.66H527.095C528.203 235.548 532.9 243.319 539.689 248.482L543.607 241.699L550.654 245.768L546.731 252.561C550.609 254.195 554.871 255.099 559.344 255.099C563.81 255.099 568.065 254.197 571.938 252.567L568.022 245.784L575.069 241.716L578.982 248.494C585.78 243.331 590.484 235.554 591.593 226.66H583.755V218.523H591.592C590.481 209.638 585.782 201.869 578.992 196.708L575.081 203.484L568.034 199.416L571.95 192.631C568.074 190.998 563.814 190.096 559.344 190.096Z" fill="#202020"/>
<path d="M237.852 179.016C261.921 179.016 281.433 198.528 281.433 222.598C281.432 246.667 261.921 266.178 237.852 266.179C213.782 266.179 194.27 246.667 194.27 222.598C194.27 198.528 213.782 179.016 237.852 179.016ZM237.6 190.096C233.134 190.096 228.879 190.996 225.006 192.625L228.923 199.41L221.876 203.479L217.962 196.698C211.166 201.859 206.463 209.633 205.352 218.523H213.189V226.66H205.351C206.459 235.548 211.156 243.319 217.945 248.482L221.863 241.699L228.91 245.768L224.987 252.561C228.865 254.195 233.127 255.099 237.6 255.099C242.066 255.099 246.321 254.197 250.194 252.567L246.278 245.784L253.325 241.716L257.238 248.494C264.036 243.331 268.739 235.554 269.849 226.66H262.011V218.523H269.848C268.737 209.638 264.038 201.869 257.248 196.708L253.337 203.484L246.29 199.416L250.206 192.631C246.33 190.998 242.07 190.096 237.6 190.096Z" fill="#202020"/>
</g>
<defs>
<clipPath id="clip0_18_1370">
<rect width="26.5921" height="26.5921" fill="white" transform="translate(385.467 386.867)"/>
</clipPath>
<clipPath id="clip1_18_1370">
<rect width="26.5921" height="26.5921" fill="white" transform="translate(19.9434 19.9453)"/>
</clipPath>
<clipPath id="clip2_18_1370">
<rect width="26.5921" height="26.5921" fill="white" transform="translate(19.9434 442.27)"/>
</clipPath>
<clipPath id="clip3_18_1370">
<rect width="26.5921" height="26.5921" fill="white" transform="translate(750.992 19.9453)"/>
</clipPath>
<clipPath id="clip4_18_1370">
<rect width="26.5921" height="26.5921" fill="white" transform="translate(750.992 442.27)"/>
</clipPath>
<clipPath id="clip5_18_1370">
<rect width="707.647" height="314.674" fill="white" transform="translate(45.7969 41.3672)"/>
</clipPath>
<clipPath id="clip6_18_1370">
<rect width="708" height="199.767" fill="white" transform="matrix(1 0 0 -1 46.166 356.738)"/>
</clipPath>
<clipPath id="clip7_18_1370">
<rect x="164.723" y="156.598" width="468.317" height="131.483" rx="65.003" fill="white"/>
</clipPath>
</defs>
</svg>
