<svg width="798" height="489" viewBox="0 0 798 489" fill="none" xmlns="http://www.w3.org/2000/svg">
<g opacity="0.8">
<mask id="path-1-outside-1_18_1180" maskUnits="userSpaceOnUse" x="-0.783203" y="-0.785156" width="799" height="490" fill="black">
<rect fill="white" x="-0.783203" y="-0.785156" width="799" height="490"/>
<path d="M763.048 2.21484C780.998 2.21484 795.55 16.7667 795.55 34.7168V454.281C795.55 472.231 780.998 486.783 763.048 486.783H34.7188C16.7687 486.783 2.2168 472.231 2.2168 454.281V34.7168C2.2168 16.7667 16.7687 2.21484 34.7188 2.21484H763.048ZM210.522 433.362C199.1 433.363 189.84 442.622 189.84 454.045C189.84 465.468 199.1 474.727 210.522 474.728C221.945 474.728 231.206 465.468 231.206 454.045C231.206 442.622 221.945 433.362 210.522 433.362ZM587.749 433.362C576.326 433.362 567.065 442.622 567.065 454.045C567.065 465.468 576.326 474.728 587.749 474.728C599.172 474.727 608.432 465.468 608.432 454.045C608.432 442.622 599.172 433.363 587.749 433.362ZM277.003 433.362C274.555 433.362 272.571 435.346 272.571 437.794V457C272.571 459.447 274.555 461.431 277.003 461.432H296.209C298.656 461.431 300.64 459.447 300.641 457V437.794C300.64 435.346 298.656 433.362 296.209 433.362H277.003ZM502.062 433.362C499.615 433.362 497.631 435.346 497.631 437.794V457C497.631 459.447 499.615 461.431 502.062 461.432H521.269C523.716 461.431 525.7 459.447 525.7 457V437.794C525.7 435.346 523.716 433.362 521.269 433.362H502.062ZM237.854 178.757C213.784 178.757 194.272 198.269 194.272 222.339C194.272 246.408 213.784 265.921 237.854 265.921C261.923 265.921 281.436 246.408 281.436 222.339C281.436 198.269 261.923 178.757 237.854 178.757ZM559.914 178.757C535.845 178.757 516.333 198.269 516.333 222.339C516.333 246.408 535.845 265.921 559.914 265.921C583.983 265.921 603.496 246.408 603.496 222.339C603.496 198.269 583.983 178.757 559.914 178.757Z"/>
</mask>
<path d="M763.048 2.21484C780.998 2.21484 795.55 16.7667 795.55 34.7168V454.281C795.55 472.231 780.998 486.783 763.048 486.783H34.7188C16.7687 486.783 2.2168 472.231 2.2168 454.281V34.7168C2.2168 16.7667 16.7687 2.21484 34.7188 2.21484H763.048ZM210.522 433.362C199.1 433.363 189.84 442.622 189.84 454.045C189.84 465.468 199.1 474.727 210.522 474.728C221.945 474.728 231.206 465.468 231.206 454.045C231.206 442.622 221.945 433.362 210.522 433.362ZM587.749 433.362C576.326 433.362 567.065 442.622 567.065 454.045C567.065 465.468 576.326 474.728 587.749 474.728C599.172 474.727 608.432 465.468 608.432 454.045C608.432 442.622 599.172 433.363 587.749 433.362ZM277.003 433.362C274.555 433.362 272.571 435.346 272.571 437.794V457C272.571 459.447 274.555 461.431 277.003 461.432H296.209C298.656 461.431 300.64 459.447 300.641 457V437.794C300.64 435.346 298.656 433.362 296.209 433.362H277.003ZM502.062 433.362C499.615 433.362 497.631 435.346 497.631 437.794V457C497.631 459.447 499.615 461.431 502.062 461.432H521.269C523.716 461.431 525.7 459.447 525.7 457V437.794C525.7 435.346 523.716 433.362 521.269 433.362H502.062ZM237.854 178.757C213.784 178.757 194.272 198.269 194.272 222.339C194.272 246.408 213.784 265.921 237.854 265.921C261.923 265.921 281.436 246.408 281.436 222.339C281.436 198.269 261.923 178.757 237.854 178.757ZM559.914 178.757C535.845 178.757 516.333 198.269 516.333 222.339C516.333 246.408 535.845 265.921 559.914 265.921C583.983 265.921 603.496 246.408 603.496 222.339C603.496 198.269 583.983 178.757 559.914 178.757Z" fill="#E2E2E2"/>
<path d="M210.522 433.362L210.522 431.146L210.522 431.146L210.522 433.362ZM189.84 454.045L187.624 454.045V454.045H189.84ZM210.522 474.728L210.522 476.944H210.522V474.728ZM231.206 454.045L233.422 454.045L233.422 454.045L231.206 454.045ZM587.749 433.362L587.749 431.146H587.749V433.362ZM567.065 454.045L564.849 454.045V454.045H567.065ZM587.749 474.728L587.749 476.944L587.749 476.944L587.749 474.728ZM608.432 454.045L610.648 454.045L610.648 454.045L608.432 454.045ZM277.003 433.362L277.003 431.146L277.003 431.146L277.003 433.362ZM272.571 437.794L270.355 437.794V437.794H272.571ZM272.571 457L270.355 457L270.355 457L272.571 457ZM277.003 461.432L277.003 463.648H277.003V461.432ZM296.209 461.432L296.209 463.648L296.209 463.648L296.209 461.432ZM300.641 457L302.857 457V457H300.641ZM300.641 437.794L302.857 437.794L302.857 437.794L300.641 437.794ZM296.209 433.362L296.209 431.146H296.209V433.362ZM502.062 433.362L502.062 431.146L502.062 431.146L502.062 433.362ZM497.631 437.794L495.415 437.794V437.794H497.631ZM497.631 457L495.415 457L495.415 457L497.631 457ZM502.062 461.432L502.062 463.648H502.062V461.432ZM521.269 461.432L521.269 463.648L521.269 463.648L521.269 461.432ZM525.7 457L527.916 457V457H525.7ZM525.7 437.794L527.916 437.794L527.916 437.794L525.7 437.794ZM521.269 433.362L521.269 431.146H521.269V433.362ZM237.854 178.757L237.854 176.541L237.854 176.541L237.854 178.757ZM194.272 222.339L192.056 222.339V222.339H194.272ZM237.854 265.921L237.854 268.137H237.854V265.921ZM281.436 222.339L283.652 222.339L283.652 222.339L281.436 222.339ZM559.914 178.757L559.914 176.541L559.914 176.541L559.914 178.757ZM516.333 222.339L514.117 222.339V222.339H516.333ZM559.914 265.921L559.914 268.137H559.914V265.921ZM603.496 222.339L605.712 222.339L605.712 222.339L603.496 222.339ZM763.048 2.21484V4.43086C779.774 4.43086 793.334 17.9906 793.334 34.7168H795.55H797.766C797.766 15.5428 782.222 -0.00116849 763.048 -0.00116849V2.21484ZM795.55 34.7168H793.334V454.281H795.55H797.766V34.7168H795.55ZM795.55 454.281H793.334C793.334 471.007 779.774 484.567 763.048 484.567V486.783V488.999C782.222 488.999 797.766 473.455 797.766 454.281H795.55ZM763.048 486.783V484.567H34.7188V486.783V488.999H763.048V486.783ZM34.7188 486.783V484.567C17.9925 484.567 4.43281 471.007 4.43281 454.281H2.2168H0.000784636C0.000784636 473.455 15.5448 488.999 34.7188 488.999V486.783ZM2.2168 454.281H4.43281V34.7168H2.2168H0.000784636V454.281H2.2168ZM2.2168 34.7168H4.43281C4.43281 17.9906 17.9925 4.43086 34.7188 4.43086V2.21484V-0.00116849C15.5448 -0.00116849 0.000784636 15.5428 0.000784636 34.7168H2.2168ZM34.7188 2.21484V4.43086H763.048V2.21484V-0.00116849H34.7188V2.21484ZM210.522 433.362L210.522 431.146C197.876 431.147 187.624 441.398 187.624 454.045L189.84 454.045L192.056 454.045C192.056 443.846 200.324 435.579 210.523 435.578L210.522 433.362ZM189.84 454.045H187.624C187.624 466.691 197.876 476.943 210.522 476.944L210.522 474.728L210.523 472.512C200.324 472.511 192.056 464.244 192.056 454.045H189.84ZM210.522 474.728V476.944C223.169 476.944 233.422 466.692 233.422 454.045H231.206H228.99C228.99 464.244 220.722 472.512 210.522 472.512V474.728ZM231.206 454.045L233.422 454.045C233.422 441.398 223.169 431.146 210.522 431.146V433.362V435.578C220.721 435.578 228.99 443.846 228.99 454.045L231.206 454.045ZM587.749 433.362V431.146C575.103 431.146 564.849 441.398 564.849 454.045L567.065 454.045L569.281 454.045C569.281 443.846 577.55 435.578 587.749 435.578V433.362ZM567.065 454.045H564.849C564.849 466.692 575.103 476.944 587.749 476.944V474.728V472.512C577.55 472.512 569.281 464.244 569.281 454.045H567.065ZM587.749 474.728L587.749 476.944C600.395 476.943 610.648 466.691 610.648 454.045H608.432H606.216C606.216 464.244 597.948 472.511 587.749 472.512L587.749 474.728ZM608.432 454.045L610.648 454.045C610.648 441.398 600.395 431.147 587.749 431.146L587.749 433.362L587.749 435.578C597.948 435.579 606.216 443.846 606.216 454.045L608.432 454.045ZM277.003 433.362L277.003 431.146C273.332 431.147 270.356 434.123 270.355 437.794L272.571 437.794L274.787 437.794C274.787 436.57 275.779 435.578 277.003 435.578L277.003 433.362ZM272.571 437.794H270.355V457H272.571H274.787V437.794H272.571ZM272.571 457L270.355 457C270.356 460.671 273.332 463.647 277.003 463.648L277.003 461.432L277.003 459.216C275.779 459.216 274.787 458.224 274.787 457L272.571 457ZM277.003 461.432V463.648H296.209V461.432V459.216H277.003V461.432ZM296.209 461.432L296.209 463.648C299.88 463.647 302.856 460.671 302.857 457L300.641 457L298.425 457C298.425 458.224 297.433 459.216 296.209 459.216L296.209 461.432ZM300.641 457H302.857V437.794H300.641H298.425V457H300.641ZM300.641 437.794L302.857 437.794C302.856 434.123 299.88 431.147 296.209 431.146L296.209 433.362L296.209 435.578C297.433 435.578 298.425 436.57 298.425 437.794L300.641 437.794ZM296.209 433.362V431.146H277.003V433.362V435.578H296.209V433.362ZM502.062 433.362L502.062 431.146C498.391 431.147 495.415 434.123 495.415 437.794L497.631 437.794L499.847 437.794C499.847 436.57 500.839 435.578 502.063 435.578L502.062 433.362ZM497.631 437.794H495.415V457H497.631H499.847V437.794H497.631ZM497.631 457L495.415 457C495.415 460.671 498.391 463.647 502.062 463.648L502.062 461.432L502.063 459.216C500.839 459.216 499.847 458.224 499.847 457L497.631 457ZM502.062 461.432V463.648H521.269V461.432V459.216H502.062V461.432ZM521.269 461.432L521.269 463.648C524.94 463.647 527.916 460.671 527.916 457L525.7 457L523.484 457C523.484 458.224 522.492 459.216 521.268 459.216L521.269 461.432ZM525.7 457H527.916V437.794H525.7H523.484V457H525.7ZM525.7 437.794L527.916 437.794C527.916 434.123 524.94 431.147 521.269 431.146L521.269 433.362L521.268 435.578C522.492 435.578 523.484 436.57 523.484 437.794L525.7 437.794ZM521.269 433.362V431.146H502.062V433.362V435.578H521.269V433.362ZM237.854 178.757L237.854 176.541C212.56 176.541 192.056 197.046 192.056 222.339L194.272 222.339L196.488 222.339C196.488 199.493 215.008 180.973 237.854 180.973L237.854 178.757ZM194.272 222.339H192.056C192.056 247.632 212.56 268.137 237.854 268.137L237.854 265.921L237.854 263.705C215.008 263.705 196.488 245.184 196.488 222.339H194.272ZM237.854 265.921V268.137C263.147 268.137 283.652 247.632 283.652 222.339H281.436H279.22C279.22 245.184 260.699 263.705 237.854 263.705V265.921ZM281.436 222.339L283.652 222.339C283.652 197.046 263.147 176.541 237.854 176.541V178.757V180.973C260.699 180.973 279.22 199.493 279.22 222.339L281.436 222.339ZM559.914 178.757L559.914 176.541C534.621 176.541 514.117 197.046 514.117 222.339L516.333 222.339L518.549 222.339C518.549 199.493 537.069 180.973 559.914 180.973L559.914 178.757ZM516.333 222.339H514.117C514.117 247.632 534.621 268.137 559.914 268.137L559.914 265.921L559.914 263.705C537.069 263.705 518.549 245.184 518.549 222.339H516.333ZM559.914 265.921V268.137C585.207 268.137 605.712 247.632 605.712 222.339H603.496H601.28C601.28 245.184 582.76 263.705 559.914 263.705V265.921ZM603.496 222.339L605.712 222.339C605.712 197.046 585.207 176.541 559.914 176.541V178.757V180.973C582.76 180.973 601.28 199.493 601.28 222.339L603.496 222.339Z" fill="#202020" mask="url(#path-1-outside-1_18_1180)"/>
</g>
<path d="M237.113 88.6406C310.953 88.6408 370.812 148.5 370.812 222.34C370.812 296.18 310.953 356.039 237.113 356.039C163.273 356.039 103.414 296.18 103.414 222.34C103.414 148.5 163.273 88.6406 237.113 88.6406ZM237.852 176.543C212.558 176.543 192.055 197.047 192.055 222.34C192.055 247.633 212.558 268.138 237.852 268.138C263.145 268.138 283.649 247.633 283.649 222.34C283.649 197.047 263.145 176.543 237.852 176.543Z" fill="#202020"/>
<path d="M559.172 166.941C589.769 166.941 614.572 191.745 614.572 222.342C614.572 252.939 589.769 277.742 559.172 277.742C528.575 277.742 503.772 252.938 503.771 222.342C503.771 191.745 528.575 166.942 559.172 166.941ZM559.911 176.544C534.618 176.544 514.113 197.048 514.113 222.342C514.113 247.635 534.618 268.14 559.911 268.14C585.204 268.139 605.708 247.635 605.708 222.342C605.708 197.049 585.204 176.544 559.911 176.544Z" fill="#202020"/>
<path d="M93.4416 201.658C85.7306 262.787 55.7236 408.383 63.5254 455.391M86.4244 474.597C137.762 475.335 705.8 474.597 711.34 474.597M604.602 191.316C630.754 230.073 714.904 385.05 733.832 445.419" stroke="#202020" stroke-width="0.738671"/>
<path d="M86.1885 427.496C99.2431 427.496 109.826 438.079 109.826 451.134C109.826 464.188 99.2431 474.771 86.1885 474.771C73.1339 474.771 62.5508 464.188 62.5508 451.134C62.5508 438.079 73.1339 427.496 86.1885 427.496ZM86.1885 441.185C80.6918 441.185 76.2354 445.641 76.2354 451.138C76.2356 456.634 80.6919 461.09 86.1885 461.09C91.685 461.09 96.1404 456.634 96.1406 451.138C96.1406 445.641 91.6851 441.185 86.1885 441.185Z" fill="#202020"/>
<path d="M711.104 427.496C724.159 427.496 734.741 438.079 734.741 451.134C734.741 464.188 724.159 474.771 711.104 474.771C698.05 474.771 687.467 464.188 687.467 451.134C687.467 438.079 698.05 427.496 711.104 427.496ZM711.104 441.185C705.607 441.185 701.151 445.641 701.151 451.138C701.152 456.634 705.607 461.09 711.104 461.09C716.6 461.09 721.056 456.634 721.057 451.138C721.057 445.641 716.6 441.185 711.104 441.185Z" fill="#202020"/>
<path d="M179.778 378.569H623.882C634.179 378.569 643.166 385.55 645.712 395.527L669.286 487.893H129.293L158.259 394.429C161.182 384.998 169.905 378.569 179.778 378.569Z" stroke="#202020" stroke-width="2.21601"/>
<circle cx="210.521" cy="454.089" r="19.5748" stroke="#202020" stroke-width="2.21601"/>
<circle cx="587.747" cy="454.089" r="19.5748" stroke="#202020" stroke-width="2.21601"/>
<rect x="273.678" y="434.514" width="25.8535" height="25.8535" rx="3.32402" stroke="#202020" stroke-width="2.21601"/>
<path d="M384.848 461.475C384.848 459.027 386.832 457.043 389.28 457.043H408.485C410.933 457.043 412.917 459.027 412.917 461.475V474.771H384.848V461.475Z" fill="#202020"/>
<rect x="498.737" y="434.514" width="25.8535" height="25.8535" rx="3.32402" stroke="#202020" stroke-width="2.21601"/>
<g clip-path="url(#clip0_18_1180)">
<path d="M398.763 386.867C406.106 386.867 412.058 392.82 412.059 400.163C412.059 407.506 406.106 413.459 398.763 413.459C391.42 413.459 385.467 407.506 385.467 400.163C385.467 392.82 391.42 386.867 398.763 386.867ZM399.849 392.206C399.608 391.023 397.917 391.023 397.677 392.206L396.662 397.197C396.573 397.633 396.233 397.974 395.797 398.062L390.806 399.077C389.623 399.318 389.623 401.008 390.806 401.249L395.797 402.264C396.233 402.352 396.573 402.693 396.662 403.129L397.677 408.12C397.917 409.303 399.608 409.303 399.849 408.12L400.863 403.129C400.952 402.693 401.293 402.352 401.729 402.264L406.72 401.249C407.903 401.008 407.903 399.318 406.72 399.077L401.729 398.062C401.293 397.974 400.952 397.633 400.863 397.197L399.849 392.206Z" fill="#202020"/>
</g>
<g clip-path="url(#clip1_18_1180)">
<path d="M33.2393 19.9453C40.5824 19.9453 46.5351 25.8981 46.5352 33.2412C46.5352 40.5844 40.5825 46.5371 33.2393 46.5371C25.8961 46.537 19.9434 40.5844 19.9434 33.2412C19.9435 25.8981 25.8962 19.9454 33.2393 19.9453ZM34.3252 25.2842C34.0845 24.1014 32.3939 24.1014 32.1533 25.2842L31.1387 30.2754C31.05 30.7112 30.7092 31.052 30.2734 31.1406L25.2822 32.1553C24.0994 32.3959 24.0995 34.0865 25.2822 34.3271L30.2734 35.3418C30.7092 35.4304 31.05 35.7713 31.1387 36.207L32.1533 41.1982C32.3939 42.3812 34.0846 42.3812 34.3252 41.1982L35.3398 36.207C35.4285 35.7713 35.7694 35.4304 36.2051 35.3418L41.1963 34.3271C42.3792 34.0866 42.3792 32.3958 41.1963 32.1553L36.2051 31.1406C35.7694 31.052 35.4285 30.7111 35.3398 30.2754L34.3252 25.2842Z" fill="#202020"/>
</g>
<g clip-path="url(#clip2_18_1180)">
<path d="M33.2393 442.27C40.5824 442.27 46.5351 448.222 46.5352 455.565C46.5352 462.909 40.5825 468.861 33.2393 468.861C25.8961 468.861 19.9434 462.909 19.9434 455.565C19.9435 448.222 25.8962 442.27 33.2393 442.27ZM34.3252 447.608C34.0845 446.426 32.3939 446.426 32.1533 447.608L31.1387 452.6C31.05 453.035 30.7092 453.376 30.2734 453.465L25.2822 454.479C24.0994 454.72 24.0995 456.411 25.2822 456.651L30.2734 457.666C30.7092 457.755 31.05 458.096 31.1387 458.531L32.1533 463.522C32.3939 464.705 34.0846 464.705 34.3252 463.522L35.3398 458.531C35.4285 458.096 35.7694 457.755 36.2051 457.666L41.1963 456.651C42.3792 456.411 42.3792 454.72 41.1963 454.479L36.2051 453.465C35.7694 453.376 35.4285 453.035 35.3398 452.6L34.3252 447.608Z" fill="#202020"/>
</g>
<g clip-path="url(#clip3_18_1180)">
<path d="M764.288 19.9453C771.631 19.9453 777.584 25.8981 777.584 33.2412C777.584 40.5844 771.631 46.5371 764.288 46.5371C756.945 46.537 750.992 40.5844 750.992 33.2412C750.992 25.8981 756.945 19.9454 764.288 19.9453ZM765.374 25.2842C765.133 24.1014 763.443 24.1014 763.202 25.2842L762.188 30.2754C762.099 30.7112 761.758 31.052 761.322 31.1406L756.331 32.1553C755.148 32.3959 755.148 34.0865 756.331 34.3271L761.322 35.3418C761.758 35.4304 762.099 35.7713 762.188 36.207L763.202 41.1982C763.443 42.3812 765.133 42.3812 765.374 41.1982L766.389 36.207C766.477 35.7713 766.818 35.4304 767.254 35.3418L772.245 34.3271C773.428 34.0866 773.428 32.3958 772.245 32.1553L767.254 31.1406C766.818 31.052 766.477 30.7111 766.389 30.2754L765.374 25.2842Z" fill="#202020"/>
</g>
<g clip-path="url(#clip4_18_1180)">
<path d="M764.288 442.27C771.631 442.27 777.584 448.222 777.584 455.565C777.584 462.909 771.631 468.861 764.288 468.861C756.945 468.861 750.992 462.909 750.992 455.565C750.992 448.222 756.945 442.27 764.288 442.27ZM765.374 447.608C765.133 446.426 763.443 446.426 763.202 447.608L762.188 452.6C762.099 453.035 761.758 453.376 761.322 453.465L756.331 454.479C755.148 454.72 755.148 456.411 756.331 456.651L761.322 457.666C761.758 457.755 762.099 458.096 762.188 458.531L763.202 463.522C763.443 464.705 765.133 464.705 765.374 463.522L766.389 458.531C766.477 458.096 766.818 457.755 767.254 457.666L772.245 456.651C773.428 456.411 773.428 454.72 772.245 454.479L767.254 453.465C766.818 453.376 766.477 453.035 766.389 452.6L765.374 447.608Z" fill="#202020"/>
</g>
<mask id="mask0_18_1180" style="mask-type:alpha" maskUnits="userSpaceOnUse" x="45" y="41" width="709" height="316">
<path d="M88.1855 42.4756H711.055C717.012 42.4757 722.727 44.835 726.949 49.0381L745.7 67.7051C749.947 71.9331 752.335 77.6791 752.335 83.6719V332.403C752.335 344.846 742.248 354.933 729.806 354.933H69.4346C56.9919 354.933 46.9053 344.846 46.9053 332.403V83.6719C46.9053 77.6791 49.293 71.9331 53.54 67.7051L72.291 49.0381C76.5131 44.835 82.2281 42.4757 88.1855 42.4756ZM229.726 155.492C193.214 155.492 163.615 185.091 163.615 221.603V223.08C163.615 259.592 193.214 289.191 229.726 289.191H568.037C604.549 289.191 634.148 259.592 634.148 223.08V221.603C634.148 185.091 604.549 155.492 568.037 155.492H229.726Z" fill="#EDA35F" stroke="#202020" stroke-width="2.21601"/>
</mask>
<g mask="url(#mask0_18_1180)">
<g clip-path="url(#clip5_18_1180)">
<rect width="707.647" height="314.674" transform="translate(45.7969 41.3672)" fill="#FCF7F2"/>
<g clip-path="url(#clip6_18_1180)">
<rect width="708" height="35.5142" transform="matrix(1 0 0 -1 46.166 356.738)" fill="#9B51E0"/>
<rect width="708" height="24.416" transform="matrix(1 0 0 -1 46.166 312.344)" fill="#9B51E0"/>
<rect width="708" height="4.43928" transform="matrix(1 0 0 -1 46.166 181.387)" fill="#9B51E0"/>
<rect width="708" height="2.21964" transform="matrix(1 0 0 -1 46.166 159.191)" fill="#9B51E0"/>
<rect width="708" height="17.7571" transform="matrix(1 0 0 -1 46.166 279.051)" fill="#9B51E0"/>
<rect width="708" height="8.87855" transform="matrix(1 0 0 -1 46.166 225.781)" fill="#9B51E0"/>
<rect width="708" height="13.3178" transform="matrix(1 0 0 -1 46.166 250.195)" fill="#9B51E0"/>
<rect width="708" height="6.65891" transform="matrix(1 0 0 -1 46.166 203.582)" fill="#9B51E0"/>
</g>
<path d="M382.533 102.217C382.491 102.324 382.405 102.516 382.278 102.792C382.15 103.069 382.086 103.25 382.086 103.336C382.086 103.506 382.075 103.73 382.054 104.006C382.054 104.262 382.139 104.422 382.31 104.486C382.075 104.975 381.926 105.476 381.862 105.987C381.82 106.477 381.798 106.988 381.798 107.521C381.798 108.032 381.788 108.553 381.767 109.086C381.745 109.597 381.66 110.098 381.511 110.587C381.596 110.715 381.617 110.875 381.575 111.067C381.554 111.237 381.607 111.375 381.735 111.482C381.628 111.652 381.564 111.823 381.543 111.993C381.522 112.142 381.511 112.302 381.511 112.472C381.511 112.813 381.543 113.143 381.607 113.463C381.373 113.803 381.255 114.187 381.255 114.613C381.277 115.017 381.287 115.433 381.287 115.859C381.287 116.221 381.234 116.572 381.128 116.913C381.042 117.254 381 117.605 381 117.967C381 118.074 381.01 118.169 381.032 118.255C381.053 118.34 381.064 118.436 381.064 118.542C381.064 118.649 381.021 118.723 380.936 118.766C380.872 118.787 380.84 118.883 380.84 119.053C380.84 119.841 380.787 120.608 380.68 121.353C380.574 122.078 380.435 122.802 380.265 123.526C380.116 124.229 379.946 124.942 379.754 125.666C379.562 126.39 379.392 127.125 379.243 127.871C379.008 128.126 378.827 128.414 378.7 128.733C378.593 129.053 378.391 129.308 378.093 129.5C377.816 130.203 377.464 130.842 377.038 131.417C376.634 131.992 376.176 132.535 375.665 133.046C375.175 133.557 374.664 134.047 374.131 134.516C373.599 135.005 373.077 135.506 372.566 136.017C372.353 136.017 372.14 136.017 371.927 136.017C371.735 136.038 371.533 136.049 371.32 136.049C370.851 136.049 370.383 136.028 369.914 135.985C369.446 135.942 368.998 135.868 368.573 135.761C368.487 135.463 368.317 135.261 368.061 135.154C367.827 135.069 367.614 134.931 367.422 134.739C367.209 134.547 367.05 134.334 366.943 134.1C366.837 133.866 366.613 133.706 366.272 133.621C366.166 133.302 365.995 132.929 365.761 132.503C365.548 132.077 365.335 131.64 365.122 131.193C364.909 130.746 364.718 130.32 364.547 129.915C364.398 129.489 364.324 129.127 364.324 128.829C364.324 128.723 364.334 128.627 364.356 128.541C364.398 128.435 364.43 128.328 364.451 128.222C364.324 128.073 364.238 127.881 364.196 127.647C364.153 127.413 364.121 127.178 364.1 126.944C364.1 126.689 364.079 126.454 364.036 126.241C363.993 126.007 363.898 125.826 363.749 125.698C363.493 125.869 363.291 126.082 363.142 126.337C362.992 126.593 362.854 126.87 362.726 127.168C362.62 127.466 362.513 127.764 362.407 128.062C362.3 128.36 362.173 128.637 362.023 128.893C361.725 129.127 361.459 129.393 361.225 129.692C361.012 129.99 360.788 130.288 360.554 130.586C360.341 130.906 360.107 131.193 359.851 131.449C359.595 131.725 359.297 131.949 358.957 132.12C358.871 132.503 358.712 132.822 358.477 133.078C358.264 133.355 358.03 133.6 357.775 133.813C357.519 134.047 357.274 134.281 357.04 134.516C356.805 134.771 356.635 135.08 356.529 135.442C356.167 135.612 355.762 135.857 355.315 136.177C354.867 136.518 354.409 136.858 353.941 137.199C353.494 137.54 353.036 137.827 352.567 138.062C352.12 138.317 351.726 138.445 351.385 138.445C351.108 138.445 350.842 138.413 350.587 138.349C350.352 138.307 350.107 138.253 349.852 138.189C349.596 138.125 349.341 138.062 349.085 137.998C348.829 137.955 348.563 137.944 348.286 137.966C347.882 137.54 347.573 137.05 347.36 136.496C347.147 135.964 346.881 135.463 346.561 134.995C346.455 134.356 346.348 133.706 346.242 133.046C346.135 132.407 346.082 131.768 346.082 131.129C346.082 130.767 346.125 130.426 346.21 130.107C346.295 129.809 346.338 129.5 346.338 129.18C346.338 129.074 346.316 128.978 346.274 128.893C346.252 128.786 346.231 128.68 346.21 128.573C346.359 128.275 346.476 127.966 346.561 127.647C346.646 127.306 346.71 126.965 346.753 126.625C346.817 126.284 346.881 125.954 346.945 125.634C347.008 125.294 347.104 124.974 347.232 124.676C347.275 124.42 347.2 124.229 347.008 124.101C347.158 123.952 347.253 123.792 347.296 123.622C347.339 123.451 347.36 123.281 347.36 123.111C347.381 122.94 347.392 122.759 347.392 122.567C347.392 122.376 347.413 122.195 347.456 122.024C347.477 121.939 347.53 121.811 347.615 121.641L347.903 121.098C348.009 120.906 348.095 120.736 348.159 120.587C348.244 120.416 348.286 120.289 348.286 120.203C348.286 120.054 348.244 119.895 348.159 119.724C348.244 119.298 348.382 118.883 348.574 118.478C348.787 118.074 348.947 117.658 349.053 117.232C349.16 116.806 349.223 116.434 349.245 116.114C349.266 115.773 349.362 115.379 349.532 114.932C349.554 114.89 349.564 114.836 349.564 114.772C349.564 114.687 349.532 114.634 349.468 114.613C349.404 114.591 349.351 114.549 349.309 114.485C349.564 113.995 349.756 113.473 349.884 112.92C350.033 112.344 350.15 111.759 350.235 111.162C350.342 110.566 350.437 109.98 350.523 109.405C350.608 108.809 350.736 108.245 350.906 107.712C350.842 107.286 350.789 106.85 350.746 106.402C350.704 105.934 350.682 105.487 350.682 105.061C350.682 104.571 350.725 104.07 350.81 103.559C350.917 103.048 351.14 102.601 351.481 102.217C351.651 102.217 351.832 102.207 352.024 102.185C352.237 102.164 352.429 102.153 352.599 102.153C352.855 102.153 353.132 102.217 353.43 102.345C353.579 103.027 353.771 103.698 354.005 104.358C354.239 105.018 354.356 105.721 354.356 106.466C354.356 106.828 354.314 107.19 354.228 107.552L354.005 108.607C353.941 108.947 353.888 109.299 353.845 109.661C353.802 110.002 353.813 110.342 353.877 110.683C353.643 111.003 353.504 111.375 353.462 111.801C353.44 112.206 353.43 112.589 353.43 112.951C353.217 113.25 353.057 113.548 352.951 113.846C352.844 114.144 352.759 114.453 352.695 114.772C352.652 115.071 352.61 115.379 352.567 115.699C352.525 116.018 352.471 116.338 352.407 116.657C352.365 116.764 352.29 116.892 352.184 117.041C352.099 117.19 352.056 117.296 352.056 117.36C352.056 117.509 352.099 117.658 352.184 117.807C352.141 117.871 352.099 117.925 352.056 117.967C352.013 117.988 351.982 118.042 351.96 118.127C351.896 118.361 351.843 118.617 351.801 118.894C351.779 119.149 351.737 119.394 351.673 119.628C351.566 120.161 351.417 120.683 351.225 121.194C351.055 121.705 350.874 122.216 350.682 122.727C350.682 123.153 350.661 123.494 350.618 123.749C350.597 124.005 350.555 124.239 350.491 124.452C350.448 124.644 350.384 124.857 350.299 125.091C350.235 125.304 350.171 125.581 350.107 125.922C350.043 126.241 349.98 126.635 349.916 127.104C349.873 127.572 349.82 128.062 349.756 128.573C349.713 129.063 349.681 129.553 349.66 130.043C349.639 130.512 349.628 130.916 349.628 131.257C349.628 131.875 349.681 132.471 349.788 133.046C349.916 133.642 350.129 134.207 350.427 134.739H350.97C351.098 134.739 351.236 134.739 351.385 134.739C351.534 134.76 351.673 134.803 351.801 134.867C351.95 134.824 352.024 134.76 352.024 134.675V134.42C352.024 134.356 352.077 134.271 352.184 134.164L352.407 134.196C352.62 134.196 352.812 134.164 352.983 134.1C353.174 134.036 353.366 133.951 353.558 133.845C353.962 133.291 354.431 132.822 354.963 132.439C355.517 132.056 356.007 131.608 356.433 131.097C356.539 130.927 356.571 130.724 356.529 130.49C356.784 130.448 356.976 130.352 357.104 130.203C357.253 130.054 357.391 129.894 357.519 129.724C357.647 129.553 357.775 129.393 357.902 129.244C358.051 129.074 358.243 128.957 358.477 128.893C358.584 128.701 358.68 128.499 358.765 128.286C358.85 128.052 358.935 127.828 359.02 127.615C359.127 127.402 359.244 127.21 359.372 127.04C359.521 126.848 359.713 126.699 359.947 126.593C360.309 125.783 360.618 124.953 360.873 124.101C361.129 123.228 361.512 122.429 362.023 121.705C362.023 121.428 362.034 121.172 362.055 120.938C362.077 120.704 362.066 120.459 362.023 120.203C362.556 119.479 362.897 118.723 363.046 117.935C363.195 117.147 363.269 116.317 363.269 115.443C363.269 114.719 363.504 114.219 363.972 113.942C364.462 113.665 365.037 113.527 365.697 113.527H366.017C366.145 113.527 366.262 113.537 366.368 113.558C366.411 113.708 366.485 113.825 366.592 113.91C366.72 113.974 366.847 114.048 366.975 114.134V114.325C366.975 114.623 366.933 114.9 366.847 115.156C366.784 115.39 366.752 115.646 366.752 115.923C366.752 116.05 366.773 116.221 366.815 116.434C367.028 117.051 367.188 117.616 367.295 118.127C367.422 118.638 367.486 119.234 367.486 119.916C367.486 120.491 367.454 121.077 367.39 121.673C367.348 122.248 367.284 122.823 367.199 123.398C367.327 123.632 367.39 123.877 367.39 124.133C367.39 124.303 367.369 124.484 367.327 124.676C367.305 124.846 367.295 125.017 367.295 125.187C367.295 125.549 367.348 125.911 367.454 126.273C367.582 126.614 367.71 126.955 367.838 127.296C367.987 127.636 368.115 127.977 368.221 128.318C368.328 128.659 368.37 128.999 368.349 129.34C368.711 129.787 369.03 130.245 369.307 130.714C369.605 131.204 369.968 131.63 370.393 131.992C370.564 132.034 370.702 132.056 370.809 132.056C370.937 132.056 371.043 132.034 371.128 131.992C371.213 131.97 371.288 131.938 371.352 131.896C371.437 131.875 371.522 131.853 371.607 131.832C371.693 131.832 371.82 131.843 371.991 131.864C372.374 131.587 372.726 131.268 373.045 130.906C373.365 130.565 373.663 130.213 373.94 129.851C374.238 129.489 374.536 129.117 374.834 128.733C375.132 128.35 375.441 127.988 375.761 127.647C376.378 126.114 376.879 124.58 377.262 123.047C377.645 121.513 377.88 119.916 377.965 118.255C377.965 118.02 378.018 117.903 378.125 117.903C378.231 117.903 378.327 117.829 378.412 117.68V116.785C378.412 116.104 378.444 115.422 378.508 114.74C378.593 114.059 378.753 113.388 378.987 112.728C378.923 112.472 378.891 112.217 378.891 111.961C378.891 111.407 378.934 110.875 379.019 110.364C379.126 109.831 379.179 109.299 379.179 108.766C379.179 108.49 379.147 108.213 379.083 107.936C379.04 107.638 378.934 107.371 378.764 107.137L378.732 106.945C378.732 106.818 378.774 106.711 378.859 106.626C378.966 106.541 379.04 106.445 379.083 106.339C378.977 106.062 378.934 105.774 378.955 105.476C378.998 105.178 379.019 104.88 379.019 104.581C379.019 104.411 378.998 104.23 378.955 104.038C378.913 103.847 378.806 103.698 378.636 103.591C378.827 103.378 378.966 103.101 379.051 102.76C379.136 102.42 379.189 102.058 379.211 101.674C379.253 101.291 379.275 100.918 379.275 100.556C379.275 100.173 379.296 99.8533 379.339 99.5978C379.53 99.3848 379.743 99.2037 379.978 99.0547C380.233 98.8843 380.51 98.7991 380.808 98.7991C381.191 98.7991 381.468 98.9375 381.639 99.2144C381.809 99.47 381.937 99.7894 382.022 100.173C382.107 100.535 382.171 100.908 382.214 101.291C382.278 101.674 382.384 101.983 382.533 102.217ZM419.016 95.1252C419.016 95.3169 419.006 95.5086 418.984 95.7003C418.984 95.8919 418.974 96.073 418.952 96.2433C418.889 96.3498 418.761 96.3924 418.569 96.3711C418.399 96.3498 418.26 96.3392 418.154 96.3392C418.047 96.3392 417.951 96.3605 417.866 96.4031C417.802 96.4244 417.77 96.4883 417.77 96.5948C417.77 96.7225 417.781 96.8077 417.802 96.8503C417.632 96.829 417.451 96.8077 417.259 96.7864C417.068 96.7651 416.897 96.7013 416.748 96.5948C416.45 96.6587 416.162 96.7438 415.886 96.8503C415.63 96.9568 415.374 97.074 415.119 97.2017C414.863 97.3295 414.597 97.4467 414.32 97.5532C414.043 97.6597 413.756 97.7235 413.458 97.7448C413.266 97.9578 413.021 98.1176 412.723 98.224C412.425 98.3305 412.116 98.4264 411.796 98.5116C411.477 98.5968 411.179 98.7032 410.902 98.831C410.625 98.9375 410.401 99.1079 410.231 99.3422C409.762 99.3848 409.315 99.5019 408.889 99.6936C408.463 99.8853 408.037 100.088 407.611 100.301C407.207 100.514 406.791 100.716 406.365 100.908C405.94 101.099 405.482 101.227 404.992 101.291C404.864 101.419 404.704 101.525 404.513 101.61C404.342 101.696 404.161 101.781 403.969 101.866C403.778 101.93 403.597 102.004 403.426 102.09C403.256 102.175 403.118 102.292 403.011 102.441H402.947C402.862 102.441 402.798 102.42 402.756 102.377C402.713 102.335 402.649 102.313 402.564 102.313C402.5 102.313 402.457 102.324 402.436 102.345C401.925 102.579 401.414 102.824 400.903 103.08C400.391 103.336 399.859 103.58 399.305 103.815C398.219 104.262 397.122 104.699 396.015 105.125C394.907 105.55 393.842 106.072 392.82 106.69C392.586 107.542 392.394 108.415 392.245 109.31C392.096 110.183 391.83 111.024 391.446 111.833V113.335C391.233 113.739 391.095 114.187 391.031 114.677C390.967 115.166 390.935 115.635 390.935 116.082C390.935 116.253 390.935 116.412 390.935 116.561C390.957 116.689 390.967 116.828 390.967 116.977C391.585 116.806 392.181 116.615 392.756 116.402C393.353 116.189 393.949 115.997 394.545 115.827C394.843 115.72 395.142 115.646 395.44 115.603C395.759 115.56 396.068 115.486 396.366 115.379C396.6 115.316 396.845 115.23 397.101 115.124C397.357 114.996 397.601 114.879 397.836 114.772C398.475 114.496 399.124 114.251 399.784 114.038C400.466 113.825 401.158 113.665 401.861 113.558C402.074 113.388 402.308 113.228 402.564 113.079C402.819 112.93 403.075 112.856 403.331 112.856C403.522 112.856 403.682 112.888 403.81 112.951C404.172 112.739 404.598 112.547 405.088 112.376C405.577 112.206 406.035 112.142 406.461 112.185C406.568 112.036 406.696 111.94 406.845 111.897C406.994 111.833 407.154 111.801 407.324 111.801C407.409 111.801 407.484 111.812 407.548 111.833C407.633 111.833 407.729 111.833 407.835 111.833C408.048 111.684 408.282 111.578 408.538 111.514C408.793 111.45 409.049 111.397 409.305 111.354C409.56 111.312 409.805 111.258 410.039 111.194C410.295 111.109 410.519 110.981 410.71 110.811C411.008 110.832 411.243 110.918 411.413 111.067C411.605 111.216 411.764 111.397 411.892 111.61C412.02 111.823 412.127 112.046 412.212 112.281C412.297 112.515 412.403 112.739 412.531 112.951C412.489 113.122 412.425 113.26 412.34 113.367C412.254 113.452 412.158 113.537 412.052 113.622C411.946 113.708 411.85 113.793 411.764 113.878C411.679 113.963 411.626 114.08 411.605 114.229C410.859 114.229 410.135 114.336 409.432 114.549C408.751 114.762 408.069 115.007 407.388 115.284C406.728 115.56 406.046 115.827 405.343 116.082C404.662 116.317 403.959 116.466 403.235 116.53C403.128 116.636 402.99 116.721 402.819 116.785L402.34 116.945C402.191 116.987 402.053 117.051 401.925 117.136C401.797 117.2 401.701 117.307 401.637 117.456C401.51 117.392 401.371 117.36 401.222 117.36C400.86 117.36 400.509 117.456 400.168 117.648C399.827 117.839 399.444 117.935 399.018 117.935C398.847 117.935 398.73 117.925 398.666 117.903C398.56 118.095 398.4 118.233 398.187 118.319C397.995 118.404 397.782 118.478 397.548 118.542C397.335 118.585 397.122 118.649 396.909 118.734C396.718 118.819 396.568 118.968 396.462 119.181C396.398 119.16 396.324 119.149 396.238 119.149H396.047C395.706 119.149 395.312 119.213 394.865 119.341C394.439 119.447 394.13 119.66 393.938 119.98C393.768 119.937 393.619 119.916 393.491 119.916C393.193 119.916 392.927 119.98 392.692 120.108C392.458 120.214 392.224 120.342 391.989 120.491L391.287 120.938C391.052 121.087 390.797 121.194 390.52 121.258C389.966 122.046 389.583 122.951 389.37 123.973C389.157 124.995 388.997 126.06 388.891 127.168C388.805 128.275 388.72 129.372 388.635 130.458C388.55 131.566 388.379 132.577 388.124 133.493C388.252 133.834 388.348 134.196 388.411 134.579C388.475 134.963 388.529 135.346 388.571 135.729C388.614 136.134 388.656 136.539 388.699 136.943C388.742 137.348 388.816 137.731 388.923 138.094C389.029 138.541 389.231 138.935 389.53 139.276C389.849 139.638 390.073 140.042 390.2 140.49C390.307 140.511 390.413 140.521 390.52 140.521C390.648 140.543 390.775 140.553 390.903 140.553C391.67 140.553 392.341 140.404 392.916 140.106C393.512 139.808 394.066 139.435 394.577 138.988C395.088 138.562 395.578 138.094 396.047 137.582C396.537 137.093 397.058 136.656 397.612 136.273H398.219C398.368 136.102 398.496 135.921 398.602 135.729C398.709 135.538 398.826 135.357 398.954 135.186C399.082 135.016 399.231 134.867 399.401 134.739C399.571 134.633 399.784 134.558 400.04 134.516C400.104 134.196 400.253 133.951 400.487 133.781C400.722 133.61 400.881 133.355 400.966 133.014C401.009 133.035 401.062 133.046 401.126 133.046C401.297 133.046 401.424 133.003 401.51 132.918L401.989 132.471C402.159 132.301 402.34 132.13 402.532 131.96C402.745 131.811 402.947 131.662 403.139 131.513C403.757 131.065 404.374 130.618 404.992 130.171C405.609 129.745 406.174 129.244 406.685 128.669C406.706 128.691 406.738 128.701 406.781 128.701C406.951 128.701 407.068 128.648 407.132 128.541C407.196 128.435 407.345 128.403 407.579 128.446C407.707 128.254 407.824 128.062 407.931 127.871C408.037 127.658 408.123 127.434 408.186 127.2L409.209 127.327C409.55 127.37 409.89 127.391 410.231 127.391C410.338 127.391 410.433 127.391 410.519 127.391C410.625 127.37 410.721 127.338 410.806 127.296C411.062 127.7 411.2 128.137 411.221 128.605C411.243 129.053 411.296 129.5 411.381 129.947C411.339 129.947 411.307 129.947 411.285 129.947C411.285 129.926 411.264 129.915 411.221 129.915C411.115 129.915 411.008 129.958 410.902 130.043C410.817 130.107 410.721 130.192 410.614 130.299L410.295 130.618C410.188 130.724 410.093 130.81 410.007 130.874C409.773 131.023 409.528 131.15 409.273 131.257C409.017 131.385 408.772 131.513 408.538 131.64C408.304 131.768 408.08 131.917 407.867 132.088C407.654 132.279 407.484 132.514 407.356 132.79C406.93 132.961 406.515 133.142 406.11 133.333C405.727 133.525 405.354 133.727 404.992 133.94C404.885 134.047 404.789 134.153 404.704 134.26C404.619 134.366 404.555 134.484 404.513 134.611C403.938 134.803 403.458 135.091 403.075 135.474C402.713 135.857 402.34 136.273 401.957 136.72L401.925 136.688C401.776 136.688 401.68 136.741 401.637 136.848C401.616 136.954 401.499 136.986 401.286 136.943C400.881 137.391 400.455 137.806 400.008 138.189C399.561 138.573 399.103 138.956 398.634 139.339C398.166 139.723 397.697 140.106 397.229 140.49C396.76 140.894 396.324 141.32 395.919 141.767C395.642 141.853 395.376 141.959 395.12 142.087C394.865 142.215 394.673 142.406 394.545 142.662H394.449C394.215 142.662 394.045 142.715 393.938 142.822C393.853 142.928 393.747 143.067 393.619 143.237C393.171 143.343 392.714 143.461 392.245 143.588C391.776 143.716 391.297 143.78 390.807 143.78C390.467 143.78 390.137 143.716 389.817 143.588C389.519 143.461 389.221 143.29 388.923 143.077C388.646 142.886 388.379 142.673 388.124 142.438C387.89 142.204 387.666 141.98 387.453 141.767C387.325 141.341 387.155 140.894 386.942 140.426C386.75 139.978 386.654 139.542 386.654 139.116C386.654 139.009 386.665 138.903 386.686 138.796C386.729 138.711 386.75 138.626 386.75 138.541C386.75 138.392 386.697 138.328 386.59 138.349C386.505 138.37 386.441 138.317 386.399 138.189C386.356 137.976 386.324 137.731 386.303 137.455C386.303 137.199 386.282 136.954 386.239 136.72C386.175 136.23 386.09 135.729 385.983 135.218C385.898 134.707 385.802 134.207 385.696 133.717C385.781 133.674 385.845 133.6 385.888 133.493C385.952 133.408 386.015 133.323 386.079 133.238C386.015 133.067 385.952 132.876 385.888 132.663C385.845 132.471 385.824 132.269 385.824 132.056C385.824 131.63 385.983 131.31 386.303 131.097C386.303 130.948 386.26 130.831 386.175 130.746C386.111 130.682 386.079 130.565 386.079 130.394C386.079 130.352 386.09 130.235 386.111 130.043C386.154 129.83 386.196 129.596 386.239 129.34C386.303 129.085 386.356 128.84 386.399 128.605C386.441 128.371 386.473 128.211 386.495 128.126C386.644 127.146 386.772 126.188 386.878 125.251C386.984 124.293 387.134 123.334 387.325 122.376C387.112 122.205 386.835 122.078 386.495 121.992C386.175 121.886 385.952 121.747 385.824 121.577C385.717 121.428 385.632 121.236 385.568 121.002C385.504 120.768 385.472 120.565 385.472 120.395C385.472 119.777 385.717 119.288 386.207 118.926C386.697 118.542 387.219 118.319 387.772 118.255C388.049 117.509 388.252 116.753 388.379 115.986C388.529 115.198 388.646 114.41 388.731 113.622L388.986 111.226C389.072 110.417 389.199 109.618 389.37 108.83H389.178C388.752 108.83 388.337 108.894 387.932 109.022C387.528 109.15 387.112 109.214 386.686 109.214H386.622C386.005 108.724 385.696 108.138 385.696 107.457C385.696 107.052 385.781 106.647 385.952 106.243C386.292 106.115 386.601 105.944 386.878 105.732C387.155 105.519 387.432 105.306 387.709 105.093C388.007 104.858 388.305 104.656 388.603 104.486C388.901 104.315 389.231 104.209 389.593 104.166C389.636 103.548 389.743 102.931 389.913 102.313C390.083 101.696 390.169 101.078 390.169 100.46C390.169 100.333 390.158 100.205 390.137 100.077C390.137 99.9492 390.115 99.8214 390.073 99.6936C390.222 99.5019 390.318 99.2996 390.36 99.0866C390.424 98.8736 390.456 98.65 390.456 98.4157C390.456 98.1602 390.435 97.9152 390.392 97.681C390.371 97.4254 390.339 97.1805 390.296 96.9462C390.488 96.861 390.637 96.7758 390.744 96.6906C390.85 96.5841 390.946 96.4883 391.031 96.4031C391.138 96.3179 391.265 96.2433 391.414 96.1795C391.564 96.1156 391.776 96.0836 392.053 96.0836C392.458 96.0836 392.799 96.1688 393.076 96.3392C393.374 96.4883 393.629 96.6906 393.842 96.9462C394.055 97.2017 394.236 97.4893 394.385 97.8087C394.556 98.1282 394.716 98.4477 394.865 98.7671C394.822 99.0014 394.726 99.1718 394.577 99.2783C394.428 99.3848 394.3 99.5232 394.194 99.6936C394.236 100.034 394.279 100.364 394.322 100.684C394.364 100.982 394.364 101.302 394.322 101.642C394.535 101.749 394.737 101.802 394.929 101.802C395.248 101.802 395.536 101.717 395.791 101.547C396.068 101.376 396.26 101.142 396.366 100.844H396.43C396.494 100.844 396.547 100.865 396.59 100.908C396.654 100.95 396.728 100.971 396.813 100.971H396.941C397.175 100.758 397.431 100.599 397.708 100.492C397.985 100.364 398.272 100.247 398.57 100.141C398.869 100.034 399.156 99.9279 399.433 99.8214C399.731 99.6936 400.008 99.5339 400.264 99.3422C400.391 99.4061 400.53 99.438 400.679 99.438C400.892 99.438 401.094 99.3954 401.286 99.3102C401.499 99.225 401.701 99.1399 401.893 99.0547C402.085 98.9482 402.287 98.8523 402.5 98.7671C402.734 98.6819 402.979 98.6394 403.235 98.6394C403.277 98.6394 403.331 98.65 403.394 98.6713C403.458 98.6713 403.512 98.6713 403.554 98.6713C403.703 98.6713 403.788 98.6181 403.81 98.5116C403.831 98.4051 403.831 98.3092 403.81 98.224C404.491 98.0537 405.077 97.862 405.567 97.649C406.078 97.4147 406.642 97.1485 407.26 96.8503C407.26 96.829 407.281 96.8184 407.324 96.8184C407.388 96.8184 407.43 96.8503 407.452 96.9142C407.473 96.9781 407.484 97.0314 407.484 97.074C407.611 97.0101 407.675 96.9036 407.675 96.7545C407.697 96.6054 407.75 96.4776 407.835 96.3711C407.92 96.3924 408.037 96.4031 408.186 96.4031C408.378 96.4031 408.57 96.3605 408.761 96.2753C408.974 96.1901 409.177 96.0943 409.368 95.9878C409.56 95.8813 409.752 95.7854 409.944 95.7003C410.135 95.6151 410.327 95.5725 410.519 95.5725C410.689 95.5725 410.827 95.6151 410.934 95.7003C411.062 95.6364 411.189 95.5512 411.317 95.4447C411.445 95.3169 411.583 95.253 411.733 95.253C411.775 95.253 411.807 95.2636 411.828 95.2849C411.871 95.3062 411.914 95.3275 411.956 95.3488C412.063 95.2424 412.158 95.1572 412.244 95.0933C412.35 95.0294 412.403 94.9229 412.403 94.7738C413.191 94.6886 413.916 94.5182 414.576 94.2627C415.257 93.9858 415.907 93.6237 416.525 93.1765C416.759 93.2191 416.982 93.2723 417.195 93.3362C417.43 93.3788 417.664 93.4001 417.898 93.4001C418.026 93.6344 418.143 93.8686 418.25 94.1029C418.356 94.3372 418.59 94.4437 418.952 94.4224C418.974 94.5289 418.984 94.646 418.984 94.7738C419.006 94.9016 419.016 95.0187 419.016 95.1252ZM452.56 124.612C452.56 124.889 452.486 125.144 452.337 125.379C452.188 125.592 452.145 125.847 452.209 126.145C452.124 126.295 452.007 126.412 451.858 126.497C451.73 126.582 451.687 126.742 451.73 126.976C451.283 127.21 450.867 127.509 450.484 127.871C450.122 128.211 449.728 128.541 449.302 128.861C449.046 129.053 448.823 129.191 448.631 129.276C448.461 129.34 448.248 129.447 447.992 129.596L447.193 130.107C446.831 130.299 446.459 130.49 446.075 130.682C445.713 130.874 445.383 131.119 445.085 131.417C444.638 131.438 444.18 131.555 443.711 131.768C443.243 132.002 442.795 132.205 442.369 132.375C442.199 132.439 442.029 132.482 441.858 132.503C441.688 132.545 441.518 132.609 441.347 132.695L440.836 132.918C440.538 133.067 440.186 133.216 439.782 133.365C439.377 133.536 439.015 133.621 438.696 133.621C438.504 133.706 438.344 133.855 438.216 134.068C437.514 134.303 436.789 134.484 436.044 134.611C435.299 134.739 434.574 134.941 433.872 135.218C433.637 135.325 433.392 135.463 433.137 135.634C432.903 135.825 432.647 135.911 432.37 135.889C432.306 135.996 432.264 136.123 432.242 136.273C432.221 136.422 432.189 136.571 432.146 136.72H432.051C431.965 136.72 431.923 136.677 431.923 136.592C431.944 136.507 431.912 136.464 431.827 136.464C431.763 136.464 431.721 136.475 431.699 136.496C431.422 136.56 431.156 136.613 430.901 136.656C430.666 136.699 430.4 136.72 430.102 136.72C429.932 136.72 429.655 136.699 429.271 136.656C428.909 136.613 428.643 136.56 428.473 136.496C428.345 136.432 428.238 136.315 428.153 136.145C428.068 135.974 427.983 135.793 427.898 135.602C427.834 135.41 427.77 135.208 427.706 134.995C427.663 134.803 427.621 134.643 427.578 134.516C427.642 134.281 427.748 134.09 427.898 133.94C428.047 133.791 428.164 133.6 428.249 133.365C428.441 133.344 428.632 133.312 428.824 133.27C429.016 133.227 429.207 133.216 429.399 133.238C430.059 133.046 430.72 132.854 431.38 132.663C432.061 132.492 432.732 132.311 433.392 132.12C434.053 131.928 434.702 131.715 435.341 131.481C435.98 131.246 436.598 130.959 437.194 130.618H437.865C438.248 130.405 438.674 130.224 439.143 130.075C439.611 129.926 439.995 129.681 440.293 129.34C440.996 129.191 441.73 128.989 442.497 128.733C443.264 128.478 443.903 128.073 444.414 127.519C444.733 127.477 445.01 127.402 445.245 127.296C445.479 127.168 445.703 127.04 445.916 126.912L446.554 126.497C446.767 126.348 447.012 126.231 447.289 126.145C447.46 125.975 447.619 125.794 447.768 125.602C447.918 125.411 448.099 125.251 448.312 125.123C448.248 124.782 448.077 124.527 447.8 124.356C447.523 124.186 447.279 123.984 447.066 123.749H446.363C445.809 123.409 445.213 123.153 444.574 122.983C443.956 122.791 443.338 122.589 442.721 122.376C442.678 122.354 442.625 122.344 442.561 122.344C442.412 122.344 442.316 122.397 442.274 122.504C442.252 122.61 442.167 122.653 442.018 122.631C441.826 122.504 441.624 122.429 441.411 122.408C441.198 122.365 440.974 122.344 440.74 122.344C440.442 122.344 440.144 122.365 439.846 122.408C439.569 122.429 439.281 122.44 438.983 122.44C438.834 122.44 438.685 122.429 438.536 122.408C438.387 122.386 438.238 122.333 438.089 122.248H437.673C437.226 122.248 436.779 122.269 436.331 122.312C435.906 122.333 435.48 122.344 435.054 122.344C434.819 122.344 434.596 122.344 434.383 122.344C434.17 122.323 433.957 122.291 433.744 122.248C433.297 122.461 432.817 122.61 432.306 122.695C431.795 122.78 431.263 122.844 430.709 122.887C430.176 122.93 429.644 122.972 429.112 123.015C428.579 123.036 428.068 123.089 427.578 123.174C427.45 123.153 427.323 123.142 427.195 123.142C427.088 123.121 426.982 123.111 426.875 123.111C426.769 123.111 426.652 123.121 426.524 123.142C426.417 123.142 426.311 123.153 426.204 123.174C425.928 122.876 425.587 122.663 425.182 122.535C424.799 122.386 424.415 122.291 424.032 122.248C423.734 121.886 423.51 121.524 423.361 121.162C423.233 120.778 423.148 120.352 423.106 119.884H423.233C423.382 119.884 423.446 119.809 423.425 119.66C423.425 119.511 423.478 119.383 423.585 119.277C423.691 119.149 423.83 119.064 424 119.021C424.192 118.957 424.373 118.894 424.543 118.83C424.714 118.766 424.873 118.691 425.022 118.606C425.193 118.5 425.321 118.34 425.406 118.127H425.821C425.906 118.127 425.991 118.137 426.077 118.159C426.183 118.159 426.268 118.191 426.332 118.255C426.417 118.169 426.524 118.095 426.652 118.031C426.779 117.967 426.897 117.903 427.003 117.839C427.131 117.775 427.237 117.701 427.323 117.616C427.408 117.531 427.461 117.403 427.482 117.232C427.504 117.296 427.557 117.328 427.642 117.328C427.727 117.328 427.802 117.307 427.866 117.264C427.951 117.222 428.047 117.211 428.153 117.232C428.26 116.934 428.441 116.774 428.696 116.753C428.952 116.732 429.186 116.657 429.399 116.53C429.548 116.444 429.687 116.348 429.814 116.242C429.942 116.114 430.081 115.997 430.23 115.891L432.146 114.421L435.086 112.185C436.065 111.439 437.066 110.747 438.089 110.108C438.131 109.98 438.195 109.885 438.28 109.821C438.365 109.757 438.451 109.693 438.536 109.629C438.621 109.544 438.685 109.459 438.727 109.373C438.791 109.288 438.813 109.16 438.791 108.99C439.09 108.926 439.313 108.809 439.462 108.639C439.633 108.468 439.782 108.287 439.91 108.096C440.037 107.883 440.165 107.68 440.293 107.489C440.442 107.276 440.634 107.116 440.868 107.009C440.847 106.945 440.836 106.85 440.836 106.722C440.836 106.551 440.847 106.381 440.868 106.211C440.911 106.04 440.996 105.891 441.124 105.763C440.932 105.316 440.602 104.997 440.133 104.805C439.665 104.592 439.217 104.411 438.791 104.262H438.696C438.589 104.262 438.525 104.315 438.504 104.422C438.504 104.507 438.451 104.571 438.344 104.613C438.003 104.528 437.62 104.486 437.194 104.486C436.768 104.486 436.342 104.518 435.916 104.581C435.512 104.645 435.096 104.656 434.67 104.613C434.606 104.699 434.532 104.784 434.447 104.869C434.383 104.954 434.298 105.029 434.191 105.093C433.744 105.114 433.297 105.178 432.849 105.284L431.508 105.604L430.773 105.763C430.666 105.806 430.592 105.881 430.549 105.987C430.507 106.094 430.475 106.211 430.453 106.339C430.326 106.317 430.24 106.264 430.198 106.179C430.176 106.094 430.102 106.03 429.974 105.987C429.484 106.285 428.952 106.53 428.377 106.722C427.823 106.914 427.323 107.212 426.875 107.616C426.726 107.446 426.513 107.361 426.236 107.361C426.002 107.361 425.746 107.435 425.47 107.584C425.193 107.734 425.022 107.925 424.958 108.159C424.745 108.117 424.586 108.096 424.479 108.096C424.245 108.096 424.043 108.159 423.872 108.287C423.723 108.415 423.574 108.564 423.425 108.735C423.276 108.884 423.116 109.033 422.946 109.182C422.775 109.331 422.562 109.416 422.307 109.437C422.307 109.544 422.307 109.661 422.307 109.789C422.328 109.895 422.339 110.012 422.339 110.14C422.339 111.099 422.286 112.057 422.179 113.015C422.073 113.952 422.019 114.9 422.019 115.859C422.019 116.072 422.03 116.285 422.051 116.498C422.073 116.689 422.083 116.902 422.083 117.136C422.083 117.2 422.03 117.339 421.924 117.552C421.838 117.765 421.774 117.925 421.732 118.031C421.817 118.265 421.849 118.5 421.828 118.734C421.828 118.968 421.881 119.192 421.987 119.405C421.796 119.575 421.7 119.809 421.7 120.108C421.7 120.235 421.7 120.363 421.7 120.491C421.721 120.619 421.732 120.746 421.732 120.874V121.258C421.668 121.684 421.625 122.12 421.604 122.567C421.583 122.993 421.572 123.419 421.572 123.845C421.572 124.037 421.572 124.367 421.572 124.836C421.593 125.283 421.625 125.794 421.668 126.369C421.711 126.923 421.774 127.498 421.86 128.094C421.945 128.691 422.051 129.244 422.179 129.755C422.328 130.245 422.509 130.65 422.722 130.969C422.935 131.289 423.191 131.449 423.489 131.449C423.553 131.449 423.627 131.438 423.713 131.417C423.819 131.395 423.872 131.342 423.872 131.257C423.872 131.172 423.851 131.097 423.808 131.033C423.787 130.969 423.776 130.895 423.776 130.81L423.808 130.746C423.979 130.831 424.16 130.884 424.351 130.906C424.564 130.927 424.777 130.948 424.99 130.969C425.203 130.991 425.406 131.023 425.597 131.065C425.789 131.129 425.959 131.246 426.109 131.417C426.023 131.587 425.981 131.768 425.981 131.96C425.981 132.215 426.045 132.45 426.172 132.663C426.3 132.897 426.385 133.131 426.428 133.365C426.023 133.493 425.651 133.632 425.31 133.781C424.99 133.951 424.671 134.1 424.351 134.228C424.032 134.377 423.691 134.505 423.329 134.611C422.967 134.739 422.552 134.824 422.083 134.867C421.785 134.675 421.53 134.505 421.317 134.356C421.104 134.207 420.816 134.111 420.454 134.068C419.9 133.323 419.442 132.482 419.08 131.544C418.718 130.629 418.431 129.67 418.218 128.669C418.026 127.668 417.888 126.667 417.802 125.666C417.739 124.644 417.707 123.686 417.707 122.791C417.707 121.811 417.739 120.842 417.802 119.884C417.888 118.904 417.994 117.925 418.122 116.945C418.164 116.647 418.207 116.348 418.25 116.05C418.292 115.731 418.335 115.422 418.377 115.124C418.42 115.017 418.452 114.9 418.473 114.772C418.516 114.623 418.537 114.496 418.537 114.389C418.537 114.027 418.527 113.665 418.505 113.303C418.484 112.941 418.473 112.589 418.473 112.249C418.473 111.716 418.505 111.173 418.569 110.619C418.59 110.513 418.622 110.374 418.665 110.204C418.729 110.034 418.761 109.885 418.761 109.757C418.761 109.586 418.718 109.469 418.633 109.405C418.548 109.341 418.473 109.235 418.409 109.086C418.473 108.873 418.527 108.671 418.569 108.479C418.612 108.266 418.633 108.053 418.633 107.84C418.633 107.435 418.558 107.084 418.409 106.786C418.516 106.232 418.676 105.689 418.889 105.156C419.102 104.624 419.474 104.219 420.007 103.943C420.433 103.964 420.859 104.006 421.285 104.07C421.732 104.134 422.115 104.315 422.435 104.613C422.584 104.528 422.754 104.475 422.946 104.454L423.553 104.39C423.766 104.368 423.957 104.337 424.128 104.294C424.298 104.23 424.447 104.113 424.575 103.943C425.001 103.857 425.459 103.74 425.949 103.591C426.439 103.421 426.865 103.229 427.227 103.016H427.93C428.079 102.91 428.249 102.835 428.441 102.792L429.048 102.633C429.261 102.569 429.452 102.505 429.623 102.441C429.814 102.377 429.963 102.271 430.07 102.122H430.198C430.688 102.122 431.167 102.015 431.635 101.802C432.104 101.589 432.562 101.397 433.009 101.227C433.116 101.184 433.275 101.11 433.488 101.003C433.723 100.897 433.882 100.844 433.967 100.844C434.266 100.801 434.564 100.78 434.862 100.78C435.16 100.758 435.458 100.716 435.756 100.652C436.438 100.546 437.109 100.428 437.769 100.301C438.451 100.151 439.132 100.077 439.814 100.077C440.048 100.077 440.261 100.088 440.453 100.109C440.666 100.109 440.889 100.12 441.124 100.141C441.145 100.226 441.198 100.301 441.283 100.364C441.368 100.407 441.443 100.45 441.507 100.492C441.592 100.535 441.667 100.599 441.73 100.684C441.794 100.748 441.816 100.844 441.794 100.971C441.837 101.014 441.88 101.035 441.922 101.035C441.986 101.035 442.039 101.003 442.082 100.94C442.146 100.876 442.231 100.844 442.337 100.844H442.497C442.774 101.142 443.04 101.429 443.296 101.706C443.573 101.962 443.914 102.175 444.318 102.345C444.489 102.984 444.691 103.612 444.925 104.23C445.159 104.848 445.277 105.508 445.277 106.211C445.277 106.637 445.213 107.052 445.085 107.457C444.787 107.606 444.574 107.84 444.446 108.159C444.318 108.479 444.201 108.788 444.095 109.086C443.498 109.384 442.998 109.778 442.593 110.268C442.188 110.758 441.773 111.248 441.347 111.738H440.836C440.751 111.738 440.687 111.769 440.644 111.833L440.357 112.153C440.165 112.323 439.952 112.494 439.718 112.664C439.505 112.834 439.345 113.058 439.239 113.335C438.578 113.697 437.939 114.102 437.322 114.549C436.726 114.996 436.15 115.465 435.597 115.954C435.362 116.146 435.128 116.37 434.894 116.625C434.66 116.86 434.425 117.062 434.191 117.232C434.063 117.339 433.914 117.435 433.744 117.52C433.595 117.584 433.456 117.669 433.329 117.775C433.052 117.988 432.796 118.212 432.562 118.446C432.328 118.659 432.083 118.862 431.827 119.053C432.785 119.011 433.754 118.989 434.734 118.989C435.714 118.968 436.683 118.947 437.641 118.926C438.131 118.926 438.61 118.915 439.079 118.894C439.547 118.851 440.027 118.83 440.517 118.83C440.602 118.83 440.676 118.851 440.74 118.894C440.804 118.915 440.879 118.936 440.964 118.957C441.326 119.021 441.645 119.096 441.922 119.181C442.944 119.373 443.967 119.543 444.989 119.692C446.011 119.841 447.012 120.086 447.992 120.427C448.269 120.533 448.471 120.651 448.599 120.778C448.748 120.906 449.004 120.938 449.366 120.874C449.664 121.172 449.983 121.407 450.324 121.577C450.686 121.747 451.048 121.897 451.41 122.024C451.687 122.45 451.943 122.855 452.177 123.238C452.433 123.622 452.56 124.08 452.56 124.612Z" fill="#202020"/>
</g>
</g>
<path d="M710.828 41.3672H88.1773C81.9254 41.3672 75.9281 43.844 71.4981 48.2556L52.7551 66.9204C48.3008 71.3561 45.7969 77.3834 45.7969 83.6695V332.403C45.7969 345.458 56.3797 356.041 69.4343 356.041H729.571C742.625 356.041 753.208 345.458 753.208 332.403V83.6695C753.208 77.3834 750.704 71.3561 746.25 66.9204L727.507 48.2556C723.077 43.844 717.08 41.3672 710.828 41.3672Z" stroke="#202020" stroke-width="2.21601"/>
<g clip-path="url(#clip7_18_1180)">
<path d="M229.726 157.706H568.037C603.325 157.706 631.932 186.312 631.932 221.601V223.078C631.932 258.366 603.325 286.973 568.037 286.973H229.726C194.437 286.973 165.831 258.366 165.831 223.078V221.601C165.831 186.312 194.437 157.706 229.726 157.706Z" stroke="#202020" stroke-width="2.21601"/>
<path d="M559.596 179.016C583.665 179.016 603.177 198.528 603.177 222.598C603.177 246.667 583.665 266.178 559.596 266.179C535.526 266.179 516.014 246.667 516.014 222.598C516.014 198.528 535.526 179.016 559.596 179.016ZM559.344 190.096C554.878 190.096 550.623 190.996 546.75 192.625L550.667 199.41L543.62 203.479L539.706 196.698C532.91 201.859 528.207 209.633 527.096 218.523H534.934V226.66H527.095C528.203 235.548 532.9 243.319 539.689 248.482L543.607 241.699L550.654 245.768L546.731 252.561C550.609 254.195 554.871 255.099 559.344 255.099C563.81 255.099 568.065 254.197 571.938 252.567L568.022 245.784L575.069 241.716L578.982 248.494C585.78 243.331 590.484 235.554 591.593 226.66H583.755V218.523H591.592C590.481 209.638 585.782 201.869 578.992 196.708L575.081 203.484L568.034 199.416L571.95 192.631C568.074 190.998 563.814 190.096 559.344 190.096Z" fill="#202020"/>
<path d="M237.852 179.016C261.921 179.016 281.433 198.528 281.433 222.598C281.432 246.667 261.921 266.178 237.852 266.179C213.782 266.179 194.27 246.667 194.27 222.598C194.27 198.528 213.782 179.016 237.852 179.016ZM237.6 190.096C233.134 190.096 228.879 190.996 225.006 192.625L228.923 199.41L221.876 203.479L217.962 196.698C211.166 201.859 206.463 209.633 205.352 218.523H213.189V226.66H205.351C206.459 235.548 211.156 243.319 217.945 248.482L221.863 241.699L228.91 245.768L224.987 252.561C228.865 254.195 233.127 255.099 237.6 255.099C242.066 255.099 246.321 254.197 250.194 252.567L246.278 245.784L253.325 241.716L257.238 248.494C264.036 243.331 268.739 235.554 269.849 226.66H262.011V218.523H269.848C268.737 209.638 264.038 201.869 257.248 196.708L253.337 203.484L246.29 199.416L250.206 192.631C246.33 190.998 242.07 190.096 237.6 190.096Z" fill="#202020"/>
</g>
<defs>
<clipPath id="clip0_18_1180">
<rect width="26.5921" height="26.5921" fill="white" transform="translate(385.467 386.867)"/>
</clipPath>
<clipPath id="clip1_18_1180">
<rect width="26.5921" height="26.5921" fill="white" transform="translate(19.9434 19.9453)"/>
</clipPath>
<clipPath id="clip2_18_1180">
<rect width="26.5921" height="26.5921" fill="white" transform="translate(19.9434 442.27)"/>
</clipPath>
<clipPath id="clip3_18_1180">
<rect width="26.5921" height="26.5921" fill="white" transform="translate(750.992 19.9453)"/>
</clipPath>
<clipPath id="clip4_18_1180">
<rect width="26.5921" height="26.5921" fill="white" transform="translate(750.992 442.27)"/>
</clipPath>
<clipPath id="clip5_18_1180">
<rect width="707.647" height="314.674" fill="white" transform="translate(45.7969 41.3672)"/>
</clipPath>
<clipPath id="clip6_18_1180">
<rect width="708" height="199.767" fill="white" transform="matrix(1 0 0 -1 46.166 356.738)"/>
</clipPath>
<clipPath id="clip7_18_1180">
<rect x="164.723" y="156.598" width="468.317" height="131.483" rx="65.003" fill="white"/>
</clipPath>
</defs>
</svg>
