<svg width="88" height="89" viewBox="0 0 88 89" fill="none" xmlns="http://www.w3.org/2000/svg">
<path fill-rule="evenodd" clip-rule="evenodd" d="M43.7499 64.7327C40.4174 66.2836 36.7552 66.9581 33.0997 66.6942C29.4441 66.4302 25.9123 65.2364 22.8285 63.2222C19.7448 61.208 17.208 58.4381 15.4511 55.1668C13.6942 51.8955 12.7734 48.2276 12.7734 44.5C12.7734 40.7724 13.6942 37.1045 15.4511 33.8332C17.208 30.5619 19.7448 27.792 22.8285 25.7778C25.9123 23.7636 29.4441 22.5698 33.0997 22.3058C36.7552 22.0419 40.4174 22.7164 43.7499 24.2673C47.0824 22.7164 50.7446 22.0419 54.4002 22.3058C58.0558 22.5698 61.5876 23.7636 64.6713 25.7778C67.7551 27.792 70.2919 30.5619 72.0488 33.8332C73.8057 37.1045 74.7264 40.7724 74.7264 44.5C74.7264 48.2276 73.8057 51.8955 72.0488 55.1668C70.2919 58.4381 67.7551 61.208 64.6713 63.2222C61.5876 65.2364 58.0558 66.4302 54.4002 66.6942C50.7446 66.9581 47.0824 66.2836 43.7499 64.7327ZM36.4583 59.2184C34.4062 59.4798 32.3229 59.2942 30.3468 58.674C28.3706 58.0539 26.5467 57.0133 24.9961 55.6213C23.4456 54.2294 22.2038 52.5179 21.3533 50.6005C20.5027 48.6831 20.0628 46.6036 20.0628 44.5C20.0628 42.3965 20.5027 40.317 21.3533 38.3995C22.2038 36.4821 23.4456 34.7706 24.9961 33.3787C26.5467 31.9867 28.3706 30.9461 30.3468 30.326C32.3229 29.7058 34.4062 29.5202 36.4583 29.7816C32.927 33.8424 30.9814 39.0787 30.9895 44.5C30.9824 49.9211 32.9279 55.1571 36.4583 59.2184ZM51.0416 29.7816C53.0937 29.5202 55.1769 29.7058 57.1531 30.326C59.1293 30.9461 60.9532 31.9867 62.5037 33.3787C64.0543 34.7706 65.2961 36.4821 66.1466 38.3995C66.9972 40.317 67.437 42.3965 67.437 44.5C67.437 46.6036 66.9972 48.6831 66.1466 50.6005C65.2961 52.5179 64.0543 54.2294 62.5037 55.6213C60.9532 57.0133 59.1293 58.0539 57.1531 58.674C55.1769 59.2942 53.0937 59.4798 51.0416 59.2184C54.5725 55.1574 56.5181 49.9212 56.5104 44.5C56.5181 39.0788 54.5725 33.8426 51.0416 29.7816ZM43.7499 32.9189C47.0859 35.6371 49.2187 39.8164 49.2187 44.5C49.2187 49.1836 47.0859 53.3629 43.7499 56.0811C42.0418 54.6925 40.6631 52.9302 39.7164 50.9253C38.7696 48.9203 38.2791 46.7242 38.2812 44.5C38.2812 39.8164 40.414 35.6371 43.7499 32.9189Z" fill="#FEFCD9"/>
</svg>
